<?xml version="1.0" encoding="utf-8"?>
<!-- Generator: Adobe Illustrator 23.0.3, SVG Export Plug-In . SVG Version: 6.00 Build 0)  -->
<svg version="1.1" id="Layer_1" xmlns="http://www.w3.org/2000/svg" xmlns:xlink="http://www.w3.org/1999/xlink" x="0px" y="0px"
	 viewBox="0 0 624.8 455.9" style="enable-background:new 0 0 624.8 455.9;" xml:space="preserve">
<style type="text/css">
	.st0{fill:none;}
	.st1{opacity:0.2;}
	.st2{clip-path:url(#SVGID_2_);}
	.st3{fill:#E9EBFB;}
	.st4{clip-path:url(#SVGID_4_);fill:#E0E2F5;}
	.st5{fill:#FFFFFF;}
	.st6{fill:#DCE0F4;}
	.st7{fill:#09ACF2;}
	.st8{fill:none;stroke:#FFFFFF;stroke-width:5;stroke-linecap:round;stroke-linejoin:round;stroke-miterlimit:10;}
	.st9{fill:none;stroke:#E4EAEF;stroke-width:14;stroke-linecap:round;stroke-miterlimit:10;}
	.st10{fill:#E4EAEF;}
	.st11{fill:#306FB4;}
	.st12{fill:none;stroke:#E4EAEF;stroke-width:3;stroke-linecap:round;stroke-linejoin:round;stroke-miterlimit:10;}
	.st13{fill:#81B7FB;}
	.st14{fill:#4D8BD7;}
	.st15{fill:#C4AA90;}
	.st16{fill:#85674D;}
	.st17{fill:#A68B6D;}
	.st18{fill:#E5E6E8;}
	.st19{opacity:0.3;fill:#CDCFCE;}
	.st20{opacity:0.1;fill:#59698B;}
	.st21{opacity:0.4;fill:#59698B;}
	.st22{fill:#59698B;}
	.st23{fill:#87CCC9;}
	.st24{fill:#5A6A8C;}
	.st25{fill:#F5F6F8;}
	.st26{opacity:0.3;}
	.st27{fill:#CDCFCE;}
	.st28{fill:#C4C6C5;}
	.st29{fill:#AEB0AF;}
	.st30{fill:#21283A;}
	.st31{fill:#4A5B75;}
	.st32{fill:#1DA2D6;}
	.st33{fill:#F2BE9B;}
	.st34{fill:#F2F2F2;}
	.st35{opacity:0.6;fill:#F2F2F2;}
	.st36{fill:#D69238;}
	.st37{fill:#4F3A2A;}
	.st38{fill:#16569B;}
	.st39{fill:#FFE536;}
	.st40{opacity:0.6;fill:#E6E6E6;}
	.st41{fill:#602C34;}
	.st42{fill:#473F3C;}
	.st43{fill:#177FBF;}
	.st44{opacity:0.6;fill:#9B5334;}
	.st45{fill:#D3E9EF;}
	.st46{fill:#EAE3C3;}
	.st47{fill:#EDB48D;}
	.st48{fill:#FFB287;}
	.st49{fill:#301B24;}
	.st50{fill:#232323;}
	.st51{fill:#1C1619;}
	.st52{fill:#F2BE3D;}
	.st53{fill:#FFE536;stroke:#EAE3C3;stroke-width:10;stroke-linecap:round;stroke-linejoin:round;stroke-miterlimit:10;}
	.st54{fill:#4B4C4C;}
	.st55{fill:#C2B9BC;}
	.st56{fill:#E8DFE2;}
</style>
<rect x="247.2" y="233.4" class="st0" width="80.4" height="20.4"/>
<g class="st1">
	<defs>
		<rect id="SVGID_1_" x="51.6" y="134.5" class="st1" width="573.1" height="320.4"/>
	</defs>
	<clipPath id="SVGID_2_">
		<use xlink:href="#SVGID_1_"  style="overflow:visible;"/>
	</clipPath>
	<g class="st2">
		<path class="st3" d="M258.2,209.5c-8.1,9.5-14.8,18.5-7.4,28.1c3.6,4.7,10.4,9,18.3,16.2c35.1,31.8-3.5,48.2-49,48.9
			c-45.4,0.7-138.9-2.7-150.6,73.5c-6.6,43.1,10.8,146.8,241.5,170c207.8,20.9,328.2-66.3,297.3-114.4
			c-30.9-48.1-65.8-68.5-47.9-90.6c26.9-33.2,46.2-37.1,50.9-84.9C623.4,131.6,348.9,103.2,258.2,209.5z"/>
		<g>
			<defs>
				<path id="SVGID_3_" d="M258.2,209.5c-8.1,9.5-14.8,18.5-7.4,28.1c3.6,4.7,10.4,9,18.3,16.2c35.1,31.8-3.5,48.2-49,48.9
					c-45.4,0.7-138.9-2.7-150.6,73.5c-6.6,43.1,10.8,146.8,241.5,170c207.8,20.9,328.2-66.3,297.3-114.4
					c-30.9-48.1-65.8-68.5-47.9-90.6c26.9-33.2,46.2-37.1,50.9-84.9C623.4,131.6,348.9,103.2,258.2,209.5z"/>
			</defs>
			<clipPath id="SVGID_4_">
				<use xlink:href="#SVGID_3_"  style="overflow:visible;"/>
			</clipPath>
			<path class="st4" d="M241.6,171.6c0,0,27.5,82.2,89.8,152c31.5,35.3,187.3,111.8,111,162.2C80.9,725,53.9,359.7,53.9,359.7
				L153.3,198L241.6,171.6z"/>
		</g>
	</g>
</g>
<rect x="197.4" y="233.4" class="st0" width="82.8" height="21"/>
<path class="st5" d="M560.7,420.8"/>
<path class="st6" d="M167,35.2c0,0-4.6-6-7.4-8.8c-5.1-5-10.9-13.8-29.5-7.3c-1.4,0.5-2.9,1.2-4.2,1.9c-1.6,0.8-6.7,0.8-11.9-3.9
	C105.6,9.5,102.3,3.9,91,3.7C77.8,3.5,75.7,22.3,65.5,27.1c-6.5,3.1-23.7,6.1-27.3,7.5L167,35.2z"/>
<path class="st6" d="M284.3,58.9c0,0,2.6-3,4.2-4.4c2.9-2.5,6.2-6.9,16.8-3.6c0.8,0.3,1.6,0.6,2.4,0.9c0.9,0.4,3.8,0.4,6.8-1.9
	c4.7-3.7,6.6-6.6,13-6.6c7.5-0.1,8.7,9.3,14.5,11.7c3.7,1.5,13.5,3,15.5,3.7L284.3,58.9z"/>
<g>
	<rect x="231.4" y="232.8" class="st0" width="80.4" height="20.4"/>
	<path class="st7" d="M145,126.7v262.7h159.1V126.7C304.1,126.7,227.8,44.1,145,126.7z"/>
	<path class="st8" d="M160.5,141.8v227.4h128.7V141.8C289.2,141.8,227.5,85.5,160.5,141.8z"/>
	<path class="st9" d="M139.6,121.9c0,0,75.3-69.3,168.2,0"/>
	<path class="st10" d="M307.7,402.2H141.6c-3.6,0-6.4-2.9-6.4-6.4v-2.1c0-3.6,2.9-6.4,6.4-6.4h166.1c3.6,0,6.4,2.9,6.4,6.4v2.1
		C314.2,399.3,311.3,402.2,307.7,402.2z"/>
	<rect x="156.1" y="167.7" class="st11" width="8.3" height="22.1"/>
	<path class="st11" d="M253.8,325.5h-59.6c-0.7,0-1.2-0.6-1.2-1.2v-1c0-0.7,0.6-1.2,1.2-1.2h59.6c0.7,0,1.2,0.6,1.2,1.2v1
		C255,325,254.5,325.5,253.8,325.5z"/>
	<path class="st11" d="M253.8,334.9h-59.6c-0.7,0-1.2-0.6-1.2-1.2v-1c0-0.7,0.6-1.2,1.2-1.2h59.6c0.7,0,1.2,0.6,1.2,1.2v1
		C255,334.3,254.5,334.9,253.8,334.9z"/>
	<path class="st11" d="M253.8,344.2h-59.6c-0.7,0-1.2-0.6-1.2-1.2v-1c0-0.7,0.6-1.2,1.2-1.2h59.6c0.7,0,1.2,0.6,1.2,1.2v1
		C255,343.6,254.5,344.2,253.8,344.2z"/>
	<rect x="156.1" y="326.2" class="st11" width="8.3" height="22.1"/>
	<polyline class="st12" points="273.6,232.8 276.6,235.8 276.6,249.9 274,252.5 	"/>
	<g>
		<path class="st5" d="M213.6,186h22c4,0,7.3-3.3,7.3-7.3v-22c0-4-3.3-7.3-7.3-7.3h-22c-4,0-7.3,3.3-7.3,7.3v22
			C206.2,182.7,209.5,186,213.6,186L213.6,186z M231.6,156.1c0.4-0.4,0.8-0.6,1.4-0.6c0.5,0,1,0.2,1.4,0.6c0.4,0.4,0.6,0.8,0.6,1.4
			c0,0.6-0.2,1-0.6,1.4c-0.4,0.4-0.8,0.5-1.4,0.5c-0.5,0-1-0.2-1.4-0.5c-0.4-0.4-0.5-0.8-0.5-1.4
			C231.1,156.9,231.2,156.4,231.6,156.1L231.6,156.1z M228.3,162.3c0-0.7,0.3-1.2,0.7-1.7c0.5-0.5,1.1-0.7,1.7-0.7h4.3
			c0.7,0,1.3,0.3,1.7,0.7c0.5,0.5,0.7,1.1,0.7,1.7v6c0,0.2-0.1,0.4-0.2,0.6c-0.2,0.2-0.3,0.2-0.6,0.2c-0.2,0-0.4-0.1-0.6-0.2
			c-0.2-0.2-0.2-0.4-0.2-0.6v-5.4h-0.5v14.9c0,0.3-0.1,0.6-0.3,0.8c-0.2,0.2-0.5,0.3-0.8,0.3c-0.3,0-0.6-0.1-0.8-0.3
			c-0.2-0.2-0.3-0.5-0.3-0.8v-8.6h-0.5v8.6c0,0.3-0.1,0.6-0.3,0.8c-0.2,0.2-0.5,0.3-0.8,0.3c-0.3,0-0.6-0.1-0.8-0.3
			c-0.2-0.2-0.4-0.5-0.4-0.8v-14.9H230v5.4c0,0.2-0.1,0.4-0.2,0.6c-0.2,0.2-0.4,0.2-0.6,0.2c-0.2,0-0.4-0.1-0.6-0.2
			c-0.2-0.2-0.3-0.4-0.3-0.6V162.3z M224.4,154h1.9v27.5h-1.9V154z M215.6,156.1c0.4-0.4,0.9-0.6,1.4-0.6c0.5,0,1,0.2,1.3,0.6
			c0.4,0.4,0.5,0.8,0.5,1.4c0,0.6-0.2,1-0.5,1.4c-0.4,0.4-0.8,0.5-1.3,0.5c-0.6,0-1-0.2-1.4-0.5c-0.4-0.4-0.6-0.8-0.6-1.4
			C215.1,156.9,215.2,156.4,215.6,156.1L215.6,156.1z M211.6,167.3c0-0.1,0.1-0.3,0.2-0.7c0.1-0.4,0.2-0.8,0.4-1.4
			c0.2-0.5,0.3-1.1,0.5-1.8c0.2-0.6,0.4-1.3,0.6-1.8c0.1-0.5,0.4-0.9,0.8-1.2c0.4-0.4,0.9-0.5,1.3-0.5h3.1c0.5,0,0.9,0.2,1.3,0.5
			c0.4,0.4,0.7,0.8,0.9,1.2c0.2,0.6,0.4,1.2,0.5,1.8c0.2,0.6,0.4,1.2,0.5,1.8c0.2,0.5,0.3,1,0.4,1.4c0.1,0.4,0.2,0.6,0.2,0.7l0,0.2
			c0,0.4-0.2,0.6-0.5,0.7l-0.2,0.1c-0.4,0-0.6-0.2-0.8-0.6c0-0.1-0.1-0.5-0.3-1.1c-0.2-0.6-0.3-1.2-0.5-1.8
			c-0.2-0.6-0.4-1.4-0.7-2.4h-0.4l2.6,8.8H219v6.7c0,0.3-0.1,0.5-0.3,0.6c-0.2,0.2-0.4,0.3-0.6,0.3c-0.3,0-0.5-0.1-0.7-0.3
			c-0.2-0.2-0.2-0.4-0.2-0.6v-6.7h-0.5v6.7c0,0.3-0.1,0.5-0.2,0.6c-0.2,0.2-0.4,0.3-0.6,0.3c-0.3,0-0.5-0.1-0.7-0.3
			c-0.2-0.2-0.3-0.4-0.3-0.6v-6.7h-2.5l2.6-8.8h-0.4c-0.3,1-0.5,1.8-0.7,2.4c-0.2,0.6-0.4,1.2-0.5,1.8c-0.2,0.6-0.3,0.9-0.3,1.1
			c-0.1,0.4-0.4,0.6-0.8,0.6l-0.2-0.1c-0.4-0.1-0.5-0.4-0.5-0.7C211.6,167.5,211.6,167.4,211.6,167.3L211.6,167.3z M211.6,167.3"/>
	</g>
</g>
<g>
	<path class="st13" d="M541.3,174.2c-0.9,0-23.8-4.2-25-27.8c-1.1-23.6,13.4-28.7,9.5-55.2c-3.9-26.4-14-34.5,8.5-52.5
		c0,0,10-7.2,10.5-18c0.5-12.9,20.7-26.9,34.2-17.6c13.6,9.3,10.4,22.5-1.1,43.5c-11.5,21-0.3,25.3,1.9,32.4
		c2.3,7.1,7.5,14.7-4.3,30.8C563.8,126,578,147,568,162.5C568,162.5,559.2,173.9,541.3,174.2z"/>
	<g>
		<path class="st14" d="M545,210.5c0.5-0.1,0.8-0.6,0.7-1.2c-12.6-72.6,12.1-169.4,12.4-170.4c0.1-0.6-0.2-1.2-0.7-1.4
			c-0.5-0.2-1,0.1-1.2,0.7c-0.3,1-25.1,98.3-12.4,171.4C544,210.2,544.5,210.6,545,210.5C545,210.5,545,210.5,545,210.5z"/>
		<path class="st14" d="M549.7,77c0.1,0,0.1,0,0.2-0.1c0.5-0.2,0.7-0.8,0.5-1.4c-0.1-0.1-5.2-13.1-7.3-24.1c-0.1-0.6-0.6-1-1.2-0.9
			c-0.5,0.1-0.9,0.6-0.7,1.2c2.2,11.2,7.4,24.4,7.5,24.5C548.8,76.8,549.2,77.1,549.7,77z"/>
		<path class="st14" d="M546.5,98.6c0.1,0,0.3-0.1,0.4-0.2c4.8-4.2,17-12,17.2-12c0.5-0.3,0.6-0.9,0.3-1.5c-0.3-0.5-0.9-0.7-1.3-0.4
			c-0.5,0.3-12.4,7.9-17.4,12.2c-0.4,0.4-0.5,1-0.1,1.5C545.7,98.5,546.1,98.7,546.5,98.6z"/>
		<path class="st14" d="M543.8,119.7c0.1,0,0.1,0,0.2-0.1c0.5-0.2,0.7-0.9,0.4-1.4l-6.9-15.2c-0.2-0.5-0.8-0.8-1.3-0.5
			c-0.5,0.2-0.7,0.9-0.4,1.4l6.9,15.2C542.9,119.5,543.4,119.8,543.8,119.7z"/>
	</g>
</g>
<g>
	<g>
		<g>
			<path class="st15" d="M388,185.8c-0.1,0-0.1,0-0.2-0.1c-0.1-0.1-0.1-0.3,0-0.4l6.7-6.5c0.1-0.1,0.3-0.1,0.4,0
				c0.1,0.1,0.1,0.3,0,0.4l-6.7,6.5C388.1,185.7,388.1,185.8,388,185.8z"/>
		</g>
		<g>
			<path class="st15" d="M399.3,188.1c-0.1,0-0.1,0-0.2-0.1c-0.1-0.1-0.1-0.3,0-0.4l6.7-6.5c0.1-0.1,0.3-0.1,0.4,0
				c0.1,0.1,0.1,0.3,0,0.4l-6.7,6.5C399.4,188,399.3,188.1,399.3,188.1z"/>
		</g>
		<path class="st16" d="M389.3,163.9h11.8c4.1,0,7.5,3.4,7.5,7.5v38.1h-26.9v-38.1C381.8,167.3,385.1,163.9,389.3,163.9z"/>
		<path class="st17" d="M390.2,166.6h10c3.5,0,6.4,2.8,6.4,6.4v36.3c0,0.2-0.1,0.3-0.3,0.3h-22.1c-0.2,0-0.3-0.1-0.3-0.3v-36.3
			C383.9,169.4,386.7,166.6,390.2,166.6z"/>
		<g>
			<g>
				<path class="st15" d="M385.8,199.4c0,0-0.1,0-0.1-0.1c-0.1-0.1-0.1-0.2,0-0.3l15.8-15.7c0.1-0.1,0.2-0.1,0.3,0
					c0.1,0.1,0.1,0.2,0,0.3L386,199.3C385.9,199.3,385.9,199.4,385.8,199.4z"/>
				<path class="st15" d="M385.8,199.4c-0.1,0-0.1,0-0.2-0.1c-0.1-0.1-0.1-0.2,0-0.3l15.8-15.7c0.1-0.1,0.2-0.1,0.3,0
					c0.1,0.1,0.1,0.2,0,0.3L386,199.3C385.9,199.4,385.9,199.4,385.8,199.4z M401.6,183.3c0,0-0.1,0-0.1,0l-15.8,15.7
					c-0.1,0.1-0.1,0.2,0,0.2c0.1,0.1,0.2,0.1,0.2,0l15.8-15.7c0.1-0.1,0.1-0.2,0-0.2C401.7,183.4,401.7,183.3,401.6,183.3z"/>
			</g>
		</g>
		<g>
			<g>
				<path class="st15" d="M394.9,195.9C394.9,195.9,394.9,195.9,394.9,195.9c-0.1-0.1-0.1-0.1-0.1-0.2l8.2-7.6c0,0,0.1,0,0.1,0
					c0,0,0,0.1,0,0.1L394.9,195.9C395,195.9,394.9,195.9,394.9,195.9z"/>
				<path class="st15" d="M394.9,196c-0.1,0-0.1,0-0.1-0.1c0,0-0.1-0.1-0.1-0.1c0-0.1,0-0.1,0.1-0.1l8.2-7.6c0.1-0.1,0.2-0.1,0.3,0
					c0,0,0.1,0.1,0.1,0.1c0,0.1,0,0.1-0.1,0.1l-8.2,7.6C395,196,395,196,394.9,196z"/>
			</g>
		</g>
		<g>
			<g>
				<path class="st15" d="M389.8,189.6c0,0-0.1,0-0.1,0c-0.1-0.1-0.1-0.1,0-0.2l11.9-11.3c0.1-0.1,0.1-0.1,0.2,0
					c0.1,0.1,0.1,0.1,0,0.2l-11.9,11.3C389.9,189.6,389.8,189.6,389.8,189.6z"/>
				<path class="st15" d="M389.8,189.7c-0.1,0-0.1,0-0.2-0.1c0,0-0.1-0.1-0.1-0.2c0-0.1,0-0.1,0.1-0.2l11.9-11.3
					c0.1-0.1,0.2-0.1,0.3,0c0,0,0.1,0.1,0.1,0.2c0,0.1,0,0.1-0.1,0.2L390,189.7C389.9,189.7,389.9,189.7,389.8,189.7z M401.7,178.1
					C401.7,178.1,401.7,178.1,401.7,178.1l-11.9,11.4c0,0,0,0,0,0c0,0,0,0,0,0c0,0,0,0,0.1,0L401.7,178.1
					C401.7,178.2,401.7,178.1,401.7,178.1C401.7,178.1,401.7,178.1,401.7,178.1C401.7,178.1,401.7,178.1,401.7,178.1z"/>
			</g>
		</g>
	</g>
	<polygon class="st18" points="545.9,209.2 380.5,209.2 380.5,24.8 545.9,36.8 	"/>
	<polygon class="st19" points="393.9,56.4 545.9,209.2 429.4,209.2 	"/>
	<polygon class="st20" points="380.5,22 380.5,32.8 545.9,53.7 545.9,39.3 	"/>
	<rect x="487.6" y="64.5" class="st13" width="23.3" height="31.4"/>
	<path class="st21" d="M513,99h-27.5c-0.9,0-1.6-0.7-1.6-1.6l0,0c0-0.9,0.7-1.6,1.6-1.6H513c0.9,0,1.6,0.7,1.6,1.6l0,0
		C514.6,98.3,513.8,99,513,99z"/>
	<path class="st22" d="M513,98.7h-27.5c-0.9,0-1.6-0.7-1.6-1.6l0,0c0-0.9,0.7-1.6,1.6-1.6H513c0.9,0,1.6,0.7,1.6,1.6l0,0
		C514.6,98,513.8,98.7,513,98.7z"/>
	<g>
		<g>
			<path class="st23" d="M494.2,81.9c0,0-0.1,0-0.1,0c-0.1-0.1-0.1-0.2,0-0.2l3.9-3.8c0.1-0.1,0.2-0.1,0.2,0c0.1,0.1,0.1,0.2,0,0.2
				l-3.9,3.8C494.3,81.9,494.3,81.9,494.2,81.9z"/>
		</g>
		<g>
			<path class="st23" d="M496.6,86c0,0-0.1,0-0.1,0c-0.1-0.1-0.1-0.2,0-0.2l3.9-3.8c0.1-0.1,0.2-0.1,0.2,0c0.1,0.1,0.1,0.2,0,0.2
				l-3.9,3.8C496.7,86,496.7,86,496.6,86z"/>
		</g>
		<g>
			<path class="st23" d="M500.5,70.9c0,0-0.1,0-0.1,0c-0.1-0.1-0.1-0.2,0-0.2l3.9-3.8c0.1-0.1,0.2-0.1,0.2,0c0.1,0.1,0.1,0.2,0,0.2
				l-3.9,3.8C500.6,70.9,500.5,70.9,500.5,70.9z"/>
		</g>
		<g>
			<path class="st23" d="M492.5,85.7c0,0-0.1,0-0.1-0.1c-0.1-0.1-0.1-0.2,0-0.2l12.2-10.9c0.1-0.1,0.2-0.1,0.2,0
				c0.1,0.1,0.1,0.2,0,0.2l-12.2,10.9C492.5,85.7,492.5,85.7,492.5,85.7z"/>
		</g>
	</g>
	<g>
		<g>
			<rect x="498.6" y="64.5" class="st24" width="1.3" height="32.3"/>
		</g>
	</g>
	<g>
		<g>
			<g>
				<rect x="487.6" y="74.9" class="st24" width="23.3" height="1.3"/>
			</g>
		</g>
		<g>
			<g>
				<rect x="487.6" y="87.5" class="st24" width="23.3" height="1.3"/>
			</g>
		</g>
	</g>
	<rect x="415.5" y="64.5" class="st13" width="23.3" height="31.4"/>
	<path class="st21" d="M440.9,99h-27.5c-0.9,0-1.6-0.7-1.6-1.6l0,0c0-0.9,0.7-1.6,1.6-1.6h27.5c0.9,0,1.6,0.7,1.6,1.6l0,0
		C442.5,98.3,441.8,99,440.9,99z"/>
	<path class="st22" d="M440.9,98.7h-27.5c-0.9,0-1.6-0.7-1.6-1.6l0,0c0-0.9,0.7-1.6,1.6-1.6h27.5c0.9,0,1.6,0.7,1.6,1.6l0,0
		C442.5,98,441.8,98.7,440.9,98.7z"/>
	<g>
		<g>
			<path class="st23" d="M422.2,81.9c0,0-0.1,0-0.1,0c-0.1-0.1-0.1-0.2,0-0.2l3.9-3.8c0.1-0.1,0.2-0.1,0.2,0c0.1,0.1,0.1,0.2,0,0.2
				l-3.9,3.8C422.2,81.9,422.2,81.9,422.2,81.9z"/>
		</g>
		<g>
			<path class="st23" d="M424.6,86c0,0-0.1,0-0.1,0c-0.1-0.1-0.1-0.2,0-0.2l3.9-3.8c0.1-0.1,0.2-0.1,0.2,0c0.1,0.1,0.1,0.2,0,0.2
				l-3.9,3.8C424.7,86,424.6,86,424.6,86z"/>
		</g>
		<g>
			<path class="st23" d="M428.4,70.9c0,0-0.1,0-0.1,0c-0.1-0.1-0.1-0.2,0-0.2l3.9-3.8c0.1-0.1,0.2-0.1,0.2,0c0.1,0.1,0.1,0.2,0,0.2
				l-3.9,3.8C428.5,70.9,428.5,70.9,428.4,70.9z"/>
		</g>
		<g>
			<path class="st23" d="M420.4,85.7c0,0-0.1,0-0.1-0.1c-0.1-0.1-0.1-0.2,0-0.2l12.2-10.9c0.1-0.1,0.2-0.1,0.2,0
				c0.1,0.1,0.1,0.2,0,0.2l-12.2,10.9C420.5,85.7,420.4,85.7,420.4,85.7z"/>
		</g>
	</g>
	<g>
		<g>
			<rect x="426.5" y="64.5" class="st24" width="1.3" height="32.3"/>
		</g>
	</g>
	<g>
		<g>
			<g>
				<rect x="415.5" y="74.9" class="st24" width="23.3" height="1.3"/>
			</g>
		</g>
		<g>
			<g>
				<rect x="415.5" y="87.5" class="st24" width="23.3" height="1.3"/>
			</g>
		</g>
	</g>
	<rect x="487.6" y="134.9" class="st13" width="23.3" height="31.4"/>
	<path class="st21" d="M513,169.5h-27.5c-0.9,0-1.6-0.7-1.6-1.6l0,0c0-0.9,0.7-1.6,1.6-1.6H513c0.9,0,1.6,0.7,1.6,1.6l0,0
		C514.6,168.8,513.8,169.5,513,169.5z"/>
	<path class="st22" d="M513,169.2h-27.5c-0.9,0-1.6-0.7-1.6-1.6l0,0c0-0.9,0.7-1.6,1.6-1.6H513c0.9,0,1.6,0.7,1.6,1.6l0,0
		C514.6,168.4,513.8,169.2,513,169.2z"/>
	<g>
		<g>
			<path class="st23" d="M494.2,152.4c0,0-0.1,0-0.1,0c-0.1-0.1-0.1-0.2,0-0.2l3.9-3.8c0.1-0.1,0.2-0.1,0.2,0c0.1,0.1,0.1,0.2,0,0.2
				l-3.9,3.8C494.3,152.4,494.3,152.4,494.2,152.4z"/>
		</g>
		<g>
			<path class="st23" d="M496.6,156.5c0,0-0.1,0-0.1,0c-0.1-0.1-0.1-0.2,0-0.2l3.9-3.8c0.1-0.1,0.2-0.1,0.2,0c0.1,0.1,0.1,0.2,0,0.2
				l-3.9,3.8C496.7,156.5,496.7,156.5,496.6,156.5z"/>
		</g>
		<g>
			<path class="st23" d="M500.5,141.4c0,0-0.1,0-0.1,0c-0.1-0.1-0.1-0.2,0-0.2l3.9-3.8c0.1-0.1,0.2-0.1,0.2,0c0.1,0.1,0.1,0.2,0,0.2
				l-3.9,3.8C500.6,141.3,500.5,141.4,500.5,141.4z"/>
		</g>
		<g>
			<path class="st23" d="M492.5,156.2c0,0-0.1,0-0.1-0.1c-0.1-0.1-0.1-0.2,0-0.2l12.2-10.9c0.1-0.1,0.2-0.1,0.2,0
				c0.1,0.1,0.1,0.2,0,0.2l-12.2,10.9C492.5,156.2,492.5,156.2,492.5,156.2z"/>
		</g>
	</g>
	<g>
		<g>
			<rect x="498.6" y="134.9" class="st24" width="1.3" height="32.3"/>
		</g>
	</g>
	<g>
		<g>
			<g>
				<rect x="487.6" y="145.4" class="st24" width="23.3" height="1.3"/>
			</g>
		</g>
		<g>
			<g>
				<rect x="487.6" y="158" class="st24" width="23.3" height="1.3"/>
			</g>
		</g>
	</g>
	<rect x="415.5" y="134.9" class="st13" width="23.3" height="31.4"/>
	<path class="st21" d="M440.9,169.5h-27.5c-0.9,0-1.6-0.7-1.6-1.6l0,0c0-0.9,0.7-1.6,1.6-1.6h27.5c0.9,0,1.6,0.7,1.6,1.6l0,0
		C442.5,168.8,441.8,169.5,440.9,169.5z"/>
	<path class="st22" d="M440.9,169.2h-27.5c-0.9,0-1.6-0.7-1.6-1.6l0,0c0-0.9,0.7-1.6,1.6-1.6h27.5c0.9,0,1.6,0.7,1.6,1.6l0,0
		C442.5,168.4,441.8,169.2,440.9,169.2z"/>
	<g>
		<g>
			<path class="st23" d="M422.2,152.4c0,0-0.1,0-0.1,0c-0.1-0.1-0.1-0.2,0-0.2l3.9-3.8c0.1-0.1,0.2-0.1,0.2,0c0.1,0.1,0.1,0.2,0,0.2
				l-3.9,3.8C422.2,152.4,422.2,152.4,422.2,152.4z"/>
		</g>
		<g>
			<path class="st23" d="M424.6,156.5c0,0-0.1,0-0.1,0c-0.1-0.1-0.1-0.2,0-0.2l3.9-3.8c0.1-0.1,0.2-0.1,0.2,0c0.1,0.1,0.1,0.2,0,0.2
				l-3.9,3.8C424.7,156.5,424.6,156.5,424.6,156.5z"/>
		</g>
		<g>
			<path class="st23" d="M428.4,141.4c0,0-0.1,0-0.1,0c-0.1-0.1-0.1-0.2,0-0.2l3.9-3.8c0.1-0.1,0.2-0.1,0.2,0c0.1,0.1,0.1,0.2,0,0.2
				l-3.9,3.8C428.5,141.3,428.5,141.4,428.4,141.4z"/>
		</g>
		<g>
			<path class="st23" d="M420.4,156.2c0,0-0.1,0-0.1-0.1c-0.1-0.1-0.1-0.2,0-0.2l12.2-10.9c0.1-0.1,0.2-0.1,0.2,0
				c0.1,0.1,0.1,0.2,0,0.2l-12.2,10.9C420.5,156.2,420.4,156.2,420.4,156.2z"/>
		</g>
	</g>
	<g>
		<g>
			<rect x="426.5" y="134.9" class="st24" width="1.3" height="32.3"/>
		</g>
	</g>
	<g>
		<g>
			<g>
				<rect x="415.5" y="145.4" class="st24" width="23.3" height="1.3"/>
			</g>
		</g>
		<g>
			<g>
				<rect x="415.5" y="158" class="st24" width="23.3" height="1.3"/>
			</g>
		</g>
	</g>
	<polygon class="st22" points="370.7,15.5 370.7,27.9 555.7,50.9 555.7,36.5 	"/>
	<polygon class="st25" points="429.4,209.2 352.9,209.2 352.9,97.3 391.1,59.5 429.4,102.6 	"/>
	<path class="st20" d="M429.4,101.1l-35.5-40.4c-1-1.1-2.8-1.2-3.8-0.1l-37.2,38l0.1,7.4l37.4-37.5c1.1-1.1,2.8-1,3.8,0.1l35.3,40.4
		L429.4,101.1z"/>
	<path class="st22" d="M436.3,104.6l-42.4-48.2c-1-1.1-2.8-1.2-3.8-0.1l-47.5,48.4c-1,1-1,2.6,0,3.5l0,0c1,1,2.7,1,3.7,0l44-44.1
		c1.1-1.1,2.8-1,3.8,0.1l38.2,43.7c0.9,1,2.5,1.3,3.6,0.5C437.1,107.5,437.3,105.7,436.3,104.6z"/>
	<path class="st13" d="M397.1,88.9c0,3.5-2.9,6.4-6.4,6.4c-3.5,0-6.4-2.9-6.4-6.4s2.9-6.4,6.4-6.4C394.2,82.5,397.1,85.4,397.1,88.9
		z"/>
	<g class="st26">
		<g>
			<rect x="411.4" y="156.3" class="st27" width="11.9" height="6.2"/>
		</g>
	</g>
	<g class="st26">
		<g>
			<rect x="421.8" y="163.6" class="st27" width="7.5" height="6.2"/>
		</g>
	</g>
	<g class="st26">
		<g>
			<rect x="352.9" y="185.8" class="st27" width="7.5" height="6.2"/>
		</g>
	</g>
	<g class="st26">
		<g>
			<rect x="404.5" y="102.7" class="st27" width="9.8" height="6.2"/>
		</g>
	</g>
	<rect x="379.5" y="109.9" class="st13" width="23.3" height="31.4"/>
	<path class="st21" d="M404.9,144.5h-27.5c-0.9,0-1.6-0.7-1.6-1.6l0,0c0-0.9,0.7-1.6,1.6-1.6h27.5c0.9,0,1.6,0.7,1.6,1.6l0,0
		C406.5,143.8,405.7,144.5,404.9,144.5z"/>
	<path class="st22" d="M404.9,144.2h-27.5c-0.9,0-1.6-0.7-1.6-1.6l0,0c0-0.9,0.7-1.6,1.6-1.6h27.5c0.9,0,1.6,0.7,1.6,1.6l0,0
		C406.5,143.4,405.7,144.2,404.9,144.2z"/>
	<g>
		<g>
			<path class="st23" d="M386.1,131.1c0,0-0.1,0-0.1,0c-0.1-0.1-0.1-0.2,0-0.2l3.9-3.8c0.1-0.1,0.2-0.1,0.2,0c0.1,0.1,0.1,0.2,0,0.2
				l-3.9,3.8C386.2,131.1,386.2,131.1,386.1,131.1z"/>
		</g>
		<g>
			<path class="st23" d="M388.5,135.2c0,0-0.1,0-0.1,0c-0.1-0.1-0.1-0.2,0-0.2l3.9-3.8c0.1-0.1,0.2-0.1,0.2,0c0.1,0.1,0.1,0.2,0,0.2
				l-3.9,3.8C388.6,135.2,388.6,135.2,388.5,135.2z"/>
		</g>
		<g>
			<path class="st23" d="M392.4,120.1c0,0-0.1,0-0.1,0c-0.1-0.1-0.1-0.2,0-0.2l3.9-3.8c0.1-0.1,0.2-0.1,0.2,0c0.1,0.1,0.1,0.2,0,0.2
				l-3.9,3.8C392.5,120.1,392.4,120.1,392.4,120.1z"/>
		</g>
		<g>
			<path class="st23" d="M384.3,134.9c0,0-0.1,0-0.1-0.1c-0.1-0.1-0.1-0.2,0-0.2l12.2-10.9c0.1-0.1,0.2-0.1,0.2,0
				c0.1,0.1,0.1,0.2,0,0.2l-12.2,10.9C384.4,134.9,384.4,134.9,384.3,134.9z"/>
		</g>
	</g>
	<g>
		<rect x="390.5" y="109.9" class="st24" width="1.3" height="32.3"/>
	</g>
	<g>
		<g>
			<rect x="379.5" y="120.4" class="st24" width="23.3" height="1.3"/>
		</g>
	</g>
	<g>
		<g>
			<rect x="379.5" y="132.9" class="st24" width="23.3" height="1.3"/>
		</g>
	</g>
	<g class="st26">
		<g>
			<rect x="516.7" y="106.8" class="st28" width="11.9" height="6.2"/>
		</g>
	</g>
	<g class="st26">
		<g>
			<rect x="537.5" y="112.9" class="st28" width="7.8" height="6.2"/>
		</g>
	</g>
	<g class="st26">
		<g>
			<rect x="528.6" y="98.7" class="st28" width="11.9" height="6.2"/>
		</g>
	</g>
	<g>
		<g>
			<path class="st15" d="M383.7,184.9c-0.1,0-0.1,0-0.2-0.1c-0.1-0.1-0.1-0.3,0-0.4l6.8-6.6c0.1-0.1,0.3-0.1,0.4,0
				c0.1,0.1,0.1,0.3,0,0.4l-6.8,6.6C383.9,184.8,383.8,184.9,383.7,184.9z"/>
		</g>
		<g>
			<path class="st15" d="M395.3,187.2c-0.1,0-0.1,0-0.2-0.1c-0.1-0.1-0.1-0.3,0-0.4l6.8-6.6c0.1-0.1,0.3-0.1,0.4,0
				c0.1,0.1,0.1,0.3,0,0.4l-6.8,6.6C395.4,187.2,395.3,187.2,395.3,187.2z"/>
		</g>
		<path class="st16" d="M391.1,162.5L391.1,162.5c7.6,0,13.7,6.2,13.7,13.7v32.9h-27.5v-32.9C377.4,168.7,383.5,162.5,391.1,162.5z"
			/>
		<path class="st17" d="M391.1,165.2L391.1,165.2c6.4,0,11.6,5.2,11.6,11.6v31.8c0,0.3-0.2,0.5-0.5,0.5H380c-0.3,0-0.5-0.2-0.5-0.5
			v-31.8C379.5,170.4,384.7,165.2,391.1,165.2z"/>
		<g>
			<g>
				<path class="st15" d="M381.5,198.8c-0.1,0-0.1,0-0.1-0.1c-0.1-0.1-0.1-0.2,0-0.3l16.2-16c0.1-0.1,0.2-0.1,0.3,0
					c0.1,0.1,0.1,0.2,0,0.3l-16.2,16C381.6,198.7,381.6,198.8,381.5,198.8z"/>
				<path class="st15" d="M381.5,198.8c-0.1,0-0.1,0-0.2-0.1c-0.1-0.1-0.1-0.2,0-0.3l16.2-16c0.1-0.1,0.2-0.1,0.3,0
					c0.1,0.1,0.1,0.2,0,0.3l-16.2,16C381.6,198.8,381.6,198.8,381.5,198.8z M397.7,182.4c0,0-0.1,0-0.1,0l-16.2,16
					c-0.1,0.1-0.1,0.2,0,0.2c0.1,0.1,0.2,0.1,0.2,0l16.2-16c0.1-0.1,0.1-0.2,0-0.2C397.8,182.4,397.7,182.4,397.7,182.4z"/>
			</g>
		</g>
		<g>
			<g>
				<path class="st15" d="M390.8,195.2C390.8,195.2,390.7,195.2,390.8,195.2c-0.1-0.1-0.1-0.1-0.1-0.2l8.4-7.8c0,0,0.1,0,0.1,0
					c0,0,0,0.1,0,0.1L390.8,195.2C390.8,195.2,390.8,195.2,390.8,195.2z"/>
				<path class="st15" d="M390.8,195.3c-0.1,0-0.1,0-0.1-0.1c0,0-0.1-0.1-0.1-0.1c0-0.1,0-0.1,0.1-0.1l8.4-7.8
					c0.1-0.1,0.2-0.1,0.3,0c0,0,0.1,0.1,0.1,0.1c0,0.1,0,0.1-0.1,0.1l-8.4,7.8C390.9,195.3,390.9,195.3,390.8,195.3z"/>
			</g>
		</g>
		<g>
			<g>
				<path class="st15" d="M385.6,188.8c0,0-0.1,0-0.1,0c-0.1-0.1-0.1-0.1,0-0.2l12.2-11.6c0.1-0.1,0.2-0.1,0.2,0
					c0.1,0.1,0.1,0.1,0,0.2l-12.2,11.6C385.6,188.8,385.6,188.8,385.6,188.8z"/>
				<path class="st15" d="M385.6,188.9c-0.1,0-0.1,0-0.2-0.1c0,0-0.1-0.1-0.1-0.2c0-0.1,0-0.1,0.1-0.2l12.2-11.6
					c0.1-0.1,0.3-0.1,0.4,0c0,0,0.1,0.1,0.1,0.2c0,0.1,0,0.1-0.1,0.2l-12.2,11.6C385.7,188.9,385.6,188.9,385.6,188.9z M397.7,177
					C397.7,177,397.7,177,397.7,177l-12.2,11.6c0,0,0,0,0,0c0,0,0,0,0,0c0,0,0,0,0.1,0L397.7,177C397.8,177.1,397.8,177,397.7,177
					C397.8,177,397.8,177,397.7,177C397.8,177,397.7,177,397.7,177z"/>
			</g>
		</g>
	</g>
</g>
<g>
	<g>
		<path class="st29" d="M491.9,423.9C491.9,423.9,491.9,423.9,491.9,423.9c-0.4,0-0.8-0.4-0.8-0.8c0.1-2.7-1.7-6.3-4.8-10.1
			c-0.3-0.3-0.2-0.8,0.1-1.1c0.3-0.3,0.8-0.2,1.1,0.1c3.4,4.1,5.3,8.1,5.2,11.1C492.7,423.5,492.3,423.9,491.9,423.9z"/>
	</g>
	<g>
		<path class="st29" d="M390.2,278.9c-0.9,0-1.6-0.7-1.6-1.5v-29l-19.1-5.9c-1.1-0.3-1.8-1.4-1.8-2.5v-5.8c0-1.3,1.1-2.3,2.3-2.3
			h39.9c0.9,0,1.6,0.7,1.6,1.5c0,0.9-0.7,1.5-1.6,1.5h-39.1v4.7l19.1,5.9c1.1,0.3,1.8,1.4,1.8,2.5v29.4
			C391.8,278.2,391.1,278.9,390.2,278.9z"/>
	</g>
	<path class="st30" d="M449,198.6c5.7-1.8,20.1-4.3,20.1,11.4c0,11.6-9.6,17.6-9.6,27.6c0,0-9.2-6.3-5.5-19.9
		c4.5-16.6-1.1-18.8-7-15.4C442.6,204.8,449,198.6,449,198.6z"/>
	<path class="st31" d="M419.4,198.8c1.7,0.1,3.5-0.1,5.5,0c-0.6,1.9-0.8,4-0.7,6.2l0,0C411.8,205.6,409.2,198.3,419.4,198.8z"/>
	<path class="st32" d="M462.1,311.6c0.2,2.3,1.6,4.6,2.2,9.7c0.7,5.8-0.2,16.4-4.7,20.3c-4.5,3.9-2.5-11.6-2.5-11.6l0.2-18.7
		L462.1,311.6z"/>
	<g>
		<path class="st33" d="M411.1,286.1c-0.8,0-1.6-0.1-2.4-0.4l-13.1-4.8c-2.2-0.8-3.3-3.2-2.5-5.4c0.8-2.2,3.3-3.3,5.5-2.5l11.4,4.2
			l7.9-22.5c0.8-2.2,3.2-3.4,5.4-2.6c2.2,0.8,3.4,3.2,2.6,5.4l-8.5,24.1c-0.6,1.7-1.8,3.1-3.5,3.9
			C413.1,285.9,412.1,286.1,411.1,286.1z"/>
	</g>
	<path class="st34" d="M413.2,267.7l8.8,2.9l3.9,1.3l2.1-6.4c2-6.2,4.6-13,6.2-16.9l2.5-6.3c0,0,1.3-1,1.8-2
		c0.5-1.1,0.2-2.2-2.9-2.6c-0.1,0-0.1,0-0.2,0c-2.7-0.3-5.1,0.2-7.2,1.2c0,0,0,0,0,0c-0.2,0.1-0.3,0.2-0.5,0.3c0,0,0,0,0,0
		c-3.3,1.9-5.7,5.2-7.3,8.9c-2.6,6.2-4,10.3-5,13.3L413.2,267.7z"/>
	<polygon class="st35" points="417.3,269.2 424.6,250.8 433.2,274.4 	"/>
	<g>
		<path class="st36" d="M419.7,417c0.1,1.2,0.2,2.4,0.3,3.5c0,0.1,0,0.1,0,0.2c0.2,2.1,0.5,3.8,0.6,4c0.3,0.2,4.3,0.6,7.8,0.1
			c0.3,0,0.5-0.1,0.8-0.1c2.2-0.4,4.1-1.3,4.4-2.9c0-0.2,0.5-0.7,0.4-1.5c0-0.1,0-0.2-0.1-0.3c0-0.1-0.1-0.2-0.1-0.4
			c-0.5-1.9-2.1-8.5-2.1-9.5c0-0.1,0-0.1,0-0.1c0.2-0.1,0,0-0.4,0.1c-0.7,0.4-2.3,1.1-3,1.2c-0.8,0.1-5.5,0.4-7.7,0.8
			c-0.7,0.1-1.1,0.3-1.2,0.4C419.4,412.6,419.5,414.6,419.7,417z"/>
		<g>
			<path class="st37" d="M434.1,421.6c0,0,0.4,2.3-3.8,2.2c-4.1-0.1-6.3-4.8-6.3-4.8l-6.6-0.4c0,0-0.5,3-1,3.7
				c-1.4,1.9-5.1,5.7-5.1,5.7l-7.6,0.1c0,0-0.6,6,1.7,6.1c2.3,0.1,6.9,0.2,8.9,0.2s12.2-2.3,12.2-2.3s8.7,0.4,8.7,0.2
				C435.3,424.2,434.1,421.6,434.1,421.6z"/>
		</g>
		<polygon class="st37" points="435.4,433.9 422.2,434 422.1,432 428,430.7 435.6,430.8 		"/>
		<path class="st36" d="M402.9,429.3C402.9,429.3,402.9,429.3,402.9,429.3c0,0.1,0,0.6,0.1,1c0,0.2,0.1,0.3,0.1,0.5c0,0,0,0,0,0.1
			c0,0,0,0.1,0.1,0.2c0,0,0,0.1,0,0.1c0,0,0.1,0.1,0.1,0.1c0,0,0,0.1,0,0.1c0,0.1,0.1,0.2,0.1,0.2c0,0,0,0.1,0.1,0.1
			c0,0,0,0.1,0.1,0.1c0,0,0.1,0.1,0.1,0.1c0,0,0,0,0.1,0.1c0,0,0.1,0.1,0.1,0.2l0.1,0c0,0,0.1,0.1,0.1,0.1c0,0,0.1,0,0.1,0
			c0,0,0.1,0.1,0.1,0.1c0,0,0,0,0,0c0.1,0,0.1,0.1,0.2,0.1c0,0,0,0,0.1,0c0,0,0.1,0,0.2,0c0,0,0,0,0.1,0c0.1,0,0.1,0,0.2,0
			c1,0,2.5,0.1,4,0.1c1.5,0,2.9,0.1,4,0.1c0.3,0,0.5,0,0.7,0c0.1,0,0.1,0,0.2,0l0.2,0c0,0,0.1,0,0.2,0l0.3,0c0,0,0.1,0,0.1,0
			c0.1,0,0.2,0,0.2,0l0.1,0c0.1,0,0.2,0,0.3,0l0.1,0c0.1,0,0.2,0,0.3-0.1c0,0,0,0,0.1,0c0.1,0,0.2,0,0.4-0.1
			c1.9-0.3,4.5-0.8,6.6-1.2c2.1-0.4,3.7-0.8,3.7-0.8s9.1,0.3,9.1,0.2c0-1.1,0-2.2-0.1-3.1l0-0.4c-0.1-2.3-0.4-4-0.7-5.1
			c-0.4-1.5-0.7-2.1-0.7-2.1s-0.3,1.9-2.7,2.5c-0.6,0.1-1.4,0.2-2.4,0c-1.6-0.2-2.7-1.1-3.4-2c-0.8-1-1.1-2.1-1.3-2.7
			c-0.1-0.3-0.1-0.5-0.1-0.5l-1.6-0.1l-1.2,0l-2.6-0.1l-1.4,0c0,0-0.1,0.4-0.2,1v0c0,0.1,0,0.2-0.1,0.2c0,0,0,0,0,0.1
			c0,0.1,0,0.2-0.1,0.3c0,0,0,0,0,0.1c0,0.1,0,0.2-0.1,0.3c0,0,0,0,0,0c0,0.1-0.1,0.2-0.1,0.3c0,0,0,0,0,0c0,0.1-0.1,0.2-0.1,0.3
			c0,0,0,0,0,0c0,0.3-0.1,0.6-0.3,0.9c-0.3,0.5-0.6,0.9-0.6,0.9c-1.5,1.8-4.1,4.5-4.6,4.9c0,0-0.1,0.1-0.1,0.1s-2.2,0.3-4.3,0.3
			c-2,0-4,0.7-4.1,2.4C402.9,429.2,402.9,429.2,402.9,429.3z"/>
		<path class="st36" d="M416.8,419.9c0,0,1,0.2,2.5,0.6c0.2,0.1,0.5,0.1,0.7,0.2c1.5,0.4,3.3,0.8,4.9,1.3c1.5,0.5,2.7,1.6,3.5,2.7
			c0.3,0.3,0.5,0.7,0.7,1c0.9,1.4,1.3,2.7,1.3,2.7l5-1.2c-0.3-5.4-1.4-7.3-1.4-7.3s0,0,0,0.1c-0.1,0.4-0.9,2.1-4.6,1.7
			c-0.1,0-0.2,0-0.4,0c-1.2-0.2-2-0.6-2.7-1.3c-1.1-1.1-1.5-2.6-1.7-3.4l-4.9-0.1l-2.4-0.1L416.8,419.9z"/>
	</g>
	<g>
		<path class="st38" d="M419.1,419h5.7c5,0,3.3-6.8,3.3-6.8s8.5,0.7,9-8.6c1.3-24.8,5-71.9,6.1-92.4c0.1-2,1.9-3.9,1.3-3.4l-1.1-7.5
			l-20.1,1.5c0,0-0.7,6.3-1,15.9C421.4,349.8,418.6,419,419.1,419z"/>
	</g>
	<path class="st36" d="M461.2,420.9c0.3,1.1-0.7,0.6-0.8,0.8c-0.9,4.2-12.5,3.4-13,3c-0.5-0.4-1.4-11.7-1.2-12.3
		c0.2-0.5,7.8-1.1,8.9-1.2c1.1-0.1,3.9-1.7,3.4-1.3C458.3,410,460.3,417.9,461.2,420.9z"/>
	<g>
		<path class="st37" d="M460.9,421.6c0,0,0.4,2.3-3.8,2.2c-4.1-0.1-6.3-4.8-6.3-4.8l-6.6-0.4c0,0-0.5,3-1,3.7
			c-1.4,1.9-5.1,5.7-5.1,5.7l-7.6,0.1c0,0-0.6,6,1.7,6.1c2.3,0.1,6.9,0.2,8.9,0.2s12.2-2.3,12.2-2.3s8.7,0.4,8.7,0.2
			C462,424.2,460.9,421.6,460.9,421.6z"/>
	</g>
	<polygon class="st37" points="462.2,433.9 448.9,434 448.9,432 454.8,430.7 462.3,430.8 	"/>
	<path class="st36" d="M429.7,429.3C429.7,429.3,429.7,429.3,429.7,429.3c0,0.1,0,0.6,0.1,1c0,0.2,0.1,0.3,0.1,0.5c0,0,0,0,0,0.1
		c0,0,0,0.1,0.1,0.2c0,0,0,0.1,0,0.1c0,0,0.1,0.1,0.1,0.1c0,0,0,0.1,0,0.1c0,0.1,0.1,0.2,0.1,0.2c0,0,0,0.1,0.1,0.1
		c0,0,0,0.1,0.1,0.1c0,0,0.1,0.1,0.1,0.1c0,0,0,0,0.1,0.1c0,0,0.1,0.1,0.1,0.2l0.1,0c0,0,0.1,0.1,0.1,0.1c0,0,0.1,0,0.1,0
		c0,0,0.1,0.1,0.1,0.1c0,0,0,0,0,0c0.1,0,0.1,0.1,0.2,0.1c0,0,0,0,0,0c0.1,0,0.1,0,0.2,0c0,0,0,0,0.1,0c0.1,0,0.1,0,0.2,0
		c1,0,2.5,0.1,4,0.1c1.5,0,2.9,0.1,4,0.1c0.3,0,0.5,0,0.7,0c0.1,0,0.1,0,0.2,0l0.2,0c0,0,0.1,0,0.2,0l0.3,0c0,0,0.1,0,0.1,0
		c0.1,0,0.2,0,0.2,0l0.1,0c0.1,0,0.2,0,0.3,0l0.1,0c0.1,0,0.2,0,0.3-0.1c0,0,0,0,0.1,0c0.1,0,0.2,0,0.4-0.1c1.9-0.3,4.5-0.8,6.6-1.2
		c2.1-0.4,3.7-0.8,3.7-0.8s3.6,0.1,6.3,0.2c1.6,0,2.8,0.1,2.8,0c0-1.1,0-2.2-0.1-3.1l0-0.4c-0.1-1.7-0.3-3.1-0.5-4.2
		c-0.4-2.3-0.9-3.1-0.9-3.1s-0.4,3.1-5.1,2.5c-1.6-0.2-2.7-1.1-3.4-2c-0.8-1-1.1-2.1-1.3-2.7c-0.1-0.3-0.1-0.5-0.1-0.5l-1.6-0.1
		l-0.7,0l-3.1-0.1l-1.4,0c0,0,0,0,0,0.1c0,0.2-0.1,0.5-0.2,0.9l0,0c0,0.1,0,0.2-0.1,0.2c0,0,0,0,0,0.1c0,0.1,0,0.2-0.1,0.3
		c0,0,0,0,0,0.1c0,0.1,0,0.2-0.1,0.3c0,0,0,0,0,0c0,0.1-0.1,0.2-0.1,0.3c0,0,0,0,0,0c0,0.1-0.1,0.2-0.1,0.3c0,0,0,0,0,0
		c0,0.9-0.9,1.9-0.9,1.9c-1.6,2-4.7,5-4.7,5s-2.2,0.3-4.3,0.3c-2,0-4,0.7-4.1,2.4C429.7,429.2,429.7,429.2,429.7,429.3z"/>
	<g>
		<path class="st32" d="M443.1,409.2c-2.7-1-3.7-107.1-3.7-107.1l19.8-1.8l1.5,7.5c0.6-0.5,1.8,3.3,1.8,3.3l-2.2,97.4
			C445.1,410.8,447,410.8,443.1,409.2z"/>
	</g>
	<path class="st32" d="M422.2,300.1l38.5,17.7l1.4,16.2c-0.2,4.5-3.6,1.5-8.1,0.9l-23.7-7.2c-4.5-0.7-8.7-1.3-8.6-5.8L422.2,300.1z"
		/>
	<path class="st39" d="M423.3,308.8c0,0-0.1-0.2-0.2-0.4C423.1,308.7,423.3,308.8,423.3,308.8z"/>
	<path class="st34" d="M421.5,249.7c0,0-0.4,11.2-0.1,23.3c0.3,15.2,2.4,32.3,2.5,34.5c0,0.2-0.9,0.7-0.7,1
		c0.1-0.6,1.8-1.5,13.2-1.5c18.6,0.1,26,13.9,26,13.9v-71.6c0-6.4-5.9-11.6-11.9-11.5h-18.7c-0.3,0-0.5,0-0.8,0
		c-1.6,0.1-3,0.7-4.3,1.5C423.5,241.4,421.5,245.3,421.5,249.7z"/>
	<polygon class="st40" points="454.1,256.3 455.8,256.2 454.2,245.5 464,273.3 459.8,282.2 459.7,300.8 445.3,286.6 451.4,289.4 	
		"/>
	<path class="st32" d="M462.5,290.1c-0.1-12.7-0.3-24.2-0.3-24.2l-3.8-1.1l0.4,21.3l0,2l0,0.2c0,0,0,0-0.1,0c-0.7,0-4.9,0.5-7.1,0.3
		v0c0,0-0.1,0-0.1,0c-0.5,0-0.8-0.1-1-0.1h0c-0.1,0-0.1,0-0.1,0c-0.1,0-0.1,0-0.2-0.1c0,0,0,0,0,0c-2.2-1.3-2.7-21.8-2.9-28.6
		c-0.1-3.3,0-1.9,0-3.4h-4.9c0,0-0.3,2.1-7,2.1c-7.4,0-6.4-2.1-6.4-2.1h-1.5l-1.5-3.5c-4.8,4.2-5.2,28.4-4.8,36.3
		c0.1,9.5,0.5,9.3,0.6,20.1c0,0,1.2,0.4,3.4,1.5c9.8,5,36.7,18.2,37.2,11c0-0.5,0.1-1,0.1-1.7c0-0.3,0-0.6,0-0.9
		C462.7,313.6,462.6,301.4,462.5,290.1z"/>
	<path class="st34" d="M451.6,288.7c0,0-2.1,0-3.2-1c-1.4-1.3-2.7-3.8-3.3-7c-0.2-1.1-0.4-2.2-0.5-3.4c-0.5-6.4,0.4-14.1,1.8-20.1
		c0.1-0.2,0.1-0.5,0.2-0.7c0.9-3.7,2-6.6,3.2-8l1.6,3.6l0.2,28l0,1.7l0,1.2l0.1,4.3L451.6,288.7z"/>
	<g>
		<path class="st41" d="M430.6,330.3C430.6,330.3,430.6,330.3,430.6,330.3C430.6,330.3,430.6,330.3,430.6,330.3z"/>
		<path class="st41" d="M430.6,329.7C430.6,329.7,430.6,329.7,430.6,329.7C430.6,329.7,430.6,329.7,430.6,329.7z"/>
		<path class="st41" d="M430.6,329.1C430.6,329.1,430.6,329.1,430.6,329.1C430.6,329.1,430.6,329.1,430.6,329.1z"/>
		<path class="st41" d="M430.4,332.3c0,0,0-0.1,0-0.1C430.4,332.2,430.4,332.2,430.4,332.3z"/>
		<path class="st41" d="M430.5,331.6C430.5,331.5,430.5,331.5,430.5,331.6C430.5,331.5,430.5,331.5,430.5,331.6z"/>
		<path class="st41" d="M430.6,331C430.6,330.9,430.6,330.9,430.6,331C430.6,330.9,430.6,330.9,430.6,331z"/>
	</g>
	<path class="st32" d="M432.3,237.9c0,0,1.8-0.2,2.9,0c0,0,0.1,0,0.1,0v-0.1c0,0,0-0.2,0.1,0.1c-5.9,1.7-6.4,13.6-6.3,19.6l-2.8-0.2
		l-2,0.2C424.2,250.6,425.6,237.9,432.3,237.9z"/>
	<path class="st32" d="M450.3,415.9c2.1,1.5,6,1.4,6,1.4l0.7-1.4l2.6-6.5c0.8-0.3,2.1-1.8,2.5-4.9c1.6-12.9,0.3-46,0.4-78.4
		c0-7.5,0-14.8,0-21.6c0-22,0.1-38.3,0.1-38.3l-4.3-1.3l0.4,23.6c-0.4,0-5,0.5-7.2,0.3v24l0.1,1.3l0.3,6.4l0.3,5.7l0.5,8.7
		c0,0,4.3,44.8,0.8,66c-0.7,3.9-1.6,7-2.8,8.8C448.2,412.9,448.8,414.8,450.3,415.9z"/>
	<path class="st32" d="M414.2,405.9c0.1,0.5,0.2,0.9,0.3,1.4c0.6,2.3,1.5,2.5,2.2,2.8l1.8,2l6.2,6.9l3.3-0.2l0.6-8l0.2-2.1l7.7-78.9
		l-14.7-12C421,344.6,411,390.1,414.2,405.9z"/>
	<polygon class="st38" points="437.5,336.2 433,328.2 439.7,330.5 	"/>
	<path class="st42" d="M424.5,257.7c-0.5,0-0.9-0.4-0.9-0.9v-1.2c0-0.5,0.4-0.9,0.9-0.9h4c0.5,0,0.9,0.4,0.9,0.9v1.2
		c0,0.5-0.4,0.9-0.9,0.9H424.5z"/>
	<path class="st43" d="M454.3,238.8c0.5-0.2,1.1-0.3,1.7-0.3c-0.3-0.1-0.5-0.1-0.8-0.2C454.8,238.3,454.5,238.4,454.3,238.8z"/>
	<path class="st32" d="M441.3,385.4c0.7,8.7-3,21.3,2.2,24.2c0.2,0.1,0.5,0.2,0.6,0.3c2.1,1.3,5.4,5.9,5.4,5.9h7.6l3-6
		c2-0.9,2.7-3.8,2.5-11.1c0.1,5.3-1,7.3-5.1,7.1c-2.4-0.1-4.5-2.2-3.9-5.1c0.1-0.4,0-0.8,0.1-1.3
		C454.6,392.6,440.9,380.6,441.3,385.4z"/>
	<path class="st38" d="M414.2,405.9c0.1,0.5,0.2,0.9,0.3,1.4c0.6,2.3,1.5,2.5,2.2,2.8l1.8,2c2.7-0.1,6.8-0.7,10.1-1.3
		c2.3-0.4,4.1-0.8,4.6-1c0.7-0.3,1.1-0.8,1.3-1.4c-1.4,0.2-3.5,0.3-5.8,0.3C423.5,408.7,415.7,407.8,414.2,405.9z"/>
	<path class="st40" d="M451.6,288.7c0,0-2.1,0-3.2-1c-1.9-1.7-3.5-5.6-3.8-10.4c-0.5-6.4,0.4-14.1,1.8-20.1l0.9-0.2
		c-0.6,4.9-2.7,25.5,4.3,26l0.1,4.3L451.6,288.7z"/>
	<g>
		<path class="st33" d="M467.9,286.3H447c-2.4,0-4.3-1.9-4.3-4.2c0-2.3,1.9-4.2,4.3-4.2h18.7l-6.3-22.3c-0.6-2.2,0.7-4.6,3-5.2
			c2.3-0.6,4.6,0.7,5.3,2.9l6.9,24.4c0.6,2.1,0.2,4.3-1.1,6C472.2,285.3,470.1,286.3,467.9,286.3z M466.3,279.9L466.3,279.9
			L466.3,279.9z"/>
	</g>
	<polygon class="st33" points="464.7,274.4 473.6,274.6 472.9,272.1 	"/>
	<path class="st34" d="M452.3,247.9l6.2,28.3l14.6-4.1c0,0-4.4-15.8-6.5-22.9c-1.5-5.1-4.6-9.8-10.6-10.7c-0.6,0-1.2,0.2-1.7,0.4
		C452.4,241.9,452.3,247.9,452.3,247.9z"/>
	<rect x="444.1" y="410" class="st36" width="15.9" height="10.5"/>
	<rect x="416.5" y="410" class="st36" width="17.3" height="10.5"/>
	<path class="st36" d="M438,426.4c10.2,0,10.1-2.5,10.3-5c0-0.3,0-0.6,0.1-0.9c0-1,0.1-2.2,0.1-3.3c0.1-2.1,0.5-4.2,1.7-4.6
		c1.8-0.6,7.6-1.3,9.7-1.8V410h-15.9v7.2c0,0.2-0.1,0.5-0.2,0.9l0,0c0,0.1,0,0.2-0.1,0.2c0,0,0,0,0,0.1c0,0.1,0,0.2-0.1,0.3
		c0,0,0,0,0,0.1c0,0.1,0,0.2-0.1,0.3c0,0,0,0,0,0c0,0.1-0.1,0.2-0.1,0.3c0,0,0,0,0,0c0,0.1-0.1,0.2-0.1,0.3c0,0,0,0,0,0
		c0,0.9-0.9,1.9-0.9,1.9C441.1,423.4,438,426.4,438,426.4z"/>
	<path class="st38" d="M442.7,408.3c2.2,0.9,14,0.8,18.6,0.2c-0.2,0.6-0.6,1.1-1.3,1.4c-1.7,0.7-13.9,0.9-15.9,0.1
		c-1.4-0.5-2.1-1.3-2.6-2.5C441.8,407.9,442.2,408.1,442.7,408.3z"/>
	<path class="st38" d="M419.5,407.9c4.7,0.8,9.3,1.3,9.5-2.1c0.2-3.1,4.6,2,6.6,1.2c-0.3,1-1,2.7-1.8,3.1
		c-1.7,0.8-15.8,1.6-17.2-0.1c-1.8-2,1.7-0.8,1.2-2.1C418.1,408.3,419,407.8,419.5,407.9z"/>
	<path class="st36" d="M411.3,426.3c0.1,0,0.2,0,0.3,0c7.8-0.6,9.2-2.7,9.5-5.8c0.1-0.8,0.1-1.8,0.2-2.7c0-0.2,0-0.4,0-0.6
		c0.3-4,1.1-4.5,2.2-4.7c5-1.1,9.1-2,10.3-2.4h-17.3v10.5c-0.3,0.5-0.6,0.9-0.6,0.9C414.5,423.2,411.8,425.9,411.3,426.3z"/>
	<path class="st38" d="M434.6,408.4c-0.6,0.6,0,1-0.8,1.5c-0.8,0.6-15.9,1.4-17.3,0c0,0-0.5-0.3-0.8-1.9c0,0,1.1,0.5,2.6,0.8
		c1.6,0.3,3,0.1,3.7,0.1c0.7,0,6.6-0.7,7.4-0.6c0.9,0.1,4-0.2,4-0.2s1.4,0.3,1.3,0.3L434.6,408.4z"/>
	<path class="st44" d="M459.5,430.7c1.6,0,2.8,0.1,2.8,0c0-1.1,0-2.2-0.1-3.1l0-0.4c-0.1-1.7-0.3-3.1-0.5-4.2
		c-1.3,0.1-2.5,0.7-2.4,2.3C459.3,426.9,459.5,429.2,459.5,430.7z"/>
	<path class="st45" d="M449.9,414.5c0.4,0,0.8,0.3,0.8,0.8v0.6c0,0.4-0.3,0.8-0.8,0.8c-0.4,0-0.8-0.3-0.8-0.8v-0.6
		C449.1,414.8,449.5,414.5,449.9,414.5z"/>
	<path class="st45" d="M449,418.3c0.3-0.3,0.8-0.3,1.1,0c0.4,0.5,0.4,1.1,0,1.6c-0.3,0.3-0.8,0.3-1.1,0c-0.2-0.2-0.3-0.5-0.2-0.8
		C448.7,418.8,448.7,418.5,449,418.3z"/>
	<path class="st45" d="M448.3,422.5c0.1-0.4,0.5-0.6,0.9-0.5c0.4,0.1,0.6,0.5,0.5,0.8c0,0.1,0,0.3-0.1,0.4c-0.1,0.1-0.2,0.3-0.3,0.4
		c-0.3,0.2-0.8,0-1-0.3C448.1,423.1,448.2,422.8,448.3,422.5z"/>
	<path class="st45" d="M421.2,414.3c0.4,0,0.8,0.3,0.8,0.8v0.8c0,0.4-0.3,0.8-0.8,0.8c-0.4,0-0.8-0.3-0.8-0.8v-0.8
		C420.4,414.7,420.8,414.3,421.2,414.3z"/>
	<path class="st45" d="M421,418.2c0.4,0,0.8,0.3,0.8,0.8v0.2c0,0.4-0.3,0.8-0.8,0.8c-0.4,0-0.8-0.3-0.8-0.8V419
		C420.2,418.6,420.5,418.2,421,418.2z"/>
	<path class="st45" d="M421.1,421.5c0.4,0,0.8,0.3,0.8,0.8v0.6c0,0.4-0.3,0.8-0.8,0.8c-0.4,0-0.8-0.3-0.8-0.8v-0.6
		C420.3,421.8,420.7,421.5,421.1,421.5z"/>
	<g>
		<path class="st46" d="M449.6,278.1c-3.3,0-3.2-4-4.5-4.6c-0.2-0.1-0.6-0.2-0.6-0.2l-0.4,6.2c0,0,1,1.5-1.9,1.4
			c-0.3,0,0.2,1.4,0.5,1.6c0.3,0.2-4-2.5-3.3-2.1c0.7,0.4,3.8,0.2,4.1,0.4s2.7,0.4,3.1,0.4C447,281.1,449.6,278.1,449.6,278.1z"/>
		<g>
			<path class="st46" d="M437.3,282.7c-0.8,0-1.6,0-2.5-0.1c-0.8-0.1-1.4-0.9-1.3-1.7c0.1-0.8,0.9-1.4,1.7-1.3
				c3.4,0.4,6.8-0.3,9.2-0.9l0.3-0.1c0.8-0.2,1.6,0.3,1.8,1.1c0.2,0.8-0.3,1.6-1.2,1.8l-0.3,0.1C443,282.1,440.3,282.7,437.3,282.7z
				"/>
		</g>
		<g>
			<path class="st46" d="M438.2,285.9c-0.7,0-1.3,0-2-0.1c-0.8-0.1-1.4-0.9-1.3-1.7c0.1-0.8,0.9-1.4,1.7-1.3
				c3.4,0.4,7.1-0.6,9.2-1.7c0.7-0.4,1.7-0.1,2.1,0.6c0.4,0.7,0.1,1.6-0.6,2C445,284.9,441.6,285.9,438.2,285.9z"/>
		</g>
		<g>
			<path class="st46" d="M439.2,288.4c-0.4,0-0.9,0-1.4-0.1c-0.8-0.1-1.4-0.9-1.3-1.7c0.1-0.8,0.9-1.4,1.7-1.3
				c2.3,0.3,4.7-0.5,6.8-1.3c1-0.3,1.9-0.6,2.7-0.8c0.8-0.2,1.6,0.3,1.8,1.1c0.2,0.8-0.3,1.6-1.2,1.8c-0.7,0.1-1.5,0.4-2.4,0.7
				C444.1,287.6,441.7,288.4,439.2,288.4z"/>
		</g>
		<path class="st46" d="M444.2,278.8c-1.4,0.3-4,0.8-5.6,0.9c-1.5,0-1.4,1.1-1.4,2.5c0,2.1,2.2,3.8,2.2,3.8s3.7,0.1,4-0.2
			c0.3-0.3,2.7-1.1,2.4-2s-1-2.5-1.4-2.8S444.2,278.8,444.2,278.8z"/>
	</g>
	<rect x="435.6" y="222.1" class="st47" width="11.4" height="18.1"/>
	<path class="st33" d="M435.6,233.8c3,0.5,6-0.5,8.5-1.6c1.8-0.8,2.9,1.2,2.9,1.2l0,4.3l0-19.2l-11.5,0L435.6,233.8z"/>
	<path class="st48" d="M435.1,232.8C435.1,232.8,435.1,232.8,435.1,232.8L435.1,232.8z"/>
	<path class="st47" d="M436.5,252.2c2.6-0.2,10.8-13.5,15.9-14.2c-1.4-0.7-2.7-1.6-3.7-2.5c-0.9-0.8-1.6-1.6-1.6-2.3
		c0,0,0,0.1,0,0.3c-0.2,0.9-1.2,3.6-6.7,3.6c-4.4,0-4.7-2.8-4.7-3.5c0,1-0.2,1.9-0.6,2.6c-0.4,0.8-1,1.4-1.8,2
		C430.9,242.9,434.4,252.3,436.5,252.2z"/>
	<path class="st30" d="M456.6,207.9c-0.3-0.9,0.1-3.6,0-4.5c-1.1-9.8-4.5-16.3-15.1-16.3c-11.5,0-7.6,7.1-7.6,18.5
		c0,11.4-3.4,18.7,7.9,20.6C453.9,228.2,459.4,215.4,456.6,207.9z"/>
	<path class="st49" d="M425.7,202.8c1.1,7.4,2.6,9.4,6.5,9.7l7.5-25c-7.7-0.2-12.6,5.7-14.6,11.3
		C424.4,200.4,425.1,198.9,425.7,202.8z"/>
	<path class="st33" d="M424.9,216.9c0,2.8,2.5,9.3,4,11.3c0.7,0.8,1.3,1.9,3.4,2.5c1.9,0.6,4.8,1,5.5,3c0.4,1,0.1-1,0.9-1.1
		c8.3-1.4,14.2-10,14.2-16.9l-1.9-9.6c0-7.5-6-13.7-13.4-13.7c-7.4,0-13.4,6.2-13.4,13.7L424.9,216.9z"/>
	<path class="st33" d="M424.5,216.7c0.3,7.9,3.5,14.8,11.8,14.5c9.7-0.3,12.3-9.9,12.1-17.5l-0.5-6.5c-0.3-7.5-3.5-15.1-10.8-14.9
		c-7.4,0.3-13.2,6.6-12.9,14.2L424.5,216.7z"/>
	<path class="st30" d="M453.4,205.5c7-1.3-7.1-14.1-9-14.7c-1.3-0.4,0.6-3.7-3.5-3.7c-3.9-0.1-8.2,0.8-10.9,2.6
		c-3.7,2.5-4,2.9-2.8,6.1C430,202.7,447,206.7,453.4,205.5z"/>
	<path class="st30" d="M447.3,206.1c0.1,3.6,0.4,4.7,0.7,5.4c0.5,1.2,1.3,0.7,1.5-0.1c0.2-1.1,0.7-2.6,3.2-3.4
		c0.3-0.1-5.4-3.4-5.4-3.4L447.3,206.1z"/>
	<path class="st5" d="M438.7,221.5c0,0-1.2,3.6-4.8,3.6c-4,0-4-3.6-4-3.6L438.7,221.5z"/>
	<path class="st30" d="M438.8,196.7c2.4,3.8-1,7.3,3.5,8.4c3.9,0.9,4.6,1.6,5.2,4.9c0.4,2.3,4.9-4.1,4.9-4.1s1.1-5.1,0.3-5.5
		c-0.8-0.4-7.2-1.5-7.8-1.8C444.3,198.2,438.8,196.7,438.8,196.7z"/>
	<path class="st30" d="M436,201.6l-13.7-1.4c-1.5,1.5-1.1,5.4-0.7,5.5c1.8,0.4,8.6,0.7,13.9,0.2C435.3,205.1,435.4,203.3,436,201.6z
		"/>
	<path class="st32" d="M442.3,257l2.3,0.1l2.6-0.1c-0.1-6.2,1.3-16.2,7-18.3c0.3-0.3,0.6-0.5,0.9-0.5c0.3,0,0.6,0.1,0.8,0.2
		c0.1,0,0.1,0,0.2,0c0,0-1.7-0.3-2.8-0.5c-1.2-0.2-2.9-0.2-2.9-0.2C443.8,237.9,442.3,250.1,442.3,257z"/>
	<path class="st42" d="M442.6,257.7c-0.5,0-0.9-0.4-0.9-0.9v-1.2c0-0.5,0.4-0.9,0.9-0.9h4c0.5,0,0.9,0.4,0.9,0.9v1.2
		c0,0.5-0.4,0.9-0.9,0.9H442.6z"/>
	<path class="st22" d="M424.9,200.6c1.1-0.8,2.1-0.4,7-0.4c5.5,0,11.1,0.8,15.7,2.2c4.6,1.4,8,3.3,9,5.6c0.5,0.3,1.2-4.1,1.3-7.3
		c0-0.2,0-0.3,0-0.5c0-1.3-0.2-2.5-0.5-3.7c-1.4-5.2-5.8-9.7-13.9-10.9c0,0-0.1,0-0.1,0c-0.9-0.1-1.9-0.2-2.9-0.3c-0.4,0-0.7,0-1,0
		c-2.1,0-4,0.3-5.6,0.8c-0.1,0-0.2,0.1-0.3,0.1c-4.1,1.5-6.7,4.6-8,7.5C424,197.2,424.1,200.5,424.9,200.6z"/>
	<path class="st22" d="M447.5,202.4c1.5-6.7,4.5-16.6-11-16.5c-14,0.1-14,14.3-14,14.3L447.5,202.4z"/>
	<path class="st22" d="M416.5,198.9c4-0.1,5.4,1.8,13.9,4.5c6.4,2.1,12.7-0.1,17.1-1.1c-1.5-1.4-17-3.7-25.5-3.8
		C419.8,198.6,416.9,198.8,416.5,198.9z"/>
	<path class="st50" d="M393.9,263.6v23.2c0,1.1-0.9,1.9-2,1.9h-3.4c-1.1,0-2-0.9-2-1.9v-23.2c0-1.1,0.9-1.9,2-1.9h3.4
		C393,261.6,393.9,262.5,393.9,263.6z"/>
	<polygon class="st51" points="393.9,276.3 393.9,282 386.6,279.7 386.6,275.1 	"/>
	<path class="st52" d="M406.8,228.5c1.1,0,2,0.9,2,1.9v6.4c0,1.1-0.9,1.9-2,1.9h-32.9c-1.1,0-2-0.9-2-1.9v-6.4c0-1.1,0.9-1.9,2-1.9
		H406.8z"/>
	<path class="st5" d="M374.1,228.5v7c0,0.3,0.2,0.6,0.5,0.6h0.9c0.3,0,0.5-0.3,0.5-0.6v-1.5c0.1,0.2,0.3,0.3,0.5,0.3h0.6v2.3
		c0,0.4,0.3,0.7,0.7,0.7h1.1c0.4,0,0.7-0.3,0.7-0.7v-2.3h1v4.4h9.4v-2.1h3.1v2.1h7.6v-0.7c0,0,0.1,0,0.1,0h1.1
		c0.4,0,0.7-0.3,0.7-0.7v-4.9h1.3v3.9c0,0.4,0.3,0.7,0.7,0.7h1.1c0.4,0,0.7-0.3,0.7-0.7v-8H374.1z"/>
	<path class="st46" d="M391.5,275.3c0,2.1-1.6,3.9-3.5,3.9s-3.5-1.7-3.5-3.9v-3.6c0-2.1,1.6-3.9,3.5-3.9s3.5,1.7,3.5,3.9V275.3z"/>
	<path class="st53" d="M387.9,269.8h2.8H387.9z"/>
	<path class="st53" d="M385.7,273.3h2.8H385.7z"/>
	<path class="st53" d="M388.8,273.1h2.8H388.8z"/>
	<path class="st54" d="M490.9,435.3c0,1.3-1.1,2.3-2.3,2.3h-31.7c-1.3,0-2.3-1-2.3-2.3v-21.5c0-1.3,1.1-2.3,2.3-2.3h31.7
		c1.3,0,2.3,1,2.3,2.3V435.3z"/>
	<path class="st55" d="M490.9,411.5v1.9c0,0.6-0.5,1.2-1.2,1.2l-34,0c-0.6,0-1.2-0.5-1.2-1.2v-1.9L490.9,411.5z"/>
	<path class="st54" d="M489.7,409.8c0.6,0,1.2,0.5,1.2,1.2v0.7c0,0.6-0.5,1.2-1.2,1.2h-34c-0.6,0-1.2-0.5-1.2-1.2v-0.7
		c0-0.6,0.5-1.2,1.2-1.2L489.7,409.8z"/>
	<path class="st56" d="M490.9,409.8v1.9c0,0.6-0.5,1.2-1.2,1.2h-7.4c-0.6,0-1.2-0.5-1.2-1.2v-1.9L490.9,409.8z"/>
	<g>
		<path class="st5" d="M459.7,409.8v18.8c0,0.6,0.5,1.2,1.2,1.2h1.3c0.6,0,1.2-0.5,1.2-1.2V422c0-0.6,0.5-1.2,1.2-1.2h3
			c0.6,0,1.2,0.5,1.2,1.2v2.3c0,0.6,0.5,1.2,1.2,1.2h2.6c0.6,0,1.2,0.5,1.2,1.2v5.4c0,0.6,0.5,1.2,1.2,1.2h2.6
			c0.6,0,1.2-0.5,1.2-1.2v-5.4c0-0.6,0.5-1.2,1.2-1.2h3.3c0.6,0,1.2,0.5,1.2,1.2v6.3c0,0.6,0.5,1.2,1.2,1.2h4.3
			c0.6,0,1.2-0.5,1.2-1.2v-23.2H459.7z"/>
	</g>
	<g>
		<path class="st29" d="M485.7,428.7c-8.1,0-20.7-7.2-28.2-16c-0.3-0.3-0.2-0.8,0.1-1.1c0.3-0.3,0.8-0.2,1.1,0.1
			c7.2,8.5,19.3,15.4,27,15.4c2.4,0,5.3-0.7,5.4-4.1c0-0.4,0.4-0.8,0.8-0.8c0.4,0,0.8,0.4,0.8,0.8
			C492.6,424.8,491.9,428.7,485.7,428.7z"/>
	</g>
	<polygon class="st46" points="450.1,277.8 447.9,277.8 443.9,286.2 450.1,286.2 	"/>
	<path class="st5" d="M459.3,331.2c-0.1-0.4,0-0.7,0-1c0.1,0,0-0.1,0.1-0.2c0,0,0,0,0,0c0-0.2,0.1-0.4,0.3-0.3c0,0,0-0.1,0-0.1
		c0.1,0,0.2-0.2,0.3-0.1c0,0,0.1-0.1,0.1-0.1c0.3,0,0.4,0,0.5-0.1c0-0.1,0-0.2,0-0.3c-0.2-0.2-0.5,0-0.6,0.1c0.1,0-0.1,0-0.1,0
		c0,0,0,0.1,0,0.1c-0.1,0-0.2,0-0.3,0c0-0.1-0.2-0.1-0.2-0.2c0-0.1,0-0.1,0-0.2c0,0,0.1,0,0.1,0c0-0.1,0-0.1,0.1-0.1
		c0-0.2-0.1-0.3-0.1-0.5c0.1-0.1,0.2-0.3,0.3-0.2c0,0,0,0,0-0.1c0,0,0.1,0,0.1,0c0-0.1,0.1-0.2,0.1-0.3c0,0,0,0,0,0
		c-0.1,0-0.1,0.1-0.1,0c0.1,0-0.1-0.1-0.2-0.1c0,0,0,0.1-0.1,0.1c0-0.1-0.1,0-0.1,0c0-0.1,0,0-0.1-0.1c0-0.1,0-0.2,0-0.2
		c0.1-0.1,0.1-0.3,0.2-0.4c0-0.2,0-0.4-0.2-0.5c-0.1-0.1,0.1-0.2,0-0.3c0.1,0,0.2-0.2,0.4-0.1c0-0.1,0.1-0.1,0.2-0.1
		c0-0.1,0-0.1,0-0.1c0.1,0,0.2,0.1,0.2,0c0.2,0,0.2-0.4,0-0.4c0,0-0.1,0-0.1,0c-0.1,0-0.1,0.1-0.2,0.1c0,0,0,0.1,0,0.1
		c-0.1,0-0.1,0.1-0.2,0c0,0.1-0.1,0.1-0.1,0.1c0,0.1-0.2,0.1-0.3,0.1c0,0,0,0,0,0.1c-0.1,0-0.3,0-0.4,0c0-0.1,0-0.1,0-0.2
		c0.1,0,0.1,0,0.1,0l0,0l0,0l0,0c0.1,0,0.2-0.1,0.2-0.2c0,0,0,0,0.1,0c0,0,0,0,0,0c0.2,0,0.3-0.2,0.4-0.2c0-0.1,0-0.1,0-0.2
		c-0.1,0-0.1,0-0.2,0c0,0.1-0.3,0.1-0.3,0.3l0,0c0,0,0,0,0,0c0,0,0,0-0.1,0c-0.1,0-0.2,0.1-0.2,0.2l0,0c-0.2,0-0.3,0-0.3-0.2
		c-0.1,0.1-0.2-0.2-0.2-0.1c0-0.1-0.1,0,0-0.1c-0.1,0-0.2,0-0.1-0.1c-0.1,0-0.1-0.1-0.1-0.1c0,0-0.1,0-0.1-0.1c0,0,0-0.1,0-0.1
		c-0.1,0-0.1,0-0.1-0.1c0,0,0.1,0,0.1,0c-0.1,0-0.1-0.1-0.1-0.1c0-0.1,0-0.3,0.1-0.4c0,0,0,0,0,0c0-0.1,0-0.1,0-0.1
		c0-0.1,0-0.1,0.1-0.1c0,0,0,0,0,0c0,0,0.1,0,0.1,0c0-0.1,0.1-0.2,0.1-0.2c0-0.1,0-0.2,0-0.3c-0.1,0-0.2,0-0.3,0
		c-0.1,0.2-0.2,0.4-0.3,0.6c-0.1,0-0.2,0.1-0.2,0.1c-0.2,0.1-0.3-0.1-0.3-0.1c0,0-0.2-0.1-0.1-0.2c0,0-0.1,0-0.1,0
		c0-0.2-0.1-0.2-0.2-0.3c0,0,0,0,0,0c0,0-0.1-0.1-0.1-0.1c0-0.1,0-0.2,0-0.3c0,0,0,0,0,0c0-0.3,0.2-0.5,0.2-0.7
		c0.3,0,0.2-0.5,0.3-0.6c0,0,0,0,0,0c0.1,0,0-0.1,0-0.2c0-0.1,0.2-0.2,0.1-0.4c0,0,0,0.1,0,0c0.1-0.2,0.1-0.3,0.2-0.3
		c0-0.1,0-0.2,0-0.3c0,0-0.1,0,0,0c-0.1,0-0.1,0-0.1,0c0-0.1,0-0.2,0-0.2c0,0,0.1,0,0.1-0.1c0.1-0.1,0.1-0.4,0.2-0.4
		c0-0.1,0.1-0.2,0-0.3c-0.1,0.1-0.2,0.2-0.2,0.3c-0.1,0-0.1,0.2-0.2,0.3c0,0.3-0.1,0.4-0.2,0.7c-0.1,0,0,0.2-0.1,0.2
		c0,0.1,0,0.1,0,0.1c-0.1,0-0.2,0.3,0,0.3v0c0,0,0,0,0,0c0,0,0,0,0,0v0c0-0.1,0.1-0.2,0.2-0.2c-0.1,0.1-0.1,0.3-0.1,0.3
		c0.1,0.1-0.1,0.2-0.2,0.2c0,0,0,0,0,0.1c-0.2,0-0.2,0.3-0.2,0.4c0,0,0,0,0,0c0,0,0,0,0,0c0,0,0,0,0,0c0,0,0,0,0,0c0,0,0,0,0,0
		c0,0,0,0,0,0l0,0c-0.1,0.1-0.1,0.2-0.1,0.4c-0.1,0-0.1,0-0.1,0c0.1,0.1,0,0.2-0.1,0.2c-0.1-0.1-0.1,0-0.2,0
		c-0.1-0.1-0.2-0.1-0.2-0.2c0-0.1-0.1-0.1-0.2-0.2c0,0,0,0,0-0.1c-0.1,0-0.2-0.1-0.2-0.2c-0.3,0-0.5-0.1-0.8-0.1c0,0,0-0.1,0-0.1
		c0,0,0,0-0.1,0c0-0.1-0.1-0.1-0.1-0.2c-0.1,0,0.1,0.1,0,0.1c0-0.1-0.2-0.1-0.1-0.2c-0.1,0-0.1-0.1-0.1,0c-0.1-0.2,0.2-0.8-0.3-0.6
		c-0.1-0.1,0-0.3,0-0.4c0,0,0.1,0,0.1,0c0,0,0,0,0,0c0.1-0.1,0.2-0.5,0-0.5c0,0,0-0.1,0-0.1c-0.1,0-0.2-0.1-0.1-0.2
		c-0.1,0-0.2,0-0.3,0c0,0.1-0.1,0.2-0.1,0.2c0,0.3,0,0.6,0,0.9c0,0,0,0,0,0c0,0,0,0,0,0c0,0,0,0,0,0l0,0c0,0.1,0,0.1,0,0.2l0,0
		c0,0,0,0,0,0c0,0,0,0,0,0c0,0,0,0,0,0c0,0,0,0,0,0c0,0,0,0,0,0.1c0,0-0.1,0-0.1,0c0.1,0,0,0,0,0.1c-0.1,0,0,0-0.1,0
		c-0.1,0.2-0.4,0.2-0.6,0.2c0,0.1-0.2,0-0.2,0.1c0,0-0.1-0.1-0.1,0c-0.1-0.1-0.4-0.2-0.5-0.2c0-0.1,0-0.1-0.1-0.2c0,0,0,0,0,0
		c0-0.3,0-0.5-0.1-0.8c-0.1,0-0.2-0.2-0.4-0.1c0,0.1-0.2,0.3-0.2,0.3c0,0.1,0,0.2,0,0.3c0.1,0,0.1,0.1,0.1,0.1c-0.1,0.1,0,0.2,0,0.3
		c0,0,0,0-0.1,0c0,0.1-0.1,0.2-0.1,0.3c-0.2,0-0.3,0-0.6,0c0-0.1-0.2,0-0.3-0.1c0,0,0-0.1-0.1-0.1c-0.1-0.1-0.2,0-0.2-0.1
		c0-0.1,0,0,0-0.1c0,0-0.1,0-0.1,0c0,0,0-0.1,0-0.1c0,0,0-0.1-0.1-0.2c0.1-0.3,0.1-0.6,0-0.9c0,0,0-0.1,0-0.1c-0.1,0-0.2-0.1-0.3,0
		c0,0,0,0,0,0c0,0,0,0,0,0c0,0,0,0,0,0c0,0,0,0,0,0.1l0,0c-0.2,0.1-0.3,0.3-0.3,0.5c0.1,0,0.1,0.2,0.1,0.3c0.1,0,0,0.2,0.1,0.2
		c0,0.1,0,0.1,0,0.2c-0.1,0,0,0.1-0.1,0.1c0,0.1,0,0.3,0,0.4c0,0,0,0.1-0.1,0c0,0.2-0.2,0.2-0.3,0.3c0,0-0.1,0-0.1,0
		c0,0,0,0.1,0,0.1c-0.2,0-0.3,0-0.6,0c0-0.1-0.1-0.1-0.1-0.2c0,0,0,0,0,0.1c-0.1-0.2,0-0.3-0.2-0.3c0-0.1-0.1-0.1-0.1-0.2
		c0.1,0,0,0,0-0.1c-0.1,0,0,0-0.1,0c0.1-0.1-0.2-0.2-0.2-0.1c0,0,0,0.1-0.1,0.1c0,0,0,0.1,0,0.1c0,0,0-0.1-0.1,0c0,0,0,0,0,0.1
		c0,0,0,0-0.1,0c0,0.1,0,0.2,0,0.3c0.1,0,0.1,0.2,0.1,0.2c0,0,0,0,0.1,0c0.1,0.1,0.1,0.3,0.2,0.4c0,0.1,0.1,0.2,0,0.4c0,0,0,0,0,0
		c0,0,0,0,0-0.1c0,0,0,0,0,0c0,0,0,0,0,0c0,0,0,0,0,0.1c0,0,0,0,0,0.1l0,0c0,0.1-0.1,0.1-0.1,0.1c0,0,0,0.2-0.1,0.1c0,0,0,0.1,0,0.1
		c-0.1,0-0.2,0-0.3,0c0,0,0-0.1,0-0.1c-0.1-0.1-0.3-0.1-0.5-0.1c-0.1,0-0.1,0.2-0.2,0.1c0,0.1,0,0.1,0,0.2c0,0,0,0,0,0
		c0,0.1-0.1,0.2,0,0.3c0,0,0.1,0,0.1,0c0,0,0,0,0,0.1c0.1,0,0.2,0.2,0.1,0.2c0,0,0-0.1,0-0.1c0,0.1,0,0.1,0,0.1
		c-0.1,0-0.1,0.1-0.1,0.1c0,0,0,0-0.1,0c-0.1,0,0.1,0.1,0,0.1c-0.1,0-0.2,0-0.3,0c0,0,0-0.1,0-0.1c-0.1,0-0.1,0.1-0.2,0.1
		c0,0,0,0.1,0,0.1c0,0,0,0-0.1,0c0,0.1,0,0.2-0.1,0.1c0,0.1-0.1,0.2,0,0.3c0,0,0,0,0,0l0,0l0,0c0,0,0,0,0,0.1c0,0,0,0,0,0
		c0,0,0,0,0,0c0,0,0,0,0,0c0,0,0-0.1,0-0.1l0,0c0,0,0,0,0,0c0,0.1,0,0.3,0,0.3c0,0,0,0,0,0l0,0c0,0,0,0,0,0c0,0,0,0,0,0c0,0,0,0,0,0
		c0,0,0,0,0,0c0,0,0,0,0,0c0,0,0,0,0,0c0,0.1-0.1,0.1-0.1,0.2h0c0,0,0,0,0,0c0,0,0,0,0,0h0c0,0,0,0,0,0c0,0-0.1,0-0.1,0
		c0,0.1,0,0,0.1,0.1c0,0-0.2,0-0.1,0l0,0c0,0-0.1,0-0.1,0c0,0,0,0,0,0c0,0,0,0,0,0c0,0,0,0,0,0c0,0,0,0,0.1,0c0,0,0,0,0,0
		c0,0-0.1,0.1-0.1,0.1c0,0.1,0,0.1-0.1,0.1c0,0.1,0,0.1,0,0.1c-0.1-0.1,0,0.2-0.1,0.1c0.1,0.3,0.2,0.5,0.2,0.8c0,0,0,0-0.1,0
		c0,0.1-0.1,0.3-0.3,0.3c0,0.1-0.1,0-0.1,0.1c0,0,0,0,0-0.1c-0.1,0,0,0.1-0.1,0.1c-0.1,0-0.3-0.1-0.5-0.1l0,0c0,0,0,0,0,0
		c0,0,0,0,0,0c0,0,0,0,0,0c0,0,0,0,0,0c0,0-0.1,0.1-0.2,0c0,0.1-0.1,0.1-0.1,0.2c0,0.1,0,0.2,0,0.3c0,0,0.1,0,0.1,0c0,0-0.1,0,0,0.1
		c0,0,0.1-0.1,0.1,0c-0.1,0,0.1,0.1,0,0.1c0.1,0,0.2,0,0.2,0.1c0.1,0,0.1,0.1,0.2,0c0,0,0,0.1,0,0.1c0.2-0.1,0.1,0.2,0.2,0.2
		c0,0,0.1,0,0.1,0c0,0-0.1,0,0,0.1c0.1,0.1,0.1,0,0.2,0c0,0.1,0.1,0,0.1,0.1c0,0.1,0.1,0.1,0.2,0.2c0,0.1,0,0.1,0,0.2
		c-0.1,0,0,0.1,0,0.1c-0.1,0,0,0.3-0.1,0.2c0,0.1-0.1,0.2-0.2,0.3c-0.2,0-0.2,0.2-0.4,0.1c0,0.1-0.1,0.1-0.1,0.1c0,0,0,0.1-0.1,0.1
		c0,0,0,0,0,0h0c0,0,0,0,0,0c0,0,0,0,0,0l0,0l0,0c0,0,0,0,0,0c0,0,0,0,0,0.1l0,0c0,0,0,0,0,0c0,0,0,0-0.1,0c0.1,0.1,0,0.2,0,0.3
		c0,0,0.1,0,0.1,0c0,0.1,0,0,0,0.1c0,0,0.1,0,0.1,0c0,0,0,0,0,0.1c0.2,0,0.3,0.1,0.4,0.1c0.1,0.2,0,0.4,0,0.5c0,0-0.1,0,0,0
		c0,0,0,0-0.1,0c0,0,0,0,0,0.1c-0.1,0-0.3,0-0.3,0.1c-0.1-0.1-0.2,0-0.3,0c0,0,0,0.1,0,0.1c0.1-0.1,0.2,0,0.3,0
		c0.1,0.1,0.1,0.3,0.1,0.4c-0.1,0-0.1,0,0,0.1c-0.2,0.1-0.1,0.3,0,0.4c-0.1,0.1,0.1,0.2,0.2,0.3c0.1,0,0.3-0.1,0.3,0.1
		c0.1-0.1,0,0,0.1,0.1c0,0,0.1,0,0.1,0.1c0,0.2,0.2,0.2,0.3,0.2c0.1,0,0.1,0.1,0.2,0.1c0,0.1,0.1,0.1,0.1,0.2c0,0,0,0,0.1,0
		c0,0.1,0,0.1,0,0.2c0.1,0.1,0.1,0,0.1,0c-0.1,0.2,0.1,0.3,0.1,0.5c-0.1,0,0,0.2-0.1,0.1c0,0,0,0.1,0,0.1c0,0-0.1,0-0.1,0
		c0,0,0,0.2-0.1,0.1c0,0,0,0.1,0,0.1c0.1,0.1,0,0.2,0,0.4c0.1,0,0,0.2,0.1,0.2c0.1-0.1,0.3,0,0.5,0c0,0,0,0,0,0c0,0,0,0,0.1,0
		c0,0,0,0,0-0.1c0.1,0,0.1,0,0.2,0c0,0.1,0.1,0.1,0.1,0.1c0,0.1-0.1,0.2,0,0.2c0.1,0,0,0.1,0,0.2c0.1,0,0-0.1,0.1-0.1
		c0,0.1-0.1,0.2-0.1,0.2c0,0.1-0.1,0.2,0,0.3c-0.2,0,0.1,0.1,0.1,0.2c0,0-0.1,0,0,0.1c0-0.1,0.1,0,0,0.1c0,0,0.1,0,0.1,0
		c0.1,0.2,0.3,0.3,0.5,0.3c0,0,0,0.1,0,0.1c0.1,0,0.2,0.1,0.3,0.2c0.2,0,0.3,0,0.3-0.1c0,0,0.1,0,0.1,0c0.1,0,0-0.1,0.1-0.1
		c0.1,0,0.3,0.1,0.4,0c0,0,0.1,0.1,0.1,0.1c0.1-0.1,0.1,0.2,0.2,0.1c-0.1,0.2-0.1,0.3-0.1,0.5c0,0,0-0.1,0-0.1c0,0.1,0,0.1,0,0.2
		c0,0,0,0,0,0c0,0,0,0,0,0l0,0v0c0,0,0,0,0,0c0,0,0,0.1,0.1,0.1c0,0,0-0.1,0-0.1c0,0,0,0,0,0v0c0,0.1,0,0.2,0.1,0.3
		c0.1,0,0.2,0,0.2,0.1c0.1,0,0.2-0.1,0.3-0.1c0-0.1,0.1,0,0.1-0.1c0-0.1,0.2-0.3,0.2-0.3c0,0,0,0,0,0c0,0,0.2-0.1,0.1,0
		c0.1,0,0.1,0,0-0.1c0.1-0.1,0.3,0,0.5,0c0,0,0,0,0,0.1c0-0.1,0.2,0,0.2,0c0,0-0.1,0-0.1,0c0.1,0.1,0.3,0.1,0.4,0.2
		c0,0,0.1,0.1,0.1,0.2c0,0.1-0.1,0.1,0,0.1c0,0,0,0.2,0.1,0.2c-0.1,0.1-0.1,0.2-0.1,0.3l0,0c0,0,0,0,0,0c0,0,0,0,0-0.1c0,0,0,0,0,0
		c0,0,0,0,0,0c0,0,0,0.1,0,0.1c0,0,0,0,0,0l0,0c0,0,0,0.1,0,0.1l0,0c-0.1,0,0,0.1,0,0.1c0,0,0,0-0.1,0c0,0.2-0.1,0.2-0.1,0.4
		c0.1,0,0.1,0,0.1,0.1c0.2,0,0.1,0.2,0.2,0.2c0.1-0.1,0.2-0.3,0.4-0.4c0,0,0-0.1,0-0.1c0,0,0,0,0,0c0.1-0.3,0.2-0.7,0.4-1
		c0,0,0.1,0,0.1,0c0,0-0.1,0-0.1,0c0.2,0,0.3-0.1,0.4-0.1c0,0,0-0.1,0.1-0.1c0.1-0.1,0-0.1,0.1-0.1c0.2,0,0.3,0,0.4,0.2
		c-0.1,0.2,0,0.3,0,0.5c0.1,0,0.1,0.1,0.2,0.1c0,0,0,0,0,0.1c0.1,0,0.1,0,0.2,0c0,0.2,0,0.3,0.1,0.5c0,0,0,0,0,0.1
		c0,0,0,0.1-0.1,0.1c0,0.2,0,0.5,0,0.7c0,0.1,0.1,0.1,0,0.2c0,0,0,0,0,0c0,0.1,0,0.2,0,0.2c0,0.1,0,0.2,0.1,0.3c0,0.1,0,0.1,0,0.2
		c0,0,0,0,0,0c0,0.1,0,0.3,0,0.4c0,0.1,0,0.1,0,0.2c0,0.1,0.1,0.2,0,0.3c0,0,0,0,0,0c0,0,0,0.1,0,0.1c0,0.1,0,0.2,0,0.3
		c0,0,0,0.1,0,0.1c0,0.1,0,0.1,0,0.2c0,0.2,0,0.3,0,0.4c0,0,0,0,0,0c0,0.2,0,0.4,0,0.7c0,0.1,0,0.1,0,0.2c0,0.1,0,0.3,0,0.5
		c0,0,0,0,0,0c0,0,0,0,0,0.1c0,0.2,0.1,0.5,0,0.6c0,0.1-0.1,0.2,0,0.3c0,0,0,0,0,0c0.1,0.2,0,0.5,0,0.8c0,0,0,0.1,0,0.1
		c0,0.2-0.1,0.4,0,0.6c0,0,0,0,0,0c0,0.2,0,0.4,0,0.5c0,0.2,0,0.3,0,0.4c0,0,0,0,0,0.1c0,0.3-0.1,0.6,0,0.9c0,0,0,0.1,0,0.2
		c0,0,0,0.1,0,0.1c0,0,0,0.1,0,0.1c0,0,0,0,0,0c0,0.2-0.1,0.3-0.1,0.5c0,0,0,0.1,0,0.1c-0.1,0.2-0.1,0.5-0.1,0.7
		c0,0.1-0.1,0.3,0,0.4c0,0.1,0,0.2,0,0.4c0,0,0,0,0,0c-0.1,0.1,0,0.3,0,0.4c0,0,0,0,0,0.1c0,0.1,0,0.2,0,0.3c0,0.1,0,0.3,0,0.5
		c0,0,0,0,0,0c0,0.1,0,0.1,0,0.1c0,0.1,0,0.2,0,0.3c0,0,0,0,0,0c0,0.1,0,0.2-0.1,0.2c0,0.1-0.1,0.1-0.1,0.1c0,0,0,0,0,0
		c0,0,0,0.1,0,0.1c0,0,0,0,0,0c0,0.1,0,0.1-0.1,0.1c0,0.1,0,0.2,0,0.2c0.1,0.1,0,0.3,0,0.4c0,0,0,0,0,0c0,0.1,0,0.1,0,0.2
		c0,0,0.1,0.1,0.1,0.2c0,0,0.1,0.1,0.1,0.1c0.1,0,0.1,0.1,0.1,0.1c0.1,0,0.1,0.1,0.1,0.1c0,0,0,0.1,0,0.1c0,0,0,0,0,0.1
		c0.1,0,0.1,0.1,0.1,0.1c0,0,0,0,0,0c0,0,0,0,0,0c0.1,0,0,0.1,0.1,0.1c0,0,0,0.1,0,0.1c0,0,0,0,0,0c0,0,0,0,0.1,0
		c0,0,0.1,0.1,0.1,0.1c0.1,0,0.2,0,0.2,0c0,0,0,0,0,0c0-0.1,0.1,0,0.1-0.1c0,0,0.1,0,0.1,0c0,0,0.1-0.1,0-0.1c0.1,0,0.1-0.1,0.2-0.1
		c0,0,0,0,0,0c0,0,0.1,0,0.1,0c0-0.1,0-0.2,0-0.2c0,0,0,0,0,0c0,0,0-0.1,0-0.1c0,0,0,0,0.1,0c0,0,0-0.1,0-0.1c0,0,0,0,0,0
		c0,0,0,0,0.1,0c0-0.1,0-0.1,0-0.1c0.1-0.1,0.1-0.2,0-0.2c0,0,0,0,0,0c0-0.1,0-0.1,0-0.1c0,0,0,0,0,0c0-0.1,0-0.2,0-0.3c0,0,0,0,0,0
		c0-0.1,0-0.2-0.1-0.2c0-0.1,0-0.2,0-0.4c0,0,0-0.1,0-0.1c0,0,0,0,0,0c0,0,0-0.1,0-0.1c0,0,0,0,0,0c0-0.1,0-0.1,0-0.2c0,0,0,0,0-0.1
		l0,0c0,0,0,0,0,0c0,0,0,0,0,0c0,0,0,0,0,0c0,0,0,0,0,0c0-0.1,0-0.2,0-0.3c0,0,0-0.1,0-0.2c0-0.1,0-0.3,0-0.3c0-0.1,0-0.2,0-0.2
		c0,0,0,0,0,0c0-0.1,0-0.3,0.1-0.4c0,0,0,0,0,0c0,0,0-0.1,0-0.2c-0.1-0.1,0-0.2,0-0.3c0-0.1,0-0.2,0.1-0.3c0-0.2,0-0.3,0-0.5
		c0,0,0,0,0,0c0-0.2,0.1-0.3,0-0.6c0,0,0,0,0,0c0-0.2,0-0.3,0-0.5c0,0,0-0.1,0-0.1c0-0.1,0-0.2,0-0.3c0-0.1-0.1-0.1,0-0.2
		c0,0,0,0,0,0c0-0.3,0-0.6,0-0.8c0,0,0,0,0.1,0c0-0.3,0-0.5,0-0.8c0-0.1,0-0.3-0.1-0.4c0-0.2,0-0.5,0-0.6c0,0,0,0,0-0.1
		c0-0.2,0-0.5,0-0.8c0-0.2,0-0.3,0-0.4c0-0.1,0-0.2,0-0.3c0,0,0-0.1,0-0.1c0-0.2,0-0.4,0-0.6c0,0,0-0.1,0-0.1c0-0.2,0-0.3,0-0.4
		c0-0.1,0-0.1,0-0.2c0-0.1-0.1-0.2-0.1-0.3c0,0,0-0.1,0-0.1c0,0,0-0.1,0-0.1c0-0.1,0-0.1,0-0.2c0,0,0-0.1,0-0.1c0-0.3,0-0.5,0-0.8
		c-0.1,0-0.1-0.2,0-0.4c0-0.1,0.1-0.2,0.1-0.3c0,0,0,0,0,0c0-0.1,0-0.2,0-0.3c0-0.1,0-0.3,0-0.4c0,0,0-0.1,0-0.2
		c0-0.2-0.1-0.3-0.1-0.6c0-0.1,0-0.2,0-0.4c0,0,0-0.1,0-0.1c0-0.1,0-0.1,0-0.2c0-0.3,0.1-0.6,0-0.8c0,0,0,0,0-0.1c0-0.1,0-0.1,0-0.2
		c0,0,0.1,0,0.1,0c0,0,0,0,0.1-0.1c0.2,0,0.5,0,0.5,0.1c0.1,0,0.2,0,0.2,0.1c0,0.1,0.1,0.2,0.1,0.2c0.1,0,0.1,0,0.2,0
		c0,0,0,0.1,0,0.1c0.2,0,0.4,0.1,0.6,0c0,0,0,0,0,0.1c0.1,0,0.1,0.1,0.1,0.1c0.1,0,0.1,0.1,0.1,0.1c0,0,0,0,0,0c0,0.1-0.1,0.1,0,0.2
		c0,0,0.1,0,0.1,0c0,0.2,0.1,0.3,0.2,0.5c0.1,0,0.2,0,0.3,0c0-0.1,0-0.1,0-0.2c-0.1-0.2-0.3-0.4-0.3-0.8c-0.1,0,0,0-0.1-0.1
		c0-0.1-0.1-0.3-0.1-0.4c0,0,0,0,0,0c0,0-0.1,0-0.1,0c0,0,0-0.1,0-0.1c0,0-0.1,0-0.1,0c0,0,0,0,0-0.1c0,0,0,0-0.1,0
		c0-0.2-0.1-0.5,0-0.7c0.1,0,0.1-0.1,0.2-0.1c0-0.1-0.1-0.1,0-0.1c0,0,0.1,0.1,0.1,0.1c-0.1,0.1,0.1,0,0,0.1c0.1,0,0.2,0,0.2,0l0,0
		c0,0,0,0,0,0c0,0,0,0,0,0c0,0,0,0,0,0c0,0,0,0,0,0c0,0,0,0,0,0c0,0,0,0,0,0c0,0,0,0,0,0c0,0,0.2,0,0.2,0c0-0.1,0,0,0.1,0
		c0.1-0.2,0.2-0.2,0.1-0.5c0-0.1-0.1,0-0.1-0.1c0.1,0,0.1-0.1,0-0.1c0.1-0.1,0.1-0.2,0.2-0.1c0-0.1,0-0.1,0,0c0-0.1,0-0.2,0.1-0.2
		c0-0.1,0-0.1,0.1-0.2c0.1,0,0.1,0,0,0c0.1,0,0.2,0,0.2,0c0,0,0,0,0,0.1c0.1,0,0.1,0,0.1,0c0,0,0,0.1,0,0.1c0,0,0,0,0,0c0,0,0,0,0,0
		c0,0,0.1,0,0.2,0c0,0.1,0.1,0.1,0.2,0.1c0,0,0,0,0,0.1c0,0,0.1,0,0.1,0c0.1,0,0.1,0,0.2,0c0,0-0.1,0-0.1,0c0,0,0,0.1,0,0.1
		c0,0,0.1,0.1,0.1,0.1c0,0,0,0,0.1,0c0.1,0.1,0.2,0.1,0.3,0.1c0,0,0-0.1,0-0.1c0.1,0,0.1,0.1,0.1,0.2c0.2-0.1,0.5,0.1,0.7,0.1
		c-0.1,0,0.1-0.1,0.1-0.1c0-0.2,0-0.3-0.1-0.4c-0.1,0-0.2-0.1-0.2-0.2c-0.1,0-0.2-0.1-0.4-0.1c0-0.1,0-0.1,0-0.1c0,0-0.1,0-0.2,0
		c0,0,0,0,0,0.1c-0.1,0-0.2,0-0.3-0.1l0,0c0,0,0,0,0,0c0,0,0,0,0,0c0,0,0,0,0,0c0,0,0,0,0,0c0,0,0,0,0,0c0,0,0,0,0-0.1
		c-0.1,0-0.1,0-0.1-0.1c-0.1-0.1-0.3-0.1-0.4-0.2c0,0,0,0,0.1,0c0-0.1,0.1-0.1,0.2-0.1c0,0,0,0,0,0.1c0,0-0.1,0-0.1,0
		c0,0,0,0.1,0,0.1c0,0,0,0,0,0c0,0,0,0,0,0c0,0,0,0,0,0c0,0,0,0.1,0.1,0c0,0,0,0,0,0c0,0,0.1,0,0.1,0c0,0,0,0,0,0c0,0,0-0.1,0-0.1
		c0.1-0.1,0.1-0.1,0.1-0.3c-0.1,0-0.1-0.1-0.2-0.2c0,0-0.1,0-0.1-0.1c0,0-0.1,0-0.1,0c0.1-0.1,0-0.1,0.1-0.2c0,0,0.1,0,0.1-0.1
		c0,0,0-0.1,0-0.1c0-0.1,0.1-0.1,0.2-0.1c0-0.1,0-0.1,0.1-0.2c0,0,0,0,0.1,0c0-0.1,0-0.1,0.1-0.1c0.1,0,0.2-0.1,0.3-0.1
		c0.1,0,0.2,0,0.3-0.1c0-0.1,0-0.3,0-0.4c-0.1-0.1-0.1-0.3-0.1-0.4c0,0,0.1,0,0.1,0c0-0.2,0.4-0.1,0.4-0.3
		C459.5,331.1,459.5,331.2,459.3,331.2z M450,337.8C450,337.8,450,337.8,450,337.8L450,337.8C450.1,337.7,450.1,337.7,450,337.8
		C450,337.8,450.1,337.8,450,337.8z M458.3,334.6C458.3,334.6,458.3,334.6,458.3,334.6C458.3,334.6,458.3,334.6,458.3,334.6z
		 M458.4,334.6C458.4,334.6,458.4,334.6,458.4,334.6C458.4,334.6,458.4,334.6,458.4,334.6C458.4,334.6,458.4,334.6,458.4,334.6z"/>
</g>
</svg>
