<?xml version="1.0" encoding="utf-8"?>
<!-- Generator: Adobe Illustrator 23.0.3, SVG Export Plug-In . SVG Version: 6.00 Build 0)  -->
<svg version="1.1" id="Layer_1" xmlns="http://www.w3.org/2000/svg" xmlns:xlink="http://www.w3.org/1999/xlink" x="0px" y="0px"
	 viewBox="0 0 624.8 455.9" style="enable-background:new 0 0 624.8 455.9;" xml:space="preserve">
<style type="text/css">
	.st0{fill:#FFFFFF;}
	.st1{fill:none;}
	.st2{fill:#DCE0F4;}
	.st3{fill:#81B7FB;}
	.st4{fill:#4D8BD7;}
	.st5{opacity:0.2;}
	.st6{clip-path:url(#SVGID_2_);}
	.st7{fill:#E9EBFB;}
	.st8{clip-path:url(#SVGID_4_);fill:#E0E2F5;}
	.st9{fill:#09ACF2;}
	.st10{fill:none;stroke:#FFFFFF;stroke-width:5;stroke-linecap:round;stroke-linejoin:round;stroke-miterlimit:10;}
	.st11{fill:none;stroke:#E4EAEF;stroke-width:14;stroke-linecap:round;stroke-miterlimit:10;}
	.st12{fill:#E4EAEF;}
	.st13{fill:#306FB4;}
	.st14{fill:none;stroke:#E4EAEF;stroke-width:3;stroke-linecap:round;stroke-linejoin:round;stroke-miterlimit:10;}
	.st15{fill:#FAFAFA;}
	.st16{fill:#880E4F;}
	.st17{fill:#F2BE9B;}
	.st18{fill:#21283A;}
	.st19{fill:#B0B0FF;}
	.st20{fill:url(#SVGID_5_);}
	.st21{fill:#F4F4F4;}
	.st22{fill:#3A3A3A;}
	.st23{fill:#E2E2E2;}
	.st24{fill:#F4D5B5;}
	.st25{fill:#632F00;}
	.st26{fill:#8C4200;}
	.st27{fill:#606060;}
	.st28{fill:#E5BB98;}
	.st29{fill:#232323;}
	.st30{fill:#EAEAEA;}
	.st31{fill:#CCCCDB;}
</style>
<path class="st0" d="M572.5,402.2"/>
<rect x="259.1" y="214.8" class="st1" width="80.4" height="20.4"/>
<rect x="209.2" y="214.8" class="st1" width="82.8" height="21"/>
<path class="st0" d="M572.5,403.2"/>
<path class="st2" d="M198.8,34.6c0,0-4.6-6-7.4-8.8c-5.1-5-10.9-13.8-29.5-7.3c-1.4,0.5-2.9,1.2-4.2,1.9c-1.6,0.8-6.7,0.8-11.9-3.9
	c-8.3-7.5-11.5-13.2-22.9-13.3c-13.2-0.2-15.3,18.6-25.5,23.4c-6.5,3.1-23.7,6.1-27.3,7.5L198.8,34.6z"/>
<path class="st2" d="M392.2,69.2c0,0,2.6-3,4.2-4.4c2.9-2.5,6.2-6.9,16.8-3.6c0.8,0.3,1.6,0.6,2.4,0.9c0.9,0.4,3.8,0.4,6.8-1.9
	c4.7-3.7,6.6-6.6,13-6.6c7.5-0.1,8.7,9.3,14.5,11.7c3.7,1.5,13.5,3,15.5,3.7L392.2,69.2z"/>
<rect x="243.2" y="211.2" class="st1" width="80.4" height="20.4"/>
<g>
	<path class="st0" d="M225.4,164.4h22c4,0,7.3-3.3,7.3-7.3v-22c0-4-3.3-7.3-7.3-7.3h-22c-4,0-7.3,3.3-7.3,7.3v22
		C218,161.1,221.4,164.4,225.4,164.4L225.4,164.4z M243.4,134.4c0.4-0.4,0.8-0.6,1.4-0.6c0.5,0,1,0.2,1.4,0.6
		c0.4,0.4,0.6,0.8,0.6,1.4c0,0.6-0.2,1-0.6,1.4c-0.4,0.4-0.8,0.5-1.4,0.5c-0.5,0-1-0.2-1.4-0.5c-0.4-0.4-0.5-0.8-0.5-1.4
		C242.9,135.3,243,134.8,243.4,134.4L243.4,134.4z M240.2,140.7c0-0.7,0.3-1.2,0.7-1.7c0.5-0.5,1.1-0.7,1.7-0.7h4.3
		c0.7,0,1.3,0.3,1.7,0.7c0.5,0.5,0.7,1.1,0.7,1.7v6c0,0.2-0.1,0.4-0.2,0.6c-0.2,0.2-0.3,0.2-0.6,0.2c-0.2,0-0.4-0.1-0.6-0.2
		c-0.2-0.2-0.2-0.4-0.2-0.6v-5.4h-0.5v14.9c0,0.3-0.1,0.6-0.3,0.8c-0.2,0.2-0.5,0.3-0.8,0.3c-0.3,0-0.6-0.1-0.8-0.3
		c-0.2-0.2-0.3-0.5-0.3-0.8v-8.6h-0.5v8.6c0,0.3-0.1,0.6-0.3,0.8c-0.2,0.2-0.5,0.3-0.8,0.3c-0.3,0-0.6-0.1-0.8-0.3
		c-0.2-0.2-0.4-0.5-0.4-0.8v-14.9h-0.4v5.4c0,0.2-0.1,0.4-0.2,0.6c-0.2,0.2-0.4,0.2-0.6,0.2c-0.2,0-0.4-0.1-0.6-0.2
		c-0.2-0.2-0.3-0.4-0.3-0.6V140.7z M236.2,132.3h1.9v27.5h-1.9V132.3z M227.4,134.4c0.4-0.4,0.9-0.6,1.4-0.6c0.5,0,1,0.2,1.3,0.6
		c0.4,0.4,0.5,0.8,0.5,1.4c0,0.6-0.2,1-0.5,1.4c-0.4,0.4-0.8,0.5-1.3,0.5c-0.6,0-1-0.2-1.4-0.5c-0.4-0.4-0.6-0.8-0.6-1.4
		C226.9,135.3,227.1,134.8,227.4,134.4L227.4,134.4z M223.4,145.7c0-0.1,0.1-0.3,0.2-0.7c0.1-0.4,0.2-0.8,0.4-1.4
		c0.2-0.5,0.3-1.1,0.5-1.8c0.2-0.6,0.4-1.3,0.6-1.8c0.1-0.5,0.4-0.9,0.8-1.2c0.4-0.4,0.9-0.5,1.3-0.5h3.1c0.5,0,0.9,0.2,1.3,0.5
		c0.4,0.4,0.7,0.8,0.9,1.2c0.2,0.6,0.4,1.2,0.5,1.8c0.2,0.6,0.4,1.2,0.5,1.8c0.2,0.5,0.3,1,0.4,1.4c0.1,0.4,0.2,0.6,0.2,0.7l0,0.2
		c0,0.4-0.2,0.6-0.5,0.7l-0.2,0.1c-0.4,0-0.6-0.2-0.8-0.6c0-0.1-0.1-0.5-0.3-1.1c-0.2-0.6-0.3-1.2-0.5-1.8c-0.2-0.6-0.4-1.4-0.7-2.4
		h-0.4l2.6,8.8h-2.5v6.7c0,0.3-0.1,0.5-0.3,0.6c-0.2,0.2-0.4,0.3-0.6,0.3c-0.3,0-0.5-0.1-0.7-0.3c-0.2-0.2-0.2-0.4-0.2-0.6v-6.7
		h-0.5v6.7c0,0.3-0.1,0.5-0.2,0.6c-0.2,0.2-0.4,0.3-0.6,0.3c-0.3,0-0.5-0.1-0.7-0.3c-0.2-0.2-0.3-0.4-0.3-0.6v-6.7h-2.5l2.6-8.8
		h-0.4c-0.3,1-0.5,1.8-0.7,2.4c-0.2,0.6-0.4,1.2-0.5,1.8c-0.2,0.6-0.3,0.9-0.3,1.1c-0.1,0.4-0.4,0.6-0.8,0.6l-0.2-0.1
		c-0.4-0.1-0.5-0.4-0.5-0.7C223.4,145.8,223.4,145.8,223.4,145.7L223.4,145.7z M223.4,145.7"/>
</g>
<g>
	<path class="st3" d="M541.8,136.7c-0.7,0-17.9-3.2-18.8-21c-0.9-17.8,10.1-21.6,7.2-41.5c-3-19.9-10.6-26,6.4-39.5
		c0,0,7.6-5.4,7.9-13.6c0.4-9.7,15.6-20.3,25.8-13.3c10.2,7,7.9,17-0.8,32.8c-8.7,15.8-0.2,19.1,1.5,24.4c1.7,5.3,5.6,11.1-3.3,23.2
		c-8.9,12.1,1.8,28-5.7,39.6C561.9,127.9,555.3,136.4,541.8,136.7z"/>
	<g>
		<path class="st4" d="M544.6,164c0.4-0.1,0.6-0.5,0.5-0.9c-9.5-54.7,9.1-127.6,9.3-128.3c0.1-0.4-0.1-0.9-0.5-1
			c-0.4-0.1-0.8,0.1-0.9,0.5c-0.2,0.7-18.9,74-9.4,129.1C543.8,163.8,544.2,164.1,544.6,164C544.6,164,544.6,164,544.6,164z"/>
		<path class="st4" d="M548.1,63.5c0,0,0.1,0,0.1,0c0.4-0.2,0.5-0.6,0.4-1c0-0.1-3.9-9.9-5.5-18.1c-0.1-0.4-0.5-0.7-0.9-0.7
			c-0.4,0.1-0.6,0.5-0.6,0.9c1.6,8.4,5.6,18.4,5.6,18.5C547.4,63.3,547.8,63.6,548.1,63.5z"/>
		<path class="st4" d="M545.7,79.7c0.1,0,0.2-0.1,0.3-0.1c3.6-3.2,12.8-9,12.9-9.1c0.3-0.2,0.4-0.7,0.2-1.1c-0.2-0.4-0.7-0.5-1-0.3
			c-0.4,0.2-9.4,6-13.1,9.2c-0.3,0.3-0.4,0.8-0.1,1.1C545.1,79.7,545.4,79.8,545.7,79.7z"/>
		<path class="st4" d="M543.7,95.6c0.1,0,0.1,0,0.2-0.1c0.4-0.2,0.5-0.7,0.3-1.1L539,83c-0.2-0.4-0.6-0.6-1-0.4
			c-0.4,0.2-0.5,0.7-0.3,1.1l5.2,11.5C543,95.5,543.4,95.7,543.7,95.6z"/>
	</g>
</g>
<g class="st5">
	<defs>
		<rect id="SVGID_1_" x="66.4" y="137.7" class="st5" width="566.1" height="316.7"/>
	</defs>
	<clipPath id="SVGID_2_">
		<use xlink:href="#SVGID_1_"  style="overflow:visible;"/>
	</clipPath>
	<g class="st6">
		<path class="st7" d="M270.5,211.8c-8,9.4-14.7,18.3-7.3,27.7c3.6,4.7,10.2,8.9,18.1,16c34.6,31.4-3.5,47.6-48.4,48.3
			c-44.9,0.7-137.2-2.7-148.8,72.6c-6.5,42.6,10.7,145,238.6,168c205.3,20.7,324.2-65.5,293.7-113c-30.5-47.6-65-67.7-47.3-89.6
			c26.6-32.8,45.7-36.6,50.2-83.9C631.3,134.8,360.1,106.8,270.5,211.8z"/>
		<g>
			<defs>
				<path id="SVGID_3_" d="M270.5,211.8c-8,9.4-14.7,18.3-7.3,27.7c3.6,4.7,10.2,8.9,18.1,16c34.6,31.4-3.5,47.6-48.4,48.3
					c-44.9,0.7-137.2-2.7-148.8,72.6c-6.5,42.6,10.7,145,238.6,168c205.3,20.7,324.2-65.5,293.7-113c-30.5-47.6-65-67.7-47.3-89.6
					c26.6-32.8,45.7-36.6,50.2-83.9C631.3,134.8,360.1,106.8,270.5,211.8z"/>
			</defs>
			<clipPath id="SVGID_4_">
				<use xlink:href="#SVGID_3_"  style="overflow:visible;"/>
			</clipPath>
			<path class="st8" d="M254.1,174.3c0,0,27.2,81.2,88.7,150.2c31.1,34.9,185,110.5,109.6,160.3C95.4,721.1,68.7,360.2,68.7,360.2
				l98.2-159.8L254.1,174.3z"/>
		</g>
	</g>
</g>
<g>
	<path class="st9" d="M156.8,105.1v262.7h159.1V105.1C315.9,105.1,239.6,22.5,156.8,105.1z"/>
	<path class="st10" d="M172.4,120.2v227.4H301V120.2C301,120.2,239.3,63.9,172.4,120.2z"/>
	<path class="st11" d="M151.4,100.2c0,0,75.3-69.3,168.2,0"/>
	<path class="st12" d="M319.6,380.5H153.4c-3.6,0-6.4-2.9-6.4-6.4V372c0-3.6,2.9-6.4,6.4-6.4h166.1c3.6,0,6.4,2.9,6.4,6.4v2.1
		C326,377.7,323.1,380.5,319.6,380.5z"/>
	<rect x="167.9" y="146.1" class="st13" width="8.3" height="22.1"/>
	<path class="st13" d="M265.6,303.9H206c-0.7,0-1.2-0.6-1.2-1.2v-1c0-0.7,0.6-1.2,1.2-1.2h59.6c0.7,0,1.2,0.6,1.2,1.2v1
		C266.8,303.3,266.3,303.9,265.6,303.9z"/>
	<path class="st13" d="M265.6,313.2H206c-0.7,0-1.2-0.6-1.2-1.2v-1c0-0.7,0.6-1.2,1.2-1.2h59.6c0.7,0,1.2,0.6,1.2,1.2v1
		C266.8,312.7,266.3,313.2,265.6,313.2z"/>
	<path class="st13" d="M265.6,322.6H206c-0.7,0-1.2-0.6-1.2-1.2v-1c0-0.7,0.6-1.2,1.2-1.2h59.6c0.7,0,1.2,0.6,1.2,1.2v1
		C266.8,322,266.3,322.6,265.6,322.6z"/>
	<rect x="167.9" y="304.6" class="st13" width="8.3" height="22.1"/>
	<polyline class="st14" points="282.4,211.2 285.4,214.1 285.4,228.3 282.8,230.9 	"/>
</g>
<g>
	<g>
		<path class="st15" d="M471.4,175.8c0.1,3,2.6,5.4,5.6,5.4s5.5-2.4,5.6-5.4H471.4z"/>
		<path class="st15" d="M480.7,194.2c-1-0.9-2.3-1.4-3.8-1.4s-2.8,0.5-3.8,1.4H480.7z"/>
		<path class="st16" d="M472.5,177c0.6,1.9,2.4,3.3,4.5,3.3c2.1,0,3.9-1.4,4.5-3.3H472.5z"/>
	</g>
	<rect x="476.6" y="180.9" class="st15" width="0.8" height="12.5"/>
</g>
<path class="st17" d="M479.2,356.3l2.7,25.5c0.2,1.6-0.6,3.2-2.1,4c-4.7,2.6-14.6,8.4-14.3,9.6c0.4,1.7,19.8,1.3,25.7-2.5
	c5.9-3.8,0.2-6.5,0-13.3c-0.2-6.7,0.2-23.4,0.2-23.4H479.2z"/>
<path class="st18" d="M491.7,392.9c4.6-3,2.3-5.3,0.8-9.3l-7.6,3.1c-0.9-0.9-2.3-1.6-3.6-2.1c-0.3,0.4-0.7,0.8-1.2,1.1
	c-4.7,2.7-14.8,8.5-14.5,9.8C466.1,397.1,485.7,396.7,491.7,392.9z"/>
<path class="st17" d="M519.9,354.8l12.2,22.5c0.8,1.4,0.6,3.2-0.4,4.5c-3.3,4.2-10.3,13.3-9.5,14.4c1,1.4,18.8-6.4,22.8-12.2
	c4-5.8-2.3-6.1-5.1-12.3c-2.8-6.1-8.7-21.7-8.7-21.7L519.9,354.8z"/>
<path class="st17" d="M519.9,354.8l7.5,13.8l11.6,1c-3-7-7.8-19.5-7.8-19.5L519.9,354.8z"/>
<path class="st17" d="M479.2,356.3l0.9,8.3l11.2,1c0.1-5,0.2-9.2,0.2-9.2H479.2z"/>
<path class="st18" d="M545,384.1c3.1-4.4,0.1-5.7-2.8-8.8l-5.7,5.7c-1.2-0.5-2.7-0.6-4.1-0.6c-0.1,0.5-0.3,1-0.7,1.5
	c-3.3,4.2-10.3,13.3-9.5,14.4C523.3,397.6,541,389.8,545,384.1z"/>
<path class="st19" d="M494,239.6h27.5c0,0,6.8,7.4,5.5,21.1c-1.3,13.7-0.8,36.6,2.9,43.8s6.7,12.2,6.1,18.5
	c-0.6,6.3,9.5,10.7,9.3,20.4c-0.1,4.6,1.2,8.2,2.8,10.8c1.6,2.7-0.2,6.1-3.3,6.1h-67.3l-2.9-40.2c-0.6-8.4,0.1-16.8,2.2-25
	C481.1,278.3,488.7,249.6,494,239.6z"/>
<path class="st5" d="M527,290.8c-0.9-9.6-0.8-21.7,0-30.2c1.3-13.7-5.5-21.1-5.5-21.1H494c-1.3,2.5-2.8,6.2-4.3,10.5
	C492.4,261.8,500.9,284.2,527,290.8z"/>
<path class="st17" d="M492,190.5c-3.5,2.6-23.1,20.9-23.1,20.9l4.4-20.2l-5.3-0.7c0,0-16,27.4-5.9,31.6
	c10.1,4.1,29.2-17.2,29.2-17.2S496.8,196.8,492,190.5z"/>
<path class="st17" d="M472.2,196.2l1.1-5.1l-5.3-0.7c0,0-2.3,3.9-4.6,9C467.8,199.5,470.8,197.5,472.2,196.2z"/>
<path class="st17" d="M490.9,164.8l-0.6,2.3l1.8,0.3c0,0-1.6,12.4,9.8,11.3v9.6l10.7-0.9l-2-28.4l-16.3-12.1
	C494.3,146.8,484.9,155.3,490.9,164.8z"/>
<path class="st5" d="M497.9,178.4c1.1,0.3,2.4,0.4,4,0.3v9.6l10.7-0.9l-1.1-14.8C505.3,177.4,499.6,178.6,497.9,178.4z"/>
<linearGradient id="SVGID_5_" gradientUnits="userSpaceOnUse" x1="506.3257" y1="232.5751" x2="506.3257" y2="198.5214">
	<stop  offset="0" style="stop-color:#3C57AB"/>
	<stop  offset="1" style="stop-color:#6582DB"/>
</linearGradient>
<path class="st20" d="M524.2,208.4l-3-19.3c0,0-1-0.1-2.7-0.2c-1.5-0.1-2.7-1.3-2.7-2.8l0,0c0-1.1-0.9-2-2-2h-14.7c-1.1,0-2,0.9-2,2
	v0.7c0,1.3-0.8,2.4-2.1,2.8l-3,0.9c0,0-0.1,5.8-1.7,9.1c-1.5,3.4-3.2,7.6,0,11.9c3.2,4.4,4.2,14.7,1.8,23.4
	c-2.4,8.7-0.3,7.9,7.3,7.9c7.6,0,14.7,0,19.2,0c4.5,0,6.2-1.7,5.2-8.8S523.2,213.8,524.2,208.4z"/>
<path class="st17" d="M468.3,182.5c2-3.4,5.5-2.1,7.3-1.4c1.8,0.7,2.8,5.3,2.1,6.5c-0.7,1.1-1.3,0-1.3,0s-0.3,5.5-4.9,5.5
	C466.8,193.1,466,186.3,468.3,182.5z"/>
<path class="st18" d="M493.1,152.1c0,0,0.8,8.6,12.5,11.4l1.8,39.4c0.1,1.6,2.1,2.1,2.9,0.7c0.8-1.4,1.7-3.2,2.6-5.6
	c3.1-7.6,8.6-3.4,8.6-12.2c0-8.8,1.5-43-18.8-43c-20.4,0-21.1,20.7-11.8,21.9C490.9,164.8,490.6,157.9,493.1,152.1z"/>
<g>
	<g>
		<path class="st15" d="M421.4,218.8c0.1,3,2.6,5.4,5.6,5.4s5.5-2.4,5.6-5.4H421.4z"/>
		<path class="st15" d="M430.7,237.2c-1-0.9-2.3-1.4-3.8-1.4s-2.8,0.5-3.8,1.4H430.7z"/>
		<path class="st16" d="M422.5,220c0.6,1.9,2.4,3.3,4.5,3.3c2.1,0,3.9-1.4,4.5-3.3H422.5z"/>
	</g>
	<rect x="426.6" y="223.9" class="st15" width="0.8" height="12.5"/>
</g>
<g>
	<path class="st21" d="M385.7,179.8c5.5,2.4,15,26.6,16.1,26.9c1.1,0.3,22.5,19.6,22.5,19.6l-3.4,3.5c0,0-21.7-12.1-27.9-17.4
		c-4.4-3.7-12.7-20.4-12.7-20.4S380.1,177.4,385.7,179.8z"/>
	<path class="st17" d="M426.5,234.8c-4.5-2.2-9.2-4.4-6.4-6.9c2.9-2.6,2.6-2.4,6-1C429.6,228.3,430.3,236.7,426.5,234.8z"/>
	<path class="st21" d="M360.2,220.8c1.5,3.4,1.8,7.2,0.9,10.8c-1.8,7.2,0.2,7.7,0.2,7.7s10.7,6.2,19.6,8.7
		c6.4,1.8,11.8,1.5,11.7-4.9l0-0.1c0-0.4,0-0.8,0-1.1c-0.3-14.4,3-15.1,3.8-31.2c0.8-16.5-4-25.7-8.8-29.7c-4.8-4-11.4-4.1-23.8-1.5
		c-9.3,2-12.4,4.2-12.3,10.5c0,2.1,0.4,4.6,1,7.7C354,205.5,357.7,215,360.2,220.8z"/>
	<path class="st22" d="M382.6,185.4c0,0,9.6,28.7,7.7,42.5l-3.6,5.9l-3.9-6.4c0,0,3.2-27.5-2.9-41.5L382.6,185.4z"/>
	<path class="st23" d="M360.2,220.8c1.5,3.4,1.8,7.2,0.9,10.8c-1.8,7.2,0.2,7.7,0.2,7.7s10.7,6.2,19.6,8.7l8.3-0.7l3.3-2.4l0-1.9
		c0-0.4,0-0.8,0-1.1c-1.9,0.2-6.2,0.4-12.5-0.3c-4.9-0.5-9.3-1.8-12.3-2.8c-2.2-0.7-3.4-2.8-3-4.8c0.5-2.8,1.2-6.9,1.2-10
		c0-3.2-1.6-8.5-3-12.4c-1-3-1.3-6.1-1.1-9.2c0.4-5.3,0-10.4,0-10.4l-6.6-3.2l-3.7,1.2c0,2.1,0.4,4.6,1,7.7
		C354,205.5,357.7,215,360.2,220.8z"/>
	<path class="st24" d="M360,251.4c-0.8,0.1-2.7-3-2.7-3l0.8-1c0.5-0.6,1.1-1,1.8-1.2l0.1,0c0.7-0.2,1.4,0,1.8,0.5
		c0.6,0.8,1.4,1.6,2.4,1.6h0c0,0,0.1,0,0.1,0C365.3,248.3,360.8,251.2,360,251.4z"/>
	<path class="st25" d="M390.1,151.4c0,0,0.8,2.1-0.4,3.8l-5.1-6.3l3.6,0L390.1,151.4z"/>
	<path class="st17" d="M362.4,159.7c0.2,8.1,7.9,12.8,7.9,12.8l-0.5,7.4l5.2,3.1l3.6,2.1l2-3.9l0.3-4.8c0.1-1.1,0.9-2,2.1-2.3
		c1.3-0.3,3.2-1,5.1-2.8c0.1-0.1,0.2-0.2,0.3-0.4c0,0,0,0,0,0c3.4-4.2,4.6-20.2-6.9-24.7C369.6,141.5,362.1,151.5,362.4,159.7z"/>
	<path class="st17" d="M375.3,178.5l-0.3,4.4l3.6,2.1l2-3.9l0.3-4.8c0.1-1.1,0.9-2,2.1-2.3c1.3-0.3,3.2-1,5.1-2.8
		c0.1-0.1,0.2-0.2,0.3-0.4c-0.2,0.1-3,1.6-7.3,2C377.9,173.3,375.5,175.6,375.3,178.5z"/>
	<path class="st26" d="M374.8,162.2c-0.5,0.2-0.9-0.5-0.9-0.5s-2.5-5.1-3.4-5.9c-1.5-1.4-5.2-1.3-5.4,3.1
		c-0.2,3.4,4.2,10.6,5.5,12.7c0.2,0.3,0.1,0.8-0.2,1c-0.1,0.1-0.3,0.1-0.5,0.2h-0.1c-0.2,0-0.4-0.1-0.6-0.2
		c-2.8-2.3-15.4-13.2-5.4-23.5c0,0,7.9,0.5,9.1,3.9c1.2,3.5,2.1,8.2,2.1,8.2S375.3,162,374.8,162.2z"/>
	<path class="st26" d="M390.1,151.4c0,0-6.9-4.9-17.4,1.1l-8.6-2c0,0-0.4-0.1-0.2-1.3c0.2-1.2,1.1-12.7,16.2-10.1
		C388.7,140.5,394,146,390.1,151.4z"/>
	<path class="st27" d="M383.3,183l-0.1,0.4c-0.1,0.7-0.3,1.4-0.6,2.1l0,0l-2.6,0.5l-2.3-1.5l2.6-2.8l0.4,0.1
		C381.7,181.9,382.5,182.4,383.3,183L383.3,183z"/>
	<path class="st23" d="M369.8,176.4c0,0-1.3,0.6-2.5,2.3c0,0,1.7,0.7,3.2,1.5c1.4,0.8,7.9,5,7.9,5l1.9-3.6
		C380.3,181.6,373.5,177.3,369.8,176.4z"/>
	<path class="st23" d="M380.3,181.6c0,0,2.3,0.7,3,2.3c0,0,1.2-2-0.3-5.7c0,0-1.3-1.1-2.2-1.5L380.3,181.6z"/>
	<path class="st28" d="M362.2,246.3c0,0,1.2,1.4,1.6,1.6c0.4,0.2,0.4-0.2,0.3-0.5C363.9,247.1,362.2,245.9,362.2,246.3z"/>
	<path class="st25" d="M369.9,172.8L369.9,172.8c-0.3,0-0.5-0.1-0.6-0.2c-2.8-2.3-15.4-13.2-5.4-23.5c0,0-0.5,1.8-0.3,3.3
		C363.6,152.4,357.2,161.8,369.9,172.8z"/>
	<path class="st29" d="M355.7,381.1c0.5,1.9,0.3,2.6,0.6,3.8c0.3,1.5,1.8,2.1,2.7,3.4c1,1.4,2.5,3.6-3.5,3.7
		c-6.5,0.1-10.3-0.3-9.2-3.6c1.1-3.3,1.3-4.8,1.2-5.9c-0.1-1.1,0-2.2,0.7-2.9C348.9,378.9,354.7,377.7,355.7,381.1z"/>
	<path class="st22" d="M357,274.9c0,0-10.3-14.9,4.3-35.6c0,0,11.3,4.6,20.4,5.2c7.2,0.4,10.8-0.2,10.8-0.2s0.6,19.9,0.6,30.7H357z"
		/>
	<g>
		<g>
			<path class="st22" d="M364,318.2c2.8-10.8-8.8-12.7-12.5-4.9c-5.2,11-4.8,59.4-4.5,66.4c0,0.9,0.6,0.7,1.1,0.6
				c1.7-0.5,3-0.8,3.7-0.6c1.3,0.2,3.8,1.4,3.8,1.4C356.7,371.5,361.2,328.6,364,318.2z"/>
			<path class="st22" d="M374.4,276.4c1.2-13.4-4.4-23.7-13.2-19.3c-3.7,1.9-5,5.6-5.5,9.1c-0.5,3.5-3.2,39.9-4.2,46.4
				c-2.1,14.8,10.2,10.8,11.6,6.7C366.5,308.9,373.7,283.6,374.4,276.4z"/>
		</g>
	</g>
	<path class="st22" d="M395.1,317.5c0.5-10-8.8-9.4-12.5-1.7c-8,16.8,0.1,52.7,1.7,69.6c1.8-2.7,5.2-3.6,6-3.6c1.3,0.1,2,1,2,1
		C392.1,362.1,394.6,328.2,395.1,317.5z"/>
	<path class="st22" d="M383,318.6c1.4,4.1,13.2,8.8,12-6.1c-0.5-6.6-2-43.1-2.3-46.6c-0.3-3.5-0.9-8.7-2.8-9.3
		c-9.3-3.2-18.4,7.3-16,20.5C375.6,285.9,380.2,310.1,383,318.6z"/>
	<path class="st29" d="M392.3,383.1c0.5,0.9,2.8,2.9,6.1,4.2c3.3,1.3,10.1,1.9,6.3,3.1c-3.8,1.2-8.3,0.5-10.6,0.1
		c-2.3-0.3-4.5-0.4-7.1-0.4c-3.5,0-3.5-0.2-3.1-3.8C384.6,381.4,390.7,380.3,392.3,383.1z"/>
	<path class="st17" d="M359.4,243.3l1.8,2.3c0,0,3.2-0.5,4.8,2.3c1.5,2.7-3.9,6.1-5.4,4.9c-1.5-1.3-4.9-7.1-4.9-7.1L359.4,243.3z"/>
	<path class="st21" d="M345.9,236c4.9,4.5,10,10.8,10,10.8l0.9-0.6l3.6-2.2c0,0-7.3-14-9.4-20.8c-1-3.3-2.7-6-4.3-7.9
		c0.1-0.1,0.3-0.2,0.4-0.4c5.3-5.1,9.4-11.8,12.6-15.8c1.5-2,2.6-4.2,3-6.5c0.3-1.6,0.3-3.2,0.1-4.8c-0.4-2.5-1.6-4.9-4.3-5.5
		c-1-0.2-2.1-0.1-3,0.2c-1,0.4-1.9,1.1-2.6,2c-4.1,6.1-15.9,22.6-17.7,26.6c-0.3,0.7-0.5,1.4-0.6,2.1c-0.1,0.2-0.1,0.5-0.1,0.7
		C333.7,220.5,341,231.5,345.9,236z"/>
	<path class="st30" d="M345.9,236c4.9,4.5,10,10.8,10,10.8l0.9-0.6c0,0-5.4-6.8-7.9-9.6c-3.9-4.2-6.6-7.5-8.9-11.4
		c-2.3-3.9-3.4-11.4-2.2-13.5c1.2-2.1,8.1-11.4,9.5-13.2c1.5-1.8,13.5-12.7,10-15.7c-0.6-0.5-1.3-0.5-1.9-0.4c-1,0.4-1.9,1.1-2.6,2
		c-4.1,6.1-15.9,22.6-17.7,26.6c-0.3,0.7-0.5,1.4-0.6,2.1c-0.1,0.2-0.1,0.5-0.1,0.7C333.7,220.5,341,231.5,345.9,236z"/>
	<path class="st22" d="M365.1,245.8c0,0-1.7,5.3-9,8.4c-6.3,2.6,10.1,4.1,10.5,3.6s3.5-10.3,3.5-10.3L365.1,245.8z"/>
</g>
<g>
	<path class="st0" d="M538.2,265.3H510c-1,0-1.7-0.9-1.5-1.8l3.8-18.7c0.1-0.7,0.8-1.2,1.5-1.2H542c1,0,1.7,0.9,1.5,1.8l-3.8,18.7
		C539.5,264.8,538.9,265.3,538.2,265.3z"/>
	<path class="st31" d="M543.5,244.9c0.2-0.9-0.6-1.8-1.5-1.8h-28c-0.7,0-1.3,0.5-1.5,1.2l-0.8,3.5l15.7,5.4l15.1-3.3"/>
</g>
<path class="st17" d="M519.4,189.1c6.7-3.3,22,25.1,22,38.1c0,13.1-13.1,33.3-13.1,33.3s0.1,2.9-1.6,5c-1.8,2.1-7.3,2.9-8,1.4
	c-0.6-1.6,0-3.5,0-3.5s-3.2,2.7-3.8,2.1c-0.6-0.6,1.7-5.5,8.6-8.6l9.4-28.4c0,0-10.1-20.7-12.5-26.8
	C518.1,195.5,515.5,191,519.4,189.1z"/>
<path class="st0" d="M388.6,166.5l-5.6,0.6c0,0,0.5,2.4,3.5,1.9C388.9,168.6,388.6,166.5,388.6,166.5z"/>
</svg>
