<?xml version="1.0" encoding="utf-8"?>
<!-- Generator: Adobe Illustrator 23.0.3, SVG Export Plug-In . SVG Version: 6.00 Build 0)  -->
<svg version="1.1" id="Layer_1" xmlns="http://www.w3.org/2000/svg" xmlns:xlink="http://www.w3.org/1999/xlink" x="0px" y="0px"
	 viewBox="0 0 624.8 455.9" style="enable-background:new 0 0 624.8 455.9;" xml:space="preserve">
<style type="text/css">
	.st0{fill:none;}
	.st1{opacity:0.2;}
	.st2{clip-path:url(#SVGID_2_);}
	.st3{fill:#E9EBFB;}
	.st4{clip-path:url(#SVGID_4_);fill:#E0E2F5;}
	.st5{fill:#DCE0F4;}
	.st6{fill:#09ACF2;}
	.st7{fill:none;stroke:#FFFFFF;stroke-width:5;stroke-linecap:round;stroke-linejoin:round;stroke-miterlimit:10;}
	.st8{fill:none;stroke:#E4EAEF;stroke-width:14;stroke-linecap:round;stroke-miterlimit:10;}
	.st9{fill:#E4EAEF;}
	.st10{fill:#306FB4;}
	.st11{fill:none;stroke:#E4EAEF;stroke-width:3;stroke-linecap:round;stroke-linejoin:round;stroke-miterlimit:10;}
	.st12{fill:#FFFFFF;}
	.st13{fill-rule:evenodd;clip-rule:evenodd;fill:#256193;}
	.st14{fill:#63A5E0;}
	.st15{fill:#81B7FB;}
	.st16{opacity:0.7;}
	.st17{fill:#4D8BD7;}
	.st18{fill:#2C1E56;}
	.st19{fill:#ED9C80;}
	.st20{fill:#201D93;}
	.st21{fill:#2D24A3;}
	.st22{fill:#F4AA4A;}
	.st23{fill:#FFC064;}
</style>
<rect x="259.1" y="213.5" class="st0" width="80.4" height="20.4"/>
<g class="st1">
	<defs>
		<rect id="SVGID_1_" x="64.4" y="141.6" class="st1" width="560.3" height="313.4"/>
	</defs>
	<clipPath id="SVGID_2_">
		<use xlink:href="#SVGID_1_"  style="overflow:visible;"/>
	</clipPath>
	<g class="st2">
		<path class="st3" d="M266.4,214.9c-7.9,9.3-14.5,18.1-7.2,27.4c3.6,4.6,10.1,8.8,17.9,15.9c34.3,31.1-3.5,47.1-47.9,47.8
			c-44.4,0.7-135.8-2.7-147.2,71.9C75.5,420,92.6,521.5,318.1,544.2c203.2,20.5,320.9-64.8,290.7-111.9
			c-30.2-47.1-64.3-67-46.8-88.6c26.3-32.5,45.2-36.3,49.7-83.1C623.5,138.8,355.1,111,266.4,214.9z"/>
		<g>
			<defs>
				<path id="SVGID_3_" d="M266.4,214.9c-7.9,9.3-14.5,18.1-7.2,27.4c3.6,4.6,10.1,8.8,17.9,15.9c34.3,31.1-3.5,47.1-47.9,47.8
					c-44.4,0.7-135.8-2.7-147.2,71.9C75.5,420,92.6,521.5,318.1,544.2c203.2,20.5,320.9-64.8,290.7-111.9
					c-30.2-47.1-64.3-67-46.8-88.6c26.3-32.5,45.2-36.3,49.7-83.1C623.5,138.8,355.1,111,266.4,214.9z"/>
			</defs>
			<clipPath id="SVGID_4_">
				<use xlink:href="#SVGID_3_"  style="overflow:visible;"/>
			</clipPath>
			<path class="st4" d="M250.2,177.9c0,0,26.9,80.4,87.8,148.7c30.8,34.5,183.1,109.3,108.5,158.7C93.1,719.1,66.7,361.9,66.7,361.9
				l97.2-158.2L250.2,177.9z"/>
		</g>
	</g>
</g>
<rect x="209.3" y="213.5" class="st0" width="82.8" height="21"/>
<path class="st5" d="M138.8,39.3c0,0-4.6-6-7.4-8.8c-5.1-5-10.9-13.8-29.5-7.3c-1.4,0.5-2.9,1.2-4.2,1.9c-1.6,0.8-6.7,0.8-11.9-3.9
	C77.4,13.6,74.2,7.9,62.8,7.8C49.6,7.6,47.6,26.4,37.3,31.2c-6.5,3.1-23.7,6.1-27.3,7.5L138.8,39.3z"/>
<path class="st5" d="M336.2,58.2c0,0,2.3-2.6,3.6-3.8c2.5-2.1,5.3-5.9,14.4-3.1c0.7,0.2,1.4,0.5,2.1,0.8c0.8,0.3,3.3,0.3,5.8-1.7
	c4.1-3.2,5.6-5.6,11.2-5.7c6.5-0.1,7.5,8,12.5,10c3.2,1.3,11.6,2.6,13.4,3.2L336.2,58.2z"/>
<rect x="243.2" y="209.9" class="st0" width="80.4" height="20.4"/>
<path class="st6" d="M156.8,103.8v262.7H316V103.8C316,103.8,239.6,21.2,156.8,103.8z"/>
<path class="st7" d="M172.4,118.9v227.4H301V118.9C301,118.9,239.3,62.6,172.4,118.9z"/>
<path class="st8" d="M151.4,98.9c0,0,75.3-69.3,168.2,0"/>
<path class="st9" d="M319.6,379.2H153.5c-3.6,0-6.4-2.9-6.4-6.4v-2.1c0-3.6,2.9-6.4,6.4-6.4h166.1c3.6,0,6.4,2.9,6.4,6.4v2.1
	C326,376.4,323.1,379.2,319.6,379.2z"/>
<rect x="167.9" y="144.8" class="st10" width="8.3" height="22.1"/>
<path class="st10" d="M265.6,302.6H206c-0.7,0-1.2-0.6-1.2-1.2v-1c0-0.7,0.6-1.2,1.2-1.2h59.6c0.7,0,1.2,0.6,1.2,1.2v1
	C266.9,302.1,266.3,302.6,265.6,302.6z"/>
<path class="st10" d="M265.6,311.9H206c-0.7,0-1.2-0.6-1.2-1.2v-1c0-0.7,0.6-1.2,1.2-1.2h59.6c0.7,0,1.2,0.6,1.2,1.2v1
	C266.9,311.4,266.3,311.9,265.6,311.9z"/>
<path class="st10" d="M265.6,321.3H206c-0.7,0-1.2-0.6-1.2-1.2v-1c0-0.7,0.6-1.2,1.2-1.2h59.6c0.7,0,1.2,0.6,1.2,1.2v1
	C266.9,320.7,266.3,321.3,265.6,321.3z"/>
<rect x="167.9" y="303.3" class="st10" width="8.3" height="22.1"/>
<polyline class="st11" points="282.4,209.9 285.4,212.9 285.4,227 282.8,229.6 "/>
<g>
	<path class="st12" d="M225.4,163.1h22c4,0,7.3-3.3,7.3-7.3v-22c0-4-3.3-7.3-7.3-7.3h-22c-4,0-7.3,3.3-7.3,7.3v22
		C218.1,159.8,221.4,163.1,225.4,163.1L225.4,163.1z M243.4,133.1c0.4-0.4,0.8-0.6,1.4-0.6c0.5,0,1,0.2,1.4,0.6
		c0.4,0.4,0.6,0.8,0.6,1.4c0,0.6-0.2,1-0.6,1.4c-0.4,0.4-0.8,0.5-1.4,0.5c-0.5,0-1-0.2-1.4-0.5c-0.4-0.4-0.5-0.8-0.5-1.4
		C242.9,134,243.1,133.5,243.4,133.1L243.4,133.1z M240.2,139.4c0-0.7,0.3-1.2,0.7-1.7c0.5-0.5,1.1-0.7,1.7-0.7h4.3
		c0.7,0,1.3,0.3,1.7,0.7c0.5,0.5,0.7,1.1,0.7,1.7v6c0,0.2-0.1,0.4-0.2,0.6c-0.2,0.2-0.3,0.2-0.6,0.2c-0.2,0-0.4-0.1-0.6-0.2
		c-0.2-0.2-0.2-0.4-0.2-0.6V140h-0.5v14.9c0,0.3-0.1,0.6-0.3,0.8c-0.2,0.2-0.5,0.3-0.8,0.3c-0.3,0-0.6-0.1-0.8-0.3
		c-0.2-0.2-0.3-0.5-0.3-0.8v-8.6h-0.5v8.6c0,0.3-0.1,0.6-0.3,0.8c-0.2,0.2-0.5,0.3-0.8,0.3c-0.3,0-0.6-0.1-0.8-0.3
		c-0.2-0.2-0.4-0.5-0.4-0.8V140h-0.4v5.4c0,0.2-0.1,0.4-0.2,0.6c-0.2,0.2-0.4,0.2-0.6,0.2c-0.2,0-0.4-0.1-0.6-0.2
		c-0.2-0.2-0.3-0.4-0.3-0.6V139.4z M236.3,131h1.9v27.5h-1.9V131z M227.5,133.1c0.4-0.4,0.9-0.6,1.4-0.6c0.5,0,1,0.2,1.3,0.6
		c0.4,0.4,0.5,0.8,0.5,1.4c0,0.6-0.2,1-0.5,1.4c-0.4,0.4-0.8,0.5-1.3,0.5c-0.6,0-1-0.2-1.4-0.5c-0.4-0.4-0.6-0.8-0.6-1.4
		C226.9,134,227.1,133.5,227.5,133.1L227.5,133.1z M223.5,144.4c0-0.1,0.1-0.3,0.2-0.7c0.1-0.4,0.2-0.8,0.4-1.4
		c0.2-0.5,0.3-1.1,0.5-1.8c0.2-0.6,0.4-1.3,0.6-1.8c0.1-0.5,0.4-0.9,0.8-1.2c0.4-0.4,0.9-0.5,1.3-0.5h3.1c0.5,0,0.9,0.2,1.3,0.5
		c0.4,0.4,0.7,0.8,0.9,1.2c0.2,0.6,0.4,1.2,0.5,1.8c0.2,0.6,0.4,1.2,0.5,1.8c0.2,0.5,0.3,1,0.4,1.4c0.1,0.4,0.2,0.6,0.2,0.7l0,0.2
		c0,0.4-0.2,0.6-0.5,0.7l-0.2,0.1c-0.4,0-0.6-0.2-0.8-0.6c0-0.1-0.1-0.5-0.3-1.1c-0.2-0.6-0.3-1.2-0.5-1.8c-0.2-0.6-0.4-1.4-0.7-2.4
		h-0.4l2.6,8.8h-2.5v6.7c0,0.3-0.1,0.5-0.3,0.6c-0.2,0.2-0.4,0.3-0.6,0.3c-0.3,0-0.5-0.1-0.7-0.3c-0.2-0.2-0.2-0.4-0.2-0.6v-6.7
		h-0.5v6.7c0,0.3-0.1,0.5-0.2,0.6c-0.2,0.2-0.4,0.3-0.6,0.3c-0.3,0-0.5-0.1-0.7-0.3c-0.2-0.2-0.3-0.4-0.3-0.6v-6.7h-2.5l2.6-8.8
		h-0.4c-0.3,1-0.5,1.8-0.7,2.4c-0.2,0.6-0.4,1.2-0.5,1.8c-0.2,0.6-0.3,0.9-0.3,1.1c-0.1,0.4-0.4,0.6-0.8,0.6l-0.2-0.1
		c-0.4-0.1-0.5-0.4-0.5-0.7C223.4,144.5,223.4,144.5,223.5,144.4L223.5,144.4z M223.5,144.4"/>
</g>
<g>
	<g>
		<g>
			<path class="st13" d="M505,216.8c0,0,2.2,2.1,4.5,3.2C509.5,220,509,218.6,505,216.8z"/>
			<path class="st13" d="M504.6,213.4c0,0,4.4,4.1,9,6.4C513.6,219.8,512.5,217.1,504.6,213.4z"/>
			<path class="st13" d="M510.3,214.6c0,0,3.6,3.4,7.4,5.2C517.6,219.8,516.7,217.6,510.3,214.6z"/>
			<path class="st13" d="M527.6,213.9c0,0-4.1,3.9-8.5,6C519.1,219.9,520.1,217.4,527.6,213.9z"/>
			<path class="st13" d="M527.3,216.8c0,0-2.2,2.1-4.5,3.2C522.8,220,523.3,218.6,527.3,216.8z"/>
		</g>
		<path class="st13" d="M530.6,216.8c0,0-2.2,2.1-4.5,3.2C526.1,220,526.7,218.6,530.6,216.8z"/>
	</g>
	<path class="st14" d="M522.3,202.7c0.2,0.3,0.3,0.6,0.3,0.7c0-0.6-0.1-1.2-0.3-1.8c-0.1-4.9,0.1-9.7,0.5-14.5
		c0.1-1,0.2-1.9,0.3-2.9c1.8-1.4,6.6-3.4,7.7-4.2c2.4-1.7,5.5-3.8,7.2-6.2c0.7-1,2.1-4.3,0.6-5.2c-1.8-1.1-5.5,3.4-6.4,4.5
		c-2,2.4-3.6,5.2-5.9,7.4c-1,1-2.2,1.9-3.1,3.1c0.6-4.3,1.4-8.6,2.5-12.8c1.7-1.4,6.7-3.4,7.8-4.3c2.4-1.7,5.5-3.8,7.2-6.2
		c0.7-1,2.1-4.3,0.6-5.2c-1.8-1.1-5.5,3.4-6.4,4.5c-2,2.4-3.6,5.2-5.9,7.4c-1,1-2.2,1.9-3,3c1.2-4.4,2.6-8.8,4.4-13
		c1.2-2.9,2.6-5.7,4.1-8.5c2.4-0.6,5.8-1.1,6.9-1.5c2.8-1,6.3-2.2,8.6-4.1c0.9-0.8,3.2-3.5,1.9-4.9c-1.4-1.5-6.2,1.8-7.4,2.6
		c-2.6,1.8-4.9,4.1-7.7,5.6c-0.5,0.3-1,0.5-1.5,0.8c2.1-3.7,4.5-7.2,7.1-10.6c1.1-0.1,2.1-0.4,3.2-0.5c2.7-0.5,5.4-0.2,8.1-0.4
		c1.2-0.1,6.2-0.5,6.3-2.2c0.1-1.5-2.9-2.2-3.9-2.2c-2.6-0.1-5.5,1-7.9,1.9c-0.9,0.3-3.1,1.6-5,2.5c1.3-1.6,2.5-3.1,3.9-4.6
		c2.2-2.3,4.4-4.6,6.8-6.7c1.3,0,2.6-0.3,4-0.6c2.7-0.5,5.4-0.2,8.1-0.4c1.2-0.1,6.2-0.5,6.3-2.2c0.1-1.5-2.9-2.2-3.9-2.2
		c-2.6-0.1-5.5,1-7.9,1.9c-1,0.3-3.9,2.1-5.9,2.9c3.2-2.8,6.6-5.3,10.2-7.6c1.1-0.1,2.3-0.4,3.4-0.6c2.7-0.5,5.4-0.3,8.1-0.5
		c1.2-0.1,6.2-0.6,6.3-2.3c0.1-1.6-2.9-2.1-4-2.1c-2.6,0-5.5,1.2-7.9,2c-0.3,0.1-0.8,0.4-1.4,0.7c-2,0.8-4,1.8-5.9,2.8
		c-0.1,0-0.1,0-0.2,0c0.1,0,0.1,0,0.2,0c-2.6,1.4-5.2,3-7.6,4.7c0.6-0.9,1-1.9,1.5-2.9c1.2-2.4,3.1-4.4,4.5-6.7c0.7-1,3.3-5.2,2-6.4
		c-1.2-1-3.4,1-4.1,1.8c-1.6,2-2.5,5-3.2,7.4c-0.4,1.1-0.8,5.4-1.4,7.3c-2.3,1.7-4.5,3.4-6.6,5.3c0.6-1.1,0.9-2.4,1.3-3.7
		c0.8-2.6,2.3-4.9,3.4-7.3c0.5-1.1,2.5-5.7,1-6.6c-1.3-0.9-3.2,1.5-3.8,2.4c-1.3,2.2-1.7,5.4-2.1,7.9c-0.2,1.3,0.1,6-0.3,7.8
		c-0.8,0.8-1.7,1.6-2.5,2.4c-3.4,3.4-6.4,7.1-9.1,11c-0.1-0.8-0.2-1.6-0.2-2.3c-0.2-2.7,0.3-5.4,0.3-8.1c0-1.2,0.1-6.2-1.6-6.5
		c-1.5-0.3-2.4,2.6-2.5,3.7c-0.3,2.5,0.5,5.6,1.1,8.1c0.2,1,1.7,4,2.4,6.1c-2.6,3.8-4.9,7.8-6.8,12c0-0.9,0-1.8,0-2.7
		c0.1-2.1,0.3-4.3,0.6-6.4c0.5-3.3,1.3-6.6,2.7-9.6c0.7-1.5-1-3.1-2.5-2.2c-0.1,0-0.1,0.1-0.2,0.1c-2.3,1.6-2.8,4.7-3,7.5
		c-0.2,2.1-1.3,13.5,1.1,16.1c-2,4.9-3.6,10-4.8,15.1c-0.2-2.6,0.3-5.2,0.3-7.9c0-1.2,0.1-6.2-1.6-6.5c-1.5-0.3-2.4,2.6-2.5,3.7
		c-0.3,2.5,0.6,5.6,1.1,8.1c0.2,0.9,1.4,3.4,2.1,5.4c-0.8,4.1-1.4,8.3-1.6,12.5c-0.2-0.5-0.4-1-0.6-1.5c-0.9-2.6-1.1-5.3-1.7-8
		c-0.3-1.2-1.5-6-3.2-5.9c-1.6,0.1-1.7,3.1-1.5,4.2c0.3,2.5,1.9,5.3,3.1,7.5c0.5,0.9,2.6,3.5,3.8,5.3c-0.2,3.2-0.2,6.4,0,9.7
		c-0.9-2.3-1.3-4.7-2-7c-0.4-1.2-1.9-5.9-3.7-5.7c-1.5,0.2-1.4,3.3-1.2,4.3c0.5,2.5,2.3,5.1,3.7,7.3c0.4,0.7,2.1,2.4,3.4,3.9
		c0.5,6.1-3.6,13.1-2.1,18.9C517.9,214.3,522.4,208,522.3,202.7z"/>
</g>
<g>
	<path class="st15" d="M487.9,223.6c0.1,0.1-3.8-11,8.7-27.3c12.6-17,48.8-27.3,49.5-40c0.7-13.6-20.7-3.4-33.4-9.1
		c-12.8-5.8-17.5-8.9-4.9-16.1c12.5-6.9,20.3-10.7,16.5-21.8c-3.8-11.2,20.1-13.1,28.4-25c8.7-12-1.2-20.9-22.6-13.1
		c-20.8,8.2-22.7,4.9-17.7-0.4c4.9-5.2,21.6-17,11.8-20.1c-10-3.1-20,5.9-16.2-3.3c3.8-9.3,16.8-19.5,7-25
		c-9.8-5.6-28.2,1.3-31.8,25.6c-3.4,24.1-5,31-14.4,36.7c-9.2,5.7-22.2-2-32.9,6.5c-10.6,8.6-4.4,19.5,5.4,24.8
		c10,5.3,27.5,16.5,22.3,25.9c-4.9,9.3-17.1,2-28.3,3.7c-12.4,1.9-22.5,16.4-6.1,28.8c16.8,12.1,38.6,18.7,51.2,55.2
		C482.9,227.6,485.4,225.6,487.9,223.6z"/>
	<g>
		<g class="st16">
			<path class="st17" d="M483.9,227.6c0.3-0.1,0.6-0.4,0.5-0.7C470.8,90.4,505.5,27.2,505.9,26.6c0.2-0.3,0.1-0.7-0.3-0.9
				c-0.3-0.2-0.7-0.1-0.9,0.3c-0.4,0.6-35.3,64.2-21.6,201.1C483.1,227.4,483.5,227.6,483.9,227.6
				C483.8,227.6,483.9,227.6,483.9,227.6z"/>
		</g>
		<g class="st16">
			<path class="st17" d="M489.1,77.1c0.1,0,0.3-0.1,0.4-0.2c12.6-15.7,31.4-21.6,31.6-21.7c0.4-0.1,0.5-0.5,0.4-0.8
				c-0.1-0.3-0.4-0.6-0.8-0.4c-0.2,0.1-19.3,6.1-32.2,22.1c-0.2,0.3-0.2,0.7,0.1,0.9C488.7,77.1,488.9,77.2,489.1,77.1z"/>
		</g>
		<g class="st16">
			<path class="st17" d="M482.8,120c0.2,0,0.3-0.1,0.4-0.3c0.2-0.3,0.1-0.7-0.2-0.9c-0.2-0.1-20.5-13-45.2-22
				c-0.3-0.1-0.7,0-0.9,0.4c-0.1,0.3,0.1,0.7,0.4,0.9c24.5,9,44.8,21.8,45,21.9C482.4,120,482.6,120,482.8,120z"/>
		</g>
		<g class="st16">
			<path class="st17" d="M483.7,110.6c0.1,0,0.2-0.1,0.3-0.1c26.2-20.4,59.3-30.4,59.6-30.5c0.4-0.1,0.6-0.5,0.4-0.8
				c-0.1-0.3-0.4-0.6-0.8-0.4c-0.3,0.1-33.6,10.2-60,30.8c-0.3,0.2-0.3,0.6-0.1,0.9C483.2,110.6,483.5,110.6,483.7,110.6z"/>
		</g>
		<g class="st16">
			<path class="st17" d="M481,184.1c0.1,0,0.2-0.1,0.3-0.1c17.6-15.3,51.4-26.7,51.7-26.8c0.3-0.1,0.5-0.5,0.4-0.8
				c-0.1-0.3-0.5-0.5-0.8-0.4c-0.3,0.1-34.4,11.5-52.2,27c-0.3,0.2-0.3,0.7-0.1,0.9C480.5,184.1,480.8,184.2,481,184.1z"/>
		</g>
		<g class="st16">
			<path class="st17" d="M481.4,193.8c0.1,0,0.2-0.1,0.3-0.1c0.3-0.2,0.4-0.6,0.1-0.9c-16.8-22.6-47.1-35.3-47.4-35.4
				c-0.3-0.1-0.7,0-0.9,0.4c-0.1,0.3,0,0.7,0.4,0.9c0.3,0.1,30.3,12.7,46.9,35C480.9,193.7,481.1,193.8,481.4,193.8z"/>
		</g>
	</g>
	<g>
		<g>
			<path class="st13" d="M469.9,227.4c0,0,2.2,2.1,4.5,3.2C474.4,230.6,473.9,229.3,469.9,227.4z"/>
			<path class="st13" d="M469.4,224c0,0,4.4,4.1,9,6.4C478.4,230.4,477.3,227.7,469.4,224z"/>
			<path class="st13" d="M475.1,225.2c0,0,3.6,3.4,7.4,5.2C482.5,230.5,481.6,228.3,475.1,225.2z"/>
			<path class="st13" d="M492.4,224.5c0,0-4.1,3.9-8.5,6C484,230.5,485,228,492.4,224.5z"/>
			<path class="st13" d="M492.2,227.4c0,0-2.2,2.1-4.5,3.2C487.7,230.6,488.2,229.3,492.2,227.4z"/>
		</g>
		<path class="st13" d="M495.5,227.4c0,0-2.2,2.1-4.5,3.2C491,230.6,491.6,229.3,495.5,227.4z"/>
	</g>
</g>
<g>
	<path class="st18" d="M366.7,153.1c0,0-1.3-10.5-5.7-14.4c-5.7-5-18-3.7-22.8,1.1c-5.3,5.3-7.9,16.1-3.5,23.9
		c-8.6,5-8.1,16.2-0.9,17.2l-2.5,13.4c-1.6,8.3,4.3,16.3,13.2,18.1l16.1,3.2c0,0,27.5-2.6,29.6-16.1c2.1-13.6-10.4-19.9-10.4-19.9
		s6-11.4-0.3-19.4C373,152.3,366.7,153.1,366.7,153.1z"/>
	<path class="st19" d="M335.9,365.1c0,0-1.1,4.6-1,8.3c0.5,2.5,0,3.3,0,3.3l-10.5-0.8c0,0,4.6-2.1,4.3-12.1
		C328.4,353.9,335.9,365.1,335.9,365.1z"/>
	<path class="st18" d="M335,374.2c0,0-4.6,1.6-9.1,0.4c-5.3,2.3-9,3.1-13.8,3.7c-4.8,0.6-4,4.2,4.3,3.7c8.2-0.5,14-0.2,15.8,0
		c1.8,0.2,4.8,0.4,4.9-0.8C337.2,380,336.5,373.8,335,374.2z"/>
	<path class="st20" d="M331.8,236.7c0,0-6.7,60.7-7.1,68.6c-0.4,7.9-0.4,10.6,0,15.5c0.4,4.8-3.1,45.3-3.1,45.3s15.7,3.5,19.7,0.4
		c0,0-0.7-44.2,1.3-51.7c2-7.6,9.8-45.8,9.8-45.8l-9-39.2L331.8,236.7z"/>
	<path class="st21" d="M365.4,294.9c0,0,1.2,12.9,3.8,15.3c1.6,3.9,1.6,3.9-0.9,5.4c-3.8,2.3-11.6,6.9-13.5,5
		c-7.2-7.1-7.5-9.7-9.2-18.9c-0.6-2.1-10.6-63.3-10.6-63.3s31.9-4.4,32,4.3C367.2,251.4,363.8,284.7,365.4,294.9z"/>
	<g>
		<path class="st19" d="M404.7,349.4c0,0,3.3,3.6,6.5,5.8c2.5,1.2,2.8,2,2.8,2l-7.1,7.2c0,0,1-4.7-7.8-10.5
			C390.4,348.1,404.7,349.4,404.7,349.4z"/>
		<path class="st18" d="M412,355.6c0,0-1.4,4.3-5.2,6.9c-1.3,5.3-2.8,8.5-5.2,12.4c-2.4,3.9,1.2,5.5,5.8-0.9
			c4.6-6.3,8.3-10.3,9.6-11.6c1.3-1.2,3.2-3.2,2.3-4.1C418.3,357.5,412.5,354.3,412,355.6z"/>
	</g>
	<path class="st21" d="M368,308.2c13.9,17.4,37.5,30.4,44.1,40.7c1.2,3.2-14.2,11.4-14.2,11.4s-32.1-29.1-38.7-35.5
		c-2.6-2.5-5.1-4.5-7.1-7.1C358.4,315.7,364.1,303.3,368,308.2z"/>
	<path class="st22" d="M363.1,194.1c3.3,3.3,5.5,5.6,7,7.2l0.1-1.6c0,0,0.1-15.2-4.8-23.4c-0.8-0.2-1.6-0.3-2.3-0.2
		C355.5,176.6,355.9,186.9,363.1,194.1z"/>
	<path class="st22" d="M325.5,194.3c0,0,6.8-0.3,7.5-1.5c0.8-1.3,3.4-7,7.6-9c0,0-5.8,5.6-5.1,10.5H325.5z"/>
	<path class="st19" d="M363.1,242.3"/>
	<path class="st19" d="M293.6,216.8c7.5-0.9,25.2-3.7,27.6-3.5c3.6-9.1,3.4-8.6,10.8-28l7.5,4.6c0,0-7.6,23.8-10.5,29.7
		c-1.7,4.8-33.2,2.6-35.3,2.7c-4.2,2.9-6.9,2.5-8.8,1.8c-1.9-0.7-1.2-7.4-0.1-7.5C284.9,216.5,288.1,214.6,293.6,216.8z"/>
	<path class="st23" d="M324.6,194c0,0,10.9-17.1,18.6-17.2c7.7-0.1,8.1,10.2,1.6,18c-6.5,7.8-8.7,10.8-8.7,10.8S327,202.3,324.6,194
		z"/>
	<path class="st23" d="M338.2,200.7c0.9,2.2-6.2,33.1-7.4,40.2c0,0,0.1,0,0.4-0.1c3.1-0.5,22.2-3,37.6,3.5l1.4-43.6l0.1-1.6
		c0,0,0-1.6-0.1-4.2v0c-0.4-5.2-1.4-13.9-4.7-19.6c-1.7-2.9-4-0.9-7-1.2c-9.6-1-10.5,4-19.4,6.3l6.6,6.7c0,0-18.4,3.2-20,6.6h10
		C335.5,193.6,337.2,198.4,338.2,200.7z"/>
	<path class="st19" d="M364.5,241.4c5.1-5.5,16.9-19.1,18.9-20.5c-3.4-10.2-13-26-13-26l11.9-3.7c0,0,9.4,23.1,11.1,29.5
		c1.8,4.8-23.8,23.4-25.3,24.7c-1.3,4.9-3.7,6.4-5.6,7.1c-1.9,0.7-5.7-4.9-4.9-5.7C357.6,246.8,358.8,243.3,364.5,241.4z"/>
	<path class="st19" d="M340.7,143.8c0,0-6.1,14.1-1.5,20.5c3.4,4.8,9.5,5,9.5,5v6.9c0,0,0.7,0.6,1.9,0.7c2.1,0.1,7.7-3.3,7.7-3.3
		v-27.3L340.7,143.8z"/>
	<path class="st18" d="M340.2,142.2c0,0,2.9,12.6,9.5,15.9c6.6,3.3,1.6,11.5,7.9,17.6c1.9,1.8,4.6,1.5,6.8,0.9
		c3-0.9,6.5-0.3,8.7,1.9c0.2,0.2,0.4,0.4,0.5,0.7c8.2-5.4-12.5-35.4-12.5-35.4L340.2,142.2z"/>
	<path class="st22" d="M364.1,194.1c3.3,3.3,5.5,5.6,7,7.2l0.1-1.6c0,0,0.1-15.2-4.8-23.4c-0.8-0.2-1.6-0.3-2.3-0.2
		C356.5,176.6,356.9,186.9,364.1,194.1z"/>
	<path class="st23" d="M383,190.3c0,0-11.7-16.5-19.4-16.3c-7.7,0.3-7.6,10.6-0.7,18.1c6.9,7.5,9.2,10.3,9.2,10.3
		S381.1,198.8,383,190.3z"/>
</g>
</svg>
