<?xml version="1.0" encoding="utf-8"?>
<!-- Generator: Adobe Illustrator 23.0.3, SVG Export Plug-In . SVG Version: 6.00 Build 0)  -->
<svg version="1.1" id="Layer_1" xmlns="http://www.w3.org/2000/svg" xmlns:xlink="http://www.w3.org/1999/xlink" x="0px" y="0px"
	 viewBox="0 0 175 175" style="enable-background:new 0 0 175 175;" xml:space="preserve">
<style type="text/css">
	.st0{fill:#F3F8FE;}
	.st1{clip-path:url(#SVGID_2_);fill:#D2F0FF;}
	.st2{fill:#ECD1BD;}
	.st3{fill:#B0B0FF;}
	.st4{fill:#1C1C1C;}
	.st5{fill:#003591;}
	.st6{fill:#FFFFFF;}
	.st7{fill:#F4CDAF;}
	.st8{fill:#41378C;}
	.st9{fill:#424DBF;}
	.st10{opacity:0.26;fill:#000202;}
	.st11{fill:#FBFBFB;}
	.st12{opacity:0.12;}
	.st13{fill:#DDE4E8;}
	.st14{opacity:0.47;}
	.st15{fill:#879499;}
	.st16{opacity:0.32;fill:#879499;}
</style>
<g>
	<circle class="st0" cx="87.5" cy="87.5" r="87.5"/>
	<g>
		<defs>
			<circle id="SVGID_1_" cx="87.5" cy="87.5" r="87.5"/>
		</defs>
		<clipPath id="SVGID_2_">
			<use xlink:href="#SVGID_1_"  style="overflow:visible;"/>
		</clipPath>
		<rect x="29.1" y="154" class="st1" width="116.8" height="21.8"/>
	</g>
	<g>
		<path class="st2" d="M49.6,48.4c0.1,0,0.2,0,0.3,0c0.8,0.1,1.1,0.7,1.7,1c0.3,0.2,1.1-0.3,1.1,0.4c0,0.3,0,0.9,0.1,1.5
			c0.1,0.8,0.7,1.8,1.3,2.5c0.8,0.9,1.7,1.9,2.7,2.7c2,1.7,4.4,3.3,6.7,4.6c2.2-3.8,6.6-6.1,10.8-5.8c0.4,0,0.9,0.1,1.3,0.4
			c0.3,0.2,0.5,0.5,0.7,0.9c2,3.6-1.4,5.4-4.1,6.9c-1.7,1-3.4,1.8-5.2,2.5c-2.5,1-4.6,0.1-6.8-1.5c-2.3-1.6-4.5-3.3-6.4-5.4
			c-0.9-1-1.6-2.2-2.3-3.3c-0.8-1.1-1.2-0.7-2.1-1.5C49,54,48.4,53.6,48,53.1c-0.8-1-0.4-2.2-0.3-3.3c0-0.3,0.1-0.5,0.2-0.7
			c0.2-0.3,0.6-0.4,1-0.6C49.2,48.5,49.4,48.4,49.6,48.4z"/>
	</g>
	<g>
		<path class="st3" d="M71.8,66.1c-1.4,0.6-2.7,1.1-4,1.6c-2,0.7-4.1,1.4-6.1,0.6c-0.7-0.3-1.4-0.8-2.1-1.3c-3.1-2.3-6.1-4.7-9-7.2
			c0.9-1.9,2-3.6,3.3-5.1c0.4-0.4,0.8-0.9,1.4-0.9c0.8-0.1,1.5,0.6,2.1,1.2c0.9,1,1.8,2.1,2.7,3.1c0.3,0.3,0.6,0.7,1.1,0.7
			c0.3,0,0.6-0.1,0.8-0.2c4.9-2.3,8.6-5.3,12.8-8.8c1.8-1.6,3.8-3.2,6.1-3.8c4.9-1.3,8.9,4.2,5.9,8.6C83.2,59.8,77.5,63.6,71.8,66.1
			z"/>
	</g>
	<g>
		<polygon class="st4" points="103.6,160.1 103.8,162.6 99.1,165.3 96.5,163 98.8,160.3 103.5,157.6 		"/>
	</g>
	<g>
		<polygon class="st5" points="107,84.1 107.4,91.7 99.5,125.2 103.8,159.2 99.1,160.5 85.6,119.7 85.3,107.4 88.4,82.1 		"/>
	</g>
	<g>
		<polygon class="st5" points="76.6,88.2 73.2,120 75.1,161.6 79.6,162 86,124.5 95.7,87.2 		"/>
	</g>
	<polygon class="st4" points="79.6,161.5 79.3,164 74.3,166 72.1,163.3 74.8,161 	"/>
	<g>
		<path class="st3" d="M111.2,88.1c0.3,2.9,0.6,6.8-0.5,7.1c-0.2,0-0.4,0-0.6-0.1c-2-0.9-3.4-2.2-5.3-3.1c-2-0.9-4.3-1.2-6.5-1.4
			c-3.3-0.3-6.6-0.4-9.9-0.1c-2.6,0.2-5.2,0.7-7.7,1.1c-2.1,0.4-4.1,1.2-6.3,1.3c-2.3,0.1-4.5-0.5-6.6-1.5c-0.1,0-0.2-0.1-0.2-0.2
			c0-0.1,0-0.2,0-0.3c0.3-1.3,0.6-2.7,1.3-3.8c0.8-1.3,1.3-2.9,1.9-4.3c1.1-3,2.2-6.1,2.9-9.2c1.1-4.3,2.4-8.4,3.5-12.7
			c0.7-3,1.4-6,2.5-8.8c0.9-2.2,2.5-5.5,4.6-6.7c0.7-0.4,1.6-0.5,2.4-0.6c2.5-0.3,5-0.6,7.5-0.9c0.9-0.1,1.9-0.2,2.7,0.1
			c1.3,0.5,2.1,1.7,2.8,2.9c3.3,5.4,5.5,11.3,7.1,17.5c0.8,3.2,1.6,6.5,2.2,9.7c0.7,3.6,1.3,7.3,1.7,11
			C110.9,85.6,111.1,86.8,111.2,88.1z"/>
	</g>
	<g>
		<path class="st6" d="M91.8,58.6c0,1.5,0.4,2.9,0.7,4.3c2,8.7,4,17.4,6,26.2c-6.7,0.6-13.4,1.1-20.1,1.7c0-3.3-0.1-6.7-0.1-10
			c0-2.1-0.1-4.3,0.2-6.4c0.4-3.4,1.5-6.7,2.6-10c2.1-6,4.1-12.1,6.2-18.1c0.1-0.3,0.2-0.7,0.5-0.9c0.3-0.3,0.7-0.4,1.1-0.5
			c1.9-0.5,4-1,6-0.9c0.6,1.8-0.9,5.1-1.4,6.8C92.7,53.3,91.7,55.9,91.8,58.6z"/>
	</g>
	<g>
		<path class="st7" d="M89.4,46.1c1.4-0.2,2.8-0.4,4.2-0.6c0-1.2-0.1-2.3-0.3-3.4c0,0.1,2.1-1.3,2.3-1.6c0.5-0.8,0.4-2.2,0.6-3.1
			c0.3-2.1,0.6-4.4-0.6-6c-1.2-1.7-3.6-2.2-5.7-2c-2.6,0.2-5.5,1.2-6.6,3.7c-1,2.2,0.8,5.1,1.4,7.3c0.3,1.1,0.7,2.3,1.8,2.6
			c0.5,0.2,1.2,0.1,1.7,0.4C89,43.8,89,45.1,89.4,46.1z"/>
	</g>
	<g>
		<path class="st8" d="M78.9,29.3c-0.3-1.5-0.6-2.9-0.9-4.4c-0.1-0.5-0.2-1.1-0.1-1.7c0.2-0.9,1-1.5,1.9-1.9
			c0.8-0.3,1.8-0.4,2.6-0.7c0.9-0.3,1.8-0.8,2.7-0.9c1.8-0.1,3.4,1.5,5.2,1.6c2.5,0.2,4.7-1.2,6.5,1.7c0.3,0.5,0.5,1.2,0.8,1.7
			c0.4,0.7,1,1.2,1.5,1.9c2.2,2.7,2,7.2-0.2,9.9c-1,1.3-1.4,2.4-3,3c0.6-1.6-0.9-7.6-3-8.1c-0.5-0.1-2.1,0.7-2.6,0.8
			c-1.3,0.3-2.5,0.7-3.7,1.3c-1.7,0.9-3.7,1.7-5.6,2c-0.2,0-0.5,0.1-0.7-0.1c-0.2-0.1-0.3-0.4-0.3-0.6C79.6,33,79.2,31.2,78.9,29.3z
			"/>
	</g>
	<polygon class="st9" points="93,123.1 53.9,108.2 73,54.7 112.1,69.6 	"/>
	<polygon class="st10" points="57.7,107.1 58.3,107.3 92.4,121.5 109.5,70.5 107.8,70.4 	"/>
	<polygon class="st11" points="91.9,120.1 56.7,106.7 74.4,57.1 109.5,70.5 	"/>
	<g>
		<polygon class="st12" points="99.2,67.9 83.9,62.1 84.4,60.7 99.7,66.5 		"/>
		<g>
			<path class="st13" d="M98.2,60.8l-0.2-0.1l0.1-0.2c0.6-1.5-0.4-3.3-2.1-4l-2.3-0.9c-1.7-0.7-3.6,0.1-4.1,1.6l-0.1,0.2l-0.2-0.1
				c-1.7-0.7-3.6,0.1-4.1,1.6l-1.1,3.1l15.3,5.8l1.1-3.1C100.8,63.3,99.9,61.5,98.2,60.8z M95.6,59.9l-4-1.5
				c-0.4-0.2-0.6-0.6-0.5-1.1c0.2-0.4,0.6-0.6,1-0.5l4,1.5c0.4,0.2,0.6,0.6,0.5,1.1C96.5,59.9,96.1,60.1,95.6,59.9z"/>
		</g>
	</g>
	<g class="st14">
		<path class="st15" d="M79.3,74.7c-1.7-0.7-3.4-1.3-5.2-2c-0.1-0.1-0.3,0-0.4,0.2c-0.6,1.8-1.3,3.5-1.9,5.3c-0.1,0.1,0,0.3,0.2,0.4
			c1.7,0.7,3.4,1.3,5.2,2c0.1,0,0.1,0,0.2,0c0,0,0,0,0,0c0,0,0,0,0,0c0.1,0,0.1-0.1,0.1-0.2c0.6-1.8,1.3-3.5,1.9-5.3
			C79.5,75,79.4,74.8,79.3,74.7z M77.1,79.9c-1.5-0.6-3.1-1.2-4.6-1.8c0.6-1.6,1.1-3.2,1.7-4.7c1.5,0.6,3.1,1.2,4.6,1.8
			C78.2,76.8,77.7,78.3,77.1,79.9z"/>
		<path class="st15" d="M75.8,84.5c-1.7-0.7-3.4-1.3-5.2-2c-0.1-0.1-0.3,0-0.4,0.2c-0.6,1.8-1.3,3.5-1.9,5.3c-0.1,0.1,0,0.3,0.2,0.4
			c1.7,0.7,3.4,1.3,5.2,2c0.1,0,0.1,0,0.2,0c0,0,0,0,0,0c0,0,0,0,0,0c0.1,0,0.1-0.1,0.1-0.2c0.6-1.8,1.3-3.5,1.9-5.3
			C76,84.8,75.9,84.6,75.8,84.5z M73.6,89.7c-1.5-0.6-3.1-1.2-4.6-1.8c0.6-1.6,1.1-3.2,1.7-4.7c1.5,0.6,3.1,1.2,4.6,1.8
			C74.8,86.6,74.2,88.1,73.6,89.7z"/>
		<path class="st15" d="M72.3,94.3c-1.7-0.7-3.4-1.3-5.2-2c-0.1-0.1-0.3,0-0.4,0.2c-0.6,1.8-1.3,3.5-1.9,5.3c-0.1,0.1,0,0.3,0.2,0.4
			c1.7,0.7,3.4,1.3,5.2,2c0.1,0,0.1,0,0.2,0c0,0,0,0,0,0c0,0,0,0,0,0c0.1,0,0.1-0.1,0.1-0.2c0.6-1.8,1.3-3.5,1.9-5.3
			C72.5,94.6,72.4,94.4,72.3,94.3z M70.1,99.5c-1.5-0.6-3.1-1.2-4.6-1.8c0.6-1.6,1.1-3.2,1.7-4.7c1.5,0.6,3.1,1.2,4.6,1.8
			C71.3,96.4,70.7,97.9,70.1,99.5z"/>
	</g>
	<polygon class="st9" points="75.1,75.4 76.5,75.5 76.7,76.9 83.9,74.9 84.5,75.3 75.9,78.3 	"/>
	<polygon class="st9" points="71.1,85.3 72.5,85.4 72.7,86.8 79.8,84.8 80.5,85.2 71.9,88.2 	"/>
	<polygon class="st9" points="67.7,94.5 69,94.6 69.3,96.1 76.4,94 77,94.4 68.5,97.4 	"/>
	<polygon class="st16" points="92.1,107.3 73.9,100.4 74.8,97.7 93,104.7 	"/>
	<polygon class="st16" points="95.8,96.9 77.6,90 78.5,87.4 96.7,94.3 	"/>
	<polygon class="st16" points="99.5,86.6 81.3,79.6 82.2,77 100.4,83.9 	"/>
	<path class="st7" d="M107.3,72.3c0.1,0.3,0.1,0.8-0.2,0.9c-0.2,0.1-0.4,0-0.6,0c-0.8-0.1-1.6,0.3-1.9,1.1c-0.3,0.9,0.1,1.9,0.8,2.5
		c0.7,0.6,1.6,0.8,2.5,0.9c0.6,0.1,1.2,0,1.6-0.4c0.2-0.2,0.3-0.5,0.5-0.8c0.6-1.4,1-3.3-0.1-4.6C109,70.9,106.5,70.1,107.3,72.3z"
		/>
	<path class="st3" d="M113.8,72c-0.1-0.1-0.2-0.3-0.4-0.4c-1.2-1-2.8-2-4.4-1.5c0.5,3.1,0,6.3-1.3,9.1c-0.1,0.2-0.2,0.5-0.1,0.7
		c0.2,0.4,1.5,0.7,1.9,0.7c1.7,0.1,3.6-0.8,4.3-2.2c0.4-0.8,0.5-1.7,0.6-2.5C114.6,74.7,114.6,73.1,113.8,72z"/>
</g>
</svg>
