<?xml version="1.0" encoding="utf-8"?>
<!-- Generator: Adobe Illustrator 23.0.3, SVG Export Plug-In . SVG Version: 6.00 Build 0)  -->
<svg version="1.1" id="Layer_1" xmlns="http://www.w3.org/2000/svg" xmlns:xlink="http://www.w3.org/1999/xlink" x="0px" y="0px"
	 viewBox="0 0 175 175" style="enable-background:new 0 0 175 175;" xml:space="preserve">
<style type="text/css">
	.st0{fill:#F3F8FE;}
	.st1{clip-path:url(#SVGID_2_);fill:#D2F0FF;}
	.st2{fill:#C4C9E7;}
	.st3{fill:#393F5C;}
	.st4{fill:none;stroke:#393F5C;stroke-width:2.4961;stroke-miterlimit:10;}
	.st5{fill:#F0BC99;}
	.st6{fill:#E7AD87;}
	.st7{fill:#816EF5;}
	.st8{fill:#2B3047;}
	.st9{fill:#41378C;}
	.st10{fill:#6138F9;}
	.st11{fill:#EBB28B;}
	.st12{fill:#FFFFFF;}
	.st13{fill:#81B7FB;}
	.st14{fill:#9AC9FB;}
	.st15{fill:#70A8E9;}
	.st16{fill:#7AB6EE;}
	.st17{fill:#E9F1F4;}
	.st18{fill:#1F2E3B;}
	.st19{fill:#827DDC;}
</style>
<g>
	<circle class="st0" cx="87.4" cy="87.5" r="87.5"/>
	<g>
		<g>
			<defs>
				<circle id="SVGID_1_" cx="87.4" cy="87.5" r="87.5"/>
			</defs>
			<clipPath id="SVGID_2_">
				<use xlink:href="#SVGID_1_"  style="overflow:visible;"/>
			</clipPath>
			<rect x="29" y="154" class="st1" width="116.8" height="21.7"/>
		</g>
	</g>
	<g>
		<path class="st2" d="M93.6,109.2h29.3c5.8,0,10.8-4.4,11.5-10.2l4.1-44h-29.3l-0.6,25.5L93.6,109.2z"/>
		<g>
			<path class="st3" d="M93.6,108.5c7.6-0.4,15-0.7,22.6-0.9l5.7-0.1c1,0,1.7,0,2.5-0.1c0.7-0.1,1.6-0.3,2.2-0.7
				c2.9-1.2,5.1-3.9,5.7-7c0.1-0.7,0.1-1.8,0.3-2.6l0.3-2.8l0.6-5.5c0.4-3.8,0.9-7.4,1.2-11.2c0.9-7.4,1.7-15,2.8-22.5
				c0.1-0.6,0.7-1,1.3-1c0.6,0.1,1,0.6,1,1.2c-0.4,7.6-0.9,15-1.6,22.6c-0.3,3.8-0.6,7.4-0.9,11.2l-0.4,5.7l-0.3,2.8
				c-0.1,1-0.1,1.8-0.3,2.9c-0.9,4.4-3.9,8.2-8,9.8c-1,0.4-2,0.7-3.2,0.9c-1,0.1-2.2,0.1-3.1,0.1l-5.7-0.1c-7.6-0.1-15-0.4-22.6-0.9
				c-0.4,0-0.7-0.4-0.7-0.9C92.8,108.8,93.1,108.5,93.6,108.5z"/>
		</g>
		<line class="st4" x1="110.2" y1="110.1" x2="110.2" y2="141.2"/>
	</g>
	<rect x="21.3" y="81.1" class="st3" width="94.5" height="1.5"/>
	<polygon class="st5" points="104.6,147 105.7,150.6 100.7,152.1 99.2,147.6 	"/>
	<polygon class="st5" points="75.2,144.4 75.2,147.3 79.6,147.3 80,144.4 	"/>
	<g>
		<g>
			<path class="st6" d="M108.4,61l-6.6,16l-0.1,0.3c-0.4,1-1.3,1.6-2.3,1.6l-18.5-0.1c-0.7,0-1.3-0.6-1.3-1.3c0-0.7,0.4-1.3,1.2-1.3
				l18.4-2.6l-2.5,1.9l4.4-16.8c0.6-2,2.6-3.4,4.8-2.8c2,0.6,3.4,2.6,2.8,4.8C108.4,60.7,108.4,60.8,108.4,61z"/>
			<path class="st6" d="M82.9,75.8l-6.4-0.1c-1.6,0-2.8,1.5-2.8,3.2l0,0h9.3L82.9,75.8z"/>
		</g>
		<g>
			<path class="st7" d="M98.1,62.9l10.2,2.5l1.6-9c0.4-2.5-1.3-4.8-3.8-5.1l0,0c-2-0.3-4.1,0.9-4.8,2.8L98.1,62.9z"/>
		</g>
	</g>
	<path class="st8" d="M108.6,80.5L77.2,96.4c-2.9,1.5-4.7,4.5-4.5,7.7l2.5,40.2H80l6.4-43l24.4-17.1L108.6,80.5z"/>
	<path class="st9" d="M103,25.5c0,0,8.8-2.9,13.3,5.2c0.3,0.4,0.6,0.9,0.9,1.3c0.9,1.2,2.9,3.1,5,3.8c8.5,2.6,13.9,18.7-3.1,20
		C97.9,57.6,92,53.5,95,45.1c2.2-6,0.3-10.2,0.3-10.2L103,25.5z"/>
	<path class="st10" d="M110,47.1l-4.5,2c-2.6,1.2-4.4,3.8-4.4,6.9c0,6,1.5,20.6,6.4,26.2h15.2c2.3-10.4,1-26.4,1-26.4
		c0.1-3.9-2.8-7.3-6.6-7.7L110,47.1z"/>
	<path class="st11" d="M110.5,51.9L110.5,51.9c-1.6,0.1-3.1-0.9-3.2-2.5l-1.2-9.6l5.8-0.7l1.2,9.6C113.2,50.3,112.1,51.8,110.5,51.9
		z"/>
	<path class="st5" d="M105.5,47L105.5,47c-3.9,0.6-7.6-2.2-8-6.1l-1-8.3l14.1-1.9l1,8.3C112.2,42.9,109.5,46.4,105.5,47z"/>
	<path class="st9" d="M112.2,35.7l-1.2,2.5c0,0-1.6,1.5-2-2.2c-0.4-2.9-2.5-2.5-2.5-2.5s-7.4,5.5-11.8,1.8c-3.5-3.1,2-8.6,8.5-9.9
		l8.3,3.6L112.2,35.7z"/>
	<path class="st5" d="M110.2,38.4c0.1,1.3,1.3,2.2,2.6,2c1.3-0.1,2.2-1.3,2-2.6c-0.1-1.3-1.3-2.2-2.6-2
		C110.9,36,110,37.2,110.2,38.4z"/>
	<path class="st12" d="M112.1,39.2c0,0.3,0.3,0.4,0.4,0.4c0.3,0,0.4-0.3,0.4-0.4c0-0.3-0.3-0.4-0.4-0.4S112.1,38.9,112.1,39.2z"/>
	<path class="st12" d="M100.1,42.9l3.9-0.9c0,0,0.1,1.8-2,2C100.3,44.3,100.1,42.9,100.1,42.9z"/>
	<path class="st3" d="M122.7,82.1h-15.2L83.2,96.8c-2.9,1.7-3.9,5.4-2.6,8.5l18.7,42.4l5.4-0.6l-10.1-41c8.5-0.3,24.1-1.6,28.1-6.1
		C129.7,92.2,122.7,82.1,122.7,82.1z"/>
	<g>
		<path class="st13" d="M70.8,55.4l8.8,23.3H51.3l-8-22c-0.3-0.7,0.3-1.3,0.9-1.3H70.8z"/>
		<path class="st14" d="M70.8,55.4h1.3c0.7,0,1.3,0.4,1.6,1.2L82,78.8h-2.5L70.8,55.4z"/>
		<path class="st15" d="M53.6,80.9h26v-2.2H51.4l0,0C51.4,79.9,52.4,80.9,53.6,80.9z"/>
		<path class="st16" d="M79.6,80.9h17.4c0.6,0,1.2-0.4,1.2-1.2l0,0c0-0.6-0.4-1.2-1.2-1.2H79.6V80.9z"/>
		<path class="st17" d="M63.8,66.9c0.6,1.6-0.1,3.2-1.5,3.6C61,71,59.6,70,59,68.4c-0.6-1.6,0.1-3.2,1.5-3.6
			C61.8,64.5,63.2,65.3,63.8,66.9z"/>
	</g>
	<g>
		<g>
			<path class="st5" d="M120.2,60.5l-6.6,16.3l-0.1,0.4c-0.4,1-1.3,1.6-2.3,1.6l-18.5-0.1c-0.7,0-1.3-0.6-1.3-1.3
				c0-0.7,0.6-1.3,1.2-1.3l18.4-2.8l-2.5,1.9l4.4-17.1c0.6-2,2.6-3.4,4.8-2.8c2,0.6,3.4,2.6,2.8,4.8
				C120.4,60.2,120.4,60.4,120.2,60.5z"/>
			<path class="st5" d="M94.7,75.7l-6.4-0.1c-1.6,0-2.8,1.5-2.8,3.2l0,0h9.2V75.7z"/>
		</g>
		<g>
			<path class="st7" d="M109.9,62.6l10.2,2.5l1.6-9.2c0.4-2.5-1.3-4.8-3.8-5.2l0,0c-2-0.3-4.1,0.9-4.8,2.9L109.9,62.6z"/>
		</g>
	</g>
	<path class="st18" d="M97.6,148.6l-2.3,2.3l-5.4,1.3c-0.6,0.1-1,0.6-1.2,1l-0.3,0.7c-0.1,0.4,0.1,0.7,0.6,0.7l17.2-0.4
		c0.6,0,1-0.4,0.9-1l-1.3-4.8l-2.6,0.6c-0.9,0.3-1.8,0.1-2.6-0.3l-0.9-0.6C99,148,98.1,148.2,97.6,148.6z"/>
	<path class="st18" d="M73,145.2l-2.3,2.3l-5.4,1.3c-0.6,0.1-1,0.6-1.2,1l-0.3,0.7c-0.1,0.4,0.1,0.7,0.6,0.7l15.5-0.3
		c0.6,0,1-0.4,0.9-1l-0.4-5l-1.9,0.6c-0.9,0.3-1.8,0.1-2.6-0.3l-0.9-0.6C74.3,144.7,73.6,144.7,73,145.2z"/>
	<g>
		<polygon class="st19" points="82,42.7 57.5,41.3 57.5,23.6 83.1,24.4 		"/>
		<polygon class="st19" points="60.7,41.4 58.1,47 66.9,41.4 		"/>
	</g>
	<g>
		<path class="st12" d="M71.2,33c0,0.7-0.6,1.3-1.3,1.3c-0.7,0-1.3-0.6-1.3-1.3c0-0.7,0.6-1.3,1.3-1.3C70.7,31.8,71.2,32.2,71.2,33z
			"/>
		<path class="st12" d="M66.6,33c0,0.7-0.6,1.3-1.3,1.3S64,33.7,64,33c0-0.7,0.6-1.3,1.3-1.3C66,31.8,66.6,32.2,66.6,33z"/>
		<path class="st12" d="M75.8,33c0,0.7-0.6,1.3-1.3,1.3s-1.3-0.6-1.3-1.3c0-0.7,0.6-1.3,1.3-1.3C75.2,31.8,75.8,32.2,75.8,33z"/>
	</g>
</g>
</svg>
