<svg xmlns="http://www.w3.org/2000/svg" xmlns:xlink="http://www.w3.org/1999/xlink" viewBox="0 0 546.83 565.52"><defs><style>.cls-1,.cls-12,.cls-13,.cls-16,.cls-26{fill:none;}.cls-2{isolation:isolate;}.cls-3{opacity:0.2;}.cls-4{clip-path:url(#clip-path);}.cls-5{fill:#e9ebfb;}.cls-6{clip-path:url(#clip-path-2);}.cls-7{fill:#e0e2f5;}.cls-8{fill:#81b7fb;}.cls-9{fill:#4d8bd7;}.cls-10{fill:#fff;}.cls-11{fill:#09acf2;}.cls-12{stroke:#fff;stroke-width:5px;}.cls-12,.cls-13,.cls-16{stroke-linecap:round;}.cls-12,.cls-16{stroke-linejoin:round;}.cls-13,.cls-16{stroke:#e4eaef;}.cls-13,.cls-26{stroke-miterlimit:10;}.cls-13{stroke-width:14px;}.cls-14{fill:#e4eaef;}.cls-15{fill:#306fb4;}.cls-16{stroke-width:3px;}.cls-17{fill:#f2be9b;}.cls-18{fill:#b0b0ff;}.cls-19{fill:#5046af;}.cls-20{fill:#cacaca;opacity:0.44;mix-blend-mode:multiply;}.cls-21{fill:#1f2e3b;}.cls-22{fill:#c8cdeb;}.cls-23{fill:#edb48d;}.cls-24{fill:#21283a;}.cls-25{fill:#9898e5;}.cls-26{stroke:#9898e5;stroke-width:0.56px;}.cls-27{fill:#256193;fill-rule:evenodd;}</style><clipPath id="clip-path" transform="translate(2.88 -0.69)"><rect class="cls-1" x="-5.13" y="143.18" width="560.34" height="313.43"/></clipPath><clipPath id="clip-path-2" transform="translate(2.88 -0.69)"><path class="cls-1" d="M196.88,216.51c-7.93,9.29-14.51,18.07-7.24,27.44,3.57,4.61,10.12,8.79,17.94,15.87,34.3,31.08-3.47,47.12-47.88,47.79S23.91,305,12.46,379.48C6,421.6,23.06,523.05,248.58,545.78,451.74,566.26,569.45,481,539.27,433.89s-64.3-67-46.79-88.65c26.3-32.47,45.2-36.26,49.73-83.07C554,140.35,285.58,112.58,196.88,216.51Z"/></clipPath></defs><title>header-thank-you</title><g class="cls-2"><g id="Layer_1" data-name="Layer 1"><rect class="cls-1" x="192.41" y="214.38" width="80.45" height="20.4"/><g class="cls-3"><g class="cls-4"><path class="cls-5" d="M196.88,216.51c-7.93,9.29-14.51,18.07-7.24,27.44,3.57,4.61,10.12,8.79,17.94,15.87,34.3,31.08-3.47,47.12-47.88,47.79S23.91,305,12.46,379.48C6,421.6,23.06,523.05,248.58,545.78,451.74,566.26,569.45,481,539.27,433.89s-64.3-67-46.79-88.65c26.3-32.47,45.2-36.26,49.73-83.07C554,140.35,285.58,112.58,196.88,216.51Z" transform="translate(2.88 -0.69)"/><g class="cls-6"><path class="cls-7" d="M180.7,179.46s26.88,80.36,87.8,148.66C299.31,362.65,451.6,437.46,377,486.81,23.57,720.69-2.88,363.43-2.88,363.43l97.22-158.2Z" transform="translate(2.88 -0.69)"/></g></g></g><rect class="cls-1" x="142.59" y="214.36" width="82.8" height="20.99"/><path class="cls-8" d="M421.33,274.29c-1.42,0-37.44-6.59-39.21-43.72s21.13-45.13,14.94-86.68-22.08-54.2,13.3-82.5c0,0,15.79-11.32,16.46-28.28.81-20.31,32.46-42.31,53.81-27.65s16.42,35.37-1.69,68.39-.51,39.83,3,51,11.72,23.07-6.8,48.35,3.78,58.43-12,82.74C463.21,255.92,449.37,273.8,421.33,274.29Z" transform="translate(2.88 -0.69)"/><path class="cls-9" d="M427.17,331.35a1.59,1.59,0,0,0,1.11-1.88C408.52,215.41,447.36,63.22,447.75,61.69a1.8,1.8,0,0,0-1.05-2.13,1.42,1.42,0,0,0-1.87,1.06c-.4,1.53-39.43,154.48-19.53,269.32a1.63,1.63,0,0,0,1.78,1.43Z" transform="translate(2.88 -0.69)"/><path class="cls-9" d="M434.45,121.53l.25-.08a1.68,1.68,0,0,0,.76-2.19c-.08-.2-8.19-20.59-11.55-37.82a1.63,1.63,0,0,0-1.81-1.39A1.58,1.58,0,0,0,420.94,82c3.43,17.59,11.67,38.3,11.75,38.51A1.57,1.57,0,0,0,434.45,121.53Z" transform="translate(2.88 -0.69)"/><path class="cls-9" d="M429.38,155.47a1.26,1.26,0,0,0,.6-.3c7.61-6.6,26.78-18.79,27-18.92a1.73,1.73,0,0,0,.49-2.29,1.48,1.48,0,0,0-2.09-.65c-.8.5-19.55,12.43-27.32,19.17a1.79,1.79,0,0,0-.2,2.36A1.5,1.5,0,0,0,429.38,155.47Z" transform="translate(2.88 -0.69)"/><path class="cls-9" d="M425.19,188.56a1.35,1.35,0,0,0,.32-.11,1.72,1.72,0,0,0,.66-2.23l-10.8-24a1.53,1.53,0,0,0-2.05-.85,1.71,1.71,0,0,0-.66,2.23l10.8,24A1.55,1.55,0,0,0,425.19,188.56Z" transform="translate(2.88 -0.69)"/><path class="cls-10" d="M503,403.49" transform="translate(2.88 -0.69)"/><rect class="cls-1" x="176.55" y="210.74" width="80.45" height="20.4"/><path class="cls-11" d="M87.3,105.39V368.06H246.41V105.39S170.1,22.79,87.3,105.39Z" transform="translate(2.88 -0.69)"/><path class="cls-12" d="M102.83,120.45V347.81H231.49V120.45S169.78,64.18,102.83,120.45Z" transform="translate(2.88 -0.69)"/><path class="cls-13" d="M81.87,100.5s75.31-69.35,168.22,0" transform="translate(2.88 -0.69)"/><rect class="cls-14" x="80.35" y="365.11" width="179" height="15" rx="6.44"/><rect class="cls-15" x="101.25" y="145.65" width="8.32" height="22.11"/><rect class="cls-15" x="138.14" y="299.98" width="62.05" height="3.5" rx="1.24"/><rect class="cls-15" x="138.14" y="309.31" width="62.05" height="3.5" rx="1.24"/><rect class="cls-15" x="138.14" y="318.64" width="62.05" height="3.5" rx="1.24"/><rect class="cls-15" x="101.25" y="304.17" width="8.32" height="22.11"/><polyline class="cls-16" points="215.75 210.75 218.73 213.72 218.73 227.87 216.15 230.44"/><path class="cls-10" d="M155.85,164.68h22a7.36,7.36,0,0,0,7.33-7.33v-22a7.36,7.36,0,0,0-7.33-7.33h-22a7.36,7.36,0,0,0-7.33,7.33v22a7.36,7.36,0,0,0,7.33,7.33Zm18.05-30a1.77,1.77,0,0,1,1.36-.57,1.94,1.94,0,0,1,1.36,3.3,1.88,1.88,0,0,1-1.36.53,1.92,1.92,0,0,1-1.36-3.26Zm-3.26,6.23a2.45,2.45,0,0,1,.74-1.74,2.39,2.39,0,0,1,1.73-.73h4.28a2.33,2.33,0,0,1,1.74.73,2.44,2.44,0,0,1,.73,1.74v6a.92.92,0,0,1-.22.58.78.78,0,0,1-.62.24.84.84,0,0,1-.61-.24.82.82,0,0,1-.22-.58v-5.38h-.46v14.88a1,1,0,0,1-.31.76,1,1,0,0,1-.76.32,1.07,1.07,0,0,1-.83-.32,1.09,1.09,0,0,1-.32-.76v-8.63H175v8.63a1.13,1.13,0,0,1-1.92.76,1,1,0,0,1-.37-.76V141.58h-.43V147a.92.92,0,0,1-.21.58.8.8,0,0,1-.63.24.76.76,0,0,1-.58-.24.74.74,0,0,1-.25-.58Zm-3.94-8.34h1.9v27.49h-1.9Zm-8.79,2.11a1.93,1.93,0,0,1,1.41-.57,1.75,1.75,0,0,1,1.33.57,2,2,0,0,1,0,2.73,1.8,1.8,0,0,1-1.33.54,2,2,0,0,1-1.41-.54,1.94,1.94,0,0,1,0-2.73Zm-4,11.25a4.46,4.46,0,0,0,.19-.66c.1-.38.23-.84.4-1.38s.34-1.15.52-1.78.36-1.25.58-1.84a2.44,2.44,0,0,1,.82-1.23,2,2,0,0,1,1.33-.55h3.07a1.94,1.94,0,0,1,1.35.55,3,3,0,0,1,.85,1.23c.17.59.35,1.21.52,1.84s.36,1.23.51,1.78.3,1,.4,1.38.17.6.2.66l.05.2a.7.7,0,0,1-.55.74L164,147a.72.72,0,0,1-.75-.56c0-.12-.13-.48-.28-1.06s-.35-1.16-.55-1.8-.44-1.42-.72-2.41h-.45l2.6,8.82h-2.47v6.71a.73.73,0,0,1-.27.63.88.88,0,0,1-.65.25.87.87,0,0,1-.65-.25.83.83,0,0,1-.23-.63V150h-.46v6.71a.84.84,0,0,1-.24.63.87.87,0,0,1-.65.25.92.92,0,0,1-.66-.25.76.76,0,0,1-.27-.63V150h-2.51l2.61-8.81h-.45c-.28,1-.53,1.78-.71,2.4s-.36,1.23-.53,1.8a9.23,9.23,0,0,0-.32,1.06.72.72,0,0,1-.75.56l-.2-.06a.71.71,0,0,1-.54-.7.47.47,0,0,1,.05-.24Zm0,0" transform="translate(2.88 -0.69)"/><path class="cls-17" d="M317.58,231.22l8.92,7-14.66,29.86,4.23,4.13,21.56-34.78a4.34,4.34,0,0,0-1-5.16l-11.82-10.74Z" transform="translate(2.88 -0.69)"/><path class="cls-17" d="M264.27,220.77l-13.42,14.56L228,223.17l-5,5,27.85,20.27a3.32,3.32,0,0,0,4.75-.37l16-17.42Z" transform="translate(2.88 -0.69)"/><path class="cls-18" d="M274.55,207.81s-1.19-.82-15.88,15.63l11.42,15.32,6.65-7.35Z" transform="translate(2.88 -0.69)"/><path class="cls-18" d="M286.47,204.87l-10.17,2.28a6.61,6.61,0,0,0-5.11,5.6l-6.78,57.33,42.23-2.78,2.89-54a6.6,6.6,0,0,0-6-7Z" transform="translate(2.88 -0.69)"/><polygon class="cls-17" points="328.12 403.2 324.98 385.78 314.94 387.17 318.67 404.8 328.12 403.2"/><polygon class="cls-17" points="269.44 402.7 270.06 384.47 259.91 384.14 260.17 402.32 269.44 402.7"/><polygon class="cls-19" points="267.28 269.38 263.83 286.32 311.74 284 309.52 266.61 267.28 269.38"/><polygon class="cls-19" points="287.31 279.72 276.55 326.14 273.62 396.94 257.52 396.29 256.47 325.7 264.77 281.81 287.31 279.72"/><polygon class="cls-20" points="285.64 285.27 273.28 285.69 283.13 294.57 285.64 285.27"/><path class="cls-21" d="M257.29,403l9.28.38-.28,13.9-28.75,1.58h0a4.79,4.79,0,0,1,3.79-4.25l15.56-5.38Z" transform="translate(2.88 -0.69)"/><polygon class="cls-22" points="269.16 416.6 240.42 418.18 240.35 420.33 269.1 418.75 269.16 416.6"/><path class="cls-21" d="M315.79,405.49l9.45-1.6,2.37,13.69-27.37,2.13h0a4.93,4.93,0,0,1,2.9-5l13.75-3.06Z" transform="translate(2.88 -0.69)"/><polygon class="cls-22" points="330.49 416.89 303.11 419.02 303.45 421.14 330.83 419 330.49 416.89"/><path class="cls-23" d="M288.39,211.81l-1.07-.05a5.2,5.2,0,0,1-5-5.38l.68-19.74,11.47.53-.68,19.62A5.21,5.21,0,0,1,288.39,211.81Z" transform="translate(2.88 -0.69)"/><path class="cls-17" d="M287.65,203.43l-12.73-.3a7.74,7.74,0,0,1-7.57-7.92l.54-22.89,28.22.67-.54,22.88A7.74,7.74,0,0,1,287.65,203.43Z" transform="translate(2.88 -0.69)"/><path class="cls-24" d="M295.65,185.86h-4a1.74,1.74,0,0,1-1.7-2.08c.57-2.9,1.26-7.88-.62-8.51-2.68-.89-17.11,2.66-22-1.14-6.83-5.35-1.74-13.69,4.49-14s5.21,6.93,12.47,6.89,18.32-2.68,13.3,16.49Z" transform="translate(2.88 -0.69)"/><path class="cls-17" d="M298,190.66a4.43,4.43,0,1,1,2.18-5.88A4.42,4.42,0,0,1,298,190.66Z" transform="translate(2.88 -0.69)"/><path class="cls-10" d="M270.58,192.15l9.44.62s-.68,4.16-5.75,3.46A3.85,3.85,0,0,1,270.58,192.15Z" transform="translate(2.88 -0.69)"/><path class="cls-18" d="M305.36,206.75s2.28.23,21.19,11.59l-8.43,16.95L307,229.4Z" transform="translate(2.88 -0.69)"/><path class="cls-17" d="M214.17,222.05a6.87,6.87,0,1,0,6.63-7.1A6.86,6.86,0,0,0,214.17,222.05Z" transform="translate(2.88 -0.69)"/><path class="cls-17" d="M318.37,276.69a7.32,7.32,0,1,1-2.89-9.94A7.32,7.32,0,0,1,318.37,276.69Z" transform="translate(2.88 -0.69)"/><polygon class="cls-19" points="311.44 281.69 316.32 326.76 330.54 394.99 314.11 398.56 296.75 329.52 289.42 279.74 311.44 281.69"/><polygon class="cls-25" points="303.85 223.4 290.95 223.1 290.33 234.44 295.5 237.43 302.65 235.31 303.85 223.4"/><path class="cls-26" d="M296.81,206.16s.1,7.9-9.76,7.62c0,0-7.05.09-6.85-7.58" transform="translate(2.88 -0.69)"/><path class="cls-27" d="M413.44,329.8a23,23,0,0,0,4.74,3.37S417.6,331.75,413.44,329.8Z" transform="translate(2.88 -0.69)"/><path class="cls-27" d="M412.94,326.23a46.49,46.49,0,0,0,9.5,6.75S421.27,330.13,412.94,326.23Z" transform="translate(2.88 -0.69)"/><path class="cls-27" d="M419,327.51a37.72,37.72,0,0,0,7.77,5.52S425.76,330.71,419,327.51Z" transform="translate(2.88 -0.69)"/><path class="cls-27" d="M437.19,326.77a43.09,43.09,0,0,1-8.91,6.33S429.37,330.44,437.19,326.77Z" transform="translate(2.88 -0.69)"/><path class="cls-27" d="M436.91,329.8a23,23,0,0,1-4.74,3.37S432.75,331.75,436.91,329.8Z" transform="translate(2.88 -0.69)"/><path class="cls-27" d="M440.44,329.8a23,23,0,0,1-4.74,3.37S436.28,331.75,440.44,329.8Z" transform="translate(2.88 -0.69)"/></g></g></svg>