<?xml version="1.0" encoding="utf-8"?>
<!-- Generator: Adobe Illustrator 19.0.0, SVG Export Plug-In . SVG Version: 6.00 Build 0)  -->
<svg version="1.1" id="Layer_1" xmlns="http://www.w3.org/2000/svg" xmlns:xlink="http://www.w3.org/1999/xlink" x="0px" y="0px"
	 viewBox="14 193 624.8 455.9" style="enable-background:new 14 193 624.8 455.9;" xml:space="preserve">
<style type="text/css">
	.st0{fill:none;}
	.st1{opacity:0.2;}
	.st2{clip-path:url(#SVGID_2_);}
	.st3{fill:#E9EBFB;}
	.st4{clip-path:url(#SVGID_4_);fill:#E0E2F5;}
	.st5{fill:#09ACF2;}
	.st6{fill:none;stroke:#FFFFFF;stroke-width:5;stroke-linecap:round;stroke-linejoin:round;stroke-miterlimit:10;}
	.st7{fill:none;stroke:#E4EAEF;stroke-width:16;stroke-linecap:round;stroke-miterlimit:10;}
	.st8{fill:#E4EAEF;}
	.st9{fill:#306FB4;}
	.st10{fill:#81B7FB;}
	.st11{fill:#4D8BD7;}
	.st12{fill:#F2BE9B;}
	.st13{fill:#B0B0FF;}
	.st14{fill:#5046AF;}
	.st15{opacity:0.44;fill:#CACACA;}
	.st16{fill:#1F2E3B;}
	.st17{fill:#C8CDEB;}
	.st18{fill:#EDB48D;}
	.st19{fill:#21283A;}
	.st20{fill:#FFFFFF;}
	.st21{fill:none;stroke:#F2BE9B;stroke-width:1.522;stroke-linecap:round;stroke-linejoin:round;stroke-miterlimit:10;}
	.st22{fill:none;stroke:#E4EAEF;stroke-width:3;stroke-linecap:round;stroke-linejoin:round;stroke-miterlimit:10;}
	.st23{fill:#DCE0F4;}
</style>
<g>
	<rect x="273.1" y="407.4" class="st0" width="80.4" height="20.4"/>
	<g class="st1">
		<defs>
			<rect id="SVGID_1_" x="78.4" y="335.5" class="st1" width="560.3" height="313.4"/>
		</defs>
		<clipPath id="SVGID_2_">
			<use xlink:href="#SVGID_1_"  style="overflow:visible;"/>
		</clipPath>
		<g class="st2">
			<path class="st3" d="M280.4,408.8c-7.9,9.3-14.5,18.1-7.2,27.4c3.6,4.6,10.1,8.8,17.9,15.9c34.3,31.1-3.5,47.1-47.9,47.8
				c-44.4,0.7-135.8-2.7-147.2,71.9c-6.5,42.1,10.6,143.6,236.1,166.3c203.2,20.5,320.9-64.8,290.7-111.9
				c-30.2-47.1-64.3-67-46.8-88.6c26.3-32.5,45.2-36.3,49.7-83.1C637.6,332.6,369.1,304.9,280.4,408.8z"/>
			<g>
				<defs>
					<path id="SVGID_3_" d="M280.4,408.8c-7.9,9.3-14.5,18.1-7.2,27.4c3.6,4.6,10.1,8.8,17.9,15.9c34.3,31.1-3.5,47.1-47.9,47.8
						c-44.4,0.7-135.8-2.7-147.2,71.9c-6.5,42.1,10.6,143.6,236.1,166.3c203.2,20.5,320.9-64.8,290.7-111.9
						c-30.2-47.1-64.3-67-46.8-88.6c26.3-32.5,45.2-36.3,49.7-83.1C637.6,332.6,369.1,304.9,280.4,408.8z"/>
				</defs>
				<clipPath id="SVGID_4_">
					<use xlink:href="#SVGID_3_"  style="overflow:visible;"/>
				</clipPath>
				<path class="st4" d="M264.3,371.7c0,0,26.9,80.4,87.8,148.7c30.8,34.5,183.1,109.3,108.5,158.7C107.1,913,80.7,555.7,80.7,555.7
					l97.2-158.2L264.3,371.7z"/>
			</g>
		</g>
	</g>
	<path class="st5" d="M186.7,301.3V564h159.1V301.3C345.8,301.3,269.5,218.7,186.7,301.3z"/>
	<path class="st6" d="M202.3,316.4v227.4h128.7V316.4C330.9,316.4,269.2,260.1,202.3,316.4z"/>
	<path class="st7" d="M181.2,295.4c0,0,75.3-69.3,168.2,0"/>
	<path class="st8" d="M353.5,576.7H179.9c-3.6,0-6.4-2.9-6.4-6.4v-2.1c0-3.6,2.9-6.4,6.4-6.4h173.6c3.6,0,6.4,2.9,6.4,6.4v2.1
		C360,573.9,357.1,576.7,353.5,576.7z"/>
	<rect x="326.8" y="342.3" class="st9" width="8.3" height="22.1"/>
	<path class="st9" d="M295.5,500.1h-59.6c-0.7,0-1.2-0.6-1.2-1.2v-1c0-0.7,0.6-1.2,1.2-1.2h59.6c0.7,0,1.2,0.6,1.2,1.2v1
		C296.7,499.5,296.2,500.1,295.5,500.1z"/>
	<path class="st9" d="M295.5,509.4h-59.6c-0.7,0-1.2-0.6-1.2-1.2v-1c0-0.7,0.6-1.2,1.2-1.2h59.6c0.7,0,1.2,0.6,1.2,1.2v1
		C296.7,508.9,296.2,509.4,295.5,509.4z"/>
	<path class="st9" d="M295.5,518.8h-59.6c-0.7,0-1.2-0.6-1.2-1.2v-1c0-0.7,0.6-1.2,1.2-1.2h59.6c0.7,0,1.2,0.6,1.2,1.2v1
		C296.7,518.2,296.2,518.8,295.5,518.8z"/>
	<rect x="223.3" y="407.3" class="st0" width="82.8" height="21"/>
	<rect x="326.8" y="500.8" class="st9" width="8.3" height="22.1"/>
	<g>
		<path class="st10" d="M504.9,466.6c-1.4,0-37.4-6.6-39.2-43.7c-1.8-37.1,21.1-45.1,14.9-86.7c-6.2-41.5-22.1-54.2,13.3-82.5
			c0,0,15.8-11.3,16.5-28.3c0.8-20.3,32.5-42.3,53.8-27.7c21.3,14.7,16.4,35.4-1.7,68.4c-18.1,33-0.5,39.8,3,51
			c3.5,11.2,11.7,23.1-6.8,48.4c-18.5,25.3,3.8,58.4-12,82.7C546.8,448.2,532.9,466.1,504.9,466.6z"/>
		<g>
			<path class="st11" d="M510.7,523.6c0.8-0.2,1.3-1,1.1-1.9c-19.8-114.1,19.1-266.3,19.5-267.8c0.2-0.9-0.2-1.8-1-2.1
				c-0.8-0.3-1.6,0.2-1.9,1.1c-0.4,1.5-39.4,154.5-19.5,269.3C509,523.2,509.8,523.8,510.7,523.6
				C510.7,523.7,510.7,523.6,510.7,523.6z"/>
			<path class="st11" d="M518,313.8c0.1,0,0.2,0,0.2-0.1c0.8-0.3,1.1-1.3,0.8-2.2c-0.1-0.2-8.2-20.6-11.6-37.8
				c-0.2-0.9-1-1.5-1.8-1.4c-0.8,0.1-1.3,1-1.2,1.9c3.4,17.6,11.7,38.3,11.8,38.5C516.6,313.6,517.3,314,518,313.8z"/>
			<path class="st11" d="M512.9,347.8c0.2,0,0.4-0.1,0.6-0.3c7.6-6.6,26.8-18.8,27-18.9c0.7-0.5,0.9-1.5,0.5-2.3
				c-0.4-0.8-1.4-1.1-2.1-0.7c-0.8,0.5-19.5,12.4-27.3,19.2c-0.6,0.6-0.7,1.6-0.2,2.4C511.8,347.7,512.4,347.9,512.9,347.8z"/>
			<path class="st11" d="M508.8,380.8c0.1,0,0.2-0.1,0.3-0.1c0.7-0.4,1-1.4,0.7-2.2l-10.8-24c-0.4-0.8-1.3-1.2-2-0.8
				c-0.7,0.4-1,1.4-0.7,2.2l10.8,24C507.4,380.6,508.1,381,508.8,380.8z"/>
		</g>
	</g>
	<path class="st12" d="M407.1,416.5l8.9,7l-14.7,29.9l4.2,4.1l21.6-34.8c0.9-1.7,0.5-3.9-1-5.2l-11.8-10.7L407.1,416.5z"/>
	<path class="st12" d="M353,408.9l-14.8,13.2L313,404.1l-6.1,5.6l30.1,25.5c1.3,1.4,3.4,1.4,4.8,0.1l17.6-15.8L353,408.9z"/>
	<path class="st13" d="M364.1,393.1c0,0-1.2-0.8-15.9,15.6l11.4,15.3l6.7-7.4L364.1,393.1z"/>
	<path class="st13" d="M376,390.2l-10.2,2.3c-2.7,0.6-4.8,2.8-5.1,5.6l-6.8,57.3l42.2-2.8l2.9-54c0.2-3.6-2.5-6.7-6-7L376,390.2z"/>
	<polygon class="st12" points="414.8,589.2 411.7,571.8 401.6,573.1 405.4,590.8 	"/>
	<polygon class="st12" points="356.1,588.7 356.8,570.4 346.6,570.1 346.9,588.3 	"/>
	<polygon class="st14" points="354,455.4 350.5,472.3 398.4,470 396.2,452.6 	"/>
	<polygon class="st14" points="374,465.7 363.2,512.1 360.3,582.9 344.2,582.3 343.2,511.7 351.5,467.8 	"/>
	<polygon class="st15" points="372.3,471.2 360,471.7 369.8,480.6 	"/>
	<polygon class="st14" points="398.1,467.7 403,512.7 417.2,581 400.8,584.5 383.4,515.5 376.1,465.7 	"/>
	<g>
		<path class="st16" d="M346.9,588.3l9.3,0.4l-0.3,13.9l-28.7,1.6l0,0c0.3-2.2,1.7-3.8,3.8-4.2l15.6-5.4L346.9,588.3z"/>
		<polygon class="st17" points="355.9,602.6 327.1,604.2 327,606.3 355.8,604.7 		"/>
	</g>
	<g>
		<path class="st16" d="M405.4,590.8l9.5-1.6l2.4,13.7l-27.4,2.1l0,0c-0.1-2.2,1-4.1,2.9-5l13.8-3.1L405.4,590.8z"/>
		<polygon class="st17" points="417.2,602.9 389.8,605 390.1,607.1 417.5,605 		"/>
	</g>
	<g>
		<path class="st18" d="M377.9,397.1l-1.1,0c-2.9-0.1-5.1-2.5-5-5.4l0.7-19.7l11.5,0.5l-0.7,19.6C383.3,395,380.8,397.2,377.9,397.1
			z"/>
		<g>
			<path class="st12" d="M377.2,388.7l-12.7-0.3c-4.3-0.1-7.7-3.6-7.6-7.9l0.5-22.9l28.2,0.7l-0.5,22.9
				C385,385.4,381.5,388.8,377.2,388.7z"/>
			<path class="st19" d="M385.2,371.1l-4,0c-1.1,0-1.9-1-1.7-2.1c0.6-2.9,1.3-7.9-0.6-8.5c-2.7-0.9-17.1,2.7-22-1.1
				c-6.8-5.4-1.7-13.7,4.5-14c6.2-0.3,5.2,6.9,12.5,6.9c7.3,0,18.3-2.7,13.3,16.5L385.2,371.1z"/>
			<circle class="st12" cx="385.7" cy="371.9" r="4.4"/>
			<path class="st20" d="M360.1,377.4l9.4,0.6c0,0-0.7,4.2-5.8,3.5C359.8,381,360.1,377.4,360.1,377.4z"/>
		</g>
	</g>
	<path class="st13" d="M394.9,392c0,0,2.3,0.2,21.2,11.6l-8.4,17l-11.1-5.9L394.9,392z"/>
	<circle class="st12" cx="307.6" cy="408.1" r="6.9"/>
	<line class="st21" x1="312" y1="405.5" x2="302" y2="397.6"/>
	<circle class="st12" cx="401.5" cy="458.4" r="7.3"/>
	<polyline class="st22" points="217.3,407.4 220.3,410.3 220.3,424.5 217.7,427.1 	"/>
	<g>
		<path class="st20" d="M255.3,360.6h22c4,0,7.3-3.3,7.3-7.3v-22c0-4-3.3-7.3-7.3-7.3h-22c-4,0-7.3,3.3-7.3,7.3v22
			C247.9,357.3,251.2,360.6,255.3,360.6L255.3,360.6z M273.3,330.6c0.4-0.4,0.8-0.6,1.4-0.6c0.5,0,1,0.2,1.4,0.6
			c0.4,0.4,0.6,0.8,0.6,1.4c0,0.6-0.2,1-0.6,1.4c-0.4,0.4-0.8,0.5-1.4,0.5c-0.5,0-1-0.2-1.4-0.5c-0.4-0.4-0.5-0.8-0.5-1.4
			C272.8,331.5,272.9,331,273.3,330.6L273.3,330.6z M270.1,336.9c0-0.7,0.3-1.2,0.7-1.7c0.5-0.5,1.1-0.7,1.7-0.7h4.3
			c0.7,0,1.3,0.3,1.7,0.7c0.5,0.5,0.7,1.1,0.7,1.7v6c0,0.2-0.1,0.4-0.2,0.6c-0.2,0.2-0.3,0.2-0.6,0.2c-0.2,0-0.4-0.1-0.6-0.2
			c-0.2-0.2-0.2-0.4-0.2-0.6v-5.4h-0.5v14.9c0,0.3-0.1,0.6-0.3,0.8c-0.2,0.2-0.5,0.3-0.8,0.3c-0.3,0-0.6-0.1-0.8-0.3
			c-0.2-0.2-0.3-0.5-0.3-0.8v-8.6h-0.5v8.6c0,0.3-0.1,0.6-0.3,0.8c-0.2,0.2-0.5,0.3-0.8,0.3c-0.3,0-0.6-0.1-0.8-0.3
			c-0.2-0.2-0.4-0.5-0.4-0.8v-14.9h-0.4v5.4c0,0.2-0.1,0.4-0.2,0.6c-0.2,0.2-0.4,0.2-0.6,0.2c-0.2,0-0.4-0.1-0.6-0.2
			c-0.2-0.2-0.3-0.4-0.3-0.6V336.9z M266.1,328.5h1.9V356h-1.9V328.5z M257.3,330.6c0.4-0.4,0.9-0.6,1.4-0.6c0.5,0,1,0.2,1.3,0.6
			c0.4,0.4,0.5,0.8,0.5,1.4c0,0.6-0.2,1-0.5,1.4c-0.4,0.4-0.8,0.5-1.3,0.5c-0.6,0-1-0.2-1.4-0.5c-0.4-0.4-0.6-0.8-0.6-1.4
			C256.8,331.5,257,331,257.3,330.6L257.3,330.6z M253.3,341.9c0-0.1,0.1-0.3,0.2-0.7c0.1-0.4,0.2-0.8,0.4-1.4
			c0.2-0.5,0.3-1.1,0.5-1.8c0.2-0.6,0.4-1.3,0.6-1.8c0.1-0.5,0.4-0.9,0.8-1.2c0.4-0.4,0.9-0.5,1.3-0.5h3.1c0.5,0,0.9,0.2,1.3,0.5
			c0.4,0.4,0.7,0.8,0.9,1.2c0.2,0.6,0.4,1.2,0.5,1.8c0.2,0.6,0.4,1.2,0.5,1.8c0.2,0.5,0.3,1,0.4,1.4c0.1,0.4,0.2,0.6,0.2,0.7l0,0.2
			c0,0.4-0.2,0.6-0.5,0.7l-0.2,0.1c-0.4,0-0.6-0.2-0.8-0.6c0-0.1-0.1-0.5-0.3-1.1c-0.2-0.6-0.3-1.2-0.5-1.8
			c-0.2-0.6-0.4-1.4-0.7-2.4h-0.4l2.6,8.8h-2.5v6.7c0,0.3-0.1,0.5-0.3,0.6c-0.2,0.2-0.4,0.3-0.6,0.3c-0.3,0-0.5-0.1-0.7-0.3
			c-0.2-0.2-0.2-0.4-0.2-0.6v-6.7h-0.5v6.7c0,0.3-0.1,0.5-0.2,0.6c-0.2,0.2-0.4,0.3-0.6,0.3c-0.3,0-0.5-0.1-0.7-0.3
			c-0.2-0.2-0.3-0.4-0.3-0.6v-6.7h-2.5l2.6-8.8h-0.4c-0.3,1-0.5,1.8-0.7,2.4c-0.2,0.6-0.4,1.2-0.5,1.8c-0.2,0.6-0.3,0.9-0.3,1.1
			c-0.1,0.4-0.4,0.6-0.8,0.6l-0.2-0.1c-0.4-0.1-0.5-0.4-0.5-0.7C253.3,342,253.3,342,253.3,341.9L253.3,341.9z M253.3,341.9"/>
	</g>
	<path class="st20" d="M586.5,595.8"/>
	<path class="st23" d="M142.8,233.2c0,0-4.6-6-7.4-8.8c-5.1-5-10.9-13.8-29.5-7.3c-1.4,0.5-2.9,1.2-4.2,1.9
		c-1.6,0.8-6.7,0.8-11.9-3.9c-8.3-7.5-11.5-13.2-22.9-13.3c-13.2-0.2-15.3,18.6-25.5,23.4c-6.5,3.1-23.7,6.1-27.3,7.5L142.8,233.2z"
		/>
	<path class="st23" d="M380.2,254.7c0,0,2.6-3,4.2-4.4c2.9-2.5,6.2-6.9,16.8-3.6c0.8,0.3,1.6,0.6,2.4,0.9c0.9,0.4,3.8,0.4,6.8-1.9
		c4.7-3.7,6.6-6.6,13-6.6c7.5-0.1,8.7,9.3,14.5,11.7c3.7,1.5,13.5,3,15.5,3.7L380.2,254.7z"/>
</g>
</svg>
