<?xml version="1.0" encoding="utf-8"?>
<!-- Generator: Adobe Illustrator 23.0.3, SVG Export Plug-In . SVG Version: 6.00 Build 0)  -->
<svg version="1.1" id="Layer_1" xmlns="http://www.w3.org/2000/svg" xmlns:xlink="http://www.w3.org/1999/xlink" x="0px" y="0px"
	 viewBox="0 0 223.7 166" style="enable-background:new 0 0 223.7 166;" xml:space="preserve">
<style type="text/css">
	.st0{fill:none;}
	.st1{opacity:0.2;clip-path:url(#SVGID_2_);}
	.st2{fill:#E8E9F5;}
	.st3{clip-path:url(#SVGID_4_);fill:none;}
	.st4{fill:#DCDFF1;}
	.st5{fill:#36A7DF;}
	.st6{fill:none;stroke:#FFFFFF;stroke-width:2;stroke-linecap:round;stroke-linejoin:round;stroke-miterlimit:10;}
	.st7{fill:none;stroke:#E4E9ED;stroke-width:5;stroke-linecap:round;stroke-miterlimit:10;}
	.st8{fill:#E4E9ED;}
	.st9{fill:#3271B3;}
	.st10{fill:none;stroke:#E4E9ED;stroke-width:3;stroke-linecap:round;stroke-linejoin:round;stroke-miterlimit:10;}
	.st11{fill:#FFFFFF;}
	.st12{fill:#256293;}
	.st13{fill:#66A3D8;}
	.st14{fill:#89B4E0;}
	.st15{opacity:0.7;}
	.st16{fill:#528AC8;}
	.st17{fill:#2C1F56;}
	.st18{fill:#EC9C7F;}
	.st19{fill:#2E3088;}
	.st20{fill:#393795;}
	.st21{fill:#F3A949;}
	.st22{fill:#FDC066;}
	.st23{clip-path:url(#SVGID_6_);}
	.st24{opacity:0.2;}
	.st25{clip-path:url(#SVGID_8_);fill:#DFE1F1;}
	.st26{fill:#3A3F5D;}
	.st27{fill:#ECEDF7;}
	.st28{fill:#9C505F;}
	.st29{fill:none;stroke:#242E66;stroke-width:0.7608;stroke-linecap:round;stroke-linejoin:round;stroke-miterlimit:10;}
	.st30{fill:#F26750;}
	.st31{fill:#F8A286;}
	.st32{fill:#244CA0;}
	.st33{fill:#FEC055;}
	.st34{fill:#F68F79;}
	.st35{fill:none;stroke:#CC4634;stroke-miterlimit:10;}
	.st36{fill:#242E66;}
	.st37{fill:none;stroke:#27437B;stroke-width:0.7608;stroke-linecap:round;stroke-linejoin:round;stroke-miterlimit:10;}
	.st38{fill:#FDE3C8;}
	.st39{fill:none;stroke:#E29125;stroke-width:0.7608;stroke-linecap:round;stroke-linejoin:round;stroke-miterlimit:10;}
	.st40{fill:#D6DAEE;}
</style>
<g>
	<defs>
		<rect id="SVGID_5_" x="0" width="223.7" height="166"/>
	</defs>
	<clipPath id="SVGID_2_">
		<use xlink:href="#SVGID_5_"  style="overflow:visible;"/>
	</clipPath>
	<g style="clip-path:url(#SVGID_2_);">
		<rect x="83.7" y="82.3" class="st0" width="29.2" height="7.4"/>
		<rect x="65.7" y="82.3" class="st0" width="30" height="7.6"/>
		<rect x="78" y="81" class="st0" width="29.2" height="7.4"/>
		<rect x="50.6" y="57.4" class="st9" width="3" height="8"/>
		<g class="st24">
			<path class="st2" d="M84.3,73.9c-3,3.5-5.5,6.9-2.8,10.4c1.3,1.7,3.8,3.3,6.8,6c13,11.8-1.3,17.9-18.2,18.1
				c-16.9,0.3-51.5-1-55.9,27.2c-2.5,16,4,54.5,89.6,63.1c77.1,7.8,121.8-24.6,110.3-42.4s-24.4-25.4-17.7-33.6
				c10-12.3,17.2-13.8,18.9-31.5C219.8,45,118,34.5,84.3,73.9z"/>
			<g>
				<g>
					<defs>
						<path id="SVGID_7_" d="M84.3,73.9c-3,3.5-5.5,6.9-2.8,10.4c1.3,1.7,3.8,3.3,6.8,6c13,11.8-1.3,17.9-18.2,18.1
							c-16.9,0.3-51.5-1-55.9,27.2c-2.5,16,4,54.5,89.6,63.1c77.1,7.8,121.8-24.6,110.3-42.4s-24.4-25.4-17.7-33.6
							c10-12.3,17.2-13.8,18.9-31.5C219.8,45,118,34.5,84.3,73.9z"/>
					</defs>
					<clipPath id="SVGID_4_">
						<use xlink:href="#SVGID_7_"  style="overflow:visible;"/>
					</clipPath>
					<path style="clip-path:url(#SVGID_4_);fill:#DFE1F1;" d="M78.2,59.9c0,0,10.2,30.5,33.3,56.4c11.7,13.1,69.5,41.5,41.2,60.2
						C18.6,265.1,8.5,129.6,8.5,129.6l36.9-60L78.2,59.9z"/>
				</g>
			</g>
		</g>
		<g>
			<g>
				<rect x="103.3" y="40.7" class="st26" width="2" height="30.4"/>
			</g>
			<path class="st14" d="M110.4,42.6h-12c-1.6,0-2.9-1.3-2.9-2.9V10.5c0-1.6,1.3-2.9,2.9-2.9h12c1.6,0,2.9,1.3,2.9,2.9v29.2
				C113.3,41.3,112,42.6,110.4,42.6z"/>
			<path class="st27" d="M109.8,16.4c0,3-2.4,5.4-5.4,5.4S99,19.3,99,16.4s2.4-5.4,5.4-5.4C107.3,11,109.8,13.4,109.8,16.4z"/>
			<path class="st26" d="M108.9,16.4c0,2.5-2,4.5-4.5,4.5c-2.5,0-4.5-2-4.5-4.5c0-2.5,2-4.5,4.5-4.5
				C106.9,11.9,108.9,13.9,108.9,16.4z"/>
			<path class="st27" d="M106.1,16.4c0,0.9-0.8,1.7-1.7,1.7s-1.7-0.8-1.7-1.7c0-0.9,0.8-1.7,1.7-1.7
				C105.3,14.7,106.1,15.4,106.1,16.4z"/>
			<path class="st27" d="M109.8,32.7c0,3-2.4,5.4-5.4,5.4S99,35.7,99,32.7s2.4-5.4,5.4-5.4C107.3,27.3,109.8,29.7,109.8,32.7z"/>
			<ellipse class="st26" cx="104.4" cy="32.7" rx="4.5" ry="4.5"/>
			<path class="st27" d="M106.1,32.7c0,0.9-0.8,1.7-1.7,1.7s-1.7-0.8-1.7-1.7c0-0.9,0.8-1.7,1.7-1.7C105.3,31,106.1,31.7,106.1,32.7
				z"/>
			<polygon class="st26" points="104.4,68.8 96.7,73.1 104.4,73.1 112,73.1 			"/>
		</g>
		<g>
			<g>
				<path class="st12" d="M158,98.1c0,0,0.8,0.8,1.7,1.2C159.7,99.4,159.5,98.8,158,98.1z"/>
				<path class="st12" d="M157.8,96.8c0,0,1.7,1.6,3.4,2.4C161.3,99.3,160.9,98.3,157.8,96.8z"/>
				<path class="st12" d="M160,97.3c0,0,1.4,1.3,2.8,2C162.8,99.3,162.5,98.5,160,97.3z"/>
				<path class="st12" d="M166.6,97.1c0,0-1.6,1.5-3.2,2.3C163.4,99.3,163.8,98.4,166.6,97.1z"/>
				<path class="st12" d="M166.5,98.1c0,0-0.8,0.8-1.7,1.2C164.8,99.4,165,98.8,166.5,98.1z"/>
			</g>
			<path class="st12" d="M167.8,98.1c0,0-0.8,0.8-1.7,1.2C166.1,99.4,166.3,98.8,167.8,98.1z"/>
		</g>
		<g>
			<g>
				<path class="st12" d="M117.3,129.6c0,0,0.8,0.8,1.7,1.2C119,130.8,118.8,130.3,117.3,129.6z"/>
				<path class="st12" d="M117.1,128.3c0,0,1.7,1.6,3.4,2.4C120.5,130.8,120.1,129.7,117.1,128.3z"/>
				<path class="st12" d="M119.3,128.8c0,0,1.4,1.3,2.8,2C122.1,130.8,121.7,129.9,119.3,128.8z"/>
				<path class="st12" d="M125.9,128.5c0,0-1.6,1.5-3.2,2.3C122.7,130.8,123,129.8,125.9,128.5z"/>
				<path class="st12" d="M125.8,129.6c0,0-0.8,0.8-1.7,1.2C124.1,130.8,124.3,130.3,125.8,129.6z"/>
			</g>
			<path class="st12" d="M127.1,129.6c0,0-0.8,0.8-1.7,1.2C125.4,130.8,125.6,130.3,127.1,129.6z"/>
		</g>
		<g>
			<g>
				<path class="st12" d="M174.7,144.6c0,0,0.8,0.8,1.7,1.2C176.5,145.9,176.3,145.3,174.7,144.6z"/>
				<path class="st12" d="M174.6,143.3c0,0,1.7,1.6,3.4,2.4C178,145.8,177.6,144.7,174.6,143.3z"/>
				<path class="st12" d="M176.7,143.8c0,0,1.4,1.3,2.8,2C179.6,145.8,179.2,144.9,176.7,143.8z"/>
				<path class="st12" d="M183.3,143.5c0,0-1.6,1.5-3.2,2.3C180.1,145.8,180.5,144.8,183.3,143.5z"/>
				<path class="st12" d="M183.3,144.6c0,0-0.8,0.8-1.7,1.2C181.5,145.9,181.8,145.3,183.3,144.6z"/>
			</g>
			<path class="st12" d="M184.5,144.6c0,0-0.8,0.8-1.7,1.2C182.8,145.9,183,145.3,184.5,144.6z"/>
		</g>
		<g>
			<g>
				<path class="st12" d="M186.9,104.6c0,0,0.8,0.8,1.7,1.2C188.7,105.8,188.5,105.3,186.9,104.6z"/>
				<path class="st12" d="M186.8,103.3c0,0,1.7,1.6,3.4,2.4C190.2,105.7,189.8,104.7,186.8,103.3z"/>
				<path class="st12" d="M188.9,103.7c0,0,1.4,1.3,2.8,2C191.8,105.7,191.4,104.9,188.9,103.7z"/>
				<path class="st12" d="M195.6,103.5c0,0-1.6,1.5-3.2,2.3C192.3,105.8,192.7,104.8,195.6,103.5z"/>
				<path class="st12" d="M195.5,104.6c0,0-0.8,0.8-1.7,1.2C193.7,105.8,193.9,105.3,195.5,104.6z"/>
			</g>
			<path class="st12" d="M196.7,104.6c0,0-0.8,0.8-1.7,1.2C195,105.8,195.2,105.3,196.7,104.6z"/>
		</g>
		<g>
			<g>
				<path class="st12" d="M119.1,74.8c0,0,0.8,0.8,1.7,1.2C120.8,76,120.6,75.5,119.1,74.8z"/>
				<path class="st12" d="M118.9,73.5c0,0,1.7,1.6,3.4,2.4C122.4,76,121.9,74.9,118.9,73.5z"/>
				<path class="st12" d="M121.1,74c0,0,1.4,1.3,2.8,2C123.9,76,123.6,75.1,121.1,74z"/>
				<path class="st12" d="M127.7,73.7c0,0-1.6,1.5-3.2,2.3C124.5,76,124.9,75,127.7,73.7z"/>
				<path class="st12" d="M127.6,74.8c0,0-0.8,0.8-1.7,1.2C125.9,76,126.1,75.5,127.6,74.8z"/>
			</g>
			<path class="st12" d="M128.9,74.8c0,0-0.8,0.8-1.7,1.2C127.2,76,127.4,75.5,128.9,74.8z"/>
		</g>
		<path class="st14" d="M203.5,55.8c-5.3,4-13.9,0.4-18.6-3.7c-0.8-0.7-1.5-1.7-1.7-2.7c-1.1-5.2,7-6.4,7.3-11
			c0.1-2-1.4-3.7-2.5-5.4c-2.5-3.8-3.3-8.7-2.8-13.3c0.5-4.6,2.2-8.9,4.2-13.1c1.6-3.4,4.6-7.3,8.2-6.4c2.4,0.5,3.9,2.9,4.6,5.2
			c0.9,3.2,0.8,6.6,0.2,9.9c-0.3,1.5-0.7,2.9-0.3,4.4c1,3.6,6.1,4.5,8,7.8c1.9,3.3-0.4,7.4-2.5,10.7c-1.8,2.8-2.9,4.5-1.7,6.9
			c0.3,0.6,0.8,1.2,1.3,1.6C208.5,47.5,210.6,50.4,203.5,55.8z"/>
		<g>
			<path class="st28" d="M196.5,9.5c0,1.2-1.2,63.8-1.2,63.8l4.5,0.4L196.5,9.5z"/>
			<g>
				<path class="st28" d="M196.7,54l-9.3-9.9l10.1,9c0.3,0.2,0.3,0.6,0,0.8C197.4,54.2,197,54.2,196.7,54
					C196.7,54,196.7,54,196.7,54z"/>
			</g>
			<g>
				<path class="st28" d="M195.8,25.6l-3.8-7.4l4.5,6.9c0.1,0.2,0.1,0.5-0.1,0.6C196.3,25.9,196,25.8,195.8,25.6
					C195.9,25.6,195.9,25.6,195.8,25.6z"/>
			</g>
			<g>
				<path class="st28" d="M197.5,41l9-13.6L197.5,41z"/>
				<path class="st28" d="M197,40.7l9.5-13.3l-8.5,13.9c-0.1,0.3-0.5,0.4-0.8,0.2C196.9,41.4,196.8,41,197,40.7
					C197,40.7,197,40.7,197,40.7z"/>
			</g>
		</g>
		<g>
			<path class="st13" d="M191.3,60.9c-3.5,2.6-9.1,0.2-12.3-2.5c-0.5-0.5-0.9-1.1-1.1-1.8c-0.7-3.4,4.6-4.2,4.8-7.3
				c0.1-1.3-0.9-2.4-1.7-3.6c-1.7-2.5-2.2-5.7-1.8-8.8c0.4-3,1.5-5.9,2.8-8.7c1.1-2.2,3-4.8,5.4-4.2c1.6,0.4,2.6,1.9,3,3.4
				c0.6,2.1,0.5,4.4,0.1,6.5c-0.2,0.9-0.4,2-0.2,2.9c0.7,2.4,4,2.9,5.3,5.1c1.2,2.2-0.3,4.9-1.6,7c-1.2,1.8-1.9,3-1.1,4.5
				c0.2,0.4,0.5,0.8,0.9,1.1C194.6,55.4,196,57.4,191.3,60.9z"/>
			<g>
				<path class="st28" d="M186.3,29.6c0,0.8-1.1,39.5-1.1,39.5l3.2,0.3L186.3,29.6z"/>
				<g>
					<path class="st28" d="M187.2,53l6.6-7l-7.2,6.4c-0.2,0.1-0.2,0.4,0,0.6C186.8,53.2,187,53.2,187.2,53
						C187.2,53,187.2,53,187.2,53z"/>
				</g>
				<g>
					<path class="st28" d="M185.8,41l-2.7-5.2l3.2,4.9c0.1,0.1,0,0.3-0.1,0.4C186.1,41.2,185.9,41.1,185.8,41
						C185.8,41,185.8,41,185.8,41z"/>
				</g>
				<path class="st28" d="M187,51.9l6.4-9.6L187,51.9z"/>
			</g>
		</g>
		<g>
			<path class="st5" d="M46.6,42.5v95.3h57.7V42.5C104.4,42.5,76.7,12.6,46.6,42.5z"/>
			<path class="st6" d="M52.3,48v82.5H99V48C99,48,76.5,27.6,52.3,48z"/>
			<path class="st7" d="M44.6,40.7c0,0,27.3-25.1,61,0"/>
			<path class="st8" d="M105.7,142.4H45.4c-1.3,0-2.3-1.1-2.3-2.3v-0.8c0-1.3,1.1-2.3,2.3-2.3h60.3c1.3,0,2.3,1.1,2.3,2.3v0.8
				C108,141.4,107,142.4,105.7,142.4z"/>
			<path class="st9" d="M86.1,114.7H64.5c-0.3,0-0.4-0.2-0.4-0.4v-0.4c0-0.3,0.2-0.4,0.4-0.4h21.6c0.3,0,0.4,0.2,0.4,0.4v0.4
				C86.6,114.4,86.3,114.7,86.1,114.7z"/>
			<path class="st9" d="M86.1,118H64.5c-0.3,0-0.4-0.2-0.4-0.4v-0.4c0-0.3,0.2-0.4,0.4-0.4h21.6c0.3,0,0.4,0.2,0.4,0.4v0.4
				C86.6,117.8,86.3,118,86.1,118z"/>
			<path class="st9" d="M86.1,121.4H64.5c-0.3,0-0.4-0.2-0.4-0.4v-0.4c0-0.3,0.2-0.4,0.4-0.4h21.6c0.3,0,0.4,0.2,0.4,0.4v0.4
				C86.6,121.2,86.3,121.4,86.1,121.4z"/>
			<rect x="50.6" y="114.9" class="st9" width="3" height="8"/>
			<polyline class="st10" points="92.2,81 93.3,82.1 93.3,87.2 92.3,88.1 			"/>
			<g>
				<path class="st11" d="M71.5,64h8c1.5,0,2.6-1.2,2.6-2.6v-8c0-1.5-1.2-2.6-2.6-2.6h-8c-1.5,0-2.6,1.2-2.6,2.6v8
					C68.8,62.8,70,64,71.5,64L71.5,64z M78.1,53.2c0.1-0.1,0.3-0.2,0.5-0.2c0.2,0,0.4,0.1,0.5,0.2c0.1,0.1,0.2,0.3,0.2,0.5
					c0,0.2-0.1,0.4-0.2,0.5s-0.3,0.2-0.5,0.2c-0.2,0-0.4-0.1-0.5-0.2c-0.1-0.1-0.2-0.3-0.2-0.5C77.8,53.4,77.9,53.3,78.1,53.2
					L78.1,53.2z M76.9,55.4c0-0.3,0.1-0.4,0.3-0.6c0.2-0.2,0.4-0.3,0.6-0.3h1.6c0.3,0,0.5,0.1,0.6,0.3c0.2,0.2,0.3,0.4,0.3,0.6v2.2
					c0,0.1,0,0.1-0.1,0.2c-0.1,0.1-0.1,0.1-0.2,0.1c-0.1,0-0.1,0-0.2-0.1c-0.1-0.1-0.1-0.1-0.1-0.2v-2h-0.2v5.4c0,0.1,0,0.2-0.1,0.3
					c-0.1,0.1-0.2,0.1-0.3,0.1c-0.1,0-0.2,0-0.3-0.1c-0.1-0.1-0.1-0.2-0.1-0.3v-3.1h-0.2v3.1c0,0.1,0,0.2-0.1,0.3
					c-0.1,0.1-0.2,0.1-0.3,0.1s-0.2,0-0.3-0.1c-0.1-0.1-0.1-0.2-0.1-0.3v-5.4h-0.1v2c0,0.1,0,0.1-0.1,0.2c-0.1,0.1-0.1,0.1-0.2,0.1
					c-0.1,0-0.1,0-0.2-0.1c-0.1-0.1-0.1-0.1-0.1-0.2L76.9,55.4L76.9,55.4z M75.4,52.4h0.7v10h-0.7V52.4z M72.3,53.2
					c0.1-0.1,0.3-0.2,0.5-0.2c0.2,0,0.4,0.1,0.5,0.2c0.1,0.1,0.2,0.3,0.2,0.5c0,0.2-0.1,0.4-0.2,0.5c-0.1,0.1-0.3,0.2-0.5,0.2
					c-0.2,0-0.4-0.1-0.5-0.2C72.1,54,72,53.9,72,53.7S72.1,53.3,72.3,53.2L72.3,53.2z M70.8,57.3c0,0,0-0.1,0.1-0.3
					c0-0.1,0.1-0.3,0.1-0.5c0.1-0.2,0.1-0.4,0.2-0.7c0.1-0.2,0.1-0.5,0.2-0.7c0-0.2,0.1-0.3,0.3-0.4c0.1-0.1,0.3-0.2,0.5-0.2h1.1
					c0.2,0,0.3,0.1,0.5,0.2c0.1,0.1,0.3,0.3,0.3,0.4c0.1,0.2,0.1,0.4,0.2,0.7c0.1,0.2,0.1,0.4,0.2,0.7c0.1,0.2,0.1,0.4,0.1,0.5
					c0,0.1,0.1,0.2,0.1,0.3v0.1c0,0.1-0.1,0.2-0.2,0.3l-0.1,0c-0.1,0-0.2-0.1-0.3-0.2c0,0,0-0.2-0.1-0.4c-0.1-0.2-0.1-0.4-0.2-0.7
					c-0.1-0.2-0.1-0.5-0.3-0.9h-0.1l0.9,3.2h-0.9v2.4c0,0.1,0,0.2-0.1,0.2c-0.1,0.1-0.1,0.1-0.2,0.1c-0.1,0-0.2,0-0.3-0.1
					c-0.1-0.1-0.1-0.1-0.1-0.2v-2.4h-0.2v2.4c0,0.1,0,0.2-0.1,0.2c-0.1,0.1-0.1,0.1-0.2,0.1c-0.1,0-0.2,0-0.3-0.1
					C72,61.2,72,61.2,72,61.1v-2.4h-0.9l0.9-3.2h-0.1c-0.1,0.4-0.2,0.7-0.3,0.9c-0.1,0.2-0.1,0.4-0.2,0.7c-0.1,0.2-0.1,0.3-0.1,0.4
					c0,0.1-0.1,0.2-0.3,0.2l-0.1,0C70.8,57.5,70.8,57.4,70.8,57.3C70.8,57.3,70.8,57.3,70.8,57.3L70.8,57.3z"/>
			</g>
		</g>
		<g>
			<g>
				<path class="st12" d="M133.4,159.7c0,0,0.9,0.8,1.8,1.3C135.2,160.9,134.9,160.4,133.4,159.7z"/>
				<path class="st12" d="M133.2,158.3c0,0,1.7,1.6,3.6,2.5C136.8,160.9,136.3,159.8,133.2,158.3z"/>
				<path class="st12" d="M135.5,158.8c0,0,1.4,1.3,2.9,2.1C138.4,160.9,138,160,135.5,158.8z"/>
				<path class="st12" d="M142.3,158.5c0,0-1.6,1.5-3.3,2.4C139,160.9,139.4,159.9,142.3,158.5z"/>
				<path class="st12" d="M142.2,159.7c0,0-0.9,0.8-1.8,1.3C140.4,160.9,140.6,160.4,142.2,159.7z"/>
			</g>
			<path class="st12" d="M143.5,159.7c0,0-0.9,0.8-1.8,1.3C141.7,160.9,142,160.4,143.5,159.7z"/>
		</g>
		<g>
			<path class="st29" d="M178.8,151.1c0,0-1.1,0.7-1.4,0.1C177.1,150.7,178.8,151.1,178.8,151.1z"/>
			<path class="st29" d="M178.8,151.1c0,0-0.5,1.2-1.1,0.9C177.2,151.7,178.8,151.1,178.8,151.1z"/>
		</g>
		<path class="st30" d="M196.5,113.1l-9.4,1.2l-7.1,10.4c-2,2.9-3.6,5.7-3.4,9.2l2.6,17.7l1.5-2.7c0,0,1.1-10,0.8-16.2
			c4.1-4.5,9.9-10.4,9.9-10.4s2.2,15.3,3.3,28.3l1.7-0.3c0,0,3-10.6,1.5-16.8C196.3,127.4,201.5,123.7,196.5,113.1z"/>
		<path class="st31" d="M194.6,150.7l1.7-0.3c0,0,0.3,1.9,0.9,3c0.7,1.1,0.8,2.3-1.1,2.7C194.2,156.3,194.3,153.1,194.6,150.7z"/>
		<path class="st32" d="M196,87.6c-2.5-2.6-6.9-1.6-8,1.8c-0.3,0.8-0.4,1.8-0.5,3c-0.2,6.8,1,10.6-4.8,17.1
			c8.7,7.2,19.2-1.6,19.2-1.6S201.2,93,196,87.6z"/>
		<path class="st31" d="M187.4,99.6c0,0-4.1-8.2-4.9-11.5s-1.1-8.9-1.1-8.9l1.2-0.4c0,0,2,7,3.5,10.1c1.5,3.1,6.2,10,4.8,12.8
			S187.4,99.6,187.4,99.6z"/>
		<path class="st31" d="M181.4,79.1l1.2-0.4c0,0,0-4.2-0.4-4.4c-0.3-0.1-0.2,1.7-0.2,1.7s-0.8-2.9-1.1-3.1c-0.4-0.1,0.3,2.4,0.3,2.4
			s-0.8-2.6-1-2.5c-0.2,0.1,0,0.8,0.4,2.7c0,0-0.8-2.3-1-2.2c-0.1,0,0.3,1.8,0.5,2.4c-0.2-0.5-0.8-1.7-0.9-1.7
			C179.2,74.3,179.6,76.7,181.4,79.1z"/>
		<path class="st33" d="M186.3,102.9c2.6-7.8,7.2-7.2,9.9-5.3c2.7,1.9,0.3,15.5,0.3,15.5c-2.7,1.1-5.8,1.6-9.4,1.2
			C187.1,114.3,185.5,105.2,186.3,102.9z"/>
		<path class="st31" d="M198.8,99.1c0,0,6.1,5.6,5.7,7.5c-0.4,1.9-8.3,7.5-8.3,7.5l-0.7-1c-0.1-0.2-0.1-0.4,0-0.6l4.9-6.2
			c0,0-6.1-4.9-6.5-6.6C193.4,97.2,196.5,96.4,198.8,99.1z"/>
		<path class="st34" d="M194.3,93.4c0,0.9,0,1.9,0,2.8c0,0.4,0.1,0.8-0.1,1.2c-0.3,0.6-1.5,1.3-2.2,1.3c-1.3,0-0.9-1.7-0.9-2.7
			c0-1-0.1-2-0.1-3C192.1,93.2,193.3,93.3,194.3,93.4z"/>
		<path class="st32" d="M197,152.2c0,0-0.3-1.1-1.3-1.1s-1.2,1.3-1.2,1.3s-0.7,3.8,1.2,3.8s2.2-0.8,2.2-1.6
			C197.9,153.8,197,152.2,197,152.2z"/>
		<path class="st31" d="M195.9,91.1c0,0,1-0.5,1.1,0.7c0.1,1.2-1.3,1.5-1.3,1.5s-1.5,1.8-3.7,2.3c-1.3,0.3-2.2-0.4-2.6-1.7
			c-0.7-2.7,0.1-6.1,1.7-6.7C193,86.4,195.8,87.9,195.9,91.1z"/>
		<path class="st11" d="M192.1,93.8c0,0-1.1-0.1-2-0.5c0,0,0.2,0.6,0.9,0.8C191.7,94.3,192.1,93.8,192.1,93.8z"/>
		<path class="st32" d="M190.7,87.2c0,0,0.6,5.2,5.3,3.8C196.4,88.6,195.4,86.4,190.7,87.2z"/>
		<path class="st29" d="M195.7,152.3c0,0-1.1-0.7-1.2,0c-0.2,1.1,2.6-0.8,2.8-0.3C197.4,152.5,196.6,152.7,195.7,152.3z"/>
		<line class="st35" x1="189.1" y1="121.5" x2="191.3" y2="122.3"/>
		<path class="st35" d="M179.9,149.9c0,0,0.4-13.4,0.4-17.2c0.6-1.8,9.9-10.6,9.9-10.6"/>
		<line class="st35" x1="193.3" y1="114.9" x2="196" y2="114.2"/>
		<path class="st35" d="M195.8,113.3c0,0,2.2,5.9,1.2,13.1c-0.9,5.8,0.7,9.9,0.3,13.5c-0.4,3.6-1.4,10.4-1.4,10.4"/>
		<path class="st31" d="M196.7,112.1l-1.3,0.6c0,0,0.7,4.7,1.1,4.6c0.3,0,0.1-1.9,0.1-1.9s0.9,2.3,2.1,3.1c0.5,0.1,0.1-0.5,0.1-0.5
			s-0.1-0.3,0-0.8c0-0.2,0-0.5-0.1-0.9c-0.2-0.8-0.5-1.6-0.9-2.4C197.5,113.4,197.1,112.7,196.7,112.1z"/>
		<path class="st32" d="M179.8,152.6c0.4-0.5,0.9-0.9,1.3-1.3c0.5-0.4,1-0.9,1.2-1.2c0.3-0.6-1.5-2.2-1.7-2c-0.7,0.6,0,0.8-0.6,1.7
			c-0.7,0.9-1.3,0-1.6,0.6s0.1,1.2-0.6,2.2c-0.8,1-0.4,1.6-0.1,1.6C177.9,154.3,179.1,153.4,179.8,152.6z"/>
		<path class="st35" d="M189.6,114.4c0,0-1.2,4.4,0.2,7.4"/>
		<path class="st35" d="M190.9,114.4c0,0-0.9,4.8,0.1,7.8"/>
		<path class="st35" d="M192.7,114.1c0,0,0.7,5.2,4.3,5.2"/>
		<path class="st35" d="M188.3,114.4c0,0,0.2,4.2-3.9,4"/>
		<line class="st35" x1="186.9" y1="115" x2="187.8" y2="115.2"/>
		<line class="st35" x1="188.5" y1="115.3" x2="189.1" y2="115.3"/>
		<line class="st35" x1="189.7" y1="115.3" x2="190.3" y2="115.3"/>
		<line class="st35" x1="191" y1="115.2" x2="192.5" y2="115"/>
		<path class="st29" d="M191.1,96.4c0,0,1.3,0.9,3.2-0.3"/>
		<path class="st29" d="M194.4,96.5c-1.9,1.2-3.2,0.3-3.2,0.3s-0.3,2.4,0.8,2.5C193.1,99.3,194.4,96.5,194.4,96.5z"/>
		<path class="st36" d="M192.2,99.7c0,0.2-0.2,0.4-0.4,0.4c-0.2,0-0.3-0.3-0.2-0.5c0-0.2,0.2-0.4,0.4-0.4
			C192.1,99.3,192.2,99.5,192.2,99.7z"/>
		<path class="st36" d="M128.1,80.1c0,0-2-2.5-5.2-0.9c-3.2,1.7-2.2,4.5-5.6,4.5s-8.3,1.3-6.9,5.8c1.4,4.6-1.5,6.4,3.5,9.8
			c5,3.3,9.5,3.3,13.7,0.7c4.2-2.6,6.5-0.9,8.6-5C138.1,90.9,132.3,77.7,128.1,80.1z"/>
		<path class="st32" d="M128.8,107l-7.9,0.5c-6.1,6.1,1.4,20,1.4,20l-8.2-0.7v2.2c0,0,11.6,6.1,13,3.3c1.4-2.7-1.3-16.8-1.3-16.8
			l5.2,12.8l-4.5,15.3l1.7,0.8c0,0,8-10,8-15.5C136.1,116,128.8,107,128.8,107z"/>
		<path class="st31" d="M129.5,96.6c0,0,1.7-2.1,3.3-5.4c1.6-3.3,4.9-6.6,3.2-9.6c-1.7-2.9-4.5-6.8-4.5-6.8l-0.9,1.1l3,8.1
			c0,0-4.5,4.1-6.6,7.3C124.9,94.5,128.1,97.9,129.5,96.6z"/>
		<path class="st31" d="M121.2,93.8c0,0-7.2-5.2-7.2-7.2c0-2,7.2-8.9,7.2-8.9l0.8,1.2l-4.1,7.8c0,0,7.8,3.2,8.5,5.8
			C127.1,95.1,124.1,96,121.2,93.8z"/>
		<path class="st31" d="M130.8,96.9c0.7-7.3-6.5-7.7-9.1-5.6c-2.6,2-0.9,16.3-0.9,16.3c2.7,0.5,5.4,0.4,7.9-0.5
			C128.8,107,130.3,103.3,130.8,96.9z"/>
		<path class="st33" d="M112.7,130.2c0.1-0.7,0.1-1.3,0.1-2c0-0.6,0-1.4,0.1-1.8c0.3-0.7,2.8-0.3,2.8,0c0,1-0.7,0.5-1,1.7
			c-0.3,1.2,0.8,1.1,0.6,1.7c-0.2,0.7-1,0.7-1.3,2c-0.3,1.3-1,1.5-1.3,1.2C112.6,132.9,112.5,131.3,112.7,130.2z"/>
		<path class="st31" d="M120.9,78.2l1.2,0.7c0,0,3.3-2.9,3.1-3.4c-0.1-0.3-1.5,1.1-1.5,1.1s1.8-2.7,1.6-3c-0.1-0.4-1.6,1.9-1.6,1.9
			s1.5-2.4,1.2-2.5c-0.2-0.1-0.6,0.5-1.9,2.2c0,0,1.3-2.2,1.1-2.4c-0.1-0.1-1.2,1.5-1.5,2.1c0.3-0.5,0.8-1.8,0.7-1.9
			C123.1,73,121.5,75,120.9,78.2z"/>
		<path class="st31" d="M131.5,74.9l-1,0.9c0,0-3.8-2.3-3.7-2.7c0.1-0.4,1.7,0.8,1.7,0.8s-2.2-2.3-2.2-2.7c0.1-0.4,2,1.6,2,1.6
			s-1.9-2.1-1.7-2.2c0.2-0.1,0.7,0.4,2.2,1.9c0,0-1.7-2-1.5-2.1c0.1-0.1,1.4,1.3,1.9,1.9c-0.3-0.4-1.2-1.6-1.1-1.7
			C128.3,70.2,130.3,71.9,131.5,74.9z"/>
		<path class="st31" d="M128.1,144.5c0,0,0.5,2.1,0.8,3.1c0.3,1,0.3,1.8,0.1,2.3c-0.2,0.5-2.1-0.5-2.8-1.8c-0.7-1.3,0-1.4-0.8-2.2
			c-0.8-0.9,1.1-2.1,1.1-2.1L128.1,144.5z"/>
		<path class="st34" d="M123.6,86.6l0.3,3.3c0.1,0.9,0.8,1.6,1.7,1.7h0h0c0.8,0,1.4-0.7,1.3-1.5l-0.2-4.1L123.6,86.6z"/>
		<path class="st30" d="M120.4,88.1c-0.3,1.3-1,2.4-2,3.2c-0.2,0.3-0.1,0.7,0.2,0.9l0.1,0c0.9,0.7,1.3,1.9,0.8,2.9
			c-0.7,1.7-1.7,4.5-2,7c0,3.3,5.2,3,8.6,1.5c4.2-1.9,7.2,0.1,7.5-1.1c0.8-2.6-0.5-5.9-1.4-7.7c-0.4-0.8-0.3-1.8,0.2-2.5l0.2-0.3
			c0-0.1,0.1-0.1,0.1-0.2c0.1-0.3-0.1-0.6-0.4-0.8c-1.1-0.7-1.9-1.6-2.4-2.8c-0.1-0.2-0.3-0.4-0.5-0.5s-0.4,0-0.6,0.2L127,90
			c0,0-0.3,1.1-1.4,1.1c-1.6,0-1.8-1.8-1.8-1.8s-1.2-0.8-2.5-1.5C121,87.7,120.4,87.6,120.4,88.1z"/>
		<path class="st33" d="M128.9,147.3c-0.2-0.6-0.3-1.3-0.3-2c0,0,0,0,0,0c0.1-0.7-1.3-1-1.6-0.4c-0.3,0.7-0.5-0.7-0.6-0.9
			c-0.1-0.3-0.8-0.1-1.6,1.3c-0.2,0.4,0.4,0.8,0.6,1.4s0.4,2.4,2.4,3.3C129.5,150.8,129.5,149,128.9,147.3z"/>
		<path class="st31" d="M122.4,84.4c0,0-0.9-0.5-1.1,0.7c-0.2,1.2,1.2,1.5,1.2,1.5s1.3,1.8,3.6,2.4c1.3,0.3,2.2-0.3,2.5-1.6
			c0.7-2.6,0.1-5.9-1.4-6.6C125.4,79.9,122.6,81.2,122.4,84.4z"/>
		<path class="st11" d="M126.1,87.2c0,0,1.1-0.1,2-0.4c0,0-0.2,0.6-0.9,0.8C126.5,87.6,126.1,87.2,126.1,87.2z"/>
		<path class="st36" d="M121.6,83.7c0,0,0.7,1.3,2.6,0.6c2-0.7,2.2-2.6,2.2-2.6s1.2,3.6,2.9,2.2C131.1,82.5,125.2,76,121.6,83.7z"/>
		<g>
			<path class="st29" d="M114.6,130.8c0,0,0.2,1.3-0.4,1.3C113.5,132.1,114.6,130.8,114.6,130.8z"/>
			<path class="st29" d="M114.6,130.8c0,0,0.9,0.9,0.4,1.3C114.5,132.4,114.6,130.8,114.6,130.8z"/>
		</g>
		<path class="st29" d="M127.7,145.8c0,0-0.9-0.9-1.2-0.3c-0.4,1,2.6-0.3,2.7,0.3C129.2,146.3,128.4,146.3,127.7,145.8z"/>
		<path class="st37" d="M120.8,107.5c0,0,4.4,1,7.9-0.5"/>
		<path class="st37" d="M120.5,107.8c0,0,2.1,0.7,4.8,0.4c2.6-0.3,3.7-1,3.7-1"/>
		<path class="st35" d="M117.5,101.7c0,0,0.4,2.1,3.1,2.3c2.7,0.1,5.9-1.6,8.3-1.9c2.4-0.2,4.7,0.2,4.7,0.2"/>
		<path class="st35" d="M120.9,87.6c0,0,0.1,3-2.5,4.4"/>
		<path class="st35" d="M128.9,88.2c0,0,1.2,3.2,3.7,4"/>
		<path class="st35" d="M123.8,89.4c0,0,0,1.9,1.9,1.8c1.4,0,1.4-1.3,1.4-1.3"/>
		<path class="st35" d="M125.7,91.1c0,0,0.4,1.4,0.3,2.6"/>
		<path class="st35" d="M125,91.8c0,0.1,0.1,0.2,0.2,0.2c0.1,0,0.2-0.1,0.2-0.2c0-0.1-0.1-0.2-0.2-0.2C125.1,91.5,125,91.7,125,91.8
			z"/>
		<path class="st35" d="M125.1,93c0,0.1,0.1,0.2,0.2,0.2s0.2-0.1,0.2-0.2s-0.1-0.2-0.2-0.2S125.1,92.9,125.1,93z"/>
		<path class="st33" d="M162.6,65.2c0,0,5.7,4.6,0,13c-5.7,8.3-1.1,8-11,26c-2.2,0-2.3,0-2.3,0s3.9-10.7,3.9-16.8
			c0-6.1,4.1-22.2,4.1-22.2L162.6,65.2z"/>
		<path class="st33" d="M153.9,65.6c0,0-5.6,7.3-2.4,21.9c1.3,5.8,6,15.6,6,15.6l1.7-0.2c0,0,0.1-9-2.4-13.6
			c-2.5-4.6,0.4-24.2,0.4-24.2L153.9,65.6z"/>
		<path class="st31" d="M160.7,49.6c2.7,0.9,6.6,4.6,6.6,4.6l-3.2-10.5l1.2-0.5c0,0,5.4,8.3,5.4,11.9c0,3.1-1.5,3.4-5.1,2.1
			c-1.8-0.7-4.9-2.3-6.5-3.3c-1.4-0.9-1.7-0.4-2.1-1.7c0-0.1,0-0.1,0-0.3C157.1,50.1,159,49,160.7,49.6z"/>
		<path class="st31" d="M155.3,54.6c0,0-5.3,4.9-7.5,6.4c-2.2,1.5-8.2,3.8-8.2,3.8l-1-0.9c0,0,6.6-4.9,8.5-6.8
			c1.9-1.9,6.1-7.9,8.6-7.9C158.1,49.2,157.9,52,155.3,54.6z"/>
		<path class="st31" d="M151.9,55.1c0.3-7.5,7.2-7,9.8-4.9c2.6,2.1,1,15.1,1,15.1l-8.7,0.4C153.9,65.6,151.5,62.8,151.9,55.1z"/>
		<path class="st31" d="M165.5,43.8l-1.4-0.1c0,0-1.1-4.6-0.7-4.7c0.3-0.1,0.7,1.7,0.7,1.7s0-2.5,0.9-3.6c0.4-0.3,0.3,0.5,0.3,0.5
			s0,0.3,0.3,0.7c0.1,0.1,0.2,0.5,0.3,0.9c0.1,0.8,0.1,1.7,0.1,2.5C165.8,42.3,165.7,43.1,165.5,43.8z"/>
		<path class="st31" d="M138.6,63.9l1,0.9c0,0-2,4-2.5,4c-0.4,0,0.7-1.8,0.7-1.8s-2.2,2.5-2.6,2.4c-0.4,0,1.5-2.1,1.5-2.1
			s-2,2.1-2.2,1.9c-0.1-0.2,0.3-0.7,1.7-2.4c0,0-1.9,1.9-2,1.7c-0.1-0.1,1.2-1.5,1.7-2.1c-0.4,0.4-1.6,1.3-1.7,1.2
			C134,67.5,135.6,65.3,138.6,63.9z"/>
		<path class="st31" d="M149.4,104.2c0,0-1,1.7-1.8,2.4c-0.8,0.8-1.1,1.5-1.1,2.1c0,0.5,2.2,0.5,3.4-0.4c1.2-0.9,0.6-1.2,1.7-1.7
			c1.1-0.4,0-2.4,0-2.4H149.4z"/>
		<path class="st31" d="M159.3,103l-1.7,0.2c0,0,0.3,1.9-0.1,3.1c-0.3,1.2-0.1,2.5,1.8,2.2C161.3,108.4,160.3,105.3,159.3,103z"/>
		<path class="st34" d="M159.7,45.9l-0.5,4.1c-0.1,0.9-0.9,1.7-1.8,1.6h0h0c-0.8,0-1.4-0.8-1.3-1.6l0.3-4.2L159.7,45.9z"/>
		<path class="st38" d="M156.1,48.9c0,0-0.3,2.4,1.7,2.1c1.6-0.3,1.5-2,1.5-2s3.3,0.7,6.4,3.8c-0.3,2.4,0.3,12.3,0.5,16.8
			c0.1,1.3-0.9,2.4-2.2,2.6c-2.6,0.4-7.3,0.5-12.2-1.2c-1.1-0.4-1.7-1.4-1.6-2.5c0.5-6.3,1.2-16.4,1.2-16.4S153.4,49.4,156.1,48.9z"
			/>
		<polygon class="st30" points="159.8,51.5 152.9,61.4 158,61.6 154.4,69.3 163.9,59.9 158.1,59.3 		"/>
		<path class="st30" d="M157.6,105.3c0,0,0.1-1,1-1.2c0.9-0.2,1.5,0.9,1.5,0.9s1.5,3.3-0.4,3.7c-1.9,0.4-2.3-0.2-2.4-0.9
			C157,107,157.6,105.3,157.6,105.3z"/>
		<path class="st30" d="M147.6,106.3c0.5-0.5,0.9-1.1,1.1-1.7c0,0,0,0,0,0c0.3-0.7,1.7-0.4,1.7,0.4s0.8-0.4,1-0.6
			c0.2-0.2,0.8,0.3,0.9,1.9c0,0.5-0.7,0.5-1.2,1c-0.5,0.5-1.4,2.1-3.7,2.1C145.5,109.4,146.2,107.7,147.6,106.3z"/>
		<path class="st31" d="M160.4,43.7c0,0,1-0.5,1.1,0.7c0.1,1.2-1.3,1.5-1.3,1.5s-1.5,1.8-3.7,2.3c-1.3,0.3-2.2-0.4-2.6-1.7
			c-0.7-2.7,0.1-6.1,1.7-6.7C157.6,38.9,160.3,40.4,160.4,43.7z"/>
		<path class="st36" d="M159.5,42.7c0,0-0.4,1.9,0.3,1.9c0.7,0,0.9-0.9,0.9-0.9s0.7-0.3,0.7-2.1c0-1.8-2.6-4.3-4.6-3.5
			c-2,0.8-2.6-1.1-4.2,0.5s0.8,4.5,3.8,3.6C159.5,41.2,159.5,42.7,159.5,42.7z"/>
		<path class="st36" d="M159.5,44c0,0-0.6,1.2-1.5,1.5c-0.9,0.3-1.8,0.7-3.4,0c-0.8-0.4-1-0.6-1,0.4c0,1.7,0.7,2.9,1.9,3
			c1.3,0.1,3.3-0.8,4.5-4.8"/>
		<path class="st29" d="M149.1,105.4c0,0-1-0.9-1.2-0.3c-0.4,1,2.7-0.3,2.8,0.3C150.7,105.9,149.9,105.9,149.1,105.4z"/>
		<path class="st29" d="M158.8,105.1c0,0-1.2-0.6-1.3,0c-0.1,1.1,2.5-0.9,2.7-0.4C160.4,105.1,159.7,105.4,158.8,105.1z"/>
		<path class="st11" d="M156.6,46.2c0,0-1.1,0-2.1-0.3c0,0,0.3,0.6,1,0.7C156.2,46.7,156.6,46.2,156.6,46.2z"/>
		<path class="st39" d="M157.3,77.5c0,0-1,7.3,0.1,12.6"/>
		<line class="st39" x1="153.2" y1="92.4" x2="154.9" y2="97.1"/>
		<g>
			<g>
				<path class="st12" d="M73.2,153.1c0,0,0.9,0.8,1.8,1.3C74.9,154.4,74.7,153.9,73.2,153.1z"/>
				<path class="st12" d="M73,151.8c0,0,1.7,1.6,3.6,2.5C76.5,154.3,76.1,153.3,73,151.8z"/>
				<path class="st12" d="M75.2,152.3c0,0,1.4,1.3,2.9,2.1C78.1,154.3,77.8,153.5,75.2,152.3z"/>
				<path class="st12" d="M82.1,152c0,0-1.6,1.5-3.3,2.4C78.8,154.4,79.1,153.4,82.1,152z"/>
				<path class="st12" d="M82,153.1c0,0-0.9,0.8-1.8,1.3C80.2,154.4,80.4,153.9,82,153.1z"/>
			</g>
			<path class="st12" d="M83.3,153.1c0,0-0.9,0.8-1.8,1.3C81.5,154.4,81.7,153.9,83.3,153.1z"/>
		</g>
		<path class="st40" d="M147.4,35.9c-0.2-0.2-0.3-0.5-0.4-0.7c0-0.2-0.1-0.4-0.1-0.5c-0.1-0.4-0.3-0.7-0.6-0.9
			c-0.1-0.1-0.2,0.1-0.1,0.1l0,0c0,0.2-0.1,0.4-0.1,0.5c-0.2,0.5-0.4,0.9-0.5,1.4c-0.1,0.3-0.2,0.5-0.3,0.7
			c-0.1-0.2-0.3-0.3-0.5-0.3c-0.4-0.1-0.8,0.1-1.1,0.4s-0.4,0.7-0.2,1.1c0.1,0.4,0.5,0.5,0.8,0.4c0.3-0.1,0.4-0.2,0.6-0.4
			c0.3-0.3,0.4-0.5,0.6-0.9c0.3-0.5,0.5-1.1,0.7-1.6c0.1-0.3,0.2-0.6,0.3-0.9c0.4,0.7,0.3,1.7,1.1,2.1c0.1-0.1,0.1-0.1,0.2-0.2
			C147.7,36.1,147.5,36,147.4,35.9z"/>
		<path class="st40" d="M206,88c-0.1-0.7-0.3-1.3-0.5-2c-0.1-0.2-0.1-0.4-0.1-0.6c0-0.2,0-0.2,0.2-0.3c0.1,0,0.1,0,0.2,0
			c0.3,0,0.5,0.1,0.7,0.3c0.2,0.1,0.3,0.3,0.5,0.5c0.2,0.2,0.3,0.4,0.5,0.6c0.3,0.3,0.6,0.5,1,0.5c0,0,0.1,0,0.1,0
			c0.1,0,0.1,0.1,0.1,0.2c0,0.1-0.1,0.1-0.2,0.1c-0.1,0-0.3,0-0.4-0.1c-0.4-0.1-0.8-0.3-1.1-0.7c-0.3-0.3-0.5-0.5-0.7-0.8
			c-0.1-0.1-0.1-0.1-0.3-0.2c0,0-0.1-0.1-0.2-0.1c-0.1,0-0.2,0-0.1,0.2c0.3,0.8,0.5,1.6,0.7,2.4c0.1,0.5,0.2,1,0.3,1.5
			c0,0.1,0,0.3,0,0.4c-0.1,0.3-0.3,0.5-0.5,0.7c-0.3,0.1-0.5,0.1-0.7-0.1c-0.4-0.4-0.7-1.2-0.3-2C205.2,88.2,205.6,87.9,206,88
			C205.9,88,205.9,88,206,88z"/>
		<path class="st40" d="M123.6,64.8c-0.3-0.1-0.5-0.4-0.7-0.6c-0.1-0.1-0.2-0.3-0.3-0.5c-0.3-0.4-0.5-0.6-1-0.7
			c-0.1,0-0.2,0.1-0.1,0.2l0,0c0.1,0.2,0.1,0.4,0.1,0.5c0,0.5,0,1.1,0,1.6c0,0.3,0,0.5,0,0.9c-0.2-0.1-0.4-0.1-0.6-0.1
			c-0.5,0.1-0.8,0.4-0.9,0.9c-0.1,0.4-0.1,0.9,0.3,1.2c0.3,0.3,0.7,0.3,1,0.1c0.2-0.1,0.4-0.4,0.4-0.6c0.1-0.4,0.2-0.7,0.3-1.1
			c0.1-0.6,0.1-1.2,0.1-1.9c0-0.3,0-0.7,0-1c0.7,0.6,1,1.6,2,1.7c0-0.1,0.1-0.2,0.1-0.3C124,64.9,123.8,64.9,123.6,64.8z"/>
		<g>
			<g>
				<path class="st12" d="M150.8,128.8c0,0,0.9,0.8,1.8,1.3C152.6,130.1,152.4,129.6,150.8,128.8z"/>
				<path class="st12" d="M150.6,127.5c0,0,1.7,1.6,3.6,2.5C154.2,130,153.7,128.9,150.6,127.5z"/>
				<path class="st12" d="M152.9,128c0,0,1.4,1.3,2.9,2.1C155.8,130,155.4,129.2,152.9,128z"/>
				<path class="st12" d="M159.7,127.7c0,0-1.6,1.5-3.3,2.4C156.4,130.1,156.8,129.1,159.7,127.7z"/>
				<path class="st12" d="M159.6,128.8c0,0-0.9,0.8-1.8,1.3C157.8,130.1,158.1,129.6,159.6,128.8z"/>
			</g>
			<path class="st12" d="M160.9,128.8c0,0-0.9,0.8-1.8,1.3C159.1,130.1,159.4,129.6,160.9,128.8z"/>
		</g>
		<path class="st4" d="M54.4,14c0,0-1.7-2.2-2.7-3.2c-1.9-1.8-4-5-10.7-2.6c-0.5,0.2-1.1,0.4-1.5,0.7c-0.6,0.3-2.4,0.3-4.3-1.4
			c-3-2.8-4.2-4.8-8.3-4.9c-4.8-0.1-5.5,6.7-9.3,8.5c-2.4,1.1-8.6,2.2-9.9,2.7L54.4,14z"/>
	</g>
</g>
</svg>
