<?xml version="1.0" encoding="utf-8"?>
<!-- Generator: Adobe Illustrator 23.0.3, SVG Export Plug-In . SVG Version: 6.00 Build 0)  -->
<svg version="1.1" id="Layer_1" xmlns="http://www.w3.org/2000/svg" xmlns:xlink="http://www.w3.org/1999/xlink" x="0px" y="0px"
	 viewBox="0 0 223.7 166" style="enable-background:new 0 0 223.7 166;" xml:space="preserve">
<style type="text/css">
	.st0{fill:none;}
	.st1{opacity:0.2;clip-path:url(#SVGID_2_);}
	.st2{fill:#E8E9F5;}
	.st3{clip-path:url(#SVGID_4_);fill:none;}
	.st4{fill:#DCDFF1;}
	.st5{fill:#36A7DF;}
	.st6{fill:none;stroke:#FFFFFF;stroke-width:2;stroke-linecap:round;stroke-linejoin:round;stroke-miterlimit:10;}
	.st7{fill:none;stroke:#E4E9ED;stroke-width:5;stroke-linecap:round;stroke-miterlimit:10;}
	.st8{fill:#E4E9ED;}
	.st9{fill:#3271B3;}
	.st10{fill:none;stroke:#E4E9ED;stroke-width:3;stroke-linecap:round;stroke-linejoin:round;stroke-miterlimit:10;}
	.st11{fill:#FFFFFF;}
	.st12{fill:#256293;}
	.st13{fill:#66A3D8;}
	.st14{fill:#89B4E0;}
	.st15{opacity:0.7;}
	.st16{fill:#528AC8;}
	.st17{fill:#2C1F56;}
	.st18{fill:#EC9C7F;}
	.st19{fill:#2E3088;}
	.st20{fill:#393795;}
	.st21{fill:#F3A949;}
	.st22{fill:#FDC066;}
	.st23{clip-path:url(#SVGID_6_);}
	.st24{opacity:0.2;}
	.st25{clip-path:url(#SVGID_8_);fill:#DFE1F1;}
	.st26{fill:#3A3F5D;}
	.st27{fill:#ECEDF7;}
	.st28{fill:#9C505F;}
	.st29{fill:none;stroke:#242E66;stroke-width:0.7608;stroke-linecap:round;stroke-linejoin:round;stroke-miterlimit:10;}
	.st30{fill:#F26750;}
	.st31{fill:#F8A286;}
	.st32{fill:#244CA0;}
	.st33{fill:#FEC055;}
	.st34{fill:#F68F79;}
	.st35{fill:none;stroke:#CC4634;stroke-miterlimit:10;}
	.st36{fill:#242E66;}
	.st37{fill:none;stroke:#27437B;stroke-width:0.7608;stroke-linecap:round;stroke-linejoin:round;stroke-miterlimit:10;}
	.st38{fill:#FDE3C8;}
	.st39{fill:none;stroke:#E29125;stroke-width:0.7608;stroke-linecap:round;stroke-linejoin:round;stroke-miterlimit:10;}
	.st40{fill:#D6DAEE;}
</style>
<g>
	<rect x="92.3" y="76.3" class="st0" width="29.8" height="7.6"/>
	<g>
		<defs>
			<rect id="SVGID_1_" y="0" width="223.7" height="166"/>
		</defs>
		<clipPath id="SVGID_2_">
			<use xlink:href="#SVGID_1_"  style="overflow:visible;"/>
		</clipPath>
		<g class="st1">
			<path class="st2" d="M95,76.8c-2.9,3.4-5.4,6.7-2.7,10.2c1.3,1.7,3.7,3.3,6.6,5.9c12.7,11.5-1.3,17.5-17.8,17.7
				c-16.5,0.3-50.3-1-54.6,26.7c-2.4,15.6,3.9,53.2,87.5,61.6c75.3,7.6,119-24,107.8-41.5c-11.2-17.5-23.8-24.8-17.3-32.8
				c9.7-12,16.8-13.5,18.4-30.8C227.4,48.6,127.9,38.3,95,76.8z"/>
			<g>
				<g>
					<defs>
						<path id="SVGID_3_" d="M95,76.8c-2.9,3.4-5.4,6.7-2.7,10.2c1.3,1.7,3.7,3.3,6.6,5.9c12.7,11.5-1.3,17.5-17.8,17.7
							c-16.5,0.3-50.3-1-54.6,26.7c-2.4,15.6,3.9,53.2,87.5,61.6c75.3,7.6,119-24,107.8-41.5c-11.2-17.5-23.8-24.8-17.3-32.8
							c9.7-12,16.8-13.5,18.4-30.8C227.4,48.6,127.9,38.3,95,76.8z"/>
					</defs>
					<clipPath id="SVGID_4_">
						<use xlink:href="#SVGID_3_"  style="overflow:visible;"/>
					</clipPath>
					<path class="st3" d="M89,63.1c0,0,10,29.8,32.5,55.1c11.4,12.8,67.9,40.5,40.2,58.8C30.8,263.7,21,131.3,21,131.3l36-58.6
						L89,63.1z"/>
				</g>
			</g>
		</g>
	</g>
	<rect x="73.9" y="76.3" class="st0" width="30.7" height="7.8"/>
	<path class="st4" d="M47.7,11.7c0,0-1.7-2.2-2.7-3.3c-1.9-1.9-4-5.1-10.9-2.7c-0.5,0.2-1.1,0.4-1.6,0.7C31.9,6.7,30,6.7,28.1,5
		C25,2.2,23.8,0,19.6,0c-4.9-0.1-5.6,6.9-9.5,8.7C7.7,9.8,1.3,10.9,0,11.5L47.7,11.7z"/>
	<path class="st4" d="M120.9,18.7c0,0,0.9-1,1.3-1.4c0.9-0.8,2-2.2,5.3-1.1c0.3,0.1,0.5,0.2,0.8,0.3c0.3,0.1,1.2,0.1,2.2-0.6
		c1.5-1.2,2.1-2.1,4.2-2.1c2.4,0,2.8,3,4.6,3.7c1.2,0.5,4.3,1,5,1.2L120.9,18.7z"/>
	<rect x="86.4" y="74.9" class="st0" width="29.8" height="7.6"/>
	<path class="st5" d="M54.4,35.6V133h59V35.6C113.4,35.6,85.1,5,54.4,35.6z"/>
	<path class="st6" d="M60.2,41.2v84.3h47.7V41.2C107.9,41.2,85,20.3,60.2,41.2z"/>
	<path class="st7" d="M52.4,33.8c0,0,27.9-25.7,62.4,0"/>
	<path class="st8" d="M114.8,137.7H53.2c-1.3,0-2.4-1.1-2.4-2.4v-0.8c0-1.3,1.1-2.4,2.4-2.4h61.6c1.3,0,2.4,1.1,2.4,2.4v0.8
		C117.1,136.6,116.1,137.7,114.8,137.7z"/>
	<rect x="58.5" y="50.8" class="st9" width="3.1" height="8.2"/>
	<path class="st9" d="M94.8,109.3H72.7c-0.3,0-0.4-0.2-0.4-0.4v-0.4c0-0.3,0.2-0.4,0.4-0.4h22.1c0.3,0,0.4,0.2,0.4,0.4v0.4
		C95.2,109.1,95,109.3,94.8,109.3z"/>
	<path class="st9" d="M94.8,112.7H72.7c-0.3,0-0.4-0.2-0.4-0.4v-0.4c0-0.3,0.2-0.4,0.4-0.4h22.1c0.3,0,0.4,0.2,0.4,0.4v0.4
		C95.2,112.5,95,112.7,94.8,112.7z"/>
	<path class="st9" d="M94.8,116.2H72.7c-0.3,0-0.4-0.2-0.4-0.4v-0.4c0-0.3,0.2-0.4,0.4-0.4h22.1c0.3,0,0.4,0.2,0.4,0.4v0.4
		C95.2,116,95,116.2,94.8,116.2z"/>
	<rect x="58.5" y="109.5" class="st9" width="3.1" height="8.2"/>
	<polyline class="st10" points="101,74.9 102.1,76 102.1,81.3 101.1,82.2 	"/>
	<g>
		<path class="st11" d="M79.8,57.6H88c1.5,0,2.7-1.2,2.7-2.7v-8.2c0-1.5-1.2-2.7-2.7-2.7h-8.2c-1.5,0-2.7,1.2-2.7,2.7v8.2
			C77.1,56.3,78.4,57.6,79.8,57.6L79.8,57.6z M86.5,46.4c0.1-0.1,0.3-0.2,0.5-0.2c0.2,0,0.4,0.1,0.5,0.2c0.1,0.1,0.2,0.3,0.2,0.5
			c0,0.2-0.1,0.4-0.2,0.5c-0.1,0.1-0.3,0.2-0.5,0.2c-0.2,0-0.4-0.1-0.5-0.2c-0.1-0.1-0.2-0.3-0.2-0.5C86.3,46.8,86.4,46.6,86.5,46.4
			L86.5,46.4z M85.3,48.8c0-0.3,0.1-0.4,0.3-0.6c0.2-0.2,0.4-0.3,0.6-0.3h1.6c0.3,0,0.5,0.1,0.6,0.3c0.2,0.2,0.3,0.4,0.3,0.6V51
			c0,0.1,0,0.1-0.1,0.2c-0.1,0.1-0.1,0.1-0.2,0.1c-0.1,0-0.1,0-0.2-0.1c-0.1-0.1-0.1-0.1-0.1-0.2v-2h-0.2v5.5c0,0.1,0,0.2-0.1,0.3
			c-0.1,0.1-0.2,0.1-0.3,0.1c-0.1,0-0.2,0-0.3-0.1c-0.1-0.1-0.1-0.2-0.1-0.3v-3.2h-0.2v3.2c0,0.1,0,0.2-0.1,0.3
			c-0.1,0.1-0.2,0.1-0.3,0.1c-0.1,0-0.2,0-0.3-0.1c-0.1-0.1-0.1-0.2-0.1-0.3V49h-0.1v2c0,0.1,0,0.1-0.1,0.2
			c-0.1,0.1-0.1,0.1-0.2,0.1c-0.1,0-0.1,0-0.2-0.1c-0.1-0.1-0.1-0.1-0.1-0.2L85.3,48.8L85.3,48.8z M83.9,45.7h0.7v10.2h-0.7V45.7z
			 M80.6,46.4c0.1-0.1,0.3-0.2,0.5-0.2c0.2,0,0.4,0.1,0.5,0.2c0.1,0.1,0.2,0.3,0.2,0.5c0,0.2-0.1,0.4-0.2,0.5
			c-0.1,0.1-0.3,0.2-0.5,0.2c-0.2,0-0.4-0.1-0.5-0.2c-0.1-0.1-0.2-0.3-0.2-0.5C80.4,46.8,80.5,46.6,80.6,46.4L80.6,46.4z M79.1,50.6
			c0,0,0-0.1,0.1-0.3c0-0.1,0.1-0.3,0.1-0.5c0.1-0.2,0.1-0.4,0.2-0.7c0.1-0.2,0.1-0.5,0.2-0.7c0-0.2,0.1-0.3,0.3-0.4
			c0.1-0.1,0.3-0.2,0.5-0.2h1.1c0.2,0,0.3,0.1,0.5,0.2c0.1,0.1,0.3,0.3,0.3,0.4c0.1,0.2,0.1,0.4,0.2,0.7c0.1,0.2,0.1,0.4,0.2,0.7
			C83,50,83,50.2,83,50.4c0,0.1,0.1,0.2,0.1,0.3v0.1c0,0.1-0.1,0.2-0.2,0.3l-0.1,0c-0.1,0-0.2-0.1-0.3-0.2c0,0,0-0.2-0.1-0.4
			c-0.1-0.2-0.1-0.4-0.2-0.7c-0.1-0.2-0.1-0.5-0.3-0.9h-0.1l1,3.3h-0.9v2.5c0,0.1,0,0.2-0.1,0.2c-0.1,0.1-0.1,0.1-0.2,0.1
			c-0.1,0-0.2,0-0.3-0.1s-0.1-0.1-0.1-0.2v-2.5H81v2.5c0,0.1,0,0.2-0.1,0.2c-0.1,0.1-0.1,0.1-0.2,0.1c-0.1,0-0.2,0-0.3-0.1
			c-0.1-0.1-0.1-0.1-0.1-0.2v-2.5h-0.9l1-3.3h-0.1c-0.1,0.4-0.2,0.7-0.3,0.9c-0.1,0.2-0.1,0.4-0.2,0.7c-0.1,0.2-0.1,0.3-0.1,0.4
			c0,0.1-0.1,0.2-0.3,0.2l-0.1,0C79.2,50.9,79.1,50.8,79.1,50.6C79.1,50.7,79.1,50.7,79.1,50.6L79.1,50.6z"/>
	</g>
	<g>
		<g>
			<g>
				<path class="st12" d="M183.5,77.5c0,0,0.8,0.8,1.7,1.2C185.2,78.7,185,78.1,183.5,77.5z"/>
				<path class="st12" d="M183.3,76.2c0,0,1.6,1.5,3.3,2.4C186.7,78.6,186.3,77.6,183.3,76.2z"/>
				<path class="st12" d="M185.5,76.7c0,0,1.3,1.3,2.7,1.9C188.2,78.6,187.8,77.8,185.5,76.7z"/>
				<path class="st12" d="M191.9,76.4c0,0-1.5,1.4-3.2,2.2C188.7,78.6,189.1,77.7,191.9,76.4z"/>
				<path class="st12" d="M191.8,77.5c0,0-0.8,0.8-1.7,1.2C190.1,78.7,190.3,78.1,191.8,77.5z"/>
			</g>
			<path class="st12" d="M193,77.5c0,0-0.8,0.8-1.7,1.2C191.3,78.7,191.5,78.1,193,77.5z"/>
		</g>
		<path class="st13" d="M189.9,72.3c0.1,0.1,0.1,0.2,0.1,0.3c0-0.2,0-0.4-0.1-0.7c0-1.8,0-3.6,0.2-5.4c0-0.4,0.1-0.7,0.1-1.1
			c0.7-0.5,2.4-1.3,2.9-1.6c0.9-0.6,2-1.4,2.7-2.3c0.3-0.4,0.8-1.6,0.2-1.9c-0.7-0.4-2,1.3-2.4,1.7c-0.7,0.9-1.3,1.9-2.2,2.7
			c-0.4,0.4-0.8,0.7-1.1,1.1c0.2-1.6,0.5-3.2,0.9-4.7c0.6-0.5,2.5-1.3,2.9-1.6c0.9-0.6,2-1.4,2.7-2.3c0.3-0.4,0.8-1.6,0.2-1.9
			c-0.7-0.4-2,1.3-2.4,1.7c-0.7,0.9-1.3,1.9-2.2,2.7c-0.4,0.4-0.8,0.7-1.1,1.1c0.4-1.6,1-3.3,1.6-4.8c0.4-1.1,1-2.1,1.5-3.2
			c0.9-0.2,2.2-0.4,2.6-0.6c1-0.4,2.3-0.8,3.2-1.5c0.3-0.3,1.2-1.3,0.7-1.8c-0.5-0.6-2.3,0.7-2.7,1c-1,0.7-1.8,1.5-2.9,2.1
			c-0.2,0.1-0.4,0.2-0.6,0.3c0.8-1.4,1.7-2.7,2.6-3.9c0.4,0,0.8-0.1,1.2-0.2c1-0.2,2-0.1,3-0.1c0.4,0,2.3-0.2,2.3-0.8
			c0-0.6-1.1-0.8-1.4-0.8c-1,0-2,0.4-2.9,0.7c-0.3,0.1-1.1,0.6-1.9,0.9c0.5-0.6,0.9-1.1,1.4-1.7c0.8-0.9,1.6-1.7,2.5-2.5
			c0.5,0,1-0.1,1.5-0.2c1-0.2,2-0.1,3-0.1c0.4,0,2.3-0.2,2.3-0.8c0-0.6-1.1-0.8-1.4-0.8c-1,0-2,0.4-2.9,0.7
			c-0.4,0.1-1.4,0.8-2.2,1.1c1.2-1,2.4-2,3.8-2.8c0.4,0,0.9-0.1,1.3-0.2c1-0.2,2-0.1,3-0.2c0.4,0,2.3-0.2,2.3-0.9
			c0-0.6-1.1-0.8-1.5-0.8c-1,0-2,0.4-2.9,0.7c-0.1,0-0.3,0.1-0.5,0.3c-0.7,0.3-1.5,0.7-2.2,1c0,0,0,0-0.1,0c0,0,0,0,0.1,0
			c-1,0.5-1.9,1.1-2.8,1.7c0.2-0.3,0.4-0.7,0.6-1.1c0.4-0.9,1.1-1.6,1.7-2.5c0.3-0.4,1.2-1.9,0.7-2.4c-0.4-0.4-1.3,0.4-1.5,0.7
			c-0.6,0.7-0.9,1.9-1.2,2.7c-0.1,0.4-0.3,2-0.5,2.7c-0.9,0.6-1.7,1.3-2.4,2c0.2-0.4,0.3-0.9,0.5-1.4c0.3-1,0.9-1.8,1.3-2.7
			c0.2-0.4,0.9-2.1,0.4-2.4c-0.5-0.3-1.2,0.6-1.4,0.9c-0.5,0.8-0.6,2-0.8,2.9c-0.1,0.5,0,2.2-0.1,2.9c-0.3,0.3-0.6,0.6-0.9,0.9
			c-1.3,1.3-2.4,2.6-3.4,4.1c0-0.3-0.1-0.6-0.1-0.9c-0.1-1,0.1-2,0.1-3c0-0.4,0-2.3-0.6-2.4c-0.6-0.1-0.9,1-0.9,1.4
			c-0.1,0.9,0.2,2.1,0.4,3c0.1,0.4,0.6,1.5,0.9,2.3c-1,1.4-1.8,2.9-2.5,4.4c0-0.3,0-0.7,0-1c0-0.8,0.1-1.6,0.2-2.4
			c0.2-1.2,0.5-2.4,1-3.6c0.3-0.6-0.4-1.1-0.9-0.8c0,0,0,0-0.1,0c-0.9,0.6-1,1.7-1.1,2.8c-0.1,0.8-0.5,5,0.4,6
			c-0.7,1.8-1.3,3.7-1.8,5.6c-0.1-1,0.1-1.9,0.1-2.9c0-0.4,0-2.3-0.6-2.4c-0.6-0.1-0.9,1-0.9,1.4c-0.1,0.9,0.2,2.1,0.4,3
			c0.1,0.3,0.5,1.3,0.8,2c-0.3,1.5-0.5,3.1-0.6,4.6c-0.1-0.2-0.1-0.4-0.2-0.6c-0.3-1-0.4-2-0.6-3c-0.1-0.4-0.6-2.2-1.2-2.2
			c-0.6,0-0.6,1.1-0.6,1.6c0.1,0.9,0.7,2,1.1,2.8c0.2,0.3,1,1.3,1.4,2c-0.1,1.2-0.1,2.4,0,3.6c-0.3-0.9-0.5-1.7-0.7-2.6
			c-0.1-0.4-0.7-2.2-1.4-2.1c-0.6,0.1-0.5,1.2-0.4,1.6c0.2,0.9,0.9,1.9,1.4,2.7c0.1,0.3,0.8,0.9,1.3,1.4c0.2,2.3-1.3,4.9-0.8,7
			C188.3,76.6,189.9,74.2,189.9,72.3z"/>
	</g>
	<g>
		<path class="st14" d="M177.2,80c0,0-1.4-4.1,3.2-10.1c4.7-6.3,18.1-10.1,18.3-14.8c0.3-5-7.7-1.3-12.4-3.4c-4.7-2.2-6.5-3.3-1.8-6
			c4.6-2.6,7.5-4,6.1-8.1c-1.4-4.2,7.5-4.9,10.5-9.3c3.2-4.4-0.4-7.7-8.4-4.9c-7.7,3-8.4,1.8-6.6-0.1c1.8-1.9,8-6.3,4.4-7.5
			c-3.7-1.1-7.4,2.2-6-1.2c1.4-3.4,6.2-7.2,2.6-9.3c-3.6-2.1-10.5,0.5-11.8,9.5c-1.3,8.9-1.9,11.5-5.3,13.6
			c-3.4,2.1-8.2-0.7-12.2,2.4c-3.9,3.2-1.6,7.2,2,9.2c3.7,2,10.2,6.1,8.3,9.6c-1.8,3.4-6.3,0.7-10.5,1.4c-4.6,0.7-8.3,6.1-2.3,10.7
			c6.2,4.5,14.3,6.9,19,20.5C175.3,81.5,176.2,80.7,177.2,80z"/>
		<g>
			<g class="st15">
				<path class="st16" d="M175.7,81.5c0.1,0,0.2-0.1,0.2-0.3c-5-50.6,7.8-74,8-74.3c0.1-0.1,0-0.3-0.1-0.3c-0.1-0.1-0.3,0-0.3,0.1
					c-0.1,0.2-13.1,23.8-8,74.5C175.4,81.4,175.5,81.5,175.7,81.5C175.6,81.5,175.7,81.5,175.7,81.5z"/>
			</g>
			<g class="st15">
				<path class="st16" d="M177.6,25.7c0,0,0.1,0,0.1-0.1c4.7-5.8,11.6-8,11.7-8c0.1,0,0.2-0.2,0.1-0.3c0-0.1-0.1-0.2-0.3-0.1
					c-0.1,0-7.2,2.3-11.9,8.2c-0.1,0.1-0.1,0.3,0,0.3C177.5,25.7,177.5,25.7,177.6,25.7z"/>
			</g>
			<g class="st15">
				<path class="st16" d="M175.3,41.6c0.1,0,0.1,0,0.1-0.1c0.1-0.1,0-0.3-0.1-0.3c-0.1,0-7.6-4.8-16.8-8.2c-0.1,0-0.3,0-0.3,0.1
					c0,0.1,0,0.3,0.1,0.3c9.1,3.3,16.6,8.1,16.7,8.1C175.1,41.6,175.2,41.6,175.3,41.6z"/>
			</g>
			<g class="st15">
				<path class="st16" d="M175.6,38.1c0,0,0.1,0,0.1,0c9.7-7.6,22-11.3,22.1-11.3c0.1,0,0.2-0.2,0.1-0.3c0-0.1-0.1-0.2-0.3-0.1
					c-0.1,0-12.5,3.8-22.2,11.4c-0.1,0.1-0.1,0.2,0,0.3C175.4,38.1,175.5,38.1,175.6,38.1z"/>
			</g>
			<g class="st15">
				<path class="st16" d="M174.6,65.4c0,0,0.1,0,0.1,0c6.5-5.7,19.1-9.9,19.2-9.9c0.1,0,0.2-0.2,0.1-0.3c0-0.1-0.2-0.2-0.3-0.1
					c-0.1,0-12.8,4.3-19.4,10c-0.1,0.1-0.1,0.3,0,0.3C174.4,65.4,174.5,65.4,174.6,65.4z"/>
			</g>
			<g class="st15">
				<path class="st16" d="M174.7,69c0,0,0.1,0,0.1,0c0.1-0.1,0.1-0.2,0-0.3c-6.2-8.4-17.5-13.1-17.6-13.1c-0.1,0-0.3,0-0.3,0.1
					c0,0.1,0,0.3,0.1,0.3c0.1,0,11.2,4.7,17.4,13C174.6,68.9,174.6,69,174.7,69z"/>
			</g>
		</g>
		<g>
			<g>
				<path class="st12" d="M170.5,81.4c0,0,0.8,0.8,1.7,1.2C172.2,82.6,172,82.1,170.5,81.4z"/>
				<path class="st12" d="M170.3,80.1c0,0,1.6,1.5,3.3,2.4C173.6,82.5,173.2,81.5,170.3,80.1z"/>
				<path class="st12" d="M172.4,80.6c0,0,1.3,1.3,2.7,1.9C175.2,82.6,174.8,81.7,172.4,80.6z"/>
				<path class="st12" d="M178.8,80.3c0,0-1.5,1.4-3.2,2.2C175.7,82.6,176.1,81.6,178.8,80.3z"/>
				<path class="st12" d="M178.8,81.4c0,0-0.8,0.8-1.7,1.2C177.1,82.6,177.3,82.1,178.8,81.4z"/>
			</g>
			<path class="st12" d="M180,81.4c0,0-0.8,0.8-1.7,1.2C178.3,82.6,178.5,82.1,180,81.4z"/>
		</g>
	</g>
	<g>
		<path class="st17" d="M132.2,53.9c0,0-0.5-3.9-2.1-5.3c-2.1-1.9-6.7-1.4-8.5,0.4c-2,2-2.9,6-1.3,8.9c-3.2,1.9-3,6-0.3,6.4l-0.9,5
			c-0.6,3.1,1.6,6,4.9,6.7l6,1.2c0,0,10.2-1,11-6c0.8-5-3.9-7.4-3.9-7.4s2.2-4.2-0.1-7.2C134.6,53.6,132.2,53.9,132.2,53.9z"/>
		<path class="st18" d="M120.8,132.5c0,0-0.4,1.7-0.4,3.1c0.2,0.9,0,1.2,0,1.2l-3.9-0.3c0,0,1.7-0.8,1.6-4.5
			C118,128.3,120.8,132.5,120.8,132.5z"/>
		<path class="st17" d="M120.5,135.8c0,0-1.7,0.6-3.4,0.1c-2,0.9-3.3,1.1-5.1,1.4c-1.8,0.2-1.5,1.6,1.6,1.4c3-0.2,5.2-0.1,5.9,0
			s1.8,0.1,1.8-0.3C121.3,138,121,135.7,120.5,135.8z"/>
		<path class="st19" d="M119.3,84.9c0,0-2.5,22.5-2.6,25.4s-0.1,3.9,0,5.7c0.1,1.8-1.1,16.8-1.1,16.8s5.8,1.3,7.3,0.1
			c0,0-0.3-16.4,0.5-19.2c0.7-2.8,3.6-17,3.6-17l-3.3-14.5L119.3,84.9z"/>
		<path class="st20" d="M131.7,106.4c0,0,0.4,4.8,1.4,5.7c0.6,1.4,0.6,1.4-0.3,2c-1.4,0.9-4.3,2.6-5,1.9c-2.7-2.6-2.8-3.6-3.4-7
			c-0.2-0.8-3.9-23.5-3.9-23.5s11.8-1.6,11.9,1.6C132.4,90.3,131.2,102.6,131.7,106.4z"/>
		<g>
			<path class="st18" d="M146.3,126.6c0,0,1.2,1.3,2.4,2.2c0.9,0.4,1,0.7,1,0.7l-2.6,2.7c0,0,0.4-1.7-2.9-3.9
				C141,126.2,146.3,126.6,146.3,126.6z"/>
			<path class="st17" d="M149,128.9c0,0-0.5,1.6-1.9,2.6c-0.5,2-1,3.2-1.9,4.6c-0.9,1.4,0.4,2,2.2-0.3c1.7-2.3,3.1-3.8,3.6-4.3
				c0.5-0.4,1.2-1.2,0.9-1.5C151.4,129.6,149.2,128.4,149,128.9z"/>
		</g>
		<path class="st20" d="M132.7,111.4c5.2,6.5,13.9,11.3,16.3,15.1c0.4,1.2-5.3,4.2-5.3,4.2s-11.9-10.8-14.3-13.2
			c-1-0.9-1.9-1.7-2.6-2.6C129.2,114.1,131.3,109.5,132.7,111.4z"/>
		<path class="st21" d="M130.9,69.1c1.2,1.2,2,2.1,2.6,2.7l0-0.6c0,0,0-5.6-1.8-8.7c-0.3-0.1-0.6-0.1-0.9-0.1
			C128.1,62.6,128.2,66.4,130.9,69.1z"/>
		<path class="st21" d="M117,69.1c0,0,2.5-0.1,2.8-0.6c0.3-0.5,1.3-2.6,2.8-3.3c0,0-2.2,2.1-1.9,3.9H117z"/>
		<path class="st18" d="M105.1,77.5c2.8-0.3,9.3-1.4,10.2-1.3c1.3-3.4,1.3-3.2,4-10.4l2.8,1.7c0,0-2.8,8.8-3.9,11
			c-0.6,1.8-12.3,1-13.1,1c-1.6,1.1-2.6,0.9-3.3,0.7c-0.7-0.3-0.4-2.7,0-2.8C101.9,77.4,103.1,76.7,105.1,77.5z"/>
		<path class="st22" d="M116.6,69c0,0,4-6.3,6.9-6.4c2.9,0,3,3.8,0.6,6.7s-3.2,4-3.2,4S117.5,72.1,116.6,69z"/>
		<path class="st22" d="M121.7,71.5c0.3,0.8-2.3,12.3-2.7,14.9c0,0,0,0,0.1,0c1.1-0.2,8.2-1.1,13.9,1.3l0.5-16.2l0-0.6
			c0,0,0-0.6,0-1.6l0,0c-0.1-1.9-0.5-5.2-1.7-7.3c-0.6-1.1-1.5-0.3-2.6-0.4c-3.6-0.4-3.9,1.5-7.2,2.3l2.4,2.5c0,0-6.8,1.2-7.4,2.4
			h3.7C120.7,68.9,121.3,70.7,121.7,71.5z"/>
		<path class="st18" d="M131.4,86.6c1.9-2,6.3-7.1,7-7.6c-1.3-3.8-4.8-9.6-4.8-9.6L138,68c0,0,3.5,8.6,4.1,10.9
			c0.7,1.8-8.8,8.7-9.4,9.2c-0.5,1.8-1.4,2.4-2.1,2.6c-0.7,0.3-2.1-1.8-1.8-2.1C128.9,88.6,129.3,87.3,131.4,86.6z"/>
		<path class="st18" d="M122.6,50.4c0,0-2.3,5.2-0.6,7.6c1.3,1.8,3.5,1.9,3.5,1.9v2.6c0,0,0.3,0.2,0.7,0.3c0.8,0,2.9-1.2,2.9-1.2
			V51.3L122.6,50.4z"/>
		<path class="st17" d="M122.4,49.8c0,0,1.1,4.7,3.5,5.9c2.4,1.2,0.6,4.3,2.9,6.5c0.7,0.7,1.7,0.6,2.5,0.3c1.1-0.3,2.4-0.1,3.2,0.7
			c0.1,0.1,0.1,0.1,0.2,0.3c3-2-4.6-13.1-4.6-13.1L122.4,49.8z"/>
		<path class="st21" d="M131.3,69.1c1.2,1.2,2,2.1,2.6,2.7l0-0.6c0,0,0-5.6-1.8-8.7c-0.3-0.1-0.6-0.1-0.9-0.1
			C128.4,62.6,128.6,66.4,131.3,69.1z"/>
		<path class="st22" d="M138.3,67.7c0,0-4.3-6.1-7.2-6c-2.9,0.1-2.8,3.9-0.3,6.7s3.4,3.8,3.4,3.8S137.6,70.8,138.3,67.7z"/>
	</g>
</g>
</svg>
