<?xml version="1.0" encoding="utf-8"?>
<!-- Generator: Adobe Illustrator 19.0.0, SVG Export Plug-In . SVG Version: 6.00 Build 0)  -->
<svg version="1.1" id="Layer_1" xmlns="http://www.w3.org/2000/svg" xmlns:xlink="http://www.w3.org/1999/xlink" x="0px" y="0px"
	 viewBox="0 0 218.717 177.959" style="enable-background:new 0 0 218.717 177.959;" xml:space="preserve">
<style type="text/css">
	.st0{fill:none;}
	.st1{opacity:0.2;}
	.st2{clip-path:url(#SVGID_2_);}
	.st3{fill:#E9EBFB;}
	.st4{clip-path:url(#SVGID_4_);fill:#E0E2F5;}
	.st5{fill:#09ACF2;}
	.st6{fill:none;stroke:#FFFFFF;stroke-width:5;stroke-linecap:round;stroke-linejoin:round;stroke-miterlimit:10;}
	.st7{fill:none;stroke:#E4EAEF;stroke-width:7;stroke-linecap:round;stroke-miterlimit:10;}
	.st8{fill:#E4EAEF;}
	.st9{fill:#306FB4;}
	.st10{fill:#81B7FB;}
	.st11{fill:#4D8BD7;}
	.st12{fill:#F2BE9B;}
	.st13{fill:#B0B0FF;}
	.st14{fill:#5243B5;}
	.st15{opacity:0.44;fill:#CACACA;}
	.st16{fill:#1F2E3B;}
	.st17{fill:#C8CDEB;}
	.st18{fill:#EDB48D;}
	.st19{fill:#21283A;}
	.st20{fill:#FFFFFF;}
	.st21{fill:none;stroke:#F2BE9B;stroke-width:1.522;stroke-linecap:round;stroke-linejoin:round;stroke-miterlimit:10;}
	.st22{fill:none;stroke:#E4EAEF;stroke-width:3;stroke-linecap:round;stroke-linejoin:round;stroke-miterlimit:10;}
</style>
<g>
	<rect x="75.982" y="83.68" class="st0" width="31.401" height="7.961"/>
	<g class="st1">
		<defs>
			<rect id="SVGID_1_" x="0" y="55.618" class="st1" width="218.717" height="122.341"/>
		</defs>
		<clipPath id="SVGID_2_">
			<use xlink:href="#SVGID_1_"  style="overflow:visible;"/>
		</clipPath>
		<g class="st2">
			<path class="st3" d="M78.851,84.238c-3.096,3.628-5.665,7.053-2.828,10.713c1.393,1.797,3.95,3.428,7.003,6.195
				c13.387,12.132-1.353,18.392-18.69,18.652c-17.337,0.26-53.002-1.036-57.472,28.054c-2.526,16.44,4.138,56.038,92.166,64.912
				c79.3,7.994,125.243-25.294,113.463-43.674c-11.78-18.381-25.099-26.16-18.262-34.602c10.266-12.675,17.641-14.154,19.41-32.427
				C218.244,54.511,113.473,43.672,78.851,84.238z"/>
			<g>
				<defs>
					<path id="SVGID_3_" d="M78.851,84.238c-3.096,3.628-5.665,7.053-2.828,10.713c1.393,1.797,3.95,3.428,7.003,6.195
						c13.387,12.132-1.353,18.392-18.69,18.652c-17.337,0.26-53.002-1.036-57.472,28.054c-2.526,16.44,4.138,56.038,92.166,64.912
						c79.3,7.994,125.243-25.294,113.463-43.674c-11.78-18.381-25.099-26.16-18.262-34.602
						c10.266-12.675,17.641-14.154,19.41-32.427C218.244,54.511,113.473,43.672,78.851,84.238z"/>
				</defs>
				<clipPath id="SVGID_4_">
					<use xlink:href="#SVGID_3_"  style="overflow:visible;"/>
				</clipPath>
				<path class="st4" d="M72.535,69.777c0,0,10.491,31.369,34.271,58.028c12.023,13.479,71.469,42.679,42.363,61.939
					C11.202,281.037,0.879,141.586,0.879,141.586l37.945-61.749L72.535,69.777z"/>
			</g>
		</g>
	</g>
	<path class="st5" d="M42.269,42.287v102.528h62.103V42.287C104.372,42.287,74.587,10.047,42.269,42.287z"/>
	<path class="st6" d="M48.329,48.168v88.744h50.22V48.168C98.549,48.168,74.463,26.2,48.329,48.168z"/>
	<path class="st7" d="M40.1,39.989c0,0,29.396-27.069,65.66,0"/>
	<path class="st8" d="M106.965,149.79H40.028c-1.618,0-2.93-1.312-2.93-2.93l0,0c0-1.618,1.312-2.93,2.93-2.93h66.937
		c1.618,0,2.93,1.312,2.93,2.93l0,0C109.894,148.479,108.583,149.79,106.965,149.79z"/>
	<rect x="96.942" y="58.274" class="st9" width="3.248" height="8.629"/>
	<path class="st9" d="M84.526,119.879H61.67c-0.377,0-0.683-0.306-0.683-0.683l0,0c0-0.377,0.306-0.683,0.683-0.683h22.855
		c0.377,0,0.683,0.306,0.683,0.683l0,0C85.209,119.573,84.903,119.879,84.526,119.879z"/>
	<path class="st9" d="M84.526,123.521H61.67c-0.377,0-0.683-0.306-0.683-0.683l0,0c0-0.377,0.306-0.683,0.683-0.683h22.855
		c0.377,0,0.683,0.306,0.683,0.683l0,0C85.209,123.215,84.903,123.521,84.526,123.521z"/>
	<path class="st9" d="M84.526,127.163H61.67c-0.377,0-0.683-0.306-0.683-0.683l0,0c0-0.377,0.306-0.683,0.683-0.683h22.855
		c0.377,0,0.683,0.306,0.683,0.683l0,0C85.209,126.857,84.903,127.163,84.526,127.163z"/>
	<rect x="56.534" y="83.672" class="st0" width="32.321" height="8.194"/>
	<rect x="96.942" y="120.146" class="st9" width="3.248" height="8.629"/>
	<g>
		<path class="st10" d="M166.46,106.792c-0.556,0.01-14.614-2.572-15.307-17.064c-0.693-14.492,8.248-17.618,5.831-33.835
			c-2.417-16.217-8.616-21.157,5.195-32.202c0,0,6.16-4.417,6.423-11.038c0.315-7.926,12.671-16.515,21.002-10.794
			c8.331,5.721,6.409,13.809-0.658,26.695c-7.067,12.886-0.2,15.548,1.183,19.9c1.384,4.352,4.572,9.007-2.653,18.874
			c-7.225,9.867,1.475,22.805-4.671,32.293C182.804,99.621,177.405,106.601,166.46,106.792z"/>
		<g>
			<path class="st11" d="M168.738,129.067c0.301-0.07,0.494-0.391,0.434-0.736c-7.713-44.519,7.447-103.926,7.601-104.521
				c0.089-0.344-0.094-0.717-0.41-0.833c-0.315-0.117-0.643,0.068-0.732,0.413c-0.155,0.598-15.39,60.301-7.624,105.126
				c0.062,0.36,0.374,0.609,0.695,0.558C168.714,129.072,168.726,129.07,168.738,129.067z"/>
			<path class="st11" d="M171.581,47.167c0.032-0.008,0.065-0.018,0.096-0.032c0.299-0.133,0.431-0.515,0.296-0.852
				c-0.032-0.08-3.197-8.039-4.509-14.764c-0.07-0.358-0.386-0.6-0.706-0.541c-0.323,0.058-0.523,0.398-0.453,0.756
				c1.338,6.865,4.555,14.949,4.587,15.029C171.013,47.065,171.307,47.23,171.581,47.167z"/>
			<path class="st11" d="M169.602,60.416c0.082-0.019,0.161-0.058,0.231-0.119c2.972-2.578,10.456-7.336,10.531-7.384
				c0.278-0.176,0.363-0.576,0.189-0.894c-0.173-0.317-0.537-0.435-0.817-0.254c-0.31,0.196-7.628,4.85-10.663,7.482
				c-0.252,0.218-0.285,0.63-0.075,0.92C169.149,60.377,169.387,60.465,169.602,60.416z"/>
			<path class="st11" d="M167.966,73.331c0.041-0.01,0.082-0.024,0.122-0.045c0.292-0.149,0.407-0.538,0.258-0.869l-4.216-9.353
				c-0.149-0.331-0.505-0.48-0.799-0.33c-0.292,0.149-0.407,0.538-0.258,0.869l4.216,9.353
				C167.419,73.242,167.703,73.391,167.966,73.331z"/>
		</g>
	</g>
	<path class="st12" d="M128.306,87.25l3.48,2.746l-5.723,11.654l1.652,1.614l8.416-13.575c0.34-0.681,0.183-1.506-0.384-2.014
		l-4.612-4.191L128.306,87.25z"/>
	<path class="st12" d="M107.181,84.294l-5.759,5.155l-9.876-7.054l-2.381,2.18l11.761,9.969c0.5,0.533,1.341,0.548,1.86,0.033
		l6.865-6.172L107.181,84.294z"/>
	<path class="st13" d="M111.507,78.113c0,0-0.462-0.32-6.198,6.102l4.458,5.978l2.596-2.87L111.507,78.113z"/>
	<path class="st13" d="M116.162,76.963l-3.971,0.89c-1.059,0.237-1.856,1.112-1.994,2.189l-2.648,22.375l16.486-1.082l1.125-21.088
		c0.083-1.396-0.963-2.603-2.356-2.721L116.162,76.963z"/>
	<polygon class="st12" points="131.295,154.646 130.068,147.848 126.149,148.39 127.605,155.271 	"/>
	<polygon class="st12" points="108.392,154.455 108.635,147.337 104.672,147.21 104.773,154.306 	"/>
	<polygon class="st14" points="107.549,102.416 106.201,109.028 124.901,108.122 124.035,101.334 	"/>
	<polygon class="st14" points="115.366,106.449 111.165,124.57 110.024,152.205 103.737,151.951 103.328,124.397 106.567,107.266 	
		"/>
	<polygon class="st15" points="114.713,108.616 109.889,108.781 113.734,112.249 	"/>
	<polygon class="st14" points="124.786,107.219 126.69,124.81 132.239,151.442 125.825,152.837 119.051,125.888 116.189,106.457 	
		"/>
	<g>
		<path class="st16" d="M104.773,154.306l3.619,0.149l-0.109,5.425l-11.221,0.617l0,0c0.105-0.848,0.678-1.492,1.48-1.657
			l6.075-2.099L104.773,154.306z"/>
		<polygon class="st17" points="108.283,159.879 97.062,160.497 97.036,161.334 108.257,160.717 		"/>
	</g>
	<g>
		<path class="st16" d="M127.605,155.271l3.69-0.624l0.924,5.344l-10.685,0.833l0,0c-0.058-0.854,0.38-1.607,1.133-1.939
			l5.369-1.195L127.605,155.271z"/>
		<polygon class="st17" points="132.219,159.99 121.534,160.823 121.667,161.65 132.353,160.817 		"/>
	</g>
	<g>
		<path class="st18" d="M116.908,79.673l-0.415-0.019c-1.113-0.051-1.977-0.988-1.939-2.102l0.266-7.702l4.479,0.207l-0.265,7.655
			C118.995,78.844,118.04,79.725,116.908,79.673z"/>
		<g>
			<path class="st12" d="M116.622,76.401l-4.971-0.115c-1.669-0.039-2.991-1.424-2.952-3.093l0.21-8.933l11.015,0.258l-0.21,8.931
				C119.675,75.119,118.291,76.44,116.622,76.401z"/>
			<path class="st19" d="M119.746,69.545l-1.571-0.006c-0.428-0.002-0.745-0.393-0.662-0.812c0.223-1.131,0.49-3.076-0.245-3.321
				c-1.044-0.348-6.677,1.04-8.571-0.444c-2.667-2.089-0.678-5.344,1.753-5.449c2.431-0.105,2.036,2.704,4.869,2.69
				c2.834-0.015,7.149-1.047,5.192,6.436L119.746,69.545z"/>
			<circle class="st12" cx="119.95" cy="69.845" r="1.731"/>
			<path class="st20" d="M109.96,71.998l3.685,0.243c0,0-0.267,1.623-2.247,1.352C109.835,73.379,109.96,71.998,109.96,71.998z"/>
		</g>
	</g>
	<path class="st13" d="M123.532,77.697c0,0,0.894,0.09,8.273,4.524l-3.29,6.618l-4.348-2.301L123.532,77.697z"/>
	<circle class="st12" cx="89.447" cy="83.97" r="2.681"/>
	<line class="st21" x1="91.185" y1="82.938" x2="87.246" y2="79.885"/>
	<circle class="st12" cx="126.11" cy="103.62" r="2.857"/>
	<polyline class="st22" points="54.202,83.682 55.363,84.843 55.363,90.364 54.359,91.369 	"/>
	<g>
		<path class="st20" d="M69.026,65.429h8.588c1.572,0,2.861-1.289,2.861-2.861V53.98c0-1.572-1.289-2.861-2.861-2.861h-8.588
			c-1.572,0-2.861,1.289-2.861,2.861v8.588C66.165,64.14,67.454,65.429,69.026,65.429L69.026,65.429z M76.07,53.733
			c0.137-0.15,0.318-0.224,0.531-0.224c0.206,0,0.388,0.073,0.531,0.224c0.147,0.147,0.22,0.321,0.22,0.528
			c0,0.216-0.073,0.394-0.22,0.537c-0.143,0.14-0.326,0.207-0.531,0.207c-0.213,0-0.394-0.066-0.531-0.207
			c-0.147-0.143-0.213-0.321-0.213-0.537C75.857,54.054,75.923,53.879,76.07,53.733L76.07,53.733z M74.798,56.164
			c0-0.256,0.098-0.482,0.287-0.678c0.192-0.189,0.416-0.287,0.677-0.287h1.671c0.272,0,0.495,0.098,0.681,0.287
			c0.189,0.196,0.283,0.422,0.283,0.678v2.348c0,0.087-0.035,0.167-0.088,0.23c-0.059,0.064-0.136,0.091-0.241,0.091
			c-0.088,0-0.168-0.028-0.238-0.091c-0.059-0.063-0.088-0.143-0.088-0.23v-2.1h-0.178v5.81c0,0.112-0.038,0.216-0.119,0.297
			c-0.09,0.088-0.185,0.126-0.297,0.126c-0.132,0-0.241-0.038-0.325-0.126c-0.081-0.08-0.126-0.185-0.126-0.297v-3.368H76.51v3.368
			c0,0.112-0.041,0.216-0.129,0.297c-0.08,0.088-0.185,0.126-0.311,0.126c-0.119,0-0.22-0.038-0.308-0.126
			c-0.094-0.08-0.143-0.185-0.143-0.297v-5.81h-0.167v2.1c0,0.087-0.031,0.167-0.084,0.23c-0.063,0.064-0.14,0.091-0.244,0.091
			c-0.088,0-0.165-0.028-0.227-0.091c-0.07-0.063-0.098-0.143-0.098-0.23V56.164z M73.261,52.908h0.741V63.64h-0.741V52.908z
			 M69.83,53.733c0.15-0.15,0.332-0.224,0.548-0.224c0.206,0,0.381,0.073,0.521,0.224c0.14,0.147,0.213,0.321,0.213,0.528
			c0,0.216-0.073,0.394-0.213,0.537c-0.14,0.14-0.315,0.21-0.521,0.21c-0.216,0-0.398-0.07-0.548-0.21
			c-0.147-0.143-0.22-0.321-0.22-0.537C69.61,54.054,69.684,53.879,69.83,53.733L69.83,53.733z M68.265,58.124
			c0.01-0.024,0.038-0.112,0.073-0.258c0.038-0.147,0.09-0.328,0.154-0.538c0.063-0.213,0.132-0.447,0.206-0.695
			c0.073-0.248,0.139-0.489,0.224-0.72c0.049-0.178,0.157-0.339,0.321-0.478c0.168-0.147,0.339-0.213,0.518-0.213h1.201
			c0.185,0,0.364,0.066,0.524,0.213c0.157,0.14,0.269,0.301,0.332,0.478c0.067,0.231,0.137,0.472,0.203,0.72
			c0.07,0.248,0.143,0.482,0.202,0.695c0.064,0.21,0.115,0.392,0.154,0.538c0.042,0.147,0.067,0.234,0.08,0.258l0.018,0.077
			c0,0.157-0.073,0.248-0.214,0.29l-0.073,0.021c-0.154,0-0.251-0.073-0.293-0.217c-0.01-0.048-0.052-0.189-0.112-0.412
			c-0.066-0.224-0.136-0.453-0.213-0.702c-0.077-0.244-0.171-0.555-0.283-0.943h-0.175l1.017,3.444h-0.964v2.617
			c0,0.101-0.028,0.189-0.108,0.248c-0.066,0.067-0.15,0.098-0.251,0.098c-0.109,0-0.186-0.031-0.256-0.098
			c-0.063-0.059-0.09-0.147-0.09-0.248v-2.617h-0.178v2.617c0,0.101-0.032,0.189-0.095,0.248c-0.066,0.067-0.147,0.098-0.251,0.098
			c-0.101,0-0.189-0.031-0.258-0.098c-0.073-0.059-0.105-0.147-0.105-0.248v-2.617H68.59l1.02-3.441h-0.175
			c-0.112,0.384-0.206,0.695-0.279,0.939c-0.066,0.249-0.14,0.479-0.207,0.702c-0.073,0.224-0.119,0.364-0.125,0.412
			c-0.046,0.144-0.14,0.217-0.293,0.217l-0.077-0.021c-0.14-0.048-0.21-0.143-0.21-0.272C68.244,58.183,68.247,58.152,68.265,58.124
			L68.265,58.124z M68.265,58.124"/>
	</g>
	<path class="st20" d="M198.326,157.222"/>
</g>
</svg>
