<?xml version="1.0" encoding="utf-8"?>
<!-- Generator: Adobe Illustrator 22.1.0, SVG Export Plug-In . SVG Version: 6.00 Build 0)  -->
<svg version="1.1" id="Layer_1" xmlns="http://www.w3.org/2000/svg" xmlns:xlink="http://www.w3.org/1999/xlink" x="0px" y="0px"
	 viewBox="0 0 33 40.9" style="enable-background:new 0 0 33 40.9;" xml:space="preserve">
<style type="text/css">
	.st0{fill:#146CB7;}
</style>
<title>1.get-a-quote</title>
<g>
	<path class="st0" d="M31.7,0H1.3C0.6,0,0,0.6,0,1.3v38.3c0,0.7,0.6,1.3,1.3,1.3h30.4c0.7,0,1.3-0.5,1.3-1.2V1.3
		C33,0.6,32.4,0,31.7,0z M31.1,39.1H1.8V1.9h29.3V39.1z"/>
	<path class="st0" d="M7.8,28.4h17.4c0.5-0.1,0.8-0.4,0.9-0.8c0.1-0.5-0.3-0.9-0.8-1H7.8C7.4,26.6,7,27,7,27.4
		C6.9,27.9,7.3,28.3,7.8,28.4z"/>
	<path class="st0" d="M7.8,32h17.4c0.5,0,0.8-0.4,0.9-0.8c0.1-0.5-0.3-0.9-0.8-1H7.8C7.4,30.2,7,30.6,7,31C6.9,31.5,7.3,31.9,7.8,32
		z"/>
	<path class="st0" d="M7.8,35.7h17.4c0.5-0.1,0.8-0.4,0.9-0.8c0.1-0.5-0.3-0.9-0.8-1H7.8c-0.4,0-0.8,0.4-0.8,0.8
		C6.9,35.2,7.3,35.6,7.8,35.7z"/>
	<path class="st0" d="M16.5,23.3c5,0,9-4.1,9-9c0-5-4-9-9-9s-9,4-9,9S11.5,23.3,16.5,23.3z M16.5,7c4,0,7.2,3.2,7.2,7.2
		s-3.2,7.2-7.2,7.2s-7.2-3.2-7.2-7.2S12.5,7,16.5,7z"/>
	<path class="st0" d="M19.3,18.3v-1.4h-3.1v-1.6h1.7V14h-1.7v-1.2c-0.1-0.3,0.1-0.6,0.3-0.8c0.2-0.1,0.4-0.2,0.7-0.2
		c0.4,0,0.8,0.2,1,0.6l0.1,0.1l1.1-0.9l-0.1-0.1c-0.5-0.8-1.3-1.2-2.2-1.2c-0.7-0.1-1.3,0.2-1.8,0.6c-0.5,0.5-0.8,1.2-0.7,1.9V14
		h-0.9v1.3h0.8v1.6h-0.8v1.4H19.3L19.3,18.3z"/>
</g>
</svg>
