<svg width="20" height="20" viewBox="0 0 20 20" fill="none" xmlns="http://www.w3.org/2000/svg">
<circle cx="10" cy="10" r="9.5" stroke="#264485"/>
<path fill-rule="evenodd" clip-rule="evenodd" d="M10.9607 10.0426L13.7121 12.794C13.9693 13.0512 13.9693 13.454 13.7121 13.7112C13.455 13.9683 13.0521 13.9683 12.795 13.7112L10.0436 10.9597L7.29213 13.7112C7.03499 13.9683 6.63213 13.9683 6.37499 13.7112C6.11784 13.454 6.11784 13.0512 6.37499 12.794L9.12642 10.0426L6.37499 7.29115C6.11784 7.03401 6.11784 6.63115 6.37499 6.37401C6.63213 6.11687 7.03499 6.11687 7.29213 6.37401L10.0436 9.12544L12.795 6.37401C13.0521 6.11687 13.455 6.11687 13.7121 6.37401C13.9693 6.63115 13.9693 7.03401 13.7121 7.29115L10.9607 10.0426Z" fill="#264485"/>
</svg>
