<?xml version="1.0" encoding="utf-8"?>
<!-- Generator: Adobe Illustrator 23.0.3, SVG Export Plug-In . SVG Version: 6.00 Build 0)  -->
<svg version="1.1" id="Layer_1" xmlns="http://www.w3.org/2000/svg" xmlns:xlink="http://www.w3.org/1999/xlink" x="0px" y="0px"
	 viewBox="0 0 20.5 24" style="enable-background:new 0 0 20.5 24;" xml:space="preserve">
<style type="text/css">
	.st0{fill:#1B6DB6;}
</style>
<g>
	<path class="st0" d="M18,19.3l-3.2-7.2H7.4l-0.1-1.9H12V8.3H7.1L6.8,4.3c1.2,0,2.1-1,2.1-2.1C8.9,1,7.9,0,6.8,0S4.6,1,4.6,2.1
		c0,0.4,0.1,0.7,0.2,1l0.8,10.8h8l3.4,7.8l3.4-1.4l-0.7-1.7L18,19.3z"/>
	<path class="st0" d="M8.1,22.2c-3.5,0-6.3-2.8-6.3-6.3c0-2.1,1.1-4,2.7-5.1l-0.2-2c-2.6,1.4-4.4,4-4.4,7.1C0,20.4,3.7,24,8.1,24
		c3.1,0,5.7-1.7,7.1-4.2l-1-2.3C13.5,20.2,11.1,22.2,8.1,22.2z"/>
</g>
</svg>
