<?xml version="1.0" encoding="utf-8"?>
<!-- Generator: Adobe Illustrator 19.0.0, SVG Export Plug-In . SVG Version: 6.00 Build 0)  -->
<svg version="1.1" id="Layer_1" xmlns="http://www.w3.org/2000/svg" xmlns:xlink="http://www.w3.org/1999/xlink" x="0px" y="0px"
	 viewBox="0 0 60 50" style="enable-background:new 0 0 60 50;" xml:space="preserve">
<style type="text/css">
	.st0{fill:#336CB4;}
</style>
<g>
	<g>
		<path class="st0" d="M54.478,29.046c-0.951-3.902-3.262-7.348-6.509-9.702c-3.091-2.241-6.854-3.376-10.641-3.219
			c-1.745-3.746-4.784-6.706-8.608-8.367c-0.375-0.163-0.812,0.009-0.975,0.384c-0.163,0.375,0.009,0.812,0.384,0.975
			c3.637,1.58,6.497,4.446,8.052,8.069c0.34,0.793,0.616,1.619,0.82,2.456c0.054,0.222,0.104,0.45,0.153,0.698c0,0,0,0,0,0
			c0.742,3.786,0.044,7.69-1.965,10.994c-1.899,3.123-4.815,5.452-8.256,6.612c-0.062-0.141-0.121-0.284-0.178-0.428
			c-0.001-0.002-0.001-0.003-0.002-0.005c-0.109-0.277-0.208-0.558-0.296-0.842c-0.007-0.023-0.014-0.046-0.021-0.069
			c-0.041-0.134-0.08-0.27-0.117-0.406c-0.001-0.003-0.002-0.007-0.003-0.01c6.473-2.172,10.387-8.912,8.973-15.665c0,0,0,0,0,0
			c-0.035-0.167-0.066-0.306-0.099-0.439c-0.246-1.009-0.605-1.987-1.069-2.907c-0.001-0.002-0.002-0.004-0.003-0.006
			c-0.003-0.006-0.006-0.012-0.01-0.018c-1.36-2.688-3.617-4.876-6.36-6.163c-1.315-0.617-2.718-1.014-4.148-1.185l5.263-4.892
			c0.267-0.248,0.314-0.653,0.111-0.956l-0.004-0.005c0,0,0,0,0,0l-2.433-3.623C26.401,0.123,26.17,0,25.923,0h-7.886
			c-0.247,0-0.477,0.123-0.615,0.328l-2.437,3.629c-0.203,0.302-0.156,0.708,0.111,0.956l5.262,4.892
			c-0.536,0.064-1.069,0.159-1.597,0.288C11.478,11.866,6.996,19.236,8.77,26.52c0.732,3.003,2.483,5.69,4.931,7.567
			c2.249,1.724,5.003,2.709,7.815,2.806c0.013,0.058,0.027,0.116,0.041,0.173c0.033,0.136,0.068,0.27,0.104,0.404
			c0.008,0.031,0.017,0.062,0.026,0.093c0.029,0.107,0.06,0.214,0.091,0.32c0.009,0.029,0.018,0.058,0.026,0.088
			c0.034,0.114,0.07,0.227,0.106,0.339c0.006,0.019,0.013,0.039,0.019,0.058c0.044,0.133,0.089,0.265,0.136,0.396
			c-3.259,0.017-6.469-1.004-9.138-2.929c-2.978-2.149-5.098-5.3-5.969-8.874c-0.869-3.567-0.439-7.334,1.21-10.608
			c1.631-3.238,4.351-5.808,7.659-7.238c0.376-0.162,0.548-0.598,0.386-0.974c-0.162-0.375-0.599-0.549-0.974-0.386
			c-3.626,1.567-6.607,4.384-8.394,7.931c-1.807,3.588-2.278,7.717-1.326,11.625c0.954,3.916,3.277,7.37,6.542,9.724
			c2.897,2.09,6.378,3.21,9.915,3.21c0.23,0,0.461-0.006,0.692-0.016c2.781,5.955,8.815,9.77,15.35,9.77
			c1.324,0,2.668-0.157,4.01-0.483C51.104,47.305,56.689,38.122,54.478,29.046z M36.454,32.105c2.042-3.357,2.847-7.28,2.305-11.142
			c2.411,0.149,4.76,1.029,6.685,2.521c2.185,1.693,3.687,4.012,4.343,6.704c1.581,6.49-2.413,13.056-8.903,14.638
			c-3.144,0.766-6.398,0.262-9.163-1.42c-1.711-1.041-3.108-2.456-4.105-4.128C31.297,37.983,34.412,35.463,36.454,32.105z
			 M26.018,34.723c-0.379-2.696,0.158-5.426,1.554-7.802c1.46-2.486,3.715-4.339,6.407-5.287
			C34.772,27.312,31.424,32.816,26.018,34.723z M18.432,1.482h7.096l1.438,2.142h-9.972L18.432,1.482z M17.48,5.105h9.001
			l-4.5,4.183L17.48,5.105z M21.237,35.395c-2.389-0.147-4.718-1.014-6.634-2.484c-2.212-1.696-3.731-4.028-4.392-6.742
			c-1.581-6.49,2.413-13.056,8.903-14.638c2.714-0.661,5.483-0.385,8.007,0.8c2.187,1.026,4.025,2.695,5.256,4.749
			c-3.802,1.337-6.982,3.967-9.02,7.485C21.443,27.868,20.711,31.658,21.237,35.395z M41.677,48.077
			c-1.225,0.298-2.451,0.441-3.659,0.441c-6.152,0-11.818-3.706-14.239-9.438c-0.026-0.063-0.053-0.125-0.079-0.189
			c-0.01-0.025-0.02-0.051-0.031-0.077c-0.032-0.079-0.063-0.158-0.093-0.237c-0.004-0.012-0.009-0.024-0.013-0.036
			c-0.035-0.091-0.069-0.183-0.101-0.275c-0.001-0.003-0.002-0.006-0.003-0.009c-0.035-0.099-0.07-0.199-0.103-0.299
			c0-0.001,0-0.001-0.001-0.002c-0.034-0.101-0.067-0.203-0.098-0.305c-0.002-0.007-0.004-0.015-0.007-0.022
			c-0.029-0.095-0.058-0.19-0.086-0.286c-0.009-0.031-0.017-0.063-0.026-0.094c-0.02-0.072-0.041-0.145-0.06-0.217
			c-0.028-0.106-0.055-0.212-0.081-0.319c-0.026-0.108-0.051-0.216-0.075-0.325c-0.009-0.042-0.018-0.085-0.027-0.128
			c-0.01-0.049-0.021-0.099-0.03-0.148c-0.007-0.032-0.013-0.064-0.02-0.097c-0.001-0.004-0.002-0.009-0.003-0.013
			c-0.716-3.67-0.087-7.442,1.798-10.695c1.895-3.271,4.871-5.7,8.426-6.898c0.25,0.567,0.456,1.156,0.617,1.759
			c-3.108,1.041-5.714,3.151-7.388,6.001c-1.723,2.933-2.279,6.348-1.585,9.664c0,0,0,0,0,0.001c0,0.002,0.001,0.003,0.001,0.005
			c0.012,0.059,0.025,0.117,0.038,0.176c0.02,0.091,0.04,0.176,0.06,0.258c0.029,0.12,0.06,0.24,0.093,0.359
			c0.008,0.029,0.017,0.058,0.025,0.087c0.026,0.092,0.052,0.184,0.08,0.276c0.008,0.028,0.017,0.055,0.026,0.083
			c0.03,0.097,0.061,0.193,0.092,0.288c0.006,0.019,0.013,0.038,0.019,0.058c0.037,0.11,0.076,0.22,0.116,0.329
			c0.001,0.004,0.003,0.008,0.004,0.012c1.055,2.875,3.035,5.292,5.69,6.907c2.157,1.312,4.579,1.985,7.04,1.985
			c1.08,0,2.167-0.13,3.243-0.392c7.284-1.774,11.766-9.144,9.992-16.428c-0.736-3.022-2.422-5.624-4.875-7.525
			c-2.257-1.749-5.035-2.751-7.87-2.848c-0.013-0.058-0.027-0.116-0.041-0.174c-0.139-0.573-0.31-1.141-0.509-1.699
			c3.271-0.02,6.494,1.012,9.167,2.951c2.963,2.148,5.072,5.292,5.939,8.853C55.056,37.679,49.959,46.059,41.677,48.077z"/>
	</g>
</g>
</svg>
