<?xml version="1.0" encoding="utf-8"?>
<!-- Generator: Adobe Illustrator 23.0.3, SVG Export Plug-In . SVG Version: 6.00 Build 0)  -->
<svg version="1.1" id="Layer_1" xmlns="http://www.w3.org/2000/svg" xmlns:xlink="http://www.w3.org/1999/xlink" x="0px" y="0px"
	 viewBox="0 0 60 50" style="enable-background:new 0 0 60 50;" xml:space="preserve">
<style type="text/css">
	.st0{fill:none;stroke:#356CB0;stroke-width:2.0336;stroke-miterlimit:10;}
	.st1{fill:#FFFFFF;}
	.st2{fill:none;stroke:#356CB0;stroke-width:1.1298;stroke-miterlimit:10;}
	.st3{fill:none;stroke:#356CB0;stroke-width:1.1298;stroke-linecap:round;stroke-linejoin:round;stroke-miterlimit:10;}
	.st4{fill:#356CB0;}
	.st5{fill:#146CB7;}
</style>
<g>
	<g>
		<g transform="translate(-960.000000, -2567.000000)">
			<g transform="translate(960.000000, 2567.000000)">
				<path class="st5" d="M24.3,24.2h3.8c0.3,0,0.5,0.1,0.6,0.3c0.1,0.2,0.2,0.5,0.1,0.7l-3.3,7.9l9.7-11.3h-4.5
					c-0.3,0-0.5-0.2-0.7-0.4c-0.1-0.2-0.1-0.6,0-0.8l4.7-7.3h-4.3L24.3,24.2z M23,38.2c-0.1,0-0.3,0-0.4-0.1c-0.3-0.2-0.5-0.6-0.3-1
					L27,25.8h-4c-0.3,0-0.5-0.1-0.7-0.4c-0.1-0.2-0.1-0.5,0-0.8l7-12.4c0.1-0.2,0.4-0.4,0.7-0.4h6.2c0.3,0,0.5,0.2,0.7,0.4
					c0.1,0.2,0.1,0.6,0,0.8l-4.7,7.3H37c0.3,0,0.6,0.2,0.7,0.5c0.1,0.3,0.1,0.6-0.1,0.8l-14,16.3C23.4,38.1,23.2,38.2,23,38.2
					L23,38.2z"/>
				<path class="st5" d="M11.4,3.3c-1.7,0-3.1,1.4-3.1,3.1v37.3c0,1.7,1.4,3.1,3.1,3.1h37.3c1.7,0,3.1-1.4,3.1-3.1V6.4
					c0-1.7-1.4-3.1-3.1-3.1H11.4z M48.6,48.3H11.4c-2.6,0-4.7-2.1-4.7-4.7V6.4c0-2.6,2.1-4.7,4.7-4.7h37.3c2.6,0,4.7,2.1,4.7,4.7
					v37.3C53.3,46.2,51.2,48.3,48.6,48.3L48.6,48.3z"/>
				<path class="st5" d="M30,7.9c-9.4,0-17.1,7.7-17.1,17.1S20.6,42.1,30,42.1S47.1,34.4,47.1,25S39.4,7.9,30,7.9 M30,43.6
					c-10.3,0-18.6-8.4-18.6-18.6S19.7,6.4,30,6.4S48.6,14.7,48.6,25S40.3,43.6,30,43.6"/>
				<path class="st5" d="M12.9,6.4c0-0.9-0.7-1.6-1.6-1.6S9.8,5.5,9.8,6.4s0.7,1.6,1.6,1.6S12.9,7.2,12.9,6.4"/>
				<path class="st5" d="M12.9,43.6c0-0.9-0.7-1.6-1.6-1.6s-1.6,0.7-1.6,1.6c0,0.9,0.7,1.6,1.6,1.6S12.9,44.5,12.9,43.6"/>
				<path class="st5" d="M50.2,6.4c0-0.9-0.7-1.6-1.6-1.6s-1.6,0.7-1.6,1.6s0.7,1.6,1.6,1.6S50.2,7.2,50.2,6.4"/>
				<path class="st5" d="M50.2,43.6c0-0.9-0.7-1.6-1.6-1.6s-1.6,0.7-1.6,1.6c0,0.9,0.7,1.6,1.6,1.6S50.2,44.5,50.2,43.6"/>
			</g>
		</g>
	</g>
</g>
</svg>
