<?xml version="1.0" encoding="utf-8"?>
<!-- Generator: Adobe Illustrator 23.0.3, SVG Export Plug-In . SVG Version: 6.00 Build 0)  -->
<svg version="1.1" id="Layer_1" xmlns="http://www.w3.org/2000/svg" xmlns:xlink="http://www.w3.org/1999/xlink" x="0px" y="0px"
	 viewBox="0 0 60 50" style="enable-background:new 0 0 60 50;" xml:space="preserve">
<style type="text/css">
	.st0{fill:none;stroke:#356CB0;stroke-width:2.0336;stroke-miterlimit:10;}
	.st1{fill:#FFFFFF;}
	.st2{fill:none;stroke:#356CB0;stroke-width:1.1298;stroke-miterlimit:10;}
	.st3{fill:none;stroke:#356CB0;stroke-width:1.1298;stroke-linecap:round;stroke-linejoin:round;stroke-miterlimit:10;}
	.st4{fill:#356CB0;}
	.st5{fill:#146CB7;}
</style>
<g>
	<path class="st5" d="M24.5,5.4c0-2-1.6-3.7-3.7-3.7c-2,0-3.7,1.6-3.7,3.7v33.8c-1,1-1.7,2.3-1.7,3.8c0,2.9,2.4,5.3,5.3,5.3
		c2.9,0,5.3-2.4,5.3-5.3c0-1.5-0.6-2.9-1.7-3.8V5.4z M20.9,46.4c-1.9,0-3.4-1.5-3.4-3.4c0-1.2,0.7-2.3,1.7-2.9V38v-0.6v-32
		c0-1,0.8-1.7,1.7-1.7c1,0,1.7,0.8,1.7,1.7v1.8h-1.2c-0.5,0-0.8,0.4-0.8,0.8c0,0.5,0.4,0.8,0.8,0.8h1.2v1.7v0.3h-1.2
		c-0.5,0-0.8,0.4-0.8,0.8c0,0.5,0.4,0.8,0.8,0.8h1.2v0.9v1v0h-1.2c-0.5,0-0.8,0.4-0.8,0.8s0.4,0.8,0.8,0.8h1.2v0.2v21.1V38v2.1
		c1,0.6,1.7,1.7,1.7,2.9C24.3,44.9,22.7,46.4,20.9,46.4z"/>
	<path class="st5" d="M21.4,40.8V18.9c0-0.3-0.2-0.5-0.5-0.5c-0.3,0-0.5,0.2-0.5,0.5v21.9c-1,0.2-1.7,1.1-1.7,2.2
		c0,1.2,1,2.2,2.2,2.2c1.2,0,2.2-1,2.2-2.2C23.1,41.9,22.4,41.1,21.4,40.8z"/>
	<path class="st5" d="M44.2,24.6c-0.4-0.1-0.7-0.3-0.9-0.7l-0.4-0.7c-0.5-0.9-1.2-1.3-2-1.3s-1.5,0.5-2,1.3l-0.4,0.7
		c-0.2,0.3-0.4,0.5-0.5,0.5c-0.1,0-0.3-0.1-0.5-0.5L37,23.1c-0.5-0.9-1.2-1.4-2-1.4c-0.8,0-1.5,0.5-2,1.4l-0.4,0.8
		c-0.2,0.3-0.4,0.5-0.5,0.5c-0.1,0-0.3-0.1-0.5-0.5l-0.4-0.7c-0.5-0.9-1.2-1.3-2-1.3c-0.8,0-1.5,0.5-2,1.3l-0.4,0.7
		c-0.2,0.3-0.4,0.5-0.5,0.5v1.8c0.8,0,1.5-0.5,2-1.3l0.4-0.7c0.2-0.3,0.4-0.5,0.5-0.5c0.1,0,0.3,0.1,0.5,0.5l0.4,0.7
		c0.5,0.9,1.2,1.3,2,1.3c0,0,0,0,0,0c0.8,0,1.5-0.5,2-1.4l0.4-0.8c0.4-0.6,0.6-0.6,1,0l0.4,0.8c0.5,0.9,1.2,1.4,2,1.4c0,0,0,0,0,0
		c0.8,0,1.5-0.5,2-1.3l0.4-0.7c0.2-0.3,0.4-0.5,0.5-0.5c0.1,0,0.3,0.1,0.5,0.5l0.4,0.7c0.5,0.8,1.2,1.3,2.1,1.5
		c0.2,0,0.4,0.1,0.6,0.1v-1.8C44.4,24.6,44.3,24.6,44.2,24.6z"/>
	<path class="st5" d="M43.3,29.8L42.9,29c-0.5-0.9-1.2-1.3-2-1.3s-1.5,0.5-2,1.3l-0.4,0.7c-0.2,0.3-0.4,0.5-0.5,0.5
		c-0.1,0-0.3-0.1-0.5-0.5L37,29c-0.5-0.9-1.2-1.4-2-1.4c-0.8,0-1.5,0.5-2,1.4l-0.4,0.8c-0.2,0.3-0.4,0.5-0.5,0.5
		c-0.1,0-0.3-0.1-0.5-0.5L31.2,29c-0.5-0.9-1.2-1.3-2-1.3c-0.8,0-1.5,0.5-2,1.3l-0.4,0.7c-0.2,0.3-0.4,0.5-0.5,0.5V32
		c0.8,0,1.5-0.5,2-1.3l0.4-0.7c0.2-0.3,0.4-0.5,0.5-0.5c0.1,0,0.3,0.1,0.5,0.5l0.4,0.7c0.5,0.9,1.2,1.3,2,1.3c0,0,0,0,0,0
		c0.8,0,1.5-0.5,2-1.4l0.4-0.8c0.4-0.6,0.6-0.6,1,0l0.4,0.8c0.5,0.9,1.2,1.4,2,1.4c0,0,0,0,0,0c0.8,0,1.5-0.5,2-1.3l0.4-0.7
		c0.2-0.3,0.4-0.5,0.5-0.5c0.1,0,0.3,0.1,0.5,0.5l0.4,0.7c0.5,0.8,1.2,1.3,2.1,1.5c0.2,0,0.4,0.1,0.6,0.1v-1.8c-0.1,0-0.1,0-0.2,0
		C43.9,30.4,43.5,30.1,43.3,29.8z"/>
</g>
</svg>
