<svg width="18" height="18" viewBox="0 0 18 18" fill="none" xmlns="http://www.w3.org/2000/svg">
<circle cx="9" cy="9" r="9" fill="#00AC98"/>
<path d="M9.11111 6.22222C9.72476 6.22222 10.2222 5.72476 10.2222 5.11111C10.2222 4.49746 9.72476 4 9.11111 4C8.49746 4 8 4.49746 8 5.11111C8 5.72476 8.49746 6.22222 9.11111 6.22222Z" fill="white"/>
<path d="M10.2222 8.45153V12.8816C10.2222 13.1782 10.1052 13.4627 9.89679 13.6724C9.68841 13.8821 9.4058 13.9999 9.11111 13.9999C8.81643 13.9999 8.53381 13.8821 8.32544 13.6724C8.11706 13.4627 8 13.1782 8 12.8816V8.45153C8 8.15495 8.11706 7.87051 8.32544 7.66079C8.53381 7.45107 8.81643 7.33325 9.11111 7.33325C9.4058 7.33325 9.68841 7.45107 9.89679 7.66079C10.1052 7.87051 10.2222 8.15495 10.2222 8.45153Z" fill="white"/>
</svg>
