<?xml version="1.0" encoding="utf-8"?>
<!-- Generator: Adobe Illustrator 16.0.0, SVG Export Plug-In . SVG Version: 6.00 Build 0)  -->
<!DOCTYPE svg PUBLIC "-//W3C//DTD SVG 1.1//EN" "http://www.w3.org/Graphics/SVG/1.1/DTD/svg11.dtd">
<svg version="1.1" id="Layer_1" xmlns="http://www.w3.org/2000/svg" xmlns:xlink="http://www.w3.org/1999/xlink" x="0px" y="0px"
	 width="55.147px" height="13.868px" viewBox="0 0 55.147 13.868" enable-background="new 0 0 55.147 13.868" xml:space="preserve">
<g>
	<path fill="#404448" d="M5.463,8.814c-0.229-0.002-0.417-0.188-0.417-0.42V5.456c0-0.112,0.044-0.219,0.123-0.298
		s0.186-0.124,0.297-0.124h2.943c0.111,0,0.219,0.045,0.298,0.124S8.83,5.344,8.829,5.456v2.938c0.001,0.112-0.043,0.22-0.122,0.298
		c-0.079,0.08-0.187,0.124-0.298,0.124L5.463,8.814z"/>
	<path fill="#404448" d="M2.317,0h9.233c0.615,0,1.205,0.244,1.639,0.68c0.436,0.434,0.68,1.023,0.68,1.638v9.233
		c0,1.279-1.038,2.317-2.318,2.317H2.317C1.037,13.868,0,12.83,0,11.551V2.317C0,1.037,1.038,0,2.317,0 M10.618,11.348
		c0.403,0,0.73-0.327,0.73-0.731l-0.002-7.363c0-0.403-0.327-0.73-0.73-0.73H3.254c-0.194,0-0.38,0.077-0.518,0.214
		C2.599,2.874,2.522,3.061,2.522,3.255v7.361c0,0.404,0.327,0.731,0.731,0.731H10.618z"/>
	<path fill="#404448" d="M20.926,6.316c-0.429-0.117-0.836-0.228-1.151-0.368c-0.584-0.261-0.855-0.623-0.855-1.139
		c0-0.974,0.941-1.413,1.88-1.413c0.891,0,1.67,0.369,2.192,1.038l0.035,0.046l0.755-0.59l-0.037-0.045
		c-0.694-0.885-1.725-1.369-2.9-1.369c-0.782,0-1.5,0.211-2.018,0.595c-0.584,0.429-0.893,1.047-0.893,1.787
		c0,1.719,1.618,2.139,2.92,2.476c1.317,0.348,2.123,0.61,2.123,1.614c0,0.989-0.799,1.627-2.036,1.627
		c-0.61,0-1.743-0.162-2.455-1.249l-0.033-0.052L17.66,9.849l0.03,0.047c0.672,1.018,1.834,1.604,3.19,1.604
		c1.841,0,3.08-1.039,3.08-2.587C23.961,7.144,22.276,6.686,20.926,6.316"/>
	<path fill="#404448" d="M29.967,5.96V5.028h0.887v8.839h-0.887v-3.452c-0.505,0.692-1.264,1.072-2.156,1.072
		c-1.685,0-2.862-1.349-2.862-3.297s1.18-3.308,2.862-3.308C28.696,4.883,29.456,5.264,29.967,5.96 M25.882,8.18
		c0,1.803,1.033,2.446,2,2.446l0.002,0.001c1.266,0,2.083-0.97,2.083-2.447c0-1.479-0.819-2.434-2.085-2.434
		C26.407,5.746,25.882,7.004,25.882,8.18"/>
	<path fill="#404448" d="M36.712,5.028v3.489c0,1.222-0.836,2.108-1.988,2.108c-0.956,0-1.422-0.568-1.422-1.736V5.028h-0.887v4.043
		c0,1.514,0.823,2.418,2.201,2.418c0.858,0,1.596-0.364,2.096-1.03v0.886H37.6V5.028H36.712z"/>
	<path fill="#404448" d="M39.268,5.691c0.653-0.513,1.54-0.807,2.432-0.807c1.409,0,2.249,0.701,2.246,1.875v4.587h-0.887v-0.701
		c-0.447,0.561-1.095,0.845-1.928,0.845c-1.357,0-2.201-0.743-2.201-1.936c0-1.553,1.463-1.796,2.086-1.9
		c0.102-0.017,0.206-0.033,0.312-0.049h0.004c0.852-0.132,1.73-0.267,1.73-0.989c0-0.817-1.062-0.881-1.387-0.881
		c-0.574,0-1.384,0.17-1.936,0.648l-0.05,0.044l-0.464-0.703L39.268,5.691z M39.855,9.505c0,1.012,0.952,1.122,1.362,1.122
		c0.892,0,1.846-0.477,1.844-1.811V7.902c-0.434,0.273-1.049,0.379-1.598,0.476l-0.009,0.001L41.18,8.428
		C40.301,8.591,39.855,8.801,39.855,9.505"/>
	<path fill="#404448" d="M49.079,5.147c-0.21-0.149-0.542-0.24-0.888-0.24c-0.711,0.011-1.376,0.354-1.796,0.927V5.025h-0.887v6.316
		h0.887V7.964c0-1.498,0.842-2.169,1.676-2.169c0.243-0.003,0.484,0.048,0.707,0.149l0.06,0.032l0.28-0.803L49.079,5.147z"/>
	<path fill="#404448" d="M49.339,8.204c0-1.954,1.219-3.319,2.961-3.319c1.678,0,2.851,1.211,2.848,2.949
		c-0.001,0.151-0.009,0.302-0.025,0.453l-0.006,0.051h-4.844c0.021,1.392,0.859,2.288,2.144,2.288c0.735,0,1.374-0.299,1.796-0.844
		l0.038-0.049l0.643,0.57l-0.036,0.044c-0.427,0.521-1.205,1.141-2.49,1.141C50.557,11.488,49.339,10.169,49.339,8.204
		 M52.275,5.735c-1.083,0-1.851,0.713-1.97,1.821h3.904C54.134,6.665,53.589,5.735,52.275,5.735"/>
</g>
</svg>
