<?xml version="1.0" encoding="utf-8"?>
<!-- Generator: Adobe Illustrator 23.0.3, SVG Export Plug-In . SVG Version: 6.00 Build 0)  -->
<svg version="1.1" id="Layer_1" xmlns="http://www.w3.org/2000/svg" xmlns:xlink="http://www.w3.org/1999/xlink" x="0px" y="0px"
	 viewBox="0 0 624.8 455.9" style="enable-background:new 0 0 624.8 455.9;" xml:space="preserve">
<style type="text/css">
	.st0{fill:none;}
	.st1{opacity:0.2;}
	.st2{clip-path:url(#SVGID_2_);}
	.st3{fill:#E9EBFB;}
	.st4{clip-path:url(#SVGID_4_);fill:#E0E2F5;}
	.st5{fill:#DCE0F4;}
	.st6{fill:#09ACF2;}
	.st7{fill:none;stroke:#FFFFFF;stroke-width:5;stroke-linecap:round;stroke-linejoin:round;stroke-miterlimit:10;}
	.st8{fill:none;stroke:#E4EAEF;stroke-width:14;stroke-linecap:round;stroke-miterlimit:10;}
	.st9{fill:#E4EAEF;}
	.st10{fill:#306FB4;}
	.st11{fill:none;stroke:#E4EAEF;stroke-width:3;stroke-linecap:round;stroke-linejoin:round;stroke-miterlimit:10;}
	.st12{fill:#FFFFFF;}
	.st13{fill-rule:evenodd;clip-rule:evenodd;fill:#256193;}
	.st14{fill:#133A50;}
	.st15{fill:#97A3CC;}
	.st16{fill:#EDF1F2;}
	.st17{fill:#FEC4AD;}
	.st18{fill:#364469;}
	.st19{fill:#1F2E3B;}
	.st20{fill:#7B2B1A;}
	.st21{fill:#AEBFDE;}
	.st22{fill:#184867;}
	.st23{fill:#63A5E0;}
	.st24{fill:#81B7FB;}
	.st25{opacity:0.7;}
	.st26{fill:#4D8BD7;}
</style>
<rect x="258.8" y="227.9" class="st0" width="80.4" height="20.4"/>
<g class="st1">
	<defs>
		<rect id="SVGID_1_" x="64.1" y="156" class="st1" width="560.3" height="299.9"/>
	</defs>
	<clipPath id="SVGID_2_">
		<use xlink:href="#SVGID_1_"  style="overflow:visible;"/>
	</clipPath>
	<g class="st2">
		<path class="st3" d="M266.1,226.2c-7.9,8.9-14.5,17.3-7.2,26.3c3.6,4.4,10.1,8.4,17.9,15.2c34.3,29.7-3.5,45.1-47.9,45.7
			s-135.8-2.5-147.2,68.8c-6.5,40.3,10.6,137.4,236.1,159.1c203.2,19.6,320.9-62,290.7-107.1c-30.2-45.1-64.3-64.1-46.8-84.8
			c26.3-31.1,45.2-34.7,49.7-79.5C623.2,153.3,354.8,126.7,266.1,226.2z"/>
		<g>
			<defs>
				<path id="SVGID_3_" d="M266.1,226.2c-7.9,8.9-14.5,17.3-7.2,26.3c3.6,4.4,10.1,8.4,17.9,15.2c34.3,29.7-3.5,45.1-47.9,45.7
					s-135.8-2.5-147.2,68.8c-6.5,40.3,10.6,137.4,236.1,159.1c203.2,19.6,320.9-62,290.7-107.1c-30.2-45.1-64.3-64.1-46.8-84.8
					c26.3-31.1,45.2-34.7,49.7-79.5C623.2,153.3,354.8,126.7,266.1,226.2z"/>
			</defs>
			<clipPath id="SVGID_4_">
				<use xlink:href="#SVGID_3_"  style="overflow:visible;"/>
			</clipPath>
			<path class="st4" d="M249.9,190.7c0,0,26.9,76.9,87.8,142.2c30.8,33,183.1,104.6,108.5,151.8c-353.5,223.8-379.9-118-379.9-118
				l97.2-151.4L249.9,190.7z"/>
		</g>
	</g>
</g>
<rect x="208.9" y="227.9" class="st0" width="82.8" height="21"/>
<path class="st5" d="M178.5,53.7c0,0-4.6-6-7.4-8.8c-5.1-5-10.9-13.8-29.5-7.3c-1.4,0.5-2.9,1.2-4.2,1.9c-1.6,0.8-6.7,0.8-11.9-3.9
	c-8.3-7.5-11.5-13.2-22.9-13.3C89.3,22,87.3,40.7,77,45.6c-6.5,3.1-23.7,6.1-27.3,7.5L178.5,53.7z"/>
<path class="st5" d="M305.9,73.3c0,0,2.6-3,4.2-4.4c2.9-2.5,6.2-6.9,16.8-3.6c0.8,0.3,1.6,0.6,2.4,0.9c0.9,0.4,3.8,0.4,6.8-1.9
	c4.7-3.7,6.6-6.6,13-6.6c7.5-0.1,8.7,9.3,14.5,11.7c3.7,1.5,13.5,3,15.5,3.7L305.9,73.3z"/>
<rect x="242.9" y="224.3" class="st0" width="80.4" height="20.4"/>
<path class="st6" d="M156.5,118.2v262.7h159.1V118.2C315.6,118.2,239.3,35.6,156.5,118.2z"/>
<path class="st7" d="M172.1,133.3v227.4h128.7V133.3C300.7,133.3,239,77,172.1,133.3z"/>
<path class="st8" d="M151.1,113.3c0,0,75.3-69.3,168.2,0"/>
<path class="st9" d="M319.3,393.6H153.1c-3.6,0-6.4-2.9-6.4-6.4v-2.1c0-3.6,2.9-6.4,6.4-6.4h166.1c3.6,0,6.4,2.9,6.4,6.4v2.1
	C325.7,390.8,322.8,393.6,319.3,393.6z"/>
<rect x="167.6" y="159.2" class="st10" width="8.3" height="22.1"/>
<path class="st10" d="M265.3,317h-59.6c-0.7,0-1.2-0.6-1.2-1.2v-1c0-0.7,0.6-1.2,1.2-1.2h59.6c0.7,0,1.2,0.6,1.2,1.2v1
	C266.5,316.4,266,317,265.3,317z"/>
<path class="st10" d="M265.3,326.3h-59.6c-0.7,0-1.2-0.6-1.2-1.2v-1c0-0.7,0.6-1.2,1.2-1.2h59.6c0.7,0,1.2,0.6,1.2,1.2v1
	C266.5,325.8,266,326.3,265.3,326.3z"/>
<path class="st10" d="M265.3,335.7h-59.6c-0.7,0-1.2-0.6-1.2-1.2v-1c0-0.7,0.6-1.2,1.2-1.2h59.6c0.7,0,1.2,0.6,1.2,1.2v1
	C266.5,335.1,266,335.7,265.3,335.7z"/>
<rect x="167.6" y="317.7" class="st10" width="8.3" height="22.1"/>
<polyline class="st11" points="282.1,224.3 285.1,227.2 285.1,241.4 282.5,244 "/>
<g>
	<path class="st12" d="M225.1,177.5h22c4,0,7.3-3.3,7.3-7.3v-22c0-4-3.3-7.3-7.3-7.3h-22c-4,0-7.3,3.3-7.3,7.3v22
		C217.8,174.2,221.1,177.5,225.1,177.5L225.1,177.5z M243.1,147.5c0.4-0.4,0.8-0.6,1.4-0.6c0.5,0,1,0.2,1.4,0.6
		c0.4,0.4,0.6,0.8,0.6,1.4c0,0.6-0.2,1-0.6,1.4c-0.4,0.4-0.8,0.5-1.4,0.5c-0.5,0-1-0.2-1.4-0.5c-0.4-0.4-0.5-0.8-0.5-1.4
		C242.6,148.4,242.8,147.9,243.1,147.5L243.1,147.5z M239.9,153.8c0-0.7,0.3-1.2,0.7-1.7c0.5-0.5,1.1-0.7,1.7-0.7h4.3
		c0.7,0,1.3,0.3,1.7,0.7c0.5,0.5,0.7,1.1,0.7,1.7v6c0,0.2-0.1,0.4-0.2,0.6c-0.2,0.2-0.3,0.2-0.6,0.2c-0.2,0-0.4-0.1-0.6-0.2
		c-0.2-0.2-0.2-0.4-0.2-0.6v-5.4H247v14.9c0,0.3-0.1,0.6-0.3,0.8c-0.2,0.2-0.5,0.3-0.8,0.3c-0.3,0-0.6-0.1-0.8-0.3
		c-0.2-0.2-0.3-0.5-0.3-0.8v-8.6h-0.5v8.6c0,0.3-0.1,0.6-0.3,0.8c-0.2,0.2-0.5,0.3-0.8,0.3c-0.3,0-0.6-0.1-0.8-0.3
		c-0.2-0.2-0.4-0.5-0.4-0.8v-14.9h-0.4v5.4c0,0.2-0.1,0.4-0.2,0.6c-0.2,0.2-0.4,0.2-0.6,0.2c-0.2,0-0.4-0.1-0.6-0.2
		c-0.2-0.2-0.3-0.4-0.3-0.6V153.8z M235.9,145.4h1.9v27.5h-1.9V145.4z M227.1,147.5c0.4-0.4,0.9-0.6,1.4-0.6c0.5,0,1,0.2,1.3,0.6
		c0.4,0.4,0.5,0.8,0.5,1.4c0,0.6-0.2,1-0.5,1.4c-0.4,0.4-0.8,0.5-1.3,0.5c-0.6,0-1-0.2-1.4-0.5c-0.4-0.4-0.6-0.8-0.6-1.4
		C226.6,148.4,226.8,147.9,227.1,147.5L227.1,147.5z M223.1,158.8c0-0.1,0.1-0.3,0.2-0.7c0.1-0.4,0.2-0.8,0.4-1.4
		c0.2-0.5,0.3-1.1,0.5-1.8c0.2-0.6,0.4-1.3,0.6-1.8c0.1-0.5,0.4-0.9,0.8-1.2c0.4-0.4,0.9-0.5,1.3-0.5h3.1c0.5,0,0.9,0.2,1.3,0.5
		c0.4,0.4,0.7,0.8,0.9,1.2c0.2,0.6,0.4,1.2,0.5,1.8c0.2,0.6,0.4,1.2,0.5,1.8c0.2,0.5,0.3,1,0.4,1.4c0.1,0.4,0.2,0.6,0.2,0.7l0,0.2
		c0,0.4-0.2,0.6-0.5,0.7l-0.2,0.1c-0.4,0-0.6-0.2-0.8-0.6c0-0.1-0.1-0.5-0.3-1.1c-0.2-0.6-0.3-1.2-0.5-1.8c-0.2-0.6-0.4-1.4-0.7-2.4
		h-0.4l2.6,8.8h-2.5v6.7c0,0.3-0.1,0.5-0.3,0.6c-0.2,0.2-0.4,0.3-0.6,0.3c-0.3,0-0.5-0.1-0.7-0.3c-0.2-0.2-0.2-0.4-0.2-0.6v-6.7
		h-0.5v6.7c0,0.3-0.1,0.5-0.2,0.6c-0.2,0.2-0.4,0.3-0.6,0.3c-0.3,0-0.5-0.1-0.7-0.3c-0.2-0.2-0.3-0.4-0.3-0.6v-6.7H224l2.6-8.8h-0.4
		c-0.3,1-0.5,1.8-0.7,2.4c-0.2,0.6-0.4,1.2-0.5,1.8c-0.2,0.6-0.3,0.9-0.3,1.1c-0.1,0.4-0.4,0.6-0.8,0.6l-0.2-0.1
		c-0.4-0.1-0.5-0.4-0.5-0.7C223.1,158.9,223.1,158.9,223.1,158.8L223.1,158.8z M223.1,158.8"/>
</g>
<g>
	<g>
		<path class="st13" d="M502.8,247.7c0,0,1.6,1.5,3.2,2.3C506,250,505.6,249,502.8,247.7z"/>
		<path class="st13" d="M502.4,245.3c0,0,3.1,2.9,6.4,4.5C508.8,249.9,508,248,502.4,245.3z"/>
		<path class="st13" d="M506.5,246.2c0,0,2.6,2.4,5.2,3.7C511.7,249.9,511.1,248.3,506.5,246.2z"/>
		<path class="st13" d="M518.8,245.7c0,0-2.9,2.8-6,4.3C512.8,250,513.5,248.2,518.8,245.7z"/>
		<path class="st13" d="M518.6,247.7c0,0-1.6,1.5-3.2,2.3C515.4,250,515.8,249,518.6,247.7z"/>
	</g>
	<path class="st13" d="M521,247.7c0,0-1.6,1.5-3.2,2.3C517.8,250,518.2,249,521,247.7z"/>
</g>
<path class="st14" d="M369.3,184.3c0,0-16.2,32.9-17.6,37.7c-1.4,4.8,8.5,38.9,8.5,38.9s5.6-0.3,7-2.3l-3.1-31.9
	c0,0,10.1-6.8,13.8-19.5C381.6,194.6,369.3,184.3,369.3,184.3z"/>
<g>
	<path id="XMLID_4_" class="st15" d="M353.4,240.9l35.3,0.6c1.6,0.1,2.8,1,2.7,2.2l-2.5,25.2c-0.1,1.1-1.5,2-3,1.9l-35.2-0.5
		c-2.5-0.5-3.5-1.1-3.4-2.3l2.3-25C349.7,241.8,350.4,241.1,353.4,240.9z"/>
	<path id="XMLID_3_" class="st16" d="M354.3,240.9l35.4,0.6c1.6,0.1,2.8,1,2.7,2.2l-2.5,25.3c-0.1,1.1-1.5,2-3,2l-35.3-0.5
		c-1.7-0.1-2.9-1.1-2.8-2.2l2.4-25.2C351.2,241.7,352.6,240.8,354.3,240.9z"/>
</g>
<path class="st17" d="M457.8,228c0,0,5.1,0.8,6.2,1c1,0.2,4.7,1.8,5.4,2.5c0.7,0.7,2.7,4.1,2.5,4.3c-0.2,0.2-1.4,0.5-1.8,0.4
	c-0.4-0.1-1-0.2-2.9,0.3c-1.9,0.5-3.3,1.3-4.8,0.6c-1.5-0.7-2.2-0.9-3.2-2.2s-3-2.3-3.3-2.3L457.8,228z"/>
<path class="st17" d="M465.5,227.3c-0.3,0.8-0.6,2.6-0.6,2.6l1.7,0.8l1.3-0.9l2.1,0.2L465.5,227.3z"/>
<path class="st17" d="M474.3,229.5l-4.2,0.4l-3-0.9l-1.3,0.9l-4.5,5.5l5.4,2.6h2.7c0,0,1.7-2,2.6-2.3c1-0.3,3.8-1.2,3.8-1.2
	L474.3,229.5z"/>
<path class="st18" d="M470.9,229.8l2.7,6.8c0,0,22.9-7.4,24.1-8.4c1.2-1,19.5-24.3,19.5-24.3s-1.4-11.3-5.4-13.9
	c-4-2.6-7.4-2.6-7.4-2.6l-15.6,29.8L470.9,229.8z"/>
<path class="st19" d="M542.5,395.1v7.2h-13.8c0,0,0.5-2.6,7.1-3.8l1-3.4H542.5z"/>
<path class="st19" d="M515.7,395.1v7.2h-13.8c0,0,0.5-2.6,7.1-3.8l1-3.4H515.7z"/>
<path class="st17" d="M527.6,171.4c0,3.8,0.8,5.6,1.4,7.4c0.7,1.8,7,4,7,4s-19,21.2-26.4,21c-7.4-0.1,3.2-20,3.2-20s3.1-1.9,3.8-3.9
	c0.7-2,1.1-6.6,1.1-6.6l8.6-11L527.6,171.4z"/>
<path class="st17" d="M513.5,150.4c-1.3,0.8-3.4,2.5-3.5,3.8c-0.1,1.3-0.5,4.9-0.4,7.1c0.2,2.1,0.3,7.7,0.6,10.2
	c0.4,2.5,0.7,5.9,1.3,6.3c0.6,0.4,6.6,0.6,7.8,0c1.3-0.6,7.4-6.8,7.1-12.1c0,0,2.4,1.1,4.2-3.7c0.5-1.3-3.7-6.1-4.2-7.5
	c-1.3-3.6-8.5-2.6-10.5-2.9C514.1,151.2,513.5,150.4,513.5,150.4z"/>
<path class="st20" d="M510,154.2c0,0,0.7-1.7,2.1-1c1.4,0.7,4.5,1.2,6.8,1c2.3-0.2,4.6-1.2,4.6-1.2s0,3.3,0.6,4.2
	c0.6,0.9,2.1,2,2.1,3c0.1,1.1,0,2.1,0,2.1s1.4-1.9,2.6-1.5c1.2,0.4,1.2,2.3,0,3.2c-1.2,0.9-2.3,1.5-2.3,1.5s0,1.5,0.3,2.7
	c0.3,1.2,0.8,3.1,0.8,3.1s2.5-6.8,4.6-9.6c2.1-2.8,3-8.5-1-10.6c0,0,0-5.4-5.6-6.3c-5.6-1-10.5,0.4-13-0.4c-2.4-0.8-3-1.5-3-1.5
	s-2.1,4.1-0.9,6.8C509.8,152.5,510,154.2,510,154.2z"/>
<path class="st20" d="M510,167.6c0.2,1.3,0.4,2.3,1.3,2.2c0.9-0.1,1.1-1.1,3.1-1.1c2.1,0,3.5,1.5,4.8,1.8c1.3,0.4,4.7-2.7,5.4-5.5
	c0.7-2.9,1.2-5.6,1.2-5.6l1,1c0,0-0.6,5.2-0.7,8.2s-1.7,7.4-5.2,9.2c-3.5,1.8-8.6,1-9.6,0c-1-1-1-4.5-1.5-6
	C509.5,170.3,510,167.6,510,167.6z"/>
<path class="st14" d="M537,251.4c0,0,6.1,22.8,6.2,47.3c0.1,24.5,0.3,96.3,0.3,96.3h-9.9c0,0-7.8-69.3-11.5-85.1
	c-3.7-15.8-13.4-61.9-13.4-61.9L537,251.4z"/>
<path class="st14" d="M520.3,276.4c0,0-1.9,37.4-2.2,44.7c-0.4,7.4,0,73.9,0,73.9s-9.3,0.3-9.3,0c0-0.3-8.7-70.2-9.9-88.3
	c-1.1-18.1-0.5-39.6-2-42.1c-1.5-2.5,4.1-16.7,4.1-16.7l13.1,3.5L520.3,276.4z"/>
<path class="st19" d="M368.4,395.1v7.2h13.8c0,0-0.5-2.6-7.1-3.8l-1-3.4H368.4z"/>
<path class="st19" d="M398.8,395.1v7.2h13.8c0,0-0.5-2.6-7.1-3.8l-1-3.4H398.8z"/>
<path class="st14" d="M371.4,251.4c0,0-6.1,22.8-6.2,47.3c-0.1,24.5-0.3,96.3-0.3,96.3h9.9c0,0,7.8-69.3,11.5-85.1
	c3.7-15.8,13.4-61.9,13.4-61.9L371.4,251.4z"/>
<path class="st14" d="M388.1,276.4c0,0,1.9,37.4,2.2,44.7c0.4,7.4,6,73.9,6,73.9s9.3,0.3,9.3,0c0-0.3,3.9-70.2,5.1-88.3
	c1.1-18.1-0.7-39.6,0.8-42.1c1.5-2.5-4.1-16.7-4.1-16.7l-13.1,3.5L388.1,276.4z"/>
<path class="st18" d="M533.7,180.9l13.9,9.1c0,0-5.8,13.7-5.9,19.1c-0.2,5.4-4.6,42.3-4.6,42.3s-13.4,2.3-22.9,0
	c-9.4-2.3-13.1-3.5-13.1-3.5s0.4-38.8,1.1-44.2c0.7-5.4,2.6-16.3,2.6-16.3l7.4-3.8l4.1,3.2L533.7,180.9z"/>
<polygon class="st21" points="531.2,179.8 516.2,186.8 520.3,191.5 533.7,180.9 "/>
<polygon class="st21" points="516.2,186.8 512.1,190 512.1,183.6 514.2,183 "/>
<g>
	<path id="XMLID_7_" class="st15" d="M513.9,267.2l3.6-19.9c0.3-1.4,1.8-2.3,3.4-2l34.7,6.5c1.6,0.3,2.6,1.6,2.3,3l-3.5,19.8
		c-1,2.2-2,2.9-3.6,2.6l-34.5-6.4C514.6,270.6,513.8,269.9,513.9,267.2z"/>
	<path id="XMLID_6_" class="st16" d="M514,266.4l3.6-19.9c0.3-1.4,1.8-2.3,3.4-2l34.9,6.5c1.6,0.3,2.6,1.6,2.3,3l-3.5,19.9
		c-0.3,1.5-1.8,2.4-3.4,2.1l-34.8-6.4C514.7,269.3,513.7,267.9,514,266.4z"/>
</g>
<path class="st17" d="M533.6,261.3l-1.9,2.9c0,0-4.4,2.8-4.6,3.3c-0.2,0.5-0.9,2.6-0.9,2.6l1,0.5l1.8-1.8c0,0,0,1.6-0.2,2.4
	c-0.2,0.8-0.8,2.2-0.8,2.2s1.7,0.9,2.7,1.1c1,0.3,4.6,0.9,4.6,0.9s3.4-3.8,3.6-5.1c0.2-1.2,0.7-5.8,0.7-5.8l-2-3.5L533.6,261.3z"/>
<path class="st18" d="M547.6,190c0,0,7.2,35.7,7.2,37.3c0,1.6-11.4,33.5-15.2,37c0,0-2.9,1.5-6.1-3.1c0,0,2.7-7.6,4.4-13.1
	c1.7-5.4,3-23.2,3-23.2s-9.2-12.8-9.3-20.3C531.5,188.6,547.6,190,547.6,190z"/>
<path class="st17" d="M403.6,148.8c1.8,1.1,2.6,4.2,2.6,4.2s0.7,3.5,1.1,6.2c0.4,2.7,2.7,4.8,2.4,5.5c-0.3,0.7-1.8,0.7-1.8,1.7
	c0,1-0.4,3.8-0.4,5.8c0,2-2,2.2-3.8,2.4c-1.8,0.1-4.2,0.6-4.7,1.4c-0.4,0.8,0,5.4,0,5.4l-14.4-1.3c0,0,1.5-4.3,1.4-8.1
	s-0.2-8.3-0.2-8.3s0.8-8.2,5.9-11.4C396.7,149.1,403.6,148.8,403.6,148.8z"/>
<rect x="520.3" y="203.8" class="st21" width="11.3" height="2.8"/>
<path d="M399.9,153c1.3-0.1,4.3,0,6.2,0s3.2-2.5,2.2-3.9c-1-1.4-2.2-3.9-2.2-3.9s-2.1,1.8-6.2,0c-4.1-1.8-11.8-1.8-14.5,3.9
	c0,0-5.2,2.1-5.5,6.2c-0.3,4.1,0.6,5.7,2.5,8.5c2,2.8,3.5,8.3,3.5,8.3s2.4,0.2,4.8,0c2.4-0.1,4.7-3.7,5.6-5.4c0,0-3.5-2.7-2.6-5.4
	c0.9-2.7,4.4-1.4,4.8-0.1c0.4,1.3,1.7,3.1,1.7,3.1l1.6,0.1c0,0,0.4-3.9,0.3-6.3C402,155.7,399.9,153,399.9,153z"/>
<path class="st22" d="M384.1,178.5c0,0,5.7,1,8.6,1.4c2.8,0.4,7,0,7,0l10.7,4.5c0,0,1.5,16.9,1.8,25.9c0.3,9-0.8,48.7-0.5,51.7
	c0,0-2.8,6.5-22.8,6c-11.6-0.3-20-3.7-20-3.7s-0.3-34.5-0.7-42.4s1.3-28.7,1.3-33.2c0-4.5,0-4.5,0-4.5L384.1,178.5z"/>
<path class="st14" d="M410.3,184.4c0,0-8.2,5.6-4.1,20.3c1.5,5.2,20.4,22.9,20.4,22.9l31.3,7.3c0,0,2.5-4.2,1.8-7.2l-26.3-10.2
	C433.5,217.5,414.8,184.4,410.3,184.4z"/>
<polygon class="st17" points="361.6,270.2 363.5,267.4 367.6,267.4 367.5,270.9 365.1,271.3 361.1,271.3 "/>
<g>
	<g>
		<g>
			<path class="st13" d="M487,172.8c0,0,1.9,1.8,4,2.8C491,175.6,490.5,174.5,487,172.8z"/>
			<path class="st13" d="M486.6,169.8c0,0,3.9,3.6,7.9,5.6C494.5,175.5,493.5,173.1,486.6,169.8z"/>
			<path class="st13" d="M491.6,170.9c0,0,3.2,3,6.5,4.6C498.1,175.5,497.3,173.6,491.6,170.9z"/>
			<path class="st13" d="M506.8,170.3c0,0-3.6,3.4-7.4,5.3C499.4,175.6,500.3,173.4,506.8,170.3z"/>
			<path class="st13" d="M506.6,172.8c0,0-1.9,1.8-4,2.8C502.6,175.6,503.1,174.5,506.6,172.8z"/>
		</g>
		<path class="st13" d="M509.5,172.8c0,0-1.9,1.8-4,2.8C505.6,175.6,506.1,174.5,509.5,172.8z"/>
	</g>
	<path class="st23" d="M502.2,160.4c0.2,0.3,0.3,0.5,0.3,0.7c0-0.5-0.1-1-0.3-1.5c-0.1-4.3,0.1-8.5,0.5-12.8
		c0.1-0.9,0.2-1.7,0.3-2.6c1.6-1.2,5.8-3,6.8-3.7c2.1-1.5,4.9-3.3,6.3-5.5c0.6-0.9,1.9-3.7,0.5-4.6c-1.6-0.9-4.9,3-5.6,3.9
		c-1.8,2.2-3.2,4.6-5.2,6.5c-0.9,0.9-2,1.7-2.7,2.7c0.5-3.8,1.2-7.6,2.2-11.3c1.5-1.2,5.9-3,6.9-3.7c2.1-1.5,4.9-3.3,6.3-5.5
		c0.6-0.9,1.9-3.7,0.5-4.6c-1.6-0.9-4.9,3-5.6,3.9c-1.8,2.2-3.2,4.6-5.2,6.5c-0.9,0.9-1.9,1.7-2.7,2.7c1-3.9,2.3-7.8,3.9-11.5
		c1.1-2.6,2.3-5.1,3.6-7.5c2.1-0.5,5.1-1,6.1-1.3c2.4-0.9,5.6-1.9,7.5-3.6c0.8-0.7,2.8-3.1,1.7-4.3c-1.3-1.3-5.5,1.6-6.5,2.3
		c-2.3,1.6-4.3,3.6-6.7,4.9c-0.4,0.2-0.9,0.5-1.3,0.7c1.9-3.2,4-6.4,6.3-9.3c0.9-0.1,1.9-0.3,2.8-0.5c2.4-0.4,4.8-0.2,7.2-0.3
		c1.1-0.1,5.4-0.4,5.6-1.9c0.1-1.4-2.5-1.9-3.5-1.9c-2.2-0.1-4.9,0.9-7,1.6c-0.8,0.3-2.8,1.4-4.4,2.2c1.1-1.4,2.2-2.7,3.4-4
		c1.9-2.1,3.9-4,6-5.9c1.2,0,2.3-0.3,3.5-0.5c2.4-0.4,4.8-0.2,7.2-0.3c1.1-0.1,5.4-0.4,5.6-1.9c0.1-1.4-2.5-1.9-3.5-1.9
		c-2.2-0.1-4.9,0.9-7,1.6c-0.9,0.3-3.4,1.8-5.2,2.6c2.8-2.4,5.8-4.7,9-6.7c1-0.1,2-0.4,3-0.5c2.3-0.5,4.8-0.3,7.2-0.5
		c1.1-0.1,5.4-0.5,5.5-2.1c0.1-1.4-2.6-1.9-3.5-1.9c-2.2,0-4.9,1-6.9,1.8c-0.3,0.1-0.7,0.3-1.2,0.6c-1.8,0.7-3.5,1.6-5.2,2.5
		c-0.1,0-0.1,0-0.2,0c0.1,0,0.1,0,0.2,0c-2.3,1.2-4.6,2.6-6.7,4.2c0.5-0.8,0.9-1.7,1.3-2.6c1.1-2.1,2.7-3.9,4-5.9
		c0.6-0.9,2.9-4.6,1.8-5.6c-1-0.9-3,0.8-3.6,1.6c-1.4,1.7-2.2,4.4-2.9,6.5c-0.3,1-0.7,4.8-1.2,6.4c-2,1.5-3.9,3-5.8,4.7
		c0.5-1,0.8-2.1,1.1-3.2c0.7-2.3,2.1-4.3,3-6.5c0.4-1,2.2-5,0.9-5.8c-1.2-0.7-2.9,1.3-3.3,2.1c-1.1,1.9-1.5,4.7-1.8,6.9
		c-0.2,1.1,0.1,5.3-0.3,6.9c-0.7,0.7-1.5,1.4-2.2,2.1c-2.9,3-5.6,6.2-8,9.7c-0.1-0.7-0.2-1.4-0.2-2.1c-0.2-2.4,0.2-4.8,0.3-7.1
		c0-1.1,0.1-5.5-1.4-5.7c-1.4-0.3-2.1,2.3-2.2,3.2c-0.3,2.2,0.5,4.9,1,7.1c0.2,0.9,1.5,3.5,2.1,5.3c-2.3,3.4-4.3,6.9-6,10.6
		c0-0.8,0-1.6,0-2.4c0.1-1.9,0.3-3.8,0.5-5.6c0.4-2.9,1.2-5.8,2.4-8.5c0.6-1.4-0.9-2.7-2.2-1.9c0,0-0.1,0.1-0.1,0.1
		c-2,1.4-2.4,4.1-2.6,6.6c-0.2,1.9-1.1,11.9,0.9,14.1c-1.8,4.3-3.2,8.8-4.2,13.3c-0.2-2.3,0.2-4.6,0.3-6.9c0-1.1,0.1-5.5-1.4-5.7
		c-1.4-0.2-2.1,2.3-2.2,3.2c-0.3,2.2,0.5,4.9,1,7.1c0.2,0.8,1.2,3,1.9,4.8c-0.7,3.6-1.2,7.3-1.4,11c-0.2-0.4-0.3-0.9-0.5-1.3
		c-0.8-2.3-1-4.7-1.5-7c-0.2-1.1-1.3-5.3-2.8-5.2c-1.4,0.1-1.5,2.8-1.4,3.7c0.3,2.2,1.7,4.7,2.7,6.6c0.4,0.8,2.3,3.1,3.4,4.7
		c-0.1,2.8-0.1,5.7,0,8.5c-0.7-2-1.1-4.1-1.8-6.1c-0.3-1-1.7-5.2-3.2-5c-1.4,0.2-1.2,2.9-1.1,3.8c0.5,2.2,2.1,4.5,3.3,6.4
		c0.4,0.6,1.8,2.1,3,3.5c0.4,5.3-3.1,11.5-1.8,16.7C498.4,170.7,502.3,165.1,502.2,160.4z"/>
</g>
<g>
	<path class="st24" d="M472,178.8c0.1,0.1-3.4-9.7,7.7-24c11.1-15,42.9-24,43.6-35.2c0.6-12-18.3-3-29.4-8
		c-11.3-5.1-15.4-7.9-4.3-14.2c11-6.1,17.8-9.4,14.5-19.2c-3.3-9.9,17.6-11.5,25-22c7.6-10.5-1.1-18.4-19.9-11.6
		c-18.3,7.2-20,4.3-15.6-0.3c4.3-4.6,19-14.9,10.4-17.7c-8.8-2.8-17.6,5.2-14.2-2.9c3.3-8.2,14.8-17.1,6.2-22
		c-8.7-4.9-24.8,1.2-28,22.5c-3,21.2-4.4,27.3-12.7,32.3c-8.1,5-19.5-1.7-29,5.8c-9.4,7.6-3.9,17.2,4.7,21.8
		c8.8,4.6,24.2,14.5,19.6,22.8c-4.3,8.2-15.1,1.8-24.9,3.3c-10.9,1.6-19.8,14.4-5.3,25.3c14.8,10.6,34,16.4,45,48.6
		C467.6,182.3,469.7,180.6,472,178.8z"/>
	<g>
		<g class="st25">
			<path class="st26" d="M468.4,182.3c0.3-0.1,0.5-0.3,0.5-0.6C456.9,61.6,487.5,6,487.8,5.4c0.2-0.3,0.1-0.6-0.2-0.8
				c-0.3-0.2-0.6-0.1-0.8,0.2c-0.3,0.6-31.1,56.5-19,177C467.7,182.1,468,182.4,468.4,182.3C468.4,182.3,468.4,182.3,468.4,182.3z"
				/>
		</g>
		<g class="st25">
			<path class="st26" d="M473,49.9c0.1,0,0.3-0.1,0.3-0.2c11.1-13.8,27.6-19,27.8-19.1c0.3-0.1,0.5-0.4,0.4-0.7
				c-0.1-0.3-0.4-0.5-0.7-0.4c-0.2,0.1-17,5.4-28.3,19.5c-0.2,0.3-0.2,0.6,0.1,0.8C472.7,49.9,472.8,50,473,49.9z"/>
		</g>
		<g class="st25">
			<path class="st26" d="M467.4,87.6c0.2,0,0.3-0.1,0.4-0.3c0.2-0.3,0.1-0.6-0.2-0.8c-0.2-0.1-18.1-11.5-39.8-19.4
				c-0.3-0.1-0.6,0-0.8,0.3c-0.1,0.3,0,0.6,0.3,0.8c21.6,7.9,39.4,19.2,39.6,19.3C467.1,87.6,467.3,87.7,467.4,87.6z"/>
		</g>
		<g class="st25">
			<path class="st26" d="M468.3,79.4c0.1,0,0.2-0.1,0.2-0.1c23.1-17.9,52.2-26.8,52.4-26.9c0.3-0.1,0.5-0.4,0.4-0.7
				c-0.1-0.3-0.4-0.5-0.7-0.4c-0.3,0.1-29.6,9-52.8,27.1c-0.3,0.2-0.3,0.6-0.1,0.8C467.8,79.3,468.1,79.4,468.3,79.4z"/>
		</g>
		<g class="st25">
			<path class="st26" d="M465.9,144.1c0.1,0,0.2-0.1,0.3-0.1c15.5-13.5,45.2-23.5,45.5-23.6c0.3-0.1,0.5-0.4,0.4-0.7
				c-0.1-0.3-0.4-0.5-0.7-0.4c-0.3,0.1-30.3,10.1-45.9,23.8c-0.2,0.2-0.3,0.6-0.1,0.8C465.4,144.1,465.7,144.1,465.9,144.1z"/>
		</g>
		<g class="st25">
			<path class="st26" d="M466.2,152.6c0.1,0,0.2,0,0.2-0.1c0.3-0.2,0.3-0.6,0.1-0.8c-14.8-19.9-41.5-31.1-41.7-31.2
				c-0.3-0.1-0.6,0-0.8,0.3c-0.1,0.3,0,0.6,0.3,0.8c0.3,0.1,26.7,11.2,41.3,30.8C465.7,152.5,466,152.6,466.2,152.6z"/>
		</g>
	</g>
	<g>
		<g>
			<path class="st13" d="M456.1,182.2c0,0,1.9,1.8,4,2.8C460.1,185,459.6,183.8,456.1,182.2z"/>
			<path class="st13" d="M455.7,179.2c0,0,3.9,3.6,7.9,5.6C463.6,184.8,462.6,182.5,455.7,179.2z"/>
			<path class="st13" d="M460.7,180.3c0,0,3.2,3,6.5,4.6C467.2,184.9,466.4,182.9,460.7,180.3z"/>
			<path class="st13" d="M475.9,179.7c0,0-3.6,3.4-7.4,5.3C468.5,184.9,469.4,182.7,475.9,179.7z"/>
			<path class="st13" d="M475.7,182.2c0,0-1.9,1.8-4,2.8C471.7,185,472.2,183.8,475.7,182.2z"/>
		</g>
		<path class="st13" d="M478.6,182.2c0,0-1.9,1.8-4,2.8C474.7,185,475.2,183.8,478.6,182.2z"/>
	</g>
</g>
</svg>
