<?xml version="1.0" encoding="utf-8"?>
<!-- Generator: Adobe Illustrator 23.0.3, SVG Export Plug-In . SVG Version: 6.00 Build 0)  -->
<svg version="1.1" id="Layer_1" xmlns="http://www.w3.org/2000/svg" xmlns:xlink="http://www.w3.org/1999/xlink" x="0px" y="0px"
	 viewBox="0 0 572.5 441.6" style="enable-background:new 0 0 572.5 441.6;" xml:space="preserve">
<style type="text/css">
	.st0{fill:none;}
	.st1{opacity:0.2;}
	.st2{clip-path:url(#SVGID_2_);}
	.st3{fill:#E9EBFB;}
	.st4{clip-path:url(#SVGID_4_);fill:#E0E2F5;}
	.st5{fill:#81B7FB;}
	.st6{fill:#4D8BD7;}
	.st7{fill:#FFFFFF;}
	.st8{fill:#DCE0F4;}
	.st9{fill:#09ACF2;}
	.st10{fill:none;stroke:#FFFFFF;stroke-width:5;stroke-linecap:round;stroke-linejoin:round;stroke-miterlimit:10;}
	.st11{fill:none;stroke:#E4EAEF;stroke-width:14;stroke-linecap:round;stroke-miterlimit:10;}
	.st12{fill:#E4EAEF;}
	.st13{fill:#306FB4;}
	.st14{fill:none;stroke:#E4EAEF;stroke-width:3;stroke-linecap:round;stroke-linejoin:round;stroke-miterlimit:10;}
	.st15{fill:#F2BE9B;}
	.st16{fill:#B0B0FF;}
	.st17{fill:#5046AF;}
	.st18{opacity:0.44;fill:#CACACA;enable-background:new    ;}
	.st19{fill:#1F2E3B;}
	.st20{fill:#C8CDEB;}
	.st21{fill:#EDB48D;}
	.st22{fill:#21283A;}
	.st23{fill:#9898E5;}
	.st24{fill:none;stroke:#9898E5;stroke-width:0.5625;stroke-miterlimit:10;}
	.st25{fill-rule:evenodd;clip-rule:evenodd;fill:#256193;}
</style>
<rect x="215.8" y="214.5" class="st0" width="80.4" height="20.4"/>
<g class="st1">
	<g>
		<defs>
			<rect id="SVGID_1_" x="21.2" y="127.7" width="560.3" height="313.4"/>
		</defs>
		<clipPath id="SVGID_2_">
			<use xlink:href="#SVGID_1_"  style="overflow:visible;"/>
		</clipPath>
		<g class="st2">
			<path class="st3" d="M223.2,201c-7.9,9.3-14.5,18.1-7.2,27.4c3.6,4.6,10.1,8.8,17.9,15.9c34.3,31.1-3.5,47.1-47.9,47.8
				c-44.4,0.7-135.8-2.7-147.2,71.9c-6.5,42.1,10.6,143.6,236.1,166.3c203.2,20.5,320.9-64.8,290.7-111.9s-64.3-67-46.8-88.6
				c26.3-32.5,45.2-36.3,49.7-83.1C580.3,124.8,311.9,97,223.2,201z"/>
			<g>
				<g>
					<defs>
						<path id="SVGID_3_" d="M223.2,201c-7.9,9.3-14.5,18.1-7.2,27.4c3.6,4.6,10.1,8.8,17.9,15.9c34.3,31.1-3.5,47.1-47.9,47.8
							c-44.4,0.7-135.8-2.7-147.2,71.9c-6.5,42.1,10.6,143.6,236.1,166.3c203.2,20.5,320.9-64.8,290.7-111.9s-64.3-67-46.8-88.6
							c26.3-32.5,45.2-36.3,49.7-83.1C580.3,124.8,311.9,97,223.2,201z"/>
					</defs>
					<clipPath id="SVGID_4_">
						<use xlink:href="#SVGID_3_"  style="overflow:visible;"/>
					</clipPath>
					<path class="st4" d="M207,163.9c0,0,26.9,80.4,87.8,148.7c30.8,34.5,183.1,109.3,108.5,158.7C49.9,705.2,23.4,347.9,23.4,347.9
						l97.2-158.2L207,163.9z"/>
				</g>
			</g>
		</g>
	</g>
</g>
<rect x="166" y="214.5" class="st0" width="82.8" height="21"/>
<g>
	<path class="st5" d="M447.6,273.8c-1.4,0-37.4-6.6-39.2-43.7c-1.8-37.1,21.1-45.1,14.9-86.7c-6.2-41.5-22.1-54.2,13.3-82.5
		c0,0,15.8-11.3,16.5-28.3c0.8-20.3,32.5-42.3,53.8-27.7c21.3,14.7,16.4,35.4-1.7,68.4c-18.1,33-0.5,39.8,3,51s11.7,23.1-6.8,48.4
		s3.8,58.4-12,82.7C489.5,255.4,475.7,273.3,447.6,273.8z"/>
	<g>
		<path class="st6" d="M453.5,330.8c0.8-0.2,1.3-1,1.1-1.9c-19.8-114,19-266.2,19.4-267.7c0.2-0.9-0.2-1.8-1-2.1s-1.6,0.2-1.9,1.1
			c-0.4,1.5-39.4,154.5-19.5,269.3C451.7,330.3,452.5,331,453.5,330.8C453.4,330.8,453.4,330.8,453.5,330.8z"/>
		<path class="st6" d="M460.7,121c0.1,0,0.2,0,0.2-0.1c0.8-0.3,1.1-1.3,0.8-2.2c-0.1-0.2-8.2-20.6-11.6-37.8c-0.2-0.9-1-1.5-1.8-1.4
			s-1.3,1-1.2,1.9c3.4,17.6,11.7,38.3,11.8,38.5C459.3,120.7,460,121.2,460.7,121z"/>
		<path class="st6" d="M455.7,154.9c0.2,0,0.4-0.1,0.6-0.3c7.6-6.6,26.8-18.8,27-18.9c0.7-0.5,0.9-1.5,0.5-2.3s-1.4-1.1-2.1-0.7
			c-0.8,0.5-19.5,12.4-27.3,19.2c-0.6,0.6-0.7,1.6-0.2,2.4C454.5,154.8,455.1,155.1,455.7,154.9z"/>
		<path class="st6" d="M451.5,188c0.1,0,0.2-0.1,0.3-0.1c0.7-0.4,1-1.4,0.7-2.2l-10.8-24c-0.4-0.8-1.3-1.2-2-0.8s-1,1.4-0.7,2.2
			l10.8,24C450.1,187.8,450.8,188.2,451.5,188z"/>
	</g>
</g>
<path class="st7" d="M529.3,403"/>
<path class="st8" d="M129.6,46.3c0,0-4.6-6-7.4-8.8c-5.1-5-10.9-13.8-29.5-7.3c-1.4,0.5-2.9,1.2-4.2,1.9c-1.6,0.8-6.7,0.8-11.9-3.9
	c-8.4-7.6-11.7-13.2-23-13.4c-13.2-0.2-15.3,18.6-25.5,23.4c-6.5,3.1-23.7,6.1-27.3,7.5L129.6,46.3z"/>
<path class="st8" d="M322.9,67.8c0,0,2.6-3,4.2-4.4c2.9-2.5,6.2-6.9,16.8-3.6c0.8,0.3,1.6,0.6,2.4,0.9c0.9,0.4,3.8,0.4,6.8-1.9
	c4.7-3.7,6.6-6.6,13-6.6c7.5-0.1,8.7,9.3,14.5,11.7c3.7,1.5,13.5,3,15.5,3.7L322.9,67.8z"/>
<g>
	<path class="st9" d="M130.9,89.9v262.7H290V89.9C290,89.9,213.7,7.3,130.9,89.9z"/>
	<path class="st10" d="M146.5,104.9v227.4h128.7V104.9C275.1,104.9,213.4,48.6,146.5,104.9z"/>
	<path class="st11" d="M125.5,85c0,0,75.3-69.3,168.2,0"/>
	<path class="st12" d="M293.7,365.3H127.6c-3.6,0-6.4-2.9-6.4-6.4v-2.1c0-3.6,2.9-6.4,6.4-6.4h166.1c3.6,0,6.4,2.9,6.4,6.4v2.1
		C300.1,362.4,297.2,365.3,293.7,365.3z"/>
	<rect x="142" y="130.8" class="st13" width="8.3" height="22.1"/>
	<path class="st13" d="M239.7,288.6h-59.6c-0.7,0-1.2-0.6-1.2-1.2v-1c0-0.7,0.6-1.2,1.2-1.2h59.6c0.7,0,1.2,0.6,1.2,1.2v1
		C241,288.1,240.4,288.6,239.7,288.6z"/>
	<path class="st13" d="M239.7,298h-59.6c-0.7,0-1.2-0.6-1.2-1.2v-1c0-0.7,0.6-1.2,1.2-1.2h59.6c0.7,0,1.2,0.6,1.2,1.2v1
		C241,297.4,240.4,298,239.7,298z"/>
	<path class="st13" d="M239.7,307.3h-59.6c-0.7,0-1.2-0.6-1.2-1.2v-1c0-0.7,0.6-1.2,1.2-1.2h59.6c0.7,0,1.2,0.6,1.2,1.2v1
		C241,306.7,240.4,307.3,239.7,307.3z"/>
	<rect x="142" y="289.3" class="st13" width="8.3" height="22.1"/>
	<polyline class="st14" points="256.5,195.9 259.5,198.9 259.5,213 256.9,215.6 	"/>
	<g>
		<path class="st7" d="M199.5,149.1h22c4,0,7.3-3.3,7.3-7.3v-22c0-4-3.3-7.3-7.3-7.3h-22c-4,0-7.3,3.3-7.3,7.3v22
			C192.2,145.8,195.5,149.1,199.5,149.1L199.5,149.1z M217.5,119.2c0.4-0.4,0.8-0.6,1.4-0.6c0.5,0,1,0.2,1.4,0.6s0.6,0.8,0.6,1.4
			s-0.2,1-0.6,1.4c-0.4,0.4-0.8,0.5-1.4,0.5c-0.5,0-1-0.2-1.4-0.5c-0.4-0.4-0.5-0.8-0.5-1.4S217.2,119.5,217.5,119.2L217.5,119.2z
			 M214.3,125.4c0-0.7,0.3-1.2,0.7-1.7c0.5-0.5,1.1-0.7,1.7-0.7h4.3c0.7,0,1.3,0.3,1.7,0.7c0.5,0.5,0.7,1.1,0.7,1.7v6
			c0,0.2-0.1,0.4-0.2,0.6c-0.2,0.2-0.3,0.2-0.6,0.2c-0.2,0-0.4-0.1-0.6-0.2c-0.2-0.2-0.2-0.4-0.2-0.6V126h-0.5v14.9
			c0,0.3-0.1,0.6-0.3,0.8s-0.5,0.3-0.8,0.3s-0.6-0.1-0.8-0.3s-0.3-0.5-0.3-0.8v-8.6h-0.5v8.6c0,0.3-0.1,0.6-0.3,0.8
			s-0.5,0.3-0.8,0.3s-0.6-0.1-0.8-0.3s-0.4-0.5-0.4-0.8V126H216v5.4c0,0.2-0.1,0.4-0.2,0.6c-0.2,0.2-0.4,0.2-0.6,0.2
			c-0.2,0-0.4-0.1-0.6-0.2c-0.2-0.2-0.3-0.4-0.3-0.6L214.3,125.4L214.3,125.4z M210.3,117.1h1.9v27.5h-1.9V117.1z M201.6,119.2
			c0.4-0.4,0.9-0.6,1.4-0.6s1,0.2,1.3,0.6c0.4,0.4,0.5,0.8,0.5,1.4s-0.2,1-0.5,1.4c-0.4,0.4-0.8,0.5-1.3,0.5c-0.6,0-1-0.2-1.4-0.5
			c-0.4-0.4-0.6-0.8-0.6-1.4S201.2,119.5,201.6,119.2L201.6,119.2z M197.5,130.4c0-0.1,0.1-0.3,0.2-0.7c0.1-0.4,0.2-0.8,0.4-1.4
			c0.2-0.5,0.3-1.1,0.5-1.8c0.2-0.6,0.4-1.3,0.6-1.8c0.1-0.5,0.4-0.9,0.8-1.2c0.4-0.4,0.9-0.5,1.3-0.5h3.1c0.5,0,0.9,0.2,1.3,0.5
			c0.4,0.4,0.7,0.8,0.9,1.2c0.2,0.6,0.4,1.2,0.5,1.8c0.2,0.6,0.4,1.2,0.5,1.8c0.2,0.5,0.3,1,0.4,1.4c0.1,0.4,0.2,0.6,0.2,0.7v0.2
			c0,0.4-0.2,0.6-0.5,0.7l-0.2,0.1c-0.4,0-0.6-0.2-0.8-0.6c0-0.1-0.1-0.5-0.3-1.1s-0.3-1.2-0.5-1.8c-0.2-0.6-0.4-1.4-0.7-2.4h-0.4
			l2.6,8.8H205v6.7c0,0.3-0.1,0.5-0.3,0.6c-0.2,0.2-0.4,0.3-0.6,0.3c-0.3,0-0.5-0.1-0.7-0.3s-0.2-0.4-0.2-0.6v-6.7h-0.5v6.7
			c0,0.3-0.1,0.5-0.2,0.6c-0.2,0.2-0.4,0.3-0.6,0.3c-0.3,0-0.5-0.1-0.7-0.3s-0.3-0.4-0.3-0.6v-6.7h-2.5l2.6-8.8h-0.4
			c-0.3,1-0.5,1.8-0.7,2.4s-0.4,1.2-0.5,1.8c-0.2,0.6-0.3,0.9-0.3,1.1c-0.1,0.4-0.4,0.6-0.8,0.6l-0.2-0.1c-0.4-0.1-0.5-0.4-0.5-0.7
			C197.5,130.6,197.5,130.5,197.5,130.4L197.5,130.4z"/>
	</g>
</g>
<g>
	<path class="st15" d="M361.2,215.7l8.9,7l-14.7,29.9l4.2,4.1l21.6-34.8c0.9-1.7,0.5-3.9-1-5.2L368.5,206L361.2,215.7z"/>
	<path class="st15" d="M307.9,205.2l-13.4,14.6l-22.9-12.2l-5,5l27.9,20.3c1.4,1.2,3.6,1.1,4.8-0.4l16-17.4L307.9,205.2z"/>
	<path class="st16" d="M318.2,192.3c0,0-1.2-0.8-15.9,15.6l11.4,15.3l6.7-7.4L318.2,192.3z"/>
	<path class="st16" d="M330.1,189.3l-10.2,2.3c-2.7,0.6-4.8,2.8-5.1,5.6l-6.8,57.3l42.2-2.8l2.9-54c0.2-3.6-2.5-6.7-6-7L330.1,189.3
		z"/>
	<polygon class="st15" points="368.9,388.4 365.7,370.9 355.7,372.3 359.4,390 	"/>
	<polygon class="st15" points="310.2,387.9 310.8,369.6 300.7,369.3 300.9,387.5 	"/>
	<polygon class="st17" points="308.1,254.5 304.6,271.5 352.5,269.2 350.3,251.8 	"/>
	<polygon class="st17" points="328.1,264.9 317.3,311.3 314.4,382.1 298.3,381.4 297.2,310.9 305.5,267 	"/>
	<line class="st18" x1="323.9" y1="279.7" x2="326.4" y2="270.4"/>
	<g>
		<path class="st19" d="M300.9,387.5l9.3,0.4l-0.3,13.9l-28.7,1.6l0,0c0.3-2.2,1.7-3.8,3.8-4.2l15.6-5.4L300.9,387.5z"/>
		<polygon class="st20" points="309.9,401.8 281.2,403.3 281.1,405.5 309.9,403.9 		"/>
	</g>
	<g>
		<path class="st19" d="M359.4,390l9.5-1.6l2.4,13.7l-27.4,2.1l0,0c-0.1-2.2,1-4.1,2.9-5l13.8-3.1L359.4,390z"/>
		<polygon class="st20" points="371.3,402 343.9,404.2 344.2,406.3 371.6,404.2 		"/>
	</g>
	<g>
		<path class="st21" d="M332,196.3h-1.1c-2.9-0.1-5.1-2.5-5-5.4l0.7-19.7l11.5,0.5l-0.7,19.6C337.4,194.1,334.9,196.4,332,196.3z"/>
		<g>
			<path class="st15" d="M331.3,187.9l-12.7-0.3c-4.3-0.1-7.7-3.6-7.6-7.9l0.5-22.9l28.2,0.7l-0.5,22.9
				C339.1,184.6,335.6,188,331.3,187.9z"/>
			<path class="st22" d="M339.3,170.3h-4c-1.1,0-1.9-1-1.7-2.1c0.6-2.9,1.3-7.9-0.6-8.5c-2.7-0.9-17.1,2.7-22-1.1
				c-6.8-5.4-1.7-13.7,4.5-14s5.2,6.9,12.5,6.9s18.3-2.7,13.3,16.5L339.3,170.3z"/>
			<path class="st15" d="M341.7,175.1c-2.2,1-4.9,0-5.9-2.2s0-4.9,2.2-5.9s4.9,0,5.9,2.2C344.9,171.5,343.9,174.1,341.7,175.1z"/>
			<path class="st7" d="M314.2,176.6l9.4,0.6c0,0-0.7,4.2-5.8,3.5C313.9,180.1,314.2,176.6,314.2,176.6z"/>
		</g>
	</g>
	<path class="st16" d="M349,191.2c0,0,2.3,0.2,21.2,11.6l-8.4,17l-11.1-5.9L349,191.2z"/>
	<path class="st15" d="M257.8,206.5c0.1,3.8,3.3,6.8,7.1,6.6c3.8-0.1,6.8-3.3,6.6-7.1c-0.1-3.8-3.3-6.8-7.1-6.6
		C260.6,199.5,257.7,202.7,257.8,206.5z"/>
	<path class="st15" d="M362,261.1c-1.9,3.5-6.4,4.8-9.9,2.9s-4.8-6.4-2.9-9.9s6.4-4.8,9.9-2.9C362.7,253.2,364,257.6,362,261.1z"/>
	<polygon class="st17" points="352.2,266.8 357.1,311.9 371.3,380.1 354.9,383.7 337.5,314.7 330.2,264.9 	"/>
	<g>
		<polygon class="st23" points="344.6,208.5 331.7,208.3 331.1,219.6 336.3,222.6 343.4,220.5 		"/>
		<path class="st24" d="M340.4,190.6c0,0,0.1,7.9-9.8,7.6c0,0-7,0.1-6.9-7.6"/>
	</g>
</g>
<g>
	<g>
		<path class="st25" d="M439.1,328.3c0,0,2.3,2.2,4.7,3.4C443.8,331.6,443.2,330.2,439.1,328.3z"/>
		<path class="st25" d="M438.6,324.7c0,0,4.7,4.4,9.5,6.7C448.1,331.4,446.9,328.6,438.6,324.7z"/>
		<path class="st25" d="M444.6,326c0,0,3.8,3.6,7.8,5.5C452.4,331.5,451.4,329.2,444.6,326z"/>
		<path class="st25" d="M462.8,325.2c0,0-4.4,4.1-8.9,6.3C453.9,331.6,455,328.9,462.8,325.2z"/>
		<path class="st25" d="M462.6,328.3c0,0-2.3,2.2-4.7,3.4C457.8,331.6,458.4,330.2,462.6,328.3z"/>
	</g>
	<path class="st25" d="M466.1,328.3c0,0-2.3,2.2-4.7,3.4C461.3,331.6,461.9,330.2,466.1,328.3z"/>
</g>
</svg>
