<?xml version="1.0" encoding="utf-8"?>
<!-- Generator: Adobe Illustrator 23.0.3, SVG Export Plug-In . SVG Version: 6.00 Build 0)  -->
<svg version="1.1" id="Layer_1" xmlns="http://www.w3.org/2000/svg" xmlns:xlink="http://www.w3.org/1999/xlink" x="0px" y="0px"
	 viewBox="0 0 175 175" style="enable-background:new 0 0 175 175;" xml:space="preserve">
<style type="text/css">
	.st0{fill:#F3F8FE;}
	.st1{clip-path:url(#SVGID_2_);fill:#D2F0FF;}
	.st2{fill:#2E1202;}
	.st3{fill:#FF822E;}
	.st4{fill:#41378C;}
	.st5{fill:#003591;}
	.st6{fill:#351906;}
	.st7{fill:#F0BC99;}
	.st8{fill:#B0B0FF;}
	.st9{fill:none;}
	.st10{opacity:0.31;fill:#FB8E52;enable-background:new    ;}
	.st11{opacity:0.46;fill:#FFAB6B;enable-background:new    ;}
	.st12{opacity:0.46;fill-rule:evenodd;clip-rule:evenodd;fill:#FFAB6B;enable-background:new    ;}
	.st13{fill:#FFAB6B;}
	.st14{fill:#FFFFFF;}
</style>
<g>
	<circle class="st0" cx="87.1" cy="87.5" r="87.5"/>
	<g>
		<g>
			<defs>
				<circle id="SVGID_1_" cx="87.1" cy="87.5" r="87.5"/>
			</defs>
			<clipPath id="SVGID_2_">
				<use xlink:href="#SVGID_1_"  style="overflow:visible;"/>
			</clipPath>
			<rect x="28.6" y="154" class="st1" width="116.8" height="21.7"/>
		</g>
	</g>
	<polygon class="st2" points="66.1,145 64.8,147.7 69.8,152.8 68.9,153.9 61.6,148.5 63.6,143.5 	"/>
	<polygon class="st2" points="94.4,147.6 94.8,150.5 101.8,152.1 101.6,153.4 92.7,153.1 91.5,147.9 	"/>
	<g>
		<path class="st3" d="M79.5,21.7c-4.4,3.8-9.2,8-9.6,13.9c-0.3,2.9,0.7,5.8,1.9,8.6c1,2.5,2.5,5,4.8,6c1.2,0.4,2.3,0.4,3.6,0.4
			c3.4,0,6.7-0.6,9.9-1.8c1.6-0.6,3.4-1.3,3.9-2.9c0.4-1,0.1-2.2,0-3.2c-0.3-1.6-0.6-3.1-0.9-4.7c-0.4-2.6-1-5.1-2-7.6
			c-1-2.3-2.8-4.5-5.1-5.7C82.3,22.9,83.6,20.3,79.5,21.7"/>
	</g>
	<g>
		<path class="st4" d="M79.5,21.7c-4.4,3.8-9.2,8-9.6,13.9c-0.3,2.9,0.7,5.8,1.9,8.6c1,2.5,2.5,5,4.8,6c1.2,0.4,2.3,0.4,3.6,0.4
			c3.4,0,6.7-0.6,9.9-1.8c1.6-0.6,3.4-1.3,3.9-2.9c0.4-1,0.1-2.2,0-3.2c-0.3-1.6-0.6-3.1-0.9-4.7c-0.4-2.6-1-5.1-2-7.6
			c-1-2.3-2.8-4.5-5.1-5.7C82.3,22.9,83.6,20.3,79.5,21.7"/>
	</g>
	<g>
		<path class="st5" d="M74.4,117.1c1.5-3.2,1.3-2.9,2.6-2.5c1.3,0.4,2.6,1.6,2.6,1.6c-2.8,13.9-14.9,30.6-14.9,30.6l-2.8-1.5
			l12-31.1L74.4,117.1z"/>
	</g>
	<g>
		<path class="st5" d="M95.3,117.7c-0.1-3.4-0.1-3.2-1.5-3.2c-1.3-0.1-2.2,1.8-2.2,1.8c-5.8,12.5-0.6,32.2-0.6,32.2l3.6,0.3
			L95.3,117.7L95.3,117.7z"/>
	</g>
	<g>
		<g>
			<path class="st5" d="M81.7,79.3c-2.5-0.4-8-0.7-9.6,7.7c-1.2,6.4-0.1,25.5,0.9,32.8c0.4,2.9,5.4,2.2,6.3-2.3
				c0.1-0.4,5.4-21.9,6.4-30.8C86.4,81.2,83.3,79.6,81.7,79.3z"/>
		</g>
	</g>
	<g>
		<g>
			<path class="st5" d="M85.4,80.9c2.5-0.6,8.9-0.6,10.8,7.7c1.5,6.3-0.1,23.5-0.9,30.9c-0.3,2.9-3.8,3.4-4.8-1.2
				c-0.1-0.4-5.2-20.7-6.7-29.6C82.9,83.4,83.8,81.4,85.4,80.9z"/>
		</g>
	</g>
	<path class="st5" d="M84.5,92c0,0,7.3-4.5,11.1-5.1L95.3,86c-0.9-3.8-4.1-9.8-4.1-9.8s-7.3,4.4-14.9-0.6c0,0-3.6,4.5-4.4,13
		c0,0,6.9,0.4,9.5,2.2L83,92H84.5z"/>
	<g>
		<path class="st6" d="M82.4,21.3l-1,1.3c0.3-0.1,0.7-0.1,1-0.1C82.7,22,82.6,21.6,82.4,21.3z"/>
	</g>
	<path class="st7" d="M101.4,72.3c-0.6-1.8-2.5-8.5-3.5-10.4c-1.8-3.5-3.2-9.6-5-12.5c-1.6-2.5-4.7,0.4-4.7,1.6
		c0,5,10.1,21.4,10.6,22.2C100.5,75.2,101.4,73.6,101.4,72.3z"/>
	<path class="st8" d="M89,47.7c0,0,4.1-1.8,6.3,2.8l5,7.3l-8.5,5L88.4,51L89,47.7z"/>
	<path class="st7" d="M79.2,58l-2-6.6c-0.1-0.6-1.8-2.8-0.4-3.2l8.9-1.8c0.1,0,0.3,0,0.4,0l2,0.4c0.6,0.1,1.2,0.6,1.5,1.2
		c0.9,1.6,2,4.7,2,5l-1,5.1c0,0.6-0.4,1-1,1l-8.9,0.4C80.4,59.5,79.4,58.5,79.2,58z"/>
	<path class="st8" d="M92.1,60.2c1.2-1,2.8-4.8,1.5-7.3c-0.6-1.2-1.6-3.8-3.1-5.2c-0.4-0.4-1.3-0.6-1.9-0.7l-1.5-0.3
		c0.9,1.5,2.5,2.6,2.3,3.9c-0.1,1.5-1.6,2.2-1.6,2.2c-2.5-0.7-4.4-1.8-5-3.6s0-1.8,0.3-2.9c-0.1,0.4-6,1-6.6,1.8
		c-0.4,0.4,1.2,2.8,0.7,3.8c0,0,0.7,6.7,0.6,10.4c-0.1,5.2-4.1,12.5-6.1,19c4.5,2,21.4,0.9,22.8-0.9l-3.1-10.8
		c-0.1-0.3-0.1-0.6-0.1-0.9C91.3,66.9,90.2,61.8,92.1,60.2z"/>
	<g>
		<path class="st9" d="M82.4,54.4"/>
	</g>
	<path class="st7" d="M83.5,49.4c2,2.5,4.5,1.6,3.8-1L87,42.7l-4.5-0.4l0.4,5.7C82.9,48.6,83,49,83.5,49.4z"/>
	<path class="st7" d="M87.1,46.4L87,42.7l-4.5-0.4l0.1,2.2C84.1,45.2,85.7,45.8,87.1,46.4z"/>
	<path class="st7" d="M92.8,35.6c-0.3-2-0.3-6-0.3-6c0.1-2.9-1.2-5.3-4.1-6.1c-0.7-0.3-1.5-0.4-2.3-0.6c-3.5-0.1-8.8,1.8-8.8,5
		l1.5,9.5c0.7,3.5,3.4,5.7,6.6,6c0.4,0.1,0.9,0.3,1.5,0.3H87h0.1C92.4,43.9,93.4,40,92.8,35.6z"/>
	<path class="st10" d="M79.8,27.6c2,1.3,4.8,1.3,6.1-1c0.1-0.3,0.6-0.3,0.7,0c1,2.2,3.9,1.6,5,0c0.1-0.3,0.4-0.6,0.4-0.9
		c-1-1.5-2.9-2.3-5-2.5l0,0c-3.4-0.1-7.1,0-7.3,3.2C80,26.4,79.8,26.4,79.8,27.6z"/>
	<g>
		<path class="st9" d="M75.4,31.8"/>
	</g>
	<g>
		<path class="st9" d="M76.8,29.8"/>
	</g>
	<polygon class="st11" points="88.6,32.8 90.2,36.9 88.7,36.9 	"/>
	<path class="st3" d="M79.7,34.9c0,0-0.6,1.3-0.3,4.5c0,0-10.9-6.3-1.3-15.6c1-1,3.5-0.1,3.6,2.6C81.9,29.8,79.7,34.9,79.7,34.9z"/>
	<path class="st3" d="M76.9,26c0,0,1.3-6.4,9.8-6c0,0,9,0.9,7.7,9.2c0,0-9.5,2.2-15.8,1C78.7,30.2,78.7,30.2,76.9,26z"/>
	<path class="st4" d="M86.7,20c-5.4-0.3-7.9,2.3-9,4.2c-8.9,9,1.8,15.2,1.8,15.2c-0.1-3.1,0.3-4.5,0.3-4.5s0.9-2,1.5-4.4
		c7.4,1.2,13.3-1.3,13.3-1.3C95.7,20.9,86.7,20,86.7,20z"/>
	<path class="st7" d="M79.5,36.5c0.4,1,0.1,1.9-0.4,2.2c-0.6,0.3-1.5-0.4-1.9-1.3c-0.4-1-0.1-1.9,0.4-2.2
		C78.4,34.9,79.2,35.6,79.5,36.5z"/>
	<path class="st12" d="M78.8,36c-0.1-0.3-0.1-0.4-0.4-0.4c-0.3-0.1-0.7,0-0.7,0.7c-0.1,0.7,0.3,1.5,0.7,1.5c0.1,0,0.3-0.1,0.3-0.4
		c-0.3-0.1-0.3-0.4-0.3-0.7C78.5,36.5,78.7,36.3,78.8,36C78.8,36.2,78.8,36,78.8,36z"/>
	<path class="st7" d="M65.5,71.5l3.5,1.2l7.3-12.4c0,0,2.5-3.6,0.7-8.2c0,0-3.8,0.6-5.7,4.2C71.4,56.4,66.1,66.4,65.5,71.5z"/>
	<path class="st8" d="M69.5,54.7l6.9,6.3l3.6-6.9c0.4-0.7,0.6-1.6,0.6-2.5v-0.9c0-2.2-2.3-3.5-4.2-2.3c-0.3,0.1-0.6,0.3-0.7,0.6
		C74.3,49.9,70.1,53.1,69.5,54.7z"/>
	<g>
		<path class="st13" d="M114.4,66.8c0,0-0.4-0.9,0.1-1.6s1.5-0.9,2-1.3s1-0.9,1.2-0.7c0.1,0.3,0.1,0.6-0.4,0.9
			c-0.6,0.4-0.9,0.7-0.9,1c0,0.1,1.9,0.3,2.3,0.1c0.6-0.1,1-1.3,1.5-1.7c0.4-0.4,0.9-0.6,0.7-0.1c-0.1,0.4-0.9,1.8-1,2.2
			s-0.7,0.9-1.3,1c-0.6,0.1-2.2,0.4-2.5,0.4C115.6,66.9,114.5,66.9,114.4,66.8z"/>
	</g>
	<path class="st7" d="M115.3,66.5c0,0.1,0,0.3-0.1,0.4l-1.2,0.6c-3.2,2.8-9.3,7.1-13.4,6.7c-0.4,0-0.7-0.3-0.9-0.6
		c-0.3-0.4-0.3-1,0-1.5c1.2-1.5,4.2-3.1,9.2-4.5c2-0.6,4.4-1.5,4.4-1.5c0.1,0,1.6-0.6,1.6-0.4L115.3,66.5z"/>
	<g>
		<path class="st4" d="M111.8,66.6c-1.2-0.1-2.3-0.3-3.5-0.4l-2.3,3.1c-0.3,0.4-0.7,0.9-1.3,1.2c-1.7,1.2-4.2,1.2-6.1-0.1
			c-1.9-1.5-2.5-3.8-1.8-5.8c0.1-0.6,0.4-1,0.9-1.5l4.5-5.8c1.3-1.8,3.6-2.5,5.7-1.8c14.4,4.5,14-6.6,10.2-9.5
			c-4.5-3.5-7.3-3.2-10.5-1.8c-1,0.4-1.9,0.6-2.9,0.3l0,0c-0.1,0-0.3,0-0.4-0.1l0,0c-0.1,0-0.3-0.1-0.4-0.1h-0.1
			c-0.1,0-0.3-0.1-0.3-0.1l0,0c-0.1,0-0.3-0.1-0.4-0.3c0,0,0,0-0.1,0c-0.1-0.1-0.3-0.1-0.4-0.3l0,0l0,0l0,0
			c-0.1-0.1-0.3-0.1-0.3-0.3c0,0,0,0-0.1-0.1c-0.3-0.3-0.4-0.4-0.6-0.7l0,0c-0.1-0.3-0.3-0.6-0.4-0.7v-0.1c0-0.1,0-0.1-0.1-0.3
			c0-0.1-0.1-0.3-0.1-0.4c0,0,0,0,0-0.1c-0.3-1.3-0.1-2.6,0.4-3.8c0,0,0-0.1,0.1-0.1c0,0,0-0.1,0.1-0.1c0.1-0.1,0.1-0.3,0.3-0.3l0,0
			l0,0c0.1-0.1,0.1-0.3,0.3-0.3l0,0c0.1-0.1,0.1-0.1,0.3-0.3l0.1-0.1l0.1-0.1c0.1-0.1,0.3-0.1,0.4-0.3l0,0c0.3-0.1,0.6-0.3,0.7-0.4
			c7.1-3.1,13.7-2.5,20.9,3.1l0,0l0,0l0.1,0.1l0,0C135.5,45.9,131.9,68.4,111.8,66.6z M96.7,81.1L96.2,82c-1.8,2.3-5.1,2.8-7.3,1
			c-2.3-1.8-2.8-5.1-1-7.3l0.6-0.9c1.8-2.3,5.1-2.8,7.3-1C98.1,75.5,98.5,78.9,96.7,81.1z"/>
	</g>
	<g>
		<g>
			<path class="st7" d="M82.9,78.9c0,0,0.4-1,1.6-1c1.2,0,1.9,0.6,2.8,0.7s1.6,0.1,1.5,0.6c-0.1,0.3-0.3,0.6-1.2,0.4
				c-0.7-0.1-1.3-0.1-1.5,0c-0.1,0.1,1.2,1.9,1.6,2.2c0.4,0.4,1.9-0.1,2.6-0.1s1.2,0.3,0.7,0.6c-0.4,0.3-2.2,0.6-2.8,0.7
				c-0.4,0.1-1.3,0-1.9-0.4c-0.6-0.4-2-1.8-2.2-1.9C83.6,79.9,82.9,79,82.9,78.9z"/>
		</g>
		<path class="st7" d="M83.8,79.3c-0.1,0.1-0.3,0.3-0.4,0.1l-1.5-0.6c-5-0.7-13.6-2.6-16.2-6.7c-0.3-0.4-0.3-0.9-0.1-1.3
			c0.1-0.6,0.7-1,1.3-1.2c2.2-0.1,6,1.5,11.1,4.7c2.2,1.3,4.7,2.8,4.7,2.8c0.1,0.1,1.8,1,1.6,1.2L83.8,79.3z"/>
		<g>
			<path class="st7" d="M86.1,79.5c-0.9-0.4-1.6-1-2.5-1.5c0.1-0.1,0.4-0.1,0.7-0.1c1.2,0,1.9,0.6,2.8,0.7c0.9,0.1,1.6,0.1,1.5,0.6
				c-0.1,0.3-0.3,0.6-1.2,0.4C86.8,79.3,86.4,79.3,86.1,79.5z"/>
		</g>
	</g>
	<path class="st14" d="M86.7,38.9H90c0,0-0.1,1.2-1.9,1C86.7,40,86.7,38.9,86.7,38.9z"/>
</g>
</svg>
