<?xml version="1.0" encoding="utf-8"?>
<!-- Generator: Adobe Illustrator 23.0.3, SVG Export Plug-In . SVG Version: 6.00 Build 0)  -->
<svg version="1.1" id="Layer_1" xmlns="http://www.w3.org/2000/svg" xmlns:xlink="http://www.w3.org/1999/xlink" x="0px" y="0px"
	 viewBox="0 0 175 175" style="enable-background:new 0 0 175 175;" xml:space="preserve">
<style type="text/css">
	.st0{fill:#F3F8FE;}
	.st1{clip-path:url(#SVGID_2_);fill:#D2F0FF;}
	.st2{fill:#FFA800;}
	.st3{fill:#EFCBC0;}
	.st4{fill:#3D3D9B;}
	.st5{fill:#222B70;}
	.st6{fill:#B0B0FF;}
	.st7{fill:#A6A6F7;}
	.st8{fill:#5046AF;}
	.st9{fill:#291A6D;}
	.st10{fill:#8B8BD8;}
	.st11{fill:#4541A5;}
	.st12{fill:#F2C9BE;}
	.st13{fill:#8FAABC;}
	.st14{fill:#F5C1AF;}
	.st15{fill:#41378C;}
	.st16{fill:#F6CFC1;}
	.st17{fill:#FFFFFF;}
</style>
<circle class="st0" cx="87.5" cy="87.5" r="87.5"/>
<g>
	<defs>
		<circle id="SVGID_1_" cx="87.5" cy="87.5" r="87.5"/>
	</defs>
	<clipPath id="SVGID_2_">
		<use xlink:href="#SVGID_1_"  style="overflow:visible;"/>
	</clipPath>
	<rect x="29.1" y="154" class="st1" width="116.8" height="21.8"/>
</g>
<path id="XMLID_554_" class="st2" d="M77.6,90.6"/>
<path class="st3" d="M74.3,77.1c0,0,3.4,2.5,3.8,2.6c0.4,0.1,2.8-0.5,3.7,0.1c0.7,0.4,2,1.1,2.2,1.4c0.2,0.3-1,0.1-1.2-0.1
	c-0.2-0.1-1.1-0.3-1.1-0.2c0,0.1,1.7,0.6,2.4,1c0.7,0.4,1.1,0.7,1.1,0.8c0,0.1-1.4-0.2-1.9-0.3c-0.4-0.2,1.5,0.7,1.8,1.1
	c0.3,0.4-1.8-0.1-2.3-0.4c-0.5-0.2,1.9,0.8,2,1.1c0.1,0.3-2.2-0.3-2.8-0.5c-0.6-0.2,1.7,0.6,1.8,0.8c0.1,0.2-2.7-0.2-3.6-0.5
	c-0.9-0.3-1.5-0.5-3.1-2.3c-0.3-0.3-3.9-2.2-3.9-2.2L74.3,77.1z"/>
<path class="st4" d="M54.9,53.1c-0.8-3.1-3-2.1-4.4,0.8c-0.3,0.7-0.6,1.6-0.7,2.5C49.3,62,60.7,73.3,63.1,75.1
	c2.4,1.8,13.1,7.5,13.1,7.5l1.9-3.9l-11.4-7.9l-5.9-8.7L54.9,53.1z"/>
<path class="st5" d="M45.6,147.9c0,0,2.8,3.5,2.6,5.7c-0.2,2.3-5.6-3.6-5.6-3.6s-1,1.3-1.4,1.2c-0.3,0,0.4-3.4,1.7-4.3
	C44.2,146.1,45.6,147.9,45.6,147.9z"/>
<path class="st3" d="M46.5,143.9l-1.4,3.5c0,0,1.6,2.8,0.7,3.5c-0.9,0.7-3.5-3.3-3.5-3.3l0.9-4.1L46.5,143.9z"/>
<path class="st6" d="M59.3,85.1c0,0-1.9,27.4-3.6,36.8c-1.8,9.4-8.9,24.1-8.9,24.1l-4.8-1.5c0,0,3.8-20.7,3.9-24.4
	c0.3-9.1-2.2-31.8-2.2-31.8l5.8-9.4L59.3,85.1z"/>
<path class="st5" d="M62.6,148.9c0,0,3.8,2.3,4.4,4.5c0.5,2.2-6.4-1.5-6.4-1.5s-0.6,1.5-0.9,1.6c-0.3,0.1-0.8-3.3,0.1-4.6
	C60.8,147.7,62.6,148.9,62.6,148.9z"/>
<path class="st3" d="M62.2,144.9l-0.2,3.8c0,0,2.5,2.1,1.9,3.1c-0.6,1-4.4-1.9-4.4-1.9l-0.5-4.2L62.2,144.9z"/>
<path class="st7" d="M43.6,88.3c0,0,0.3,4.7,3.3,9.8c1.6,2.8,6.9,13.6,8.7,20.9c2.6,10.9,1.9,27.9,1.9,27.9l6-0.3
	c0,0,4.2-24.7,4.1-32.1c-0.2-7.8-2.6-14.5-6.1-32.4C57.7,78.9,43.6,88.3,43.6,88.3z"/>
<path class="st8" d="M58.8,51.4c0,0,5.8,5.7,6.8,12.1c0.4,2.4-2.1,6.4-2.2,8.3C63.3,73.6,64.1,82.6,67,89c0,0-10.8,3.1-23.3-0.7
	c0,0-3.3-33.3,8.1-38.9L58.8,51.4z"/>
<path class="st3" d="M59.8,33c0,0,1.6,2.3,1.2,3.6c-0.3,1.3,1.2,3.4,1.2,3.8c0,0.2-0.9,0.5-1,0.8c-0.5,1.4-1.2,3.3-1.8,4.3
	c-0.2,0.3-0.6,0.5-1,0.5c-1.9-0.1-1,3.8,0.4,5.3c1.6,1.7,2.1,3,1.6,3.7c-0.5,0.7-7.9-4.7-8.6-5.7c0-3.2-0.8-6.5-0.9-6.7
	c-0.1-0.3-2.1,0-2.2-1.7c-0.1-1.5,1-2.4,2.5-1.6c0,0-1.6-5,1.8-6.7C56.3,31,59.8,33,59.8,33z"/>
<path class="st3" d="M71.4,80.8c0,0,3.5,1.9,3.9,1.9c0.4,0,2.5-0.9,3.4-0.5c0.7,0.3,2,0.7,2.2,1c0.2,0.2-0.9,0.2-1.1,0.1
	c-0.2-0.1-1-0.1-1,0c0,0.1,1.6,0.3,2.3,0.6c0.7,0.2,1.3,0.6,1.3,0.8c0,0.2-1.5-0.1-1.9-0.2c-0.4-0.1,2,0.5,2.4,0.8
	c0.4,0.3-2.7,0-2.7,0s2,0.3,2,0.6c0.1,0.3-2.6,0.1-2.6,0.1s1.7,0.2,1.9,0.4c0.1,0.2-2.6,0.3-3.5,0.2c-0.8-0.1-1.5-0.2-3.2-1.7
	c-0.3-0.3-3.8-1.4-3.8-1.4L71.4,80.8z"/>
<path class="st4" d="M57.9,56.2c-0.7-3.1-4.9-3.8-6.4-1c-0.4,0.7-0.7,1.5-0.8,2.5C50,63.2,54,75.3,56.3,77.2C58.6,79.1,73,85,73,85
	l2.1-3.8L62,73.4c-0.8-0.4-1.3-1.2-1.5-2.1L57.9,56.2z"/>
<path class="st9" d="M55.4,33.3c0,0,5.4-0.2,6.5,3.3c0,0,2-5.4-2.8-6.6C55.8,29.2,55.4,33.3,55.4,33.3z"/>
<path class="st9" d="M50.8,42.6c0,0-0.7,0.1-1.2-0.6c-0.8-0.8-0.4-3.1,1.6-2.2c0,0,6-1.6,6.9-6c0,0,0-4.3-5.8-3.9
	c-6.8,0.4-6.7,9.7-4,12.8c1.1,1.2,2.9,1.4,2.9,1.4L50.8,42.6z"/>
<path class="st9" d="M50.3,32c0,0-2.8-6.1-8.4-4.9S37,39.5,37.5,42.7C38,46,35,47.6,32,47.2c0,0,6.8,7,11.5,1.7
	c3-3.4,1.1-14.4,4-14.6C50.4,34.2,50.3,32,50.3,32z"/>
<path class="st10" d="M47,34.6c1-0.5,2.7-2.2,2.6-3.9c-0.2-1.7-0.7,0.4-1.1,1C48.1,32.4,45.5,35.4,47,34.6z"/>
<path class="st11" d="M51.7,49.3c0,0,7.4,5.9,8.4,5.7c1.1-0.2-1.4-3.7-1.4-3.7s1,1,1.2,1.4c0.2,0.3,1.5,2.4,0.3,2.6
	c-2,0.3-8.9-5.8-8.9-5.8L51.7,49.3z"/>
<path class="st12" d="M94.4,73.1c0,0.1-0.5,0.9,0,1.1c0,0,0,0.1,0.5,0.1c0,0,0.2,0.7,1,0.7c0,0,2.8,0.2,2.8,0.2
	c0.8-0.1,2.7-0.1,4-1.6c0,0,13.7-1.1,15.3-2.3c1.7-1.2,5.1-8.7,5.1-8.7l-4.3-3.3c0,0-2.5,6.9-4.4,7.8c-1.9,0.9-12,3.9-12,3.9
	s-1.7-1.6-2.4-1.6c-0.3,0-0.8,0.1-1.4,0.3c0.3,0.3,0.6,0.6,0.8,0.9c0.1,0,0.2,0,0.3,0.1c0.1,0,0,0.1-0.2,0.2
	c-0.5,0.2-2.1,0.5-3.1,0.8c-1.2,0.3-2.2,0.8-2.3,1C94,72.9,94.3,73.1,94.4,73.1z"/>
<path class="st13" d="M126.2,151c0,0-0.1,0.7,0.1,1.3c0.2,0.4,5.4,1.4,10.4,0.5c0.4-0.1,0.7-0.5,0.7-0.9l0-0.6L126.2,151z"/>
<path class="st5" d="M126.2,150.9c0.3-0.9,5.3-1.6,7.1-1.7c2-0.1,0.1-1.3,1.7-1.1c1.6,0.2,1.6,0.2,1.6,0.2s0.6,1.1,0.7,2.7
	c0,0.1,0,0.2,0,0.3c0,1.1-3.3,1-6.4,1c-2.1,0-3.7-0.1-4.6-1C126.2,151.2,126.2,151,126.2,150.9z"/>
<path class="st14" d="M137,143.9l0,5.3c0,0-5,1-3.9,0l-0.4-4.9L137,143.9z"/>
<path class="st13" d="M109.3,151.1c0,0-0.2,0.7,0,1.3c0.1,0.4,5.3,1.9,10.3,1.4c0.4,0,0.8-0.4,0.8-0.8l0-0.6L109.3,151.1z"/>
<path class="st5" d="M109.3,151c0.4-0.9,5.4-1.1,7.2-1.1c2,0.1,0.3-1.3,1.8-1c1.6,0.3,1.6,0.3,1.6,0.3s0.5,1.1,0.5,2.8
	c0,0.1,0,0.2,0,0.3c-0.1,1.1-3.4,0.7-6.5,0.4c-2-0.2-3.7-0.4-4.5-1.4C109.3,151.2,109.3,151.1,109.3,151z"/>
<path class="st14" d="M120.7,145l-0.5,5.2c0,0-5.1,0.5-3.9-0.3l0.1-4.9L120.7,145z"/>
<path class="st15" d="M75.8,70.8c0.3-5.5,5-10.8,11.8-12.5c6.7-1.7,13.4,0.5,16.3,5.2l0.5-0.1l0.8,3c1.7,6.5-3.5,13.5-11.5,15.5
	c-8,2.1-15.9-1.5-17.6-8.1L75.3,71L75.8,70.8z"/>
<path class="st8" d="M86.8,55.3c-8,2.1-13.2,9.1-11.5,15.7c1.7,6.5,9.6,10,17.6,7.9c8-2.1,13.2-9,11.5-15.5
	C102.7,56.8,94.9,53.2,86.8,55.3z"/>
<path class="st6" d="M87.4,57.4c-6.6,1.7-10.9,7.5-9.5,12.9c1.4,5.4,7.9,8.2,14.5,6.5c6.6-1.7,10.8-7.4,9.4-12.8
	C100.4,58.7,94,55.7,87.4,57.4z"/>
<path class="st8" d="M117.6,85.7c0,0,17.1-6.3,24.8,0.9c1.5,10.4-3.9,29.4-4.1,37.8c-0.1,6.8-0.2,13.3-0.5,22.4l-5.5-0.1
	c0,0-1.8-9-2.7-21.7c-0.4-5.7-0.4-13.6,0.4-22.7l-1.5,0.1c0,0-3.8,13.8-4.7,21.2c-0.9,7.1-1.7,15.3-2.2,23.2l-6.2-0.2
	c0,0-1.1-15.4-1.1-23.3C114.4,112.7,116.4,92.4,117.6,85.7z"/>
<path class="st16" d="M80.1,73.4c-0.1,0.1-0.7,0.7-0.3,1c0,0,0,0.1,0.5,0.2c0,0,0,0.8,0.8,0.9c0,0,2.7,1,2.7,1
	c0.8,0.2,2.6,0.7,4.3-0.5c0,0,13.4,2.7,15.3,2c1.9-0.7,7.3-6.9,7.3-6.9l-3.2-4.3c0,0-4.3,6-6.4,6.3c-2.1,0.3-12.6,0.5-12.6,0.5
	s-1.2-2-1.8-2.2c-0.3-0.1-2.3-0.7-2.5-0.2c-0.2,0.4,0.5,0.8,0.9,0.9c0.1,0,0.9,0.3,0.9,0.4c0,0.1,0,0.1-0.2,0.1
	c-0.6,0.1-2.2-0.1-3.2-0.1c-1.3,0-2.4,0.2-2.5,0.3C79.8,73.1,80,73.3,80.1,73.4z"/>
<path class="st6" d="M109.6,74.7c-0.8-3.5-5-7.7-5-7.7c3.4-2.5,5.9-14.2,15.8-17.1c1.4-0.4,5.8-1.8,8.7,0.7
	c15.2,13.4,15.2,39.6,15.2,39.6c-11.6,2-28-1.9-28-1.9c0.6-3.4,1.1-12-1.8-21.3C113,70.7,109.6,74.7,109.6,74.7z"/>
<path class="st16" d="M112.1,37.9c0,0-0.1,2.4,0.1,3.5c0.1,1.1-0.9,1.6-0.9,1.9c0,0.3,0.8,0.9,0.8,0.9s-0.5,3.3,0.6,4
	c1.1,0.7,4-0.1,4-0.1l1,3.5c0,0,4.2,0.9,7.2-2.6l-1-3.4c0,0,0.9-6.6-2.5-9.5C118.1,33.5,112.1,37.9,112.1,37.9z"/>
<path class="st15" d="M109.1,36.6c-0.9-1.5-0.5-2.6,1.2-2.8c3.4-0.3,4.5-3.6,9.8-2.7c1,0.2,2,0.5,2.9,1c-0.1-0.5-0.4-1.1-0.4-1.1
	c0.6,0.4,0.9,1.1,1.1,1.5c0.6-0.1,1.9-0.1,2.3,0.4c0,0-0.9-0.1-1.5,0.2c2.9,2.5,4.4,6.8,1.8,11.4c-1.5,2.7-5.2,1.8-6.8,0.2
	c0,0,2-0.4,1.8-1.8c-0.2-1.1-1.3-1.6-1.9-0.9c-0.9,1.1-0.7,1.2-1.2,1.3c0,0-0.1-2.1-0.9-3.6c0,0-5.3,0.7-7.1-1.6c0,0,1,0.3,1.2,0.2
	C111.3,38.4,110,38.1,109.1,36.6z"/>
<path class="st15" d="M139.5,92.3c0,0-4.4,0.7-6.9,0v4.3l3.4,2l2.8-1.2C138.9,97.4,140,93.6,139.5,92.3z"/>
<path class="st15" d="M126.2,92c0,0-4.4,0.4-6.9-0.3l-0.3,4.9l3.3,2.1l3.2-1.5C125.6,97.2,126.6,93.4,126.2,92z"/>
<g>
	<path class="st17" d="M89.6,66.7c0.2,0.7,0,1.4-0.5,1.9l0,0.1c0.5-0.1,1.6-0.1,1.7-0.1l2.2,0l0,1.5l-7,0l0-1.5
		c2.2-0.1,2-1.1,1.8-1.9l-1.5,0l0-0.9l1.2,0c-0.3-0.8-0.5-1.4-0.5-2c0-1.5,1.3-2.5,3-2.5c2,0,2.8,1.4,2.8,2.6l-1.7,0
		c0-0.5-0.3-1-1.1-1c-0.7,0-1.2,0.4-1.2,1c0,0.4,0.2,1.2,0.5,1.9l2.2,0l0,0.9L89.6,66.7z"/>
</g>
</svg>
