<?xml version="1.0" encoding="utf-8"?>
<!-- Generator: Adobe Illustrator 23.0.3, SVG Export Plug-In . SVG Version: 6.00 Build 0)  -->
<svg version="1.1" id="Layer_1" xmlns="http://www.w3.org/2000/svg" xmlns:xlink="http://www.w3.org/1999/xlink" x="0px" y="0px"
	 viewBox="0 0 624.8 455.9" style="enable-background:new 0 0 624.8 455.9;" xml:space="preserve">
<style type="text/css">
	.st0{fill:none;}
	.st1{opacity:0.2;}
	.st2{clip-path:url(#SVGID_2_);}
	.st3{fill:#E9EBFB;}
	.st4{clip-path:url(#SVGID_4_);fill:#E0E2F5;}
	.st5{fill:#81B7FB;}
	.st6{fill:#4D8BD7;}
	.st7{fill:#FFFFFF;}
	.st8{fill:#DCE0F4;}
	.st9{fill:#09ACF2;}
	.st10{fill:none;stroke:#FFFFFF;stroke-width:5;stroke-linecap:round;stroke-linejoin:round;stroke-miterlimit:10;}
	.st11{fill:none;stroke:#E4EAEF;stroke-width:14;stroke-linecap:round;stroke-miterlimit:10;}
	.st12{fill:#E4EAEF;}
	.st13{fill:#306FB4;}
	.st14{fill:none;stroke:#E4EAEF;stroke-width:3;stroke-linecap:round;stroke-linejoin:round;stroke-miterlimit:10;}
	.st15{fill:#F2BE9B;}
	.st16{fill:#B0B0FF;}
	.st17{fill:#5046AF;}
	.st18{fill:#1F2E3B;}
	.st19{fill:#C8CDEB;}
	.st20{fill:#EDB48D;}
	.st21{fill:#21283A;}
	.st22{fill:#9898E5;}
	.st23{fill:none;stroke:#9898E5;stroke-width:0.5625;stroke-miterlimit:10;}
	.st24{fill-rule:evenodd;clip-rule:evenodd;fill:#256193;}
</style>
<rect x="260" y="214.4" class="st0" width="80.4" height="20.4"/>
<g class="st1">
	<g>
		<defs>
			<rect id="SVGID_1_" x="65.3" y="142.5" width="560.3" height="313.4"/>
		</defs>
		<clipPath id="SVGID_2_">
			<use xlink:href="#SVGID_1_"  style="overflow:visible;"/>
		</clipPath>
		<g class="st2">
			<path class="st3" d="M267.3,215.8c-7.9,9.3-14.5,18.1-7.2,27.4c3.6,4.6,10.1,8.8,17.9,15.9c34.3,31.1-3.5,47.1-47.9,47.8
				c-44.4,0.7-135.8-2.7-147.2,71.9C76.5,420.9,93.5,522.3,319,545.1c203.2,20.5,320.9-64.8,290.7-111.9s-64.3-67-46.8-88.6
				c26.3-32.5,45.2-36.3,49.7-83.1C624.5,139.6,356,111.9,267.3,215.8z"/>
			<g>
				<g>
					<defs>
						<path id="SVGID_3_" d="M267.3,215.8c-7.9,9.3-14.5,18.1-7.2,27.4c3.6,4.6,10.1,8.8,17.9,15.9c34.3,31.1-3.5,47.1-47.9,47.8
							c-44.4,0.7-135.8-2.7-147.2,71.9C76.5,420.9,93.5,522.3,319,545.1c203.2,20.5,320.9-64.8,290.7-111.9s-64.3-67-46.8-88.6
							c26.3-32.5,45.2-36.3,49.7-83.1C624.5,139.6,356,111.9,267.3,215.8z"/>
					</defs>
					<clipPath id="SVGID_4_">
						<use xlink:href="#SVGID_3_"  style="overflow:visible;"/>
					</clipPath>
					<path class="st4" d="M251.2,178.8c0,0,26.9,80.4,87.8,148.7c30.8,34.5,183.1,109.3,108.5,158.7C94,720,67.6,362.7,67.6,362.7
						l97.2-158.2L251.2,178.8z"/>
				</g>
			</g>
		</g>
	</g>
</g>
<rect x="210.2" y="214.4" class="st0" width="82.8" height="21"/>
<g>
	<path class="st5" d="M491.8,274.6c-1.4,0-37.4-6.6-39.2-43.7c-1.8-37.1,21.1-45.1,14.9-86.7c-6.2-41.5-22.1-54.2,13.3-82.5
		c0,0,15.8-11.3,16.5-28.3c0.8-20.3,32.5-42.3,53.8-27.7c21.3,14.7,16.4,35.4-1.7,68.4c-18.1,33-0.5,39.8,3,51s11.7,23.1-6.8,48.4
		s3.8,58.4-12,82.7C533.7,256.2,519.8,274.1,491.8,274.6z"/>
	<g>
		<path class="st6" d="M497.6,331.7c0.8-0.2,1.3-1,1.1-1.9C479,215.7,517.8,63.5,518.2,62c0.2-0.9-0.2-1.8-1-2.1s-1.6,0.2-1.9,1.1
			c-0.4,1.5-39.4,154.5-19.5,269.3C495.9,331.2,496.7,331.8,497.6,331.7L497.6,331.7z"/>
		<path class="st6" d="M504.9,121.8c0.1,0,0.2,0,0.2-0.1c0.8-0.3,1.1-1.3,0.8-2.2c-0.1-0.2-8.2-20.6-11.6-37.8
			c-0.2-0.9-1-1.5-1.8-1.4s-1.3,1-1.2,1.9c3.4,17.6,11.7,38.3,11.8,38.5C503.5,121.6,504.2,122,504.9,121.8z"/>
		<path class="st6" d="M499.8,155.8c0.2,0,0.4-0.1,0.6-0.3c7.6-6.6,26.8-18.8,27-18.9c0.7-0.5,0.9-1.5,0.5-2.3s-1.4-1.1-2.1-0.7
			c-0.8,0.5-19.5,12.4-27.3,19.2c-0.6,0.6-0.7,1.6-0.2,2.4C498.7,155.7,499.3,155.9,499.8,155.8z"/>
		<path class="st6" d="M495.7,188.9c0.1,0,0.2-0.1,0.3-0.1c0.7-0.4,1-1.4,0.7-2.2l-10.8-24c-0.4-0.8-1.3-1.2-2-0.8s-1,1.4-0.7,2.2
			l10.8,24C494.3,188.6,495,189,495.7,188.9z"/>
	</g>
</g>
<path class="st7" d="M573.4,402.8"/>
<path class="st8" d="M129.7,40.2c0,0-4.6-6-7.4-8.8c-5.1-5-10.9-13.8-29.5-7.3c-1.4,0.5-2.9,1.2-4.2,1.9c-1.6,0.8-6.7,0.8-11.9-3.9
	C68.3,14.5,65.1,8.8,53.8,8.6C40.6,8.4,38.5,27.2,28.2,32c-6.5,3.1-23.7,6.1-27.3,7.5L129.7,40.2z"/>
<path class="st8" d="M356.1,61.7c0,0,2.6-3,4.2-4.4c2.9-2.5,6.2-6.9,16.8-3.6c0.8,0.3,1.6,0.6,2.4,0.9c0.9,0.4,3.8,0.4,6.8-1.9
	c4.7-3.7,6.6-6.6,13-6.6c7.5-0.1,8.7,9.3,14.5,11.7c3.7,1.5,13.5,3,15.5,3.7L356.1,61.7z"/>
<rect x="244.1" y="210.7" class="st0" width="80.4" height="20.4"/>
<g>
	<path class="st9" d="M157.8,104.7v262.7h159.1V104.7C316.9,104.7,240.6,22.1,157.8,104.7z"/>
	<path class="st10" d="M173.3,119.8v227.4H302V119.8C302,119.8,240.2,63.5,173.3,119.8z"/>
	<path class="st11" d="M152.3,99.8c0,0,75.3-69.3,168.2,0"/>
	<path class="st12" d="M320.5,380.1H154.4c-3.6,0-6.4-2.9-6.4-6.4v-2.1c0-3.6,2.9-6.4,6.4-6.4h166.1c3.6,0,6.4,2.9,6.4,6.4v2.1
		C326.9,377.2,324.1,380.1,320.5,380.1z"/>
	<rect x="168.8" y="145.6" class="st13" width="8.3" height="22.1"/>
	<path class="st13" d="M266.5,303.5H207c-0.7,0-1.2-0.6-1.2-1.2v-1c0-0.7,0.6-1.2,1.2-1.2h59.6c0.7,0,1.2,0.6,1.2,1.2v1
		C267.8,302.9,267.2,303.5,266.5,303.5z"/>
	<path class="st13" d="M266.5,312.8H207c-0.7,0-1.2-0.6-1.2-1.2v-1c0-0.7,0.6-1.2,1.2-1.2h59.6c0.7,0,1.2,0.6,1.2,1.2v1
		C267.8,312.2,267.2,312.8,266.5,312.8z"/>
	<path class="st13" d="M266.5,322.1H207c-0.7,0-1.2-0.6-1.2-1.2v-1c0-0.7,0.6-1.2,1.2-1.2h59.6c0.7,0,1.2,0.6,1.2,1.2v1
		C267.8,321.6,267.2,322.1,266.5,322.1z"/>
	<rect x="168.8" y="304.2" class="st13" width="8.3" height="22.1"/>
	<polyline class="st14" points="283.3,210.7 286.3,213.7 286.3,227.9 283.7,230.4 	"/>
	<g>
		<path class="st7" d="M226.3,164h22c4,0,7.3-3.3,7.3-7.3v-22c0-4-3.3-7.3-7.3-7.3h-22c-4,0-7.3,3.3-7.3,7.3v22
			C219,160.7,222.3,164,226.3,164L226.3,164z M244.4,134c0.4-0.4,0.8-0.6,1.4-0.6c0.5,0,1,0.2,1.4,0.6c0.4,0.4,0.6,0.8,0.6,1.4
			c0,0.6-0.2,1-0.6,1.4c-0.4,0.4-0.8,0.5-1.4,0.5c-0.5,0-1-0.2-1.4-0.5c-0.4-0.4-0.5-0.8-0.5-1.4C243.8,134.8,244,134.4,244.4,134
			L244.4,134z M241.1,140.2c0-0.7,0.3-1.2,0.7-1.7c0.5-0.5,1.1-0.7,1.7-0.7h4.3c0.7,0,1.3,0.3,1.7,0.7c0.5,0.5,0.7,1.1,0.7,1.7v6
			c0,0.2-0.1,0.4-0.2,0.6c-0.2,0.2-0.3,0.2-0.6,0.2c-0.2,0-0.4-0.1-0.6-0.2c-0.2-0.2-0.2-0.4-0.2-0.6v-5.4h-0.5v14.9
			c0,0.3-0.1,0.6-0.3,0.8s-0.5,0.3-0.8,0.3s-0.6-0.1-0.8-0.3s-0.3-0.5-0.3-0.8v-8.6h-0.5v8.6c0,0.3-0.1,0.6-0.3,0.8
			s-0.5,0.3-0.8,0.3s-0.6-0.1-0.8-0.3s-0.4-0.5-0.4-0.8v-14.9h-0.4v5.4c0,0.2-0.1,0.4-0.2,0.6c-0.2,0.2-0.4,0.2-0.6,0.2
			c-0.2,0-0.4-0.1-0.6-0.2c-0.2-0.2-0.3-0.4-0.3-0.6v-6H241.1z M237.2,131.9h1.9v27.5h-1.9V131.9z M228.4,134
			c0.4-0.4,0.9-0.6,1.4-0.6s1,0.2,1.3,0.6c0.4,0.4,0.5,0.8,0.5,1.4c0,0.6-0.2,1-0.5,1.4c-0.4,0.4-0.8,0.5-1.3,0.5
			c-0.6,0-1-0.2-1.4-0.5c-0.4-0.4-0.6-0.8-0.6-1.4C227.8,134.8,228,134.4,228.4,134L228.4,134z M224.4,145.3c0-0.1,0.1-0.3,0.2-0.7
			c0.1-0.4,0.2-0.8,0.4-1.4c0.2-0.5,0.3-1.1,0.5-1.8c0.2-0.6,0.4-1.3,0.6-1.8c0.1-0.5,0.4-0.9,0.8-1.2c0.4-0.4,0.9-0.5,1.3-0.5h3.1
			c0.5,0,0.9,0.2,1.3,0.5c0.4,0.4,0.7,0.8,0.9,1.2c0.2,0.6,0.4,1.2,0.5,1.8c0.2,0.6,0.4,1.2,0.5,1.8c0.2,0.5,0.3,1,0.4,1.4
			c0.1,0.4,0.2,0.6,0.2,0.7v0.2c0,0.4-0.2,0.6-0.5,0.7l-0.2,0.1c-0.4,0-0.6-0.2-0.8-0.6c0-0.1-0.1-0.5-0.3-1.1s-0.3-1.2-0.5-1.8
			s-0.4-1.4-0.7-2.4h-0.4l2.6,8.8h-2.5v6.7c0,0.3-0.1,0.5-0.3,0.6c-0.2,0.2-0.4,0.3-0.6,0.3c-0.3,0-0.5-0.1-0.7-0.3
			s-0.2-0.4-0.2-0.6v-6.7h-0.5v6.7c0,0.3-0.1,0.5-0.2,0.6c-0.2,0.2-0.4,0.3-0.6,0.3c-0.3,0-0.5-0.1-0.7-0.3s-0.3-0.4-0.3-0.6v-6.7
			h-2.5l2.6-8.8h-0.4c-0.3,1-0.5,1.8-0.7,2.4c-0.2,0.6-0.4,1.2-0.5,1.8c-0.2,0.6-0.3,0.9-0.3,1.1c-0.1,0.4-0.4,0.6-0.8,0.6l-0.2-0.1
			c-0.4-0.1-0.5-0.4-0.5-0.7C224.3,145.4,224.3,145.3,224.4,145.3L224.4,145.3z"/>
	</g>
</g>
<g>
	<path class="st15" d="M388,230.5l8.9,7l-14.7,29.9l4.2,4.1l21.6-34.8c0.9-1.7,0.5-3.9-1-5.2l-11.8-10.7L388,230.5z"/>
	<path class="st15" d="M334.7,220.1l-13.4,14.6l-22.9-12.2l-5,5l27.9,20.3c1.4,1.2,3.6,1.1,4.8-0.4l16-17.4L334.7,220.1z"/>
	<path class="st16" d="M345,207.1c0,0-1.2-0.8-15.9,15.6l11.4,15.3l6.7-7.4L345,207.1z"/>
	<path class="st16" d="M356.9,204.2l-10.2,2.3c-2.7,0.6-4.8,2.8-5.1,5.6l-6.8,57.3l42.2-2.8l2.9-54c0.2-3.6-2.5-6.7-6-7L356.9,204.2
		z"/>
	<polygon class="st15" points="395.7,403.2 392.6,385.8 382.5,387.2 386.3,404.8 	"/>
	<polygon class="st15" points="337,402.7 337.7,384.5 327.5,384.1 327.8,402.3 	"/>
	<polygon class="st17" points="334.9,269.4 331.5,286.3 379.3,284 377.1,266.6 	"/>
	<polygon class="st17" points="354.9,279.7 344.1,326.1 341.2,396.9 325.1,396.3 324.1,325.7 332.4,281.8 	"/>
	<g>
		<path class="st18" d="M327.8,402.3l9.3,0.4l-0.3,13.9l-28.7,1.6l0,0c0.3-2.2,1.7-3.8,3.8-4.2l15.6-5.4L327.8,402.3z"/>
		<polygon class="st19" points="336.8,416.6 308,418.2 307.9,420.3 336.7,418.7 		"/>
	</g>
	<g>
		<path class="st18" d="M386.3,404.8l9.5-1.6l2.4,13.7l-27.4,2.1l0,0c-0.1-2.2,1-4.1,2.9-5l13.8-3.1L386.3,404.8z"/>
		<polygon class="st19" points="398.1,416.9 370.7,419 371,421.1 398.4,419 		"/>
	</g>
	<g>
		<path class="st20" d="M358.9,211.1h-1.1c-2.9-0.1-5.1-2.5-5-5.4l0.7-19.7l11.5,0.5l-0.7,19.6C364.2,209,361.7,211.2,358.9,211.1z"
			/>
		<g>
			<path class="st15" d="M358.1,202.7l-12.7-0.3c-4.3-0.1-7.7-3.6-7.6-7.9l0.5-22.9l28.2,0.7l-0.5,22.9
				C365.9,199.4,362.4,202.8,358.1,202.7z"/>
			<path class="st21" d="M366.1,185.2h-4c-1.1,0-1.9-1-1.7-2.1c0.6-2.9,1.3-7.9-0.6-8.5c-2.7-0.9-17.1,2.7-22-1.1
				c-6.8-5.4-1.7-13.7,4.5-14s5.2,6.9,12.5,6.9s18.3-2.7,13.3,16.5L366.1,185.2z"/>
			<path class="st15" d="M368.5,190c-2.2,1-4.9,0-5.9-2.2s0-4.9,2.2-5.9s4.9,0,5.9,2.2S370.7,188.9,368.5,190z"/>
			<path class="st7" d="M341,191.4l9.4,0.6c0,0-0.7,4.2-5.8,3.5C340.7,195,341,191.4,341,191.4z"/>
		</g>
	</g>
	<path class="st16" d="M375.8,206c0,0,2.3,0.2,21.2,11.6l-8.4,17l-11.1-5.9L375.8,206z"/>
	<path class="st15" d="M284.6,221.4c0.1,3.8,3.3,6.8,7.1,6.6c3.8-0.1,6.8-3.3,6.6-7.1c-0.1-3.8-3.3-6.8-7.1-6.6
		C287.5,214.4,284.5,217.6,284.6,221.4z"/>
	<path class="st15" d="M388.8,276c-1.9,3.5-6.4,4.8-9.9,2.9s-4.8-6.4-2.9-9.9s6.4-4.8,9.9-2.9C389.5,268,390.8,272.4,388.8,276z"/>
	<polygon class="st17" points="379,281.7 383.9,326.7 398.1,395 381.7,398.5 364.3,329.5 357,279.7 	"/>
	<g>
		<polygon class="st22" points="371.4,223.4 358.5,223.1 357.9,234.4 363.1,237.4 370.2,235.3 		"/>
		<path class="st23" d="M367.3,205.5c0,0,0.1,7.9-9.8,7.6c0,0-7,0.1-6.9-7.6"/>
	</g>
</g>
<g>
	<g>
		<path class="st24" d="M483.9,330.1c0,0,2.3,2.2,4.7,3.4C488.6,333.5,488.1,332,483.9,330.1z"/>
		<path class="st24" d="M483.4,326.5c0,0,4.7,4.4,9.5,6.7C492.9,333.3,491.7,330.4,483.4,326.5z"/>
		<path class="st24" d="M489.4,327.8c0,0,3.8,3.6,7.8,5.5C497.2,333.3,496.2,331,489.4,327.8z"/>
		<path class="st24" d="M507.7,327.1c0,0-4.4,4.1-8.9,6.3C498.7,333.4,499.8,330.7,507.7,327.1z"/>
		<path class="st24" d="M507.4,330.1c0,0-2.3,2.2-4.7,3.4C502.6,333.5,503.2,332,507.4,330.1z"/>
	</g>
	<path class="st24" d="M510.9,330.1c0,0-2.3,2.2-4.7,3.4C506.2,333.5,506.7,332,510.9,330.1z"/>
</g>
</svg>
