<?xml version="1.0" encoding="utf-8"?>
<!-- Generator: Adobe Illustrator 23.0.3, SVG Export Plug-In . SVG Version: 6.00 Build 0)  -->
<svg version="1.1" id="Layer_1" xmlns="http://www.w3.org/2000/svg" xmlns:xlink="http://www.w3.org/1999/xlink" x="0px" y="0px"
	 viewBox="0 0 624.8 455.9" style="enable-background:new 0 0 624.8 455.9;" xml:space="preserve">
<style type="text/css">
	.st0{fill:none;}
	.st1{fill:#FFFFFF;}
	.st2{fill:#306FB4;}
	.st3{opacity:0.2;}
	.st4{clip-path:url(#SVGID_2_);}
	.st5{fill:#E9EBFB;}
	.st6{clip-path:url(#SVGID_4_);fill:#E0E2F5;}
	.st7{fill:#393F5C;}
	.st8{fill:#81B7FB;}
	.st9{fill:#EDEEF9;}
	.st10{fill-rule:evenodd;clip-rule:evenodd;fill:#256193;}
	.st11{fill-rule:evenodd;clip-rule:evenodd;fill:#81B7FB;}
	.st12{fill-rule:evenodd;clip-rule:evenodd;fill:#9C4F5F;}
	.st13{fill-rule:evenodd;clip-rule:evenodd;fill:#63A5E0;}
	.st14{fill:#09ACF2;}
	.st15{fill:none;stroke:#FFFFFF;stroke-width:5;stroke-linecap:round;stroke-linejoin:round;stroke-miterlimit:10;}
	.st16{fill:none;stroke:#E4EAEF;stroke-width:14;stroke-linecap:round;stroke-miterlimit:10;}
	.st17{fill:#E4EAEF;}
	.st18{fill:none;stroke:#E4EAEF;stroke-width:3;stroke-linecap:round;stroke-linejoin:round;stroke-miterlimit:10;}
	.st19{fill:none;stroke:#0B2669;stroke-width:0.7608;stroke-linecap:round;stroke-linejoin:round;stroke-miterlimit:10;}
	.st20{fill:#FF664C;}
	.st21{fill:#FFA385;}
	.st22{fill:#2249A2;}
	.st23{fill:#FFC054;}
	.st24{fill:#FF9077;}
	.st25{fill:none;stroke:#CE4534;stroke-miterlimit:10;}
	.st26{fill:#0B2669;}
	.st27{fill:none;stroke:#26427A;stroke-width:0.7608;stroke-linecap:round;stroke-linejoin:round;stroke-miterlimit:10;}
	.st28{fill:#FFE4C9;}
	.st29{fill:none;stroke:#E5920E;stroke-width:0.7608;stroke-linecap:round;stroke-linejoin:round;stroke-miterlimit:10;}
	.st30{fill:#D6DCFC;}
	.st31{fill:#DCE0F4;}
</style>
<rect x="247.2" y="227.6" class="st0" width="80.4" height="20.4"/>
<rect x="197.4" y="227.6" class="st0" width="82.8" height="21"/>
<path class="st1" d="M560.6,416"/>
<rect x="231.3" y="223.9" class="st0" width="80.4" height="20.4"/>
<rect x="156" y="158.8" class="st2" width="8.3" height="22.1"/>
<g class="st3">
	<defs>
		<rect id="SVGID_1_" x="37.6" y="127.7" class="st3" width="586.1" height="327.7"/>
	</defs>
	<clipPath id="SVGID_2_">
		<use xlink:href="#SVGID_1_"  style="overflow:visible;"/>
	</clipPath>
	<g class="st4">
		<path class="st5" d="M248.9,204.4c-8.3,9.7-15.2,18.9-7.6,28.7c3.7,4.8,10.6,9.2,18.8,16.6c35.9,32.5-3.6,49.3-50.1,50
			c-46.5,0.7-142-2.8-154,75.1c-6.8,44,11.1,150.1,247,173.9c212.5,21.4,335.6-67.8,304-117c-31.6-49.2-67.3-70.1-48.9-92.7
			c27.5-34,47.3-37.9,52-86.9C622.4,124.8,341.7,95.7,248.9,204.4z"/>
		<g>
			<defs>
				<path id="SVGID_3_" d="M248.9,204.4c-8.3,9.7-15.2,18.9-7.6,28.7c3.7,4.8,10.6,9.2,18.8,16.6c35.9,32.5-3.6,49.3-50.1,50
					c-46.5,0.7-142-2.8-154,75.1c-6.8,44,11.1,150.1,247,173.9c212.5,21.4,335.6-67.8,304-117c-31.6-49.2-67.3-70.1-48.9-92.7
					c27.5-34,47.3-37.9,52-86.9C622.4,124.8,341.7,95.7,248.9,204.4z"/>
			</defs>
			<clipPath id="SVGID_4_">
				<use xlink:href="#SVGID_3_"  style="overflow:visible;"/>
			</clipPath>
			<path class="st6" d="M232,165.7c0,0,28.1,84,91.8,155.4C356,357.2,515.3,435.4,437.3,487C67.6,731.5,40,358,40,358l101.7-165.4
				L232,165.7z"/>
		</g>
	</g>
</g>
<g>
	<g>
		<rect x="301.3" y="112.8" class="st7" width="5.5" height="83.8"/>
	</g>
	<path class="st8" d="M320.7,118h-33.2c-4.4,0-7.9-3.5-7.9-7.9V29.7c0-4.4,3.5-7.9,7.9-7.9h33.2c4.4,0,7.9,3.5,7.9,7.9v80.4
		C328.6,114.5,325.1,118,320.7,118z"/>
	<path class="st9" d="M319,45.8c0,8.2-6.7,14.9-14.9,14.9c-8.2,0-14.9-6.7-14.9-14.9c0-8.2,6.7-14.9,14.9-14.9
		C312.3,31,319,37.6,319,45.8z"/>
	<path class="st7" d="M316.5,45.8c0,6.9-5.6,12.4-12.4,12.4c-6.9,0-12.4-5.6-12.4-12.4c0-6.9,5.6-12.4,12.4-12.4
		C311,33.4,316.5,39,316.5,45.8z"/>
	<path class="st9" d="M308.8,45.8c0,2.6-2.1,4.7-4.7,4.7c-2.6,0-4.7-2.1-4.7-4.7c0-2.6,2.1-4.7,4.7-4.7
		C306.7,41.1,308.8,43.2,308.8,45.8z"/>
	<path class="st9" d="M319,90.8c0,8.2-6.7,14.9-14.9,14.9c-8.2,0-14.9-6.7-14.9-14.9s6.7-14.9,14.9-14.9
		C312.3,75.9,319,82.5,319,90.8z"/>
	
		<ellipse transform="matrix(0.7071 -0.7071 0.7071 0.7071 24.8983 241.6127)" class="st7" cx="304.1" cy="90.8" rx="12.4" ry="12.4"/>
	<path class="st9" d="M308.8,90.8c0,2.6-2.1,4.7-4.7,4.7c-2.6,0-4.7-2.1-4.7-4.7c0-2.6,2.1-4.7,4.7-4.7
		C306.7,86,308.8,88.1,308.8,90.8z"/>
	<polygon class="st7" points="304.1,190.3 283.1,202.2 304.1,202.2 325.1,202.2 	"/>
</g>
<g>
	<g>
		<path class="st10" d="M451.9,271.2c0,0,2.3,2.2,4.7,3.4C456.7,274.6,456.1,273.1,451.9,271.2z"/>
		<path class="st10" d="M451.4,267.6c0,0,4.7,4.4,9.5,6.7C460.9,274.4,459.8,271.5,451.4,267.6z"/>
		<path class="st10" d="M457.5,268.9c0,0,3.8,3.6,7.8,5.5C465.2,274.4,464.3,272.1,457.5,268.9z"/>
		<path class="st10" d="M475.7,268.2c0,0-4.4,4.1-8.9,6.3C466.8,274.5,467.9,271.8,475.7,268.2z"/>
		<path class="st10" d="M475.4,271.2c0,0-2.3,2.2-4.7,3.4C470.7,274.6,471.2,273.1,475.4,271.2z"/>
	</g>
	<path class="st10" d="M478.9,271.2c0,0-2.3,2.2-4.7,3.4C474.2,274.6,474.8,273.1,478.9,271.2z"/>
</g>
<g>
	<g>
		<path class="st10" d="M339.7,357.9c0,0,2.3,2.2,4.7,3.4C344.5,361.3,343.9,359.8,339.7,357.9z"/>
		<path class="st10" d="M339.2,354.3c0,0,4.7,4.4,9.5,6.7C348.7,361.1,347.5,358.2,339.2,354.3z"/>
		<path class="st10" d="M345.2,355.6c0,0,3.8,3.6,7.8,5.5C353,361.1,352,358.8,345.2,355.6z"/>
		<path class="st10" d="M363.5,354.9c0,0-4.4,4.1-8.9,6.3C354.6,361.2,355.6,358.5,363.5,354.9z"/>
		<path class="st10" d="M363.2,357.9c0,0-2.3,2.2-4.7,3.4C358.4,361.3,359,359.8,363.2,357.9z"/>
	</g>
	<path class="st10" d="M366.7,357.9c0,0-2.3,2.2-4.7,3.4C362,361.3,362.6,359.8,366.7,357.9z"/>
</g>
<g>
	<g>
		<path class="st10" d="M498.1,399.3c0,0,2.3,2.2,4.7,3.4C502.8,402.7,502.3,401.2,498.1,399.3z"/>
		<path class="st10" d="M497.6,395.7c0,0,4.7,4.4,9.5,6.7C507.1,402.5,505.9,399.6,497.6,395.7z"/>
		<path class="st10" d="M503.6,397c0,0,3.8,3.6,7.8,5.5C511.4,402.5,510.4,400.2,503.6,397z"/>
		<path class="st10" d="M521.8,396.3c0,0-4.4,4.1-8.9,6.3C512.9,402.6,514,399.9,521.8,396.3z"/>
		<path class="st10" d="M521.6,399.3c0,0-2.3,2.2-4.7,3.4C516.8,402.7,517.4,401.2,521.6,399.3z"/>
	</g>
	<path class="st10" d="M525.1,399.3c0,0-2.3,2.2-4.7,3.4C520.4,402.7,520.9,401.2,525.1,399.3z"/>
</g>
<g>
	<g>
		<path class="st10" d="M531.7,288.9c0,0,2.3,2.2,4.7,3.4C536.5,292.3,535.9,290.8,531.7,288.9z"/>
		<path class="st10" d="M531.2,285.3c0,0,4.7,4.4,9.5,6.7C540.7,292.1,539.5,289.2,531.2,285.3z"/>
		<path class="st10" d="M537.2,286.6c0,0,3.8,3.6,7.8,5.5C545,292.1,544,289.8,537.2,286.6z"/>
		<path class="st10" d="M555.5,285.9c0,0-4.4,4.1-8.9,6.3C546.6,292.2,547.6,289.5,555.5,285.9z"/>
		<path class="st10" d="M555.2,288.9c0,0-2.3,2.2-4.7,3.4C550.4,292.3,551,290.8,555.2,288.9z"/>
	</g>
	<path class="st10" d="M558.7,288.9c0,0-2.3,2.2-4.7,3.4C554,292.3,554.6,290.8,558.7,288.9z"/>
</g>
<g>
	<g>
		<path class="st10" d="M344.7,206.9c0,0,2.3,2.2,4.7,3.4C349.5,210.3,348.9,208.8,344.7,206.9z"/>
		<path class="st10" d="M344.2,203.3c0,0,4.7,4.4,9.5,6.7C353.7,210.1,352.5,207.2,344.2,203.3z"/>
		<path class="st10" d="M350.2,204.6c0,0,3.8,3.6,7.8,5.5C358,210.1,357,207.8,350.2,204.6z"/>
		<path class="st10" d="M368.5,203.9c0,0-4.4,4.1-8.9,6.3C359.6,210.2,360.6,207.5,368.5,203.9z"/>
		<path class="st10" d="M368.2,206.9c0,0-2.3,2.2-4.7,3.4C363.4,210.3,364,208.8,368.2,206.9z"/>
	</g>
	<path class="st10" d="M371.7,206.9c0,0-2.3,2.2-4.7,3.4C367,210.3,367.6,208.8,371.7,206.9z"/>
</g>
<path class="st11" d="M577.3,154.4c-14.6,11.1-38.2,1-51.2-10.3c-2.3-2-4-4.6-4.6-7.5c-3-14.2,19.4-17.7,20.1-30.4
	c0.3-5.6-3.9-10.2-7-14.8c-7-10.6-9-24-7.6-36.6c1.5-12.6,6.2-24.6,11.7-36.1c4.5-9.4,12.6-20,22.7-17.7c6.5,1.4,10.7,7.9,12.6,14.3
	c2.6,8.8,2.2,18.3,0.5,27.3c-0.8,4-1.8,8.1-0.7,12.1c2.8,10,16.8,12.3,22,21.4c5.2,9.2-1,20.5-6.8,29.4c-4.9,7.6-7.9,12.4-4.7,18.9
	c0.9,1.7,2.1,3.2,3.6,4.5C591,131.5,596.8,139.6,577.3,154.4z"/>
<g>
	<path class="st12" d="M558.1,27c0,3.2-3.2,175.9-3.2,175.9l12.5,1.1L558.1,27z"/>
	<g>
		<path class="st12" d="M558.7,149.5L533,122.3l27.9,24.9c0.7,0.6,0.7,1.6,0.1,2.3C560.4,150.1,559.4,150.2,558.7,149.5
			C558.7,149.6,558.7,149.5,558.7,149.5z"/>
	</g>
	<g>
		<path class="st12" d="M556.2,71.2l-10.4-20.3L558.3,70c0.4,0.5,0.2,1.3-0.3,1.6c-0.5,0.4-1.3,0.2-1.6-0.3
			C556.3,71.2,556.3,71.2,556.2,71.2z"/>
	</g>
	<g>
		<path class="st12" d="M560.7,113.8l24.8-37.4L560.7,113.8z"/>
		<path class="st12" d="M559.4,113l26.1-36.6l-23.5,38.3c-0.4,0.7-1.4,1-2.1,0.5C559.1,114.7,558.9,113.8,559.4,113
			C559.3,113,559.4,113,559.4,113z"/>
	</g>
</g>
<g>
	<path class="st13" d="M543.7,168.6c-9.6,7.3-25.2,0.6-33.9-6.8c-1.5-1.3-2.6-3-3-5c-2-9.4,12.8-11.7,13.3-20.1
		c0.2-3.7-2.6-6.7-4.6-9.8c-4.7-7-6-15.8-5-24.2c1-8.3,4.1-16.3,7.8-23.9c3-6.2,8.3-13.2,15-11.7c4.3,1,7.1,5.2,8.3,9.5
		c1.7,5.8,1.5,12.1,0.3,18c-0.5,2.6-1.2,5.4-0.5,8c1.8,6.6,11.1,8.1,14.5,14.1c3.4,6.1-0.7,13.5-4.5,19.4c-3.3,5-5.2,8.2-3.1,12.5
		c0.6,1.1,1.4,2.1,2.4,3C552.8,153.4,556.6,158.8,543.7,168.6z"/>
	<g>
		<path class="st12" d="M530,82.3c0,2.2-3.1,109-3.1,109l8.9,0.8L530,82.3z"/>
		<g>
			<path class="st12" d="M532.4,146.7l18.2-19.3l-19.8,17.7c-0.5,0.4-0.5,1.1-0.1,1.6C531.2,147.2,531.9,147.2,532.4,146.7
				C532.4,146.8,532.4,146.7,532.4,146.7z"/>
		</g>
		<g>
			<path class="st12" d="M528.6,113.6l-7.4-14.4l8.8,13.6c0.3,0.4,0.1,0.9-0.2,1.2C529.5,114.2,528.9,114.1,528.6,113.6
				C528.7,113.6,528.7,113.6,528.6,113.6z"/>
		</g>
		<path class="st12" d="M531.8,143.8l17.6-26.5L531.8,143.8z"/>
	</g>
</g>
<g>
	<path class="st14" d="M145,117.9v262.7h159.1V117.9C304.1,117.9,227.8,35.3,145,117.9z"/>
	<path class="st15" d="M160.5,133v227.4h128.7V133C289.2,133,227.4,76.7,160.5,133z"/>
	<path class="st16" d="M139.5,113c0,0,75.3-69.3,168.2,0"/>
	<path class="st17" d="M307.7,393.3H141.6c-3.6,0-6.4-2.9-6.4-6.4v-2.1c0-3.6,2.9-6.4,6.4-6.4h166.1c3.6,0,6.4,2.9,6.4,6.4v2.1
		C314.1,390.4,311.3,393.3,307.7,393.3z"/>
	<path class="st2" d="M253.7,316.7h-59.6c-0.7,0-1.2-0.6-1.2-1.2v-1c0-0.7,0.6-1.2,1.2-1.2h59.6c0.7,0,1.2,0.6,1.2,1.2v1
		C255,316.1,254.4,316.7,253.7,316.7z"/>
	<path class="st2" d="M253.7,326h-59.6c-0.7,0-1.2-0.6-1.2-1.2v-1c0-0.7,0.6-1.2,1.2-1.2h59.6c0.7,0,1.2,0.6,1.2,1.2v1
		C255,325.4,254.4,326,253.7,326z"/>
	<path class="st2" d="M253.7,335.3h-59.6c-0.7,0-1.2-0.6-1.2-1.2v-1c0-0.7,0.6-1.2,1.2-1.2h59.6c0.7,0,1.2,0.6,1.2,1.2v1
		C255,334.8,254.4,335.3,253.7,335.3z"/>
	<rect x="156" y="317.4" class="st2" width="8.3" height="22.1"/>
	<polyline class="st18" points="270.5,223.9 273.5,226.9 273.5,241.1 270.9,243.6 	"/>
	<g>
		<path class="st1" d="M213.5,177.2h22c4,0,7.3-3.3,7.3-7.3v-22c0-4-3.3-7.3-7.3-7.3h-22c-4,0-7.3,3.3-7.3,7.3v22
			C206.2,173.9,209.5,177.2,213.5,177.2L213.5,177.2z M231.6,147.2c0.4-0.4,0.8-0.6,1.4-0.6c0.5,0,1,0.2,1.4,0.6
			c0.4,0.4,0.6,0.8,0.6,1.4c0,0.6-0.2,1-0.6,1.4c-0.4,0.4-0.8,0.5-1.4,0.5c-0.5,0-1-0.2-1.4-0.5c-0.4-0.4-0.5-0.8-0.5-1.4
			C231,148,231.2,147.6,231.6,147.2L231.6,147.2z M228.3,153.4c0-0.7,0.3-1.2,0.7-1.7c0.5-0.5,1.1-0.7,1.7-0.7h4.3
			c0.7,0,1.3,0.3,1.7,0.7c0.5,0.5,0.7,1.1,0.7,1.7v6c0,0.2-0.1,0.4-0.2,0.6c-0.2,0.2-0.3,0.2-0.6,0.2c-0.2,0-0.4-0.1-0.6-0.2
			c-0.2-0.2-0.2-0.4-0.2-0.6v-5.4h-0.5V169c0,0.3-0.1,0.6-0.3,0.8c-0.2,0.2-0.5,0.3-0.8,0.3c-0.3,0-0.6-0.1-0.8-0.3
			c-0.2-0.2-0.3-0.5-0.3-0.8v-8.6h-0.5v8.6c0,0.3-0.1,0.6-0.3,0.8c-0.2,0.2-0.5,0.3-0.8,0.3c-0.3,0-0.6-0.1-0.8-0.3
			c-0.2-0.2-0.4-0.5-0.4-0.8v-14.9H230v5.4c0,0.2-0.1,0.4-0.2,0.6c-0.2,0.2-0.4,0.2-0.6,0.2c-0.2,0-0.4-0.1-0.6-0.2
			c-0.2-0.2-0.3-0.4-0.3-0.6V153.4z M224.4,145.1h1.9v27.5h-1.9V145.1z M215.6,147.2c0.4-0.4,0.9-0.6,1.4-0.6c0.5,0,1,0.2,1.3,0.6
			c0.4,0.4,0.5,0.8,0.5,1.4c0,0.6-0.2,1-0.5,1.4c-0.4,0.4-0.8,0.5-1.3,0.5c-0.6,0-1-0.2-1.4-0.5c-0.4-0.4-0.6-0.8-0.6-1.4
			C215,148,215.2,147.6,215.6,147.2L215.6,147.2z M211.6,158.5c0-0.1,0.1-0.3,0.2-0.7c0.1-0.4,0.2-0.8,0.4-1.4
			c0.2-0.5,0.3-1.1,0.5-1.8c0.2-0.6,0.4-1.3,0.6-1.8c0.1-0.5,0.4-0.9,0.8-1.2c0.4-0.4,0.9-0.5,1.3-0.5h3.1c0.5,0,0.9,0.2,1.3,0.5
			c0.4,0.4,0.7,0.8,0.9,1.2c0.2,0.6,0.4,1.2,0.5,1.8c0.2,0.6,0.4,1.2,0.5,1.8c0.2,0.5,0.3,1,0.4,1.4c0.1,0.4,0.2,0.6,0.2,0.7l0,0.2
			c0,0.4-0.2,0.6-0.5,0.7l-0.2,0.1c-0.4,0-0.6-0.2-0.8-0.6c0-0.1-0.1-0.5-0.3-1.1c-0.2-0.6-0.3-1.2-0.5-1.8
			c-0.2-0.6-0.4-1.4-0.7-2.4h-0.4l2.6,8.8H219v6.7c0,0.3-0.1,0.5-0.3,0.6c-0.2,0.2-0.4,0.3-0.6,0.3c-0.3,0-0.5-0.1-0.7-0.3
			c-0.2-0.2-0.2-0.4-0.2-0.6v-6.7h-0.5v6.7c0,0.3-0.1,0.5-0.2,0.6c-0.2,0.2-0.4,0.3-0.6,0.3c-0.3,0-0.5-0.1-0.7-0.3
			c-0.2-0.2-0.3-0.4-0.3-0.6v-6.7h-2.5l2.6-8.8h-0.4c-0.3,1-0.5,1.8-0.7,2.4c-0.2,0.6-0.4,1.2-0.5,1.8c-0.2,0.6-0.3,0.9-0.3,1.1
			c-0.1,0.4-0.4,0.6-0.8,0.6l-0.2-0.1c-0.4-0.1-0.5-0.4-0.5-0.7C211.5,158.6,211.5,158.5,211.6,158.5L211.6,158.5z M211.6,158.5"/>
	</g>
</g>
<g>
	<g>
		<path class="st10" d="M384.1,440.8c0,0,2.4,2.3,4.9,3.5C389,444.3,388.4,442.8,384.1,440.8z"/>
		<path class="st10" d="M383.6,437.1c0,0,4.8,4.5,9.8,7C393.4,444.1,392.2,441.1,383.6,437.1z"/>
		<path class="st10" d="M389.8,438.4c0,0,3.9,3.7,8,5.7C397.8,444.1,396.8,441.7,389.8,438.4z"/>
		<path class="st10" d="M408.7,437.6c0,0-4.5,4.2-9.2,6.5C399.5,444.2,400.6,441.4,408.7,437.6z"/>
		<path class="st10" d="M408.4,440.8c0,0-2.4,2.3-4.9,3.5C403.5,444.3,404.1,442.8,408.4,440.8z"/>
	</g>
	<path class="st10" d="M412,440.8c0,0-2.4,2.3-4.9,3.5C407.1,444.3,407.7,442.8,412,440.8z"/>
</g>
<g>
	<path class="st19" d="M509.3,417.1c0,0-3.1,2-3.8,0.4C504.7,416,509.3,417.1,509.3,417.1z"/>
	<path class="st19" d="M509.3,417.2c0,0-1.5,3.3-2.9,2.5C504.9,418.8,509.3,417.2,509.3,417.2z"/>
</g>
<path class="st20" d="M558,312.4l-25.9,3.3l-19.6,28.7c-5.5,8.1-9.9,15.6-9.4,25.3l7.1,48.7l4.1-7.4c0,0,3.1-27.5,2.2-44.6
	c11.2-12.5,27.2-28.6,27.2-28.6s6,42.1,9.2,78l4.7-0.9c0,0,8.3-29.3,4.2-46.2C557.6,351.9,571.7,341.6,558,312.4z"/>
<path class="st21" d="M552.8,416l4.7-0.9c0,0,0.8,5.3,2.6,8.2c1.8,3,2.3,6.4-3,7.4C551.8,431.6,551.9,422.6,552.8,416z"/>
<path class="st22" d="M556.7,242.1c-6.8-7.1-19-4.4-22,4.9c-0.7,2.2-1.2,4.9-1.3,8.2c-0.6,18.8,2.8,29.2-13.3,47.1
	c23.9,19.9,52.8-4.4,52.8-4.4S571,257,556.7,242.1z"/>
<path class="st21" d="M533,275.2c0,0-11.4-22.6-13.4-31.8c-2-9.2-3.1-24.5-3.1-24.5l3.4-1c0,0,5.6,19.4,9.7,27.9
	c4.2,8.6,17,27.5,13.3,35.2C539.2,288.7,533,275.2,533,275.2z"/>
<path class="st21" d="M516.5,218.8l3.4-1c0,0,0-11.5-1.1-12c-0.9-0.3-0.6,4.8-0.6,4.8s-2.1-8.1-3.1-8.5c-1-0.4,0.9,6.5,0.9,6.5
	s-2.2-7.1-2.7-6.9c-0.5,0.2-0.1,2.1,1.1,7.5c0,0-2.1-6.4-2.7-6.2c-0.3,0.1,0.9,4.9,1.5,6.7c-0.5-1.3-2.1-4.8-2.4-4.7
	C510.5,205.4,511.5,212.1,516.5,218.8z"/>
<path class="st23" d="M529.9,284.2c7.1-21.6,19.9-19.9,27.4-14.6c7.5,5.3,0.7,42.8,0.7,42.8c-7.5,3.1-16.1,4.3-25.9,3.3
	C532.1,315.7,527.8,290.7,529.9,284.2z"/>
<path class="st21" d="M564.4,273.9c0,0,16.8,15.4,15.7,20.6c-1.1,5.2-22.8,20.6-22.8,20.6l-1.9-2.8c-0.3-0.5-0.3-1.2,0.1-1.6
	l13.5-17c0,0-16.9-13.6-17.9-18.1C549.5,268.5,558.1,266.5,564.4,273.9z"/>
<path class="st24" d="M552.1,258.1c0,2.5,0.1,5.1,0.1,7.6c0,1.1,0.2,2.3-0.4,3.3c-0.8,1.7-4,3.7-6,3.7c-3.7-0.1-2.5-4.8-2.6-7.4
	c-0.1-2.7-0.3-5.5-0.4-8.2C546,257.5,549.1,257.8,552.1,258.1z"/>
<path class="st22" d="M559.3,420.1c0,0-0.8-2.9-3.5-2.9s-3.4,3.5-3.4,3.5s-2,10.4,3.4,10.4s6-2.1,6-4.3
	C561.9,424.6,559.3,420.1,559.3,420.1z"/>
<path class="st21" d="M556.3,251.9c0,0,2.7-1.3,3.1,2c0.4,3.3-3.6,4-3.6,4s-4,5-10.2,6.3c-3.6,0.7-6.2-1.1-7.1-4.7
	c-1.8-7.4,0.4-16.7,4.6-18.4C548.5,238.9,556,243,556.3,251.9z"/>
<path class="st1" d="M545.9,259.3c0,0-3-0.4-5.6-1.4c0,0,0.5,1.7,2.5,2.2C544.7,260.5,545.9,259.3,545.9,259.3z"/>
<path class="st22" d="M542,241c0,0,1.7,14.3,14.7,10.6C557.8,245,555.1,238.8,542,241z"/>
<path class="st19" d="M555.8,420.4c0,0-3.1-1.9-3.4-0.1c-0.5,2.9,7.2-2.2,7.6-0.8C560.4,420.9,558.2,421.5,555.8,420.4z"/>
<line class="st25" x1="537.6" y1="335.6" x2="543.6" y2="337.9"/>
<path class="st25" d="M512.4,413.8c0,0,1-36.9,1.2-47.5c1.6-5,27.2-29.3,27.2-29.3"/>
<line class="st25" x1="549.3" y1="317.3" x2="556.6" y2="315.4"/>
<path class="st25" d="M556.2,313c0,0,6.1,16.3,3.2,36.1c-2.4,16,1.8,27.4,0.8,37.3c-1.1,9.9-3.9,28.7-3.9,28.7"/>
<path class="st21" d="M558.6,309.8l-3.5,1.6c0,0,1.8,12.9,3,12.8c0.7-0.1,0.2-5.1,0.2-5.1s2.5,6.3,5.9,8.5c1.3,0.3,0.3-1.5,0.3-1.5
	s-0.3-0.7,0-2.1c0.1-0.5,0-1.5-0.2-2.5c-0.5-2.3-1.3-4.5-2.4-6.6C560.9,313.2,559.8,311.3,558.6,309.8z"/>
<path class="st22" d="M512,421.3c1.1-1.3,2.4-2.4,3.7-3.5c1.3-1,2.8-2.4,3.3-3.3c0.9-1.6-4.1-6.1-4.8-5.5c-2,1.6,0.1,2.3-1.7,4.8
	c-1.8,2.6-3.5,0.1-4.4,1.6c-0.9,1.5,0.3,3.2-1.7,6c-2.1,2.8-1.1,4.5-0.2,4.5C506.7,426,510.1,423.5,512,421.3z"/>
<path class="st25" d="M539,316c0,0-3.2,12,0.6,20.4"/>
<path class="st25" d="M542.5,315.9c0,0-2.4,13.1,0.2,21.6"/>
<path class="st25" d="M547.6,315.3c0,0,2,14.2,11.8,14.2"/>
<path class="st25" d="M535.4,316c0,0,0.5,11.7-10.7,10.9"/>
<line class="st25" x1="531.6" y1="317.7" x2="534.2" y2="318.2"/>
<line class="st25" x1="536.1" y1="318.5" x2="537.6" y2="318.5"/>
<line class="st25" x1="539.4" y1="318.4" x2="541.1" y2="318.4"/>
<line class="st25" x1="542.9" y1="318.2" x2="546.9" y2="317.6"/>
<path class="st19" d="M543.3,266.3c0,0,3.6,2.6,8.9-0.7"/>
<path class="st19" d="M552.2,266.7c-5.3,3.3-8.9,0.7-8.9,0.7s-0.7,6.7,2.2,6.9C548.6,274.5,552.2,266.7,552.2,266.7z"/>
<path class="st26" d="M546.1,275.6c-0.1,0.6-0.6,1.1-1.1,1c-0.5-0.1-0.7-0.7-0.6-1.3c0.1-0.6,0.6-1.1,1.1-1
	C546,274.3,546.2,274.9,546.1,275.6z"/>
<path class="st26" d="M369.5,221.4c0,0-5.4-7-14.3-2.4c-8.9,4.7-6.2,12.3-15.5,12.3c-9.3,0-22.9,3.5-19,16.1
	c3.8,12.6-4.2,17.7,9.6,26.9c13.9,9.2,26.3,9.2,37.8,1.9c11.5-7.2,18-2.4,23.6-13.7C397.2,251.2,381.2,214.9,369.5,221.4z"/>
<path class="st22" d="M371.4,295.5l-21.9,1.5c-16.7,16.7,3.8,55.1,3.8,55.1l-22.7-1.9v6.1c0,0,32.1,16.7,35.9,9.2
	c3.8-7.5-3.6-46.2-3.6-46.2l14.3,35.4l-12.3,42.1l4.6,2.2c0,0,22.1-27.7,22.1-42.7C391.6,320.4,371.4,295.5,371.4,295.5z"/>
<path class="st21" d="M373.3,266.9c0,0,4.6-5.9,9.1-15c4.4-9.1,13.4-18.3,8.8-26.4c-4.6-8.1-12.4-18.8-12.4-18.8l-2.5,2.9l8.4,22.4
	c0,0-12.4,11.4-18.1,20.2C360.8,261.2,369.6,270.5,373.3,266.9z"/>
<path class="st21" d="M350.5,259.1c0,0-19.8-14.3-19.8-19.8c0-5.5,19.8-24.4,19.8-24.4l2.2,3.2l-11.3,21.5c0,0,21.5,8.7,23.4,15.9
	C366.7,262.7,358.4,265.2,350.5,259.1z"/>
<path class="st21" d="M377.1,267.7c1.8-20.2-18-21.1-25-15.5c-7.1,5.6-2.5,44.9-2.5,44.9c7.5,1.5,14.9,1.2,21.9-1.5
	C371.4,295.5,375.5,285.3,377.1,267.7z"/>
<path class="st23" d="M327,359.6c0.3-1.8,0.4-3.6,0.4-5.4c0-1.7,0.1-3.9,0.4-4.9c0.7-1.8,7.7-0.9,7.8,0.1c0.1,2.7-1.9,1.5-2.7,4.7
	c-0.9,3.2,2.3,2.9,1.7,4.7c-0.6,1.8-2.8,1.9-3.7,5.5c-0.9,3.6-2.8,4-3.6,3.3C326.8,367.1,326.5,362.6,327,359.6z"/>
<path class="st21" d="M349.6,216.1l3.2,2c0,0,9.1-8.1,8.6-9.3c-0.3-0.9-4.2,2.9-4.2,2.9s4.9-7.4,4.5-8.4c-0.4-1-4.5,5.3-4.5,5.3
	s4-6.7,3.4-7c-0.6-0.3-1.7,1.4-5.1,6.2c0,0,3.5-6.2,2.9-6.5c-0.3-0.2-3.2,4.2-4.2,5.9c0.7-1.3,2.3-5,2-5.2
	C355.8,201.8,351.3,207.4,349.6,216.1z"/>
<path class="st21" d="M378.9,207.1l-2.8,2.6c0,0-10.4-6.3-10.2-7.5c0.2-1,4.6,2.1,4.6,2.1s-6.2-6.4-6-7.5c0.2-1.1,5.4,4.4,5.4,4.4
	s-5.2-5.9-4.7-6.2c0.5-0.3,1.9,1.1,6.1,5.2c0,0-4.6-5.5-4.1-5.9c0.3-0.2,3.9,3.5,5.2,5.1c-0.9-1.1-3.2-4.5-2.9-4.7
	C370.1,194.3,375.6,198.9,378.9,207.1z"/>
<path class="st21" d="M369.5,398.9c0,0,1.4,5.7,2.3,8.5s0.8,5,0.2,6.3c-0.6,1.3-5.9-1.3-7.8-5c-1.8-3.6,0-3.8-2.2-6.1
	c-2.2-2.4,2.9-5.9,2.9-5.9L369.5,398.9z"/>
<path class="st24" d="M357,239.4l0.8,9.1c0.2,2.5,2.3,4.5,4.8,4.6c0,0,0.1,0,0.1,0c0,0,0.1,0,0.1,0c2.2,0,3.8-1.9,3.7-4.1l-0.6-11.3
	L357,239.4z"/>
<path class="st20" d="M348.2,243.5c-0.9,3.5-2.7,6.5-5.5,8.9c-0.6,0.9-0.3,2,0.5,2.6l0.2,0.1c2.6,1.8,3.5,5.1,2.3,8
	c-2,4.8-4.8,12.4-5.4,19.2c0,9,14.4,8.3,23.7,4.2c11.5-5.1,19.8,0.2,20.7-2.9c2.1-7.2-1.5-16.2-3.9-21.1c-1.1-2.2-0.9-4.9,0.6-6.9
	l0.6-0.7c0.1-0.2,0.2-0.4,0.3-0.6c0.3-0.8-0.2-1.7-1-2.2c-3.1-1.8-5.3-4.4-6.5-7.6c-0.2-0.6-0.8-1.2-1.4-1.3
	c-0.6-0.1-1.2,0.1-1.6,0.5l-5.3,5.1c0,0-0.9,3.1-3.8,3.1c-4.4,0-5-5-5-5s-3.3-2.3-6.9-4.2C349.9,242.3,348.2,242,348.2,243.5z"/>
<path class="st23" d="M371.7,406.7c-0.6-1.7-0.9-3.6-0.8-5.4c0,0,0,0,0-0.1c0.2-1.9-3.6-2.8-4.5-1c-0.8,1.8-1.4-1.9-1.7-2.6
	c-0.3-0.7-2.3-0.3-4.4,3.5c-0.6,1.2,1.1,2.1,1.7,3.8c0.6,1.7,1,6.7,6.5,9.2C373.3,416.3,373.5,411.5,371.7,406.7z"/>
<path class="st21" d="M353.9,233.3c0,0-2.6-1.4-3.1,1.9c-0.5,3.2,3.4,4,3.4,4s3.7,5,9.8,6.5c3.5,0.8,6.1-0.9,7-4.3
	c2-7.2,0.2-16.3-3.9-18.2C362,220.9,354.5,224.6,353.9,233.3z"/>
<path class="st1" d="M363.9,240.9c0,0,3-0.3,5.5-1.2c0,0-0.6,1.7-2.5,2.1C365,242.1,363.9,240.9,363.9,240.9z"/>
<path class="st26" d="M351.6,231.3c0,0,1.9,3.6,7.3,1.7c5.4-1.9,6.1-7.3,6.1-7.3s3.3,10,8.1,6.2
	C377.7,228.2,361.5,210.1,351.6,231.3z"/>
<g>
	<path class="st19" d="M332.2,361.1c0,0,0.5,3.5-1.1,3.6C329.4,364.7,332.2,361.1,332.2,361.1z"/>
	<path class="st19" d="M332.3,361.1c0,0,2.4,2.6,1.1,3.6C332,365.7,332.3,361.1,332.3,361.1z"/>
</g>
<path class="st19" d="M368.3,402.6c0,0-2.6-2.4-3.3-0.8c-1.1,2.7,7.3-0.7,7.4,0.7C372.6,403.8,370.4,404,368.3,402.6z"/>
<path class="st27" d="M349.5,297c0,0,12,2.8,21.9-1.5"/>
<path class="st27" d="M348.7,297.9c0,0,5.9,2,13.1,1.1c7.2-0.8,10.3-2.8,10.3-2.8"/>
<path class="st25" d="M340.3,280.9c0,0,1.2,5.9,8.6,6.4c7.4,0.4,16.4-4.5,23-5.1c6.7-0.5,12.9,0.5,12.9,0.5"/>
<path class="st25" d="M349.7,242.2c0,0,0.2,8.3-6.8,12.2"/>
<path class="st25" d="M371.7,243.8c0,0,3.4,8.8,10.3,11.1"/>
<path class="st25" d="M357.6,247c0,0,0.1,5.1,5.2,5c3.9-0.1,3.8-3.6,3.8-3.6"/>
<path class="st25" d="M362.8,251.9c0,0,1,3.9,0.7,7.3"/>
<path class="st25" d="M361.1,253.6c0,0.3,0.2,0.6,0.6,0.6c0.3,0,0.6-0.2,0.6-0.6c0-0.3-0.2-0.6-0.6-0.6
	C361.3,253,361.1,253.3,361.1,253.6z"/>
<path class="st25" d="M361.3,257.1c0,0.3,0.2,0.6,0.6,0.6s0.6-0.2,0.6-0.6s-0.2-0.6-0.6-0.6S361.3,256.8,361.3,257.1z"/>
<path class="st23" d="M464.7,180.5c0,0,15.8,12.7,0.1,35.7c-15.7,23-2.9,22.1-30.3,71.7c-6.2,0-6.3,0-6.3,0s10.7-29.4,10.7-46.2
	s11.3-61.3,11.3-61.3L464.7,180.5z"/>
<path class="st23" d="M440.7,181.6c0,0-15.4,20-6.6,60.5c3.5,16.1,16.6,43.1,16.6,43.1l4.8-0.5c0,0,0.4-24.7-6.5-37.5
	c-6.9-12.8,1.1-66.8,1.1-66.8L440.7,181.6z"/>
<path class="st21" d="M459.4,137.4c7.5,2.5,18.3,12.7,18.3,12.7l-8.9-28.9l3.2-1.4c0,0,15,22.9,15,32.9c0,8.6-4.2,9.5-14.1,5.8
	c-5-1.9-13.4-6.3-18-9.1c-3.9-2.4-4.7-1-5.8-4.7c-0.1-0.2,0-0.4,0-0.7C449.4,138.9,454.6,135.8,459.4,137.4z"/>
<path class="st21" d="M444.5,151.3c0,0-14.7,13.4-20.8,17.6c-6.1,4.2-22.5,10.4-22.5,10.4l-2.8-2.6c0,0,18.2-13.5,23.4-18.8
	c5.2-5.2,16.8-21.7,23.6-21.7C452.1,136.3,451.7,144.1,444.5,151.3z"/>
<path class="st21" d="M435.1,152.5c0.9-20.7,19.8-19.3,27-13.6c7.2,5.7,2.7,41.7,2.7,41.7l-24,1.1
	C440.7,181.6,434.1,173.7,435.1,152.5z"/>
<path class="st21" d="M472.6,121.4l-3.8-0.2c0,0-3-12.7-1.9-13c0.7-0.2,2,4.7,2,4.7s0.1-6.8,2.4-10c1.1-0.7,0.8,1.3,0.8,1.3
	s-0.1,0.7,0.7,1.9c0.3,0.4,0.5,1.4,0.7,2.4c0.4,2.3,0.4,4.7,0.2,7C473.5,117.4,473.2,119.6,472.6,121.4z"/>
<path class="st21" d="M398.4,176.7l2.8,2.6c0,0-5.6,11.1-6.9,11c-1-0.1,1.8-4.9,1.8-4.9s-6,6.8-7.1,6.7c-1.1-0.1,4.1-5.8,4.1-5.8
	s-5.6,5.7-6,5.3c-0.4-0.5,0.9-2,4.8-6.6c0,0-5.2,5.1-5.6,4.6c-0.2-0.3,3.3-4.2,4.7-5.7c-1.1,1-4.4,3.6-4.6,3.4
	C385.9,186.7,390.2,180.8,398.4,176.7z"/>
<path class="st21" d="M428.2,288c0,0-2.7,4.6-4.9,6.7s-3,4.2-3,5.7c0,1.4,6,1.4,9.4-1.1c3.3-2.5,1.7-3.4,4.8-4.6
	c3.1-1.2,0-6.7,0-6.7H428.2z"/>
<path class="st21" d="M455.5,284.7l-4.8,0.5c0,0,0.7,5.3-0.2,8.6c-0.9,3.3-0.4,6.8,5,6.2C460.9,299.5,458.2,290.8,455.5,284.7z"/>
<path class="st24" d="M456.6,127.3l-1.3,11.3c-0.3,2.6-2.4,4.6-5,4.5c0,0-0.1,0-0.1,0c0,0-0.1,0-0.1,0c-2.2-0.1-3.8-2.1-3.7-4.3
	l0.9-11.6L456.6,127.3z"/>
<path class="st28" d="M446.7,135.6c0,0-0.7,6.7,4.7,5.8c4.3-0.7,4.2-5.6,4.2-5.6s9.1,1.9,17.6,10.4c-0.8,6.7,0.7,34,1.4,46.3
	c0.2,3.6-2.4,6.7-6,7.2c-7.3,1-20.1,1.5-33.7-3.2c-2.9-1-4.8-3.9-4.5-6.9c1.3-17.5,3.4-45.3,3.4-45.3S439.3,136.8,446.7,135.6z"/>
<polygon class="st20" points="456.8,142.5 438,169.9 452,170.4 442.1,191.6 468.1,165.8 452.2,164 "/>
<path class="st20" d="M450.8,290.8c0,0,0.2-2.8,2.7-3.4c2.5-0.6,4.1,2.4,4.1,2.4s4.2,9.1-1.1,10.3c-5.3,1.2-6.3-0.5-6.7-2.6
	C449.3,295.5,450.8,290.8,450.8,290.8z"/>
<path class="st20" d="M423.4,293.8c1.4-1.4,2.4-3,3.1-4.8c0,0,0,0,0-0.1c0.7-1.8,4.7-1.1,4.7,1s2.2-1.2,2.7-1.7
	c0.5-0.5,2.3,0.7,2.6,5.2c0,1.4-1.9,1.5-3.3,2.8c-1.3,1.3-3.9,5.9-10.2,5.9C417.6,302.3,419.5,297.6,423.4,293.8z"/>
<path class="st21" d="M458.6,121c0,0,2.7-1.3,3.1,2c0.4,3.3-3.6,4-3.6,4s-4,5-10.2,6.3c-3.6,0.7-6.2-1.1-7.1-4.7
	c-1.8-7.4,0.4-16.7,4.6-18.4C450.8,108,458.3,112,458.6,121z"/>
<path class="st26" d="M456.2,118.4c0,0-1,5.1,0.8,5.1s2.4-2.6,2.4-2.6s2-0.9,2-5.8c0-4.9-7.3-11.9-12.6-9.6c-5.4,2.3-7.1-3-11.6,1.5
	c-4.5,4.5,2.2,12.5,10.6,9.8C456.2,114.2,456.2,118.4,456.2,118.4z"/>
<path class="st26" d="M456.1,122c0,0-1.7,3.3-4.2,4.2c-2.5,0.8-5,1.8-9.3,0.1c-2.2-1.2-2.7-1.7-2.7,1.1c0.1,4.6,1.8,8,5.3,8.3
	c3.5,0.3,9.2-2.3,12.5-13.3"/>
<path class="st19" d="M427.4,291.1c0,0-2.7-2.5-3.4-0.8c-1.1,2.8,7.4-0.8,7.6,0.7S429.5,292.6,427.4,291.1z"/>
<path class="st19" d="M454.1,290.3c0,0-3.2-1.7-3.5,0.1c-0.3,3,7-2.6,7.5-1.2C458.6,290.5,456.5,291.2,454.1,290.3z"/>
<path class="st1" d="M448.2,128.1c0,0-3.1-0.1-5.7-0.9c0,0,0.7,1.7,2.7,1.9C447.1,129.4,448.2,128.1,448.2,128.1z"/>
<path class="st29" d="M449.9,214.4c0,0-2.7,20,0.4,34.8"/>
<line class="st29" x1="438.6" y1="255.5" x2="443.4" y2="268.2"/>
<g>
	<g>
		<path class="st10" d="M218.1,422.8c0,0,2.4,2.3,4.9,3.5C223,426.3,222.4,424.8,218.1,422.8z"/>
		<path class="st10" d="M217.6,419.1c0,0,4.8,4.5,9.8,7C227.4,426.1,226.2,423.1,217.6,419.1z"/>
		<path class="st10" d="M223.8,420.4c0,0,3.9,3.7,8,5.7C231.8,426.1,230.8,423.7,223.8,420.4z"/>
		<path class="st10" d="M242.7,419.6c0,0-4.5,4.2-9.2,6.5C233.5,426.2,234.6,423.4,242.7,419.6z"/>
		<path class="st10" d="M242.4,422.8c0,0-2.4,2.3-4.9,3.5C237.5,426.3,238.1,424.8,242.4,422.8z"/>
	</g>
	<path class="st10" d="M246,422.8c0,0-2.4,2.3-4.9,3.5C241.1,426.3,241.7,424.8,246,422.8z"/>
</g>
<path class="st30" d="M422.7,99.5c-0.5-0.6-0.8-1.3-1-2c-0.1-0.5-0.2-1-0.3-1.5c-0.2-1.1-0.7-2-1.7-2.6c-0.3-0.2-0.6,0.2-0.4,0.4
	c0,0,0,0,0,0c0,0.5-0.2,1-0.4,1.4c-0.5,1.3-1,2.5-1.5,3.8c-0.3,0.7-0.5,1.3-0.9,2c-0.4-0.5-0.8-0.7-1.3-0.8
	c-1.2-0.2-2.3,0.2-3.1,1.1c-0.8,0.9-1,2-0.5,3.1c0.4,1,1.3,1.4,2.3,1.1c0.7-0.2,1.2-0.6,1.7-1c0.7-0.7,1.2-1.5,1.7-2.4
	c0.7-1.4,1.4-2.9,1.9-4.4c0.3-0.8,0.6-1.6,0.9-2.4c1,2,0.9,4.7,3,5.8c0.2-0.2,0.4-0.4,0.6-0.6C423.5,100.2,423,99.9,422.7,99.5z"/>
<path class="st30" d="M584.2,243.2c-0.4-1.9-0.9-3.7-1.5-5.5c-0.2-0.5-0.3-1.1-0.4-1.7c-0.1-0.5,0-0.6,0.5-0.8
	c0.2-0.1,0.4-0.1,0.6-0.1c0.7,0.1,1.4,0.3,1.9,0.7c0.5,0.4,0.9,0.9,1.3,1.4c0.5,0.5,0.9,1.1,1.4,1.6c0.8,0.8,1.7,1.3,2.8,1.5
	c0.1,0,0.3,0.1,0.4,0.1c0.3,0.1,0.4,0.3,0.4,0.5c0,0.2-0.2,0.4-0.5,0.4c-0.4,0-0.7-0.1-1.1-0.2c-1.1-0.4-2.2-0.9-3.1-1.8
	c-0.7-0.7-1.3-1.4-2-2.1c-0.2-0.2-0.4-0.4-0.7-0.6c-0.1-0.1-0.3-0.2-0.5-0.2c-0.4-0.1-0.5,0-0.4,0.5c0.7,2.2,1.3,4.4,1.8,6.6
	c0.3,1.3,0.6,2.7,0.7,4.1c0,0.4,0,0.7-0.1,1.1c-0.2,0.9-0.7,1.5-1.5,1.8c-0.7,0.3-1.4,0.2-1.9-0.4c-1.1-1.2-1.9-3.4-0.9-5.5
	c0.5-0.9,1.7-1.7,2.7-1.3C584.1,243.3,584.1,243.2,584.2,243.2z"/>
<path class="st30" d="M357.2,179.2c-0.7-0.4-1.3-1-1.8-1.6c-0.3-0.4-0.6-0.9-0.9-1.4c-0.7-1-1.5-1.7-2.8-1.9c-0.4,0-0.5,0.4-0.3,0.6
	c0,0,0,0,0,0c0.2,0.5,0.2,1,0.2,1.5c0,1.5,0.1,2.9,0.1,4.4c0,0.8,0,1.5-0.1,2.4c-0.6-0.3-1.1-0.4-1.7-0.3c-1.3,0.3-2.2,1.1-2.6,2.4
	c-0.4,1.2-0.2,2.4,0.7,3.3c0.8,0.8,1.8,0.9,2.7,0.2c0.6-0.4,1-1,1.2-1.7c0.4-1,0.6-2,0.7-3.1c0.2-1.7,0.2-3.4,0.2-5.1
	c0-0.9,0-1.8-0.1-2.7c1.8,1.6,2.7,4.3,5.4,4.6c0.1-0.3,0.2-0.6,0.4-0.9C358.2,179.6,357.6,179.5,357.2,179.2z"/>
<g>
	<g>
		<path class="st10" d="M432.1,355.8c0,0,2.4,2.3,4.9,3.5C437,359.3,436.4,357.8,432.1,355.8z"/>
		<path class="st10" d="M431.6,352.1c0,0,4.8,4.5,9.8,7C441.4,359.1,440.2,356.1,431.6,352.1z"/>
		<path class="st10" d="M437.8,353.4c0,0,3.9,3.7,8,5.7C445.8,359.1,444.8,356.7,437.8,353.4z"/>
		<path class="st10" d="M456.7,352.6c0,0-4.5,4.2-9.2,6.5C447.5,359.2,448.6,356.4,456.7,352.6z"/>
		<path class="st10" d="M456.4,355.8c0,0-2.4,2.3-4.9,3.5C451.5,359.3,452.1,357.8,456.4,355.8z"/>
	</g>
	<path class="st10" d="M460,355.8c0,0-2.4,2.3-4.9,3.5C455.1,359.3,455.7,357.8,460,355.8z"/>
</g>
<path class="st31" d="M166.4,39.3c0,0-4.6-6-7.4-8.8c-5.1-5-10.9-13.8-29.5-7.3c-1.4,0.5-2.9,1.2-4.2,1.9c-1.6,0.8-6.7,0.8-11.9-3.9
	C105,13.6,101.8,7.9,90.4,7.7C77.3,7.5,75.2,26.3,64.9,31.1c-6.5,3.1-23.7,6.1-27.3,7.5L166.4,39.3z"/>
</svg>
