<?xml version="1.0" encoding="utf-8"?>
<!-- Generator: Adobe Illustrator 23.0.3, SVG Export Plug-In . SVG Version: 6.00 Build 0)  -->
<svg version="1.1" id="Layer_1" xmlns="http://www.w3.org/2000/svg" xmlns:xlink="http://www.w3.org/1999/xlink" x="0px" y="0px"
	 viewBox="0 0 624.8 455.9" style="enable-background:new 0 0 624.8 455.9;" xml:space="preserve">
<style type="text/css">
	.st0{fill:#57C2BC;}
	.st1{fill:none;stroke:#FFFFFF;stroke-width:1.5;stroke-linecap:round;stroke-linejoin:round;stroke-miterlimit:10;}
	.st2{fill:none;}
	.st3{opacity:0.2;}
	.st4{clip-path:url(#SVGID_2_);}
	.st5{fill:#E9EBFB;}
	.st6{clip-path:url(#SVGID_4_);fill:#E0E2F5;}
	.st7{fill:#FFFFFF;}
	.st8{fill:#DCE0F4;}
	.st9{fill:#A0A0A0;}
	.st10{fill:#81B7FB;}
	.st11{fill:#FF7C5B;}
	.st12{fill:#D6DCFC;}
	.st13{fill:#09ACF2;}
	.st14{fill:none;stroke:#FFFFFF;stroke-width:5;stroke-linecap:round;stroke-linejoin:round;stroke-miterlimit:10;}
	.st15{fill:none;stroke:#E4EAEF;stroke-width:14;stroke-linecap:round;stroke-miterlimit:10;}
	.st16{fill:#E4EAEF;}
	.st17{fill:#306FB4;}
	.st18{fill:none;stroke:#E4EAEF;stroke-width:3;stroke-linecap:round;stroke-linejoin:round;stroke-miterlimit:10;}
	.st19{opacity:0.61;fill:#DDCCA6;}
	.st20{opacity:0.25;fill:#81B7FB;}
	.st21{opacity:0.57;fill:#81B7FB;}
	.st22{opacity:0.61;fill:#B0B0FF;}
	.st23{fill:#B0B0FF;}
	.st24{opacity:0.43;}
	.st25{opacity:0.57;fill:#B0B0FF;}
	.st26{opacity:0.61;fill:#D6DCFC;}
	.st27{opacity:0.25;fill:#D6DCFC;}
	.st28{opacity:0.57;fill:#D6DCFC;}
	.st29{fill:#FF6B6B;}
	.st30{fill:#8C3400;}
	.st31{fill:#782C00;}
	.st32{fill:#B034FF;}
	.st33{fill:#F5A171;}
	.st34{opacity:0.5;fill:#F5A171;}
	.st35{fill:#DE0D3E;}
	.st36{fill:#BA0B34;}
	.st37{fill:#8B29C9;}
	.st38{fill:#B9E1F1;}
	.st39{fill:#FFC340;}
	.st40{opacity:0.27;fill:#FFC340;}
	.st41{fill:#CEECFB;}
	.st42{fill:#D67086;}
	.st43{opacity:0.5;fill:#A4E1E8;}
	.st44{fill:url(#SVGID_5_);}
	.st45{fill:url(#SVGID_6_);}
	.st46{fill:#393F5C;}
	.st47{fill:#2F364F;}
	.st48{fill:#703900;}
	.st49{fill:url(#SVGID_7_);}
	.st50{fill:#D6D6D6;}
	.st51{fill:url(#SVGID_8_);}
	.st52{opacity:0.5;fill:url(#SVGID_9_);}
	.st53{fill:url(#SVGID_10_);}
	.st54{fill:url(#SVGID_11_);}
	.st55{opacity:0.35;fill:#FACA3A;}
	.st56{opacity:0.1;}
	.st57{opacity:0.38;fill:#263461;}
	.st58{fill:url(#SVGID_12_);}
</style>
<circle class="st0" cx="-614.6" cy="227.3" r="10"/>
<polyline class="st1" points="-619.4,226.7 -615.8,230.3 -609.8,224.3 "/>
<rect x="259.8" y="250.4" class="st2" width="80.4" height="20.4"/>
<g class="st3">
	<defs>
		<rect id="SVGID_1_" x="65.1" y="178.5" class="st3" width="560.3" height="276.4"/>
	</defs>
	<clipPath id="SVGID_2_">
		<use xlink:href="#SVGID_1_"  style="overflow:visible;"/>
	</clipPath>
	<g class="st4">
		<path class="st5" d="M267.1,251.8c-7.9,9.3-14.5,18.1-7.2,27.4c3.6,4.6,10.1,8.8,17.9,15.9c34.3,31.1-3.5,47.1-47.9,47.8
			c-44.4,0.7-135.8-2.7-147.2,71.9c-6.5,42.1,10.6,143.6,236.1,166.3c203.2,20.5,320.9-64.8,290.7-111.9
			c-30.2-47.1-64.3-67-46.8-88.6c26.3-32.5,45.2-36.3,49.7-83.1C624.2,175.6,355.8,147.9,267.1,251.8z"/>
		<g>
			<defs>
				<path id="SVGID_3_" d="M267.1,251.8c-7.9,9.3-14.5,18.1-7.2,27.4c3.6,4.6,10.1,8.8,17.9,15.9c34.3,31.1-3.5,47.1-47.9,47.8
					c-44.4,0.7-135.8-2.7-147.2,71.9c-6.5,42.1,10.6,143.6,236.1,166.3c203.2,20.5,320.9-64.8,290.7-111.9
					c-30.2-47.1-64.3-67-46.8-88.6c26.3-32.5,45.2-36.3,49.7-83.1C624.2,175.6,355.8,147.9,267.1,251.8z"/>
			</defs>
			<clipPath id="SVGID_4_">
				<use xlink:href="#SVGID_3_"  style="overflow:visible;"/>
			</clipPath>
			<path class="st6" d="M250.9,214.7c0,0,26.9,80.4,87.8,148.7c30.8,34.5,183.1,109.3,108.5,158.7C93.8,756,67.4,398.7,67.4,398.7
				l97.2-158.2L250.9,214.7z"/>
		</g>
	</g>
</g>
<rect x="209.9" y="250.3" class="st2" width="82.8" height="21"/>
<path class="st7" d="M573.2,438.8"/>
<path class="st8" d="M179.5,66.2c0,0-4.6-6-7.4-8.8c-5.1-5-10.9-13.8-29.5-7.3c-1.4,0.5-2.9,1.2-4.2,1.9c-1.6,0.8-6.7,0.8-11.9-3.9
	c-8.3-7.5-11.5-13.2-22.9-13.3C90.3,34.4,88.3,53.2,78,58c-6.5,3.1-23.7,6.1-27.3,7.5L179.5,66.2z"/>
<rect x="243.9" y="246.7" class="st2" width="80.4" height="20.4"/>
<g>
	<path id="XMLID_124_" class="st9" d="M434.4,101c-15,2.6-30,4.6-45,5.9c-51.8,4.7-103.8,2-154.6-8l0.2-0.9
		c114.8,22.6,214.1,3.2,277.1-17c68.3-21.9,110-49.5,110.4-49.7L623,32c-0.4,0.3-42.2,27.9-110.7,49.9
		C486.7,90.1,460.6,96.5,434.4,101z"/>
	<path id="XMLID_123_" class="st10" d="M593.8,45.8c3.7,3.1,7.4,6.2,11.2,9.2c6.6,5.3,13.3,10.6,20.1,15.8c-0.7-8.5-1.6-17-2.6-25.4
		c-0.6-4.8-1.2-9.6-1.8-14.4C611.8,36.1,602.8,41.1,593.8,45.8z"/>
	<path id="XMLID_122_" class="st11" d="M563.5,60.2c3.5,3.3,7,6.6,10.6,9.9c6.2,5.7,12.6,11.4,19.1,17c-0.2-8.5-0.6-17-1.1-25.5
		c-0.3-4.8-0.6-9.6-1-14.4C582,51.8,572.8,56.1,563.5,60.2z"/>
	<path id="XMLID_121_" class="st12" d="M532.5,72.8c3.3,3.5,6.6,7,9.9,10.5c5.9,6.1,11.9,12.2,18,18.1c0.3-8.5,0.4-17,0.4-25.5
		c0-4.8,0-9.7-0.1-14.5C551.4,65.5,542,69.3,532.5,72.8z"/>
	<path id="XMLID_119_" class="st10" d="M500.8,83.4c3,3.7,6.1,7.4,9.3,11.1c5.5,6.5,11.1,12.9,16.8,19.2c0.8-8.5,1.4-17,2-25.4
		c0.3-4.8,0.5-9.6,0.8-14.4C520.1,77.3,510.5,80.5,500.8,83.4z"/>
	<path id="XMLID_118_" class="st11" d="M468.7,92.1c2.8,3.9,5.7,7.8,8.6,11.6c5.1,6.8,10.3,13.5,15.6,20.2
		c1.3-8.4,2.5-16.8,3.5-25.3c0.6-4.8,1.1-9.6,1.6-14.4C488.3,87.2,478.5,89.8,468.7,92.1z"/>
	<path id="XMLID_116_" class="st12" d="M436.1,98.8c2.6,4.1,5.2,8.1,7.8,12.1c4.7,7.1,9.4,14.1,14.4,21.1c1.8-8.3,3.5-16.7,5-25
		c0.9-4.7,1.7-9.5,2.5-14.2C455.9,95.1,446.1,97.1,436.1,98.8z"/>
	<path id="XMLID_115_" class="st10" d="M403.2,103.6c2.3,4.2,4.7,8.4,7.1,12.6c4.2,7.3,8.6,14.6,13.1,21.9
		c2.3-8.2,4.5-16.4,6.5-24.7c1.2-4.7,2.3-9.4,3.3-14.1C423.2,101,413.2,102.4,403.2,103.6z"/>
	<path id="XMLID_114_" class="st11" d="M370,106.3c2.1,4.3,4.2,8.7,6.3,13c3.8,7.6,7.7,15.1,11.7,22.6c2.8-8.1,5.5-16.1,8-24.2
		c1.4-4.6,2.8-9.2,4.2-13.8C390.2,105,380.1,105.8,370,106.3z"/>
	<path id="XMLID_112_" class="st12" d="M336.7,107.1c1.8,4.5,3.6,8.9,5.5,13.4c3.3,7.8,6.8,15.6,10.4,23.3
		c3.3-7.9,6.4-15.8,9.4-23.7c1.7-4.5,3.4-9,5-13.6C356.9,107,346.8,107.2,336.7,107.1z"/>
	<path id="XMLID_111_" class="st10" d="M308,119.5c2.9,8,5.8,16,9,23.9c3.8-7.7,7.4-15.4,10.9-23.1c2-4.4,3.9-8.8,5.8-13.2
		c-10.1-0.1-20.3-0.6-30.4-1.2C304.8,110.4,306.4,114.9,308,119.5"/>
	<path id="XMLID_110_" class="st11" d="M269.8,102.5c1.3,4.6,2.6,9.3,3.9,13.9c1.2-0.5,2.4-1,3.6-1.3c-1.3,0.3-2.5,0.7-3.6,1.3
		c2.4,8.1,4.9,16.3,7.5,24.4c4.2-7.4,8.3-14.9,12.3-22.4c-2.7-2-6-3.4-9.6-3.7c-1.8-0.2-3.6-0.1-5.3,0.2c1.7-0.3,3.5-0.4,5.3-0.2
		c3.6,0.4,6.9,1.7,9.6,3.7c2.3-4.3,4.5-8.6,6.6-12.9C290.1,104.8,280,103.8,269.8,102.5z"/>
	<path id="XMLID_108_" class="st12" d="M236.6,97.1c1,4.7,2,9.4,3.1,14.2c1.9,8.3,3.9,16.6,6.1,24.8c4.7-7.1,9.3-14.3,13.7-21.6
		c-0.6-0.5-1.3-1-1.9-1.4c0.7,0.4,1.3,0.9,1.9,1.4c2.5-4.1,5-8.3,7.4-12.4C256.7,100.7,246.6,99,236.6,97.1z"/>
</g>
<g>
	<path class="st13" d="M157.5,140.7v262.7h159.1V140.7C316.6,140.7,240.3,58.1,157.5,140.7z"/>
	<path class="st14" d="M173.1,155.7v227.4h128.7V155.7C301.7,155.7,240,99.5,173.1,155.7z"/>
	<path class="st15" d="M152.1,135.8c0,0,75.3-69.3,168.2,0"/>
	<path class="st16" d="M320.3,416.1H154.1c-3.6,0-6.4-2.9-6.4-6.4v-2.1c0-3.6,2.9-6.4,6.4-6.4h166.1c3.6,0,6.4,2.9,6.4,6.4v2.1
		C326.7,413.2,323.8,416.1,320.3,416.1z"/>
	<rect x="168.6" y="181.6" class="st17" width="8.3" height="22.1"/>
	<path class="st17" d="M266.3,339.5h-59.6c-0.7,0-1.2-0.6-1.2-1.2v-1c0-0.7,0.6-1.2,1.2-1.2h59.6c0.7,0,1.2,0.6,1.2,1.2v1
		C267.5,338.9,267,339.5,266.3,339.5z"/>
	<path class="st17" d="M266.3,348.8h-59.6c-0.7,0-1.2-0.6-1.2-1.2v-1c0-0.7,0.6-1.2,1.2-1.2h59.6c0.7,0,1.2,0.6,1.2,1.2v1
		C267.5,348.2,267,348.8,266.3,348.8z"/>
	<path class="st17" d="M266.3,358.1h-59.6c-0.7,0-1.2-0.6-1.2-1.2v-1c0-0.7,0.6-1.2,1.2-1.2h59.6c0.7,0,1.2,0.6,1.2,1.2v1
		C267.5,357.6,267,358.1,266.3,358.1z"/>
	<rect x="168.6" y="340.1" class="st17" width="8.3" height="22.1"/>
	<polyline class="st18" points="283.1,246.7 286.1,249.7 286.1,263.8 283.5,266.4 	"/>
	<g>
		<path class="st7" d="M226.1,200h22c4,0,7.3-3.3,7.3-7.3v-22c0-4-3.3-7.3-7.3-7.3h-22c-4,0-7.3,3.3-7.3,7.3v22
			C218.8,196.7,222.1,200,226.1,200L226.1,200z M244.1,170c0.4-0.4,0.8-0.6,1.4-0.6c0.5,0,1,0.2,1.4,0.6c0.4,0.4,0.6,0.8,0.6,1.4
			c0,0.6-0.2,1-0.6,1.4c-0.4,0.4-0.8,0.5-1.4,0.5c-0.5,0-1-0.2-1.4-0.5c-0.4-0.4-0.5-0.8-0.5-1.4C243.6,170.8,243.8,170.4,244.1,170
			L244.1,170z M240.9,176.2c0-0.7,0.3-1.2,0.7-1.7c0.5-0.5,1.1-0.7,1.7-0.7h4.3c0.7,0,1.3,0.3,1.7,0.7c0.5,0.5,0.7,1.1,0.7,1.7v6
			c0,0.2-0.1,0.4-0.2,0.6c-0.2,0.2-0.3,0.2-0.6,0.2c-0.2,0-0.4-0.1-0.6-0.2c-0.2-0.2-0.2-0.4-0.2-0.6v-5.4H248v14.9
			c0,0.3-0.1,0.6-0.3,0.8c-0.2,0.2-0.5,0.3-0.8,0.3c-0.3,0-0.6-0.1-0.8-0.3c-0.2-0.2-0.3-0.5-0.3-0.8v-8.6h-0.5v8.6
			c0,0.3-0.1,0.6-0.3,0.8c-0.2,0.2-0.5,0.3-0.8,0.3c-0.3,0-0.6-0.1-0.8-0.3c-0.2-0.2-0.4-0.5-0.4-0.8v-14.9h-0.4v5.4
			c0,0.2-0.1,0.4-0.2,0.6c-0.2,0.2-0.4,0.2-0.6,0.2c-0.2,0-0.4-0.1-0.6-0.2c-0.2-0.2-0.3-0.4-0.3-0.6V176.2z M236.9,167.9h1.9v27.5
			h-1.9V167.9z M228.1,170c0.4-0.4,0.9-0.6,1.4-0.6c0.5,0,1,0.2,1.3,0.6c0.4,0.4,0.5,0.8,0.5,1.4c0,0.6-0.2,1-0.5,1.4
			c-0.4,0.4-0.8,0.5-1.3,0.5c-0.6,0-1-0.2-1.4-0.5c-0.4-0.4-0.6-0.8-0.6-1.4C227.6,170.8,227.8,170.4,228.1,170L228.1,170z
			 M224.1,181.2c0-0.1,0.1-0.3,0.2-0.7c0.1-0.4,0.2-0.8,0.4-1.4c0.2-0.5,0.3-1.1,0.5-1.8c0.2-0.6,0.4-1.3,0.6-1.8
			c0.1-0.5,0.4-0.9,0.8-1.2c0.4-0.4,0.9-0.5,1.3-0.5h3.1c0.5,0,0.9,0.2,1.3,0.5c0.4,0.4,0.7,0.8,0.9,1.2c0.2,0.6,0.4,1.2,0.5,1.8
			c0.2,0.6,0.4,1.2,0.5,1.8c0.2,0.5,0.3,1,0.4,1.4c0.1,0.4,0.2,0.6,0.2,0.7l0,0.2c0,0.4-0.2,0.6-0.5,0.7l-0.2,0.1
			c-0.4,0-0.6-0.2-0.8-0.6c0-0.1-0.1-0.5-0.3-1.1c-0.2-0.6-0.3-1.2-0.5-1.8c-0.2-0.6-0.4-1.4-0.7-2.4h-0.4l2.6,8.8h-2.5v6.7
			c0,0.3-0.1,0.5-0.3,0.6c-0.2,0.2-0.4,0.3-0.6,0.3c-0.3,0-0.5-0.1-0.7-0.3c-0.2-0.2-0.2-0.4-0.2-0.6v-6.7h-0.5v6.7
			c0,0.3-0.1,0.5-0.2,0.6c-0.2,0.2-0.4,0.3-0.6,0.3c-0.3,0-0.5-0.1-0.7-0.3c-0.2-0.2-0.3-0.4-0.3-0.6v-6.7H225l2.6-8.8h-0.4
			c-0.3,1-0.5,1.8-0.7,2.4c-0.2,0.6-0.4,1.2-0.5,1.8c-0.2,0.6-0.3,0.9-0.3,1.1c-0.1,0.4-0.4,0.6-0.8,0.6l-0.2-0.1
			c-0.4-0.1-0.5-0.4-0.5-0.7C224.1,181.4,224.1,181.3,224.1,181.2L224.1,181.2z M224.1,181.2"/>
	</g>
</g>
<g>
	<g>
		<path class="st19" d="M500.8,52.8c-3,5.8-6.1,11.6-8.9,17.5c-2.5,5.4-4.7,11.3-4.8,17.3c-0.1,6,2.3,11.3,5.1,16.5
			c3,5.4,6.4,11,6.7,17.4c0.2,3.8-1.2,7.2-2.7,10.5c-1.4,3.2-3.1,6.4-4.8,9.5c-0.4,0.7,0.7,1.4,1.1,0.6c1.6-2.7,3-5.5,4.4-8.4
			c1.3-2.8,2.7-5.7,3.2-8.7c1-6-1.4-11.9-4.1-17c-2.8-5.3-6.2-10.4-7.1-16.4c-1-6.4,0.8-12.8,3.3-18.5c2.9-6.7,6.5-13.1,9.9-19.6
			C502.3,52.7,501.2,52.1,500.8,52.8L500.8,52.8z"/>
	</g>
</g>
<g>
	<g>
		<polygon class="st10" points="505.1,57.3 497.3,55.3 501.8,49 504.2,49.6 		"/>
	</g>
	<g>
		<path class="st10" d="M529.9,29.3c-2.9,11.3-16.3,25.5-27.5,22.6c-11.3-2.9-16.1-21.8-13.2-33.1c2.9-11.3,14.4-18,25.6-15.2
			C526,6.6,532.8,18.1,529.9,29.3z"/>
	</g>
	<g>
		<path class="st20" d="M521,6.5c2.1,4.3,2.7,9.4,1.4,14.4c-2.9,11.3-16.3,25.5-27.5,22.6c-1-0.3-2-0.7-3-1.2
			c2.4,4.8,5.9,8.5,10.4,9.7c11.3,2.9,24.6-11.3,27.5-22.6C532.2,20.4,528.4,11.3,521,6.5z"/>
	</g>
	<path class="st21" d="M507.1,20.2c-2.7,3.2-7.1,4.1-9.8,1.8c-2.7-2.2-2.6-6.7,0.1-9.9c2.7-3.2,7.1-4.1,9.8-1.8
		C509.8,12.5,509.8,17,507.1,20.2z"/>
</g>
<g>
	<g>
		<g>
			<path class="st22" d="M462.4,120.5c0.4,6.1,0.7,12.2,1.2,18.3c0.5,5.7,1.2,11.4,3.1,16.7c1.6,4.4,4.1,8.7,7.5,11.9
				c0.8,0.7,1.6,1.4,2.4,2c1,0.8,2.2,1.3,3.2,2.2c0.9,0.7,1.5,1.7,1.2,2.8c-0.3,1.1-1.2,2.1-1.8,3c-1.3,1.8-1.9,3.8-1.1,6
				c0.7,2,2.2,3.6,4.2,4.1c0.8,0.2,1.1-1,0.3-1.2c-1.9-0.5-3.3-2.3-3.6-4.2c-0.3-2.3,1.3-3.8,2.4-5.6c1-1.6,1.3-3.4,0.1-5
				c-1.3-1.7-3.5-2.6-5.1-3.9c-8.2-6.7-10.5-17.6-11.4-27.6c-0.6-6.5-0.9-13-1.3-19.5C463.6,119.7,462.3,119.7,462.4,120.5
				L462.4,120.5z"/>
		</g>
	</g>
	<g>
		<g>
			<polygon class="st23" points="467.4,123.4 459.4,123.9 461.7,116.5 464.3,116.3 			"/>
		</g>
		<g>
			<path class="st23" d="M482.5,89.2c0.7,11.6-7.7,29.2-19.3,29.9c-11.6,0.7-22-15.8-22.7-27.4c-0.7-11.6,8.2-21.6,19.8-22.3
				C471.8,68.7,481.8,77.6,482.5,89.2z"/>
		</g>
		<g class="st24">
			<path class="st23" d="M467,70.1c3.3,3.5,5.4,8.1,5.7,13.2c0.7,11.6-7.7,29.2-19.3,29.9c-1.1,0.1-2.1,0-3.2-0.2
				c3.7,3.8,8.2,6.3,12.9,6c11.6-0.7,20-18.3,19.3-29.9C481.9,79.9,475.5,72.4,467,70.1z"/>
		</g>
		<g>
			
				<ellipse transform="matrix(0.3771 -0.9262 0.9262 0.3771 202.8323 471.7409)" class="st25" cx="452.1" cy="85.1" rx="7.7" ry="6.3"/>
		</g>
	</g>
</g>
<g>
	<g>
		<g>
			<path class="st26" d="M515.2,137c-0.1,4.8-1.8,9.3-3.1,13.8c-1.3,4.3-2,8.6-1.8,13c0.2,4.2,1.2,8.3,2.9,12.2
				c1.7,3.9,4.3,7.1,6.8,10.5c1.3,1.8,2.6,3.7,3.3,5.8c0.4,1,0.7,2.1,0.7,3.1c0,0.9-0.3,2.4-1.5,2.4c-0.8,0-0.8,1.3,0,1.3
				c1.7,0,2.5-1.5,2.7-3c0.2-1.8-0.4-3.6-1.1-5.2c-1.7-4-4.8-7.2-7.2-10.8c-5.3-8-6.6-17.8-4.1-27c1.4-5.4,3.5-10.5,3.7-16.1
				C516.5,136.2,515.3,136.2,515.2,137L515.2,137z"/>
		</g>
	</g>
	<g>
		<g>
			<polygon class="st12" points="518.9,139.9 511.7,139 514.9,132.7 517.2,133 			"/>
		</g>
		<g>
			<path class="st12" d="M538.1,111.7c-1.3,10.5-11.8,24.9-22.3,23.6c-10.5-1.3-17.1-17.8-15.8-28.3c1.3-10.5,10.9-18,21.4-16.6
				C531.9,91.7,539.4,101.2,538.1,111.7z"/>
		</g>
		<g>
			<path class="st27" d="M527.4,92.1c2.4,3.7,3.5,8.1,2.9,12.8c-1.3,10.5-11.8,24.9-22.3,23.6c-1-0.1-1.9-0.4-2.8-0.7
				c2.7,4.1,6.3,7,10.5,7.6c10.5,1.3,21-13.1,22.3-23.6C539.1,103.4,534.6,95.6,527.4,92.1z"/>
		</g>
		<g>
			<path class="st28" d="M516.4,106.1c-2.1,3.2-5.9,4.5-8.6,2.8c-2.7-1.7-3.1-5.7-1.1-9c2.1-3.2,5.9-4.5,8.6-2.8
				C518,98.9,518.5,102.9,516.4,106.1z"/>
		</g>
	</g>
</g>
<g>
	<path class="st7" d="M520.1,216.4c1.5,1.9,5.6,14.1,19.2,15.7c5.1-10.4,10.9-29.3,10.9-29.3L520.1,216.4z"/>
	<path class="st29" d="M542.4,209.8c1.9,0,3.4-1.5,3.4-3.4c0-0.5-0.1-1-0.3-1.4l-6.2,2.8C539.8,209,541,209.8,542.4,209.8z"/>
	<path class="st29" d="M545.6,212.6c-2.5,0-4.6,2-4.6,4.6c0,1.9,1.1,3.5,2.8,4.2c1.1-2.9,2.2-5.9,3.1-8.6
		C546.5,212.7,546.1,212.6,545.6,212.6z"/>
	<path class="st29" d="M529.6,213.1c0,1.9,1.6,3.5,3.5,3.5c1.9,0,3.5-1.6,3.5-3.5c0-1.4-0.8-2.6-2-3.2l-4.7,2.1
		C529.6,212.4,529.6,212.7,529.6,213.1z"/>
	<path class="st29" d="M525.2,219.2c-1.1,0-2.1,0.3-3,0.9c1.5,2.6,3.9,6,7.6,8.6c0.8-1,1.2-2.2,1.2-3.6
		C531,221.8,528.4,219.2,525.2,219.2z"/>
	<path class="st29" d="M539.3,232.1c0.6-1.2,1.2-2.5,1.8-3.9c-0.6-0.3-1.4-0.5-2.1-0.5c-2.1,0-3.9,1.4-4.4,3.4
		C536,231.5,537.6,231.9,539.3,232.1z"/>
</g>
<circle class="st30" cx="501.1" cy="232.5" r="8.7"/>
<circle class="st30" cx="508.5" cy="227.7" r="8.7"/>
<ellipse transform="matrix(0.6569 -0.754 0.754 0.6569 8.7935 467.3704)" class="st30" cx="517.9" cy="224" rx="8.7" ry="8.7"/>
<circle class="st30" cx="526.5" cy="226.5" r="8.7"/>
<circle class="st30" cx="533.9" cy="234.4" r="8.7"/>
<ellipse transform="matrix(0.987 -0.1609 0.1609 0.987 -32.8529 89.2556)" class="st30" cx="534.8" cy="247.5" rx="8.7" ry="8.7"/>
<circle class="st30" cx="527.1" cy="256" r="8.7"/>
<circle class="st30" cx="520" cy="261.2" r="8.7"/>
<circle class="st30" cx="511.3" cy="260.1" r="8.7"/>
<ellipse transform="matrix(0.7071 -0.7071 0.7071 0.7071 -32.3287 431.239)" class="st30" cx="504.4" cy="254.6" rx="8.7" ry="8.7"/>
<circle class="st30" cx="500.7" cy="242.6" r="8.7"/>
<ellipse class="st30" cx="516.6" cy="240.6" rx="20.9" ry="18.7"/>
<path class="st31" d="M517.3,254.6l-4.2,0.1c0,0-5.8-14.8-10.3-13.5c-1.5,5.4-6.1,9.3-6.1,9.3c-0.7,1.3-1.1,2.7-1.1,4.2
	c0,4.4,3.3,8.1,7.5,8.7c1.3,3.3,4.4,5.6,8.2,5.6c1.2,0,2.4-0.3,3.4-0.7c1.5,1.1,3.2,1.7,5.2,1.7c3.6,0,6.7-2.2,8-5.2
	c4.3-0.4,7.7-4,7.8-8.5C529,262.7,517.3,254.6,517.3,254.6z"/>
<path class="st32" d="M486.6,312.4l16.3,10c-2.1,3.7-22.7,48-23.6,50c5.2,26,5,56.3,5,56.3l-4.9,1.3l-14.9-51.6
	c-1.3-4.4-1-9.1,0.7-13.3L486.6,312.4z"/>
<path class="st33" d="M498.9,273.7c-0.4,0-0.8,0-1.1-0.1c-0.2-0.1-0.4-0.1-0.3-0.1l-0.1,0l-0.2-0.1l-0.1-0.1l-0.3-0.1l-0.3-0.2
	l-0.5-0.3l-0.9-0.5l-1.6-1c-1.1-0.7-2.1-1.4-3.1-2c-2.1-1.4-4.1-2.8-6.1-4.4c-2-1.5-4-3.1-5.9-5c-0.5-0.5-1-1-1.5-1.6
	c-0.5-0.6-1-1.2-1.5-2c-0.3-0.5-0.4-0.8-0.6-1.1c-0.2-0.4-0.3-0.7-0.5-1.1c-0.3-0.7-0.5-1.4-0.7-2.1c-0.8-2.7-1.1-5.4-1.3-8
	c-0.2-2.6-0.1-5.1,0-7.6c0.1-2.5,0.3-5,0.6-7.5c0.3-2.5,0.6-4.9,1.1-7.4c0.3-1.8,2-3,3.8-2.7c1.7,0.3,2.9,1.9,2.7,3.7l0,0.1
	c-0.3,2.2-0.5,4.6-0.7,7c-0.2,2.3-0.3,4.7-0.3,7c0,2.3,0.1,4.6,0.3,6.9c0.2,2.2,0.6,4.4,1.2,6.3c0.2,0.5,0.3,0.9,0.5,1.3
	c0.1,0.2,0.2,0.4,0.3,0.6c0.1,0.2,0.2,0.4,0.3,0.5c0.2,0.2,0.4,0.5,0.7,0.9c0.3,0.3,0.7,0.7,1.1,1c1.6,1.4,3.5,2.7,5.4,4
	c1.9,1.3,3.9,2.5,5.9,3.7c1,0.6,2,1.2,3,1.7l1.5,0.8l0.7,0.4l0.3,0.1c0,0,0.1,0,0.1,0c0,0,0,0-0.1,0l-0.1,0l-0.2-0.1l-0.1,0
	c0,0-0.1,0-0.3-0.1c-0.4-0.1-0.7-0.1-1.1-0.1c2.6,0,4.7,2,4.7,4.6C503.5,271.6,501.5,273.7,498.9,273.7z"/>
<path class="st34" d="M497.6,268.9c-0.2,0.1-4.5,14.8-4.3,17.1c0.2,2,2,6.1,3.1,8.4c0.8-2.5,1.7-5,2.4-7.5l2-6.6c0-0.5,0-1-0.1-1.5
	C500.5,271.4,497.8,268.9,497.6,268.9z"/>
<path class="st35" d="M490.9,288.7c0.1,1.9-2.8,17.8-5,26.8l23.7,4.1c-0.3-0.6-2.2-11.5-0.9-13.9c3.6-6.6,10.8-20.1,11.5-21.5
	c0.9-1.9,2.1-12.4,1.7-12.9c-0.4-0.5-7.6-5.1-8.3-5.1c-0.7-0.1-7.3-3.1-7.3-3.1l-3.4,2.1c-0.3,0-2.5-1.1-4.2-0.3
	c0,0.1-0.1,0.2-0.2,0.4c-2.6,2.4-9.1,12.4-9.4,12.7C488.3,278.8,487.3,284.7,490.9,288.7z"/>
<path class="st36" d="M515.9,292.1c0-0.4-1.6-15.2-1.4-15.5c0.1-0.3,0.5-0.8,2-0.7c1.5,0.1,2.7,2.5,2.7,2.5s0.5,4.6,0.5,4.9
	s-0.6,2.9-0.6,2.9L515.9,292.1z"/>
<path class="st36" d="M490.9,288.7l14.7,1.5c0,0-7-1.7-11.3-3.1c-2.5-0.8-4.6-2.8-6-4.4C488.6,284.7,489.2,286.9,490.9,288.7z"/>
<path class="st32" d="M488.3,303.2c0.9,0.3,17.3,3.3,20.6,2.5c-0.4,2.3,0.7,9.6,1.9,11.3c1.2,1.7,1.1,2.1,1.1,2.1l-26.3-3.9
	L488.3,303.2z"/>
<path class="st37" d="M508.9,307.9c0-0.9,0-1.7,0.1-2.3c-3.3,0.8-19.7-2.2-20.6-2.5l-0.6,2.6C492.9,306.5,503.7,307.9,508.9,307.9z"
	/>
<path class="st33" d="M502.9,265.1L502.9,265.1l12.9,2.3c0-0.1,0-0.1,0.1-0.1c-3.5-3.6,3.6-16.8,3.8-18.1c0,0-11.3,0.6-14.7,3.1
	C510.5,261.4,502.9,265.1,502.9,265.1z"/>
<path class="st33" d="M502.9,265.1L502.9,265.1l12.9,2.3c0-0.1,0-0.1,0.1-0.1c-3.5-3.6,3.6-16.8,3.8-18.1c0,0-11.3,0.6-14.7,3.1
	C510.5,261.4,502.9,265.1,502.9,265.1z"/>
<path class="st34" d="M505.1,252.2c2,3.4,2.5,6.6,1.2,9.4c5.1-1.7,11.6-5.6,13.7-8.7c0.8-1.8-0.4-3.4-0.3-3.8
	C519.7,249.1,508.4,249.8,505.1,252.2z"/>
<path class="st33" d="M521.3,250.6c1.1-2.6,1.6-5.4,2.7-7.9c0.1-0.3-0.8-6.1-1.5-10.7c-0.5-3.4-3.6-5.7-6.9-5.5
	c-2.6,0.2-5.2,0.5-6.2,1.1c-0.7,0.4-1.4,1-2,1.5c-1.6,1.3-2.7,3.1-3.2,5.1c-1.4,5.6-3.9,16.7,1.3,22.3
	C512.9,256.7,519.4,255.1,521.3,250.6L521.3,250.6z"/>
<path class="st30" d="M512.4,232.4c1.7,0.6,7.9-6.5,7.9-6.7c0-0.3-7.9-7.3-13.4-3.3s-4.2,18.8-4.2,18.8S505.2,230,512.4,232.4z"/>
<path class="st30" d="M511.4,231.2c3.9,1.6,9.9-0.1,11.2,11.6c1.7,4.4-2.4,9.8-2.4,9.8s19.4-9,14.9-22.6
	c-4.6-13.6-25.6-8.8-25.6-8.8L511.4,231.2z"/>
<ellipse transform="matrix(0.6395 -0.7688 0.7688 0.6395 3.9424 447.3256)" class="st33" cx="479" cy="219.5" rx="7.3" ry="4.3"/>
<path class="st33" d="M520.1,245.7c0,0,1-1.5,2.6-1.6c1.6-0.1,2.2,2.6,1.6,4.2c-0.6,1.5-5.7,3.5-7,2.4
	C516.8,248.9,520,245.6,520.1,245.7z"/>
<path class="st32" d="M493.1,374.2l2.2-57.4l12.7-4.7c0.7,1.4,6.2,9,7,16.1c0.7,6.5-7.2,38-9.5,47.1
	C501.3,374.7,497.2,374.6,493.1,374.2z"/>
<path class="st32" d="M493.7,315.9c-5.1,0-7.1-3.5-7.1-3.5l-3,7.7c1.3,1.1,4.6,1.2,4.7,2.8c0.7,0.1,1.7,0,2.9-0.4
	c6.9-1.8,13.1-2.3,13.1-2.3s0.7-2.2,1.3-3.6c0.6-1.4,2.4-4.3,2.4-4.3S498.8,315.9,493.7,315.9z"/>
<path d="M472.1,431.8c-0.7,0-0.9-1-0.2-1.2c2.1-0.9,4.5-2,5.6-2.2c1.8-0.2,7-0.2,7-0.2s0.6,3.9,0.2,3.9
	C484.5,432.1,476.7,431.9,472.1,431.8z"/>
<path d="M510.4,432.9c-0.7,0-0.9-1-0.2-1.2c2.1-0.9,4.5-2,5.6-2.2c1.8-0.2,7-0.2,7-0.2s0.6,3.9,0.2,3.9
	C522.8,433.2,515,433,510.4,432.9z"/>
<path class="st32" d="M507.4,317.1L507.4,317.1c4.6,1.2,7.4,5.8,6.4,10.4c-3.2,14.9-9.2,44.2-9.5,45.9
	c11.1,24.1,18.5,56.1,18.5,56.1l-5.1,0l-26.4-46.8c-2.2-4-3.1-8.6-2.4-13.1l7.2-45C496.9,319.2,502.2,315.7,507.4,317.1z"/>
<path class="st37" d="M509.3,323.9c1.6,0,3-0.7,4-1.7c-1.6-4-3.8-7.5-4.9-9.2c-2.6,0.4-4.6,2.7-4.6,5.4
	C503.9,321.4,506.3,323.9,509.3,323.9z"/>
<path class="st37" d="M493.7,341.8c-0.4-3.3,1.7-14.6,1.7-14.6l-4.5-5.2c0,0,3.4,3.9,3.1,5.8C493.2,332.9,493.7,341.8,493.7,341.8z"
	/>
<path class="st30" d="M511.4,228.7c0,0-1,12.2,16.6,17.2c7.5-5.4,1-12.1,1-12.1l-5.8-4.7c0,0-10.9-3.4-11.2-3.3
	C511.7,225.9,511.4,228.7,511.4,228.7z"/>
<path class="st30" d="M516.8,232.1c-1.3,0.6-11.1,4.7-14,9c0.7-7.8,0.4-9.5,2.5-11.1c2.2-1.6,7.7-3.1,7.7-3.1l3.5,0.8L516.8,232.1z"
	/>
<path class="st33" d="M501.5,311.6c0.3-1.6,1.8-2.7,3.4-2.4s2.7,1.8,2.4,3.4c-0.3,1.6-1.8,2.7-3.4,2.4S501.2,313.2,501.5,311.6z"/>
<path class="st33" d="M523.6,274.6c0-0.1,0-0.2-0.1-0.4c0-0.1,0-0.1-0.1-0.2c0,0,0,0,0,0l0,0l0.1,0.4l0.3,0.8l0.6,1.6l1.1,3.2
	l2.3,6.5c0.8,2.2,1.5,4.4,2.2,6.6c0.7,2.2,1.4,4.4,2.1,6.8c0.2,0.6,0.3,1.2,0.5,1.9c0,0.1,0.1,0.6,0.2,0.9c0,0.4,0,0.8,0,1.2
	c-0.1,0.8-0.3,1.5-0.5,2c-0.5,1.2-1.1,1.9-1.7,2.5c-0.6,0.6-1.2,1.1-1.8,1.5c-2.3,1.7-4.5,2.7-6.8,3.7c-2.2,0.9-4.5,1.7-6.7,2.5
	c-2.3,0.7-4.5,1.4-6.8,2c-1.8,0.5-3.5-0.6-4-2.4c-0.4-1.7,0.5-3.4,2.2-3.9l0.1,0c4.2-1.3,8.4-2.9,12.3-4.7c1.9-0.9,3.8-2,5.1-3.1
	c0.3-0.3,0.6-0.5,0.8-0.8c0.2-0.2,0.3-0.4,0.2-0.3c0,0-0.1,0.2-0.1,0.4c0,0.1,0,0.2,0,0.3c0,0.1,0.1,0.3,0,0.1
	c-0.1-0.5-0.3-0.9-0.4-1.4c-0.7-2-1.5-4.1-2.3-6.3c-0.8-2.1-1.7-4.2-2.5-6.3l-2.6-6.3l-1.3-3.2l-0.7-1.6l-0.3-0.8l-0.2-0.4l-0.1-0.2
	l-0.1-0.4c-0.1-0.3-0.1-0.5-0.2-0.8c-0.4-2.5,1.4-4.9,3.9-5.3C520.9,270.3,523.3,272,523.6,274.6z"/>
<g>
	<path class="st38" d="M504.6,307.5c1.5-0.4,3.8-2.7,4.4-5.9c0.5-3.1-1.3-10.6-1.4-11.1l-4.3-0.1v0l0,0l0,0v0l-4.3,0
		c-0.1,0.5-2,7.9-1.5,11.1c0.5,3.1,2.8,5.5,4.3,5.9c0.6,0.5,1.1,1,1,2.9c0,1.8,0.4,8.1-1,9.2c-1.3,1.1-3.8,1-4,1
		c-0.2,0,0.5,0.8,5.3,0.8v0c0,0,0,0,0,0c0,0,0,0,0,0l0,0c4.8,0,5.5-0.8,5.3-0.8c-0.2,0-2.7,0.1-4-1c-1.3-1.1-0.9-7.4-0.9-9.2
		C503.5,308.5,503.9,308,504.6,307.5z"/>
	<path class="st39" d="M497.6,298.3c-0.2,1.4-0.3,2.9-0.3,3.2c0.5,3.1,2.8,5.5,4.3,5.9c0.6,0.5,1,1,1,2.5c0.2,0,0.5-0.1,0.8-0.1
		c0.1-1.5,0.5-1.9,1.1-2.4c1.5-0.4,3.8-2.7,4.4-5.9c0.1-0.8,0.1-2,0-3.2L497.6,298.3z"/>
	<path class="st40" d="M507.8,291.8c0.6,2.9,1.4,9.8-3.3,11.8c-3.6,1.5-5.9-1.7-7.2-4.6c-0.1,1-0.1,1.9,0,2.5
		c0.5,3.1,2.8,5.5,4.3,5.9c0.6,0.5,1,1,1,2.8l0.8-0.2c0.1-1.6,0.5-2.1,1.1-2.6c1.5-0.4,3.8-2.7,4.4-5.9
		C509.3,299.2,508.4,294.2,507.8,291.8z"/>
	<g>
		<polygon class="st41" points="503.2,290.5 503.2,290.5 503.2,290.5 503.2,290.5 503.2,290.5 498.9,290.5 507.5,290.5 		"/>
		<path class="st41" d="M504.6,307.5c1.5-0.4,3.8-2.7,4.4-5.9c0.5-3.1-1.3-10.6-1.4-11.1c0.1,0.5,1.5,8.2,0.9,11.2
			c-0.6,2.8-2.7,4.8-4,5.1c-1.2,0.5-2.5,0-2.5,0c-1.3-0.4-3.4-2.4-4-5.2c-0.6-3,0.9-10.7,1-11.2c-0.1,0.5-2,7.9-1.5,11.1
			c0.5,3.1,2.8,5.5,4.3,5.9c0.6,0.5,1.1,1,1,2.9c0,1.8,0.4,8.1-1,9.2c-1.3,1.1-3.8,1-4,1c-0.2,0,0.5,0.8,5.3,0.8v0c0,0,0,0,0,0
			c0,0,0,0,0,0l0,0c4.8,0,5.5-0.8,5.3-0.8c-0.2,0-2.7,0.1-4-1c-1.3-1.1-0.9-7.4-0.9-9.2C503.5,308.5,503.9,308,504.6,307.5z"/>
	</g>
</g>
<path class="st33" d="M508.2,311.3c0,0-3.9,0.3-5.6,0c-1.8-0.3-3.6-0.8-3.8,1.6c-0.3,2.4-0.9,4.2,0.3,5.1c1.3,0.9,9.1,0.5,9.9-0.3
	c0.8-0.8,1.6-4.2,1.6-4.2L508.2,311.3z"/>
<path class="st33" d="M502.7,265.2l0.3,3.7c0.1,1.5,1.6,2.5,3,2l9.9-3.5c0,0-3.4-1.5-4.8-1.7c-1.5-0.2-4.3-0.7-4.3-0.7L502.7,265.2z
	"/>
<path class="st35" d="M508.5,311.3l1.4,6.1c0,0.1,0.1,0.1,0.1,0.2c0.5-0.1,1-0.3,1.4-0.4c0-0.1,0-0.1,0-0.2l-1.4-6.1
	c0-0.1-0.1-0.2-0.1-0.3c-0.5,0.2-0.9,0.3-1.4,0.5C508.5,311.2,508.5,311.3,508.5,311.3z"/>
<g>
	<path class="st37" d="M483.4,428.9c-0.2,0-0.3-0.1-0.3-0.3l-0.2-1.3c0-0.2,0.1-0.3,0.3-0.4c0.2,0,0.3,0.1,0.4,0.3l0.2,1.3
		C483.7,428.7,483.6,428.9,483.4,428.9C483.4,428.9,483.4,428.9,483.4,428.9z"/>
	<path class="st37" d="M482.8,425.1c-0.2,0-0.3-0.1-0.3-0.3l-0.4-2.6c0-0.2,0.1-0.3,0.3-0.4c0.2,0,0.3,0.1,0.4,0.3l0.4,2.6
		C483.1,424.9,483,425.1,482.8,425.1C482.8,425.1,482.8,425.1,482.8,425.1z M482,420c-0.2,0-0.3-0.1-0.3-0.3l-0.4-2.6
		c0-0.2,0.1-0.3,0.3-0.4c0.2,0,0.3,0.1,0.4,0.3l0.4,2.6C482.3,419.8,482.2,420,482,420C482,420,482,420,482,420z M481.2,414.9
		c-0.2,0-0.3-0.1-0.3-0.3l-0.4-2.6c0-0.2,0.1-0.3,0.3-0.4c0.2,0,0.3,0.1,0.4,0.3l0.4,2.6C481.5,414.7,481.4,414.8,481.2,414.9
		C481.2,414.9,481.2,414.9,481.2,414.9z M480.4,409.7c-0.2,0-0.3-0.1-0.3-0.3l-0.4-2.6c0-0.2,0.1-0.3,0.3-0.4c0.2,0,0.3,0.1,0.4,0.3
		l0.4,2.6C480.7,409.6,480.6,409.7,480.4,409.7C480.4,409.7,480.4,409.7,480.4,409.7z M479.6,404.6c-0.2,0-0.3-0.1-0.3-0.3l-0.4-2.6
		c0-0.2,0.1-0.3,0.3-0.4c0.2,0,0.3,0.1,0.4,0.3l0.4,2.6C479.9,404.4,479.8,404.6,479.6,404.6C479.6,404.6,479.6,404.6,479.6,404.6z
		 M478.8,399.5c-0.2,0-0.3-0.1-0.3-0.3l-0.4-2.6c0-0.2,0.1-0.3,0.3-0.4c0.2,0,0.3,0.1,0.4,0.3l0.4,2.6
		C479.1,399.3,479,399.5,478.8,399.5C478.8,399.5,478.8,399.5,478.8,399.5z M478,394.4c-0.2,0-0.3-0.1-0.3-0.3l-0.4-2.6
		c0-0.2,0.1-0.3,0.3-0.4c0.2,0,0.3,0.1,0.4,0.3l0.4,2.6C478.4,394.2,478.2,394.4,478,394.4C478,394.4,478,394.4,478,394.4z
		 M477.2,389.3c-0.2,0-0.3-0.1-0.3-0.3l-0.4-2.6c0-0.2,0.1-0.3,0.3-0.4c0.2,0,0.3,0.1,0.4,0.3l0.4,2.6
		C477.6,389.1,477.4,389.2,477.2,389.3C477.3,389.3,477.2,389.3,477.2,389.3z M476.4,384.2c-0.2,0-0.3-0.1-0.3-0.3l-0.4-2.6
		c0-0.2,0.1-0.3,0.3-0.4c0.2,0,0.3,0.1,0.4,0.3l0.4,2.6C476.8,384,476.7,384.1,476.4,384.2C476.5,384.2,476.5,384.2,476.4,384.2z
		 M475.7,379c-0.2,0-0.3-0.1-0.3-0.3c-0.1-0.9-0.3-1.8-0.4-2.6c0-0.2,0.1-0.3,0.3-0.4c0.2,0,0.3,0.1,0.4,0.3
		c0.1,0.8,0.2,1.6,0.4,2.6C476,378.8,475.9,379,475.7,379C475.7,379,475.7,379,475.7,379z M474.9,373.9c-0.2,0-0.3-0.1-0.3-0.3
		c-0.1-0.7-0.1-0.9-0.1-1c0-0.1,0.1-0.5,0.5-1.7c0.1-0.2,0.2-0.2,0.4-0.2c0.2,0.1,0.2,0.3,0.2,0.4c-0.4,1.1-0.5,1.4-0.5,1.4
		c0,0,0,0.2,0.1,0.9C475.3,373.7,475.2,373.9,474.9,373.9C475,373.9,475,373.9,474.9,373.9z M476.3,369c0,0-0.1,0-0.1,0
		c-0.2-0.1-0.2-0.3-0.2-0.4c0.3-0.7,0.6-1.5,1-2.4c0.1-0.2,0.3-0.2,0.4-0.2c0.2,0.1,0.2,0.3,0.2,0.4c-0.4,0.9-0.7,1.7-1,2.4
		C476.6,368.9,476.5,369,476.3,369z M478.4,364.2c0,0-0.1,0-0.1,0c-0.2-0.1-0.2-0.3-0.2-0.4c0.3-0.8,0.7-1.6,1-2.4
		c0.1-0.2,0.3-0.2,0.4-0.2c0.2,0.1,0.2,0.3,0.2,0.4c-0.4,0.8-0.7,1.6-1,2.4C478.6,364.2,478.5,364.2,478.4,364.2z M480.5,359.5
		c0,0-0.1,0-0.1,0c-0.2-0.1-0.2-0.3-0.2-0.4l1.1-2.4c0.1-0.2,0.3-0.2,0.4-0.2c0.2,0.1,0.2,0.3,0.2,0.4l-1.1,2.4
		C480.7,359.4,480.6,359.5,480.5,359.5z M482.6,354.8c0,0-0.1,0-0.1,0c-0.2-0.1-0.2-0.3-0.2-0.4l1.1-2.4c0.1-0.2,0.3-0.2,0.4-0.2
		c0.2,0.1,0.2,0.3,0.2,0.4l-1.1,2.4C482.9,354.7,482.7,354.8,482.6,354.8z M484.8,350.1c0,0-0.1,0-0.1,0c-0.2-0.1-0.2-0.3-0.2-0.4
		l1.1-2.4c0.1-0.2,0.3-0.2,0.4-0.2c0.2,0.1,0.2,0.3,0.2,0.4l-1.1,2.4C485,350,484.9,350.1,484.8,350.1z M486.9,345.3
		c0,0-0.1,0-0.1,0c-0.2-0.1-0.2-0.3-0.2-0.4l1.1-2.4c0.1-0.2,0.3-0.2,0.4-0.2c0.2,0.1,0.2,0.3,0.2,0.4l-1.1,2.4
		C487.1,345.3,487,345.3,486.9,345.3z M489.1,340.6c0,0-0.1,0-0.1,0c-0.2-0.1-0.2-0.3-0.2-0.4l1.1-2.4c0.1-0.2,0.3-0.2,0.4-0.2
		c0.2,0.1,0.2,0.3,0.2,0.4l-1.1,2.4C489.3,340.6,489.2,340.6,489.1,340.6z M491.2,335.9c0,0-0.1,0-0.1,0c-0.2-0.1-0.2-0.3-0.2-0.4
		l1.1-2.4c0.1-0.2,0.3-0.2,0.4-0.2c0.2,0.1,0.2,0.3,0.2,0.4l-1.1,2.4C491.5,335.9,491.3,335.9,491.2,335.9z"/>
	<path class="st37" d="M493.3,331.4c0,0-0.1,0-0.1,0c-0.2-0.1-0.2-0.3-0.2-0.4l0.5-1.2c0.1-0.2,0.3-0.2,0.4-0.2
		c0.2,0.1,0.2,0.3,0.2,0.4l-0.5,1.2C493.5,331.4,493.4,331.4,493.3,331.4z"/>
</g>
<g>
	<path class="st37" d="M520.4,430.4c-0.1,0-0.3-0.1-0.3-0.2l-0.5-1.2c-0.1-0.2,0-0.4,0.2-0.4c0.2-0.1,0.4,0,0.4,0.2l0.5,1.2
		c0.1,0.2,0,0.4-0.2,0.4C520.5,430.4,520.5,430.4,520.4,430.4z"/>
	<path class="st37" d="M519.1,426.8c-0.1,0-0.3-0.1-0.3-0.2l-0.9-2.4c-0.1-0.2,0-0.4,0.2-0.4c0.2-0.1,0.4,0,0.4,0.2l0.9,2.4
		c0.1,0.2,0,0.4-0.2,0.4C519.1,426.8,519.1,426.8,519.1,426.8z M517.2,421.9c-0.1,0-0.3-0.1-0.3-0.2l-0.9-2.4
		c-0.1-0.2,0-0.4,0.2-0.4c0.2-0.1,0.4,0,0.4,0.2l0.9,2.4c0.1,0.2,0,0.4-0.2,0.4C517.3,421.9,517.3,421.9,517.2,421.9z M515.4,417.1
		c-0.1,0-0.3-0.1-0.3-0.2l-0.9-2.4c-0.1-0.2,0-0.4,0.2-0.4c0.2-0.1,0.4,0,0.4,0.2l0.9,2.4c0.1,0.2,0,0.4-0.2,0.4
		C515.5,417.1,515.4,417.1,515.4,417.1z M513.5,412.2c-0.1,0-0.3-0.1-0.3-0.2l-0.9-2.4c-0.1-0.2,0-0.4,0.2-0.4
		c0.2-0.1,0.4,0,0.4,0.2l0.9,2.4c0.1,0.2,0,0.4-0.2,0.4C513.6,412.2,513.6,412.2,513.5,412.2z M511.7,407.4c-0.1,0-0.3-0.1-0.3-0.2
		l-0.9-2.4c-0.1-0.2,0-0.4,0.2-0.4c0.2-0.1,0.4,0,0.4,0.2l0.9,2.4c0.1,0.2,0,0.4-0.2,0.4C511.8,407.4,511.7,407.4,511.7,407.4z
		 M509.9,402.5c-0.1,0-0.3-0.1-0.3-0.2l-0.9-2.4c-0.1-0.2,0-0.4,0.2-0.4c0.2-0.1,0.4,0,0.4,0.2l0.9,2.4c0.1,0.2,0,0.4-0.2,0.4
		C510,402.5,509.9,402.5,509.9,402.5z M508.1,397.7c-0.1,0-0.3-0.1-0.3-0.2l-0.9-2.4c-0.1-0.2,0-0.4,0.2-0.4c0.2-0.1,0.4,0,0.4,0.2
		l0.9,2.4c0.1,0.2,0,0.4-0.2,0.4C508.1,397.7,508.1,397.7,508.1,397.7z M506.2,392.8c-0.1,0-0.3-0.1-0.3-0.2l-0.9-2.4
		c-0.1-0.2,0-0.4,0.2-0.4c0.2-0.1,0.4,0,0.4,0.2l0.9,2.4c0.1,0.2,0,0.4-0.2,0.4C506.3,392.8,506.3,392.8,506.2,392.8z M504.4,388
		c-0.1,0-0.3-0.1-0.3-0.2l-0.9-2.4c-0.1-0.2,0-0.3,0.2-0.4c0.2-0.1,0.4,0,0.4,0.2l0.9,2.4c0.1,0.2,0,0.4-0.2,0.4
		C504.5,388,504.4,388,504.4,388z M502.6,383.1c-0.1,0-0.3-0.1-0.3-0.2c-0.3-0.9-0.6-1.7-0.9-2.4c-0.1-0.2,0-0.4,0.2-0.4
		c0.2-0.1,0.4,0,0.4,0.2c0.3,0.7,0.6,1.5,0.9,2.4c0.1,0.2,0,0.4-0.2,0.4C502.7,383.1,502.6,383.1,502.6,383.1z M500.8,378.2
		c-0.1,0-0.3-0.1-0.3-0.2c-0.2-0.7-0.3-0.8-0.3-0.9c0,0,0-0.1,0-0.2c0-0.3,0.1-0.8,0.2-1.6c0-0.2,0.2-0.3,0.4-0.3
		c0.2,0,0.3,0.2,0.3,0.4c-0.2,1-0.2,1.4-0.2,1.5c0,0.1,0.1,0.2,0.3,0.9c0.1,0.2,0,0.3-0.2,0.4C500.9,378.2,500.9,378.2,500.8,378.2z
		 M501.2,373.1C501.2,373.1,501.2,373.1,501.2,373.1c-0.2,0-0.3-0.2-0.3-0.4c0.2-0.8,0.3-1.6,0.5-2.6c0-0.2,0.2-0.3,0.4-0.2
		c0.2,0,0.3,0.2,0.2,0.4c-0.2,0.9-0.4,1.8-0.5,2.5C501.5,373,501.4,373.1,501.2,373.1z M502.3,368C502.2,368,502.2,368,502.3,368
		c-0.2,0-0.4-0.2-0.3-0.4c0.2-0.8,0.4-1.7,0.5-2.5c0-0.2,0.2-0.3,0.4-0.2c0.2,0,0.3,0.2,0.2,0.4c-0.2,0.9-0.4,1.7-0.5,2.5
		C502.5,367.9,502.4,368,502.3,368z M503.4,362.9C503.3,362.9,503.3,362.9,503.4,362.9c-0.2,0-0.4-0.2-0.3-0.4l0.6-2.5
		c0-0.2,0.2-0.3,0.4-0.2c0.2,0,0.3,0.2,0.2,0.4l-0.6,2.5C503.6,362.8,503.5,362.9,503.4,362.9z M504.5,357.9
		C504.4,357.9,504.4,357.9,504.5,357.9c-0.2,0-0.4-0.2-0.3-0.4l0.6-2.5c0-0.2,0.2-0.3,0.4-0.2c0.2,0,0.3,0.2,0.2,0.4l-0.6,2.5
		C504.7,357.8,504.6,357.9,504.5,357.9z M505.6,352.8C505.6,352.8,505.5,352.8,505.6,352.8c-0.2,0-0.4-0.2-0.3-0.4l0.6-2.5
		c0-0.2,0.2-0.3,0.4-0.2c0.2,0,0.3,0.2,0.2,0.4l-0.6,2.5C505.9,352.7,505.7,352.8,505.6,352.8z M506.7,347.7
		C506.7,347.7,506.7,347.7,506.7,347.7c-0.2,0-0.4-0.2-0.3-0.4l0.6-2.5c0-0.2,0.2-0.3,0.4-0.2c0.2,0,0.3,0.2,0.2,0.4l-0.6,2.5
		C507,347.6,506.9,347.7,506.7,347.7z M507.9,342.7C507.8,342.7,507.8,342.7,507.9,342.7c-0.2,0-0.4-0.2-0.3-0.4l0.6-2.5
		c0-0.2,0.2-0.3,0.4-0.2c0.2,0,0.3,0.2,0.2,0.4l-0.6,2.5C508.1,342.6,508,342.7,507.9,342.7z M509,337.6
		C509,337.6,509,337.6,509,337.6c-0.2,0-0.4-0.2-0.3-0.4l0.6-2.5c0-0.2,0.2-0.3,0.4-0.2c0.2,0,0.3,0.2,0.2,0.4l-0.6,2.5
		C509.3,337.5,509.2,337.6,509,337.6z M510.2,332.5C510.2,332.5,510.1,332.5,510.2,332.5c-0.2,0-0.4-0.2-0.3-0.4l0.2-0.8
		c0,0,0,0,0-0.1c0.2-0.5,0.4-1,0.5-1.6c0-0.2,0.2-0.3,0.4-0.2c0.2,0,0.3,0.2,0.2,0.4c-0.2,0.6-0.3,1.2-0.6,1.7l-0.2,0.8
		C510.5,332.4,510.3,332.5,510.2,332.5z M511.3,327.5C511.3,327.5,511.3,327.5,511.3,327.5c-0.2,0-0.3-0.2-0.3-0.3
		c0-0.3,0-0.5,0-0.8c0-0.6,0-1.1-0.1-1.7c0-0.2,0.1-0.3,0.3-0.3c0.2,0,0.3,0.1,0.3,0.3c0.1,0.6,0.1,1.2,0.1,1.8c0,0.3,0,0.6,0,0.9
		C511.6,327.4,511.5,327.5,511.3,327.5z"/>
	<path class="st37" d="M510.9,322.6c-0.1,0-0.3-0.1-0.3-0.3c-0.1-0.4-0.2-0.8-0.3-1.2c0-0.2,0.1-0.3,0.2-0.4c0.2,0,0.3,0.1,0.4,0.2
		c0.1,0.4,0.2,0.9,0.3,1.3C511.3,322.4,511.1,322.6,510.9,322.6C510.9,322.6,510.9,322.6,510.9,322.6z"/>
</g>
<path class="st42" d="M358.8,235.2c0,0,14.2,32,14.4,32.8c0.2,0.8-4.8,8.3-8.1,9.3c-3.3,1-16.4-26.3-15.5-29.9
	C350.6,243.6,358.8,235.2,358.8,235.2z"/>
<path class="st43" d="M352.3,256.5c-0.1-2.5,0-5.5,0.2-8.7c0.8-11.9,3.1-4.6,4.1-2.8c0.9,1.5,2,18,2.5,25.3
	C356.8,266.2,354.2,261,352.3,256.5z"/>
<path class="st42" d="M365.1,277.2c0.4-0.7,30.5-25.3,29.6-27.6c-1-2.3-2.5-5-3.7-6.4c-1.2-1.4-17,6.2-22,10.4
	c-5,4.2-8.3,15.6-8.3,15.6S364.7,278,365.1,277.2z"/>
<g>
	
		<linearGradient id="SVGID_5_" gradientUnits="userSpaceOnUse" x1="-3608.9822" y1="248.3799" x2="-3620.4854" y2="240.8417" gradientTransform="matrix(-1 0 0 1 -3216.0498 0)">
		<stop  offset="0" style="stop-color:#FFAC85"/>
		<stop  offset="1" style="stop-color:#FF8E59"/>
	</linearGradient>
	<path class="st44" d="M386.7,245.8c0.2-0.3,0.9-2.7,3.5-4.9c2.6-2.2,13.1-4.3,14.5-3.6s0.7,10.6,0.3,12.2c-0.3,1.6-4.5,1.2-5.7,1
		c-1.2-0.2-5.4,0.5-6.6,0.6C391.7,251.1,386.3,246.5,386.7,245.8z"/>
	<g>
		<path class="st38" d="M398.3,238.9c-1.5-0.4-3.8-2.7-4.3-5.9c-0.5-3.1,1.3-10.6,1.5-11.1l4.3,0v0l0,0l0,0v0l4.3,0
			c0.1,0.5,2,7.9,1.4,11.1c-0.5,3.1-2.8,5.4-4.4,5.9c-0.6,0.5-1.1,1-1.1,2.9c0,1.8-0.4,8.1,0.9,9.2c1.3,1.1,3.8,1,4,1
			c0.2,0-0.5,0.8-5.3,0.8v0c0,0,0,0,0,0s0,0,0,0v0c-4.8,0-5.5-0.8-5.3-0.8c0.2,0,2.7,0.1,4-1c1.3-1.1,0.9-7.4,0.9-9.2
			C399.4,239.9,398.9,239.4,398.3,238.9z"/>
		<path class="st39" d="M405.3,229.8c0.1,1.4,0.3,2.9,0.3,3.2c-0.5,3.1-2.8,5.4-4.4,5.9c-0.6,0.5-1,1-1.1,2.5
			c-0.2,0-0.5-0.1-0.8-0.1c-0.1-1.5-0.5-1.9-1-2.4c-1.5-0.4-3.8-2.7-4.3-5.9c-0.1-0.8-0.1-2,0-3.2H405.3z"/>
		<path class="st40" d="M395.1,223.2c-0.6,2.9-1.4,9.8,3.2,11.8c3.6,1.6,5.9-1.7,7.2-4.6c0.1,1,0.1,1.9,0,2.5
			c-0.5,3.1-2.8,5.4-4.4,5.9c-0.6,0.5-1,1-1.1,2.7l-0.8-0.2c0-1.6-0.5-2.1-1.1-2.6c-1.5-0.4-3.8-2.7-4.3-5.9
			C393.6,230.6,394.6,225.6,395.1,223.2z"/>
		<g>
			<polygon class="st41" points="399.7,221.9 399.7,221.9 399.7,221.9 399.8,221.9 399.8,221.9 404.1,221.9 395.4,221.9 			"/>
			<path class="st41" d="M398.3,238.9c-1.5-0.4-3.8-2.7-4.3-5.9c-0.5-3.1,1.3-10.6,1.5-11.1c-0.1,0.5-1.5,8.2-0.9,11.2
				c0.6,2.8,2.7,4.8,4,5.2c1.2,0.5,2.5,0,2.5,0c1.3-0.4,3.4-2.3,4-5.1c0.6-3-0.8-10.7-0.9-11.2c0.1,0.5,2,7.9,1.4,11.1
				c-0.5,3.1-2.8,5.4-4.4,5.9c-0.6,0.5-1.1,1-1.1,2.9c0,1.8-0.4,8.1,0.9,9.2c1.3,1.1,3.8,1,4,1c0.2,0-0.5,0.8-5.3,0.8v0c0,0,0,0,0,0
				c0,0,0,0,0,0v0c-4.8,0-5.5-0.8-5.3-0.8c0.2,0,2.7,0.1,4-1c1.3-1.1,0.9-7.4,0.9-9.2C399.4,239.9,398.9,239.4,398.3,238.9z"/>
		</g>
	</g>
	
		<linearGradient id="SVGID_6_" gradientUnits="userSpaceOnUse" x1="-3606.7493" y1="245.1352" x2="-3619.2495" y2="236.9435" gradientTransform="matrix(-1 0 0 1 -3216.0498 0)">
		<stop  offset="0" style="stop-color:#FFAC85"/>
		<stop  offset="1" style="stop-color:#FF8E59"/>
	</linearGradient>
	<circle class="st45" cx="396.7" cy="241.2" r="4.5"/>
</g>
<path class="st43" d="M366.9,259.6l-0.3-8c0.4,1,0.9,2.1,1.3,3.1c0.4-0.4,0.7-0.7,1.1-1.1c0.6-0.5,1.2-1,2-1.5
	C369.4,255.3,366.9,259.6,366.9,259.6z"/>
<path class="st46" d="M357.4,307.9c0,0,4.5,122.5,3.7,122.4c-0.8-0.1-9.2-0.7-9.2-0.7s-19.7-109.4-17.4-115.9
	c2.3-6.6,3.2-11.9,5.6-12.2C342.6,301.2,357.4,307.9,357.4,307.9z"/>
<path class="st47" d="M353.6,427.2l0.6,0c0-1-15.6-99.8-16.2-104l-0.6,0.1C337.6,324.3,353.6,425.7,353.6,427.2z"/>
<path class="st46" d="M316,305.4c0,0-10.7,123.6-9.9,123.6c0.8,0,8.5-0.5,8.5-0.5s27.6-108.3,25.6-115.2s-4.1-12-6.5-12.5
	C331.2,300.2,316,305.4,316,305.4z"/>
<path class="st47" d="M307.6,426.8c0-1.2,9.8-117.6,9.9-118.8l-0.6-0.1c-0.4,4.8-9.9,117.9-9.9,118.8L307.6,426.8l-0.3,0
	L307.6,426.8z"/>
<ellipse class="st48" cx="349.6" cy="202.2" rx="2.8" ry="10.7"/>
<linearGradient id="SVGID_7_" gradientUnits="userSpaceOnUse" x1="3142.1904" y1="270.2009" x2="3187.5393" y2="270.2009" gradientTransform="matrix(1 0 0 1 -2828.9795 0)">
	<stop  offset="0" style="stop-color:#FFAC85"/>
	<stop  offset="1" style="stop-color:#FF8E59"/>
</linearGradient>
<path class="st49" d="M344.5,230.2c0.3,0.1,11.7,3.4,13.3,4.8c1.6,1.4-1,44.5-1.9,51.1c-0.8,6.6,2.5,20.4,2.7,21.3
	c0.2,0.9-9.3,3.7-20.6,2.8c-11.3-0.9-24.7-5.3-24.7-5.3s1.3-16.1,1.4-24.6c0.2-8.4,0-41.7,0.7-43.4c0.7-1.7,14.7-7.1,14.7-7.1
	L344.5,230.2z"/>
<path class="st7" d="M326.8,231.5c0,0,5.8,8.9,12.7,8.9c6.9,0,10.5-7.6,10.5-7.6s4,12.7,4,13.4c0,0.7,3.8,65.8,3.6,67.8
	c-0.2,2-7.2,3.8-20.2,3.5c-12.9-0.2-23-4.5-23-5.4s2.1-28.7,4.6-38.3c2.5-9.6,4.7-32.8,5.4-35.5C325,235.7,326.8,231.5,326.8,231.5z
	"/>
<path class="st50" d="M331.6,236.5c0,0,1.2,76.5,0.9,77.6c-0.3,1.1-12.7-1.7-12.6-2.3c0.1-0.6,3.4-8.3,3.4-8.3l0.3-19l2.3-14.4
	L331.6,236.5z"/>
<path class="st50" d="M359,310.4c0,0-7.8,3.8-10.2,3.6c-2.3-0.3-2-76.9-2-76.9l7,31.2l0.5,21.2L359,310.4z"/>
<linearGradient id="SVGID_8_" gradientUnits="userSpaceOnUse" x1="3168.1985" y1="219.6218" x2="3166.9624" y2="249.4054" gradientTransform="matrix(1 0 0 1 -2828.9795 0)">
	<stop  offset="0" style="stop-color:#FFAC85"/>
	<stop  offset="1" style="stop-color:#FF8E59"/>
</linearGradient>
<path class="st51" d="M339.4,236.3l-3-0.5c-2.8-0.5-4.9-3-4.9-5.8v-12.5h15.1v12.8C346.6,234.1,343.1,237,339.4,236.3z"/>
<linearGradient id="SVGID_9_" gradientUnits="userSpaceOnUse" x1="-1915.3805" y1="252.7932" x2="-1915.3805" y2="267.0412" gradientTransform="matrix(-1.2168 -5.050000e-02 -5.050000e-02 1.2168 -1978.7334 -186.1178)">
	<stop  offset="0" style="stop-color:#FFAC85"/>
	<stop  offset="1" style="stop-color:#FF8E59"/>
</linearGradient>
<path class="st52" d="M346.4,224.1c0.2,0.4,0.2,3.5,0.2,5c-3.5,0.1-11.7-2.3-12.6-3.2c-0.6-0.6-1.6-3.1-2.3-5
	c-0.2-2.2-0.3-3.7-0.4-4l11.3,3.8C342.5,220.8,346.2,223.7,346.4,224.1z"/>
<linearGradient id="SVGID_10_" gradientUnits="userSpaceOnUse" x1="-1916.9946" y1="235.5639" x2="-1916.9946" y2="274.1863" gradientTransform="matrix(-1.2168 -5.050000e-02 -5.050000e-02 1.2168 -1978.7334 -186.1178)">
	<stop  offset="0" style="stop-color:#FFAC85"/>
	<stop  offset="1" style="stop-color:#FF8E59"/>
</linearGradient>
<path class="st53" d="M351.1,204.6c0,0,0.5,18.8-2.3,20.6c-2.8,1.9-13,0.2-14-0.4c-1.1-0.6-3.1-5.8-3.2-6.1
	c-0.1-0.3,0.4-10.7,0.6-13.3c0.1-2.6-0.7-6.6,2.3-8.6c3-2,6.1-2.7,9.4-1.4c3.3,1.3,5.9,3.5,6.6,4.5
	C351.1,200.9,351.1,204.6,351.1,204.6z"/>
<path class="st48" d="M331.5,213.9c0.5-1.2,1.3-8.7,2.1-11.5c0.8-2.8,1.7-4.7,3.7-4.3c2,0.3,5.4,2.9,7.4,2.5
	c2.1-0.5,2.1-1.6,3.2-2.1c1.1-0.5,2.4,1.4,3.1,4c0.3,1,0.7-13,0.7-13.7c0-0.7-8-2.1-8-2.1l-1.4,1.6l-2.4-2.4l-4.5,2.4l-3.2,0.1
	l-1.9,2.3l-2.3,2.2l0.3,19.8L331.5,213.9z"/>
<linearGradient id="SVGID_11_" gradientUnits="userSpaceOnUse" x1="-1857.5973" y1="218.3286" x2="-1857.5973" y2="256.9508" gradientTransform="matrix(-1.2168 -5.050000e-02 0.1468 1.2923 -1963.621 -180.3971)">
	<stop  offset="0" style="stop-color:#FFAC85"/>
	<stop  offset="1" style="stop-color:#FF8E59"/>
</linearGradient>
<path class="st54" d="M327.5,215.1c-0.2-2,1.1-3.6,3.1-3.5c1.9,0.1,3.7,1.8,3.9,3.8c0.2,2-1.1,3.6-3.1,3.5
	C329.5,218.9,327.8,217.2,327.5,215.1z"/>
<path class="st7" d="M348.1,218.2c-0.4,0-7.7-0.4-7.7-0.4s2.6,3.5,4.3,3.6C346.4,221.5,348.1,218.2,348.1,218.2z"/>
<path class="st55" d="M314.7,268.1c0.1-0.7,4.3-16.5,4.3-16.5l-4.2,4L314.7,268.1z"/>
<g>
	<path class="st7" d="M349.5,187.3c-2,1.1-9.7,10-21.9,6.6c-0.7-10.6,1.1-28.8,1.1-28.8L349.5,187.3z"/>
	<g>
		<path class="st29" d="M330.4,166.9l2.3,2.5l-4.9,6.2c0.1-2.2,0.3-4.3,0.4-6L330.4,166.9z"/>
		<path class="st29" d="M334.6,171.4l2.3,2.5l-9.5,12.1c0-1.9,0.1-3.8,0.2-5.7L334.6,171.4z"/>
		<path class="st29" d="M338.9,176l2.3,2.5l-12.4,15.7c-0.4-0.1-0.9-0.2-1.3-0.3c-0.1-1-0.1-2.2-0.1-3.3L338.9,176z"/>
		<path class="st29" d="M343.1,180.5l2.3,2.5l-8.9,11.3c-1.4,0.3-2.9,0.4-4.5,0.3L343.1,180.5z"/>
		<path class="st29" d="M347.4,185l2.1,2.2c-1.1,0.6-3.9,3.5-8.2,5.5L347.4,185z"/>
	</g>
</g>
<path class="st42" d="M331.5,229.9c0,0,0,80,0,82.4c0,2.4-20-2-20.9-5.9c-0.9-3.9,2.4-23.7,3.9-29.8c1.5-6.1,12.4-41.9,12.4-41.9
	L331.5,229.9z"/>
<path class="st42" d="M331.5,228.9c-1.4,0.1-11.9,5.1-16.9,6.4c-5,1.2,0.4,42.2,0.4,42.2l8.4-12.5c0,0,7.4-16.2,7.2-23.5
	C330.3,234.1,331.5,228.9,331.5,228.9z"/>
<path class="st43" d="M314.6,276.6c0.1-0.2,0.1-0.5,0.2-0.8c-0.5-4.3-1.8-16-2.2-26.3c1.4-2.8,2.9-2.4,4.6-5c1,2,2.7,0.7,4.1,2.1
	c0.4,0.4-0.1,0.7,0.3,0.7c-0.9,6.7-5.6,23.1-5.3,30.4c4.9,7.8,6.3,30.7,6.5,34.3c-3.9-0.9-8.1-2.2-10.4-3.7l-1-1.2l-0.8-5
	C311.1,294.7,313.4,281.4,314.6,276.6z"/>
<path class="st42" d="M346.6,230.3c0,0,2.3,81.5,3,82.2c0.7,0.7,8.2-1,9.5-2.1c1.3-1.1-1.7-35-1.7-39.2c0-4.1,1.6-35,1.4-36
	C358.6,234.2,346.6,230.3,346.6,230.3z"/>
<path class="st56" d="M346.5,230.5c0.6-0.2,3,3.5,3.6,4c0.7,0.5-1.6,10.7-1.5,11.4c0.2,0.8,0.7,0.8,1.5,1.7
	c0.7,0.8-2.5,18.8-2.5,18.8L346.5,230.5z"/>
<path class="st56" d="M331.2,228.5c-0.6-0.2-2.9,3.8-3.6,4.3c-0.7,0.5,1.7,11,1.6,11.8c-0.2,0.8-0.8,0.9-1.6,1.7
	c-0.8,0.9,3.4,19.7,3.4,19.7L331.2,228.5z"/>
<path d="M350.1,431.8c0.3-1,1-3.4,1.9-4.1c1.1-0.9,7.1,0,9.6,0.3c2.6,0.3,8.2,1.1,9.1,2c0.4,0.4,0.6,1.2,0.7,1.8H350.1z"/>
<path d="M303.3,431.6c0.5-1.6,2.1-4.7,2.8-5.1c1-0.6,7.4-0.5,8.6,0.2c1,0.6,2.7,3.5,3.5,4.9H303.3z"/>
<path class="st57" d="M336.6,336.4c0.1-0.4,0.8-14.6,1.4-15.6c0.6-1,4.1-2.1,4.1-2.1l-2.6,4.6L336.6,336.4z"/>
<linearGradient id="SVGID_12_" gradientUnits="userSpaceOnUse" x1="-2580.8281" y1="318.2182" x2="-2569.1099" y2="318.2182" gradientTransform="matrix(-1 0 0 1 -2255.5686 0)">
	<stop  offset="0" style="stop-color:#FFAC85"/>
	<stop  offset="1" style="stop-color:#FF8E59"/>
</linearGradient>
<path class="st58" d="M320.4,313.1c0.9,1.3,3.9,2.4,4.7,3.4c0.8,0.9-1.7,9-10.7,7.4c0.2-4.3-1.1-11.1-0.8-11.6
	C313.9,311.9,320.4,313.1,320.4,313.1z"/>
<g>
	<path class="st42" d="M314.3,235.5c0,0-14.1,31.3-14.3,38.2c-0.2,8.1,12.2,40.1,13.6,41.9c1.4,1.8,8-1.3,8-1.3l-8.2-41.9l8.6-25.6
		L314.3,235.5z"/>
	<path class="st42" d="M300.8,276.9c0.5,0.6,10.2,38.4,12.7,38.4c2.5,0,5.6-0.4,7.3-1c1.7-0.6-0.5-18-2.5-24.3
		c-2-6.3-6.9-24.5-6.9-24.5S300.3,276.2,300.8,276.9z"/>
</g>
<path class="st7" d="M505.1,250.6c0.3,0.1,5.2,2.2,5.2,2.2s-2.8,1.5-4,1C505.2,253.3,505.1,250.6,505.1,250.6z"/>
</svg>
