<?xml version="1.0" encoding="utf-8"?>
<!-- Generator: Adobe Illustrator 19.0.0, SVG Export Plug-In . SVG Version: 6.00 Build 0)  -->
<svg version="1.1" id="Layer_1" xmlns="http://www.w3.org/2000/svg" xmlns:xlink="http://www.w3.org/1999/xlink" x="0px" y="0px"
	 viewBox="-210 333.9 175 175" style="enable-background:new -210 333.9 175 175;" xml:space="preserve">
<style type="text/css">
	.st0{fill:#F3F8FE;}
	.st1{clip-path:url(#SVGID_2_);fill:#D2F0FF;}
	.st2{fill:#DB856E;}
	.st3{fill:#6E64C3;}
	.st4{fill:#FFFFFF;}
	.st5{fill:#827DDC;}
	.st6{fill:#41378C;}
	.st7{fill:#ED9C80;}
	.st8{fill:#222B70;}
	.st9{fill:#B0B0FF;}
	.st10{fill:#5046AF;}
</style>
<g>
	<circle class="st0" cx="-122.5" cy="421.4" r="87.5"/>
	<g>
		<defs>
			<circle id="SVGID_1_" cx="-122.5" cy="421.4" r="87.5"/>
		</defs>
		<clipPath id="SVGID_2_">
			<use xlink:href="#SVGID_1_"  style="overflow:visible;"/>
		</clipPath>
		<rect x="-180.9" y="487.8" class="st1" width="116.8" height="21.8"/>
	</g>
	<g>
		<g>
			<path class="st2" d="M-131.2,391.7c2.4,2.9,4.4,9.7,6.8,12.5c1.2,1.4,9.9,8.9,15.8,12.2c0.3-1.8,4-0.7,2.7-1.9
				c-4.1-3.7-11.2-7.5-13.6-14.2c-1.6-4.5-7.5-14.4-7.5-14.4"/>
		</g>
		<g>
			<path class="st3" d="M-81.4,411.3h-43.5v-26.6c0-2.1,1.7-3.8,3.8-3.8h16.4c0.4,0,0.8,0.1,1.1,0.4l4,3.4c0.3,0.3,0.8,0.4,1.2,0.4
				h13.2c2.1,0,3.8,1.7,3.8,3.8V411.3z"/>
			<path class="st4" d="M-85.4,407.6h-34.9c-1,0-1.7-0.8-1.7-1.7v-17.5c0-1,0.8-1.7,1.7-1.7h34.9c1,0,1.7,0.8,1.7,1.7v17.5
				C-83.6,406.8-84.4,407.6-85.4,407.6z"/>
			<path class="st5" d="M-84.6,418.4h-36.9c-1.8,0-3.3-1.5-3.3-3.3v-21c0-1.8,1.5-3.3,3.3-3.3h36.9c1.8,0,3.3,1.5,3.3,3.3v21
				C-81.4,417-82.8,418.4-84.6,418.4z"/>
			<g>
				<path class="st6" d="M-96.8,400.7h-0.9v-1.8c0-3-2.4-5.4-5.4-5.4c-3,0-5.4,2.4-5.4,5.4v1.8h-0.9c-0.6,0-1.1,0.5-1.1,1.1v8.5
					c0,1.7,1.4,3.1,3.1,3.1h8.4c1.7,0,3.1-1.4,3.1-3.1v-8.5C-95.8,401.2-96.2,400.7-96.8,400.7z M-106.5,398.9
					c0-1.9,1.5-3.4,3.4-3.4c1.9,0,3.4,1.5,3.4,3.4v1.8h-6.9V398.9z"/>
				<path class="st5" d="M-101.2,405c0-1.1-0.9-1.9-1.9-1.9c-1.1,0-1.9,0.9-1.9,1.9c0,0.8,0.5,1.4,1.1,1.7v3.4
					c0,0.4,0.4,0.8,0.8,0.8c0.4,0,0.8-0.4,0.8-0.8v-3.4C-101.7,406.4-101.2,405.8-101.2,405z"/>
			</g>
		</g>
		<g>
			<path class="st7" d="M-136.2,416.4l-11-9.1c0,0-5,7-3,13.6c1,3.3,2.2,4.9,2.7,6.4c0.5,1.4,4.1,21.9,3.8,23.4
				c-0.2,1.5-1.9,5.7-2.5,10.1c-0.7,5.3-0.4,22.6-0.9,27.2c-0.6,4.6,3.7,5.3,3.9,3.8c1.8-13.3,6.8-34,7.4-40.6
				C-135.2,444.5-135.6,432.4-136.2,416.4z"/>
			<g>
				<path class="st2" d="M-136,429.4l-4.6,11c2,3.4,3.3,7.3,3.5,11.4c0.1,2.1,0,4.2,0,6.3c0,0.1,0,0.3,0.1,0.5
					c0.6-3.1,1-5.7,1.2-7.4c0.5-4.7,0.4-12.1,0.1-21.7C-135.8,429.4-135.9,429.4-136,429.4z"/>
			</g>
			<path class="st7" d="M-142.6,487.5c0,0-0.9,4.8-0.7,5.4c0.3,0.6,1.3,2.4,2.3,3c1.1,0.7,3.4,1.4,3.6,1.7c0.2,0.3,0.2,0.7-0.1,1
				c-0.9,0.7-2.3,1-3.3,0.9c-3.2-0.5-3.5-1.9-5.4-2.1c-0.3,0-0.9,0.4-1.8,0c-0.9-0.4-1.3-1.2-1.3-2c0.1-1.3,0.8-2.4,1.4-3.4
				c0.5-1,0.8-5.5,0.8-5.5"/>
			<path class="st8" d="M-137.2,498.9c0.2-0.4,0.3-1,0.1-1.1c-0.3-0.2-1.4-0.9-2-1.2s-1.6-0.5-1.3-0.3c0.3,0.2-0.3,0.9-0.9,0.9
				c-2-0.1-3.5-1.4-4.6-1.7c-1.6-0.4-2.4-2.3-2.4-2.6c-0.3,0.2-1,1.8-1.1,2.3c-0.1,0.4-0.4,1.3-0.2,1.7c0.1,0.3,0.3,1,0.2,1.6
				c0,0,0.3,0.2,1.2,0.4c0.5,0.1,1.3,0,1.3,0l0.1-1c0,0,0.4,0,1,0.1c0.6,0.1,1.5,0.6,1.6,0.7c0.2,0.3,0.4,0.8,0.7,0.9
				c0.8,0.4,1.6,0.6,2.6,0.6C-138.8,500.2-137.6,499.6-137.2,498.9z"/>
		</g>
		<g>
			<path class="st7" d="M-121,498c-0.2-0.3-2.8-0.7-3.9-1.2c-1.1-0.5-2.5-2-2.8-2.6c-0.3-0.6-0.2-3.9-0.2-5.3c0.2-9.4,2-32.5,2.2-38
				c0.4-9.6-0.8-19.5-4.5-34.9l-13.8-10.6c0,0-3.9,7.2-2.6,14c0.7,4,4,4.6,4.6,6.1c0.6,1.5,8.9,26.4,8.9,26.4s-1.6,5.4-1.7,11.3
				c-0.1,5,2.2,20.2,2.6,26c0,1.1,0.2,3.8-0.1,4.7c-0.4,1.1-1.4,2.3-1.4,3.6c0,0.8,0.6,1.5,1.6,1.8c1,0.3,1.5-0.3,1.9-0.3
				c1.9-0.1,2.5,1.3,5.8,1.3c1,0,2.5-0.6,3.3-1.4C-120.7,498.7-120.8,498.3-121,498z"/>
			<path class="st8" d="M-120.7,499.2c0.2-0.4,0.2-1-0.1-1.1c-0.3-0.2-1.5-0.7-2.2-0.9c-0.7-0.2-1.7-0.3-1.3-0.1
				c0.4,0.1-0.2,0.9-0.8,1c-2.1,0.2-3.8-0.9-5-1c-1.7-0.1-2.4-1.9-2.5-2.2c-0.3,0.2-1.2,1.9-1.2,2.4c-0.1,0.5-0.2,1.3,0,1.7
				c0.1,0.3,0.4,0.9,0.4,1.6c0,0,0.4,0.2,1.3,0.2c0.6,0,1.3-0.2,1.3-0.2v-1c0,0,0.5-0.1,1.1-0.1c0.6,0,1.3,0.3,1.7,0.6
				c0.3,0.2,0.6,0.6,0.9,0.7c1,0.2,1.7,0.3,2.7,0.2C-122.3,500.8-121.1,499.9-120.7,499.2z"/>
		</g>
		<g>
			<path class="st9" d="M-146.8,406.6c-3.5,3.6-5.8,8.8-4.5,14.6c0.3,1.5,2.3,5.6,2.6,7.1c0.8,3.5,2.4,8.5,2.7,12.5
				c5.4,3.3,15.8,2.1,20.3-1.1c0.1-4.9-0.3-8.7-1.3-15.4c-1.4-10.1-3.1-12.3-4.6-16.3c-0.2-0.7-0.2-2.1-0.3-3"/>
		</g>
		<g>
			<path class="st10" d="M-132,373.7c0.9,0.3,0.5,2.3,1.4,2.6c0.6,0.2,1.9-0.1,2.4,0.3c3,1.7,2.3,5.1,2.6,9.4c1.3,3.3,1.6,6.2,0.6,8
				c-1.3,2.3-2.6,2.9-4.2,4.8c-1.2,1.4-1.6,4.3-1.8,7.4c0,0.5,0.4,1.5,0.3,2c-0.2,1-1.8,1.3-3.4,1.3c-3.9,0.1-9.7-1.3-11.5-1.3
				c-1.6,0.1-3.2-0.7-3-1.7c0.1-0.7,0.8-0.9,1-2.2c0.6-2.9,1-10,1.5-12.4c1.2-6.2,2-10.8,4.6-16.5"/>
		</g>
		<path class="st7" d="M-121,365.3c0.4-1.5,0.6-3,0.6-4.3c-0.1-2.5-0.4-6-4.5-7.5c-4.1-1.5-8.6-0.6-9.9,2.4c-1.3,2.9-1,7.4-1.2,9.8
			c-0.2,2.4-1.9,5.2-1.9,5.2l8.8,3.8c0,0,1.4-3.1,2-3.5s0.8,1.1,2.8,0.9c0.8-0.1,1.7-1.6,2.4-3.4c0-0.1,0-0.1,0.1-0.2
			c0.4,0,0.9-0.1,1-0.1c0.6-0.2,0.6-0.4,0.4-0.8C-120.8,366.8-120.9,365.9-121,365.3z"/>
		<g>
			<path class="st7" d="M-108.8,415.7c0,0.7,1.4,2.7,2.4,3c0.3,0.1,0.7,0.1,1,0c0.5,0.2,2,0.4,1.4-0.5c1,0.8,2.1,0.8,3.3,0.7
				c0.4,0,0.4-0.5-0.5-0.7c-1.2-0.3-2.1-1.2-2.8-2.3c0.2-0.1,0.3,0.1,0.8,0.2c0.6,0.1,0.9-0.2,0.9-0.4c0-0.2-0.7-0.4-0.8-0.5
				c-0.6-0.4-1.1-0.7-1.7-1.1c-0.6-0.4-1-0.6-1.8-0.6c-0.1,0-1.3,0.1-1,0.5"/>
		</g>
		<path class="st7" d="M-128.7,387.5c1.5,3,5.3,13,5.9,14.1c2.3,4.5,14.3,14.4,14.3,14.4s2-0.3,2-2.4c-3.4-2.4-9.9-12.6-11.2-13.8
			c-0.9-0.8-4.8-16.6-4.8-16.6"/>
		<path class="st10" d="M-125.4,376.4c-3.3-1.3-6.5-1.3-9.1-3.8c-2.6,2,3.1,13.5,4.6,13.9c1.4,0.3,3.3,6.7,3.7,7.6
			c4.6-0.1,6.3-2.6,6.3-2.6C-121.8,385.5-122.1,377.6-125.4,376.4z"/>
		<g>
			<path class="st6" d="M-128.1,376.7c-0.2-0.9-0.9-1.6-1-2.4c-0.1-0.8,0-1.9,0.5-2.6c0.3-0.4,0.7-0.8,1.1-1.1
				c1.8-1.4,2.5-2.6,1.9-4.8c-0.2-0.7-0.4-1.4-0.3-2.2c0.1-0.7,0.2-1.4,0.9-1.4c0.5-0.1,0.8,0.1,1,0.5c0.1,0.3-0.1,2.4,0.6,1.2
				c0.7-1.1,1.3-1.2,1.2-3.9c0-0.3-0.1-1.6,0.1-1.8c1.2,0.9,1.6,2.4,1.7,3.5c0.9-0.4,1.2-1.7,1.2-2.2c0-1-0.1-1.8-0.5-2.6
				c-1.6-3.4-3.3-4.1-4.7-4.7c-1.4-0.6-2.8-1.2-4.3-1.1c-1.5,0-3.4,0.5-3.8,1.6c-2.1-0.5-3.3,1.3-3.8,1.9c-0.7,0.9-1.2,2-1.6,3.1
				c-0.5,1.6-0.7,3.4-1.1,5.1c-0.3,1.4-0.9,2.8-2,3.7c-1,0.9-2.4,1-3.5,1.8c-1.4,1.1-2.2,2.8-2.1,4.6c0.1,1.8,1,3.7-0.1,5.3
				c-0.3,0.5-0.8,0.9-1.2,1.5c-0.8,1.2-0.7,2.9,0.1,4.1c0.8,1.2,2.2,2.7,3.6,3.1c1.4,0.4,2.5,0.6,3.9,0.5c2.5-0.1,4.7,0,7.3-2.3
				c1.5-1.3,0.5-2,2-3.4c0.8-0.8,2-1.2,2.6-2.2c0.5-0.8,0.6-1.9,0.4-2.8C-128,376.8-128,376.7-128.1,376.7z"/>
		</g>
	</g>
</g>
</svg>
