<?xml version="1.0" encoding="utf-8"?>
<!-- Generator: Adobe Illustrator 23.0.3, SVG Export Plug-In . SVG Version: 6.00 Build 0)  -->
<svg version="1.1" id="Layer_1" xmlns="http://www.w3.org/2000/svg" xmlns:xlink="http://www.w3.org/1999/xlink" x="0px" y="0px"
	 viewBox="0 0 175 175" style="enable-background:new 0 0 175 175;" xml:space="preserve">
<style type="text/css">
	.st0{fill:#F3F8FE;}
	.st1{clip-path:url(#SVGID_2_);}
	.st2{fill:#DDA4A4;}
	.st3{fill:#CC8383;}
	.st4{fill:#EEBCC5;}
	.st5{fill:#FFFFFF;}
	.st6{opacity:0.4;fill:#D98E9D;enable-background:new    ;}
	.st7{opacity:0.5;fill:#BCBACE;enable-background:new    ;}
	.st8{fill:#5046AF;}
	.st9{fill:#9696ED;}
	.st10{fill:#41378C;}
	.st11{fill:#B0B0FF;}
	.st12{clip-path:url(#SVGID_4_);fill:#D2F0FF;}
</style>
<circle class="st0" cx="87.5" cy="87.5" r="87.5"/>
<g>
	<g>
		<defs>
			<circle id="SVGID_1_" cx="87.5" cy="87.5" r="87.5"/>
		</defs>
		<clipPath id="SVGID_2_">
			<use xlink:href="#SVGID_1_"  style="overflow:visible;"/>
		</clipPath>
		<g class="st1">
			<path class="st2" d="M107.5,99.2l-2.8-2.5c-0.6-0.4-1.2-0.9-1.9-1L86.9,83.9l-1.6-6.1c2-0.3,4.4-0.7,4.4-0.7l-2.9-3.1
				c-0.9-0.9-2-1.3-3.2-1.3H79l0,0c-0.9,0-1.6,0.1-2.3,0.4L69,78.8l-10.5-3.5L47.4,96.1l8.9,4.1c0,0,17.5,13,26.7,19.1l1,0.9
				c1.3,1.2,3.5,1,4.7-0.3c1.2-1.3,1-3.5-0.3-4.7l-0.1,0l0,0l1.6,1.3c1.6,1.3,3.9,1.2,5.2-0.3c1.3-1.6,1.2-3.9-0.3-5.2l-0.7-0.6l0,0
				l2,1.7c1.7,1.6,4.5,1.5,6.1-0.4c1.5-1.7,1.5-4.4-0.1-6c1.7,1.3,4.4,1.2,5.8-0.6C109.5,103.4,109.4,100.8,107.5,99.2z"/>
			<path class="st3" d="M87.9,84.6l-6.3,2.5l-7.3,4.2c0,0-1.2-3.8-0.4-5c0.7-1,5.1-5.1,5.1-5.1s4.1-1,4.7-0.9
				c0.6,0.1,2.9,0.4,2.9,0.4L87.9,84.6z"/>
			<path class="st4" d="M115.2,72.5L104.4,77l-20-2.8c-0.9-0.1-1.8,0.1-2.5,0.6l-6.1,3.9c-1.5,1-2.6,2.5-3.2,4.2l-1.8,4.8
				c-0.6,1.5,0.3,3.1,1.8,3.6l0,0c1.2,0.4,2.3,0.1,3.2-0.7l5.5-5.8l6.6-0.3l20,15l7.9-3.8l7.4-1.9L115.2,72.5z"/>
			<g>
				<path class="st3" d="M85.2,118.6c-0.4-1.6-1.3-3.5-3.1-3.6c-1-0.1-1.9,0.4-2.8,1c0.7-1.9,0.4-4.2-0.9-5.8
					c-0.1-0.3-0.4-0.4-0.9-0.4c-0.3,0-0.6,0.1-0.7,0.3c-1.3,0.7-2.3,1.9-3.1,3.2c3.4,2.5,6.7,4.7,9.3,6.4l1,0.9
					c0.4,0.3,0.9,0.6,1.3,0.7C85.5,120.3,85.3,119.3,85.2,118.6z"/>
				<path class="st3" d="M73.6,112.9c0.1-1,0.1-2.2-0.1-3.2c-0.3-1.2-1.3-2.3-2.5-2.5c-1.2-0.1-2.3,0.6-3.4,1.5
					C69.6,110.1,71.6,111.6,73.6,112.9z"/>
				<path class="st3" d="M67.5,108.6c0.1-0.9-1.2-2.5-1.5-2.9c-0.9-0.9-1.8-1-2.9-0.7c-0.1,0-0.3,0.1-0.3,0.1
					C64.3,106.2,65.9,107.3,67.5,108.6z"/>
			</g>
			<path class="st4" d="M78.6,119.9c1.5,0.7,3.2,0.1,3.9-1.3l0.6-1.2c0.7-1.5,0.1-3.2-1.3-3.9c-1.5-0.7-3.2-0.1-3.9,1.3l-0.6,1.2
				C76.4,117.4,77.1,119.1,78.6,119.9z"/>
			<path class="st4" d="M61.1,110.5c1.5,0.7,3.2,0.1,3.9-1.3l0.6-1.2c0.7-1.5,0.1-3.2-1.3-3.9c-1.5-0.7-3.2-0.1-3.9,1.3l-0.6,1.2
				C59.1,108.1,59.6,109.8,61.1,110.5z"/>
			<path class="st4" d="M66.9,114.5c1.6,0.7,3.4,0.1,4.2-1.5l1.5-2.9c0.7-1.6,0.1-3.4-1.5-4.2c-1.6-0.7-3.4-0.1-4.2,1.5l-1.5,2.9
				C64.9,111.9,65.5,113.8,66.9,114.5z"/>
			<path class="st4" d="M72.8,117.8c1.5,0.7,3.2,0.1,3.9-1.3L79,112c0.7-1.5,0.1-3.2-1.3-3.9c-1.5-0.7-3.2-0.1-3.9,1.3l-2.3,4.5
				C70.6,115.4,71.3,117.1,72.8,117.8z"/>
			<polygon class="st5" points="115.2,72.5 125.9,101.5 135.3,98.7 124.4,68.2 			"/>
			<polygon class="st5" points="58.6,75.4 49.9,104 39.7,98.7 49.9,70.1 			"/>
			<polygon class="st6" points="123.1,93.9 115.2,72.5 118.1,95.2 			"/>
			<polygon class="st7" points="49.9,70.1 43.5,100.6 39.7,98.7 			"/>
			<polygon class="st8" points="-4.7,36 49.9,70.1 38.9,104 -4.7,79.6 			"/>
			<polygon class="st7" points="124.4,68.2 130.5,100.2 135.3,98.7 			"/>
			<polygon class="st9" points="179.7,36 124.4,68.2 136.1,104 179.7,79.6 			"/>
			<polygon class="st6" points="109.5,98.7 87.9,84.6 107.9,99.6 			"/>
			<polygon class="st10" points="42.7,92.2 -4.7,61.2 -4.7,79.6 38.9,104 			"/>
			<polygon class="st11" points="136.1,104 179.7,79.6 179.7,63.1 132.3,92.3 			"/>
			<path class="st3" d="M58.6,75.4c0.1,0.7-4.4,23.9-4.4,23.9l-2.5-1.2L58.6,75.4z"/>
			<g>
				<path class="st3" d="M89.5,118.1c-1,1.3-2.5,2.5-3.9,3.1c1.2,0.3,2.5,0,3.4-1c0.4-0.6,0.7-1.3,0.9-2
					C89.7,118.1,89.5,118.1,89.5,118.1z"/>
				<path class="st3" d="M107.9,105.3c1.6-1.8,1.5-4.4-0.3-6c-0.1,0.3-0.1,0.7-0.1,1.2c-0.3,2.6-1.9,5-4.4,6
					C104.9,107,106.7,106.6,107.9,105.3z"/>
				<path class="st3" d="M102.2,111.7c0.9-1,1.3-2.5,1-3.6c0,0,0,0.1-0.1,0.1c-1.3,2.2-3.5,3.9-6,4.5
					C98.7,113.6,100.9,113.3,102.2,111.7z"/>
				<path class="st3" d="M95.1,116.2c1-1.2,1.2-2.6,0.6-3.9c-0.4,0.1-0.7,1.2-1.2,1.8c-0.1,0.3-2.5,2.3-3.8,3.1
					C92.2,117.8,93.9,117.5,95.1,116.2z"/>
			</g>
			<path class="st6" d="M65,109.2l0.4-0.9c-2,0.3-4.2-0.6-5.4-2.3l-0.3,0.6c-0.7,1.5-0.1,3.2,1.3,3.9
				C62.6,111.1,64.3,110.5,65,109.2z"/>
			<path class="st6" d="M71.5,112.4c-2,0.4-4.4-0.6-5.4-2.3c0-0.1-0.1-0.1-0.1-0.3l-0.3,0.6c-0.7,1.6-0.1,3.4,1.5,4.2
				c1.6,0.7,3.4,0.1,4.2-1.5L71.5,112.4L71.5,112.4z"/>
			<path class="st6" d="M76.7,116.5l0.3-0.4c-1.2,0.1-2.3,0-3.4-0.6c-0.9-0.4-1.6-1.3-1.9-2.2l-0.3,0.6c-0.7,1.5-0.1,3.2,1.3,3.9
				C74.2,118.6,76,118,76.7,116.5z"/>
			<path class="st6" d="M78.8,118.4c-0.9-0.4-1.6-1.5-1.6-2.5c0,0,0,0-0.1,0c-0.6,1.5,0,3.2,1.3,3.9c1.2,0.6,2.6,0.3,3.5-0.6
				C80.9,119.3,79.8,119,78.8,118.4z"/>
			<path class="st8" d="M-4.7,40.8c14.1,9.2,48,30.5,53.2,33.8l1.5-4.5L-4.7,36V40.8z"/>
			<path class="st9" d="M125.6,72c9.8-5.8,40.2-24.1,54.1-32.2V36l-55.4,32.2L125.6,72z"/>
		</g>
	</g>
	<g>
		<defs>
			<circle id="SVGID_3_" cx="87.5" cy="87.5" r="87.5"/>
		</defs>
		<clipPath id="SVGID_4_">
			<use xlink:href="#SVGID_3_"  style="overflow:visible;"/>
		</clipPath>
		<rect x="29" y="154" class="st12" width="116.8" height="21.7"/>
	</g>
</g>
</svg>
