<?xml version="1.0" encoding="utf-8"?>
<!-- Generator: Adobe Illustrator 23.0.3, SVG Export Plug-In . SVG Version: 6.00 Build 0)  -->
<svg version="1.1" id="Layer_1" xmlns="http://www.w3.org/2000/svg" xmlns:xlink="http://www.w3.org/1999/xlink" x="0px" y="0px"
	 viewBox="0 0 223.7 166" style="enable-background:new 0 0 223.7 166;" xml:space="preserve">
<style type="text/css">
	.st0{clip-path:url(#SVGID_2_);}
	.st1{opacity:0.2;}
	.st2{fill:#E8E9F5;}
	.st3{clip-path:url(#SVGID_4_);fill:#DFE1F1;}
	.st4{fill:none;}
	.st5{fill:#FFFFFF;}
	.st6{fill:#DCDFF1;}
	.st7{fill:#36A7DF;}
	.st8{fill:none;stroke:#FFFFFF;stroke-width:2;stroke-linecap:round;stroke-linejoin:round;stroke-miterlimit:10;}
	.st9{fill:none;stroke:#E4E9ED;stroke-width:5;stroke-linecap:round;stroke-miterlimit:10;}
	.st10{fill:#E4E9ED;}
	.st11{fill:#3271B3;}
	.st12{fill:none;stroke:#E4E9ED;stroke-width:3;stroke-linecap:round;stroke-linejoin:round;stroke-miterlimit:10;}
	.st13{fill:#8B99A9;}
	.st14{fill:#F89621;}
	.st15{fill:#7799C3;}
	.st16{fill:#C3E7F7;}
	.st17{fill:#89B0D9;}
	.st18{fill:#34565C;}
	.st19{fill:#57949B;}
	.st20{fill:#70B1C3;}
	.st21{fill:#76C5E7;}
	.st22{fill:#B2E2F9;}
	.st23{fill:#63A6AD;}
	.st24{fill:#F0BD9A;}
	.st25{fill:#1F2E3B;}
	.st26{fill:#343B54;}
	.st27{fill:#3A3F5D;}
	.st28{fill:#067177;}
	.st29{fill:#0F8186;}
	.st30{fill:#F9E12C;}
	.st31{fill:#F8F7CC;}
	.st32{fill:#603A17;}
	.st33{fill:#FAAE3C;}
	.st34{fill:#02969D;}
</style>
<g>
	<defs>
		<rect id="SVGID_1_" width="223.7" height="166"/>
	</defs>
	<clipPath id="SVGID_2_">
		<use xlink:href="#SVGID_1_"  style="overflow:visible;"/>
	</clipPath>
	<g class="st0">
		<g class="st1">
			<path class="st2" d="M94,78.6c-2.9,3.4-5.3,6.6-2.7,10c1.3,1.7,3.7,3.2,6.6,5.8c12.5,11.3-1.3,17.2-17.5,17.5
				c-16.2,0.3-49.6-1-53.8,26.2c-2.4,15.4,3.8,52.5,86.3,60.8c74.2,7.5,117.2-23.7,106.2-40.9c-11-17.2-23.5-24.5-17.1-32.4
				c9.6-11.8,16.5-13.3,18.2-30.3C224.4,50.8,126.3,40.6,94,78.6z"/>
			<g>
				<g>
					<defs>
						<path id="SVGID_3_" d="M94,78.6c-2.9,3.4-5.3,6.6-2.7,10c1.3,1.7,3.7,3.2,6.6,5.8c12.5,11.3-1.3,17.2-17.5,17.5
							c-16.2,0.3-49.6-1-53.8,26.2c-2.4,15.4,3.8,52.5,86.3,60.8c74.2,7.5,117.2-23.7,106.2-40.9c-11-17.2-23.5-24.5-17.1-32.4
							c9.6-11.8,16.5-13.3,18.2-30.3C224.4,50.8,126.3,40.6,94,78.6z"/>
					</defs>
					<clipPath id="SVGID_4_">
						<use xlink:href="#SVGID_3_"  style="overflow:visible;"/>
					</clipPath>
					<path class="st3" d="M88,65.1c0,0,9.8,29.4,32.1,54.3c11.2,12.6,66.9,39.9,39.6,58C30.6,262.8,20.9,132.3,20.9,132.3l35.5-57.8
						L88,65.1z"/>
				</g>
			</g>
		</g>
		<rect x="72.2" y="79.6" class="st4" width="29.7" height="7.5"/>
		<path class="st6" d="M48.3,17c0,0-1.7-2.2-2.7-3.2c-1.8-1.8-3.9-5-10.6-2.6c-0.5,0.2-1,0.4-1.5,0.7c-0.6,0.3-2.4,0.3-4.3-1.4
			c-3-2.7-4.1-4.7-8.2-4.8c-4.8-0.1-5.5,6.6-9.2,8.3c-2.3,1.1-8.5,2.2-9.8,2.7L48.3,17z"/>
		<path class="st6" d="M103.4,24.8c0,0,0.9-1.1,1.5-1.6c1-0.9,2.2-2.5,6-1.3c0.3,0.1,0.6,0.2,0.9,0.3c0.3,0.1,1.4,0.1,2.4-0.7
			c1.7-1.3,2.4-2.4,4.7-2.4c2.7,0,3.1,3.3,5.2,4.2c1.3,0.5,4.8,1.1,5.6,1.3L103.4,24.8z"/>
		<rect x="84.3" y="78.3" class="st4" width="28.9" height="7.3"/>
		<g>
			<path class="st7" d="M49.7,40.2v94.3h57.1V40.2C106.9,40.2,79.5,10.5,49.7,40.2z"/>
			<path class="st8" d="M55.3,45.6v81.7h46.2V45.6C101.5,45.6,79.4,25.4,55.3,45.6z"/>
			<path class="st9" d="M47.8,38.4c0,0,27-24.9,60.4,0"/>
			<path class="st10" d="M108.2,139.1H48.5c-1.3,0-2.3-1-2.3-2.3V136c0-1.3,1-2.3,2.3-2.3h59.6c1.3,0,2.3,1,2.3,2.3v0.8
				C110.5,138.1,109.5,139.1,108.2,139.1z"/>
			<rect x="53.7" y="54.9" class="st11" width="3" height="7.9"/>
			<path class="st11" d="M88.8,111.6H67.4c-0.3,0-0.4-0.2-0.4-0.4v-0.4c0-0.3,0.2-0.4,0.4-0.4h21.4c0.3,0,0.4,0.2,0.4,0.4v0.4
				C89.2,111.4,89,111.6,88.8,111.6z"/>
			<path class="st11" d="M88.8,114.9H67.4c-0.3,0-0.4-0.2-0.4-0.4v-0.4c0-0.3,0.2-0.4,0.4-0.4h21.4c0.3,0,0.4,0.2,0.4,0.4v0.4
				C89.2,114.7,89,114.9,88.8,114.9z"/>
			<path class="st11" d="M88.8,118.3H67.4c-0.3,0-0.4-0.2-0.4-0.4v-0.4c0-0.3,0.2-0.4,0.4-0.4h21.4c0.3,0,0.4,0.2,0.4,0.4v0.4
				C89.2,118.1,89,118.3,88.8,118.3z"/>
			<rect x="53.7" y="111.8" class="st11" width="3" height="7.9"/>
			<polyline class="st12" points="94.8,78.3 95.9,79.3 95.9,84.4 95,85.3 			"/>
			<g>
				<path class="st5" d="M74.3,61.5h7.9c1.4,0,2.6-1.2,2.6-2.6V51c0-1.4-1.2-2.6-2.6-2.6h-7.9c-1.4,0-2.6,1.2-2.6,2.6v7.9
					C71.7,60.3,72.9,61.5,74.3,61.5L74.3,61.5z M80.8,50.7c0.1-0.1,0.3-0.2,0.5-0.2c0.2,0,0.4,0.1,0.5,0.2c0.1,0.1,0.2,0.3,0.2,0.5
					c0,0.2-0.1,0.4-0.2,0.5c-0.1,0.1-0.3,0.2-0.5,0.2c-0.2,0-0.4-0.1-0.5-0.2c-0.1-0.1-0.2-0.3-0.2-0.5C80.6,51,80.7,50.9,80.8,50.7
					L80.8,50.7z M79.7,53c0-0.3,0.1-0.4,0.3-0.6c0.2-0.2,0.4-0.3,0.6-0.3h1.5c0.3,0,0.5,0.1,0.6,0.3c0.2,0.2,0.3,0.4,0.3,0.6v2.2
					c0,0.1,0,0.1-0.1,0.2c-0.1,0.1-0.1,0.1-0.2,0.1c-0.1,0-0.1,0-0.2-0.1c-0.1-0.1-0.1-0.1-0.1-0.2v-1.9h-0.2v5.4
					c0,0.1,0,0.2-0.1,0.3c-0.1,0.1-0.2,0.1-0.3,0.1s-0.2,0-0.3-0.1c-0.1-0.1-0.1-0.2-0.1-0.3v-3.1h-0.2v3.1c0,0.1,0,0.2-0.1,0.3
					c-0.1,0.1-0.2,0.1-0.3,0.1c-0.1,0-0.2,0-0.3-0.1c-0.1-0.1-0.1-0.2-0.1-0.3v-5.4h-0.1v1.9c0,0.1,0,0.1-0.1,0.2
					c-0.1,0.1-0.1,0.1-0.2,0.1c-0.1,0-0.1,0-0.2-0.1c-0.1-0.1-0.1-0.1-0.1-0.2L79.7,53L79.7,53z M78.3,50h0.7v9.9h-0.7V50z
					 M75.1,50.7c0.1-0.1,0.3-0.2,0.5-0.2s0.4,0.1,0.5,0.2c0.1,0.1,0.2,0.3,0.2,0.5c0,0.2-0.1,0.4-0.2,0.5c-0.1,0.1-0.3,0.2-0.5,0.2
					c-0.2,0-0.4-0.1-0.5-0.2c-0.1-0.1-0.2-0.3-0.2-0.5S75,50.9,75.1,50.7L75.1,50.7z M73.7,54.8c0,0,0-0.1,0.1-0.3
					c0-0.1,0.1-0.3,0.1-0.5c0.1-0.2,0.1-0.4,0.2-0.6c0.1-0.2,0.1-0.5,0.2-0.6c0-0.2,0.1-0.3,0.3-0.4c0.1-0.1,0.3-0.2,0.5-0.2h1.1
					c0.2,0,0.3,0.1,0.5,0.2c0.1,0.1,0.3,0.3,0.3,0.4c0.1,0.2,0.1,0.4,0.2,0.6c0.1,0.2,0.1,0.4,0.2,0.6c0.1,0.2,0.1,0.4,0.1,0.5
					c0,0.1,0.1,0.2,0.1,0.3v0.1c0,0.1-0.1,0.2-0.2,0.3l-0.1,0c-0.1,0-0.2-0.1-0.3-0.2c0,0,0-0.2-0.1-0.4c-0.1-0.2-0.1-0.4-0.2-0.6
					c-0.1-0.2-0.1-0.5-0.3-0.9h-0.1l0.9,3.2h-0.9v2.4c0,0.1,0,0.2-0.1,0.2c-0.1,0.1-0.1,0.1-0.2,0.1c-0.1,0-0.2,0-0.3-0.1
					c-0.1-0.1-0.1-0.1-0.1-0.2v-2.4h-0.2v2.4c0,0.1,0,0.2-0.1,0.2c-0.1,0.1-0.1,0.1-0.2,0.1c-0.1,0-0.2,0-0.3-0.1
					c-0.1-0.1-0.1-0.1-0.1-0.2v-2.4h-0.9l0.9-3.2h-0.1c-0.1,0.4-0.2,0.6-0.3,0.9c-0.1,0.2-0.1,0.4-0.2,0.6c-0.1,0.2-0.1,0.3-0.1,0.4
					c0,0.1-0.1,0.2-0.3,0.2l-0.1,0C73.7,55.1,73.7,55,73.7,54.8C73.6,54.8,73.6,54.8,73.7,54.8L73.7,54.8z"/>
			</g>
		</g>
		<g id="crane">
			<g id="XMLID_1088_">
				<g id="XMLID_457_">
					<polygon id="XMLID_282_" class="st13" points="138,11.3 137.9,11.1 151.4,1.4 151.6,1.6 140.1,11.3 139.9,11.1 148.9,3.5 					
						"/>
				</g>
				<g id="XMLID_456_">
					<polygon id="XMLID_281_" class="st13" points="194.7,11.7 159.4,3.5 189.4,11.4 189.3,11.7 151.5,1.6 151.5,1.4 194.7,11.4 
											"/>
				</g>
				<g id="XMLID_1112_">
					<path id="XMLID_455_" class="st14" d="M154.2,20.8c0-0.1-0.1-0.2-0.2-0.2h-4.3l4.5-4.2l0,0l0,0c0,0,0,0,0,0v0v0l0,0v0v0
						c0,0,0,0,0,0v0l0,0l0,0c0,0,0,0,0,0h0c0,0,0,0-0.1,0l0,0H149c-0.1,0-0.2,0.1-0.2,0.2s0.1,0.2,0.2,0.2h4.3l-4.5,4.2l0,0
						c0,0-0.1,0.1-0.1,0.1c0,0,0,0.1,0.1,0.1l0,0l4.5,4.2h-4.3c-0.1,0-0.2,0.1-0.2,0.2c0,0.1,0.1,0.2,0.2,0.2h4.3l-4.5,4.2l0,0
						c0,0-0.1,0.1-0.1,0.1c0,0.1,0,0.1,0.1,0.1l0,0l4.5,4.2h-4.3c-0.1,0-0.2,0.1-0.2,0.2c0,0.1,0.1,0.2,0.2,0.2h4.3l-4.5,4.2l0,0
						c0,0-0.1,0.1-0.1,0.1c0,0.1,0,0.1,0.1,0.1l0,0l4.5,4.2h-4.3c-0.1,0-0.2,0.1-0.2,0.2c0,0.1,0.1,0.2,0.2,0.2h4.3l-4.5,4.2l0,0
						c0,0-0.1,0.1-0.1,0.1c0,0.1,0,0.1,0.1,0.1l0,0l4.5,4.2h-4.3c-0.1,0-0.2,0.1-0.2,0.2c0,0.1,0.1,0.2,0.2,0.2h4.3l-4.5,4.2l0,0
						c0,0-0.1,0.1-0.1,0.1c0,0.1,0,0.1,0.1,0.1l0,0l4.5,4.2h-4.3c-0.1,0-0.2,0.1-0.2,0.2s0.1,0.2,0.2,0.2h4.3l-4.5,4.2l0,0
						c0,0-0.1,0.1-0.1,0.1c0,0.1,0,0.1,0.1,0.1l0,0l4.9,4.6c0,0,0.1,0.1,0.1,0.1c0.1,0,0.1,0,0.2-0.1c0.1-0.1,0.1-0.2,0-0.3
						l-4.5-4.2h4.3c0.1,0,0.2-0.1,0.2-0.2s-0.1-0.2-0.2-0.2h-4.3l4.5-4.2l0,0c0,0,0.1-0.1,0.1-0.1c0,0,0-0.1-0.1-0.1l0,0l-4.5-4.2
						h4.3c0.1,0,0.2-0.1,0.2-0.2s-0.1-0.2-0.2-0.2h-4.3l4.5-4.2l0,0c0,0,0.1-0.1,0.1-0.1s0-0.1-0.1-0.1l0,0l-4.5-4.2h4.3
						c0.1,0,0.2-0.1,0.2-0.2s-0.1-0.2-0.2-0.2h-4.3l4.5-4.2l0,0c0,0,0.1-0.1,0.1-0.1c0-0.1,0-0.1-0.1-0.1l0,0l-4.5-4.2h4.3
						c0.1,0,0.2-0.1,0.2-0.2c0-0.1-0.1-0.2-0.2-0.2h-4.3l4.5-4.2l0,0c0,0,0.1-0.1,0.1-0.1c0-0.1,0-0.1-0.1-0.1l0,0l-4.5-4.2h4.3
						c0.1,0,0.2-0.1,0.2-0.2c0-0.1-0.1-0.2-0.2-0.2h-4.3l4.5-4.2l0,0c0,0,0.1-0.1,0.1-0.1c0-0.1,0-0.1-0.1-0.1l0,0l-4.5-4.2h4.3
						C154.1,21.1,154.2,21,154.2,20.8z"/>
					<path id="XMLID_1113_" class="st14" d="M154,71.8H149l-0.2-0.2v-60l0.2-0.2h4.9l0.2,0.2v60L154,71.8z M149.2,71.4h4.5V11.8
						h-4.5V71.4z"/>
				</g>
				<g id="XMLID_1108_">
					<path id="XMLID_452_" class="st14" d="M154.2,76.2c0,0.1-0.1,0.2-0.2,0.2h-4.3l4.2,4h-0.6l-4.3-4.1l0,0c0,0-0.1-0.1-0.1-0.1
						c0-0.1,0-0.1,0.1-0.1l0,0l4.5-4.2h-4.3c-0.1,0-0.2-0.1-0.2-0.2s0.1-0.2,0.2-0.2h4.3l-0.1-0.1h0.6l0.1,0.1l0,0
						c0,0,0.1,0.1,0.1,0.1c0,0.1,0,0.1-0.1,0.1l0,0l-4.5,4.2h4.3C154.1,76,154.2,76.1,154.2,76.2z"/>
					<rect id="XMLID_451_" x="153.7" y="71.3" class="st14" width="0.4" height="9.1"/>
					<rect id="XMLID_450_" x="148.8" y="71.3" class="st14" width="0.4" height="9.1"/>
				</g>
				<g id="XMLID_1103_">
					<rect id="XMLID_449_" x="140.4" y="79.8" class="st15" width="1.8" height="4.2"/>
					<rect id="XMLID_448_" x="139.2" y="83.9" class="st15" width="4" height="1.2"/>
					<rect id="XMLID_447_" x="160.9" y="79.8" class="st15" width="1.8" height="4.2"/>
					<rect id="XMLID_446_" x="159.8" y="83.9" class="st15" width="4" height="1.2"/>
				</g>
				<polygon id="XMLID_445_" class="st14" points="140.4,79.8 149,66.8 149,68.8 142.1,79.8 				"/>
				<polygon id="XMLID_444_" class="st14" points="162.6,79.8 154,66.8 154,68.7 160.9,79.8 				"/>
				<g id="XMLID_1096_">
					<path id="XMLID_443_" class="st14" d="M153.6,9C153.6,9,153.6,9,153.6,9L153.6,9l-2.9-2.5h2c0.1,0,0.2-0.1,0.2-0.1
						c0-0.1-0.1-0.1-0.2-0.1h-2.2l1.7-2.4c0,0,0.1,0,0.1-0.1c0-0.1-0.1-0.1-0.2-0.1l0,0l0,0h-1.3c-0.1,0-0.2,0.1-0.2,0.1
						c0,0.1,0.1,0.1,0.2,0.1h0.9l-1.7,2.4c0,0,0,0,0,0.1s0,0.1,0.1,0.1l2.8,2.4h-3.3c-0.1,0-0.2,0.1-0.2,0.1c0,0.1,0.1,0.1,0.2,0.1
						h3.2l-3.9,2.4c-0.1,0-0.1,0.1,0,0.2c0,0,0.1,0,0.1,0c0.1,0,0.1,0,0.1,0l4.3-2.6l0,0C153.6,9.1,153.6,9.1,153.6,9z"/>
					<path id="XMLID_1097_" class="st14" d="M154,11.8H149l-0.2-0.1l2.5-10.5h0.4l2.4,10.5L154,11.8z M149.3,11.5h4.4l-2.2-9.4
						L149.3,11.5z"/>
				</g>
				<g id="XMLID_1093_">
					<path id="XMLID_440_" class="st14" d="M139.7,12.8l1.5,1.5v-2.8c0-0.1,0.1-0.2,0.2-0.2s0.2,0.1,0.2,0.2v2.8l2.9-2.9l0,0l0,0
						l0,0c0,0,0.1-0.1,0.1-0.1c0.1,0,0.1,0,0.1,0.1l0,0l0,0l0,0l2.9,2.9v-2.8c0-0.1,0.1-0.2,0.2-0.2s0.2,0.1,0.2,0.2v2.8l2.9-2.9
						l0,0l0,0l0,0c0,0,0.1-0.1,0.1-0.1c0.1,0,0.1,0,0.1,0.1l0,0l0,0l2.9,2.9v-2.8c0-0.1,0.1-0.2,0.2-0.2s0.2,0.1,0.2,0.2v2.8
						l2.9-2.9l0,0l0,0l0,0c0,0,0.1-0.1,0.1-0.1c0,0,0.1,0,0.1,0.1l0,0l0,0l0,0l2.9,2.9v-2.8c0-0.1,0.1-0.2,0.2-0.2s0.2,0.1,0.2,0.2
						v2.8l2.9-2.9l0,0l0,0c0,0,0.1-0.1,0.1-0.1c0,0,0.1,0,0.1,0.1l0,0l0,0l0,0l2.9,2.9v-2.8c0-0.1,0.1-0.2,0.2-0.2
						c0.1,0,0.2,0.1,0.2,0.2v2.8l2.9-2.9l0,0l0,0l0,0c0,0,0.1-0.1,0.1-0.1c0.1,0,0.1,0,0.1,0.1l0,0l0,0l0,0l2.9,2.9v-2.8
						c0-0.1,0.1-0.2,0.2-0.2c0.1,0,0.2,0.1,0.2,0.2v2.8l2.9-2.9l0,0l0,0l0,0c0,0,0.1-0.1,0.1-0.1c0.1,0,0.1,0,0.1,0.1l0,0l0,0l0,0
						l2.9,2.9v-2.8c0-0.1,0.1-0.2,0.2-0.2c0.1,0,0.2,0.1,0.2,0.2v2.8l2.9-2.9l0,0l0,0l0,0c0,0,0.1-0.1,0.1-0.1c0,0,0.1,0,0.1,0.1
						l0,0l0,0l0,0l2.9,2.9v-2.8c0-0.1,0.1-0.2,0.2-0.2c0.1,0,0.2,0.1,0.2,0.2v2.8l2.9-2.9l0,0l0,0l0,0c0,0,0.1-0.1,0.1-0.1
						c0.1,0,0.1,0,0.1,0.1l0,0l0,0l0,0l2.9,2.9v-2.8c0-0.1,0.1-0.2,0.2-0.2c0.1,0,0.2,0.1,0.2,0.2v2.8l2.9-2.9
						c0.1-0.1,0.2-0.1,0.3,0c0.1,0.1,0.1,0.2,0,0.3l-3.3,3.3l0,0l0,0l0,0c0,0-0.1,0.1-0.1,0.1c-0.1,0-0.1,0-0.1-0.1l0,0l0,0l0,0
						l-2.9-2.9v2.8c0,0.1-0.1,0.2-0.2,0.2c-0.1,0-0.2-0.1-0.2-0.2v-2.8l-2.9,2.9l0,0l0,0l0,0c0,0-0.1,0.1-0.1,0.1s-0.1,0-0.1-0.1
						l0,0l0,0l0,0l-2.9-2.9v2.8c0,0.1-0.1,0.2-0.2,0.2c-0.1,0-0.2-0.1-0.2-0.2v-2.8l-2.9,2.9l0,0l0,0l0,0c0,0-0.1,0.1-0.1,0.1
						c0,0-0.1,0-0.1-0.1l0,0l0,0l0,0l-2.9-2.9v2.8c0,0.1-0.1,0.2-0.2,0.2c-0.1,0-0.2-0.1-0.2-0.2v-2.8l-2.9,2.9l0,0l0,0l0,0
						c0,0-0.1,0.1-0.1,0.1c-0.1,0-0.1,0-0.1-0.1l0,0l0,0l0,0l-2.9-2.9v2.8c0,0.1-0.1,0.2-0.2,0.2c-0.1,0-0.2-0.1-0.2-0.2v-2.8
						l-2.9,2.9l0,0l0,0l0,0c0,0-0.1,0.1-0.1,0.1c-0.1,0-0.1,0-0.1-0.1l0,0l0,0l0,0l-2.9-2.9v2.8c0,0.1-0.1,0.2-0.2,0.2
						s-0.2-0.1-0.2-0.2v-2.8l-2.9,2.9l0,0l0,0l0,0c0,0-0.1,0.1-0.1,0.1s-0.1,0-0.1-0.1l0,0l0,0l0,0l-2.9-2.9v2.8
						c0,0.1-0.1,0.2-0.2,0.2s-0.2-0.1-0.2-0.2v-2.8l-2.9,2.9l0,0l0,0l0,0c0,0-0.1,0.1-0.1,0.1c0,0-0.1,0-0.1-0.1l0,0l0,0l0,0
						l-2.9-2.9v2.8c0,0.1-0.1,0.2-0.2,0.2c-0.1,0-0.2-0.1-0.2-0.2v-2.8l-2.9,2.9l0,0l0,0l0,0c0,0-0.1,0.1-0.1,0.1c0,0-0.1,0-0.1-0.1
						l0,0l0,0l0,0l-2.9-2.9v2.8c0,0.1-0.1,0.2-0.2,0.2s-0.2-0.1-0.2-0.2v-2.8l-2.9,2.9l0,0l0,0l0,0c0,0-0.1,0.1-0.1,0.1
						c-0.1,0-0.1,0-0.1-0.1l0,0l0,0l0,0l-1.6-1.6L139.7,12.8L139.7,12.8z"/>
					<polygon id="XMLID_439_" class="st14" points="139.7,14.7 198,14.7 198,11.8 139.7,11.8 139.7,11.3 198.3,11.3 198.5,11.6 
						198.5,14.9 198.3,15.1 139.7,15.1 					"/>
				</g>
				<rect id="XMLID_438_" x="140.4" y="79.8" class="st14" width="22.3" height="1.5"/>
				<path id="XMLID_437_" class="st14" d="M137.8,17h-4.7c-1.7,0-3-1.4-3-3v-1c0-1.7,1.4-3,3-3h4.7c1.7,0,3,1.4,3,3v1
					C140.8,15.6,139.4,17,137.8,17z"/>
				<polygon id="XMLID_436_" class="st14" points="153.1,14.8 147.8,14.8 147.8,24.4 156,24.4 156,19.3 				"/>
				<polygon id="XMLID_435_" class="st16" points="154.7,19 148.8,19 148.8,15.7 152.6,15.7 				"/>
			</g>
			<g id="XMLID_1083_">
				<g id="XMLID_434_">
					<path id="XMLID_130_" class="st13" d="M189.9,30.1H174c0,0-0.1,0-0.1,0s0-0.1,0-0.1l3.4-15.2l0.3,0.1l-3.3,15h15.6l-2.9-15
						l0.3,0L190,30C190,30,190,30.1,189.9,30.1C190,30.1,190,30.1,189.9,30.1z"/>
				</g>
				<rect id="XMLID_433_" x="177.4" y="14.4" class="st13" width="9.4" height="0.9"/>
				<circle id="XMLID_432_" class="st17" cx="187" cy="14.8" r="1"/>
				<circle id="XMLID_431_" class="st17" cx="177.4" cy="14.8" r="1"/>
			</g>
		</g>
		<g id="building">
			<rect id="XMLID_430_" x="169.2" y="35.5" class="st18" width="0.3" height="2.6"/>
			<rect id="XMLID_429_" x="167.9" y="35.5" class="st18" width="0.3" height="2.6"/>
			<rect id="XMLID_428_" x="167.5" y="37.6" class="st19" width="2.4" height="9.3"/>
			<rect id="XMLID_427_" x="155.6" y="35.5" class="st18" width="0.3" height="2.6"/>
			<rect id="XMLID_426_" x="154.4" y="35.5" class="st18" width="0.3" height="2.6"/>
			<rect id="XMLID_425_" x="153.9" y="37.6" class="st19" width="2.4" height="9.3"/>
			<rect id="XMLID_424_" x="184.2" y="39.4" class="st18" width="0.3" height="2.6"/>
			<rect id="XMLID_423_" x="182.9" y="39.4" class="st18" width="0.3" height="2.6"/>
			<rect id="XMLID_422_" x="182.5" y="41.5" class="st19" width="2.4" height="9.3"/>
			<rect id="XMLID_421_" x="197.8" y="40.7" class="st18" width="0.3" height="2.6"/>
			<rect id="XMLID_420_" x="196.5" y="40.7" class="st18" width="0.3" height="2.6"/>
			<rect id="XMLID_419_" x="196.1" y="42.8" class="st19" width="2.4" height="9.3"/>
			<rect id="XMLID_418_" x="195.8" y="65.9" class="st19" width="13.4" height="17.8"/>
			<rect id="XMLID_129_" x="153.9" y="46.1" class="st20" width="44.6" height="39.1"/>
			<g id="XMLID_126_">
				<rect id="XMLID_128_" x="173.1" y="69.2" class="st21" width="6.2" height="9.3"/>
				<path id="XMLID_127_" class="st22" d="M172.6,68.8v0.8v2.8v0.8v5.1V79h2.7h0.9h3.6V68.8h-3.6H172.6z M176.2,78.2v-5.9v-2.8h2.7
					v8.7H176.2L176.2,78.2z M173.5,73.1h1.9v5.1h-1.9V73.1z M173.5,69.5h1.9v2.8h-1.9V69.5z"/>
			</g>
			<g id="XMLID_123_">
				<rect id="XMLID_125_" x="188.2" y="69.2" class="st21" width="6.2" height="9.3"/>
				<path id="XMLID_124_" class="st22" d="M187.7,68.8v0.8v2.8v0.8v5.1V79h2.7h0.9h3.6V68.8h-3.6H187.7z M191.3,78.2v-5.9v-2.8h2.7
					v8.7H191.3L191.3,78.2z M188.6,73.1h1.9v5.1h-1.9V73.1z M188.6,69.5h1.9v2.8h-1.9V69.5z"/>
			</g>
			<g id="XMLID_1047_">
				<rect id="XMLID_406_" x="201.2" y="70.7" class="st21" width="5.3" height="7.9"/>
				<path id="XMLID_1048_" class="st22" d="M200.8,70.3v0.6v2.4v0.6v4.3v0.6h2.3h0.7h3.1v-8.7h-3.1L200.8,70.3L200.8,70.3z
					 M203.9,78.3v-5v-2.3h2.3v7.4L203.9,78.3L203.9,78.3z M201.6,74h1.6v4.3h-1.6V74z M201.6,70.9h1.6v2.4h-1.6V70.9z"/>
			</g>
			<g id="XMLID_120_">
				<rect id="XMLID_122_" x="158.2" y="69.2" class="st21" width="6.2" height="9.3"/>
				<path id="XMLID_121_" class="st22" d="M157.7,68.8v0.8v2.8v0.8v5.1V79h2.7h0.9h3.6V68.8h-3.6H157.7z M161.3,78.2v-5.9v-2.8h2.7
					v8.7H161.3L161.3,78.2z M158.6,73.1h1.9v5.1h-1.9V73.1z M158.6,69.5h1.9v2.8h-1.9V69.5z"/>
			</g>
			<g id="XMLID_116_">
				<rect id="XMLID_119_" x="183.5" y="46.1" class="st23" width="0.5" height="39.1"/>
				<rect id="XMLID_118_" x="168.4" y="46.1" class="st23" width="0.5" height="39.1"/>
				<rect id="XMLID_117_" x="153.9" y="65.4" class="st23" width="44.6" height="0.5"/>
			</g>
			<g id="XMLID_113_">
				<rect id="XMLID_115_" x="173.1" y="49.5" class="st21" width="6.2" height="9.3"/>
				<path id="XMLID_114_" class="st22" d="M172.6,49v0.8v2.8v0.8v5.1v0.8h2.7h0.9h3.6V49h-3.6L172.6,49L172.6,49z M176.2,58.4v-5.9
					v-2.8h2.7v8.7H176.2z M173.5,53.3h1.9v5.1h-1.9V53.3z M173.5,49.8h1.9v2.8h-1.9V49.8z"/>
			</g>
			<g id="XMLID_109_">
				<rect id="XMLID_112_" x="188.1" y="49.5" class="st21" width="6.2" height="9.3"/>
				<path id="XMLID_110_" class="st22" d="M187.6,49v0.8v2.8v0.8v5.1v0.8h2.7h0.9h3.6V49h-3.6L187.6,49L187.6,49z M191.2,58.4v-5.9
					v-2.8h2.7v8.7H191.2z M188.5,53.3h1.9v5.1h-1.9V53.3z M188.5,49.8h1.9v2.8h-1.9V49.8z"/>
			</g>
			<g id="XMLID_99_">
				<rect id="XMLID_108_" x="158.1" y="49.5" class="st21" width="6.2" height="9.3"/>
				<path id="XMLID_107_" class="st22" d="M157.6,49v0.8v2.8v0.8v5.1v0.8h2.7h0.9h3.6V49h-3.6L157.6,49L157.6,49z M161.2,58.4v-5.9
					v-2.8h2.7v8.7H161.2z M158.5,53.3h1.9v5.1h-1.9V53.3z M158.5,49.8h1.9v2.8h-1.9V49.8z"/>
			</g>
			<rect id="XMLID_378_" x="167.5" y="28.9" class="st19" width="16.2" height="3.1"/>
			<circle id="XMLID_377_" class="st18" cx="182" cy="30.5" r="1"/>
			<circle id="XMLID_376_" class="st18" cx="178.8" cy="30.5" r="1"/>
			<circle id="XMLID_375_" class="st18" cx="175.6" cy="30.5" r="1"/>
			<circle id="XMLID_374_" class="st18" cx="172.4" cy="30.5" r="1"/>
			<circle id="XMLID_373_" class="st18" cx="169.2" cy="30.5" r="1"/>
		</g>
		<g>
			<path id="XMLID_98_" class="st24" d="M95.2,81.8c0-0.2-0.1-0.2-0.1-0.3c0-0.3,0.6-0.5,0.9-0.5c0.2,0.6,0.2,1.2,0.3,1.8
				c0.1,0.4,0.1,0.8,0.1,1.1c0,0.1,0,0.1,0,0.2c-0.2,0-0.3,0-0.5,0c-0.6-0.1-0.1-0.3-0.5-0.6c-0.4-0.3-0.1-0.5-0.4-0.8
				C94.9,82.4,95.2,82,95.2,81.8z"/>
			<path id="XMLID_97_" class="st25" d="M135.1,153.1c0,0,0.3,2.4,0.2,3.3h-5.8v-0.1c0-0.3,0.2-0.4,0.4-0.5c1-0.2,2.9-0.6,3.7-3.3
				L135.1,153.1z"/>
			<path id="XMLID_96_" class="st25" d="M120.7,153.1c0,0,0.3,2.4,0.2,3.3h-5.8v-0.1c0-0.3,0.2-0.4,0.4-0.5c1-0.2,2.9-0.6,3.7-3.3
				L120.7,153.1z"/>
			<path id="XMLID_95_" class="st26" d="M123,110.9c0,0,2.4,14,5,24.2c1.9,1.5,3.7,1.9,5.5-0.1c0,0,0.5-9.5,0.9-12.8
				c0.7-5.9,0.6-9.8-1.9-11.9L123,110.9z"/>
			<path id="XMLID_94_" class="st27" d="M119.9,109.2c0,0-1.1,14.2-1.3,24.7c1.5,1.9,3.2,2.8,5.3,1.3c0,0,2.9-8.5,4.4-11.5
				c1.5-3,2.8-10,0.9-12.6L119.9,109.2z"/>
			<path id="XMLID_93_" class="st27" d="M118.6,133.9c0,0-0.3,13.3,0.2,19.4l2.3,0.9c0.9-6.7,3.3-13.4,2.9-19
				C122.5,132.6,120.7,132.5,118.6,133.9z"/>
			<path id="XMLID_92_" class="st26" d="M128,135.1c0,0,3,13,5.1,18.7l2.4,0.3c-0.8-6.7-0.2-13.8-2-19.1
				C131.5,132.8,129.7,133.1,128,135.1z"/>
			<path id="XMLID_91_" class="st28" d="M129.1,79.8c2.1-1,4.4,1,5.6,3.3s2,4.9,2.9,9.8c0.1,0.3,0,0.7-0.2,1c-0.5,0.8-1.3,1.3-3.9,1
				c0,0-1.5-4.2-4.7-8.9C126.3,82.5,128.4,80.2,129.1,79.8z"/>
			<path id="XMLID_89_" class="st28" d="M137.1,91.9c0,0-4.4-6.8-6.3-11.6l-1.3,0.4c0,0,0.2,7.1,3.7,13.6c0.4,1.1,2.5,0.7,3.6-0.4
				C137.1,93.3,136.9,92.8,137.1,91.9z"/>
			<path id="XMLID_88_" class="st29" d="M127.8,77.8c-3.2-0.3-6.4,3.8-7.1,13c-0.6,7.3-1.7,21.3-1.7,21.3s10.1,3,15.9,1.1
				c0,0-1-18.2-1.5-24.5C132.8,82.4,133.2,78.2,127.8,77.8z"/>
			<path id="XMLID_87_" class="st30" d="M118.7,106.5c0,0,10.2,3,16.1,1.1c0,0-0.1-1.5-0.3-3.6c0-0.5-0.1-1-0.1-1.6
				c-0.3-4.9-0.8-11.7-1-13.9c-0.1-3-0.5-5.7-1.3-7.9c-1-2.7-4-3.2-6.3-2.4c-1,0.4-2,1.3-2.6,2.6c0.7-0.5,1.3-1,2-0.8
				c1.7,0.4,2.6,2.7,2,5.2c-0.6,2.5-2.4,4.2-4.1,3.8c-1.3-0.3-1.7-1.5-1.8-3.2c-0.3,0.8-0.9,2.2-1.1,4.9c-0.2,2.1-0.6,7.2-1,11
				c-0.1,0.6-0.1,1.1-0.1,1.6C118.9,105.2,118.7,106.5,118.7,106.5z"/>
			<path id="XMLID_86_" class="st31" d="M134.6,104c-1.5,0.1-3,0.1-4.3,0.1c-4.9,0-8.8-0.5-11.2-0.9c0-0.5,0.1-1,0.1-1.6
				c2.9,0.5,8.5,1.2,15.3,0.8C134.5,102.9,134.5,103.5,134.6,104z"/>
			<path id="XMLID_85_" class="st24" d="M123.4,67.6c-1,2.2-2.9,7.6-0.1,8.9c1.9,0.9,6.1-1.5,6.9-3.2s3.2-4.1-1.3-6.2
				C125.3,65.3,124,66.4,123.4,67.6z"/>
			<path id="XMLID_84_" class="st24" d="M129,74.1c0,0-0.4,2.9,0.4,4.5c0,0-0.1,1-1.6,1.1c-1.5,0.1-1.8-0.5-2-0.8
				c0,0,0.5-0.9,0.4-2.9C126.1,74,129,74.1,129,74.1z"/>
			<path id="XMLID_83_" class="st32" d="M127,73c-1.2,1.3-1.3,3-0.8,3.1c0.8,0.2,2.2,0.5,3,0.2c0,0-0.2-0.8,0.8-1.9
				c1-1.1,2.7-3.8,2.2-5.5c-0.1-0.6-0.7-1.4-1.5-1.9c-0.6-0.4-2-0.8-2.5-1.2c-0.1-0.1-0.3-0.3-0.4-0.4c-0.4-0.5-0.5-0.9,0.2-1.1
				c-1.9,0-3.1,1.1-3.2,2.4c0.7,0.3,1,0.5,1.4,0.9c1,1,0.5,1.9-0.5,3.1c-0.7,0.9-0.5,1.4-0.3,1.6c0.1,0.1,0.1,0.1,0.1,0.1
				c0-0.1,0-0.1,0.1-0.3c0.1-0.3,0.4-0.5,0.6-0.7c0.3-0.2,0.4-0.3,0.6-0.3c0.1,0,0.1,0,0.2,0.1C127.5,71.6,127.6,72.3,127,73z"/>
			<g id="XMLID_79_">
				<path id="XMLID_82_" class="st5" d="M127.3,70.5c0,0,0.1,2.8,2.6,4.1l0.6-0.4c0,0-2.6-1.3-2.4-3.8
					C128.2,69,127.3,70.5,127.3,70.5z"/>
				<path id="XMLID_81_" class="st30" d="M124,68.1c0.1,0.1,0.1,0.1,0.3,0.2c0.3,0.2,0.5,0.4,0.8,0.6c0.1,0.1,0.1,0.1,0.2,0.2
					c0.9,0.8,1.9,1.5,3,2.3c0.1,0.1,0.2,0.1,0.3,0.2c0.5,0.4,1.1,0.7,1.6,1l0.3,0.1c0.6,0.4,1.3,0.7,1.8,0.9
					c0.4-0.1-0.1-0.8,0.1-1.3c0.8-1.4,2.4-4.6-0.3-6.8c-3.2-2.5-5.5-2.4-7.8,0.6c-0.3,0.4-2.4-0.7-2.6-0.5
					C121.5,65.8,122.5,66.8,124,68.1z"/>
				<path id="XMLID_80_" class="st33" d="M124,68.1c0.1,0.1,0.1,0.1,0.3,0.2c0.2-0.5,0.9-1.9,2.1-2.3c0.7-0.2,1.4-0.1,2.2,0.5
					c0.4,0.3,0.7,0.7,0.8,1.2c0.2,1.3-0.6,2.9-1.1,3.7c0.1,0.1,0.2,0.1,0.3,0.2c0.5-0.8,1.4-2.5,1.1-3.9c-0.1-0.6-0.4-1.1-0.9-1.4
					c-0.9-0.6-1.7-0.7-2.4-0.5C125,66.2,124.3,67.6,124,68.1z"/>
			</g>
			<path id="XMLID_78_" class="st34" d="M126.3,81.9c1.1,2.3-1.3,4.9-4,6.2c-2.6,1.3-5.7,2.2-11.3,3.2c-0.4,0.1-0.8,0-1.1-0.2
				c-0.9-0.5-1.5-0.1-1-3.1c0,0,6.1-3.2,10.8-5.5C124.1,80.5,126,81.1,126.3,81.9z"/>
			<path id="XMLID_77_" class="st24" d="M97.9,82c0,0-0.9-1.1-1.7-1.9c0-0.1-0.1,0-0.2,0.1c-0.1,0.3,0,0.9,0.6,1.6
				C97.7,82.7,97.9,82,97.9,82z"/>
			<path id="XMLID_76_" class="st24" d="M95.4,81.2c0,0,1.5-0.4,3,1c0,0-1.1,1.9-2.5,1.8C95.9,84,95.1,81.9,95.4,81.2z"/>
			<path id="XMLID_75_" class="st34" d="M111.2,86.8c0,0-7.8-2.4-12.7-4.9c-0.7,0-1,0.4-1.1,1.1c0,0,5.5,5.6,12.7,8.2
				c0.8,0.4,2-1.5,2-3.2C112.1,87.3,111.7,87.7,111.2,86.8z"/>
		</g>
	</g>
</g>
</svg>
