<?xml version="1.0" encoding="utf-8"?>
<!-- Generator: Adobe Illustrator 23.0.3, SVG Export Plug-In . SVG Version: 6.00 Build 0)  -->
<svg version="1.1" id="Layer_1" xmlns="http://www.w3.org/2000/svg" xmlns:xlink="http://www.w3.org/1999/xlink" x="0px" y="0px"
	 viewBox="0 0 175 175" style="enable-background:new 0 0 175 175;" xml:space="preserve">
<style type="text/css">
	.st0{fill:#F3F8FE;}
	.st1{clip-path:url(#SVGID_2_);}
	.st2{fill:#DDA4A4;}
	.st3{fill:#CC8383;}
	.st4{fill:#EEBCC5;}
	.st5{fill:#FFFFFF;}
	.st6{opacity:0.4;fill:#D98E9D;}
	.st7{opacity:0.5;fill:#BCBACE;}
	.st8{fill:#5046AF;}
	.st9{fill:#9696ED;}
	.st10{fill:#41378C;}
	.st11{fill:#B0B0FF;}
	.st12{clip-path:url(#SVGID_2_);fill:#D2F0FF;}
</style>
<g>
	<circle class="st0" cx="87.5" cy="87.5" r="87.5"/>
	<g>
		<defs>
			<circle id="SVGID_1_" cx="87.5" cy="87.5" r="87.5"/>
		</defs>
		<clipPath id="SVGID_2_">
			<use xlink:href="#SVGID_1_"  style="overflow:visible;"/>
		</clipPath>
		<g class="st1">
			<path class="st2" d="M107.5,99.1l-2.8-2.4c-0.6-0.5-1.2-0.8-1.9-1L86.9,83.9l-1.6-6.1c2-0.3,4.4-0.8,4.4-0.8l-2.9-3
				c-0.8-0.9-2-1.4-3.2-1.4h-4.6l0,0c-0.8,0-1.6,0.2-2.4,0.5l-7.7,5.7l-10.5-3.4L47.5,96.3l8.9,4.1c0,0,17.5,13,26.7,19.1l1.1,0.9
				c1.4,1.2,3.4,1.1,4.6-0.3c1.2-1.4,1.1-3.4-0.3-4.6l-0.3-0.3l0,0l1.6,1.4c1.5,1.4,3.9,1.2,5.2-0.3c1.4-1.5,1.2-3.9-0.3-5.2
				l-0.7-0.6l0,0l2.1,1.8c1.8,1.6,4.5,1.4,6.1-0.4c1.5-1.7,1.4-4.3-0.2-5.9c1.8,1.4,4.4,1.1,5.9-0.6
				C109.5,103.5,109.3,100.7,107.5,99.1z"/>
			<path class="st3" d="M87.9,84.6L81.6,87l-7.2,4.2c0,0-1.2-3.8-0.5-4.9c0.7-1.1,5.1-5.1,5.1-5.1s4.1-1,4.7-0.8s2.9,0.5,2.9,0.5
				L87.9,84.6z"/>
			<path class="st4" d="M115.3,72.4L104.4,77l-19.9-2.8c-0.9-0.1-1.8,0.1-2.5,0.6l-6.1,4c-1.5,1-2.7,2.5-3.3,4.2l-1.7,4.8
				c-0.5,1.5,0.2,3.1,1.7,3.7l0,0c1.1,0.4,2.4,0.2,3.2-0.7l5.6-5.8l6.5-0.3l20.1,14.9l7.9-3.8l7.4-2L115.3,72.4z"/>
			<g>
				<path class="st3" d="M85.1,118.5c-0.4-1.6-1.4-3.5-3-3.7c-1-0.1-1.9,0.5-2.8,1c0.8-1.9,0.4-4.2-0.9-5.8
					c-0.2-0.2-0.5-0.5-0.8-0.5c-0.3,0-0.5,0.1-0.7,0.3c-1.2,0.8-2.3,1.9-3,3.2c3.4,2.4,6.7,4.7,9.4,6.5l1.1,0.9
					c0.4,0.3,0.9,0.6,1.3,0.7C85.5,120.2,85.4,119.4,85.1,118.5z"/>
				<path class="st3" d="M73.6,112.9c0.1-1.1,0.2-2.1-0.1-3.1c-0.3-1.2-1.3-2.3-2.5-2.5c-1.2-0.2-2.3,0.6-3.3,1.4
					C69.6,110.1,71.6,111.5,73.6,112.9z"/>
				<path class="st3" d="M67.6,108.6c0.1-0.9-1.1-2.5-1.5-2.9c-0.9-0.8-1.8-1.1-2.9-0.7c-0.1,0-0.2,0.1-0.4,0.1
					C64.3,106.2,65.9,107.4,67.6,108.6z"/>
			</g>
			<path class="st4" d="M78.5,119.9c1.5,0.7,3.2,0.1,4-1.3l0.6-1.1c0.7-1.5,0.1-3.2-1.3-4c-1.5-0.7-3.2-0.1-4,1.3l-0.6,1.1
				C76.5,117.4,77.1,119.2,78.5,119.9z"/>
			<path class="st4" d="M61.1,110.5c1.4,0.7,3.2,0.1,3.9-1.3l0.6-1.1c0.7-1.4,0.1-3.2-1.3-3.9c-1.4-0.7-3.2-0.1-3.9,1.3l-0.6,1.1
				C59.1,108,59.7,109.8,61.1,110.5z"/>
			<path class="st4" d="M67,114.5c1.5,0.8,3.4,0.1,4.2-1.4l1.5-3c0.8-1.5,0.1-3.4-1.4-4.2c-1.5-0.8-3.4-0.1-4.2,1.4l-1.5,3
				C64.8,111.9,65.5,113.8,67,114.5z"/>
			<path class="st4" d="M72.7,117.9c1.5,0.7,3.3,0.1,4-1.3L79,112c0.7-1.5,0.1-3.3-1.3-4s-3.3-0.1-4,1.3l-2.3,4.5
				C70.7,115.3,71.3,117.1,72.7,117.9z"/>
			<polygon class="st5" points="115.3,72.4 125.9,101.5 135.4,98.7 124.3,68.3 			"/>
			<polygon class="st5" points="58.6,75.4 49.9,104 39.6,98.7 49.9,70.1 			"/>
			<polygon class="st6" points="123.1,93.9 115.3,72.4 118.2,95.2 			"/>
			<polygon class="st7" points="49.9,70.1 43.4,100.7 39.6,98.7 			"/>
			<polygon class="st8" points="-4.7,36 49.9,70.1 39,104 -4.7,79.7 			"/>
			<polygon class="st7" points="124.3,68.3 130.5,100.1 135.4,98.7 			"/>
			<polygon class="st9" points="179.7,36 124.3,68.3 136,104 179.7,79.7 			"/>
			<polygon class="st6" points="109.5,98.8 87.9,84.6 107.9,99.6 			"/>
			<polygon class="st10" points="42.8,92.1 -4.7,61.2 -4.7,79.7 39,104 			"/>
			<polygon class="st11" points="136,104 179.7,79.7 179.7,63.1 132.2,92.4 			"/>
			<path class="st3" d="M58.6,75.4c0.2,0.7-4.4,24-4.4,24l-2.5-1.2L58.6,75.4z"/>
			<g>
				<path class="st3" d="M89.5,118.1c-1,1.4-2.4,2.4-4,3.1c1.2,0.3,2.5,0,3.3-1c0.5-0.6,0.8-1.3,0.8-2
					C89.6,118.1,89.6,118.1,89.5,118.1z"/>
				<path class="st3" d="M107.9,105.3c1.5-1.8,1.4-4.4-0.3-6c-0.1,0.3-0.1,0.7-0.2,1.2c-0.3,2.6-1.9,5-4.3,6
					C104.8,107.1,106.7,106.7,107.9,105.3z"/>
				<path class="st3" d="M102.2,111.8c0.9-1.1,1.2-2.4,1-3.7c0,0.1-0.1,0.1-0.1,0.2c-1.3,2.2-3.5,3.9-6,4.6
					C98.8,113.6,100.9,113.2,102.2,111.8z"/>
				<path class="st3" d="M95.1,116.2c1-1.1,1.2-2.6,0.6-3.9c-0.5,0.2-0.7,1.1-1.1,1.7c-0.2,0.3-2.5,2.4-3.8,3.1
					C92.2,117.8,94,117.5,95.1,116.2z"/>
			</g>
			<path class="st6" d="M65,109.2l0.4-0.8c-2,0.4-4.2-0.6-5.4-2.3l-0.3,0.5c-0.7,1.4-0.1,3.2,1.3,3.9
				C62.6,111.2,64.3,110.6,65,109.2z"/>
			<path class="st6" d="M71.5,112.5c-2.1,0.4-4.3-0.6-5.4-2.3c-0.1-0.1-0.1-0.2-0.2-0.3l-0.3,0.5c-0.8,1.5-0.1,3.4,1.4,4.2
				c1.5,0.8,3.4,0.1,4.2-1.4L71.5,112.5C71.5,112.5,71.5,112.5,71.5,112.5z"/>
			<path class="st6" d="M76.7,116.5l0.2-0.5c-1.2,0.1-2.4,0-3.4-0.5c-0.9-0.5-1.6-1.3-1.9-2.2l-0.3,0.5c-0.7,1.5-0.1,3.3,1.3,4
				C74.2,118.6,76,118,76.7,116.5z"/>
			<path class="st6" d="M78.8,118.5c-0.9-0.5-1.6-1.4-1.6-2.4c0,0-0.1,0-0.1,0c-0.7,1.4-0.1,3.2,1.4,3.9c1.2,0.6,2.6,0.3,3.5-0.6
				C80.9,119.3,79.8,119,78.8,118.5z"/>
			<path class="st8" d="M-4.7,40.8c14.2,9.2,48,30.5,53.2,33.8l1.4-4.5L-4.7,36V40.8z"/>
			<path class="st9" d="M125.6,72c9.7-5.8,40.2-24.1,54.1-32.2V36l-55.4,32.3L125.6,72z"/>
		</g>
		<rect x="29.1" y="154" class="st12" width="116.8" height="21.8"/>
	</g>
</g>
</svg>
