<?xml version="1.0" encoding="utf-8"?>
<!-- Generator: Adobe Illustrator 23.0.3, SVG Export Plug-In . SVG Version: 6.00 Build 0)  -->
<svg version="1.1" id="Layer_1" xmlns="http://www.w3.org/2000/svg" xmlns:xlink="http://www.w3.org/1999/xlink" x="0px" y="0px"
	 viewBox="0 0 175 175" style="enable-background:new 0 0 175 175;" xml:space="preserve">
<style type="text/css">
	.st0{fill:#F3F8FE;}
	.st1{clip-path:url(#SVGID_2_);fill:#D2F0FF;}
	.st2{fill:#827DDC;}
	.st3{fill:#FFA800;}
	.st4{fill:#41378C;}
	.st5{fill:#A7A7F9;}
	.st6{fill:#B0B0FF;}
	.st7{fill:#5046AF;}
	.st8{fill:#8C8CD3;}
</style>
<circle class="st0" cx="87.5" cy="87.5" r="87.5"/>
<g>
	<defs>
		<circle id="SVGID_1_" cx="87.5" cy="87.5" r="87.5"/>
	</defs>
	<clipPath id="SVGID_2_">
		<use xlink:href="#SVGID_1_"  style="overflow:visible;"/>
	</clipPath>
	<rect x="29.1" y="154" class="st1" width="116.8" height="21.8"/>
</g>
<path id="XMLID_585_" class="st2" d="M35.9,112.8c0-0.3,0-0.6,0.1-0.9c0-0.1,0-0.1,0-0.2c0.1-0.2,0.1-0.5,0.2-0.7c0,0,0-0.1,0-0.1
	c0,0,0,0,0-0.1c0-0.1,0.1-0.1,0.1-0.2c0,0,0,0,0-0.1c0-0.1,0.1-0.1,0.1-0.2c0.1-0.1,0.1-0.2,0.2-0.3c0.1-0.2,0.2-0.3,0.4-0.5
	c0,0,0,0,0,0l0,0l0,0c0.1-0.1,0.3-0.3,0.5-0.4c0,0,0.1-0.1,0.1-0.1c0.1-0.1,0.3-0.2,0.4-0.2c0.1,0,0.1-0.1,0.2-0.1
	c0.2-0.1,0.4-0.2,0.6-0.2l1.4-0.5l2.9-0.9c1-0.3,1.8-1.2,2.2-2.2c1.4-4.4,3.9-8.2,7.1-11.4c-1.6-6-1.5-13.9,0.5-14.9
	c2.5-1.3,12,2.9,15.8,4.6c0.4,0.2,0.8,0.5,1.1,0.9c5.6-1.6,11.7-2.4,17.8-2.4c20.7,0,37.7,9,39.4,28.6c0,0,0,0,0,0c0,0,0,0,0,0
	c0,0.3,0,0.5,0.1,0.8c0,0,0,0,0,0c0,0,0,0.1,0,0.1c0,0.1,0,0.2,0,0.3c0,0.1,0,0.2,0,0.3c0,0,0,0.1,0,0.1c0,0.1,0,0.2,0,0.3
	c0,0.2,0,0.4,0,0.6c0,0.3,0,0.6,0,0.9c0,1.6-0.1,3.1-0.3,4.6c0,0,0,0,0,0c-0.1,0.8-0.2,1.6-0.4,2.4c-0.1,0.2-0.1,0.5-0.2,0.7
	c-0.1,0.6-0.3,1.1-0.4,1.6c0,0.1-0.1,0.2-0.1,0.4c0,0.1-0.1,0.2-0.1,0.3c-0.1,0.2-0.1,0.4-0.2,0.7c0,0,0,0.1,0,0.1c0,0,0,0.1,0,0.1
	c0,0,0,0,0,0.1c-0.2,0.6-0.4,1.1-0.7,1.7c0,0,0,0,0,0.1c0,0,0,0,0,0.1c0,0,0,0,0,0c-0.1,0.3-0.2,0.5-0.4,0.8c0,0,0,0.1-0.1,0.1
	c-0.1,0.2-0.2,0.5-0.4,0.7c0,0,0,0,0,0.1c0,0,0,0,0,0c0,0,0,0,0,0c-0.1,0.3-0.3,0.5-0.4,0.8c0,0.1-0.1,0.1-0.1,0.2
	c-0.1,0.2-0.2,0.3-0.3,0.5c-0.1,0.1-0.2,0.3-0.3,0.4c-0.3,0.5-0.6,0.9-0.9,1.4c0,0,0,0,0,0.1c0,0,0,0,0,0.1c0,0,0,0.1-0.1,0.1
	c-0.1,0.2-0.3,0.4-0.4,0.5c-0.1,0.1-0.1,0.1-0.2,0.2c-0.2,0.2-0.4,0.5-0.5,0.7c0,0,0,0,0,0c-0.2,0.2-0.4,0.4-0.6,0.7
	c-0.1,0.1-0.1,0.1-0.2,0.2c-0.1,0.2-0.3,0.3-0.4,0.5c0,0-0.1,0.1-0.1,0.1c0,0,0,0-0.1,0.1c0,0,0,0,0,0c-0.2,0.2-0.4,0.4-0.6,0.6
	c0,0,0,0,0,0c-0.2,0.2-0.5,0.5-0.7,0.7c-0.5,0.4-1,0.9-1.5,1.3c-0.5,0.4-1,0.8-1.6,1.2c-0.3,0.2-0.6,0.4-0.8,0.6
	c-0.3,0.2-0.5,0.3-0.8,0.5c0,0,0,0-0.1,0c0,0,0,0-0.1,0c0,0-0.1,0-0.1,0.1c-0.2,0.1-0.4,0.2-0.6,0.3c-0.1,0-0.2,0.1-0.2,0.1
	c-0.3,0.2-0.5,0.3-0.8,0.4c0,0,0,0,0,0c-0.1,0.1-0.2,0.1-0.3,0.2c0,0,0,0,0,0c-0.1,0.1-0.1,0.2-0.1,0.3c0,0,0,0,0,0l-2.2,11.2
	c0,0.1-0.1,0.3-0.1,0.4c0,0.1,0,0.1-0.1,0.2c0,0.1-0.1,0.1-0.1,0.2c0,0.1-0.1,0.1-0.1,0.2c0,0.1-0.1,0.1-0.1,0.2
	c0,0.1-0.1,0.1-0.1,0.2c0,0,0,0-0.1,0c0,0,0,0-0.1,0c0,0,0,0,0,0c0,0,0,0,0,0c0,0,0,0-0.1,0c0,0-0.1,0.1-0.1,0.1c0,0,0,0-0.1,0
	c0,0,0,0,0,0c0,0,0,0,0,0c-0.1,0-0.1,0.1-0.2,0.1c0,0,0,0,0,0c-0.1,0-0.1,0-0.2,0.1c0,0,0,0,0,0c0,0,0,0,0,0c0,0,0,0-0.1,0
	c0,0-0.1,0-0.1,0c0,0-0.1,0-0.1,0c0,0,0,0,0,0c0,0,0,0-0.1,0c0,0,0,0-0.1,0c0,0,0,0-0.1,0c-0.1,0-0.2,0-0.2,0h0h-7.3c0,0,0,0,0,0
	c-0.1,0-0.3,0-0.4,0c-0.1,0-0.1,0-0.1,0c-0.1,0-0.2-0.1-0.3-0.1c0,0-0.1,0-0.1,0c0,0-0.1,0-0.1-0.1c-0.1,0-0.1-0.1-0.2-0.1
	c0,0-0.1,0-0.1-0.1c0,0-0.1,0-0.1-0.1c0,0-0.1-0.1-0.1-0.1c0,0-0.1,0-0.1-0.1c0,0,0,0,0-0.1c-0.1-0.1-0.2-0.2-0.3-0.4c0,0,0,0,0,0
	c-0.1-0.1-0.1-0.2-0.2-0.3c0-0.1-0.1-0.2-0.1-0.4l-1.2-6.2c0-0.1-0.1-0.2-0.1-0.3c0,0,0,0,0,0c0-0.1-0.1-0.1-0.1-0.2
	c-0.1-0.1-0.1-0.1-0.2-0.1c0,0-0.1,0-0.1-0.1c0,0,0,0-0.1,0c-0.1,0-0.2,0-0.3,0c0,0,0,0,0,0c-0.4,0-0.8,0.1-1.2,0.1
	c-0.1,0-0.2,0-0.3,0c-0.4,0-0.8,0.1-1.2,0.1c0,0,0,0,0,0c-0.3,0-0.5,0-0.8,0c-0.1,0-0.1,0-0.2,0c-0.1,0-0.2,0-0.2,0
	c-0.1,0-0.2,0-0.3,0c-0.4,0-0.8,0-1.2,0c-0.6,0-1.2,0-1.8,0c-0.8,0-1.7,0-2.5,0c-0.4,0-0.8,0-1.3-0.1c0,0-0.1,0-0.1,0
	c-0.4,0-0.7,0-1.1-0.1c0,0,0,0,0,0c0,0,0,0-0.1,0c0,0,0,0,0,0c-0.3,0-0.7-0.1-1-0.1c-0.5,0-1-0.1-1.4-0.1c0,0,0,0-0.1,0c0,0,0,0,0,0
	c-0.4,0-0.8-0.1-1.1-0.1c-0.2,0-0.4-0.1-0.5-0.1c-0.2,0-0.4-0.1-0.6-0.1c-0.1,0-0.2,0-0.3,0c0,0-0.1,0-0.1,0c-0.1,0-0.1,0.1-0.2,0.1
	c0,0-0.1,0.1-0.1,0.1c0,0-0.1,0.1-0.1,0.1c0,0-0.1,0.1-0.1,0.1c0,0.1-0.1,0.2-0.1,0.2c0,0,0,0,0,0l-0.6,3.3l-0.6,3.3
	c-0.2,1.1-1.1,1.8-2.2,1.8h-7.3c0,0,0,0,0,0c-0.1,0-0.2,0-0.2,0c0,0,0,0-0.1,0c0,0,0,0-0.1,0c0,0,0,0-0.1,0c0,0,0,0,0,0
	c0,0-0.1,0-0.1,0c-0.1,0-0.1,0-0.1,0c0,0,0,0-0.1,0c0,0,0,0,0,0c0,0,0,0,0,0c0,0-0.1,0-0.1-0.1c0,0,0,0,0,0c0,0-0.1,0-0.1-0.1
	c0,0,0,0,0,0c0,0,0,0,0,0c0,0,0,0-0.1,0c0,0-0.1-0.1-0.1-0.1c0,0,0,0-0.1,0c0,0,0,0,0,0c0,0,0,0-0.1,0c0,0,0,0,0,0c0,0,0,0-0.1,0
	c-0.1,0-0.1-0.1-0.1-0.2c0,0,0,0,0,0l0,0c0,0,0,0,0-0.1c-0.1-0.1-0.1-0.1-0.2-0.2c-0.1-0.2-0.2-0.5-0.3-0.7l-2.2-11.9
	c-0.1-0.3-0.2-0.5-0.5-0.6l0,0c-0.2-0.1-0.3-0.2-0.5-0.3c-0.2-0.1-0.4-0.2-0.5-0.3c-0.2-0.1-0.3-0.2-0.5-0.3
	c-0.2-0.1-0.4-0.2-0.6-0.3c-0.2-0.1-0.3-0.2-0.5-0.3c-0.2-0.1-0.4-0.2-0.5-0.3c-0.2-0.1-0.3-0.2-0.5-0.3c-0.2-0.1-0.3-0.2-0.5-0.3
	c-0.2-0.1-0.3-0.2-0.5-0.3c-0.2-0.1-0.3-0.2-0.5-0.3c-0.2-0.1-0.3-0.2-0.4-0.3c-0.2-0.1-0.3-0.2-0.5-0.4l0,0c0,0,0,0,0,0
	c-0.1-0.1-0.3-0.2-0.4-0.3c-0.2-0.1-0.3-0.3-0.5-0.4c-0.1-0.1-0.3-0.2-0.4-0.4c-0.1-0.1-0.3-0.3-0.4-0.4c0,0,0,0,0,0l0,0
	c-0.1-0.1-0.3-0.3-0.4-0.4c-0.1-0.1-0.3-0.3-0.4-0.4c-0.1-0.1-0.3-0.3-0.4-0.4c-0.1-0.1-0.3-0.3-0.4-0.4c0,0,0,0,0,0c0,0,0,0,0,0
	c-0.1-0.1-0.2-0.3-0.4-0.4c-0.1-0.1-0.3-0.3-0.4-0.4c-0.1-0.1-0.2-0.3-0.4-0.4c-0.1-0.1-0.2-0.3-0.4-0.4c0,0,0,0,0,0l0,0
	c-0.1-0.1-0.2-0.3-0.3-0.4c-0.1-0.2-0.2-0.3-0.4-0.5c-0.1-0.1-0.2-0.3-0.3-0.4c-0.1-0.1-0.2-0.3-0.3-0.4c0,0,0,0,0,0
	c-0.1-0.1-0.2-0.3-0.3-0.4c-0.1-0.2-0.2-0.3-0.3-0.5c-0.1-0.2-0.2-0.4-0.4-0.6c-0.1-0.1-0.1-0.2-0.2-0.3c0,0,0,0,0,0
	c-0.4-0.7-1-1.2-1.8-1.5l0,0h0l-3.6-1.1l-3.4-1.1c-0.9-0.3-1.6-0.8-2.2-1.6c-0.5-0.7-0.8-1.6-0.8-2.5V112.8z"/>
<path id="XMLID_593_" class="st2" d="M131.4,108c-0.7-0.3-1.3-0.7-1.8-1.2c-1.7,1-3,1.7-3.1,1.7c-0.8,0.4-1.7,0-2.1-0.8
	c-0.3-0.8,0-1.7,0.8-2c0.8-0.4,1.7-0.9,2.5-1.3c-0.5-0.9-0.7-1.9-0.8-3c-0.1-2.4,0.9-4.6,2.5-5.7c1.3-0.8,2.9-0.9,4.4-0.1
	c2.2,1.1,2.6,2.6,2.6,3.7c0,1.8-1.4,3.7-4.1,5.7c0.1,0.1,0.3,0.2,0.4,0.2c2.8,1.4,5.1,0.9,6.5,0.3c0.8-0.3,1.7,0,2.1,0.8l0,0
	c0.4,0.8,0,1.7-0.7,2.1c-0.1,0.1-0.2,0.1-0.3,0.2C138.7,109.5,135.6,110.1,131.4,108z M131.1,98.3c-0.6,0.4-1.2,1.5-1.1,2.9
	c0,0.3,0.1,0.9,0.3,1.5c1.7-1.3,3-2.6,3-3.4c0-0.4-0.6-0.7-0.9-0.9c-0.6-0.3-0.9-0.2-1.2-0.1C131.2,98.3,131.1,98.3,131.1,98.3z"/>
<path id="XMLID_554_" class="st3" d="M77.6,90.6"/>
<path id="XMLID_556_" class="st4" d="M65.3,102.1c0,1.5-1.2,2.8-2.8,2.8s-2.8-1.2-2.8-2.8c0-1.5,1.2-2.8,2.8-2.8
	S65.3,100.6,65.3,102.1z"/>
<g id="XMLID_557_">
	<path id="XMLID_598_" class="st5" d="M77.7,93.3c-0.9,0-1.7-0.4-2.1-1.2c-0.6-1.1-0.1-2.4,1.1-3c0.4-0.2,9.8-4.4,24.2-0.3
		c1.3,0.4,2,1.6,1.6,2.8c-0.4,1.2-1.7,1.8-3,1.5c-12.7-3.6-20.6,0-20.7,0C78.4,93.2,78.1,93.3,77.7,93.3z"/>
</g>
<circle id="XMLID_532_" class="st6" cx="88.9" cy="39.8" r="16.9"/>
<path id="XMLID_592_" class="st7" d="M88.9,58.6c-10.4,0-18.8-8.4-18.8-18.8c0-10.4,8.4-18.8,18.8-18.8c10.4,0,18.8,8.4,18.8,18.8
	C107.7,50.2,99.3,58.6,88.9,58.6z M88.9,24.9c-8.2,0-14.9,6.7-14.9,14.9c0,8.2,6.7,14.9,14.9,14.9s14.9-6.7,14.9-14.9
	C103.8,31.6,97.2,24.9,88.9,24.9z"/>
<g id="XMLID_599_">
	<path id="XMLID_597_" class="st8" d="M84.8,80.2h-1c-0.5,0-0.9-0.4-0.9-0.9V62.5c0-0.5,0.4-0.9,0.9-0.9h1c0.5,0,0.9,0.4,0.9,0.9
		v16.8C85.6,79.8,85.2,80.2,84.8,80.2z"/>
	<path id="XMLID_602_" class="st8" d="M94.1,80.6h-1c-0.5,0-0.9-0.4-0.9-0.9V61.1c0-0.5,0.4-0.9,0.9-0.9h1c0.5,0,0.9,0.4,0.9,0.9
		v18.6C95,80.2,94.6,80.6,94.1,80.6z"/>
	<path id="XMLID_600_" class="st8" d="M89.3,76.4h-1c-0.5,0-0.9-0.4-0.9-0.9V63.4c0-0.5,0.4-0.9,0.9-0.9h1c0.5,0,0.9,0.4,0.9,0.9
		v12.2C90.1,76.1,89.8,76.4,89.3,76.4z"/>
</g>
<g>
	<path class="st7" d="M88.6,40.6c0.3,1.1,0,2.2-0.8,2.9v0.2c0.8-0.1,2.4-0.2,2.6-0.2h3.4v2.3H83.2v-2.3c3.3-0.2,3-1.7,2.7-2.9h-2.3
		v-1.4h1.8c-0.5-1.2-0.8-2.1-0.8-3c0-2.3,2-3.8,4.6-3.8c3.1,0,4.3,2.2,4.3,4h-2.6c0-0.8-0.5-1.5-1.7-1.5c-1.1,0-1.8,0.6-1.8,1.5
		c0,0.7,0.3,1.8,0.8,2.9h3.3v1.4H88.6z"/>
</g>
</svg>
