<?xml version="1.0" encoding="utf-8"?>
<!-- Generator: Adobe Illustrator 23.1.1, SVG Export Plug-In . SVG Version: 6.00 Build 0)  -->
<svg version="1.1" id="Layer_1" xmlns="http://www.w3.org/2000/svg" xmlns:xlink="http://www.w3.org/1999/xlink" x="0px" y="0px"
	 viewBox="0 0 119.4 42.4" style="enable-background:new 0 0 119.4 42.4;" xml:space="preserve">
<style type="text/css">
	.st0{fill:#3E6BAD;}
	.st1{fill:#FFFFFF;}
</style>
<g>
	<path class="st0" d="M118.5,30.3L118.5,30.3c-0.5-0.9-1.2-1.9-2.1-3.1l0-0.1c-0.6-0.8-0.9-1.2-1.1-1.5c-0.1-0.1-0.1-0.2-0.1-0.3
		c0-0.2,0.1-0.6,0.5-1.4c0.2-0.5,0.4-0.9,0.6-1.4c0.2-0.6,0.3-1,0.3-1.4c0-1.1-0.6-2.1-1.7-2.6c-0.6-0.3-1.3-0.4-2.4-0.4
		c-3.3,0-4.6,1.9-5.1,3c-0.2,0.6-0.5,1.1-0.7,1.6c-0.4,1-0.8,1.9-1.1,2.5c-0.1,0.1-0.1,0.2-0.2,0.3c-0.1-0.5-0.3-1-0.5-1.5
		c-0.7-1.6-1.8-2.9-3.2-3.9c-1.5-1-3.2-1.6-5.2-1.6c-2,0-3.9,0.6-5.5,1.7c-1.5,1-2.7,2.5-3.6,4.2c-0.5-1.2-1.1-2.2-1.9-3.2
		c-1.6-1.9-3.8-2.8-6.4-2.8c-2,0-3.9,0.6-5.6,1.7c-0.5,0.3-0.9,0.6-1.3,1c0.1-0.2,0.2-0.5,0.3-0.7C74,16.3,75,12.3,75,8.9
		c0-2.6-0.5-4.6-1.4-6.2C72.4,1,70.8,0,68.8,0c-3.1,0-5.6,1.9-7.6,5.5c-1.7,3.1-3,6.9-3.9,11.2c-0.5,2.5-0.9,4.8-1.1,7
		c-0.4-0.8-0.9-1.6-1.6-2.3c-1.6-1.9-3.8-2.8-6.4-2.8c-2,0-3.9,0.6-5.6,1.7c-1.6,1-2.9,2.5-3.8,4.3c-0.5-1.2-1.1-2.2-1.9-3.2
		c-1.6-1.9-3.8-2.8-6.4-2.8c-2,0-3.9,0.6-5.6,1.7c-0.5,0.3-0.9,0.6-1.3,1c0.1-0.2,0.2-0.5,0.3-0.7c1.8-4.4,2.8-8.3,2.8-11.7
		c0-2.6-0.5-4.6-1.4-6.2C24,1,22.4,0,20.3,0c-3.1,0-5.6,1.9-7.6,5.5c-1.7,3.1-3,6.9-3.9,11.2c-0.8,4.1-1.3,7.8-1.3,11
		c-0.5-0.4-0.9-0.9-1.4-1.7c-0.7-1-1.7-1.5-2.8-1.5c-1.1,0-2,0.5-2.6,1.5C0.2,26.6,0,27.5,0,28.4C0,29.8,0.3,31,1,32
		c1.9,2.9,4.7,4.5,8.1,4.6c0.1,0.2,0.2,0.5,0.3,0.7c1.5,2.8,3.9,4.3,7,4.3c2.1,0,4-0.6,5.7-1.7c0.2-0.2,0.5-0.3,0.7-0.5
		c0.3,0.3,0.6,0.5,0.9,0.7c1.5,1,3.2,1.5,5.2,1.5c2.4,0,4.6-0.9,6.4-2.5c1.1-1,1.9-2.1,2.6-3.4c0.1,0.2,0.2,0.4,0.2,0.6
		c0.7,1.6,1.8,2.9,3.3,3.9c1.5,1,3.2,1.5,5.2,1.5c2.4,0,4.6-0.9,6.4-2.5c1.4-1.3,2.5-2.9,3.2-4.9c0.1,0,0.1,0,0.2,0
		c0.3,1.2,0.7,2.2,1.2,3.1c1.5,2.8,3.9,4.3,7,4.3c2.1,0,4-0.6,5.7-1.7c0.2-0.2,0.5-0.3,0.7-0.5c0.3,0.3,0.6,0.5,0.9,0.7
		c1.5,1,3.2,1.5,5.2,1.5c2.4,0,4.6-0.9,6.4-2.5c1.1-1,1.9-2.1,2.6-3.4c0.1,0.2,0.1,0.3,0.2,0.5c0.7,1.6,1.8,2.9,3.2,3.9
		c1.5,1,3.2,1.6,5.2,1.6c2,0,3.9-0.6,5.5-1.7c1.6-1.1,2.8-2.5,3.8-4.4c0.3-0.1,0.7-0.2,1-0.4c-0.3,0.6-0.5,1.3-0.5,2.1
		c0,1,0.3,2.4,1.8,3.7c1.1,1,2.6,1.5,4.5,1.5c1.6,0,3.1-0.4,4.3-1.3c1.2-0.8,2.2-1.9,2.9-3.2c0.7-1.3,1-2.7,1-4.1
		C119.4,32.6,119.1,31.3,118.5,30.3z"/>
	<g>
		<path class="st1" d="M116.7,31.3c-0.4-0.8-1.1-1.7-1.9-2.8c-0.6-0.7-1-1.3-1.3-1.8c-0.3-0.5-0.4-0.9-0.4-1.3
			c0-0.7,0.2-1.5,0.7-2.4c0.2-0.3,0.3-0.7,0.4-1c0.1-0.3,0.2-0.6,0.2-0.7c0-0.3-0.1-0.5-0.4-0.6c-0.3-0.1-0.8-0.2-1.5-0.2
			c-1.6,0-2.6,0.6-3.1,1.7c-0.8,1.8-1.3,3.3-1.9,4.3c-0.6,1.1-1.7,2.5-3.7,3.2c0-0.2,0-0.4,0-0.6c0-1.4-0.3-2.8-0.8-4.1
			c-0.6-1.3-1.4-2.3-2.5-3.1c-1.1-0.8-2.4-1.2-4-1.2c-1.6,0-3.1,0.4-4.3,1.3c-1.3,0.9-2.3,2.1-3.1,3.7c-0.3,0.6-0.5,1.2-0.7,1.8
			c-0.9,0.2-1.8,0.3-2.5,0.3c-0.2-2-0.9-3.7-2.1-5.1c-1.2-1.4-2.8-2.1-4.8-2.1c-1.6,0-3.1,0.4-4.5,1.3C73,23,72,24.2,71.2,25.8
			c-0.8,1.6-1.1,3.3-1.1,5.3c0,0.5,0,1,0.1,1.5c-0.6,0.6-1.2,1.1-1.6,1.5c-0.8,0.6-1.8,0.9-2.8,0.9c-0.7,0-1.2-0.2-1.7-0.7
			c-0.4-0.5-0.7-1.2-0.9-2.3c3-4,5.3-8.1,7.1-12.3c1.7-4.1,2.6-7.8,2.6-10.9c0-2.2-0.4-3.9-1.1-5c-0.7-1.2-1.7-1.8-3-1.8
			c-2.2,0-4.2,1.5-5.8,4.4c-1.6,2.9-2.8,6.5-3.7,10.6c-0.8,3.9-1.2,7.3-1.2,10.4C57,27.8,56,27.9,55.2,28c-0.2-2-0.9-3.7-2.1-5.1
			c-1.2-1.4-2.8-2.1-4.8-2.1c-1.6,0-3.1,0.4-4.5,1.3c-1.3,0.9-2.4,2.1-3.2,3.7c-0.3,0.6-0.5,1.2-0.7,1.8c-0.9,0.2-1.8,0.3-2.5,0.4
			c-0.2-2-0.9-3.7-2.1-5.1c-1.2-1.4-2.8-2.1-4.8-2.1c-1.6,0-3.1,0.4-4.5,1.3c-1.3,0.9-2.4,2.1-3.2,3.7c-0.8,1.6-1.1,3.3-1.1,5.3
			c0,0.5,0,1,0.1,1.5c-0.6,0.6-1.2,1.1-1.6,1.5c-0.8,0.6-1.8,0.9-2.8,0.9c-0.7,0-1.2-0.2-1.7-0.7c-0.4-0.5-0.7-1.2-0.9-2.3
			c3-4,5.3-8.1,7.1-12.3c1.7-4.1,2.6-7.8,2.6-10.9c0-2.2-0.4-3.9-1.1-5c-0.7-1.2-1.7-1.8-3-1.8c-2.2,0-4.2,1.5-5.8,4.4
			c-1.6,2.9-2.8,6.5-3.7,10.6c-0.8,4.1-1.2,7.8-1.2,11c0,0.7,0,1.3,0.1,2c-0.3,0.2-0.7,0.3-1.1,0.3c-1.4,0-2.9-1-4.3-3.1
			c-0.3-0.4-0.6-0.6-1.1-0.6c-0.3,0-0.6,0.2-0.8,0.5c-0.2,0.3-0.3,0.7-0.3,1.3c0,0.9,0.2,1.8,0.7,2.4c1.6,2.4,3.8,3.6,6.6,3.6
			c0.4,0,0.8,0,1.1-0.1c0.2,0.7,0.5,1.3,0.8,1.9c1.1,2.1,2.8,3.2,5.1,3.2c1.7,0,3.2-0.4,4.5-1.3c0.7-0.5,1.5-1.1,2.1-1.8
			c0.5,0.8,1.1,1.4,1.9,1.9c1.1,0.8,2.5,1.1,4,1.1c1.9,0,3.5-0.7,5-2c1.5-1.3,2.5-3.1,3-5.3c0.8,0,1.6-0.1,2.4-0.2
			c0.1,1.2,0.4,2.3,0.8,3.4c0.6,1.3,1.4,2.3,2.5,3c1.1,0.8,2.5,1.1,4,1.1c1.9,0,3.5-0.7,5-2c1.5-1.3,2.5-3.1,3-5.3
			c1.2-0.1,2.4-0.2,3.5-0.5c0.3,1.8,0.7,3.3,1.4,4.6c1.1,2.1,2.8,3.2,5.1,3.2c1.7,0,3.2-0.4,4.5-1.3c0.7-0.5,1.5-1.1,2.1-1.8
			c0.5,0.8,1.1,1.4,1.9,1.9c1.1,0.8,2.5,1.1,4,1.1c1.9,0,3.5-0.7,5-2c1.5-1.3,2.5-3.1,3-5.3c0.8,0,1.6-0.1,2.4-0.2
			c0.1,1.2,0.3,2.3,0.8,3.3c0.6,1.3,1.4,2.3,2.5,3.1c1.1,0.8,2.4,1.2,4,1.2c1.6,0,3-0.4,4.3-1.3c1.3-0.9,2.3-2.1,3.1-3.7
			c0.1-0.2,0.2-0.5,0.3-0.7c2.4-0.7,5.3-2,6.7-4c0.4,0.4,0.8,0.9,1.2,1.5c0.4,0.6,0.8,1.2,1,1.8c0.3,0.6,0.4,1.2,0.5,1.9
			c-0.2,0-0.6-0.1-1-0.1c-0.5-0.1-0.9-0.1-1.2-0.1c-1,0-1.7,0.3-2.2,0.7c-0.5,0.5-0.7,1.1-0.7,1.8c0,0.8,0.4,1.5,1.1,2.1
			c0.7,0.6,1.8,0.9,3.1,0.9c1.2,0,2.2-0.3,3.2-0.9c0.9-0.6,1.6-1.4,2.1-2.4c0.5-1,0.8-2,0.8-3.1C117.3,32.9,117.1,32.1,116.7,31.3z
			 M15.4,17.4c0.6-3.2,1.2-5.9,2-8.1C18.2,7.1,18.9,6,19.5,6c0.7,0,1.1,1,1.1,3c0,2.5-0.6,5.4-1.7,8.5c-1.1,3.1-2.6,6.2-4.5,9.2
			C14.5,23.8,14.8,20.7,15.4,17.4z M31.6,34.2c-0.6,0.7-1.3,1-2.2,1c-0.8,0-1.4-0.4-2-1.1c-0.6-0.8-0.8-1.9-0.8-3.3
			c0-1.8,0.3-3.3,1-4.3c0.7-1,1.6-1.5,2.6-1.5h0.2c-0.1,0.4-0.1,0.8-0.1,1.3c0,1,0.2,1.9,0.7,2.8c0.4,0.9,1.1,1.6,1.9,2.2
			C32.6,32.5,32.2,33.5,31.6,34.2z M49.4,34.2c-0.6,0.7-1.3,1-2.2,1c-0.8,0-1.4-0.4-2-1.1c-0.6-0.8-0.8-1.9-0.8-3.3
			c0-1.8,0.3-3.3,1-4.3c0.7-1,1.6-1.5,2.6-1.5h0.2c-0.1,0.4-0.1,0.8-0.1,1.3c0,1,0.2,1.9,0.7,2.8c0.4,0.9,1.1,1.6,1.9,2.2
			C50.4,32.5,50,33.5,49.4,34.2z M63.8,17.4c0.6-3.2,1.2-5.9,2-8.1C66.6,7.1,67.3,6,67.9,6C68.6,6,69,7,69,9c0,2.5-0.6,5.4-1.7,8.5
			c-1.1,3.1-2.6,6.2-4.5,9.2C62.9,23.8,63.3,20.7,63.8,17.4z M80,34.2c-0.6,0.7-1.3,1-2.2,1c-0.8,0-1.4-0.4-2-1.1
			c-0.6-0.8-0.8-1.9-0.8-3.3c0-1.8,0.3-3.3,1-4.3c0.7-1,1.6-1.5,2.6-1.5h0.2c-0.1,0.4-0.1,0.8-0.1,1.3c0,1,0.2,1.9,0.7,2.8
			c0.4,0.9,1.1,1.6,1.9,2.2C81,32.5,80.6,33.5,80,34.2z M97.8,33.7c-0.6,1-1.4,1.5-2.3,1.5c-0.8,0-1.4-0.4-2-1.1
			c-0.5-0.7-0.8-1.8-0.8-3.3c0-1.9,0.3-3.3,0.9-4.3c0.6-1,1.4-1.4,2.3-1.4c0.7,0,1.4,0.4,1.9,1.1c0.5,0.7,0.8,1.8,0.8,3.3
			C98.7,31.3,98.4,32.7,97.8,33.7z"/>
	</g>
</g>
</svg>
