<?xml version="1.0" encoding="utf-8"?>
<!-- Generator: Adobe Illustrator 19.0.0, SVG Export Plug-In . SVG Version: 6.00 Build 0)  -->
<svg version="1.1" id="Layer_1" xmlns="http://www.w3.org/2000/svg" xmlns:xlink="http://www.w3.org/1999/xlink" x="0px" y="0px"
	 viewBox="0 0 60 50" style="enable-background:new 0 0 60 50;" xml:space="preserve">
<style type="text/css">
	.st0{fill:#336CB4;}
</style>
<g id="XMLID_181_">
	<path id="XMLID_202_" class="st0" d="M28.184,6.324l-9.086-1.773c-0.394-0.077-0.793,0.105-0.995,0.452
		c-0.136,0.234-3.345,5.826-4.74,12.977c-0.322,1.65-0.464,3.288-0.431,4.846c0.015,1.22,0.162,2.448,0.437,3.636
		c0.078,0.337,0.169,0.671,0.272,1.001c0.775,2.475,2.107,4.166,3.802,4.865L15.48,42.905l-4.226-0.825
		c-1.07-0.209-2.175,0.387-2.582,1.399c-0.069,0.172-0.111,0.349-0.146,0.53c-0.034,0.171-0.071,0.342-0.083,0.517
		c-0.038,0.553,0.13,1.107,0.464,1.549c0.341,0.451,0.842,0.762,1.397,0.87l10.31,2.012c0.894,0.174,1.842-0.223,2.354-0.974
		c0.134-0.197,0.237-0.415,0.301-0.644c0.079-0.281,0.143-0.584,0.157-0.876c0.026-0.535-0.143-1.073-0.466-1.501
		c-0.339-0.449-0.845-0.764-1.398-0.872l-4.235-0.827l1.963-10.58c1.731-0.016,3.493-0.973,5.072-2.769
		c0.129-0.146,0.253-0.297,0.375-0.45c1.159-1.445,2.128-3.266,2.84-5.308c0.367-1.055,0.658-2.139,0.872-3.235
		c1.396-7.151,0.524-13.538,0.486-13.807C28.88,6.719,28.578,6.401,28.184,6.324z M21.474,46.12
		c0.072,0.107,0.077,0.235,0.059,0.359c-0.016,0.114-0.037,0.24-0.079,0.348c-0.076,0.198-0.265,0.327-0.48,0.285l-10.309-2.012
		c-0.124-0.024-0.233-0.105-0.293-0.216c-0.082-0.151-0.037-0.308-0.007-0.466c0.027-0.142,0.048-0.282,0.16-0.385
		c0.099-0.089,0.237-0.13,0.368-0.104l10.31,2.012C21.353,45.969,21.437,46.065,21.474,46.12z M19.414,6.531l7.733,1.509
		c0.179,1.79,0.539,6.97-0.545,12.524c-0.086,0.443-0.187,0.878-0.297,1.306h-11.49c0.031-1.144,0.162-2.331,0.396-3.529
		C16.292,12.797,18.576,8.124,19.414,6.531z M24.921,25.654c-0.479,0.977-1.054,1.915-1.747,2.756
		c-1.011,1.228-2.077,2.004-3.104,2.28c-0.517,0.137-1.061,0.155-1.579,0.011c-0.873-0.243-1.635-0.918-2.237-1.922
		c-0.695-1.167-1.064-2.52-1.263-3.855c-0.058-0.389-0.101-0.78-0.13-1.172h10.864C25.491,24.399,25.225,25.036,24.921,25.654z"/>
	<path id="XMLID_111_" class="st0" d="M24.952,17.338c0.029,0.003,0.058,0.004,0.087,0.004c0.481,0,0.892-0.367,0.936-0.856
		c0.177-1.936,0.226-3.936,0.146-5.946c-0.021-0.52-0.454-0.924-0.978-0.903c-0.52,0.021-0.924,0.458-0.903,0.978
		c0.077,1.928,0.029,3.846-0.14,5.701C24.052,16.833,24.434,17.291,24.952,17.338z"/>
	<path id="XMLID_196_" class="st0" d="M51.52,44.24c-0.067-0.345-0.141-0.693-0.308-1.006c-0.143-0.268-0.347-0.504-0.584-0.693
		c-0.527-0.419-1.218-0.59-1.88-0.461l-4.231,0.825l-2.065-10.582c3.628-1.508,5.405-7.518,4.073-14.344
		c-1.395-7.151-4.604-12.743-4.74-12.977c-0.201-0.347-0.601-0.529-0.995-0.452l-9.087,1.773c-0.394,0.077-0.696,0.396-0.752,0.793
		c-0.038,0.268-0.909,6.656,0.486,13.807c1.332,6.826,5.238,11.728,9.167,11.762l2.065,10.582l-4.231,0.825
		c-0.881,0.172-1.604,0.877-1.808,1.75c-0.12,0.518-0.041,1.073,0.123,1.573c0.16,0.487,0.485,0.914,0.911,1.198
		c0.502,0.334,1.13,0.461,1.722,0.345l10.31-2.012C50.931,46.706,51.762,45.475,51.52,44.24z M32.741,8.039l7.732-1.509
		c0.839,1.594,3.122,6.267,4.204,11.81c0.048,0.246,0.091,0.491,0.13,0.735h-11.78C32.268,14.113,32.579,9.67,32.741,8.039z
		 M49.608,44.919c-0.037,0.055-0.12,0.15-0.271,0.179l-10.309,2.012c-0.13,0.025-0.27-0.015-0.368-0.104
		c-0.112-0.101-0.134-0.246-0.161-0.386c-0.028-0.144-0.068-0.296-0.006-0.436c0.055-0.125,0.172-0.219,0.307-0.245l10.309-2.012
		c0.212-0.041,0.403,0.091,0.48,0.285C49.667,44.411,49.736,44.729,49.608,44.919z M40.463,30.798
		c-0.812-0.049-1.571-0.42-2.218-0.896s-1.204-1.064-1.697-1.695c-0.299-0.382-0.573-0.783-0.828-1.196
		c-0.484-0.784-0.927-1.667-1.312-2.626c-0.447-1.109-0.79-2.26-1.041-3.428h11.657c0.12,1.713,0.045,3.465-0.353,5.14
		c-0.114,0.478-0.255,0.95-0.431,1.408c-0.661,1.727-1.652,2.847-2.812,3.186C41.116,30.782,40.789,30.817,40.463,30.798z"/>
	<path id="XMLID_106_" class="st0" d="M30.745,1.941c0-0.52-0.422-0.941-0.941-0.941c-0.52,0-0.941,0.422-0.941,0.941v3.058
		c0,0.52,0.421,0.941,0.941,0.941c0.52,0,0.941-0.422,0.941-0.941V1.941z"/>
	<path id="XMLID_105_" class="st0" d="M25.987,4.562c0.177,0.292,0.487,0.453,0.806,0.453c0.166,0,0.335-0.044,0.487-0.137
		c0.444-0.27,0.586-0.849,0.316-1.293l-1.16-1.91c-0.27-0.444-0.849-0.586-1.293-0.316c-0.444,0.27-0.586,0.849-0.316,1.293
		L25.987,4.562z"/>
	<path id="XMLID_104_" class="st0" d="M32.515,4.878c0.152,0.093,0.321,0.137,0.487,0.137c0.318,0,0.628-0.161,0.806-0.453
		l1.16-1.91c0.27-0.444,0.129-1.023-0.316-1.293c-0.445-0.27-1.023-0.129-1.293,0.316l-1.16,1.91
		C31.929,4.029,32.07,4.608,32.515,4.878z"/>
	<path id="XMLID_103_" class="st0" d="M39.819,12.72c0.358,0.981,0.682,1.976,0.965,2.982c0.112,0.398,0.174,0.816,0.557,1.047
		c0.337,0.203,0.779,0.171,1.083-0.079c0.285-0.234,0.402-0.615,0.312-0.97c-0.123-0.488-0.27-0.972-0.418-1.453
		c-0.153-0.498-0.316-0.994-0.487-1.487c-0.085-0.244-0.161-0.495-0.263-0.733c-0.069-0.162-0.185-0.303-0.33-0.403
		c-0.331-0.229-0.784-0.219-1.105,0.025C39.808,11.895,39.678,12.337,39.819,12.72z"/>
	<path id="XMLID_102_" class="st0" d="M25.453,20.129c0,0.522-0.423,0.945-0.945,0.945c-0.522,0-0.945-0.423-0.945-0.945
		c0-0.522,0.423-0.945,0.945-0.945C25.03,19.183,25.453,19.606,25.453,20.129z"/>
	<path id="XMLID_101_" class="st0" d="M40.23,8.928c0,0.522-0.423,0.945-0.945,0.945s-0.945-0.423-0.945-0.945
		c0-0.522,0.423-0.945,0.945-0.945S40.23,8.406,40.23,8.928z"/>
</g>
</svg>
