<?xml version="1.0" encoding="utf-8"?>
<!-- Generator: Adobe Illustrator 19.0.0, SVG Export Plug-In . SVG Version: 6.00 Build 0)  -->
<svg version="1.1" id="Layer_1" xmlns="http://www.w3.org/2000/svg" xmlns:xlink="http://www.w3.org/1999/xlink" x="0px" y="0px"
	 viewBox="0 0 150 42.4" style="enable-background:new 0 0 150 42.4;" xml:space="preserve">
<style type="text/css">
	.st0{fill:#FFFFFF;}
	.st1{fill:#356CB1;}
</style>
<path class="st0" d="M8.6,42.4c-1.7,0-2.9-0.5-3.7-1.4c-0.7-0.9-1.1-2.1-1-3.5c0.3-4,0.8-8.2,1.5-12.5c0.7-4.3,1.7-8.6,2.8-12.6
	c0-0.1,0-0.1,0-0.2c-0.4,0.2-0.7,0.4-1.1,0.6c-1.3,0.7-2.4,1.1-3.4,1.1c-1.2,0-2.2-0.5-2.9-1.4C0.3,11.8,0,10.9,0,9.9
	C0,8.9,0.2,7.9,0.7,7c0.5-0.9,1.4-1.6,2.9-2.5C6.1,3.1,9.1,2,12.4,1.2C15.7,0.4,19.1,0,22.6,0c5.5,0,9.6,1,12.5,2.9
	c3,2.1,4.7,5,4.7,8.5c0,2.9-1.1,5.5-3.1,7.6c-1,1-2.2,1.9-3.7,2.6c0.1,0.1,0.3,0.3,0.4,0.5c1.2,1.5,1.8,3.2,1.8,5.1
	c0,2.7-0.9,5.1-2.6,7.1c-1.6,1.9-4,3.4-7,4.4c-2.9,0.9-6.3,1.4-10.2,1.4c-0.7,0-1.3,0-1.8,0c-0.3,0.5-0.8,1-1.4,1.3
	C11.2,42.1,10,42.4,8.6,42.4 M14.7,31.3c0.3,0,0.6,0,0.9,0c4.3,0,6.4-0.7,7.4-1.4c1.5-0.9,1.7-1.8,1.7-2.5c0-0.4-0.1-0.9-0.7-1.4
	c-0.4-0.3-1.4-0.8-4-0.9c-1.2-0.1-2.1-0.4-2.7-1.1c-0.6-0.7-0.9-1.6-0.9-2.7c0-0.1,0-0.2,0-0.3c-0.1,0.7-0.3,1.3-0.4,2
	C15.4,25.9,15,28.7,14.7,31.3 M16.6,9.5c1.6,0.9,1.8,2.4,1.8,3c0,0.6-0.1,1.3-0.4,2c-0.4,1.2-0.8,2.6-1.2,4.3
	c0.1-0.2,0.2-0.5,0.4-0.7c0.5-0.8,1.5-1.7,3.6-1.8c1.8-0.1,3.4-0.3,4.7-0.8c1.3-0.4,2.2-1,2.9-1.7c0.5-0.6,0.8-1.1,0.8-1.9
	c0-0.6-0.2-1.3-1.3-1.9c-0.9-0.5-2.6-1.1-6.2-1.1C20,9.1,18.3,9.2,16.6,9.5"/>
<path class="st0" d="M140.2,40.3c-1.8,0-3.4-0.5-4.8-1.4c-1.3-0.9-2.3-2.1-2.9-3.6c-0.1-0.2-0.2-0.4-0.2-0.6
	c-0.6,1.3-1.4,2.4-2.4,3.3c-1.7,1.5-3.7,2.3-5.9,2.3c-1.8,0-3.4-0.5-4.8-1.4c-0.3-0.2-0.6-0.4-0.9-0.7c-0.2,0.2-0.5,0.4-0.7,0.5
	c-1.5,1-3.3,1.6-5.2,1.6c-2.2,0-4.1-0.8-5.4-2.4c-0.3,0.3-0.6,0.5-0.9,0.7c-2.7,2-5.6,2.2-7.8,0.4c-0.2-0.2-0.4-0.3-0.5-0.5
	c-1.6,1.4-3.3,1.7-4.5,1.7c-1.7,0-3.2-0.5-4.4-1.6c0,0,0,0-0.1,0c-1.4,1-3.1,1.6-5.1,1.6c-2.4,0-4.3-0.7-5.8-2.1
	c-0.5-0.5-0.9-1-1.2-1.5c-0.3,1.1-0.7,1.8-1.2,2.4c-0.5,0.6-1.4,1.2-3.1,1.2c-1.4,0-2.5-0.6-3.2-1.7c-0.5-0.8-0.8-1.9-1-3.4
	c0-0.3-0.1-0.7-0.1-1.1c-0.6,1.5-1.5,2.8-2.6,3.8c-1.7,1.5-3.7,2.3-5.9,2.3c-1.8,0-3.4-0.5-4.8-1.4c-1.3-0.9-2.3-2.1-3-3.6
	c-0.1-0.2-0.2-0.4-0.3-0.7C50.9,35.9,50.1,37,49,38c-1.7,1.5-3.7,2.3-5.9,2.3c-1.8,0-3.4-0.5-4.8-1.4c-1.3-0.9-2.3-2.1-3-3.6
	c-0.6-1.4-1-2.9-1-4.6c0-2.1,0.4-4.1,1.2-5.8c0.9-1.7,2.1-3.1,3.6-4.1c1.5-1,3.3-1.5,5.1-1.5c2.4,0,4.4,0.9,5.9,2.5
	c0.8,0.9,1.4,1.9,1.8,3.1c0.8-1.7,2-3.1,3.5-4.1c1.5-1,3.3-1.5,5.2-1.5c2.4,0,4.4,0.9,5.9,2.5c0.7,0.8,1.2,1.6,1.6,2.6
	c0.2-2.1,0.5-4.3,0.9-6.4c0.8-4.2,2-7.8,3.6-10.8c1.8-3.4,4.2-5.1,7-5.1c1.7,0,3.2,0.8,4.2,2.2c0.9,1.3,1.4,2.9,1.4,4.8
	c0,2.8-0.8,5.6-2.4,8.5c-0.3,0.5-0.6,1.1-1,1.7c1.9-0.1,3.6,0.5,4.8,1.8c1,1.1,1.5,2.4,1.6,3.9c1-1.6,2.2-2.9,3.7-3.9
	c1.8-1.3,3.8-1.9,5.8-1.9c1.1,0,1.9,0.3,2.5,1c0.1,0.1,0.2,0.2,0.3,0.3c0.1,0,0.3,0,0.4,0c2,0,3.1,0.9,3.5,2
	c0.2-1.6,0.5-3.3,0.8-5.1c0.8-4,2-7.4,3.6-10.3c1.8-3.4,4.2-5.1,7-5.1c1.8,0,3.3,0.9,4.4,2.5c0.9,1.4,1.3,3.2,1.3,5.6
	c0,3.1-0.9,6.8-2.5,10.8c-0.1,0.3-0.3,0.7-0.4,1c0.4-0.4,0.9-0.8,1.5-1.2c1.5-1,3.3-1.5,5.1-1.5c2.4,0,4.4,0.9,5.9,2.5
	c0.8,0.9,1.4,1.9,1.8,3c0.8-1.7,2-3.1,3.4-4c1.5-1,3.2-1.5,5.1-1.5c1.8,0,3.4,0.5,4.8,1.4c1.3,0.9,2.3,2.1,2.9,3.6
	c0.6,1.4,0.9,2.9,0.9,4.5c0,2.1-0.4,4.1-1.2,5.8c-0.8,1.7-2,3.1-3.5,4.1C143.7,39.8,142,40.3,140.2,40.3"/>
<path class="st1" d="M147.3,25.1c-0.5-1.2-1.3-2.1-2.3-2.8c-1-0.7-2.2-1.1-3.7-1.1c-1.5,0-2.8,0.4-4,1.2c-1.2,0.8-2.1,1.9-2.8,3.4
	c-0.3,0.5-0.4,1.1-0.6,1.7c-0.9,0.2-1.6,0.3-2.3,0.3c-0.2-1.9-0.9-3.4-2-4.7c-1.1-1.3-2.6-1.9-4.5-1.9c-1.5,0-2.9,0.4-4.1,1.2
	c-1.2,0.8-2.2,1.9-2.9,3.4c-0.7,1.4-1.1,3.1-1.1,4.9c0,0.5,0,0.9,0.1,1.4c-0.6,0.6-1.1,1.1-1.5,1.4c-0.8,0.6-1.6,0.9-2.6,0.9
	c-0.6,0-1.1-0.2-1.5-0.6c-0.4-0.4-0.7-1.1-0.8-2.1c2.7-3.7,4.9-7.5,6.5-11.3c1.6-3.8,2.4-7.2,2.4-10c0-2-0.3-3.6-1-4.6
	C118,4.6,117.1,4,115.9,4c-2.1,0-3.8,1.4-5.3,4.1c-1.5,2.7-2.6,6-3.4,9.7c-0.8,3.8-1.1,7.2-1.1,10.1c0,1.1,0.1,2.2,0.2,3.2
	c-0.9,1-1.6,1.8-2.2,2.3c-0.7,0.6-1.2,0.9-1.7,0.9c-0.3,0-0.5-0.1-0.7-0.3c-0.2-0.2-0.3-0.5-0.3-0.9c0-1.1,0.3-3,0.8-5.8
	c0.4-1.9,0.5-3.1,0.5-3.6c0-0.8-0.6-1.3-1.8-1.3c-0.6,0-1.1,0-1.6,0.1c-0.1-0.5-0.3-0.9-0.5-1.1c-0.2-0.2-0.5-0.3-1.1-0.3
	c-1.7,0-3.3,0.5-4.7,1.6c-1.5,1.1-2.7,2.4-3.6,4.2c-0.9,1.7-1.3,3.4-1.3,5.2c-0.5,0.6-1,1-1.4,1.3c-0.7,0.6-1.4,0.9-2.2,0.9
	c-0.7,0-1.3-0.2-1.8-0.6c-0.5-0.4-0.8-0.9-0.9-1.6c1.6-0.9,2.8-1.9,3.5-3c0.7-1.1,1-2.3,1-3.7c0-1.2-0.4-2.2-1.1-3.1
	c-0.7-0.8-1.7-1.2-2.9-1.2c-1.3,0-2.7,0.7-4.2,2.1c-1.5,1.4-2.8,3.6-4,6.6c0-1.3,0-2.6,0.1-3.9c3.2-3.5,5.6-6.6,7-9.2
	c1.4-2.6,2.1-5.2,2.1-7.6c0-1.5-0.3-2.8-1-3.7c-0.7-1-1.6-1.4-2.7-1.4c-2.1,0-3.9,1.4-5.4,4.1s-2.6,6.2-3.4,10.2
	c-0.6,3.1-0.9,6.1-1.1,9.1c-1,0.2-1.9,0.4-2.8,0.4c-0.2-1.9-0.9-3.4-2-4.7c-1.1-1.3-2.6-1.9-4.5-1.9c-1.5,0-2.9,0.4-4.1,1.2
	c-1.2,0.8-2.2,1.9-2.9,3.4c-0.3,0.5-0.5,1.1-0.6,1.7c-0.9,0.2-1.6,0.3-2.3,0.3c-0.2-1.9-0.9-3.4-2-4.7s-2.6-1.9-4.5-1.9
	c-1.5,0-2.9,0.4-4.1,1.2c-1.2,0.8-2.2,1.9-2.9,3.4c-0.7,1.4-1.1,3.1-1.1,4.9c0,1.4,0.3,2.6,0.8,3.8c0.5,1.2,1.3,2.1,2.3,2.8
	c1,0.7,2.3,1.1,3.7,1.1c1.7,0,3.3-0.6,4.6-1.8c1.4-1.2,2.3-2.9,2.7-4.9c0.8,0,1.5-0.1,2.2-0.2c0.1,1.1,0.3,2.1,0.8,3.1
	c0.5,1.2,1.3,2.1,2.3,2.8c1,0.7,2.3,1.1,3.7,1.1c1.7,0,3.3-0.6,4.6-1.8c1.4-1.2,2.3-2.9,2.7-4.9c1.1,0,2-0.2,3-0.4
	c0,1.6,0.1,2.8,0.2,3.8c0.1,1.1,0.4,2,0.7,2.5c0.4,0.5,0.9,0.8,1.7,0.8s1.3-0.2,1.7-0.6c0.4-0.4,0.7-1.2,0.9-2.3
	c0.4-1.6,0.9-3.1,1.6-4.6c0.7-1.5,1.4-2.7,2.2-3.7c0.8-0.9,1.5-1.4,2.2-1.4c0.3,0,0.5,0.1,0.7,0.3c0.2,0.2,0.3,0.5,0.3,1
	c0,0.8-0.2,1.4-0.7,1.9s-1.2,1-2.3,1.5c-1,0.4-1.5,1.1-1.5,2c0,1.8,0.6,3.2,1.7,4.3c1.1,1.1,2.6,1.6,4.5,1.6c1.5,0,2.8-0.4,4-1.2
	c0.5-0.3,1-0.7,1.4-1.2c0.2,0.3,0.3,0.5,0.5,0.8c0.9,1.1,2.1,1.6,3.6,1.6c1.9,0,3.5-1,4.8-3.1c0.3,0.9,0.8,1.7,1.5,2.2
	c0.7,0.5,1.4,0.8,2.2,0.8c1,0,2.1-0.4,3.2-1.3c0.8-0.6,1.6-1.4,2.4-2.2c0.1,0.2,0.2,0.4,0.3,0.6c1,1.9,2.6,2.9,4.7,2.9
	c1.6,0,2.9-0.4,4.2-1.2c0.7-0.5,1.3-1,2-1.6c0.5,0.7,1.1,1.3,1.8,1.8c1,0.7,2.3,1.1,3.7,1.1c1.7,0,3.3-0.6,4.6-1.8
	c1.4-1.2,2.3-2.9,2.7-4.9c0.8,0,1.5-0.1,2.2-0.2c0.1,1.1,0.3,2.1,0.7,3.1c0.5,1.2,1.3,2.1,2.3,2.8c1,0.7,2.2,1.1,3.7,1.1
	c1.5,0,2.8-0.4,4-1.2c1.2-0.8,2.2-1.9,2.9-3.4c0.7-1.4,1.1-3.1,1.1-4.9C148.1,27.5,147.9,26.3,147.3,25.1 M76,14.5
	c0.5-2.1,1-3.8,1.5-5.1c0.5-1.2,1-1.9,1.5-1.9c0.3,0,0.6,0.2,0.7,0.6c0.2,0.4,0.3,1,0.3,1.8c0,1.7-0.5,3.6-1.5,5.7
	c-1,2.1-2.2,4-3.7,5.8C75.1,19,75.5,16.7,76,14.5 M45.5,33.6c-0.6,0.6-1.2,0.9-2,0.9c-0.7,0-1.3-0.4-1.8-1.1
	c-0.5-0.7-0.8-1.7-0.8-3.1c0-1.7,0.3-3,1-3.9c0.6-0.9,1.4-1.4,2.4-1.4h0.2c-0.1,0.4-0.1,0.8-0.1,1.2c0,0.9,0.2,1.8,0.6,2.6
	c0.4,0.8,1,1.5,1.7,2C46.4,32,46,33,45.5,33.6 M61.9,33.6c-0.6,0.6-1.2,0.9-2,0.9c-0.7,0-1.3-0.4-1.8-1.1c-0.5-0.7-0.8-1.7-0.8-3.1
	c0-1.7,0.3-3,1-3.9c0.6-0.9,1.4-1.4,2.4-1.4h0.2c-0.1,0.4-0.1,0.8-0.1,1.2c0,0.9,0.2,1.8,0.6,2.6c0.4,0.8,1,1.5,1.7,2
	C62.8,32,62.4,33,61.9,33.6 M97.1,31.3c-0.2,1-0.6,1.9-1.1,2.5s-1,0.9-1.5,0.9c-0.5,0-1-0.2-1.3-0.5c-0.3-0.4-0.5-0.9-0.5-1.7
	c0-1.4,0.3-2.6,0.8-3.9c0.5-1.2,1.2-2.2,2.1-2.9c0.9-0.7,1.8-1.1,2.8-1.1L97.1,31.3z M111.4,18.1c0.5-3,1.2-5.5,1.9-7.5
	c0.7-2,1.3-3,1.9-3c0.7,0,1,0.9,1,2.8c0,2.4-0.5,5-1.5,7.8c-1,2.8-2.4,5.7-4.1,8.5C110.6,24,110.8,21.1,111.4,18.1 M126.3,33.6
	c-0.6,0.6-1.2,0.9-2,0.9c-0.7,0-1.3-0.4-1.8-1.1c-0.5-0.7-0.8-1.7-0.8-3.1c0-1.7,0.3-3,1-3.9c0.6-0.9,1.4-1.4,2.4-1.4h0.2
	c-0.1,0.4-0.1,0.8-0.1,1.2c0,0.9,0.2,1.8,0.6,2.6c0.4,0.8,1,1.5,1.7,2C127.3,32,126.9,33,126.3,33.6 M142.7,33.1
	c-0.6,0.9-1.3,1.3-2.1,1.3c-0.7,0-1.3-0.3-1.8-1c-0.5-0.7-0.7-1.7-0.7-3.1c0-1.7,0.3-3.1,0.9-3.9c0.6-0.9,1.3-1.3,2.2-1.3
	c0.7,0,1.3,0.3,1.7,1c0.5,0.7,0.7,1.7,0.7,3C143.6,30.9,143.3,32.2,142.7,33.1"/>
<path class="st1" d="M35.1,17.6c-1.7,1.7-4.1,2.9-7.3,3.7c1.7,0.5,3,1.2,3.9,2.3c0.9,1.1,1.3,2.3,1.3,3.7c0,2.2-0.7,4.1-2.1,5.7
	c-1.4,1.6-3.4,2.9-6,3.7c-2.6,0.9-5.8,1.3-9.6,1.3c-1.4,0-2.5,0-3.3-0.1c0,0.8-0.4,1.4-1,1.8c-0.6,0.4-1.5,0.6-2.5,0.6
	S6.9,40,6.5,39.6c-0.4-0.4-0.5-1.1-0.5-2c0.3-3.9,0.7-8,1.5-12.2C8.2,21.1,9.1,17,10.2,13c0.2-0.7,0.6-1.2,1.2-1.5
	c0.6-0.3,1.3-0.4,2.3-0.4c1.7,0,2.5,0.5,2.5,1.4c0,0.4-0.1,0.8-0.3,1.3c-0.7,2.2-1.4,5.1-2.2,8.8c-0.7,3.7-1.2,7.3-1.5,10.6
	c1.3,0.1,2.4,0.2,3.3,0.2c3.9,0,6.8-0.6,8.6-1.7c1.8-1.1,2.7-2.6,2.7-4.3c0-1.2-0.5-2.3-1.6-3.1S22.5,23.1,20,23
	c-0.6,0-0.9-0.2-1.2-0.4c-0.2-0.3-0.3-0.7-0.3-1.2c0-0.8,0.2-1.5,0.5-2c0.3-0.5,0.9-0.8,1.8-0.8c2-0.1,3.8-0.3,5.4-0.9
	c1.6-0.5,2.9-1.3,3.8-2.2c0.9-1,1.4-2.1,1.4-3.4c0-1.6-0.8-2.9-2.4-3.8c-1.6-0.9-4-1.4-7.3-1.4c-3,0-5.9,0.4-8.6,1.1
	C10.3,8.8,7.9,9.8,6,11c-0.9,0.5-1.6,0.8-2.3,0.8c-0.5,0-0.9-0.2-1.1-0.5c-0.3-0.3-0.4-0.8-0.4-1.3c0-0.7,0.1-1.3,0.4-1.8
	c0.3-0.5,1-1.1,2.1-1.7c2.3-1.3,5.1-2.4,8.2-3.1c3.1-0.8,6.4-1.1,9.6-1.1c5,0,8.8,0.8,11.3,2.5c2.5,1.7,3.7,3.9,3.7,6.7
	C37.6,13.8,36.7,15.8,35.1,17.6"/>
</svg>
