<?xml version="1.0" encoding="utf-8"?>
<!-- Generator: Adobe Illustrator 19.0.0, SVG Export Plug-In . SVG Version: 6.00 Build 0)  -->
<svg version="1.1" id="Layer_1" xmlns="http://www.w3.org/2000/svg" xmlns:xlink="http://www.w3.org/1999/xlink" x="0px" y="0px"
	 viewBox="0 0 60 50" style="enable-background:new 0 0 60 50;" xml:space="preserve">
<style type="text/css">
	.st0{fill:#336CB4;}
</style>
<path id="XMLID_182_" class="st0" d="M54.082,47.064h-2.028V36.594v-4.293c0-1.616-1.315-2.93-2.93-2.93h-1.672v-5.923v-3.733
	c0-1.616-1.315-2.93-2.93-2.93h-3.005v-2.842c0.672-0.17,1.307-0.516,1.832-1.04c1.205-1.205,1.508-3.041,0.754-4.57L41.415,2.89
	c-0.165-0.334-0.505-0.546-0.878-0.546c-0.373,0-0.713,0.212-0.878,0.546l-2.686,5.442c-0.754,1.528-0.451,3.365,0.754,4.57
	c0.524,0.524,1.16,0.871,1.832,1.04v2.842h-8.58v-4.208c0.672-0.17,1.307-0.516,1.832-1.04c1.205-1.205,1.508-3.041,0.754-4.57
	l-2.686-5.442C30.713,1.19,30.373,0.978,30,0.978s-0.713,0.212-0.878,0.546l-2.686,5.443c-0.754,1.528-0.451,3.365,0.754,4.57
	c0.524,0.524,1.16,0.871,1.832,1.04v4.208h-8.58v-2.839c0.687-0.173,1.317-0.529,1.832-1.043c1.205-1.205,1.508-3.042,0.754-4.57
	L20.34,2.89c-0.165-0.334-0.505-0.546-0.878-0.546S18.75,2.556,18.585,2.89l-2.686,5.443c-0.754,1.528-0.451,3.365,0.754,4.57
	c0.514,0.514,1.144,0.87,1.832,1.043v2.839h-3.005c-1.616,0-2.93,1.315-2.93,2.93v3.734v5.922h-1.672c-1.616,0-2.93,1.315-2.93,2.93
	v4.293v10.469H5.918c-0.541,0-0.979,0.438-0.979,0.979c0,0.541,0.438,0.979,0.979,0.979h3.007h42.15h3.007
	c0.541,0,0.979-0.438,0.979-0.979C55.06,47.502,54.622,47.064,54.082,47.064z M39.111,11.518c-0.612-0.611-0.765-1.543-0.382-2.319
	l1.809-3.664l1.809,3.664c0.383,0.776,0.229,1.707-0.382,2.319l0,0c-0.136,0.136-0.287,0.246-0.447,0.335
	c-0.607,0.337-1.351,0.337-1.958,0C39.398,11.764,39.247,11.654,39.111,11.518z M28.574,10.152
	c-0.611-0.611-0.765-1.543-0.382-2.319L30,4.169l1.809,3.664c0.383,0.776,0.229,1.707-0.382,2.319l0,0
	c-0.136,0.136-0.287,0.246-0.447,0.335c-0.607,0.337-1.351,0.337-1.958,0C28.861,10.398,28.71,10.288,28.574,10.152z M18.036,11.518
	c-0.612-0.611-0.765-1.543-0.382-2.319l1.809-3.664l1.809,3.664c0.383,0.775,0.229,1.707-0.382,2.319l0,0
	c-0.136,0.136-0.287,0.246-0.447,0.335c-0.607,0.337-1.351,0.337-1.958,0C18.323,11.764,18.172,11.654,18.036,11.518z
	 M14.506,19.715c0-0.536,0.436-0.972,0.972-0.972h29.043c0.536,0,0.972,0.436,0.972,0.972v3.073
	c-0.431,0.135-0.896,0.198-1.444,0.198c-1.46,0-2.126-0.444-2.97-1.006c-0.939-0.626-2.003-1.335-4.056-1.335
	c-2.053,0-3.117,0.709-4.055,1.335c-0.843,0.562-1.51,1.006-2.969,1.006s-2.126-0.444-2.969-1.006
	c-0.939-0.626-2.003-1.335-4.055-1.335c-2.053,0-3.117,0.709-4.055,1.335c-0.843,0.562-1.51,1.006-2.969,1.006
	c-0.548,0-1.013-0.062-1.444-0.198L14.506,19.715L14.506,19.715z M50.096,47.064H9.904v-9.408c0.832,0.153,1.362,0.506,1.99,0.925
	c0.939,0.626,2.003,1.335,4.055,1.335c2.053,0,3.117-0.709,4.055-1.335c0.843-0.562,1.51-1.006,2.969-1.006
	c1.46,0,2.126,0.444,2.969,1.006c0.939,0.626,2.003,1.335,4.055,1.335c2.053,0,3.117-0.709,4.055-1.335
	c0.843-0.562,1.51-1.006,2.969-1.006c1.46,0,2.126,0.444,2.97,1.006c0.939,0.626,2.003,1.335,4.056,1.335
	c2.053,0,3.117-0.709,4.056-1.335c0.628-0.419,1.158-0.772,1.991-0.925V47.064z M50.096,35.675c-1.437,0.183-2.3,0.758-3.077,1.276
	c-0.843,0.562-1.51,1.006-2.97,1.006s-2.126-0.444-2.97-1.006c-0.939-0.626-2.003-1.335-4.056-1.335
	c-2.053,0-3.117,0.709-4.055,1.335c-0.843,0.562-1.51,1.006-2.969,1.006c-1.46,0-2.126-0.444-2.969-1.006
	c-0.939-0.626-2.003-1.335-4.055-1.335c-2.053,0-3.117,0.709-4.055,1.335c-0.843,0.562-1.51,1.006-2.969,1.006
	c-1.46,0-2.126-0.444-2.969-1.006c-0.777-0.518-1.639-1.093-3.076-1.276v-3.373c0-0.536,0.436-0.972,0.972-0.972h7.513
	c0.541,0,0.979-0.438,0.979-0.979c0-0.541-0.438-0.979-0.979-0.979h-3.883v-4.565c0.451,0.092,0.926,0.138,1.444,0.138
	c2.053,0,3.117-0.709,4.055-1.335c0.843-0.562,1.51-1.006,2.969-1.006c1.46,0,2.126,0.444,2.969,1.006
	c0.939,0.626,2.003,1.335,4.055,1.335c2.053,0,3.117-0.709,4.055-1.335c0.843-0.562,1.51-1.006,2.969-1.006
	c1.46,0,2.126,0.444,2.97,1.006c0.939,0.626,2.003,1.335,4.056,1.335c0.518,0,0.994-0.046,1.444-0.138v4.565H26.195
	c-0.541,0-0.979,0.438-0.979,0.979c0,0.541,0.438,0.979,0.979,0.979h22.929c0.536,0,0.972,0.436,0.972,0.972L50.096,35.675
	L50.096,35.675z"/>
</svg>
