<?xml version="1.0" encoding="utf-8"?>
<!-- Generator: Adobe Illustrator 19.0.0, SVG Export Plug-In . SVG Version: 6.00 Build 0)  -->
<svg version="1.1" id="Layer_1" xmlns="http://www.w3.org/2000/svg" xmlns:xlink="http://www.w3.org/1999/xlink" x="0px" y="0px"
	 viewBox="0 0 60 50" style="enable-background:new 0 0 60 50;" xml:space="preserve">
<style type="text/css">
	.st0{fill:#336CB4;}
</style>
<g id="XMLID_173_">
	<g id="XMLID_174_">
		<path id="XMLID_176_" class="st0" d="M52.055,9.875H27.541c-0.496-1.983-2.292-3.456-4.426-3.456h-0.318L20.29,0.491
			C20.164,0.193,19.872,0,19.548,0c-0.323,0-0.615,0.194-0.741,0.491l-2.508,5.928h-1.936c-0.445,0-0.805,0.36-0.805,0.805v2.651
			H7.945c-0.445,0-0.805,0.36-0.805,0.805V17.1c0,0.445,0.36,0.805,0.805,0.805h5.614v1.829c0,0.445,0.36,0.805,0.805,0.805h1.17
			v23.573h-5.45c-0.445,0-0.805,0.36-0.805,0.805v4.279C9.279,49.64,9.64,50,10.084,50h11.222c0.445,0,0.805-0.36,0.805-0.805
			s-0.36-0.805-0.805-0.805H10.889v-2.669h17.318v2.669h-4.325c-0.445,0-0.805,0.36-0.805,0.805S23.438,50,23.882,50h5.13
			c0.445,0,0.805-0.36,0.805-0.805v-4.279c0-0.445-0.36-0.805-0.805-0.805h-5.45V20.538h3.31c0.445,0,0.805-0.36,0.805-0.805v-1.829
			H47.3v7.303h-0.483c-0.445,0-0.805,0.36-0.805,0.805c0,0.445,0.36,0.805,0.805,0.805H47.3v2.05c0,0.445,0.36,0.805,0.805,0.805
			c0.804,0,1.458,0.654,1.458,1.458s-0.654,1.458-1.458,1.458c-0.804,0-1.458-0.654-1.458-1.458c0-0.445-0.36-0.805-0.805-0.805
			s-0.805,0.36-0.805,0.805c0,1.692,1.376,3.068,3.068,3.068c1.692,0,3.068-1.376,3.068-3.068c0-1.413-0.961-2.606-2.263-2.961
			v-1.352h0.483c0.445,0,0.805-0.36,0.805-0.805c0-0.445-0.36-0.805-0.805-0.805H48.91v-7.303h3.145c0.445,0,0.805-0.36,0.805-0.805
			V10.68C52.86,10.236,52.5,9.875,52.055,9.875z M8.75,16.295v-3.671l3.671,3.671H8.75z M13.559,15.156l-3.671-3.671h3.671V15.156z
			 M19.548,2.871l1.501,3.548h-3.002L19.548,2.871z M21.953,44.111h-3.671l3.671-3.671V44.111z M17.144,42.972v-8.951l4.476,4.476
			L17.144,42.972z M21.953,36.553l-4.476-4.476l4.476-4.476V36.553z M17.144,30.134v-8.458l4.229,4.229L17.144,30.134z
			 M21.953,24.209l-3.671-3.671h3.671V24.209z M26.068,15.252h-5.797v-2.386c0-0.445-0.36-0.805-0.805-0.805
			s-0.805,0.36-0.805,0.805v3.191c0,0.445,0.36,0.805,0.805,0.805h6.602v2.066H15.169V8.029h3.492v2.207
			c0,0.445,0.36,0.805,0.805,0.805c0.445,0,0.805-0.36,0.805-0.805V8.029h1.991c0.001,0,0.002,0,0.003,0c0.001,0,0.851,0,0.851,0
			c1.628,0,2.952,1.325,2.952,2.952L26.068,15.252L26.068,15.252z M27.678,15.156v-3.671h3.671L27.678,15.156z M28.816,16.295
			l4.229-4.229l4.229,4.229H28.816z M34.741,11.485h8.951l-4.476,4.476L34.741,11.485z M41.16,16.295l4.476-4.476l4.476,4.476H41.16
			z M51.25,15.156l-3.671-3.671h3.671V15.156z"/>
	</g>
</g>
</svg>
