<?xml version="1.0" encoding="utf-8"?>
<!-- Generator: Adobe Illustrator 19.0.0, SVG Export Plug-In . SVG Version: 6.00 Build 0)  -->
<svg version="1.1" id="Layer_1" xmlns="http://www.w3.org/2000/svg" xmlns:xlink="http://www.w3.org/1999/xlink" x="0px" y="0px"
	 viewBox="0 0 60 50" style="enable-background:new 0 0 60 50;" xml:space="preserve">
<style type="text/css">
	.st0{fill:#336CB4;}
</style>
<g id="XMLID_160_">
	<g id="XMLID_193_">
		<g id="XMLID_194_">
			<path id="XMLID_100_" class="st0" d="M41.163,14.306c-0.174-0.174-0.416-0.275-0.663-0.275s-0.488,0.1-0.663,0.275
				c-0.174,0.174-0.275,0.415-0.275,0.663c0,0.247,0.1,0.488,0.275,0.663c0.174,0.174,0.416,0.275,0.663,0.275
				s0.488-0.1,0.663-0.275c0.174-0.174,0.275-0.416,0.275-0.663C41.437,14.722,41.337,14.48,41.163,14.306z"/>
		</g>
	</g>
	<g id="XMLID_188_">
		<g id="XMLID_189_">
			<path id="XMLID_190_" class="st0" d="M20.063,27.438h-7.5c-0.518,0-0.937,0.42-0.937,0.937v7.5c0,0.518,0.42,0.938,0.937,0.938
				h7.5c0.518,0,0.937-0.42,0.937-0.938v-7.5C21,27.857,20.58,27.438,20.063,27.438z M19.125,34.938H13.5v-5.625h5.625V34.938z"/>
		</g>
	</g>
	<g id="XMLID_183_">
		<g id="XMLID_184_">
			<path id="XMLID_185_" class="st0" d="M53.421,20.665c-0.35-0.145-0.754-0.065-1.022,0.203l-9.553,9.553c0,0,0,0,0,0c0,0,0,0,0,0
				L31.71,41.558c0,0,0,0,0,0c0,0,0,0,0,0L25.868,47.4c-0.268,0.268-0.348,0.671-0.203,1.022C25.81,48.772,26.152,49,26.531,49
				h26.531C53.58,49,54,48.58,54,48.063V21.531C54,21.152,53.772,20.81,53.421,20.665z M52.125,47.125h-23.33l3.578-3.578
				l0.895,0.895c0.183,0.183,0.423,0.275,0.663,0.275c0.24,0,0.48-0.092,0.663-0.275c0.366-0.366,0.366-0.96,0-1.326l-0.895-0.895
				l2.386-2.386l0.895,0.895c0.183,0.183,0.423,0.275,0.663,0.275s0.48-0.092,0.663-0.275c0.366-0.366,0.366-0.96,0-1.326
				l-0.895-0.895l2.386-2.386l0.895,0.895c0.183,0.183,0.423,0.275,0.663,0.275c0.24,0,0.48-0.092,0.663-0.275
				c0.366-0.366,0.366-0.96,0-1.326l-0.895-0.895l2.386-2.386l0.895,0.895c0.183,0.183,0.423,0.275,0.663,0.275
				c0.24,0,0.48-0.092,0.663-0.275c0.366-0.366,0.366-0.96,0-1.326l-0.895-0.895l2.386-2.386l0.895,0.895
				c0.183,0.183,0.423,0.275,0.663,0.275c0.24,0,0.48-0.092,0.663-0.275c0.366-0.366,0.366-0.96,0-1.326l-0.895-0.895l3.578-3.577
				V47.125z"/>
		</g>
	</g>
	<g id="XMLID_177_">
		<g id="XMLID_179_">
			<path id="XMLID_180_" class="st0" d="M48.734,31.982c-0.35-0.145-0.754-0.065-1.022,0.203L37.185,42.712
				c-0.268,0.268-0.348,0.671-0.203,1.022c0.145,0.35,0.487,0.579,0.866,0.579h10.527c0.518,0,0.937-0.42,0.937-0.938V32.848
				C49.312,32.469,49.084,32.127,48.734,31.982z M47.437,42.438h-7.326l7.326-7.326V42.438z"/>
		</g>
	</g>
	<g id="XMLID_169_">
		<g id="XMLID_170_">
			<path id="XMLID_171_" class="st0" d="M49.412,14.993c-0.258-0.258-0.642-0.343-0.985-0.217l-6.401,2.344
				c-0.128,0.047-0.244,0.121-0.341,0.217l-1.8,1.8L28.132,7.384c-0.176-0.176-0.414-0.275-0.663-0.275s-0.487,0.099-0.663,0.275
				L12.659,21.531H9.201L27.469,3.263l10.025,10.025c0.366,0.366,0.96,0.366,1.326,0c0.366-0.366,0.366-0.96,0-1.326L28.132,1.275
				c-0.366-0.366-0.96-0.366-1.326,0L6.275,21.806c-0.268,0.268-0.348,0.671-0.203,1.022c0.145,0.35,0.487,0.579,0.866,0.579h0.937
				v24.656C7.875,48.58,8.295,49,8.813,49h14.905c0.518,0,0.937-0.42,0.937-0.938s-0.42-0.938-0.937-0.938H9.75V23.406h3.297
				c0.249,0,0.487-0.099,0.663-0.275L27.469,9.373l11.09,11.09L24.656,34.366v-8.428h6.562c0.518,0,0.937-0.42,0.937-0.937
				s-0.42-0.938-0.937-0.938h-7.5c-0.518,0-0.937,0.42-0.937,0.938v10.875c0,0.109,0.02,0.214,0.054,0.311l-0.84,0.84
				c-1.484,1.484-1.484,3.899,0,5.383c0.742,0.742,1.717,1.113,2.691,1.113c0.975,0,1.95-0.371,2.691-1.113l7.906-7.906
				c0.366-0.366,0.366-0.96,0-1.326c-0.366-0.366-0.96-0.366-1.326,0l-5.99,5.99l-2.731-2.731l17.129-17.129l2.731,2.731
				l-6.545,6.545c-0.366,0.366-0.366,0.96,0,1.326c0.366,0.366,0.96,0.366,1.326,0l7.189-7.189c0.096-0.096,0.171-0.213,0.217-0.34
				l2.344-6.401C49.755,15.636,49.67,15.251,49.412,14.993z M26.643,40.493l-0.59,0.59c-0.365,0.365-0.85,0.566-1.366,0.566
				c-0.516,0-1.001-0.201-1.366-0.566c-0.365-0.365-0.566-0.85-0.566-1.366c0-0.516,0.201-1.001,0.566-1.366l0.59-0.59
				L26.643,40.493z M46.039,20.328l-1.963-1.963l3.097-1.134L46.039,20.328z"/>
		</g>
	</g>
	<g id="XMLID_166_">
		<g id="XMLID_167_">
			<path id="XMLID_90_" class="st0" d="M37.565,30.897c-0.174-0.174-0.416-0.275-0.663-0.275s-0.488,0.1-0.663,0.275
				c-0.174,0.175-0.275,0.416-0.275,0.663c0,0.248,0.1,0.488,0.275,0.664c0.174,0.174,0.415,0.274,0.663,0.274
				c0.247,0,0.488-0.099,0.663-0.274c0.174-0.175,0.275-0.417,0.275-0.664C37.839,31.313,37.739,31.072,37.565,30.897z"/>
		</g>
	</g>
	<g id="XMLID_161_">
		<g id="XMLID_162_">
			<path id="XMLID_163_" class="st0" d="M27.469,15.156c-1.964,0-3.562,1.598-3.562,3.562s1.598,3.562,3.562,3.562
				s3.562-1.598,3.562-3.562S29.433,15.156,27.469,15.156z M27.469,20.406c-0.93,0-1.687-0.757-1.687-1.687
				c0-0.93,0.757-1.687,1.687-1.687s1.687,0.757,1.687,1.687S28.399,20.406,27.469,20.406z"/>
		</g>
	</g>
</g>
</svg>
