<?xml version="1.0" encoding="utf-8"?>
<!-- Generator: Adobe Illustrator 19.0.0, SVG Export Plug-In . SVG Version: 6.00 Build 0)  -->
<svg version="1.1" id="Layer_1" xmlns="http://www.w3.org/2000/svg" xmlns:xlink="http://www.w3.org/1999/xlink" x="0px" y="0px"
	 viewBox="0 0 60 50" style="enable-background:new 0 0 60 50;" xml:space="preserve">
<style type="text/css">
	.st0{fill:#336CB4;}
</style>
<g id="XMLID_164_">
	<g id="XMLID_165_">
		<path id="XMLID_168_" class="st0" d="M59.758,48.79l-1.608-3.859c-0.001-0.003-0.002-0.006-0.004-0.009L45.282,14.048
			c-0.136-0.326-0.454-0.538-0.807-0.538h-4.251c-0.483,0-0.874,0.391-0.874,0.874s0.391,0.874,0.874,0.874h3.668l12.139,29.134
			H28.974L16.835,15.258h19.898c0.483,0,0.874-0.391,0.874-0.874s-0.391-0.874-0.874-0.874H16.398V9.468h9.742
			c0.483,0,0.874-0.391,0.874-0.874V1.839c0-0.483-0.391-0.874-0.874-0.874h-9.742V0.874C16.398,0.391,16.007,0,15.524,0
			s-0.874,0.391-0.874,0.874v0.965v6.755v5.616L4.563,38.42l-4.144,4.31c-0.33,0.343-0.325,0.887,0.012,1.224l1.289,1.289
			L0.242,48.79c-0.112,0.27-0.082,0.578,0.08,0.821C0.484,49.854,0.757,50,1.049,50h5.789c0.003,0,0.006,0,0.009,0h17.359
			c0.001,0,0.002,0,0.003,0c0.002,0,0.003,0,0.005,0h5.782c0.001,0,0.002,0,0.003,0c0.002,0,0.003,0,0.005,0h28.946
			c0.292,0,0.565-0.146,0.727-0.389C59.84,49.367,59.87,49.06,59.758,48.79z M16.398,2.713h8.868V7.72h-8.868V2.713z M2.36,48.252
			l0.697-1.673l1.673,1.673H2.36z M6.535,47.585l-3.157-3.157c-0.002-0.002-0.004-0.004-0.006-0.006l-1.099-1.099l10.655-11.081
			L6.535,47.585z M8.15,48.252l7.375-17.699l7.375,17.699H8.15z M24.792,48.252l-8.461-20.307c0,0,0-0.001-0.001-0.001
			c-0.015-0.036-0.033-0.072-0.054-0.106c-0.004-0.007-0.008-0.014-0.012-0.02c-0.018-0.029-0.038-0.057-0.06-0.084
			c-0.003-0.004-0.006-0.008-0.009-0.012c-0.02-0.024-0.042-0.047-0.065-0.07c-0.004-0.004-0.009-0.007-0.013-0.011
			c-0.007-0.007-0.015-0.013-0.022-0.019c-0.024-0.021-0.048-0.039-0.073-0.057c-0.006-0.004-0.012-0.009-0.018-0.013
			c-0.032-0.021-0.065-0.04-0.099-0.056c-0.005-0.002-0.01-0.004-0.015-0.007c-0.031-0.014-0.063-0.027-0.095-0.037
			c-0.007-0.002-0.014-0.005-0.02-0.007c-0.036-0.011-0.074-0.019-0.111-0.025c-0.007-0.001-0.014-0.002-0.021-0.003
			c-0.034-0.005-0.068-0.007-0.102-0.008c-0.005,0-0.009-0.001-0.014-0.001c-0.002,0-0.004,0-0.007,0
			c-0.038,0-0.076,0.003-0.113,0.009c-0.009,0.001-0.017,0.003-0.025,0.004c-0.034,0.006-0.069,0.013-0.102,0.023
			c-0.004,0.001-0.007,0.002-0.011,0.003c-0.037,0.011-0.072,0.026-0.107,0.042c-0.007,0.003-0.013,0.006-0.02,0.01
			c-0.031,0.015-0.062,0.032-0.091,0.052c-0.003,0.002-0.007,0.004-0.011,0.007c-0.031,0.021-0.061,0.044-0.09,0.07
			c-0.007,0.006-0.014,0.013-0.021,0.019c-0.011,0.01-0.022,0.02-0.032,0.03l-6.991,7.27l6.747-16.192v3.351
			c0,0.483,0.391,0.874,0.874,0.874s0.874-0.391,0.874-0.874v-3.351c2.81,6.743,8.425,20.219,11.187,26.848
			c0.001,0.003,0.002,0.006,0.004,0.009c0.452,1.084,0.827,1.985,1.101,2.642H24.792z M30.583,48.252l-0.88-2.112H56.76l0.88,2.112
			H30.583z"/>
	</g>
</g>
</svg>
