<?xml version="1.0" encoding="utf-8"?>
<!-- Generator: Adobe Illustrator 22.1.0, SVG Export Plug-In . SVG Version: 6.00 Build 0)  -->
<svg version="1.1" id="Layer_1" xmlns="http://www.w3.org/2000/svg" xmlns:xlink="http://www.w3.org/1999/xlink" x="0px" y="0px"
	 viewBox="0 0 40.6 41" style="enable-background:new 0 0 40.6 41;" xml:space="preserve">
<style type="text/css">
	.st0{fill:#146CB7;}
</style>
<title>2.20-deposit</title>
<g>
	<path class="st0" d="M39,14.9l-5.3-4V7c0.2-1.4-0.3-2.7-1.3-3.6l-1.8-1.9l-0.3-0.3c-0.6-0.8-1.6-1.3-2.6-1.2H8.5
		C7.3,0,6.4,0.9,6.4,2.1v8.8l-4.3,3.5l-0.3,0.2L1.3,15C0.5,15.7,0,16.8,0,17.9v19.3C0,39.3,1.7,41,3.8,41h33c2.1,0,3.8-1.7,3.8-3.8
		V17.9C40.5,16.7,40,15.6,39,14.9z M6.2,19.9l-4.6-2.4c0.1-0.5,0.4-1,0.8-1.2l0.4-0.4l3.6-3V20L6.2,19.9z M33.7,12.8l4.5,3.3
		c0.5,0.4,0.8,0.8,0.9,1.4l-5.4,2.7V12.8z M37.8,39.3c-0.3,0.1-0.7,0.2-1,0.2h-33c-0.5,0-0.9-0.1-1.3-0.4l6.3-6.3
		c0.3-0.3,0.3-0.8,0-1.1c-0.1-0.1-0.3-0.2-0.5-0.2s-0.4,0.1-0.5,0.2l-6.2,6.2c-0.1-0.3-0.1-0.5-0.1-0.7V19.1L14,25.5l-4.3,4.3
		c-0.3,0.3-0.3,0.8,0,1.1c0.3,0.3,0.8,0.3,1.1,0l4.5-4.7l1,0.5c1.8,0.9,2.7,1.4,3.9,1.4c1.2,0,2.2-0.5,4.2-1.5l0.6-0.3l4.5,4.5
		c0.3,0.3,0.8,0.3,1.1,0s0.3-0.8,0-1.1l-4.2-4.2L39,19.1v18.1c0,0.3,0,0.5-0.1,0.8l-6.4-6.4c-0.1-0.1-0.3-0.2-0.5-0.2
		s-0.4,0.1-0.5,0.2c-0.3,0.3-0.3,0.8,0,1.1l6.5,6.5C37.9,39.2,37.9,39.3,37.8,39.3z M29.1,6.9h3.1v14.2l-7.3,3.7l-1.1,0.5
		c-3.5,1.8-3.5,1.8-6.8,0.1l-9.1-4.7V2.1c0-0.3,0.3-0.6,0.6-0.6H27v3.3C27,5.9,27.9,6.9,29.1,6.9z M28.4,4.8V1.6
		c0.3,0,0.4,0.2,0.7,0.7l0.3,0.3l1.8,1.9c0.3,0.2,0.5,0.6,0.7,0.9H29C28.7,5.4,28.4,5.1,28.4,4.8z M30.3,30.6
		C30.3,30.6,30.3,30.6,30.3,30.6c-0.1,0.3-0.4,0.3-0.6,0.1l-0.1-0.1C29.8,30.7,30.1,30.7,30.3,30.6z M25,24.9l-1.1,0.5
		c-0.1,0-0.2,0.1-0.3,0.1c0,0,0,0,0.1,0l5.2-2.6L25,24.9z M31.5,32.5c-0.1-0.1-0.1-0.2-0.1-0.3C31.4,32.3,31.5,32.4,31.5,32.5
		l6.6,6.6L31.5,32.5z M27.1,4.8c0,0.1,0,0.2,0,0.4C27.1,5.1,27.1,4.9,27.1,4.8z M1.5,38.2L1.5,38.2L1.5,38.2
		c-0.1-0.2-0.2-0.5-0.2-0.8v-0.2C1.3,37.5,1.4,37.9,1.5,38.2z"/>
	<path class="st0" d="M18.3,12.2h8.8c0.4,0,0.6-0.3,0.8-0.7c0-0.4-0.3-0.8-0.7-0.8h-8.8c-0.1,0-0.1,0-0.2,0c-0.4,0-0.7,0.4-0.7,0.8
		S17.9,12.2,18.3,12.2z"/>
	<path class="st0" d="M17.5,9c0,0.5,0.4,0.8,0.8,0.8h11.3c0.5,0,0.9-0.3,0.9-0.8s-0.4-0.8-0.8-0.8H18.3C17.8,8.2,17.5,8.5,17.5,9z"
		/>
	<path class="st0" d="M10.4,10.8c0,0.1,0.1,0.3,0.2,0.3l1.1,1c0.1,0.1,0.3,0.2,0.5,0.2c0.2,0,0.4-0.1,0.6-0.2L15.6,9
		c0.2-0.3,0.2-0.7-0.1-1s-0.8-0.3-1.1,0l-2.2,2.5L11.6,10c-0.1-0.1-0.3-0.2-0.5-0.2c-0.3,0-0.5,0.2-0.6,0.4
		C10.4,10.4,10.3,10.6,10.4,10.8z M14.9,8c-0.1,0-0.2,0.1-0.4,0.1C14.6,8,14.7,7.9,14.9,8z"/>
	<path class="st0" d="M27.1,16.3h-8.8c-0.5,0-0.8,0.3-0.8,0.8s0.4,0.8,0.8,0.8h8.8c0.4,0,0.8-0.3,0.8-0.8S27.5,16.3,27.1,16.3z
		 M27.3,17.7c-0.1,0-0.1,0-0.2,0C27.2,17.7,27.2,17.7,27.3,17.7z"/>
	<path class="st0" d="M29.7,13.8H18.3c-0.5,0-0.8,0.4-0.8,0.8c0,0.5,0.4,0.8,0.8,0.8h11.3c0.5,0,0.8-0.3,0.9-0.8
		C30.5,14.1,30.1,13.8,29.7,13.8z M18.1,15.2c0.1,0,0.1,0,0.2,0C18.2,15.2,18.1,15.2,18.1,15.2z M29.9,15.2c-0.1,0-0.1,0-0.2,0
		C29.8,15.2,29.8,15.2,29.9,15.2z M30,15.1C30,15.1,30,15.1,30,15.1C30,15.1,30,15.1,30,15.1z"/>
	<path class="st0" d="M14.7,13.6c-0.1,0-0.2,0.1-0.3,0.1l-2.2,2.4l-0.5-0.4l-0.1-0.1c-0.3-0.3-0.8-0.2-1,0c-0.1,0-0.1,0.1-0.2,0.1
		c0,0.1-0.1,0.2-0.1,0.3c-0.1,0.3,0,0.6,0.3,0.8l1.1,1c0.1,0.1,0.3,0.2,0.5,0.2c0.2,0,0.4-0.1,0.7-0.2l2.8-3.1
		c0.2-0.3,0.2-0.8-0.1-1.1C15.4,13.4,15,13.4,14.7,13.6z"/>
</g>
</svg>
