<?xml version="1.0" encoding="utf-8"?>
<!-- Generator: Adobe Illustrator 22.1.0, SVG Export Plug-In . SVG Version: 6.00 Build 0)  -->
<svg version="1.1" id="Layer_1" xmlns="http://www.w3.org/2000/svg" xmlns:xlink="http://www.w3.org/1999/xlink" x="0px" y="0px"
	 viewBox="0 0 51.6 42.1" style="enable-background:new 0 0 51.6 42.1;" xml:space="preserve">
<style type="text/css">
	.st0{fill:#FFFFFF;}
</style>
<title>3.deposit-fee</title>
<path class="st0" d="M27.5,29.1h13.8c0.4,0,0.8-0.3,0.9-0.8v-0.1v-7.7c0-0.4-0.3-0.8-0.8-0.9h-0.1H27.5c-0.4,0-0.8,0.3-0.9,0.8v0.1
	v7.7c0,0.4,0.3,0.8,0.8,0.9H27.5z M28.4,21.3h12v6h-12V21.3z"/>
<path class="st0" d="M4.3,17.9h6.9c0.5,0,0.9-0.4,0.9-0.9s-0.4-0.9-0.9-0.9H4.3c-0.5,0-0.9,0.4-0.9,0.9S3.8,17.9,4.3,17.9z"/>
<path class="st0" d="M14.6,17.9h6.9c0.5,0,0.9-0.4,0.9-0.9s-0.4-0.9-0.9-0.9h-6.9c-0.5,0-0.9,0.4-0.9,0.9S14.1,17.9,14.6,17.9
	L14.6,17.9z"/>
<path class="st0" d="M4.3,21.3h11.2c0.5,0,0.9-0.4,0.9-0.9s-0.4-0.9-0.9-0.9H4.3c-0.5,0-0.9,0.4-0.9,0.9S3.8,21.3,4.3,21.3z"/>
<path class="st0" d="M21.5,19.6h-2.6c-0.5,0-0.9,0.4-0.9,0.9s0.4,0.9,0.9,0.9h2.6c0.5,0,0.9-0.4,0.9-0.9S22,19.6,21.5,19.6z"/>
<path class="st0" d="M50.8,9c-0.5-0.7-1.4-1.2-2.3-1.3l-2.1-0.2V3.4C46.4,1.5,44.8,0,43,0H3.4C1.5,0,0,1.5,0,3.4v27.5
	c0,1.5,1,2.9,2.5,3.3c0,1.7,1.3,3.2,3,3.4l39.7,4.5h0.3c1.7,0,3.2-1.2,3.4-2.9l2.6-27.6C51.7,10.6,51.4,9.7,50.8,9z M1.7,5.9h43v5.2
	h-43C1.7,11.1,1.7,5.9,1.7,5.9z M3.4,1.6h39.5c0.9,0,1.7,0.8,1.7,1.7v0.9h-43V3.3C1.7,2.4,2.4,1.6,3.4,1.6L3.4,1.6L3.4,1.6z
	 M1.7,30.8v-18h43v18c0,0.9-0.8,1.7-1.7,1.7H3.4C2.5,32.5,1.7,31.7,1.7,30.8z M49.9,11.1l-2.6,27.6c-0.1,0.9-0.9,1.6-1.9,1.5l0,0
	L5.8,35.8c-0.8-0.1-1.5-0.7-1.5-1.5H43c1.9,0,3.4-1.5,3.4-3.4V9l2,0.2c0.4,0,0.9,0.2,1.1,0.6C49.8,10.2,49.9,10.6,49.9,11.1z"/>
</svg>
