<?xml version="1.0" encoding="utf-8"?>
<!-- Generator: Adobe Illustrator 19.0.0, SVG Export Plug-In . SVG Version: 6.00 Build 0)  -->
<svg version="1.1" id="Layer_1" xmlns="http://www.w3.org/2000/svg" xmlns:xlink="http://www.w3.org/1999/xlink" x="0px" y="0px"
	 viewBox="-210 333.9 175 175" style="enable-background:new -210 333.9 175 175;" xml:space="preserve">
<style type="text/css">
	.st0{fill:#1B2030;}
</style>
<path id="XMLID_41_" class="st0" d="M-210,410.6c0.2-0.6,0.5-1.2,0.7-1.9c2-6.4,7.8-10.7,14.5-10.8c5.1,0,10.3-0.1,15.4,0
	c1.3,0,1.9-0.4,2.5-1.5c8.5-15,17.1-30.1,25.7-45.1c1.6-2.8,3.8-4.5,7.1-4.4c5.6,0.2,8.8,6.1,6,11.1c-3,5.4-6.1,10.7-9.1,16
	c-4.2,7.4-8.5,14.8-12.7,22.2c-0.3,0.5-0.5,1-0.9,1.6c25.6,0,51,0,76.6,0c-0.3-0.6-0.6-1.1-0.9-1.6c-7.2-12.5-14.3-25.1-21.5-37.6
	c-2.4-4.3-1.4-8.7,2.4-10.8c3.5-1.9,7.7-0.8,9.8,2.7c3,5,5.9,10.1,8.8,15.2c5.9,10.4,11.9,20.7,17.7,31.1c0.5,0.9,1,1.2,2,1.2
	c5-0.1,9.9,0,14.9,0c7.8,0,13.7,4.5,15.7,12.1c0.1,0.2,0.2,0.4,0.3,0.6c0,1.7,0,3.4,0,5.1c-0.2,0.6-0.4,1.2-0.6,1.8
	c-5.8,21-11.5,45-17.4,66c-0.6,2-1.4,4-2.6,5.7c-3.6,5.2-8.8,6.7-14.9,6.6c-20-0.1-40.1,0-60.1,0c-15.3,0-30.6,0-46,0
	c-7.4,0-13.4-4.4-15.3-11.3c-4.3-15.3-5.4-21.2-9.6-36.5c-1.8-6.8-6.7-25.8-8.5-32.4C-210,414-210,412.3-210,410.6z M-195.2,412.7
	c0.2,0.8,0.3,1.4,0.4,1.9c1.3,4.9,7.5,30.9,8.8,35.7c3.5,15.3,3.6,13,7.8,28.6c0.5,1.7,1.2,2.3,2.9,2.2c3.4-0.1,6.7-0.1,10.1-0.1
	c18.8,0,37.6,0,56.4,0c13.2,0,26.3,0,39.5,0c1.3,0,2-0.3,2.4-1.7c5.6-20.6,11.3-44.3,17-64.9c0.4-1.6-0.1-1.9-1.5-1.9
	c-7.6,0-15.3,0-22.9,0c-39.5,0-79.1,0-118.6,0C-193.6,412.6-194.2,412.6-195.2,412.7z"/>
</svg>
