<?xml version="1.0" encoding="utf-8"?>
<!-- Generator: Adobe Illustrator 23.0.3, SVG Export Plug-In . SVG Version: 6.00 Build 0)  -->
<svg version="1.1" id="Layer_1" xmlns="http://www.w3.org/2000/svg" xmlns:xlink="http://www.w3.org/1999/xlink" x="0px" y="0px"
	 viewBox="0 0 60 50" style="enable-background:new 0 0 60 50;" xml:space="preserve">
<style type="text/css">
	.st0{fill:none;stroke:#FFFFFF;stroke-width:1.8618;stroke-miterlimit:10;}
	.st1{fill:none;stroke:#FFFFFF;stroke-width:1.8618;stroke-linecap:round;stroke-linejoin:round;stroke-miterlimit:10;}
	.st2{fill:none;stroke:#FFFFFF;stroke-width:1.3447;stroke-linecap:round;stroke-linejoin:round;stroke-miterlimit:10;}
</style>
<g>
	<path class="st0" d="M43.6,49.1H16.4c-0.8,0-1.4-0.6-1.4-1.4v-0.1c0-0.8,0.6-1.4,1.4-1.4h27.1c0.8,0,1.4,0.6,1.4,1.4v0.1
		C45,48.5,44.4,49.1,43.6,49.1z"/>
	<path class="st1" d="M14.9,6.5c0,0,13.5-12.6,30.3,0"/>
	<line class="st0" x1="17.6" y1="46.1" x2="17.6" y2="4.4"/>
	<line class="st0" x1="42.4" y1="46.1" x2="42.4" y2="4.6"/>
	<path class="st0" d="M21.7,7.2v35h16.7v-35C38.3,7.2,30,2.3,21.7,7.2z"/>
	<polyline class="st2" points="33.9,20.6 34.6,21.3 34.6,24.3 34,24.9 	"/>
	<rect x="27.6" y="9" class="st2" width="4.8" height="3.6"/>
</g>
</svg>
