<?xml version="1.0" encoding="utf-8"?>
<!-- Generator: Adobe Illustrator 23.0.3, SVG Export Plug-In . SVG Version: 6.00 Build 0)  -->
<svg version="1.1" id="Layer_1" xmlns="http://www.w3.org/2000/svg" xmlns:xlink="http://www.w3.org/1999/xlink" x="0px" y="0px"
	 viewBox="0 0 60 50" style="enable-background:new 0 0 60 50;" xml:space="preserve">
<style type="text/css">
	.st0{fill:none;stroke:#356CB0;stroke-width:1.8618;stroke-miterlimit:10;}
	.st1{fill:none;stroke:#356CB0;stroke-width:1.8618;stroke-linecap:round;stroke-linejoin:round;stroke-miterlimit:10;}
	.st2{fill:none;stroke:#356CB0;stroke-width:1.3447;stroke-linecap:round;stroke-linejoin:round;stroke-miterlimit:10;}
	.st3{fill:none;stroke:#356CB0;stroke-width:2.0336;stroke-miterlimit:10;}
	.st4{fill:#FFFFFF;}
	.st5{fill:none;stroke:#356CB0;stroke-width:1.1298;stroke-miterlimit:10;}
	.st6{fill:none;stroke:#356CB0;stroke-width:1.1298;stroke-linecap:round;stroke-linejoin:round;stroke-miterlimit:10;}
	.st7{fill:#356CB0;}
</style>
<g>
	<path class="st3" d="M57.1,35.6H2.9c-0.6,0-1.1-0.5-1.1-1.1V2.6c0-0.6,0.5-1.1,1.1-1.1h54.2c0.6,0,1.1,0.5,1.1,1.1v31.9
		C58.2,35.1,57.7,35.6,57.1,35.6z"/>
	<rect x="7.2" y="6.6" class="st3" width="10.8" height="28.6"/>
	<rect x="41.7" y="6.6" class="st3" width="10.8" height="28.6"/>
	<path class="st4" d="M28.5,36.2c0,1.8-1.5,3.3-3.3,3.3c-1.8,0-3.3-1.5-3.3-3.3"/>
	<path class="st3" d="M28.5,36.2c0,1.8-1.5,3.3-3.3,3.3c-1.8,0-3.3-1.5-3.3-3.3"/>
	<path class="st5" d="M26.1,36.2c0,0.5-0.4,0.9-0.9,0.9c-0.5,0-0.9-0.4-0.9-0.9c0-0.5,0.4-0.9,0.9-0.9
		C25.7,35.2,26.1,35.7,26.1,36.2z"/>
	<path class="st4" d="M38.1,36.2c0,1.8-1.5,3.3-3.3,3.3c-1.8,0-3.3-1.5-3.3-3.3"/>
	<path class="st3" d="M38.1,36.2c0,1.8-1.5,3.3-3.3,3.3c-1.8,0-3.3-1.5-3.3-3.3"/>
	<path class="st5" d="M35.7,36.2c0,0.5-0.4,0.9-0.9,0.9c-0.5,0-0.9-0.4-0.9-0.9c0-0.5,0.4-0.9,0.9-0.9
		C35.3,35.2,35.7,35.7,35.7,36.2z"/>
	<line class="st6" x1="15.4" y1="19.8" x2="15.4" y2="21.9"/>
	<line class="st6" x1="50.2" y1="19.8" x2="50.2" y2="21.9"/>
	<line class="st3" x1="7.2" y1="40.2" x2="18" y2="40.2"/>
	<line class="st3" x1="7.2" y1="35.2" x2="7.2" y2="48.2"/>
	<line class="st3" x1="18" y1="35.2" x2="18" y2="48.2"/>
	<line class="st3" x1="7.2" y1="44.6" x2="18" y2="44.6"/>
	<line class="st3" x1="41.7" y1="40.6" x2="52.5" y2="40.6"/>
	<line class="st3" x1="41.7" y1="35.6" x2="41.7" y2="48.6"/>
	<line class="st3" x1="52.5" y1="35.6" x2="52.5" y2="48.6"/>
	<line class="st3" x1="41.7" y1="45" x2="52.5" y2="45"/>
	<path class="st7" d="M12.6,10.5c-0.4,0-0.6,0.3-0.6,0.6s0.3,0.6,0.6,0.6c0.4,0,0.6-0.3,0.6-0.6S13,10.5,12.6,10.5"/>
	<path class="st7" d="M13.8,14.4l-0.6-2.1c0,0-0.1-0.1-0.1-0.1h-0.9c0,0-0.1,0-0.1,0.1l-0.6,2.1c0,0,0,0.1,0,0.1c0,0,0.1,0,0.1,0H12
		v1.4c0,0.1,0,0.1,0.1,0.1h1.1c0.1,0,0.1,0,0.1-0.1v-1.4h0.4C13.8,14.6,13.8,14.5,13.8,14.4C13.8,14.4,13.8,14.4,13.8,14.4"/>
	<path class="st7" d="M47.1,9.9c-0.4,0-0.7,0.3-0.7,0.7c0,0.4,0.3,0.7,0.7,0.7c0.4,0,0.7-0.3,0.7-0.7C47.8,10.3,47.5,9.9,47.1,9.9"
		/>
	<path class="st7" d="M47.5,11.8h-0.7c-0.5,0-0.8,0.4-0.8,0.8v1.7c0,0.1,0.1,0.1,0.1,0.1h0.4v1.5c0,0.1,0.1,0.1,0.1,0.1h1.2
		c0.1,0,0.1-0.1,0.1-0.1v-1.5h0.4c0.1,0,0.1-0.1,0.1-0.1v-1.7C48.3,12.2,47.9,11.8,47.5,11.8"/>
</g>
</svg>
