<?xml version="1.0" encoding="utf-8"?>
<!-- Generator: Adobe Illustrator 19.0.0, SVG Export Plug-In . SVG Version: 6.00 Build 0)  -->
<svg version="1.1" id="Layer_1" xmlns="http://www.w3.org/2000/svg" xmlns:xlink="http://www.w3.org/1999/xlink" x="0px" y="0px"
	 viewBox="0 0 60 50" style="enable-background:new 0 0 60 50;" xml:space="preserve">
<style type="text/css">
	.st0{fill:#336CB4;}
</style>
<g id="XMLID_157_">
	<g id="XMLID_158_">
		<g id="XMLID_159_">
			<path id="XMLID_178_" class="st0" d="M37.291,45.56c-0.008-0.017-0.011-0.036-0.02-0.052l-3.86-6.948l3.149-5.039
				c0.555-0.885,0.749-1.949,0.543-2.974l-0.551-2.739v-8.589l3.036-3.036c0.004,0,0.006-0.011,0.01-0.015
				c0.004-0.004,0.011-0.006,0.015-0.011l7.898-8.606c0.919-1.008,0.882-2.562-0.084-3.525c-0.996-0.998-2.612-1-3.61-0.005
				c-0.028,0.028-0.056,0.057-0.083,0.086l-7.734,8.429l-2.996,2.247h-0.862c0.72-0.624,1.134-1.529,1.135-2.482l-0.074-2.337
				c0.886-0.201,1.697-0.646,2.345-1.283l0.765-0.764c0.32-0.32,0.32-0.838,0-1.158c-0.027-0.027-0.056-0.052-0.086-0.075
				l-2.158-1.626C32.57,3.864,30.515,3.647,28.8,4.5l-0.93,0.466c-0.03,0.016-0.11,0.066-0.138,0.082
				c-1.718,1.147-2.315,3.393-1.392,5.241l0.344,0.688l0.04,1.35c0.003,0.944,0.416,1.841,1.132,2.457h-0.025l-3.834-3.068
				l-1.884-1.88l4.946-5.564c0.903-1.017,0.855-2.562-0.109-3.522c-0.49-0.498-1.165-0.77-1.863-0.75
				c-0.7,0.013-1.363,0.313-1.834,0.83L17.06,7.583c-1.189,1.291-1.146,3.291,0.098,4.53l3.25,3.25
				c0.01,0.009,0.022,0.012,0.032,0.021s0.013,0.02,0.023,0.029l4.619,3.849v10.855l-4.797,7.995
				c-0.138,0.229-0.155,0.51-0.047,0.754l2.866,6.442c-1.269,0.481-2.11,1.696-2.115,3.053v0.819c0,0.452,0.367,0.819,0.819,0.819
				h6.552c0.452,0,0.819-0.367,0.819-0.819C29.181,49.633,29.548,50,30,50h6.552c0.452,0,0.819-0.367,0.819-0.819v-3.276
				c0-0.005,0-0.01,0-0.015c-0.003-0.091-0.021-0.18-0.053-0.265C37.31,45.603,37.301,45.581,37.291,45.56z M44.94,5.216
				c0.167-0.187,0.405-0.295,0.655-0.3c0.251-0.011,0.495,0.087,0.67,0.268c0.346,0.344,0.36,0.9,0.033,1.262l-7.318,7.973
				l-1.297-1.297L44.94,5.216z M27.582,8.884c-0.159-0.963,0.258-1.931,1.067-2.477V6.405l0.884-0.441
				c1.151-0.571,2.53-0.42,3.531,0.387l1.424,1.072l-0.098,0.098c-1.2,1.161-3.061,1.289-4.409,0.304l-0.435-0.328
				c-0.181-0.134-0.408-0.189-0.63-0.152c-0.222,0.038-0.418,0.166-0.543,0.353L27.582,8.884z M31.638,12.327
				c-0.007,0.905-0.746,1.632-1.651,1.625s-1.632-0.746-1.625-1.651l-0.049-1.556l0.95-1.425c0.693,0.443,1.484,0.708,2.305,0.77
				L31.638,12.327z M18.32,10.955c-0.62-0.62-0.642-1.619-0.049-2.265l6.187-6.75c0.17-0.187,0.41-0.296,0.663-0.301
				c0.255-0.002,0.5,0.097,0.681,0.277c0.346,0.347,0.362,0.902,0.037,1.269l-5.459,6.142c-0.288,0.324-0.273,0.817,0.034,1.124
				l1.878,1.878l-1.299,1.298L18.32,10.955z M22.204,14.729l1.305-1.304l3.522,2.818c0.145,0.116,0.326,0.179,0.512,0.179h5.733
				c0.177,0,0.349-0.058,0.491-0.164l2.708-2.031l1.376,1.376L35.154,18.3c-0.154,0.154-0.24,0.362-0.24,0.579v8.19h-8.19v-8.19
				c0-0.243-0.108-0.473-0.295-0.629L22.204,14.729z M21.913,38.591l4.694-7.825c0.077-0.127,0.117-0.273,0.117-0.421v-1.638h8.337
				l0.432,2.16c0.123,0.615,0.006,1.253-0.326,1.785L31.762,38.1c-0.158,0.253-0.166,0.572-0.021,0.832l3.418,6.154h-2.221
				l-3.685-6.634l1.524-4.572c0.143-0.429-0.089-0.893-0.518-1.036c-0.294-0.098-0.619-0.021-0.838,0.198l-4.914,4.914
				c-0.24,0.24-0.307,0.602-0.17,0.912l2.764,6.219H24.8L21.913,38.591z M27.543,48.362h-4.914c0-0.905,0.733-1.638,1.638-1.638
				h3.276V48.362z M29.181,48.362v-2.457c0-0.012-0.007-0.023-0.007-0.035c-0.003-0.09-0.021-0.178-0.052-0.262
				c0-0.009-0.005-0.019-0.008-0.028v-0.007l-3.047-6.857l2.063-2.063l-0.541,1.622c-0.071,0.217-0.049,0.455,0.061,0.655
				l3.558,6.404C29.981,45.84,29.181,47.036,29.181,48.362z M35.733,48.362h-4.914c0-0.905,0.733-1.638,1.638-1.638h3.276V48.362z"
				/>
			<path id="XMLID_175_" class="st0" d="M16.382,38.593l-3.184-1.274l-1.274-3.184c-0.167-0.42-0.644-0.625-1.064-0.458
				c-0.209,0.083-0.374,0.249-0.458,0.458l-1.273,3.184l-3.184,1.274c-0.42,0.168-0.624,0.645-0.456,1.065
				c0.083,0.208,0.248,0.373,0.456,0.456l3.184,1.274l1.273,3.183c0.167,0.42,0.644,0.625,1.064,0.458
				c0.209-0.083,0.374-0.249,0.458-0.458l1.274-3.183l3.184-1.274c0.42-0.168,0.624-0.645,0.456-1.065
				C16.755,38.841,16.59,38.676,16.382,38.593z M12.264,39.997c-0.208,0.083-0.373,0.248-0.456,0.456l-0.644,1.608l-0.644-1.608
				c-0.083-0.208-0.248-0.373-0.456-0.456l-1.609-0.644l1.609-0.644c0.208-0.083,0.373-0.248,0.456-0.456l0.644-1.609l0.644,1.609
				c0.083,0.208,0.248,0.373,0.456,0.456l1.609,0.644L12.264,39.997z"/>
			<path id="XMLID_172_" class="st0" d="M54.511,18.575c-0.083-0.208-0.248-0.373-0.456-0.456l-3.184-1.274l-1.274-3.184
				c-0.167-0.42-0.644-0.625-1.064-0.458c-0.209,0.083-0.374,0.249-0.458,0.458l-1.274,3.184l-3.184,1.274
				c-0.42,0.168-0.624,0.645-0.456,1.065c0.083,0.208,0.248,0.373,0.456,0.456l3.184,1.274l1.274,3.183
				c0.167,0.42,0.644,0.625,1.064,0.458c0.209-0.083,0.374-0.249,0.458-0.458l1.274-3.183l3.184-1.274
				C54.475,19.471,54.679,18.994,54.511,18.575z M49.936,19.523c-0.208,0.083-0.373,0.248-0.456,0.456l-0.644,1.608l-0.644-1.608
				c-0.083-0.208-0.248-0.373-0.456-0.456l-1.609-0.644l1.609-0.644c0.208-0.083,0.373-0.248,0.456-0.456l0.644-1.609l0.644,1.609
				c0.083,0.208,0.248,0.373,0.456,0.456l1.609,0.644L49.936,19.523z"/>
			<rect id="XMLID_58_" x="48.836" y="40.172" class="st0" width="1.638" height="1.638"/>
			<rect id="XMLID_57_" x="48.836" y="45.085" class="st0" width="1.638" height="1.638"/>
			<rect id="XMLID_56_" x="51.293" y="42.628" class="st0" width="1.638" height="1.638"/>
			<rect id="XMLID_37_" x="46.379" y="42.628" class="st0" width="1.638" height="1.638"/>
			<rect id="XMLID_36_" x="12.802" y="18.059" class="st0" width="1.638" height="1.638"/>
			<rect id="XMLID_35_" x="12.802" y="21.335" class="st0" width="1.638" height="1.638"/>
			<rect id="XMLID_34_" x="14.44" y="19.697" class="st0" width="1.638" height="1.638"/>
			<rect id="XMLID_33_" x="11.164" y="19.697" class="st0" width="1.638" height="1.638"/>
			<path id="XMLID_32_" class="st0" d="M40.407,29.766c-0.325-0.314-0.844-0.305-1.158,0.02c-0.307,0.317-0.307,0.821,0,1.138
				l1.059,1.059l-1.059,1.059c-0.32,0.32-0.32,0.838,0,1.158c0.32,0.32,0.838,0.32,1.158,0l1.638-1.638
				c0.32-0.32,0.32-0.838,0-1.158L40.407,29.766z"/>
			<path id="XMLID_31_" class="st0" d="M44.502,29.766c-0.325-0.314-0.844-0.305-1.158,0.02c-0.307,0.317-0.307,0.821,0,1.138
				l1.059,1.059l-1.059,1.059c-0.325,0.314-0.334,0.833-0.02,1.158c0.314,0.325,0.833,0.334,1.158,0.02
				c0.007-0.007,0.014-0.013,0.02-0.02l1.638-1.638c0.32-0.32,0.32-0.838,0-1.158L44.502,29.766z"/>
			<path id="XMLID_30_" class="st0" d="M13.042,11.268c0.325,0.314,0.844,0.305,1.158-0.02c0.307-0.317,0.307-0.821,0-1.138
				l-1.059-1.059L14.2,7.993c0.308-0.318,0.299-0.831,0-1.158c-0.32-0.32-0.838-0.32-1.158,0l-1.638,1.638
				c-0.32,0.32-0.32,0.838,0,1.158L13.042,11.268z"/>
			<path id="XMLID_29_" class="st0" d="M8.947,11.268c0.325,0.314,0.844,0.305,1.158-0.02c0.307-0.317,0.307-0.821,0-1.138
				L9.046,9.051l1.059-1.059c0.32-0.32,0.32-0.838,0-1.158c-0.32-0.32-0.838-0.32-1.158,0L7.309,8.472
				c-0.32,0.32-0.32,0.838,0,1.158L8.947,11.268z"/>
		</g>
	</g>
</g>
</svg>
