<?xml version="1.0" encoding="utf-8"?>
<!-- Generator: Adobe Illustrator 23.0.3, SVG Export Plug-In . SVG Version: 6.00 Build 0)  -->
<svg version="1.1" id="Layer_1" xmlns="http://www.w3.org/2000/svg" xmlns:xlink="http://www.w3.org/1999/xlink" x="0px" y="0px"
	 viewBox="0 0 126 126" style="enable-background:new 0 0 126 126;" xml:space="preserve">
<style type="text/css">
	.st0{fill:#F2F6FC;}
	.st1{fill:none;}
	.st2{fill:#B1AFD7;}
	.st3{fill:#807CBB;}
	.st4{fill:#D2EEFC;}
	.st5{fill:#41388C;}
	.st6{opacity:0.51;}
	.st7{clip-path:url(#SVGID_2_);fill:#71CFF5;}
	.st8{fill:#253D87;}
	.st9{fill:#F2B69F;}
	.st10{fill:#EFA282;}
	.st11{fill:#F2BA9D;}
	.st12{fill:#F5CEAD;}
	.st13{fill:#EE9482;}
	.st14{fill:#FFFFFF;}
	.st15{fill:url(#SVGID_3_);}
	.st16{fill:url(#SVGID_4_);}
	.st17{fill:#27387D;}
	.st18{fill:#1F2759;}
	.st19{fill:#0D1520;}
	.st20{fill:#6E65AD;}
	.st21{clip-path:url(#SVGID_6_);fill:#D2EEFC;}
</style>
<path class="st0" d="M126,63c0,34.8-28.2,63-63,63C28.2,126,0,97.8,0,63C0,28.2,28.2,0,63,0C97.8,0,126,28.2,126,63"/>
<path class="st1" d="M0,63c0,34.8,28.2,63,63,63s63-28.2,63-63S97.8,0,63,0S0,28.2,0,63"/>
<path class="st2" d="M69.3,77.8c0,0,7.7,6.3,9.1,14.1c1.8,9.8-6.2,13.6-6.2,13.6l-0.8-4.9c0,0,2.3-3.1,1.9-5.8c-0.5-3.4-3.1-6-3.1-6
	S68,83.8,69.3,77.8"/>
<path class="st2" d="M56.7,77.8c0,0-7.7,6.3-9.1,14.1c-1.8,9.8,6.2,13.6,6.2,13.6l0.8-4.9c0,0-2.3-3.1-1.9-5.8c0.5-3.4,3.1-6,3.1-6
	S58,83.8,56.7,77.8"/>
<path class="st3" d="M56.1,84.4l-0.3-5.8c0,0-4.4,4.4-2.9,15.1l0,0c0.8-2.8,2.9-4.8,2.9-4.8s0-0.1,0.1-0.2L56.1,84.4z"/>
<path class="st3" d="M70,84.4l0.3-5.8c0,0,4.3,4.4,2.8,15.1c-0.9-2.8-2.8-4.8-2.8-4.8s0-0.1-0.1-0.2L70,84.4z"/>
<path class="st4" d="M72,82.6c-0.4-3.4-3-6.1-5.9-6.1h0h-3h0h-3h0c-2.9,0-5.5,2.7-5.9,6.1c-0.5,4.7,0.2,11.5,1,20.4c0,0,2.4,3,8,2.4
	c5.6,0.6,8-2.4,8-2.4C71.8,94.1,72.5,87.3,72,82.6"/>
<rect x="66.1" y="84.1" class="st2" width="4" height="1.2"/>
<polygon class="st5" points="63.5,78.9 62.8,78.9 62.8,79.1 62.5,78.9 60.4,95.9 63,96.5 65.7,95.9 "/>
<g class="st6">
	<g>
		<defs>
			<rect id="SVGID_1_" x="54.2" y="92.3" width="17.7" height="7.4"/>
		</defs>
		<clipPath id="SVGID_2_">
			<use xlink:href="#SVGID_1_"  style="overflow:visible;"/>
		</clipPath>
		<path class="st7" d="M54.2,92.4c0.1,2.1,0.3,4.3,0.5,6.7l4.6,0.6l10.8-1c0,0,0.7-0.6,1.4-1.4c0.2-1.8,0.3-3.4,0.4-5
			C63.3,94.9,56.3,93,54.2,92.4"/>
	</g>
</g>
<path class="st8" d="M63.8,79.2l0.7-0.7L63,77.2l-1.4,1.4l0.7,0.7C62.7,79.6,63.4,79.6,63.8,79.2"/>
<path class="st9" d="M65.9,67.4c0,1.1,0.9,2,2,2c1.1,0,2-0.9,2-2c0-1.1-0.9-2-2-2C66.7,65.5,65.9,66.3,65.9,67.4"/>
<path class="st10" d="M66.5,67.4c0,0.7,0.6,1.3,1.3,1.3c0.7,0,1.3-0.6,1.3-1.3c0-0.7-0.6-1.3-1.3-1.3C67.1,66.1,66.5,66.7,66.5,67.4
	"/>
<path class="st9" d="M56.1,67.4c0,1.1,0.9,2,2,2c1.1,0,2-0.9,2-2c0-1.1-0.9-2-2-2C57,65.5,56.1,66.3,56.1,67.4"/>
<path class="st10" d="M56.8,67.4c0,0.7,0.6,1.3,1.3,1.3c0.7,0,1.3-0.6,1.3-1.3c0-0.7-0.6-1.3-1.3-1.3C57.4,66.1,56.8,66.7,56.8,67.4
	"/>
<rect x="59.8" y="70.9" class="st11" width="6.4" height="6.4"/>
<path class="st12" d="M63.6,59l-0.9,0.4L62.5,59l-4.8,3.6v6.6c1,4.2,5.3,5.9,5.3,5.9s4.4-1.7,5.3-5.9v-6.6L63.6,59z"/>
<polygon class="st13" points="63.8,69.6 63,66.5 62.3,69.6 "/>
<path class="st5" d="M68.4,67.1l-0.7-2.8c0,0,0.1,1-1.4,1.4v-1.1c0,0-1.2,1.6-4,1.1l1.2-1l-4.5,1.3l1.2-1.7h-1.2l-1.2,2.2l-0.5-4.4
	c0,0-2.1-0.7-1.6-3.1l2.1,1c0,0-1.8-1.2-0.5-3.8l2.1,2.1c0,0-0.4-1.5,0.9-2.5l1.5,1.9c0,0,4.9-1,7.6,3.5L68.4,67.1z"/>
<path class="st14" d="M63,72.9c1.2,0,2.2-1,2.2-2.2h-4.4C60.8,71.9,61.8,72.9,63,72.9"/>
<path class="st2" d="M63,77.3l-2,2c0,0-3-1.2-1.2-4.1C59.8,75.2,61,76.7,63,77.3"/>
<path class="st2" d="M63,77.3l2,2c0,0,3-1.2,1.2-4.1C66.2,75.2,65.1,76.7,63,77.3"/>
<path class="st14" d="M74.2,108.7H51.9v-13c0-1.1,0.9-2.1,2.1-2.1h18.2c1.1,0,2.1,0.9,2.1,2.1V108.7z"/>
<linearGradient id="SVGID_3_" gradientUnits="userSpaceOnUse" x1="-589.8535" y1="1405.3431" x2="-588.8535" y2="1405.3431" gradientTransform="matrix(10.7706 10.7706 10.7706 -10.7706 -8729.9229 21589.7148)">
	<stop  offset="0" style="stop-color:#E5F3F6"/>
	<stop  offset="1" style="stop-color:#D9E2F3"/>
</linearGradient>
<polygon class="st15" points="57.4,95.6 66.2,104.4 57.4,113.2 48.6,104.4 "/>
<path class="st1" d="M51.9,103.3l11.1,4.4c0,0-4.3-4.4-11.1-6.5V103.3z"/>
<linearGradient id="SVGID_4_" gradientUnits="userSpaceOnUse" x1="-569.9159" y1="1425.2804" x2="-568.9159" y2="1425.2804" gradientTransform="matrix(-10.7705 10.7705 -10.7705 -10.7705 9285.4082 21589.541)">
	<stop  offset="0" style="stop-color:#E5F3F6"/>
	<stop  offset="1" style="stop-color:#D9E2F3"/>
</linearGradient>
<polygon class="st16" points="68.6,95.6 59.9,104.4 68.6,113.2 77.4,104.4 "/>
<path class="st1" d="M63.1,107.6l11.1-4.4v-2.1C67.4,103.2,63.1,107.6,63.1,107.6"/>
<path class="st17" d="M47.6,113.2v2.9c0,0,15.9-1.7,27.4-4.3c0,0,6.5-2,12.5-5c1.7-0.8,2.1-3.1,0.9-4.5c-1.1-1.2-2.8-2.2-5.6-2.2
	c-6.4,0.1-19.5,7.3-19.5,7.3L47.6,113.2z"/>
<polyline class="st18" points="63.1,114 62.7,114 50.9,111.8 47.6,113.2 47.6,116.1 "/>
<path class="st8" d="M78.4,113.2v2.9c0,0-15.9-1.7-27.5-4.3c0,0-6.5-2-12.5-5c-1.6-0.8-2.2-2.9-1-4.3c1-1.2,2.8-2.4,5.8-2.3
	c6.4,0.1,19.5,7.3,19.5,7.3L78.4,113.2z"/>
<path class="st19" d="M47.6,116.1c0,0-2.9,0.5-9.8,0.9v-2.4l7.5-2.4l2.3,1V116.1z"/>
<path class="st19" d="M78.4,116.1c0,0,2.9,0.5,9.8,0.9v-2.4l-7.5-2.4l-2.3,1V116.1z"/>
<path class="st20" d="M81.4,28.1C81.4,17.6,72.9,9,62.3,9c-10.6,0-19.1,8.6-19.1,19.1c0,9,6.2,16.5,14.6,18.6l4.5,6.7l4.5-6.7
	C75.2,44.7,81.4,37.1,81.4,28.1"/>
<path class="st3" d="M78.2,28.1c0,8.7-7.1,15.8-15.8,15.8s-15.8-7.1-15.8-15.8c0-8.7,7.1-15.8,15.8-15.8S78.2,19.4,78.2,28.1"/>
<path class="st5" d="M62.5,28.6c0.4,1.4,0,2.8-1.1,3.8v0.2c1-0.1,3.1-0.2,3.4-0.2h4.5v3.1H55.4v-3.1c4.4-0.3,4-2.2,3.5-3.8h-3.1
	v-1.8h2.3c-0.6-1.5-1-2.8-1-3.9c0-3,2.6-5,6-5c4.1,0,5.7,2.9,5.7,5.2h-3.5c0-1.1-0.7-2-2.2-2c-1.4,0-2.4,0.7-2.4,2
	c0,0.9,0.4,2.3,1,3.7h4.4v1.8H62.5z"/>
<g>
	<defs>
		<path id="SVGID_5_" d="M126,63c0,34.8-28.2,63-63,63C28.2,126,0,97.8,0,63C0,28.2,28.2,0,63,0C97.8,0,126,28.2,126,63"/>
	</defs>
	<clipPath id="SVGID_6_">
		<use xlink:href="#SVGID_5_"  style="overflow:visible;"/>
	</clipPath>
	<rect x="20.9" y="110.8" class="st21" width="84.1" height="15.7"/>
</g>
</svg>
