<?xml version="1.0" encoding="utf-8"?>
<!-- Generator: Adobe Illustrator 23.0.3, SVG Export Plug-In . SVG Version: 6.00 Build 0)  -->
<svg version="1.1" id="Layer_1" xmlns="http://www.w3.org/2000/svg" xmlns:xlink="http://www.w3.org/1999/xlink" x="0px" y="0px"
	 viewBox="0 0 624.8 455.9" style="enable-background:new 0 0 624.8 455.9;" xml:space="preserve">
<style type="text/css">
	.st0{fill:none;}
	.st1{opacity:0.2;}
	.st2{clip-path:url(#SVGID_2_);}
	.st3{fill:#E9EBFB;}
	.st4{clip-path:url(#SVGID_4_);fill:#E0E2F5;}
	.st5{fill:#81B7FB;}
	.st6{fill:#4D8BD7;}
	.st7{fill:#DCE0F4;}
	.st8{fill:#09ACF2;}
	.st9{fill:none;stroke:#FFFFFF;stroke-width:5;stroke-linecap:round;stroke-linejoin:round;stroke-miterlimit:10;}
	.st10{fill:none;stroke:#E4EAEF;stroke-width:14;stroke-linecap:round;stroke-miterlimit:10;}
	.st11{fill:#E4EAEF;}
	.st12{fill:#306FB4;}
	.st13{fill:none;stroke:#E4EAEF;stroke-width:3;stroke-linecap:round;stroke-linejoin:round;stroke-miterlimit:10;}
	.st14{fill:#FFFFFF;}
	.st15{fill:#21283A;}
	.st16{fill:#F2BE9B;}
	.st17{fill:#1F2E3B;}
	.st18{fill:#B0B0FF;}
	.st19{fill:#393F5C;}
	.st20{fill:#EDB48D;}
	.st21{fill-rule:evenodd;clip-rule:evenodd;fill:#256193;}
</style>
<rect x="259.2" y="214.4" class="st0" width="80.4" height="20.4"/>
<g class="st1">
	<defs>
		<rect id="SVGID_1_" x="64.5" y="142.5" class="st1" width="560.3" height="313.4"/>
	</defs>
	<clipPath id="SVGID_2_">
		<use xlink:href="#SVGID_1_"  style="overflow:visible;"/>
	</clipPath>
	<g class="st2">
		<path class="st3" d="M266.5,215.8c-7.9,9.3-14.5,18.1-7.2,27.4c3.6,4.6,10.1,8.8,17.9,15.9c34.3,31.1-3.5,47.1-47.9,47.8
			c-44.4,0.7-135.8-2.7-147.2,71.9c-6.5,42.1,10.6,143.6,236.1,166.3c203.2,20.5,320.9-64.8,290.7-111.9
			c-30.2-47.1-64.3-67-46.8-88.6c26.3-32.5,45.2-36.3,49.7-83.1C623.6,139.6,355.2,111.9,266.5,215.8z"/>
		<g>
			<defs>
				<path id="SVGID_3_" d="M266.5,215.8c-7.9,9.3-14.5,18.1-7.2,27.4c3.6,4.6,10.1,8.8,17.9,15.9c34.3,31.1-3.5,47.1-47.9,47.8
					c-44.4,0.7-135.8-2.7-147.2,71.9c-6.5,42.1,10.6,143.6,236.1,166.3c203.2,20.5,320.9-64.8,290.7-111.9
					c-30.2-47.1-64.3-67-46.8-88.6c26.3-32.5,45.2-36.3,49.7-83.1C623.6,139.6,355.2,111.9,266.5,215.8z"/>
			</defs>
			<clipPath id="SVGID_4_">
				<use xlink:href="#SVGID_3_"  style="overflow:visible;"/>
			</clipPath>
			<path class="st4" d="M250.3,178.8c0,0,26.9,80.4,87.8,148.7c30.8,34.5,183.1,109.3,108.5,158.7C93.2,720,66.7,362.7,66.7,362.7
				L164,204.5L250.3,178.8z"/>
		</g>
	</g>
</g>
<rect x="209.3" y="214.4" class="st0" width="82.8" height="21"/>
<g>
	<path class="st5" d="M494,273.6c-1.4,0-37.4-6.6-39.2-43.7c-1.8-37.1,21.1-45.1,14.9-86.7c-6.2-41.5-22.1-54.2,13.3-82.5
		c0,0,15.8-11.3,16.5-28.3c0.8-20.3,32.5-42.3,53.8-27.7c21.3,14.7,16.4,35.4-1.7,68.4c-18.1,33-0.5,39.8,3,51
		c3.5,11.2,11.7,23.1-6.8,48.4c-18.5,25.3,3.8,58.4-12,82.7C535.8,255.2,522,273.1,494,273.6z"/>
	<g>
		<path class="st6" d="M499.8,330.7c0.8-0.2,1.3-1,1.1-1.9C481.1,214.7,520,62.5,520.4,61c0.2-0.9-0.2-1.8-1-2.1
			c-0.8-0.3-1.6,0.2-1.9,1.1c-0.4,1.5-39.4,154.5-19.5,269.3C498.1,330.2,498.9,330.8,499.8,330.7
			C499.7,330.7,499.8,330.7,499.8,330.7z"/>
		<path class="st6" d="M507.1,120.8c0.1,0,0.2,0,0.2-0.1c0.8-0.3,1.1-1.3,0.8-2.2c-0.1-0.2-8.2-20.6-11.6-37.8
			c-0.2-0.9-1-1.5-1.8-1.4c-0.8,0.1-1.3,1-1.2,1.9c3.4,17.6,11.7,38.3,11.8,38.5C505.6,120.6,506.4,121,507.1,120.8z"/>
		<path class="st6" d="M502,154.8c0.2,0,0.4-0.1,0.6-0.3c7.6-6.6,26.8-18.8,27-18.9c0.7-0.5,0.9-1.5,0.5-2.3
			c-0.4-0.8-1.4-1.1-2.1-0.7c-0.8,0.5-19.5,12.4-27.3,19.2c-0.6,0.6-0.7,1.6-0.2,2.4C500.8,154.7,501.5,154.9,502,154.8z"/>
		<path class="st6" d="M497.8,187.9c0.1,0,0.2-0.1,0.3-0.1c0.7-0.4,1-1.4,0.7-2.2l-10.8-24c-0.4-0.8-1.3-1.2-2-0.8
			c-0.7,0.4-1,1.4-0.7,2.2l10.8,24C496.4,187.6,497.1,188,497.8,187.9z"/>
	</g>
</g>
<path class="st7" d="M148.9,40.2c0,0-4.6-6-7.4-8.8c-5.1-5-10.9-13.8-29.5-7.3c-1.4,0.5-2.9,1.2-4.2,1.9c-1.6,0.8-6.7,0.8-11.9-3.9
	C87.5,14.5,84.3,8.8,72.9,8.6C59.7,8.4,57.6,27.2,47.4,32c-6.5,3.1-23.7,6.1-27.3,7.5L148.9,40.2z"/>
<path class="st7" d="M346.2,61.7c0,0,2.6-3,4.2-4.4c2.9-2.5,6.2-6.9,16.8-3.6c0.8,0.3,1.6,0.6,2.4,0.9c0.9,0.4,3.8,0.4,6.8-1.9
	c4.7-3.7,6.6-6.6,13-6.6c7.5-0.1,8.7,9.3,14.5,11.7c3.7,1.5,13.5,3,15.5,3.7L346.2,61.7z"/>
<rect x="243.3" y="210.7" class="st0" width="80.4" height="20.4"/>
<path class="st8" d="M156.9,104.7v262.7H316V104.7C316,104.7,239.7,22.1,156.9,104.7z"/>
<path class="st9" d="M172.4,119.8v227.4h128.7V119.8C301.1,119.8,239.4,63.5,172.4,119.8z"/>
<path class="st10" d="M151.5,99.8c0,0,75.3-69.3,168.2,0"/>
<path class="st11" d="M319.7,380.1H153.5c-3.6,0-6.4-2.9-6.4-6.4v-2.1c0-3.6,2.9-6.4,6.4-6.4h166.1c3.6,0,6.4,2.9,6.4,6.4v2.1
	C326.1,377.2,323.2,380.1,319.7,380.1z"/>
<rect x="168" y="145.6" class="st12" width="8.3" height="22.1"/>
<path class="st12" d="M265.7,303.5h-59.6c-0.7,0-1.2-0.6-1.2-1.2v-1c0-0.7,0.6-1.2,1.2-1.2h59.6c0.7,0,1.2,0.6,1.2,1.2v1
	C266.9,302.9,266.4,303.5,265.7,303.5z"/>
<path class="st12" d="M265.7,312.8h-59.6c-0.7,0-1.2-0.6-1.2-1.2v-1c0-0.7,0.6-1.2,1.2-1.2h59.6c0.7,0,1.2,0.6,1.2,1.2v1
	C266.9,312.2,266.4,312.8,265.7,312.8z"/>
<path class="st12" d="M265.7,322.1h-59.6c-0.7,0-1.2-0.6-1.2-1.2v-1c0-0.7,0.6-1.2,1.2-1.2h59.6c0.7,0,1.2,0.6,1.2,1.2v1
	C266.9,321.6,266.4,322.1,265.7,322.1z"/>
<rect x="168" y="304.2" class="st12" width="8.3" height="22.1"/>
<polyline class="st13" points="282.5,210.7 285.5,213.7 285.5,227.9 282.9,230.4 "/>
<g>
	<path class="st14" d="M225.5,164h22c4,0,7.3-3.3,7.3-7.3v-22c0-4-3.3-7.3-7.3-7.3h-22c-4,0-7.3,3.3-7.3,7.3v22
		C218.1,160.7,221.4,164,225.5,164L225.5,164z M243.5,134c0.4-0.4,0.8-0.6,1.4-0.6c0.5,0,1,0.2,1.4,0.6c0.4,0.4,0.6,0.8,0.6,1.4
		c0,0.6-0.2,1-0.6,1.4c-0.4,0.4-0.8,0.5-1.4,0.5c-0.5,0-1-0.2-1.4-0.5c-0.4-0.4-0.5-0.8-0.5-1.4C243,134.8,243.1,134.4,243.5,134
		L243.5,134z M240.3,140.2c0-0.7,0.3-1.2,0.7-1.7c0.5-0.5,1.1-0.7,1.7-0.7h4.3c0.7,0,1.3,0.3,1.7,0.7c0.5,0.5,0.7,1.1,0.7,1.7v6
		c0,0.2-0.1,0.4-0.2,0.6c-0.2,0.2-0.3,0.2-0.6,0.2c-0.2,0-0.4-0.1-0.6-0.2c-0.2-0.2-0.2-0.4-0.2-0.6v-5.4h-0.5v14.9
		c0,0.3-0.1,0.6-0.3,0.8c-0.2,0.2-0.5,0.3-0.8,0.3c-0.3,0-0.6-0.1-0.8-0.3c-0.2-0.2-0.3-0.5-0.3-0.8v-8.6h-0.5v8.6
		c0,0.3-0.1,0.6-0.3,0.8c-0.2,0.2-0.5,0.3-0.8,0.3c-0.3,0-0.6-0.1-0.8-0.3c-0.2-0.2-0.4-0.5-0.4-0.8v-14.9h-0.4v5.4
		c0,0.2-0.1,0.4-0.2,0.6c-0.2,0.2-0.4,0.2-0.6,0.2c-0.2,0-0.4-0.1-0.6-0.2c-0.2-0.2-0.3-0.4-0.3-0.6V140.2z M236.3,131.9h1.9v27.5
		h-1.9V131.9z M227.5,134c0.4-0.4,0.9-0.6,1.4-0.6c0.5,0,1,0.2,1.3,0.6c0.4,0.4,0.5,0.8,0.5,1.4c0,0.6-0.2,1-0.5,1.4
		c-0.4,0.4-0.8,0.5-1.3,0.5c-0.6,0-1-0.2-1.4-0.5c-0.4-0.4-0.6-0.8-0.6-1.4C227,134.8,227.2,134.4,227.5,134L227.5,134z
		 M223.5,145.3c0-0.1,0.1-0.3,0.2-0.7c0.1-0.4,0.2-0.8,0.4-1.4c0.2-0.5,0.3-1.1,0.5-1.8c0.2-0.6,0.4-1.3,0.6-1.8
		c0.1-0.5,0.4-0.9,0.8-1.2c0.4-0.4,0.9-0.5,1.3-0.5h3.1c0.5,0,0.9,0.2,1.3,0.5c0.4,0.4,0.7,0.8,0.9,1.2c0.2,0.6,0.4,1.2,0.5,1.8
		c0.2,0.6,0.4,1.2,0.5,1.8c0.2,0.5,0.3,1,0.4,1.4c0.1,0.4,0.2,0.6,0.2,0.7l0,0.2c0,0.4-0.2,0.6-0.5,0.7l-0.2,0.1
		c-0.4,0-0.6-0.2-0.8-0.6c0-0.1-0.1-0.5-0.3-1.1c-0.2-0.6-0.3-1.2-0.5-1.8c-0.2-0.6-0.4-1.4-0.7-2.4h-0.4l2.6,8.8H231v6.7
		c0,0.3-0.1,0.5-0.3,0.6c-0.2,0.2-0.4,0.3-0.6,0.3c-0.3,0-0.5-0.1-0.7-0.3c-0.2-0.2-0.2-0.4-0.2-0.6v-6.7h-0.5v6.7
		c0,0.3-0.1,0.5-0.2,0.6c-0.2,0.2-0.4,0.3-0.6,0.3c-0.3,0-0.5-0.1-0.7-0.3c-0.2-0.2-0.3-0.4-0.3-0.6v-6.7h-2.5l2.6-8.8h-0.4
		c-0.3,1-0.5,1.8-0.7,2.4c-0.2,0.6-0.4,1.2-0.5,1.8c-0.2,0.6-0.3,0.9-0.3,1.1c-0.1,0.4-0.4,0.6-0.8,0.6l-0.2-0.1
		c-0.4-0.1-0.5-0.4-0.5-0.7C223.5,145.4,223.5,145.3,223.5,145.3L223.5,145.3z M223.5,145.3"/>
</g>
<g>
	<path class="st15" d="M354,163.5c0,0,21-2.2,27.3,16.4c0.3,0.8,0.4,1.7,0.5,2.5c0.1,2.2,0.1,6.5-1.6,9.9c-2.4,4.9,7,12.3,14.4,19.9
		c9.5,9.8,1.2,35.3-23,37.8c-24.2,2.5-38.8-5.2-37.6-16.7c1.2-11.5,10.7-9.4,13-17.4c2.3-8-13-9.1-10.7-20.1
		c2.3-11,3.7-15.4,5.7-22.6L354,163.5z"/>
	<path class="st16" d="M347.7,329.8l-7.9,14.3l1.5,67.4l-9.6,4l-8-68.8c-0.4-1.3-0.4-2.6-0.1-3.9l3.3-13L347.7,329.8z"/>
	<polygon class="st16" points="381.6,329.7 380.4,412.8 370.7,413 364.7,329.7 	"/>
	<path class="st17" d="M327.7,411.7l-4.5,4.4l-10,2.4c-1,0.3-1.9,1-2.2,2l-0.5,1.5c-0.3,0.7,0.3,1.5,1.1,1.5l29.2-0.6
		c1.1,0,1.9-0.9,1.8-2l-0.8-9.3l-3.6,1.2c-1.6,0.5-3.4,0.4-4.9-0.5l-1.7-1C330.3,410.5,328.7,410.7,327.7,411.7z"/>
	<path class="st17" d="M367,410.9l-4.5,4.4l-10,2.4c-1,0.3-1.9,1-2.2,2l-0.5,1.5c-0.3,0.7,0.3,1.5,1.1,1.5L380,422
		c1.1,0,1.9-0.9,1.8-2l-0.8-9.3l-3.6,1.2c-1.6,0.5-3.4,0.4-4.9-0.5l-1.7-1C369.6,409.7,368,409.9,367,410.9z"/>
	<path class="st18" d="M340.8,213.2l8.9,40.4l24.4-0.5l4.6-39.4c0.2-2.5-1.8-4.6-4.3-4.7l-29.4-0.4
		C343.6,208.5,340.4,210.7,340.8,213.2z"/>
	<path class="st19" d="M349.6,253.6l-0.2,4.8l-22.9,72.8l60.3,0l-1.3-56.8c0,0-1.1-14.8-11.6-21.3L349.6,253.6z"/>
	<path class="st16" d="M392.3,281c-2,3.6-6.5,4.9-10.1,2.9c-3.6-2-4.9-6.5-2.9-10.1c2-3.6,6.5-4.9,10.1-2.9
		C392.9,272.9,394.3,277.4,392.3,281z"/>
	<path class="st18" d="M374.3,209c0,0,8.4,0.3,14.4,6.6l10.1,9.4l-7.4,9.8l-16.9-14L374.3,209z"/>
	<path class="st16" d="M391.5,234.8l9.1,7.2l-14.9,30.4l4.3,4.2l21.9-35.4c0.9-1.8,0.5-3.9-1-5.2l-12-10.9L391.5,234.8z"/>
	<g>
		<g>
			<path class="st20" d="M359.9,213.9l-1-0.1c-2.7-0.3-4.6-2.6-4.4-5.3l1.6-18.4l10.7,1.1l-1.6,18.2
				C365,212.2,362.6,214.2,359.9,213.9z"/>
			<path class="st16" d="M360.4,203.7l-15.6-1.3c-2.9-0.3-5.1-2.8-4.9-5.8l2-23.2l26.3,2.3l-2,23.2
				C365.9,201.7,363.3,203.9,360.4,203.7z"/>
		</g>
		<path class="st15" d="M368.9,185.6l-3.2,4c0,0-3.4,1.9-2.9-4.6c0.5-5.5-3.6-5.4-3.6-5.4s-15.5,7.2-21.8-1.5
			c-5-6.8,8.8-15.6,19.1-14.5l13.5,9.8L368.9,185.6z"/>
		<path class="st16" d="M364.2,189.5c-0.2,2.4,1.5,4.5,3.9,4.7c2.4,0.2,4.5-1.5,4.7-3.9c0.2-2.4-1.5-4.5-3.9-4.7
			C366.5,185.3,364.4,187.1,364.2,189.5z"/>
		<path class="st14" d="M367.5,192.2c0,0.4,0.3,0.8,0.7,0.8c0.4,0,0.8-0.3,0.8-0.7c0-0.4-0.3-0.8-0.7-0.8
			C367.9,191.4,367.5,191.8,367.5,192.2z"/>
	</g>
	<path class="st14" d="M343.1,192.6l8.4,0c0,0-0.4,3.5-4.9,3.2C343,195.6,343.1,192.6,343.1,192.6z"/>
	<path class="st16" d="M331,219.3l-13.6,14.4l-22.7-12.4l-5.1,4.9l27.6,20.6c1.4,1.3,3.5,1.1,4.8-0.3l16.2-17.2L331,219.3z"/>
	<path class="st16" d="M280.9,220c0.1,3.8,3.2,6.8,7,6.7c3.8-0.1,6.8-3.2,6.7-7c-0.1-3.8-3.2-6.8-7-6.7
		C283.8,213.1,280.8,216.3,280.9,220z"/>
	<polygon class="st18" points="343.9,208.7 328.7,220.7 336.9,231.2 355.4,220.9 	"/>
	<path class="st18" d="M340.8,213.2l-0.9,12.8c-0.1,1.4,0.3,2.8,1.2,3.9l8.4,10.9L340.8,213.2z"/>
</g>
<g>
	<g>
		<path class="st21" d="M485.1,328.1c0,0,2.3,2.2,4.7,3.4C489.8,331.5,489.2,330,485.1,328.1z"/>
		<path class="st21" d="M484.6,324.5c0,0,4.7,4.4,9.5,6.7C494.1,331.3,492.9,328.4,484.6,324.5z"/>
		<path class="st21" d="M490.6,325.8c0,0,3.8,3.6,7.8,5.5C498.3,331.3,497.4,329,490.6,325.8z"/>
		<path class="st21" d="M508.8,325.1c0,0-4.4,4.1-8.9,6.3C499.9,331.4,501,328.7,508.8,325.1z"/>
		<path class="st21" d="M508.5,328.1c0,0-2.3,2.2-4.7,3.4C503.8,331.5,504.4,330,508.5,328.1z"/>
	</g>
	<path class="st21" d="M512.1,328.1c0,0-2.3,2.2-4.7,3.4C507.3,331.5,507.9,330,512.1,328.1z"/>
</g>
</svg>
