<?xml version="1.0" encoding="utf-8"?>
<!-- Generator: Adobe Illustrator 23.0.3, SVG Export Plug-In . SVG Version: 6.00 Build 0)  -->
<svg version="1.1" id="Layer_1" xmlns="http://www.w3.org/2000/svg" xmlns:xlink="http://www.w3.org/1999/xlink" x="0px" y="0px"
	 viewBox="0 0 624.8 455.9" style="enable-background:new 0 0 624.8 455.9;" xml:space="preserve">
<style type="text/css">
	.st0{fill:none;}
	.st1{fill:#FFFFFF;}
	.st2{opacity:0.2;}
	.st3{clip-path:url(#SVGID_2_);}
	.st4{fill:#E9EBFB;}
	.st5{clip-path:url(#SVGID_4_);fill:#E0E2F5;}
	.st6{fill:#81B7FB;}
	.st7{fill:#4D8BD7;}
	.st8{fill:#DCE0F4;}
	.st9{fill:#8D89A8;}
	.st10{fill:#F0E1DA;}
	.st11{fill:#EDDCCF;}
	.st12{fill:url(#SVGID_5_);}
	.st13{fill:url(#SVGID_6_);}
	.st14{fill:url(#SVGID_7_);}
	.st15{fill:#09ACF2;}
	.st16{fill:none;stroke:#FFFFFF;stroke-width:5;stroke-linecap:round;stroke-linejoin:round;stroke-miterlimit:10;}
	.st17{fill:none;stroke:#E4EAEF;stroke-width:14;stroke-linecap:round;stroke-miterlimit:10;}
	.st18{fill:#E4EAEF;}
	.st19{fill:#306FB4;}
	.st20{fill:none;stroke:#E4EAEF;stroke-width:3;stroke-linecap:round;stroke-linejoin:round;stroke-miterlimit:10;}
	.st21{fill-rule:evenodd;clip-rule:evenodd;fill:#256193;}
	.st22{opacity:0.36;fill-rule:evenodd;clip-rule:evenodd;fill:#81B7FB;}
	.st23{fill-rule:evenodd;clip-rule:evenodd;fill:#EF8F88;}
	.st24{fill-rule:evenodd;clip-rule:evenodd;fill:#312871;}
	.st25{fill-rule:evenodd;clip-rule:evenodd;fill:#F4B5AD;}
	.st26{fill-rule:evenodd;clip-rule:evenodd;fill:#EF855A;}
	.st27{fill-rule:evenodd;clip-rule:evenodd;fill:#E12D21;}
	.st28{fill-rule:evenodd;clip-rule:evenodd;fill:#831B20;}
	.st29{fill-rule:evenodd;clip-rule:evenodd;fill:#9C4F5F;}
	.st30{fill-rule:evenodd;clip-rule:evenodd;fill:#884353;}
	.st31{clip-path:url(#SVGID_9_);}
	.st32{fill-rule:evenodd;clip-rule:evenodd;fill:none;stroke:#EF855A;stroke-width:0.5;stroke-miterlimit:22.9256;}
	.st33{fill-rule:evenodd;clip-rule:evenodd;fill:#A04E61;}
	.st34{fill-rule:evenodd;clip-rule:evenodd;fill:#FFFFFF;}
	.st35{opacity:0.5;fill-rule:evenodd;clip-rule:evenodd;fill:#E7E7E8;}
	.st36{fill-rule:evenodd;clip-rule:evenodd;fill:#F7B74F;}
	.st37{fill-rule:evenodd;clip-rule:evenodd;fill:#564A9B;}
	.st38{opacity:0.8;fill-rule:evenodd;clip-rule:evenodd;fill:#E7E7E8;}
	.st39{fill:#4B4570;}
</style>
<rect x="252.4" y="215" class="st0" width="80.4" height="20.4"/>
<path class="st1" d="M342.6,182.5c-0.4,0-7.7-0.4-7.7-0.4s2.6,3.5,4.3,3.6C340.9,185.7,342.6,182.5,342.6,182.5z"/>
<g class="st2">
	<defs>
		<rect id="SVGID_1_" x="57.8" y="138.7" class="st2" width="567" height="316.8"/>
	</defs>
	<clipPath id="SVGID_2_">
		<use xlink:href="#SVGID_1_"  style="overflow:visible;"/>
	</clipPath>
	<g class="st3">
		<path class="st4" d="M262.2,212.8c-8,9.4-14.7,18.3-7.3,27.7c3.6,4.7,10.2,8.9,18.2,16c34.7,31.4-3.5,47.6-48.4,48.3
			c-44.9,0.7-137.4-2.7-149,72.6C69,420.1,86.3,522.6,314.5,545.6c205.6,20.7,324.7-65.5,294.1-113.1
			c-30.5-47.6-65.1-67.7-47.3-89.6c26.6-32.8,45.7-36.7,50.3-84C623.5,135.8,351.9,107.8,262.2,212.8z"/>
		<g>
			<defs>
				<path id="SVGID_3_" d="M262.2,212.8c-8,9.4-14.7,18.3-7.3,27.7c3.6,4.7,10.2,8.9,18.2,16c34.7,31.4-3.5,47.6-48.4,48.3
					c-44.9,0.7-137.4-2.7-149,72.6C69,420.1,86.3,522.6,314.5,545.6c205.6,20.7,324.7-65.5,294.1-113.1
					c-30.5-47.6-65.1-67.7-47.3-89.6c26.6-32.8,45.7-36.7,50.3-84C623.5,135.8,351.9,107.8,262.2,212.8z"/>
			</defs>
			<clipPath id="SVGID_4_">
				<use xlink:href="#SVGID_3_"  style="overflow:visible;"/>
			</clipPath>
			<path class="st5" d="M245.8,175.4c0,0,27.2,81.2,88.8,150.3c31.2,34.9,185.3,110.5,109.8,160.4C86.8,722.4,60,361.3,60,361.3
				l98.4-159.9L245.8,175.4z"/>
		</g>
	</g>
</g>
<g>
	<path class="st6" d="M537.3,173.5c-0.9,0-23.4-4.1-24.5-27.3c-1.1-23.2,13.2-28.2,9.3-54.1c-3.9-25.9-13.8-33.8,8.3-51.5
		c0,0,9.9-7.1,10.3-17.7c0.5-12.7,20.3-26.4,33.6-17.3c13.3,9.1,10.2,22.1-1.1,42.7C562,69,573,73.2,575.2,80.2
		c2.2,7,7.3,14.4-4.2,30.2c-11.6,15.8,2.4,36.5-7.5,51.6C563.5,162,554.8,173.2,537.3,173.5z"/>
	<g>
		<path class="st7" d="M541,209.1c0.5-0.1,0.8-0.6,0.7-1.2c-12.3-71.2,11.9-166.2,12.2-167.1c0.1-0.5-0.2-1.1-0.7-1.3
			c-0.5-0.2-1,0.1-1.2,0.7c-0.2,1-24.6,96.4-12.2,168.1C539.9,208.8,540.4,209.2,541,209.1C540.9,209.1,540.9,209.1,541,209.1z"/>
		<path class="st7" d="M545.5,78.1c0.1,0,0.1,0,0.2-0.1c0.5-0.2,0.7-0.8,0.5-1.4c-0.1-0.1-5.1-12.9-7.2-23.6c-0.1-0.6-0.6-1-1.1-0.9
			c-0.5,0.1-0.8,0.6-0.7,1.2c2.1,11,7.3,23.9,7.3,24C544.6,78,545.1,78.3,545.5,78.1z"/>
		<path class="st7" d="M542.3,99.3c0.1,0,0.3-0.1,0.4-0.2c4.8-4.1,16.7-11.7,16.8-11.8c0.4-0.3,0.6-0.9,0.3-1.4
			c-0.3-0.5-0.9-0.7-1.3-0.4c-0.5,0.3-12.2,7.8-17,12c-0.4,0.3-0.5,1-0.1,1.5C541.6,99.3,542,99.4,542.3,99.3z"/>
		<path class="st7" d="M539.7,120c0.1,0,0.1,0,0.2-0.1c0.5-0.2,0.7-0.9,0.4-1.4l-6.7-15c-0.2-0.5-0.8-0.8-1.3-0.5
			c-0.5,0.2-0.7,0.9-0.4,1.4l6.7,15C538.9,119.8,539.3,120.1,539.7,120z"/>
	</g>
</g>
<path class="st1" d="M565.9,403.4"/>
<path class="st8" d="M192.2,32.7c0,0-4.6-6-7.4-8.8c-5.1-5-10.9-13.8-29.5-7.3c-1.4,0.5-2.9,1.2-4.2,1.9c-1.6,0.8-6.7,0.8-11.9-3.9
	c-8.3-7.5-11.5-13.2-22.9-13.3C103,1,100.9,19.8,90.6,24.6c-6.5,3.1-23.7,6.1-27.3,7.5L192.2,32.7z"/>
<path class="st8" d="M357.5,48c0,0,2.6-3,4.2-4.4c2.9-2.5,6.2-6.9,16.8-3.6c0.8,0.3,1.6,0.6,2.4,0.9c0.9,0.4,3.8,0.4,6.8-1.9
	c4.7-3.7,6.6-6.6,13-6.6c7.5-0.1,8.7,9.3,14.5,11.7c3.7,1.5,13.5,3,15.5,3.7L357.5,48z"/>
<g>
	<g>
		<polygon class="st9" points="261.2,229.9 339.6,98.3 339.4,97.8 260.7,229.6 		"/>
	</g>
	<path class="st10" d="M372,162.4c0,0,1.4-8.2,6.8-8.7c5.5-0.5,5.9-11.5,9.4-13.7c3.5-2.2,8-2.6,8-2.6v-0.5c0,0-6.2-0.7-9.9,3.1
		c-3.7,3.8-3.5,11.4-8.4,12c-4.9,0.6-7.3,4.4-7.3,4.4L372,162.4z"/>
	<path class="st11" d="M314.4,215.7c0,0-4-7.9,4.8-12.9c0,0-6.6-15,6.8-17.2c0,0,6.8-10.3,11.6-5.5c0,0,18.2-2.2,20.1,11
		c0,0,15-2.2,15,7.7c0,0,39.9,0.4,39.9,16.9H314.4z"/>
	
		<linearGradient id="SVGID_5_" gradientUnits="userSpaceOnUse" x1="-9897.8203" y1="162.3561" x2="-9812.3779" y2="162.3561" gradientTransform="matrix(-1 0 0 1 -9329.7012 0)">
		<stop  offset="0" style="stop-color:#38ABF2"/>
		<stop  offset="1" style="stop-color:#435FA8"/>
	</linearGradient>
	<polygon class="st12" points="502,98.1 559.9,226.6 502,226.6 444.1,226.6 489.4,124 	"/>
	<linearGradient id="SVGID_6_" gradientUnits="userSpaceOnUse" x1="528.8284" y1="71.0463" x2="511.6352" y2="154.7505">
		<stop  offset="0" style="stop-color:#38ABF2"/>
		<stop  offset="0.1685" style="stop-color:#399CE3"/>
		<stop  offset="1" style="stop-color:#3B5496"/>
	</linearGradient>
	<polygon class="st13" points="473.9,226.6 502,98.1 519.9,226.6 	"/>
	
		<linearGradient id="SVGID_7_" gradientUnits="userSpaceOnUse" x1="-9684.167" y1="250.5332" x2="-9727.9658" y2="146.7418" gradientTransform="matrix(-1 0 0 1 -9329.7012 0)">
		<stop  offset="0" style="stop-color:#687DD4"/>
		<stop  offset="1" style="stop-color:#61B7FF"/>
	</linearGradient>
	<polygon class="st14" points="339.4,97.8 502,97.8 444.1,226.6 281.5,226.6 	"/>
	<g>
		<polygon class="st9" points="427.3,229.9 502.2,98.3 502,97.8 426.8,229.6 		"/>
	</g>
	<g>
		<polygon class="st9" points="587.3,227.1 587.7,226.8 502,97.8 501.8,98.3 		"/>
	</g>
</g>
<rect x="219.4" y="216" class="st0" width="80.4" height="20.4"/>
<path class="st15" d="M133,109.9v262.7h159.1V109.9C292.1,109.9,215.8,27.3,133,109.9z"/>
<path class="st16" d="M148.6,125v227.4h128.7V125C277.2,125,215.5,68.7,148.6,125z"/>
<path class="st17" d="M127.6,105c0,0,75.3-69.3,168.2,0"/>
<path class="st18" d="M295.8,385.3H129.7c-3.6,0-6.4-2.9-6.4-6.4v-2.1c0-3.6,2.9-6.4,6.4-6.4h166.1c3.6,0,6.4,2.9,6.4,6.4v2.1
	C302.2,382.4,299.3,385.3,295.8,385.3z"/>
<rect x="144.1" y="150.9" class="st19" width="8.3" height="22.1"/>
<path class="st19" d="M241.8,308.7h-59.6c-0.7,0-1.2-0.6-1.2-1.2v-1c0-0.7,0.6-1.2,1.2-1.2h59.6c0.7,0,1.2,0.6,1.2,1.2v1
	C243.1,308.1,242.5,308.7,241.8,308.7z"/>
<path class="st19" d="M241.8,318h-59.6c-0.7,0-1.2-0.6-1.2-1.2v-1c0-0.7,0.6-1.2,1.2-1.2h59.6c0.7,0,1.2,0.6,1.2,1.2v1
	C243.1,317.5,242.5,318,241.8,318z"/>
<path class="st19" d="M241.8,327.4h-59.6c-0.7,0-1.2-0.6-1.2-1.2v-1c0-0.7,0.6-1.2,1.2-1.2h59.6c0.7,0,1.2,0.6,1.2,1.2v1
	C243.1,326.8,242.5,327.4,241.8,327.4z"/>
<rect x="144.1" y="309.4" class="st19" width="8.3" height="22.1"/>
<polyline class="st20" points="261.6,216 264.6,218.9 264.6,233.1 262,235.7 "/>
<g>
	<path class="st1" d="M201.6,169.2h22c4,0,7.3-3.3,7.3-7.3v-22c0-4-3.3-7.3-7.3-7.3h-22c-4,0-7.3,3.3-7.3,7.3v22
		C194.3,165.9,197.6,169.2,201.6,169.2L201.6,169.2z M219.6,139.2c0.4-0.4,0.8-0.6,1.4-0.6c0.5,0,1,0.2,1.4,0.6
		c0.4,0.4,0.6,0.8,0.6,1.4c0,0.6-0.2,1-0.6,1.4c-0.4,0.4-0.8,0.5-1.4,0.5c-0.5,0-1-0.2-1.4-0.5c-0.4-0.4-0.5-0.8-0.5-1.4
		C219.1,140.1,219.3,139.6,219.6,139.2L219.6,139.2z M216.4,145.5c0-0.7,0.3-1.2,0.7-1.7c0.5-0.5,1.1-0.7,1.7-0.7h4.3
		c0.7,0,1.3,0.3,1.7,0.7c0.5,0.5,0.7,1.1,0.7,1.7v6c0,0.2-0.1,0.4-0.2,0.6c-0.2,0.2-0.3,0.2-0.6,0.2c-0.2,0-0.4-0.1-0.6-0.2
		c-0.2-0.2-0.2-0.4-0.2-0.6v-5.4h-0.5V161c0,0.3-0.1,0.6-0.3,0.8c-0.2,0.2-0.5,0.3-0.8,0.3c-0.3,0-0.6-0.1-0.8-0.3
		c-0.2-0.2-0.3-0.5-0.3-0.8v-8.6h-0.5v8.6c0,0.3-0.1,0.6-0.3,0.8c-0.2,0.2-0.5,0.3-0.8,0.3c-0.3,0-0.6-0.1-0.8-0.3
		c-0.2-0.2-0.4-0.5-0.4-0.8v-14.9h-0.4v5.4c0,0.2-0.1,0.4-0.2,0.6c-0.2,0.2-0.4,0.2-0.6,0.2c-0.2,0-0.4-0.1-0.6-0.2
		c-0.2-0.2-0.3-0.4-0.3-0.6V145.5z M212.4,137.1h1.9v27.5h-1.9V137.1z M203.7,139.2c0.4-0.4,0.9-0.6,1.4-0.6c0.5,0,1,0.2,1.3,0.6
		c0.4,0.4,0.5,0.8,0.5,1.4c0,0.6-0.2,1-0.5,1.4c-0.4,0.4-0.8,0.5-1.3,0.5c-0.6,0-1-0.2-1.4-0.5c-0.4-0.4-0.6-0.8-0.6-1.4
		C203.1,140.1,203.3,139.6,203.7,139.2L203.7,139.2z M199.6,150.5c0-0.1,0.1-0.3,0.2-0.7c0.1-0.4,0.2-0.8,0.4-1.4
		c0.2-0.5,0.3-1.1,0.5-1.8c0.2-0.6,0.4-1.3,0.6-1.8c0.1-0.5,0.4-0.9,0.8-1.2c0.4-0.4,0.9-0.5,1.3-0.5h3.1c0.5,0,0.9,0.2,1.3,0.5
		c0.4,0.4,0.7,0.8,0.9,1.2c0.2,0.6,0.4,1.2,0.5,1.8c0.2,0.6,0.4,1.2,0.5,1.8c0.2,0.5,0.3,1,0.4,1.4c0.1,0.4,0.2,0.6,0.2,0.7l0,0.2
		c0,0.4-0.2,0.6-0.5,0.7l-0.2,0.1c-0.4,0-0.6-0.2-0.8-0.6c0-0.1-0.1-0.5-0.3-1.1c-0.2-0.6-0.3-1.2-0.5-1.8c-0.2-0.6-0.4-1.4-0.7-2.4
		h-0.4l2.6,8.8h-2.5v6.7c0,0.3-0.1,0.5-0.3,0.6c-0.2,0.2-0.4,0.3-0.6,0.3c-0.3,0-0.5-0.1-0.7-0.3c-0.2-0.2-0.2-0.4-0.2-0.6v-6.7
		h-0.5v6.7c0,0.3-0.1,0.5-0.2,0.6c-0.2,0.2-0.4,0.3-0.6,0.3c-0.3,0-0.5-0.1-0.7-0.3c-0.2-0.2-0.3-0.4-0.3-0.6v-6.7h-2.5l2.6-8.8
		h-0.4c-0.3,1-0.5,1.8-0.7,2.4c-0.2,0.6-0.4,1.2-0.5,1.8c-0.2,0.6-0.3,0.9-0.3,1.1c-0.1,0.4-0.4,0.6-0.8,0.6l-0.2-0.1
		c-0.4-0.1-0.5-0.4-0.5-0.7C199.6,150.6,199.6,150.6,199.6,150.5L199.6,150.5z M199.6,150.5"/>
</g>
<g>
	<g>
		<path class="st21" d="M449,260.2c0,0,2.3,2.2,4.7,3.4C453.8,263.6,453.2,262.2,449,260.2z"/>
		<path class="st21" d="M448.5,256.6c0,0,4.7,4.4,9.5,6.7C458,263.4,456.9,260.6,448.5,256.6z"/>
		<path class="st21" d="M454.5,257.9c0,0,3.8,3.6,7.8,5.5C462.3,263.5,461.3,261.1,454.5,257.9z"/>
		<path class="st21" d="M472.8,257.2c0,0-4.4,4.1-8.9,6.3C463.9,263.5,465,260.9,472.8,257.2z"/>
		<path class="st21" d="M472.5,260.2c0,0-2.3,2.2-4.7,3.4C467.7,263.6,468.3,262.2,472.5,260.2z"/>
	</g>
	<path class="st21" d="M476,260.2c0,0-2.3,2.2-4.7,3.4C471.3,263.6,471.9,262.2,476,260.2z"/>
</g>
<ellipse class="st22" cx="366.4" cy="304.5" rx="50" ry="2.7"/>
<ellipse class="st22" cx="474" cy="332.5" rx="70.2" ry="5"/>
<g>
	<g>
		<path class="st23" d="M390.7,256.2c14-9.6,14.9-10.1,24.3-22.2c0.5-0.5,1.4,0.2,1,0.8c-8.7,14-7,12.4-19.1,23.5
			c-2.1,1.9-6.8,5.5-9.5,6.3c-0.5,0.2-1.1,0.2-1.6,0c-0.5-0.3-0.9-0.8-1.1-1.4c-0.8-1.9-1.6-3.8-2.2-5.8c-1.6-4.7-4.6-11.6-1.5-16.6
			c0.4-0.7,0.9-1.3,1.7-1.5c1.3-0.5,2.7,0.4,3.4,1.5C386.6,242,390.7,256.2,390.7,256.2z"/>
	</g>
	<g>
		<path class="st24" d="M366.1,222.9l-0.4,0.1c-3.3,0.7-8.1-3.5-8.8-6.8l-0.4-6.6l6.4-1.4L366.1,222.9z"/>
		<polygon class="st25" points="371.8,231.3 359.8,231.3 363.2,219.3 371.4,220.3 		"/>
		<path class="st23" d="M371.4,220.3l-8.2-1l-1.6,5.6c1.8,2.1,4.5,5.3,7.5,5.3c0.9,0,1.8-0.3,2.6-0.8L371.4,220.3z"/>
		<path class="st25" d="M372.6,226.7c-5.4,1.2-10.7-2.2-11.9-7.6l-2.4-10.9l16.7-3.7c0,0,1.9,8.5,1.9,14.5
			C377,223.5,375.4,226.1,372.6,226.7z"/>
		
			<rect x="358.5" y="212.2" transform="matrix(0.9762 -0.2168 0.2168 0.9762 -37.6066 83.1417)" class="st24" width="3.2" height="1.5"/>
		<path class="st25" d="M363.1,216.4c0.5,2.1-0.2,4.1-1.4,4.3c-1.3,0.3-3.3-2.2-3.7-4.3c-0.5-2.1,0.8-3.1,2-3.4
			C361.2,212.8,362.6,214.3,363.1,216.4z"/>
		<path class="st24" d="M372.2,200.7c-0.6-0.2-1.3-0.2-1.9-0.2c-3.5-1.2-4.3-1.7-6.9-0.9c-2.7,0.8-3.3,2.4-3.3,2.4s-5.9,1-5.4,8
			c0.2,2.8,1.3,5.1,2.3,6.6c0-0.5,0-1,0-1.4c0-1,0.4-2.2,1-3.2l2.2,1.3l1.4,2.4l0.2,0c1.1-0.2,1.8-1.3,1.6-2.3
			c-0.3-1.8,0.6-3.5,2.4-3.9l1.7-0.4c0.7,0.2,1.5,0.5,2.2,1.1c2.6,1.8,4.8,2.6,6.7,2.1l0.1,1l0.2-1.1c0.9-0.3,1.7-0.8,2.4-1.6
			c2.1-2.2,2.2-11.4-3.3-13.2C375.8,197.2,374.7,200.3,372.2,200.7z"/>
		<path class="st24" d="M360.3,204.7c-0.4,3.1,10.8,7,13.7,7.4c2.9,0.4,5.6-1.9,6-5c0.4-3.1-1.7-5.9-4.6-6.3
			C372.4,200.5,360.7,201.6,360.3,204.7z"/>
		<path class="st25" d="M363.5,228.5c0,0-3.1,1.5-5.8,2.1c-2.6,0.7-2.6,0-2.6,0s-1.7,12.4,3.3,15c5,2.6,12.6,4.3,12.6,4.3l6.8-3.8
			l-2.3-12.9c0,0-3-2.3-4.8-3.3C368.7,229,363.5,228.5,363.5,228.5z"/>
	</g>
	<path class="st26" d="M376.4,229.7h-10.8h-10.8c-1.9,0-3.5,1.6-3.5,3.5l-1.1,22.5l-10.2,21.1l23.8,13l29.6-10.7L381,255.4
		l-1.2-22.3C379.9,231.3,378.3,229.7,376.4,229.7z"/>
	<path class="st25" d="M392.5,279.8l7-5.4c0,0,18.2-2.9,19,9.3l-26,5.4V279.8z"/>
	<path class="st24" d="M379.9,278.3c5.3,0,12.8-3.4,19.7-3.9c0,0-8.4,7.3-4.9,17c0,0-13,5.8-29.1,5.8v-18.9H379.9z"/>
	<path class="st25" d="M406.2,299.4c-10.9,3.2-24.2,2.8-30.1,2.4c-0.3,0-0.6,0-0.9-0.1c-1.9-0.2-3.9,0.1-5.7,0.7
		c-1.1,0.4-2.3,0.8-3.6,1.5c-0.3,0.1-0.5,0.3-0.8,0.4c-3.4,1.6-6.9,2.2-6.9,2.2c-0.1-1.3,0.1-2.4,0.3-3.4c0.7-3,2.2-4.6,2.2-4.6h7.4
		c1.9,0,3.8-0.4,5.5-1.2c0.6-0.3,1.3-0.6,1.8-1c28.3-19.1,43.2-12.6,43.2-12.6S420.7,295.1,406.2,299.4z"/>
	<path class="st23" d="M393.8,286.2c0,0,4.2-3.3,12.1-4.6c0,0-5.6-0.7-11.6,1.6C394.2,283.2,393.4,285.2,393.8,286.2z"/>
	<path class="st25" d="M340.9,279.8l-7-5.4c0,0-18.2-2.9-19,9.3l26,5.4V279.8z"/>
	<path class="st24" d="M333.8,274.4c0,0,8.4,7.3,4.9,17c0,0,11.7,5.8,27.8,5.8v-18.9h-15.2C346,278.3,340.3,275,333.8,274.4z"/>
	<path class="st23" d="M376.1,301.8c-0.3,0-0.6,0-0.9-0.1c-1.9-0.2-3.9,0.1-5.7,0.7c-1.1,0.4-2.3,0.8-3.6,1.5
		c-0.3,0.1-0.5,0.3-0.8,0.4c-0.5-0.2-1-0.4-1.5-0.6c-1.3-0.4-2.7-0.7-4.1-0.7c-0.3,0-0.7,0-1,0c0.7-3,2.2-4.6,2.2-4.6h7.4
		c1.9,0,3.8-0.4,5.5-1.2l0.2,0.2C373.8,297.6,375.3,299.1,376.1,301.8z"/>
	<path class="st25" d="M314.8,283.7c0,0,14.9-6.6,43.2,12.6c2.2,1.5,4.7,2.3,7.3,2.3h7.4c0,0,2.8,2.8,2.5,8c0,0-4.1-0.8-7.7-2.6
		c-1.3-0.6-2.5-1.1-3.6-1.5c-1.8-0.6-3.8-0.8-5.7-0.7c-5.4,0.4-19.5,1.1-31-2.3C312.6,295.1,314.8,283.7,314.8,283.7z"/>
	<path class="st27" d="M376.4,229.7c0,0,5.8-1.1,14.7,20.3c0,0-3,6.6-12.5,5.6L376.4,229.7z"/>
	<path class="st26" d="M354.8,229.7c0,0-5.8-1.1-14.7,20.3c0,0,3,6.6,12.5,5.6L354.8,229.7z"/>
	<polygon class="st28" points="350.1,255.7 354.3,239.3 349.1,255.7 	"/>
	<path class="st23" d="M339.4,286.2c0,0-4.2-3.3-12.1-4.6c0,0,5.6-0.7,11.6,1.6C339,283.2,339.8,285.2,339.4,286.2z"/>
	<path class="st25" d="M372,229.7c-6.9-1.7-11.6,0-11.6,0C363.6,235,368.4,235,372,229.7z"/>
	<path class="st26" d="M376.4,229.7c0,0,5.8-1.1,14.7,20.3c0,0-3,6.6-12.5,5.6L376.4,229.7z"/>
	<polygon class="st28" points="381.1,255.7 376.7,239.3 382.2,255.7 	"/>
	<path class="st29" d="M379.6,253.8c9.6-5.1,30.2-16.1,37.4-23c2.6-2.4,15.1-6.1,0.9,6.1c-5.3,4.5-42.3,29-42.5,21.9
		C375.4,256.8,379.4,253.9,379.6,253.8z"/>
	<path class="st29" d="M362.5,251c8.1-3.1,16.8-0.3,19.3,6.3c2.6,6.6-2,14.5-10.1,17.7c-8.1,3.1-16.8,0.3-19.3-6.3
		C349.9,262,354.4,254.1,362.5,251z"/>
	<path class="st25" d="M409,244.1c2,0.5,4-0.8,4.4-2.8c0.5-2-0.8-4-2.8-4.4c-2-0.5-4,0.8-4.4,2.8C405.7,241.7,407,243.7,409,244.1z"
		/>
	<path class="st30" d="M363.8,254.2c6-2.3,12.3-0.2,14.2,4.6c1.9,4.9-1.4,10.7-7.4,13c-6,2.3-12.3,0.2-14.2-4.6
		C354.5,262.3,357.8,256.5,363.8,254.2z"/>
	<g>
		<defs>
			<path id="SVGID_8_" d="M363.8,254.2c6-2.3,12.3-0.2,14.2,4.6c1.9,4.9-1.4,10.7-7.4,13c-6,2.3-12.3,0.2-14.2-4.6
				C354.5,262.3,357.8,256.5,363.8,254.2z"/>
		</defs>
		<clipPath id="SVGID_9_">
			<use xlink:href="#SVGID_8_"  style="overflow:visible;"/>
		</clipPath>
		<g class="st31">
			<path class="st32" d="M355.8,258.9c0.6,0.1,5-1.8,6.1-2c2.8-0.7,4.6-1.6,7.7-2.4c1.7-0.4,3.7-0.9,5.4-1.4"/>
			<path class="st32" d="M355.5,261.1c1.5,0,21.6-4.7,22.7-6.1l-0.1-0.1"/>
			<path class="st32" d="M355.8,264.5c-0.8-0.3,1.1-0.5,2.1-0.9c2.5-0.9,10.5-2.3,13.7-3.1c0.3-0.1,8.4-2.4,8.4-2.7"/>
			<path class="st32" d="M355.4,266.8c2.2-0.6,18.6-5.5,24.6-6c0.5,0,1.2,0,1.7,0"/>
			<path class="st32" d="M356.5,268.4c0,0,19.4-3.6,20.4-4.4c0.8-0.6,2.6-0.4,3.6-0.4"/>
			<path class="st32" d="M359.2,271.4c0.8-0.2,18.9-4.5,19.4-4.4c0.2,0,0.1,0,0.3-0.1"/>
		</g>
	</g>
	<path class="st25" d="M340.7,251.1c-2.2,5-5.2,12.9-4.4,15.9c2.1,4.5,8.8,3.6,14.4,0.9c8.2-3.9,14.6-15.2,8.3-12.8
		c0,0-9.5,12-13,8.9l3.4-8.4C344.4,255.3,341.8,252.6,340.7,251.1z"/>
</g>
<path class="st33" d="M557.7,265.5c-3.4-1.5-6.3-4.1-7.6-7.6c-4.1-13.1-15.4-13.2-16.1-20.6l-6.1,2.2v5.2
	c-9.3,2.1-16.3,11.6-16.3,23c0,12.5,8.4,22.7,19.1,23.4c1.5,11.2,9.9,19.8,20,19.8c11.2,0,20.2-10.5,20.2-23.5
	C570.7,277.4,565.3,268.9,557.7,265.5z"/>
<polygon class="st25" points="519.8,267 531.3,266.3 527.6,254.7 520.6,255.6 "/>
<path class="st23" d="M520.6,255.6l7-0.9l1.1,3.7c-1.6,1.8-3.6,5.6-6.1,5.6c-0.8,0-1.5-0.2-2.2-0.6L520.6,255.6z"/>
<path class="st25" d="M520.4,261.3c2.4,0,4.9-1.2,8.5-4.3c2-1.8,3.5-4.9,3.5-7v-11.6h-17.8c0,0-1.3,6.1,0,12.2
	C515.5,255.3,518.5,261.3,520.4,261.3z"/>
<rect x="530" y="242.9" class="st34" width="3.3" height="1.5"/>
<path class="st25" d="M529.4,247.9c0,2.3,1.1,4.1,2.4,4.1c1.3,0,2.8-3,2.8-5.2c0-2.3-1.5-3-2.8-3
	C530.4,243.8,529.4,245.6,529.4,247.9z"/>
<path class="st33" d="M513.7,239.6c1.1,2.4,2.3,4.1,10.8,6.1c8.5,2,10.5-0.3,13.8,3.4C529.1,219.1,511.6,234.8,513.7,239.6z"/>
<path class="st33" d="M531.4,244.4c4.1,0,7.5-3.4,7.5-7.5c0-4.1-3.4-7.5-7.5-7.5c-4.1,0-7.5,3.4-7.5,7.5
	C524,241.1,527.3,244.4,531.4,244.4z"/>
<g>
	<path class="st25" d="M494.7,316.5c-0.8,2.1-3.1,3.4-5.3,3.6c-2.2,0.2-4.5-0.4-6.6-1.1c-5.4-1.9-10.5-4.9-14.9-8.6
		c-10.6,10.3-25.5,15.1-39.4,19.3c-0.5,0.1-0.8-0.5-0.5-0.8c4-3.5,14.2-12.6,20.1-17.3c4.2-3.3,8.2-6.9,12.6-10
		c4.3-3,9.1-6.8,14.5-4.6c5.3,2.1,9.9,5.7,14.5,9c1.9,1.3,3.7,2.1,4.4,4.3C494.7,312.1,495.4,314.6,494.7,316.5z"/>
</g>
<path class="st24" d="M425.9,322.9c-0.7-4.1-0.9-7.5-0.3-7.6c0.6-0.1,1.7,3.1,2.4,7.2c0.7,4.1,0.9,7.5,0.3,7.6
	C427.7,330.3,426.6,327,425.9,322.9z"/>
<path class="st35" d="M489.7,306.1l-13.6,10l14.8-0.8C490.9,315.2,493.1,307.2,489.7,306.1z"/>
<g>
	<path class="st25" d="M457.1,318.9c-13.1,1.3-26.1,3.9-39,6.4c-0.7,0.1-0.6,1.2,0.1,1.2c14.1,1.1,68.1,4.2,71.6,3.6
		c3.5-0.6,7-2.7,8.1-6.1c0.2-0.7,0.3-1.5,0.2-2.2c-0.4-1.8-2.5-5.4-4.2-6.1c-3.3-1.3-7-1.6-10.4-0.8
		C483.3,314.9,465.3,318.1,457.1,318.9z"/>
</g>
<ellipse class="st24" cx="417.6" cy="319.3" rx="1.1" ry="7.5"/>
<g>
	<path class="st36" d="M511.5,288.8c-2.5,7.4-4.5,15-7.1,22.4c-0.1,0.1-0.1,0.3-0.2,0.4c-0.2,0.2-0.6,0.1-0.9-0.1
		c-1-0.5-2.3-1.7-2.3-1.7c1.4-7.1,3-14.2,4.6-21.2c0.8-3.6,1.6-7.2,2.4-10.8c0.6-2.9,1.2-5.9,3-8.3c1.9-2.5,6.4-4,9.2-2.5
		c0.3,0.4-1.4,3.5-1.6,3.9c-1.1,2.7-2.3,5.5-3.4,8.2C513.7,282.4,512.6,285.6,511.5,288.8z"/>
</g>
<path class="st35" d="M513.6,275.5c0,0-9.5,6.4-1.6,16.1L513.6,275.5z"/>
<g>
	<path class="st37" d="M530.2,307c-6.8,0.1-35.4-1.5-39.6-0.8c-1.8,0.3-7.5,15.4-8.3,20.1c-0.5,2.7-0.1,4.4,2.7,5.2
		c8.6,2.5,17.6,2.9,26.5,3c6.5,0.1,14.2-0.6,18.1-6.6c3.5-5.5,3.5-13,1.4-19C530.7,308.2,530.5,307.6,530.2,307z"/>
</g>
<g>
	<path class="st36" d="M544.9,338.7l-0.4-0.3c-0.4-9.4-0.7-18.8-0.9-28.2l-0.2-2.9c-0.1-10.9-1.3-24.6-2.2-35.5c0-0.3,0-0.5-0.2-0.9
		c-1.2-3.3-4.6-5.6-8.1-5.7c-0.1,0-0.2,0.1-0.3,0.1c-3.4,0.7-9.9,2.9-13.1,1.7c-1.7,3-4.5,6.1-5.9,8.4c-1.7,2.7,4,1.7,6,2.1
		c4.5,1,9.2,0.6,13.5-0.8c1.1,19.8,4.7,44.1,8.5,63.2c0,0,7.4,1.2,11.7,0.2C550.8,338.8,547.8,338.3,544.9,338.7z"/>
</g>
<g>
	<path class="st36" d="M534.1,289.6c-3.2,5.4-3.5,18.5-3.5,18.5c-3.5,1.6-7.7,2.6-11.5,2.5c-2.3-0.1-4.6-1.4-6.7-2.4
		c0,0,0.4-16.8-1.3-20.7c-1.6-3.7-0.2-8.9,2.4-11.9c0,0,12.8,3.4,21.1,0.2C534.7,275.6,536.1,286.3,534.1,289.6z"/>
</g>
<polygon class="st38" points="534.7,275.6 533.3,273.5 534,275.9 "/>
<path class="st25" d="M531.1,265.7c-7.5-0.9-11.3-0.1-11.2,1.3C521.2,274.2,524.9,274.4,531.1,265.7z"/>
<path class="st25" d="M542.8,339.8h-0.5c-0.1,0.1-0.2,0.2-0.2,0.3c1.7,0.2,7.6,1,11.3,0.1c-2.6-1.4-5.6-2-8.5-1.5
	C544.4,339.4,543.7,339.8,542.8,339.8z"/>
<g>
	<g>
		<path class="st21" d="M336.8,346.9c0,0,2.3,2.2,4.7,3.4C341.5,350.3,341,348.9,336.8,346.9z"/>
		<path class="st21" d="M336.3,343.3c0,0,4.7,4.4,9.5,6.7C345.8,350.1,344.6,347.3,336.3,343.3z"/>
		<path class="st21" d="M342.3,344.6c0,0,3.8,3.6,7.8,5.5C350.1,350.2,349.1,347.8,342.3,344.6z"/>
		<path class="st21" d="M360.5,343.9c0,0-4.4,4.1-8.9,6.3C351.6,350.2,352.7,347.6,360.5,343.9z"/>
		<path class="st21" d="M360.3,346.9c0,0-2.3,2.2-4.7,3.4C355.5,350.3,356.1,348.9,360.3,346.9z"/>
	</g>
	<path class="st21" d="M363.8,346.9c0,0-2.3,2.2-4.7,3.4C359.1,350.3,359.6,348.9,363.8,346.9z"/>
</g>
<g>
	<g>
		<path class="st21" d="M495.2,388.3c0,0,2.3,2.2,4.7,3.4C499.9,391.7,499.3,390.3,495.2,388.3z"/>
		<path class="st21" d="M494.7,384.8c0,0,4.7,4.4,9.5,6.7C504.2,391.5,503,388.7,494.7,384.8z"/>
		<path class="st21" d="M500.7,386c0,0,3.8,3.6,7.8,5.5C508.5,391.6,507.5,389.2,500.7,386z"/>
		<path class="st21" d="M518.9,385.3c0,0-4.4,4.1-8.9,6.3C510,391.6,511.1,389,518.9,385.3z"/>
		<path class="st21" d="M518.6,388.3c0,0-2.3,2.2-4.7,3.4C513.9,391.7,514.5,390.3,518.6,388.3z"/>
	</g>
	<path class="st21" d="M522.2,388.3c0,0-2.3,2.2-4.7,3.4C517.4,391.7,518,390.3,522.2,388.3z"/>
</g>
<rect x="587.1" y="220.1" class="st39" width="1.4" height="8.8"/>
<path class="st1" d="M369.7,222.3l4.6-0.7c0,0,0.1,2.1-2.4,2.3C370,224,369.7,222.3,369.7,222.3z"/>
<path class="st1" d="M518.6,255.6l5.1,0.6c0,0-0.5,2.2-3.2,1.7C518.3,257.5,518.6,255.6,518.6,255.6z"/>
</svg>
