<?xml version="1.0" encoding="utf-8"?>
<!-- Generator: Adobe Illustrator 23.0.3, SVG Export Plug-In . SVG Version: 6.00 Build 0)  -->
<svg version="1.1" id="Layer_1" xmlns="http://www.w3.org/2000/svg" xmlns:xlink="http://www.w3.org/1999/xlink" x="0px" y="0px"
	 viewBox="0 0 624.8 455.9" style="enable-background:new 0 0 624.8 455.9;" xml:space="preserve">
<style type="text/css">
	.st0{fill:none;}
	.st1{opacity:0.2;}
	.st2{clip-path:url(#SVGID_2_);}
	.st3{fill:#E9EBFB;}
	.st4{clip-path:url(#SVGID_4_);fill:#E0E2F5;}
	.st5{fill:#FFFFFF;}
	.st6{fill:#DCE0F4;}
	.st7{fill:#09ACF2;}
	.st8{fill:none;stroke:#FFFFFF;stroke-width:5;stroke-linecap:round;stroke-linejoin:round;stroke-miterlimit:10;}
	.st9{fill:none;stroke:#E4EAEF;stroke-width:14;stroke-linecap:round;stroke-miterlimit:10;}
	.st10{fill:#E4EAEF;}
	.st11{fill:#306FB4;}
	.st12{fill:none;stroke:#E4EAEF;stroke-width:3;stroke-linecap:round;stroke-linejoin:round;stroke-miterlimit:10;}
	.st13{fill:#8D9AAA;}
	.st14{fill:#FE971A;}
	.st15{fill:#769AC4;}
	.st16{fill:#C4E8F9;}
	.st17{fill:#89B1DA;}
	.st18{fill:#33565C;}
	.st19{fill:#57949C;}
	.st20{fill:#70B2C4;}
	.st21{fill:#77C5E8;}
	.st22{fill:#B1E2FA;}
	.st23{fill:#62A7AF;}
	.st24{fill:#F2BE9B;}
	.st25{fill:#1F2E3B;}
	.st26{fill:#343B54;}
	.st27{fill:#393F5C;}
	.st28{fill:#077176;}
	.st29{fill:#0A8086;}
	.st30{fill:#FAE22D;}
	.st31{fill:#FAF7CB;}
	.st32{fill:#603813;}
	.st33{fill:#FAAF3A;}
	.st34{fill:#00969E;}
</style>
<rect x="248.4" y="222.1" class="st0" width="80.4" height="20.4"/>
<g class="st1">
	<defs>
		<rect id="SVGID_1_" x="53.7" y="144.7" class="st1" width="570.1" height="310.9"/>
	</defs>
	<clipPath id="SVGID_2_">
		<use xlink:href="#SVGID_1_"  style="overflow:visible;"/>
	</clipPath>
	<g class="st2">
		<path class="st3" d="M259.3,219.3c-8.1,9.5-14.8,18.4-7.4,27.9c3.6,4.7,10.3,8.9,18.3,16.1c34.9,31.6-3.5,47.9-48.7,48.6
			s-138.2-2.7-149.8,73.1C65.1,428,82.4,531.2,311.9,554.3c206.7,20.8,326.5-65.9,295.7-113.8c-30.7-47.9-65.4-68.2-47.6-90.2
			c26.8-33,46-36.9,50.6-84.5C622.6,141.8,349.5,113.6,259.3,219.3z"/>
		<g>
			<defs>
				<path id="SVGID_3_" d="M259.3,219.3c-8.1,9.5-14.8,18.4-7.4,27.9c3.6,4.7,10.3,8.9,18.3,16.1c34.9,31.6-3.5,47.9-48.7,48.6
					s-138.2-2.7-149.8,73.1C65.1,428,82.4,531.2,311.9,554.3c206.7,20.8,326.5-65.9,295.7-113.8c-30.7-47.9-65.4-68.2-47.6-90.2
					c26.8-33,46-36.9,50.6-84.5C622.6,141.8,349.5,113.6,259.3,219.3z"/>
			</defs>
			<clipPath id="SVGID_4_">
				<use xlink:href="#SVGID_3_"  style="overflow:visible;"/>
			</clipPath>
			<path class="st4" d="M242.8,181.6c0,0,27.3,81.8,89.3,151.3c31.3,35.1,186.3,111.2,110.4,161.4C82.9,732.3,56,368.8,56,368.8
				l98.9-161L242.8,181.6z"/>
		</g>
	</g>
</g>
<rect x="198.6" y="222.1" class="st0" width="82.8" height="21"/>
<path class="st5" d="M561.9,410.5"/>
<path class="st6" d="M132.2,47.9c0,0-4.6-6-7.4-8.8c-5.1-5-10.9-13.8-29.5-7.3c-1.4,0.5-2.9,1.2-4.2,1.9c-1.6,0.8-6.7,0.8-11.9-3.9
	c-8.3-7.5-11.5-13.2-22.9-13.3C43,16.1,40.9,34.9,30.6,39.7c-6.5,3.1-23.7,6.1-27.3,7.5L132.2,47.9z"/>
<path class="st6" d="M285.5,69.4c0,0,2.6-3,4.2-4.4c2.9-2.5,6.2-6.9,16.8-3.6c0.8,0.3,1.6,0.6,2.4,0.9c0.9,0.4,3.8,0.4,6.8-1.9
	c4.7-3.7,6.6-6.6,13-6.6c7.5-0.1,8.7,9.3,14.5,11.7c3.7,1.5,13.5,3,15.5,3.7L285.5,69.4z"/>
<rect x="232.5" y="218.4" class="st0" width="80.4" height="20.4"/>
<g>
	<path class="st7" d="M136.2,112.4v262.7h159.1V112.4C295.3,112.4,219,29.8,136.2,112.4z"/>
	<path class="st8" d="M151.7,127.5v227.4h128.7V127.5C280.4,127.5,218.7,71.2,151.7,127.5z"/>
	<path class="st9" d="M130.7,107.5c0,0,75.3-69.3,168.2,0"/>
	<path class="st10" d="M298.9,387.8H132.8c-3.6,0-6.4-2.9-6.4-6.4v-2.1c0-3.6,2.9-6.4,6.4-6.4h166.1c3.6,0,6.4,2.9,6.4,6.4v2.1
		C305.4,384.9,302.5,387.8,298.9,387.8z"/>
	<rect x="147.2" y="153.3" class="st11" width="8.3" height="22.1"/>
	<path class="st11" d="M245,311.2h-59.6c-0.7,0-1.2-0.6-1.2-1.2v-1c0-0.7,0.6-1.2,1.2-1.2H245c0.7,0,1.2,0.6,1.2,1.2v1
		C246.2,310.6,245.6,311.2,245,311.2z"/>
	<path class="st11" d="M245,320.5h-59.6c-0.7,0-1.2-0.6-1.2-1.2v-1c0-0.7,0.6-1.2,1.2-1.2H245c0.7,0,1.2,0.6,1.2,1.2v1
		C246.2,319.9,245.6,320.5,245,320.5z"/>
	<path class="st11" d="M245,329.8h-59.6c-0.7,0-1.2-0.6-1.2-1.2v-1c0-0.7,0.6-1.2,1.2-1.2H245c0.7,0,1.2,0.6,1.2,1.2v1
		C246.2,329.3,245.6,329.8,245,329.8z"/>
	<rect x="147.2" y="311.9" class="st11" width="8.3" height="22.1"/>
	<polyline class="st12" points="261.8,218.4 264.7,221.4 264.7,235.6 262.2,238.1 	"/>
	<g>
		<path class="st5" d="M204.7,171.7h22c4,0,7.3-3.3,7.3-7.3v-22c0-4-3.3-7.3-7.3-7.3h-22c-4,0-7.3,3.3-7.3,7.3v22
			C197.4,168.4,200.7,171.7,204.7,171.7L204.7,171.7z M222.8,141.7c0.4-0.4,0.8-0.6,1.4-0.6c0.5,0,1,0.2,1.4,0.6
			c0.4,0.4,0.6,0.8,0.6,1.4c0,0.6-0.2,1-0.6,1.4c-0.4,0.4-0.8,0.5-1.4,0.5c-0.5,0-1-0.2-1.4-0.5c-0.4-0.4-0.5-0.8-0.5-1.4
			C222.2,142.5,222.4,142.1,222.8,141.7L222.8,141.7z M219.5,147.9c0-0.7,0.3-1.2,0.7-1.7c0.5-0.5,1.1-0.7,1.7-0.7h4.3
			c0.7,0,1.3,0.3,1.7,0.7c0.5,0.5,0.7,1.1,0.7,1.7v6c0,0.2-0.1,0.4-0.2,0.6c-0.2,0.2-0.3,0.2-0.6,0.2c-0.2,0-0.4-0.1-0.6-0.2
			c-0.2-0.2-0.2-0.4-0.2-0.6v-5.4h-0.5v14.9c0,0.3-0.1,0.6-0.3,0.8c-0.2,0.2-0.5,0.3-0.8,0.3c-0.3,0-0.6-0.1-0.8-0.3
			c-0.2-0.2-0.3-0.5-0.3-0.8v-8.6h-0.5v8.6c0,0.3-0.1,0.6-0.3,0.8c-0.2,0.2-0.5,0.3-0.8,0.3c-0.3,0-0.6-0.1-0.8-0.3
			c-0.2-0.2-0.4-0.5-0.4-0.8v-14.9h-0.4v5.4c0,0.2-0.1,0.4-0.2,0.6c-0.2,0.2-0.4,0.2-0.6,0.2c-0.2,0-0.4-0.1-0.6-0.2
			c-0.2-0.2-0.3-0.4-0.3-0.6V147.9z M215.6,139.6h1.9v27.5h-1.9V139.6z M206.8,141.7c0.4-0.4,0.9-0.6,1.4-0.6c0.5,0,1,0.2,1.3,0.6
			c0.4,0.4,0.5,0.8,0.5,1.4c0,0.6-0.2,1-0.5,1.4c-0.4,0.4-0.8,0.5-1.3,0.5c-0.6,0-1-0.2-1.4-0.5c-0.4-0.4-0.6-0.8-0.6-1.4
			C206.2,142.5,206.4,142.1,206.8,141.7L206.8,141.7z M202.8,153c0-0.1,0.1-0.3,0.2-0.7c0.1-0.4,0.2-0.8,0.4-1.4
			c0.2-0.5,0.3-1.1,0.5-1.8c0.2-0.6,0.4-1.3,0.6-1.8c0.1-0.5,0.4-0.9,0.8-1.2c0.4-0.4,0.9-0.5,1.3-0.5h3.1c0.5,0,0.9,0.2,1.3,0.5
			c0.4,0.4,0.7,0.8,0.9,1.2c0.2,0.6,0.4,1.2,0.5,1.8c0.2,0.6,0.4,1.2,0.5,1.8c0.2,0.5,0.3,1,0.4,1.4c0.1,0.4,0.2,0.6,0.2,0.7l0,0.2
			c0,0.4-0.2,0.6-0.5,0.7l-0.2,0.1c-0.4,0-0.6-0.2-0.8-0.6c0-0.1-0.1-0.5-0.3-1.1c-0.2-0.6-0.3-1.2-0.5-1.8
			c-0.2-0.6-0.4-1.4-0.7-2.4h-0.4l2.6,8.8h-2.5v6.7c0,0.3-0.1,0.5-0.3,0.6c-0.2,0.2-0.4,0.3-0.6,0.3c-0.3,0-0.5-0.1-0.7-0.3
			c-0.2-0.2-0.2-0.4-0.2-0.6v-6.7h-0.5v6.7c0,0.3-0.1,0.5-0.2,0.6c-0.2,0.2-0.4,0.3-0.6,0.3c-0.3,0-0.5-0.1-0.7-0.3
			c-0.2-0.2-0.3-0.4-0.3-0.6v-6.7h-2.5l2.6-8.8h-0.4c-0.3,1-0.5,1.8-0.7,2.4c-0.2,0.6-0.4,1.2-0.5,1.8c-0.2,0.6-0.3,0.9-0.3,1.1
			c-0.1,0.4-0.4,0.6-0.8,0.6l-0.2-0.1c-0.4-0.1-0.5-0.4-0.5-0.7C202.7,153.1,202.7,153,202.8,153L202.8,153z M202.8,153"/>
	</g>
</g>
<g id="crane">
	<g id="XMLID_1088_">
		<g id="XMLID_457_">
			<polygon id="XMLID_282_" class="st13" points="382.1,32 381.7,31.4 419.4,4.3 419.8,4.8 387.7,32 387.3,31.4 412.3,10.2 			"/>
		</g>
		<g id="XMLID_456_">
			<polygon id="XMLID_281_" class="st13" points="539.8,33 441.7,10.1 525.1,32.3 524.9,33 419.5,4.9 419.7,4.2 540,32.3 			"/>
		</g>
		<g id="XMLID_1112_">
			<path id="XMLID_455_" class="st14" d="M427,58.4c0-0.3-0.3-0.6-0.6-0.6h-12.1L426.8,46c0,0,0,0,0,0c0,0,0.1-0.1,0.1-0.1
				c0,0,0,0,0-0.1c0,0,0-0.1,0-0.1c0,0,0-0.1,0-0.1c0,0,0,0,0,0c0,0,0-0.1,0-0.1c0,0,0-0.1,0-0.1c0,0,0-0.1-0.1-0.1c0,0,0-0.1,0-0.1
				c0,0,0,0,0,0c0,0-0.1-0.1-0.1-0.1c0,0,0,0-0.1,0c0,0-0.1,0-0.1,0c-0.1,0-0.1,0-0.2,0c0,0,0,0,0,0h-13.7c-0.3,0-0.6,0.3-0.6,0.6
				c0,0.3,0.3,0.6,0.6,0.6h12.1L412.3,58v0c-0.1,0.1-0.2,0.3-0.2,0.4s0.1,0.3,0.2,0.4v0l12.6,11.8h-12.1c-0.3,0-0.6,0.3-0.6,0.6
				c0,0.3,0.3,0.6,0.6,0.6h12.1l-12.6,11.8v0c-0.1,0.1-0.2,0.3-0.2,0.4c0,0.2,0.1,0.3,0.2,0.4v0l12.6,11.8h-12.1
				c-0.3,0-0.6,0.3-0.6,0.6c0,0.3,0.3,0.6,0.6,0.6h12.1l-12.6,11.8v0c-0.1,0.1-0.2,0.3-0.2,0.4c0,0.2,0.1,0.3,0.2,0.4v0l12.6,11.8
				h-12.1c-0.3,0-0.6,0.3-0.6,0.6c0,0.3,0.3,0.6,0.6,0.6h12.1l-12.6,11.8v0c-0.1,0.1-0.2,0.3-0.2,0.4c0,0.2,0.1,0.3,0.2,0.4v0
				l12.6,11.8h-12.1c-0.3,0-0.6,0.3-0.6,0.6c0,0.3,0.3,0.6,0.6,0.6h12.1l-12.6,11.8v0c-0.1,0.1-0.2,0.3-0.2,0.4
				c0,0.2,0.1,0.3,0.2,0.4v0l12.6,11.8h-12.1c-0.3,0-0.6,0.3-0.6,0.6c0,0.3,0.3,0.6,0.6,0.6h12.1l-12.6,11.8v0
				c-0.1,0.1-0.2,0.3-0.2,0.4c0,0.2,0.1,0.3,0.2,0.4v0l13.7,12.9c0.1,0.1,0.3,0.2,0.4,0.2c0.2,0,0.3-0.1,0.5-0.2
				c0.2-0.2,0.2-0.6,0-0.9l-12.6-11.8h12.1c0.3,0,0.6-0.3,0.6-0.6c0-0.3-0.3-0.6-0.6-0.6h-12.1l12.6-11.8v0c0.1-0.1,0.2-0.3,0.2-0.4
				s-0.1-0.3-0.2-0.4v0l-12.6-11.8h12.1c0.3,0,0.6-0.3,0.6-0.6c0-0.3-0.3-0.6-0.6-0.6h-12.1l12.6-11.8v0c0.1-0.1,0.2-0.3,0.2-0.4
				s-0.1-0.3-0.2-0.4v0l-12.6-11.8h12.1c0.3,0,0.6-0.3,0.6-0.6c0-0.3-0.3-0.6-0.6-0.6h-12.1l12.6-11.8v0c0.1-0.1,0.2-0.3,0.2-0.4
				c0-0.2-0.1-0.3-0.2-0.4v0l-12.6-11.8h12.1c0.3,0,0.6-0.3,0.6-0.6c0-0.3-0.3-0.6-0.6-0.6h-12.1l12.6-11.8v0
				c0.1-0.1,0.2-0.3,0.2-0.4c0-0.2-0.1-0.3-0.2-0.4v0l-12.6-11.8h12.1c0.3,0,0.6-0.3,0.6-0.6c0-0.3-0.3-0.6-0.6-0.6h-12.1l12.6-11.8
				v0c0.1-0.1,0.2-0.3,0.2-0.4c0-0.2-0.1-0.3-0.2-0.4v0l-12.6-11.8h12.1C426.8,59.1,427,58.8,427,58.4z"/>
			<path id="XMLID_1113_" class="st14" d="M426.4,200.5h-13.7l-0.6-0.6l0-167.1l0.6-0.6h13.7l0.6,0.6v167.1L426.4,200.5z
				 M413.3,199.2h12.5V33.3h-12.5L413.3,199.2z"/>
		</g>
		<g id="XMLID_1108_">
			<path id="XMLID_452_" class="st14" d="M427,212.7c0,0.3-0.3,0.6-0.6,0.6h-12.1l11.8,11.1h-1.8l-12-11.3v0
				c-0.1-0.1-0.2-0.3-0.2-0.4c0-0.2,0.1-0.3,0.2-0.4v0l12.6-11.8h-12.1c-0.3,0-0.6-0.3-0.6-0.6c0-0.3,0.3-0.6,0.6-0.6h12.1l-0.2-0.2
				h1.8l0.4,0.4v0c0.1,0.1,0.2,0.3,0.2,0.4c0,0.2-0.1,0.3-0.2,0.4v0l-12.6,11.8h12.1C426.8,212.1,427,212.4,427,212.7z"/>
			<rect id="XMLID_451_" x="425.8" y="199" class="st14" width="1.2" height="25.4"/>
			<rect id="XMLID_450_" x="412.1" y="199" class="st14" width="1.2" height="25.4"/>
		</g>
		<g id="XMLID_1103_">
			<rect id="XMLID_449_" x="388.6" y="222.6" class="st15" width="4.9" height="11.6"/>
			<rect id="XMLID_448_" x="385.3" y="234.2" class="st15" width="11.1" height="3.4"/>
			<rect id="XMLID_447_" x="445.7" y="222.6" class="st15" width="4.9" height="11.6"/>
			<rect id="XMLID_446_" x="442.6" y="234.2" class="st15" width="11.1" height="3.4"/>
		</g>
		<polygon id="XMLID_445_" class="st14" points="388.6,222.6 412.7,186.6 412.7,191.9 393.5,222.6 		"/>
		<polygon id="XMLID_444_" class="st14" points="450.6,222.6 426.4,186.6 426.4,191.7 445.7,222.6 		"/>
		<g id="XMLID_1096_">
			<path id="XMLID_443_" class="st14" d="M425.3,25.6c0-0.1,0-0.1-0.1-0.2l0,0l-7.9-6.7h5.7c0.3,0,0.6-0.2,0.6-0.4s-0.3-0.4-0.6-0.4
				h-6l4.7-6.7c0.1-0.1,0.2-0.1,0.2-0.2c0-0.2-0.3-0.4-0.6-0.4h0c0,0,0,0,0,0l-3.5,0c-0.3,0-0.6,0.2-0.6,0.4s0.3,0.4,0.6,0.4l2.5,0
				l-4.7,6.7c-0.1,0.1-0.1,0.1-0.1,0.2c0,0.1,0.1,0.2,0.2,0.3l7.8,6.7h-9.1c-0.3,0-0.6,0.2-0.6,0.4c0,0.2,0.3,0.4,0.6,0.4h8.8
				l-11,6.7c-0.2,0.1-0.2,0.4,0,0.5c0.1,0.1,0.3,0.1,0.4,0.1c0.2,0,0.3,0,0.4-0.1l12-7.3l0,0C425.3,25.8,425.3,25.7,425.3,25.6z"/>
			<path id="XMLID_1097_" class="st14" d="M426.4,33.3h-13.7l-0.6-0.4L419,3.6h1.2l6.8,29.2L426.4,33.3z M413.4,32.6h12.3l-6.1-26.2
				L413.4,32.6z"/>
		</g>
		<g id="XMLID_1093_">
			<path id="XMLID_440_" class="st14" d="M386.8,36.2l4.2,4.2v-7.8c0-0.3,0.3-0.6,0.6-0.6c0.3,0,0.6,0.3,0.6,0.6v7.8l8.2-8.2l0,0
				l0,0h0c0.1-0.1,0.3-0.2,0.4-0.2c0.2,0,0.3,0.1,0.4,0.2h0l0,0l0,0l8.2,8.2v-7.8c0-0.3,0.3-0.6,0.6-0.6c0.3,0,0.6,0.3,0.6,0.6v7.8
				l8.2-8.2l0,0l0,0h0c0.1-0.1,0.3-0.2,0.4-0.2c0.2,0,0.3,0.1,0.4,0.2h0l0,0l8.2,8.2v-7.8c0-0.3,0.3-0.6,0.6-0.6
				c0.3,0,0.6,0.3,0.6,0.6v7.8l8.2-8.2l0,0l0,0h0c0.1-0.1,0.3-0.2,0.4-0.2s0.3,0.1,0.4,0.2h0l0,0l0,0l8.2,8.2v-7.8
				c0-0.3,0.3-0.6,0.6-0.6c0.3,0,0.6,0.3,0.6,0.6v7.8l8.2-8.2l0,0h0c0.1-0.1,0.3-0.2,0.4-0.2s0.3,0.1,0.4,0.2h0l0,0l0,0l8.2,8.2
				v-7.8c0-0.3,0.3-0.6,0.6-0.6c0.3,0,0.6,0.3,0.6,0.6v7.8l8.2-8.2c0,0,0,0,0,0l0,0h0c0.1-0.1,0.3-0.2,0.4-0.2
				c0.2,0,0.3,0.1,0.4,0.2h0l0,0c0,0,0,0,0,0l8.2,8.2v-7.8c0-0.3,0.3-0.6,0.6-0.6c0.3,0,0.6,0.3,0.6,0.6v7.8l8.2-8.2c0,0,0,0,0,0
				l0,0h0c0.1-0.1,0.3-0.2,0.4-0.2c0.2,0,0.3,0.1,0.4,0.2h0l0,0c0,0,0,0,0,0l8.2,8.2v-7.8c0-0.3,0.3-0.6,0.6-0.6s0.6,0.3,0.6,0.6
				v7.8l8.2-8.2c0,0,0,0,0,0l0,0h0c0.1-0.1,0.3-0.2,0.4-0.2s0.3,0.1,0.4,0.2h0l0,0c0,0,0,0,0,0l8.2,8.2v-7.8c0-0.3,0.3-0.6,0.6-0.6
				s0.6,0.3,0.6,0.6v7.8l8.2-8.2c0,0,0,0,0,0l0,0h0c0.1-0.1,0.3-0.2,0.4-0.2c0.2,0,0.3,0.1,0.4,0.2h0l0,0c0,0,0,0,0,0l8.2,8.2v-7.8
				c0-0.3,0.3-0.6,0.6-0.6c0.3,0,0.6,0.3,0.6,0.6v7.8l8.2-8.2c0.2-0.2,0.6-0.2,0.9,0c0.2,0.2,0.2,0.6,0,0.9l-9.3,9.3c0,0,0,0,0,0
				l0,0h0c-0.1,0.1-0.3,0.2-0.4,0.2c-0.2,0-0.3-0.1-0.4-0.2l0,0l0,0c0,0,0,0,0,0l-8.2-8.2v7.8c0,0.3-0.3,0.6-0.6,0.6
				c-0.3,0-0.6-0.3-0.6-0.6v-7.8l-8.2,8.2c0,0,0,0,0,0l0,0h0c-0.1,0.1-0.3,0.2-0.4,0.2s-0.3-0.1-0.4-0.2h0l0,0c0,0,0,0,0,0l-8.2-8.2
				v7.8c0,0.3-0.3,0.6-0.6,0.6c-0.3,0-0.6-0.3-0.6-0.6v-7.8l-8.2,8.2c0,0,0,0,0,0l0,0h0c-0.1,0.1-0.3,0.2-0.4,0.2s-0.3-0.1-0.4-0.2
				h0l0,0c0,0,0,0,0,0l-8.2-8.2v7.8c0,0.3-0.3,0.6-0.6,0.6c-0.3,0-0.6-0.3-0.6-0.6v-7.8l-8.2,8.2c0,0,0,0,0,0l0,0h0
				c-0.1,0.1-0.3,0.2-0.4,0.2c-0.2,0-0.3-0.1-0.4-0.2h0l0,0c0,0,0,0,0,0l-8.2-8.2v7.8c0,0.3-0.3,0.6-0.6,0.6c-0.3,0-0.6-0.3-0.6-0.6
				v-7.8l-8.2,8.2c0,0,0,0,0,0l0,0h0c-0.1,0.1-0.3,0.2-0.4,0.2c-0.2,0-0.3-0.1-0.4-0.2h0l0,0c0,0,0,0,0,0l-8.2-8.2v7.8
				c0,0.3-0.3,0.6-0.6,0.6c-0.3,0-0.6-0.3-0.6-0.6v-7.8l-8.2,8.2l0,0l0,0h0c-0.1,0.1-0.3,0.2-0.4,0.2s-0.3-0.1-0.4-0.2h0l0,0l0,0
				l-8.2-8.2v7.8c0,0.3-0.3,0.6-0.6,0.6c-0.3,0-0.6-0.3-0.6-0.6v-7.8l-8.2,8.2l0,0l0,0h0c-0.1,0.1-0.3,0.2-0.4,0.2s-0.3-0.1-0.4-0.2
				h0l0,0l0,0l-8.2-8.2v7.8c0,0.3-0.3,0.6-0.6,0.6s-0.6-0.3-0.6-0.6v-7.8l-8.2,8.2l0,0l0,0h0c-0.1,0.1-0.3,0.2-0.4,0.2
				s-0.3-0.1-0.4-0.2h0l0,0l0,0l-8.2-8.2v7.8c0,0.3-0.3,0.6-0.6,0.6c-0.3,0-0.6-0.3-0.6-0.6v-7.8l-8.2,8.2l0,0l0,0h0
				c-0.1,0.1-0.3,0.2-0.4,0.2c-0.2,0-0.3-0.1-0.4-0.2h0l0,0l0,0l-4.4-4.4V36.2z"/>
			<polygon id="XMLID_439_" class="st14" points="386.8,41.3 549.2,41.3 549.2,33.3 386.8,33.3 386.8,32 549.8,32 550.4,32.7 
				550.4,41.9 549.8,42.6 386.8,42.6 			"/>
		</g>
		<rect id="XMLID_438_" x="388.6" y="222.6" class="st14" width="62" height="4.2"/>
		<path id="XMLID_437_" class="st14" d="M381.4,47.7h-13.1c-4.6,0-8.4-3.8-8.4-8.4v-2.8c0-4.6,3.8-8.4,8.4-8.4h13.1
			c4.6,0,8.4,3.8,8.4,8.4v2.8C389.8,43.9,386,47.7,381.4,47.7z"/>
		<polygon id="XMLID_436_" class="st14" points="424.1,41.7 409.2,41.7 409.2,68.4 432.2,68.4 432.2,54.3 		"/>
		<polygon id="XMLID_435_" class="st16" points="428.4,53.4 412.1,53.4 412.1,44.2 422.5,44.2 		"/>
	</g>
	<g id="XMLID_1083_">
		<g id="XMLID_434_">
			<path id="XMLID_71_" class="st13" d="M526.6,84.3h-44.4c-0.1,0-0.2,0-0.3-0.1c-0.1-0.1-0.1-0.2-0.1-0.3l9.4-42.2l0.7,0.2
				l-9.3,41.8h43.5l-8-41.8l0.7-0.1l8.1,42.2c0,0.1,0,0.2-0.1,0.3C526.8,84.3,526.7,84.3,526.6,84.3z"/>
		</g>
		
			<rect id="XMLID_433_" x="491.9" y="40.5" transform="matrix(-1 -1.224647e-16 1.224647e-16 -1 1009.8207 83.4625)" class="st13" width="26.1" height="2.5"/>
		<circle id="XMLID_432_" class="st17" cx="518.5" cy="41.7" r="2.8"/>
		<circle id="XMLID_431_" class="st17" cx="491.6" cy="41.7" r="2.8"/>
	</g>
</g>
<g id="building">
	
		<rect id="XMLID_430_" x="468.7" y="99.4" transform="matrix(-1 -1.224647e-16 1.224647e-16 -1 938.3069 206.05)" class="st18" width="0.8" height="7.3"/>
	
		<rect id="XMLID_429_" x="465.3" y="99.4" transform="matrix(-1 -1.224647e-16 1.224647e-16 -1 931.4276 206.05)" class="st18" width="0.8" height="7.3"/>
	
		<rect id="XMLID_428_" x="464" y="105.3" transform="matrix(-1 -1.224647e-16 1.224647e-16 -1 934.8672 236.2851)" class="st19" width="6.8" height="25.8"/>
	
		<rect id="XMLID_427_" x="431" y="99.4" transform="matrix(-1 -1.224647e-16 1.224647e-16 -1 862.8324 206.05)" class="st18" width="0.8" height="7.3"/>
	
		<rect id="XMLID_426_" x="427.6" y="99.4" transform="matrix(-1 -1.224647e-16 1.224647e-16 -1 855.9532 206.05)" class="st18" width="0.8" height="7.3"/>
	
		<rect id="XMLID_425_" x="426.3" y="105.3" transform="matrix(-1 -1.224647e-16 1.224647e-16 -1 859.3928 236.2851)" class="st19" width="6.8" height="25.8"/>
	
		<rect id="XMLID_424_" x="510.6" y="110.2" transform="matrix(-1 -1.224647e-16 1.224647e-16 -1 1022.0187 227.692)" class="st18" width="0.8" height="7.3"/>
	
		<rect id="XMLID_423_" x="507.2" y="110.2" transform="matrix(-1 -1.224647e-16 1.224647e-16 -1 1015.1396 227.692)" class="st18" width="0.8" height="7.3"/>
	
		<rect id="XMLID_422_" x="505.9" y="116.1" transform="matrix(-1 -1.224647e-16 1.224647e-16 -1 1018.5792 257.927)" class="st19" width="6.8" height="25.8"/>
	
		<rect id="XMLID_421_" x="548.3" y="113.8" transform="matrix(-1 -1.224647e-16 1.224647e-16 -1 1097.4932 235.012)" class="st18" width="0.8" height="7.3"/>
	
		<rect id="XMLID_420_" x="544.9" y="113.8" transform="matrix(-1 -1.224647e-16 1.224647e-16 -1 1090.614 235.012)" class="st18" width="0.8" height="7.3"/>
	
		<rect id="XMLID_419_" x="543.6" y="119.7" transform="matrix(-1 -1.224647e-16 1.224647e-16 -1 1094.0536 265.2471)" class="st19" width="6.8" height="25.8"/>
	
		<rect id="XMLID_418_" x="543" y="183.8" transform="matrix(-1 -1.224647e-16 1.224647e-16 -1 1123.3103 417.2355)" class="st19" width="37.3" height="49.6"/>
	<rect id="XMLID_68_" x="426.3" y="128.8" class="st20" width="124.2" height="108.9"/>
	<g id="XMLID_61_">
		
			<rect id="XMLID_67_" x="479.7" y="193.3" transform="matrix(-1 -1.224647e-16 1.224647e-16 -1 976.7232 412.3677)" class="st21" width="17.3" height="25.8"/>
		<path id="XMLID_62_" class="st22" d="M478.4,192v2.2v7.7v2.2v14.2v2.2h7.6h2.4h9.9V192h-9.9H478.4z M488.4,218.2v-16.4v-7.7h7.6
			v24.1H488.4z M480.8,204h5.2v14.2h-5.2V204z M480.8,194.1h5.2v7.7h-5.2V194.1z"/>
	</g>
	<g id="XMLID_54_">
		
			<rect id="XMLID_60_" x="521.8" y="193.3" transform="matrix(-1 -1.224647e-16 1.224647e-16 -1 1060.7751 412.3677)" class="st21" width="17.3" height="25.8"/>
		<path id="XMLID_55_" class="st22" d="M520.5,192v2.2v7.7v2.2v14.2v2.2h7.6h2.4h9.9V192h-9.9H520.5z M530.4,218.2v-16.4v-7.7h7.6
			v24.1H530.4z M522.8,204h5.2v14.2h-5.2V204z M522.8,194.1h5.2v7.7h-5.2V194.1z"/>
	</g>
	<g id="XMLID_1047_">
		
			<rect id="XMLID_406_" x="558.1" y="197.2" transform="matrix(-1 -1.224647e-16 1.224647e-16 -1 1130.9877 416.5052)" class="st21" width="14.8" height="22.1"/>
		<path id="XMLID_1048_" class="st22" d="M557,196.1v1.8v6.6v1.8v12.1v1.8h6.5h2h8.5v-24.3h-8.5H557z M565.5,218.5v-14V198h6.5v20.6
			H565.5z M559,206.4h4.4v12.1H559V206.4z M559,198h4.4v6.6H559V198z"/>
	</g>
	<g id="XMLID_47_">
		
			<rect id="XMLID_53_" x="438.2" y="193.3" transform="matrix(-1 -1.224647e-16 1.224647e-16 -1 893.6602 412.3677)" class="st21" width="17.3" height="25.8"/>
		<path id="XMLID_48_" class="st22" d="M436.9,192v2.2v7.7v2.2v14.2v2.2h7.6h2.4h9.9V192h-9.9H436.9z M446.8,218.2v-16.4v-7.7h7.6
			v24.1H446.8z M439.3,204h5.2v14.2h-5.2V204z M439.3,194.1h5.2v7.7h-5.2V194.1z"/>
	</g>
	<g id="XMLID_43_">
		<rect id="XMLID_46_" x="508.6" y="128.8" class="st23" width="1.4" height="108.9"/>
		<rect id="XMLID_45_" x="466.7" y="128.8" class="st23" width="1.4" height="108.9"/>
		<rect id="XMLID_44_" x="426.3" y="182.5" class="st23" width="124.2" height="1.3"/>
	</g>
	<g id="XMLID_36_">
		
			<rect id="XMLID_42_" x="479.7" y="138.1" transform="matrix(-1 -1.224647e-16 1.224647e-16 -1 976.7232 302.0893)" class="st21" width="17.3" height="25.8"/>
		<path id="XMLID_37_" class="st22" d="M478.4,136.8v2.2v7.7v2.2v14.2v2.2h7.6h2.4h9.9v-28.4h-9.9H478.4z M488.4,163.1v-16.4V139
			h7.6v24.1H488.4z M480.8,148.9h5.2v14.2h-5.2V148.9z M480.8,139h5.2v7.7h-5.2V139z"/>
	</g>
	<g id="XMLID_29_">
		
			<rect id="XMLID_35_" x="521.5" y="138.1" transform="matrix(-1 -1.224647e-16 1.224647e-16 -1 1060.2504 302.0893)" class="st21" width="17.3" height="25.8"/>
		<path id="XMLID_30_" class="st22" d="M520.2,136.8v2.2v7.7v2.2v14.2v2.2h7.6h2.4h9.9v-28.4h-9.9H520.2z M530.1,163.1v-16.4V139
			h7.6v24.1H530.1z M522.6,148.9h5.2v14.2h-5.2V148.9z M522.6,139h5.2v7.7h-5.2V139z"/>
	</g>
	<g id="XMLID_1_">
		
			<rect id="XMLID_28_" x="437.9" y="138.1" transform="matrix(-1 -1.224647e-16 1.224647e-16 -1 893.1355 302.0893)" class="st21" width="17.3" height="25.8"/>
		<path id="XMLID_2_" class="st22" d="M436.6,136.8v2.2v7.7v2.2v14.2v2.2h7.6h2.4h9.9v-28.4h-9.9H436.6z M446.6,163.1v-16.4V139h7.6
			v24.1H446.6z M439,148.9h5.2v14.2H439V148.9z M439,139h5.2v7.7H439V139z"/>
	</g>
	
		<rect id="XMLID_378_" x="464.2" y="81.1" transform="matrix(-1 -1.224647e-16 1.224647e-16 -1 973.4856 170.7004)" class="st19" width="45.1" height="8.6"/>
	<circle id="XMLID_377_" class="st18" cx="504.5" cy="85.4" r="2.9"/>
	<circle id="XMLID_376_" class="st18" cx="495.6" cy="85.4" r="2.9"/>
	<circle id="XMLID_375_" class="st18" cx="486.7" cy="85.4" r="2.9"/>
	<circle id="XMLID_374_" class="st18" cx="477.8" cy="85.4" r="2.9"/>
	<circle id="XMLID_373_" class="st18" cx="468.9" cy="85.4" r="2.9"/>
</g>
<g>
	<path id="XMLID_93_" class="st24" d="M262.7,228.2c0-0.5-0.2-0.6-0.2-0.9c-0.1-0.8,1.6-1.3,2.6-1.5c0.6,1.6,0.5,3.3,0.8,5
		c0.2,1.1,0.3,2.1,0.4,3.2c0,0.2,0.1,0.4,0.1,0.6c-0.5,0.1-0.9,0.1-1.3,0c-1.8-0.4-0.2-0.9-1.3-1.8s-0.2-1.4-1-2.2
		C261.9,229.8,262.7,228.7,262.7,228.2z"/>
	<path id="XMLID_92_" class="st25" d="M374,426.9c0,0,0.7,6.8,0.6,9.2h-16.2v-0.3c0-0.7,0.5-1.2,1.1-1.3c2.8-0.5,8.1-1.7,10.3-9.1
		L374,426.9z"/>
	<path id="XMLID_91_" class="st25" d="M333.7,426.8c0,0,0.7,6.8,0.6,9.2l-16.2,0v-0.3c0-0.7,0.5-1.2,1.1-1.3
		c2.8-0.5,8.1-1.7,10.3-9.1L333.7,426.8z"/>
	<path id="XMLID_90_" class="st26" d="M340.3,309.2c0,0,6.8,39.1,13.8,67.5c5.3,4.1,10.4,5.2,15.2-0.3c0,0,1.5-26.4,2.6-35.7
		c1.9-16.3,1.8-27.4-5.2-33.1L340.3,309.2z"/>
	<path id="XMLID_89_" class="st27" d="M331.5,304.6c0,0-3.2,39.6-3.5,68.9c4.1,5.3,8.8,7.8,14.8,3.7c0,0,8-23.7,12.2-32
		c4.2-8.3,7.9-27.8,2.6-35.1L331.5,304.6z"/>
	<path id="XMLID_88_" class="st27" d="M327.9,373.4c0,0-0.9,37.1,0.6,54.1l6.3,2.6c2.6-18.6,9.1-37.3,8-52.9
		C338.9,369.8,333.9,369.3,327.9,373.4z"/>
	<path id="XMLID_87_" class="st26" d="M354.1,376.7c0,0,8.4,36.1,14.1,52.2l6.7,0.8c-2.2-18.7-0.6-38.5-5.6-53.3
		C363.9,370.3,358.8,371.1,354.1,376.7z"/>
	<path id="XMLID_86_" class="st28" d="M357.2,222.8c5.8-2.9,12.2,2.8,15.5,9.1c3.3,6.3,5.6,13.7,8.1,27.3c0.2,0.9,0,1.9-0.5,2.7
		c-1.3,2.1-3.6,3.7-11,2.7c0,0-4.1-11.7-13.2-24.7C349.4,230.1,355.3,223.8,357.2,222.8z"/>
	<path id="XMLID_85_" class="st28" d="M379.4,256.4c0,0-12.2-18.8-17.6-32.4l-3.7,1.1c0,0,0.5,19.7,10.2,37.9c1.2,3.2,7,1.9,9.9-1.2
		C379.6,260.3,378.8,258.8,379.4,256.4z"/>
	<path id="XMLID_84_" class="st29" d="M353.5,217c-8.8-0.7-17.7,10.5-19.9,36.3c-1.7,20.3-4.7,59.4-4.7,59.4s28,8.3,44.3,3
		c0,0-2.9-50.8-4.2-68.3C367.6,229.9,368.5,218.2,353.5,217z"/>
	<path id="XMLID_83_" class="st30" d="M328.3,297.1c0,0,28.3,8.4,44.8,3c0,0-0.3-4.1-0.7-10.1c-0.1-1.4-0.2-2.9-0.3-4.5
		c-0.9-13.6-2.2-32.5-2.7-38.7c-0.3-8.4-1.3-15.9-3.6-22.1c-2.8-7.6-11.1-9-17.5-6.8c-2.8,1-5.5,3.5-7.2,7.2
		c1.9-1.4,3.5-2.7,5.5-2.3c4.7,1.1,7.3,7.6,5.7,14.6c-1.6,6.9-6.8,11.7-11.5,10.6c-3.5-0.8-4.7-4.2-5-8.9c-0.9,2.3-2.5,6.1-3.2,13.6
		c-0.6,5.9-1.8,20-2.9,30.7c-0.2,1.6-0.3,3.1-0.4,4.5C328.7,293.3,328.3,297.1,328.3,297.1z"/>
	<path id="XMLID_82_" class="st31" d="M372.4,290c-4.2,0.3-8.3,0.4-12.1,0.4c-13.6,0-24.6-1.4-31.1-2.6c0.1-1.4,0.3-2.9,0.4-4.5
		c8,1.4,23.7,3.4,42.5,2.2C372.2,287.1,372.3,288.6,372.4,290z"/>
	<path id="XMLID_81_" class="st24" d="M341.4,188.7c-2.7,6-8.2,21.1-0.4,24.7c5.3,2.4,17-4.1,19.3-8.9c2.3-4.8,8.9-11.3-3.6-17.3
		C346.7,182.2,342.9,185.4,341.4,188.7z"/>
	<path id="XMLID_80_" class="st24" d="M356.9,206.7c0,0-1.1,8.1,1.1,12.6c0,0-0.3,2.9-4.4,3.1s-5-1.5-5.5-2.2c0,0,1.4-2.6,1-8.1
		C348.7,206.5,356.9,206.7,356.9,206.7z"/>
	<path id="XMLID_79_" class="st32" d="M351.3,203.6c-3.3,3.5-3.6,8.3-2.2,8.7c2.1,0.6,6,1.4,8.4,0.5c0,0-0.6-2.2,2.3-5.3
		c2.9-3.2,7.4-10.6,6.2-15.2c-0.4-1.6-2-3.9-4.1-5.4c-1.7-1.2-5.7-2.2-7-3.3c-0.4-0.3-0.7-0.7-1-1c-1.2-1.3-1.4-2.5,0.6-3.2
		c-5.4,0.1-8.5,3.2-9,6.8c1.9,0.8,2.9,1.5,4,2.6c2.9,2.8,1.4,5.3-1.3,8.7c-2,2.5-1.3,3.8-0.8,4.4c0.2,0.2,0.4,0.3,0.4,0.3
		c0-0.2,0.1-0.4,0.2-0.7c0.3-0.7,1-1.4,1.7-1.9c0.7-0.5,1.1-0.8,1.7-0.7c0.2,0,0.4,0.1,0.6,0.2C352.8,199.9,353.1,201.7,351.3,203.6
		z"/>
	<g id="XMLID_75_">
		<path id="XMLID_78_" class="st5" d="M352.2,196.7c0,0,0.4,7.9,7.3,11.3l1.7-1.1c0,0-7.2-3.7-6.7-10.5
			C354.7,192.7,352.2,196.7,352.2,196.7z"/>
		<path id="XMLID_77_" class="st30" d="M343,190.2c0.2,0.2,0.4,0.4,0.7,0.6c0.7,0.6,1.4,1.2,2.1,1.8c0.2,0.2,0.4,0.3,0.6,0.5
			c2.6,2.1,5.4,4.3,8.3,6.3c0.2,0.2,0.5,0.3,0.7,0.5c1.5,1,3,2,4.5,2.9l0.7,0.4c1.8,1,3.5,1.9,5.1,2.5c1.2-0.2-0.4-2.1,0.4-3.6
			c2.1-4,6.7-12.9-0.7-18.8c-9-7.1-15.4-6.8-21.6,1.6c-0.9,1.2-6.8-1.9-7.2-1.5C336.1,183.6,338.8,186.5,343,190.2z"/>
		<path id="XMLID_76_" class="st33" d="M343,190.2c0.2,0.2,0.4,0.4,0.7,0.6c0.6-1.3,2.5-5.3,5.8-6.3c1.9-0.6,3.9-0.2,6,1.3
			c1.2,0.8,2,2,2.2,3.4c0.6,3.5-1.7,8-3.1,10.2c0.2,0.2,0.5,0.3,0.7,0.5c1.4-2.3,3.9-7,3.2-10.9c-0.3-1.7-1.2-3-2.6-4
			c-2.4-1.6-4.6-2-6.7-1.3C345.8,184.8,343.8,188.6,343,190.2z"/>
	</g>
	<path id="XMLID_74_" class="st34" d="M349.5,228.5c3,6.4-3.7,13.6-11.1,17.3c-7.3,3.7-15.9,6.2-31.5,9c-1,0.2-2.1,0-3.1-0.6
		c-2.4-1.5-4.2-0.3-2.7-8.6c0,0,16.9-8.8,30.1-15.2C343.2,224.6,348.5,226.2,349.5,228.5z"/>
	<path id="XMLID_73_" class="st24" d="M270.3,228.7c0,0-2.5-3-4.6-5.4c-0.1-0.2-0.4,0-0.5,0.4c-0.2,0.9-0.1,2.4,1.8,4.4
		C269.7,230.8,270.3,228.7,270.3,228.7z"/>
	<path id="XMLID_72_" class="st24" d="M263.2,226.7c0,0,4.3-1,8.4,2.7c0,0-3,5.3-6.9,4.9C264.7,234.4,262.5,228.5,263.2,226.7z"/>
	<path id="XMLID_69_" class="st34" d="M307.3,242.3c0,0-21.6-6.8-35.4-13.6c-1.9-0.1-2.9,1-3.2,3.1c0,0,15.3,15.7,35.4,22.9
		c2.3,1,5.7-4.2,5.7-8.9C309.8,243.6,308.6,244.7,307.3,242.3z"/>
</g>
</svg>
