<?xml version="1.0" encoding="utf-8"?>
<!-- Generator: Adobe Illustrator 19.0.0, SVG Export Plug-In . SVG Version: 6.00 Build 0)  -->
<svg version="1.1" id="Layer_1" xmlns="http://www.w3.org/2000/svg" xmlns:xlink="http://www.w3.org/1999/xlink" x="0px" y="0px"
	 viewBox="-210 333.9 175 175" style="enable-background:new -210 333.9 175 175;" xml:space="preserve">
<style type="text/css">
	.st0{fill:#F3F8FE;}
	.st1{clip-path:url(#SVGID_2_);fill:#D2F0FF;}
	.st2{fill:#FAB9AF;}
	.st3{fill:#B0B0FF;}
	.st4{fill:#5046AF;}
	.st5{fill:#D2F0FF;}
	.st6{fill:#41378C;}
	.st7{fill:#FA968C;}
	.st8{fill:#AFE6FF;}
	.st9{fill:#5159BF;}
	.st10{fill:#FFFFFF;}
	.st11{fill:#6E64C3;}
	.st12{fill:#827DDC;}
	.st13{fill:none;stroke:#41378C;stroke-width:2.9615;stroke-miterlimit:10;}
	.st14{fill:none;stroke:#5046AF;stroke-width:2.9615;stroke-linecap:round;stroke-miterlimit:10;}
</style>
<g>
	<circle class="st0" cx="-122.5" cy="421.4" r="87.5"/>
	<g>
		<defs>
			<circle id="SVGID_1_" cx="-122.5" cy="421.4" r="87.5"/>
		</defs>
		<clipPath id="SVGID_2_">
			<use xlink:href="#SVGID_1_"  style="overflow:visible;"/>
		</clipPath>
		<rect x="-180.9" y="487.8" class="st1" width="116.8" height="21.8"/>
	</g>
	<g>
		<path class="st2" d="M-127.6,488.6l1.5,5.8c0.1,0.2,0.2,0.4,0.3,0.6l1.1,1.6c0.7,1,0.2,2.3-1,2.7c0,0-2.1,0.7-4.3,1.5
			c-2.2,0.7-5,0.1-5-0.5c0-1.3,1.2-0.3,3.3-1.6c0.7-0.5,1.4-0.9,2-1.4c1.8-1.4,0.2-4.9-0.9-6.9c-0.4-0.7,0-2.5,0.8-2.6l0.5-0.1
			C-128.6,487.4-127.8,487.8-127.6,488.6z"/>
		<path class="st2" d="M-128.9,438.8c-0.4-1.1-0.7-2.2-0.9-2.6c-0.1-0.2-0.5-0.6-0.6-0.7c-0.3-0.3-0.8-0.8-0.9-1.3l-0.3-1.9
			c-0.1-0.9-0.7-1.6-1.6-1.4l0,0c-1,0.1-1.3,1.1-1.1,2l0.2,1.3c0.2,0.8,0,1.6-0.1,2.4c-0.2,1.6,0.4,3.4,1.1,4.8
			c0.4,0.9,1.7,1.2,3.3,1.7c0.8,0.2,2.2,0.3,1.5-0.6c-0.5-0.7-3-1.5-2.7-4.1c0-0.1,0.1-0.4,0.2-0.5c0.5-0.1,0.7,0.9,1,1.4
			c0.4,0.6,0.9,0.9,1.2,0.7C-128.2,440-128.6,439.6-128.9,438.8z"/>
		<path class="st3" d="M-123.7,379.6c-2.6,8.3-9.4,23.8-19.2,29.3c-6.7,3.8-22.9,9.2-22.9,9.2s-0.5-0.7-0.9-1.3
			c-0.4-0.6-0.6-1.4-0.6-1.4s20.1-10.3,22.8-13.3c2.7-3,11.7-22.1,14.4-25.1C-126.9,373.4-122.3,374.9-123.7,379.6z"/>
		<polygon class="st2" points="-132.5,419.6 -126.1,374.9 -109,372.5 -100,419.3 		"/>
		<path class="st2" d="M-95.6,487.5l1.7,5.8c0.1,0.3,0.2,0.5,0.3,0.7l1.2,1.8c0.8,1.2,0.2,2.7-1.1,3.2c0,0-2.5,0.9-5,1.7
			c-2.6,0.9-5.9,0.1-5.9-0.5c0-1.5,1.4-0.3,3.8-1.9c0.8-0.5,1.6-1.1,2.4-1.7c2.1-1.6,0.3-5.7-1-8c-0.5-0.8,0-1.9,1-2.1l0.6-0.1
			C-96.8,486.1-95.9,486.6-95.6,487.5z"/>
		<path class="st4" d="M-113.4,420l-19-1.6c0,0-6.7,24.2-8.5,34.9c-1.3,7.8,10.5,37.8,10.5,37.8c1.2,0.5,2.3-0.1,3.5-0.4
			c0,0-3.6-26.5-2.4-33c1.3-6.7,11.4-20.4,12.1-24C-115.9,426.4-113.4,420-113.4,420z"/>
		<path class="st4" d="M-117.3,420.3c-2,10.5-6.4,26.3,2.1,41.1c8.5,14.8,17.3,30.2,17.3,30.2c1.1,0,2.2-0.4,3.1-1.1
			c0,0-1.5-6.7-3.6-14.6c-2.5-9-5.6-19.5-4.7-25c1.7-10.3,3.6-24,3-30.7C-100.6,413.6-116.3,414.7-117.3,420.3z"/>
		<path class="st5" d="M-132.2,420.2c-0.7-0.3-1-1-0.9-1.8l7-43.6l17.2-2.4l9.2,46c0.2,0.9-0.4,1.7-1.3,1.9
			c-3.2,0.6-10.9,1.9-19.5,1.9C-127,422.3-130.6,421-132.2,420.2z"/>
		<path class="st3" d="M-112.8,384.1c2.1,5.7,5.4,16.8,3.5,26.7c-2.7,13.8-6.2,19.4-1.7,22.7c4.5,3.2,13.1-2.2,13.3-4
			c0.2-1.8-1.7-23.8-3.9-33.4c-2.2-9.6-8.3-23.3-8.3-23.3l-3.2,0.3C-113,373.1-113.8,381.4-112.8,384.1z"/>
		<path class="st3" d="M-123.1,374.5c0,0-1.3,6.2-0.3,15.5s3.4,37.4-5,41.6c-2.7,1.3-8.7-5.6-8.7-6.8c0-2.2,2-9.6,4-16.3
			c1.5-5.4,3.1-23.5,3.7-30.4c0.1-1.6,1.3-2.9,2.9-3.1L-123.1,374.5z"/>
		<g>
			<path class="st6" d="M-110.7,355.6c0,0-0.3,2.6,1.2,4.5c1.6,1.9-0.7,3.7-1.2,4.9c-0.5,1.3,0.1,3.2-1.4,4.1
				c-1.5,0.9-5.7,1.1-6.4-0.4C-119.1,367.1-115.4,354.7-110.7,355.6z"/>
			<path class="st6" d="M-127.7,359c-0.2,8.5,7.6,10.1,12.2,10.1c4.6,0,4.8-10.1,4.8-13.8c0-3.7-3.6-4.2-8.2-4.2
				c-3.6,0-7,2.8-8.4,5.5C-127.7,357.2-127.6,358.2-127.7,359z"/>
			<path class="st2" d="M-119.1,354.3c3.8,0,5.3,2.7,5.3,7.8c0,1.9-0.8,3.8-1.5,5c-0.5,0.9-0.6,1.9-0.4,2.9l0.8,2.8
				c0.6,2.6-0.7,4.1-2.5,4.6c-0.9,0.3-2,0.1-2.8-0.5c-1-0.6-1-1.9-0.9-3.1l0.2-0.8c0.3-1.1-0.3-2.3-1.4-2.5c-3-0.6-3.4-3.7-4.2-8.5
				C-127.2,357.1-122.9,354.3-119.1,354.3z"/>
			<path class="st6" d="M-128,352.1l2.2,0.7c0.8,0.2,1.7,0.3,2.5,0l4.4-1.3c2.7,0,7,1.5,6.5,5.3l-0.5,2.7c-0.2,1.1-1.1,1.9-2.2,2
				l0,0c-0.1,0.4-0.4,0.6-0.8,0.6c-0.5,0-0.9-0.4-0.9-0.9l0,0c0-1.2-0.9-2.3-2.1-2.5c-1.5-0.3-3-0.4-4.7,0c-3,0.8-6.3-1.1-6.6-4.2
				c0-0.2,0-0.4,0-0.6C-130.1,352.7-129.1,351.8-128,352.1z"/>
			<path class="st2" d="M-115.8,362.2c0,1.2,0.4,2.1,1.6,2.1c1.1,0,1.8-1.6,1.8-2.8c0-1.2-0.7-1.5-1.8-1.5
				C-115.4,360.1-115.8,361-115.8,362.2z"/>
			<path class="st7" d="M-125.2,365.7c-0.1,0.5,0.3,1.1,0.9,1.1l0,0c0.5,0,0.9-0.4,0.9-0.8l0-3.7c0-0.1-0.1-0.3-0.2-0.4
				c-0.1-0.1-0.2-0.2-0.4-0.2c-0.2,0-0.4,0.1-0.4,0.3L-125.2,365.7z"/>
		</g>
		<path class="st8" d="M-117.4,381.2c0.2,0,0.4,0.1,0.5,0.4c0.6,1.9,3.3,10.5,3.9,15.2c0.5,3.8-1.1,10.5-1.9,13.9
			c-0.3,1.3-1.2,2.5-2.4,3.2l-0.6,0.4c-0.5,0.3-1.2,0.1-1.5-0.4l-0.5-0.9c-0.4-0.6-0.4-1.4-0.2-2.1c1-2.7,3.6-9.9,3.4-14.6
			c-0.1-1.7-1.7-11.9-2.1-14.5c-0.1-0.3,0.2-0.6,0.5-0.6L-117.4,381.2z"/>
		<path class="st9" d="M-117.9,379.9c0.2,0,0.4,0.2,0.5,0.4c0.5,1.9,3,10.6,3.5,15.3c0.4,3.8-1.3,10.5-2.3,13.9
			c-0.4,1.3-1.3,2.5-2.5,3.1l-0.6,0.3c-0.5,0.3-1.2,0.1-1.5-0.4l-0.5-0.9c-0.4-0.7-0.4-1.4-0.1-2.1c1.1-2.7,3.8-9.8,3.7-14.5
			c0-1.7-1.4-11.9-1.8-14.5c0-0.3,0.2-0.6,0.5-0.6L-117.9,379.9z"/>
		<path class="st9" d="M-119.4,380.2h1.6c0.3,0,0.5-0.2,0.5-0.5V378c0-0.3-0.2-0.5-0.5-0.5l-1.5-0.2c-0.3,0-0.7,0.4-0.7,0.7v1.6
			C-119.9,380-119.6,380.2-119.4,380.2z"/>
		<path class="st10" d="M-114.9,372.5l2.8,0.5c0,0-0.6,4.5-2.8,7.9c-0.2,0.2-0.5,0.2-0.7,0l-2-2.7c-0.2-0.3-0.2-0.7,0-1.1
			L-114.9,372.5z"/>
		<path class="st10" d="M-120.9,373.6l-2.8,0.9c0,0-0.1,2.8,2.1,6c0.2,0.2,0.5,0.2,0.7,0l1.6-2.5c0.2-0.3,0.2-0.7,0.1-1
			L-120.9,373.6z"/>
		<g>
			<path class="st11" d="M-115.6,408.2v-5.8c0-1.3-1.1-2.4-2.4-2.4h-1.8c-1.1,0-2.2-0.7-2.5-1.8c-0.3-0.8-0.6-1.6-1-2.4
				c-0.5-1-0.3-2.3,0.5-3.1l1.3-1.3c1-1,1-2.5,0-3.4l-4.1-4.1c-0.9-1-2.5-1-3.4,0l-1.3,1.3c-0.8,0.8-2.1,1-3.1,0.5
				c-0.8-0.4-1.6-0.7-2.4-1c-1.1-0.4-1.8-1.4-1.8-2.5v-1.8c0-1.3-1.1-2.4-2.4-2.4h-5.8c-1.3,0-2.4,1.1-2.4,2.4v1.8
				c0,1.1-0.7,2.2-1.8,2.5c-0.8,0.3-1.6,0.6-2.4,1c-1,0.5-2.3,0.3-3.1-0.5l-1.3-1.3c-1-1-2.5-1-3.4,0l-4.1,4.1c-1,1-1,2.5,0,3.4
				l1.3,1.3c0.8,0.8,1,2.1,0.5,3.1c-0.4,0.8-0.7,1.6-1,2.4c-0.4,1.1-1.4,1.8-2.5,1.8h-1.8c-1.3,0-2.4,1.1-2.4,2.4v5.8
				c0,1.3,1.1,2.4,2.4,2.4h1.8c1.1,0,2.2,0.7,2.5,1.8c0.3,0.8,0.6,1.6,1,2.4c0.5,1,0.3,2.3-0.5,3.1l-1.3,1.3c-1,1-1,2.5,0,3.4
				l4.1,4.1c1,1,2.5,1,3.4,0l1.3-1.3c0.8-0.8,2.1-1,3.1-0.5c0.8,0.4,1.6,0.7,2.4,1c1.1,0.4,1.8,1.4,1.8,2.5v1.8
				c0,1.3,1.1,2.4,2.4,2.4h5.8c1.3,0,2.4-1.1,2.4-2.4v-1.8c0-1.1,0.7-2.2,1.8-2.5c0.8-0.3,1.6-0.6,2.4-1c1-0.5,2.3-0.3,3.1,0.5
				l1.3,1.3c0.9,1,2.5,1,3.4,0l4.1-4.1c1-1,1-2.5,0-3.4l-1.3-1.3c-0.8-0.8-1-2.1-0.5-3.1c0.4-0.8,0.7-1.6,1-2.4
				c0.4-1.1,1.4-1.8,2.5-1.8h1.8C-116.7,410.6-115.6,409.5-115.6,408.2z M-141.9,418.5c-8.1,0.6-14.9-6.1-14.2-14.2
				c0.5-6.4,5.7-11.6,12.1-12.1c8.1-0.6,14.9,6.1,14.2,14.2C-130.3,412.8-135.5,418-141.9,418.5z"/>
			<path class="st12" d="M-107.5,409.1v-7.5c0-1.7-1.4-3.2-3.2-3.2h-2.3c-1.5,0-2.8-0.9-3.3-2.3c-0.4-1.1-0.8-2.1-1.3-3.1
				c-0.7-1.3-0.4-2.9,0.7-4l1.7-1.7c1.2-1.2,1.2-3.2,0-4.5l-5.3-5.3c-1.2-1.2-3.2-1.2-4.5,0l-1.7,1.7c-1.1,1.1-2.7,1.3-4,0.7
				c-1-0.5-2-0.9-3.1-1.3c-1.4-0.5-2.3-1.8-2.3-3.3v-2.3c0-1.7-1.4-3.2-3.2-3.2h-7.5c-1.7,0-3.2,1.4-3.2,3.2v2.3
				c0,1.5-0.9,2.8-2.3,3.3c-1.1,0.4-2.1,0.8-3.1,1.3c-1.3,0.7-2.9,0.4-4-0.7l-1.7-1.7c-1.2-1.2-3.2-1.2-4.5,0l-5.3,5.3
				c-1.2,1.2-1.2,3.2,0,4.5l1.7,1.7c1.1,1.1,1.3,2.7,0.7,4c-0.5,1-0.9,2-1.3,3.1c-0.5,1.4-1.8,2.3-3.3,2.3h-2.3
				c-1.7,0-3.2,1.4-3.2,3.2v7.5c0,1.7,1.4,3.2,3.2,3.2h2.3c1.5,0,2.8,0.9,3.3,2.3c0.4,1.1,0.8,2.1,1.3,3.1c0.7,1.3,0.4,2.9-0.7,4
				l-1.7,1.7c-1.2,1.2-1.2,3.2,0,4.5l5.3,5.3c1.2,1.2,3.2,1.2,4.5,0l1.7-1.7c1.1-1.1,2.7-1.3,4-0.7c1,0.5,2,0.9,3.1,1.3
				c1.4,0.5,2.3,1.8,2.3,3.3v2.3c0,1.7,1.4,3.2,3.2,3.2h7.5c1.7,0,3.2-1.4,3.2-3.2v-2.3c0-1.5,0.9-2.8,2.3-3.3
				c1.1-0.4,2.1-0.8,3.1-1.3c1.3-0.7,2.9-0.4,4,0.7l1.7,1.7c1.2,1.2,3.2,1.2,4.5,0l5.3-5.3c1.2-1.2,1.2-3.2,0-4.5l-1.7-1.7
				c-1.1-1.1-1.3-2.7-0.7-4c0.5-1,0.9-2,1.3-3.1c0.5-1.4,1.8-2.3,3.3-2.3h2.3C-108.9,412.2-107.5,410.8-107.5,409.1z M-141.6,422.4
				c-10.5,0.8-19.3-7.9-18.4-18.4c0.7-8.3,7.4-15,15.7-15.7c10.5-0.8,19.3,7.9,18.4,18.4C-126.6,415-133.3,421.7-141.6,422.4z"/>
			<circle class="st13" cx="-143" cy="405.3" r="22.8"/>
			<path class="st14" d="M-165.8,405.3c0-12.6,10.2-22.8,22.8-22.8"/>
		</g>
		<path class="st2" d="M-142.5,382.6c0.6-0.5,0.7-1.5,0.2-2.1l-0.6-0.8c-0.7-0.9-1.2-2-1.2-3.1c0-0.8-0.5-3-1.3-2.9
			c-0.7,0.1,0,2.8-0.7,2.8c-0.3,0-1.5-2-2.4-3.1c-0.5-0.6-1.4-0.9-1.5-0.4c-0.1,0.4-0.5,0.4-0.9,0.7c-0.4,0.3-0.2,2.3-0.2,2.8
			c0,0.6-0.2,0.8,0.8,2c0.8,0.9,4.1,3.1,4.1,3.1l1.5,1C-144,383.1-143.1,383.1-142.5,382.6L-142.5,382.6z"/>
		<path class="st3" d="M-143,379.5c0,0,13.9,13.3,17.1,14.4c3.3,1.1,12.6-18.2,14.2-20.2c2.8-3.3,8.7,0.1,7.7,6.2
			c-1.3,7.7-19.6,22.5-21.9,22.7c-2.3,0.2-19.5-20.3-19.5-20.3C-145.2,381.4-144.4,380.5-143,379.5z"/>
	</g>
</g>
</svg>
