<?xml version="1.0" encoding="utf-8"?>
<!-- Generator: Adobe Illustrator 19.0.0, SVG Export Plug-In . SVG Version: 6.00 Build 0)  -->
<svg version="1.1" id="Layer_1" xmlns="http://www.w3.org/2000/svg" xmlns:xlink="http://www.w3.org/1999/xlink" x="0px" y="0px"
	 viewBox="-210 333.9 175 175" style="enable-background:new -210 333.9 175 175;" xml:space="preserve">
<style type="text/css">
	.st0{fill:#F3F8FE;}
	.st1{clip-path:url(#SVGID_2_);fill:#D2F0FF;}
	.st2{fill:#B0B0FF;}
	.st3{fill:#827DDC;}
	.st4{fill:#D2F0FF;}
	.st5{fill:#41378C;}
	.st6{opacity:0.51;fill:#3BD2FF;}
	.st7{fill:#003591;}
	.st8{fill:#FFB59C;}
	.st9{fill:#FF9F7C;}
	.st10{fill:#FFB899;}
	.st11{fill:#FFCDA9;}
	.st12{fill:#FF907D;}
	.st13{fill:#FFFFFF;}
	.st14{fill:url(#SVGID_3_);}
	.st15{fill:url(#SVGID_4_);}
	.st16{fill:#002A88;}
	.st17{fill:#001F5F;}
	.st18{fill:#000F1F;}
	.st19{fill:#6E64C3;}
</style>
<g>
	<circle class="st0" cx="-122.5" cy="421.4" r="87.5"/>
	<g>
		<defs>
			<circle id="SVGID_1_" cx="-122.5" cy="421.4" r="87.5"/>
		</defs>
		<clipPath id="SVGID_2_">
			<use xlink:href="#SVGID_1_"  style="overflow:visible;"/>
		</clipPath>
		<rect x="-180.9" y="487.8" class="st1" width="116.8" height="21.8"/>
	</g>
	<g>
		<g>
			<g>
				<path class="st2" d="M-113.7,441.9c0,0,10.7,8.7,12.7,19.6c2.4,13.6-8.6,18.9-8.6,18.9l-1.1-6.9c0,0,3.1-4.4,2.6-8.1
					c-0.7-4.8-4.3-8.3-4.3-8.3S-115.5,450.3-113.7,441.9z"/>
				<path class="st2" d="M-131.3,441.9c0,0-10.7,8.7-12.7,19.6c-2.4,13.6,8.6,18.9,8.6,18.9l1.1-6.9c0,0-3.1-4.4-2.6-8.1
					c0.7-4.8,4.3-8.3,4.3-8.3S-129.5,450.3-131.3,441.9z"/>
				<path class="st3" d="M-132,451.1l-0.4-8.1c0,0-6.1,6.1-4,20.9l0,0c1.1-4,4-6.7,4-6.7s0-0.1,0.1-0.3L-132,451.1z"/>
				<path class="st3" d="M-112.8,451.1l0.4-8.1c0,0,5.9,6.1,3.9,20.9l0,0c-1.2-3.8-3.9-6.7-3.9-6.7s0-0.1-0.1-0.3L-112.8,451.1z"/>
				<path class="st4" d="M-110,448.6c-0.5-4.7-4.2-8.5-8.2-8.5h0h-4.2h0h-4.2h0c-4,0-7.7,3.8-8.2,8.5c-0.7,6.5,0.2,16,1.4,28.3
					c0,0,3.3,4.2,11.1,3.3c7.8,0.9,11.1-3.3,11.1-3.3C-110.3,464.6-109.3,455.1-110,448.6z"/>
				<rect x="-118.2" y="450.8" class="st2" width="5.5" height="1.6"/>
				<polygon class="st5" points="-121.8,443.5 -122.7,443.5 -122.7,443.8 -123.1,443.5 -126.1,467.1 -122.4,468 -118.8,467.1 				
					"/>
				<path class="st6" d="M-134.8,462.2c0.2,2.9,0.5,6,0.8,9.4l6.3,0.8l15-1.4c0,0,1-0.8,2-1.9c0.2-2.4,0.4-4.7,0.5-6.9
					C-122.1,465.7-131.9,463.1-134.8,462.2z"/>
				<path class="st7" d="M-121.7,444.2l1.2-1.2l-1.9-1.9l-1.9,1.9l1.2,1.2C-122.8,444.6-122.1,444.6-121.7,444.2z"/>
				<g>
					<g>
						<g>
							<circle class="st8" cx="-115.8" cy="427.5" r="2.8"/>
							<circle class="st9" cx="-115.8" cy="427.5" r="1.8"/>
						</g>
						<g>
							<circle class="st8" cx="-129.3" cy="427.5" r="2.8"/>
							<circle class="st9" cx="-129.3" cy="427.5" r="1.8"/>
						</g>
						<rect x="-126.9" y="432.3" class="st10" width="8.9" height="8.9"/>
						<path class="st11" d="M-121.7,415.9l-1.2,0.5l-0.3-0.5l-6.7,5v9.1c1.4,5.8,7.4,8.2,7.4,8.2s6.1-2.4,7.4-8.2v-9.1L-121.7,415.9
							z"/>
						<polygon class="st12" points="-121.4,430.5 -122.4,426.3 -123.5,430.5 						"/>
						<path class="st5" d="M-115,427.1l-1-3.9c0,0,0.1,1.5-2,1.9v-1.5c0,0-1.7,2.3-5.5,1.5l1.6-1.3l-6.3,1.8l1.7-2.4h-1.7l-1.6,3
							l-0.8-6.1c0,0-2.9-0.9-2.2-4.2l3,1.4c0,0-2.6-1.7-0.8-5.3l2.9,2.9c0,0-0.6-2,1.2-3.5l2.1,2.6c0,0,6.8-1.4,10.5,4.8L-115,427.1
							z"/>
					</g>
					<path class="st13" d="M-122.4,435.1c1.7,0,3.1-1.4,3.1-3.1h-6.2C-125.5,433.7-124.1,435.1-122.4,435.1z"/>
				</g>
				<g>
					<path class="st2" d="M-122.4,441.2l-2.8,2.8c0,0-4.2-1.7-1.7-5.7C-126.9,438.3-125.3,440.5-122.4,441.2z"/>
					<path class="st2" d="M-122.4,441.2l2.8,2.8c0,0,4.2-1.7,1.7-5.7C-118,438.3-119.6,440.5-122.4,441.2z"/>
				</g>
				<path class="st13" d="M-106.9,484.9h-31V466c0-1.1,0.9-2.1,2.1-2.1h26.9c1.1,0,2.1,0.9,2.1,2.1V484.9z"/>
				<linearGradient id="SVGID_3_" gradientUnits="userSpaceOnUse" x1="-136.6107" y1="473.9483" x2="-121.6516" y2="488.9074">
					<stop  offset="0" style="stop-color:#E2F3F8"/>
					<stop  offset="1" style="stop-color:#D7E4FF"/>
				</linearGradient>
				<path class="st14" d="M-122.5,483.4c0,0-6-6.2-15.5-9v2.9L-122.5,483.4z"/>
				
					<linearGradient id="SVGID_4_" gradientUnits="userSpaceOnUse" x1="177.756" y1="473.9483" x2="192.715" y2="488.9073" gradientTransform="matrix(-1 0 0 1 69.482 0)">
					<stop  offset="0" style="stop-color:#E2F3F8"/>
					<stop  offset="1" style="stop-color:#D7E4FF"/>
				</linearGradient>
				<path class="st15" d="M-122.4,483.4c0,0,6-6.2,15.5-9v2.9L-122.4,483.4z"/>
			</g>
			<g>
				<g>
					<path class="st16" d="M-143.8,491.1v4c0,0,22.1-2.4,38.1-6c0,0,9-2.8,17.4-6.9c2.4-1.2,3-4.3,1.2-6.2c-1.5-1.6-3.9-3.1-7.8-3
						c-8.9,0.1-27.1,10.1-27.1,10.1L-143.8,491.1z"/>
					<polyline class="st17" points="-122.4,492.3 -123,492.2 -139.3,489.2 -143.8,491.1 -143.8,495.1 					"/>
				</g>
				<g>
					<path class="st7" d="M-101.2,491.1v4c0,0-22.1-2.4-38.1-6c0,0-9-2.8-17.4-6.9c-2.3-1.1-3-4.1-1.4-6c1.4-1.7,3.9-3.3,8-3.2
						c8.9,0.1,27.1,10.1,27.1,10.1L-101.2,491.1z"/>
				</g>
			</g>
			<path class="st18" d="M-143.8,495.1c0,0-4,0.7-13.6,1.2v-3.3l10.4-3.3l3.2,1.3V495.1z"/>
			<path class="st18" d="M-101.2,495.1c0,0,4,0.7,13.6,1.2v-3.3l-10.4-3.3l-3.2,1.3V495.1z"/>
		</g>
		<path class="st19" d="M-96.9,372.9c0-14.7-11.9-26.6-26.6-26.6c-14.7,0-26.6,11.9-26.6,26.6c0,12.5,8.7,23,20.3,25.8l6.2,9.3
			l6.2-9.3C-105.6,395.9-96.9,385.5-96.9,372.9z"/>
		<circle class="st3" cx="-123.4" cy="372.9" r="22"/>
		<g>
			<path class="st5" d="M-123.2,373.6c0.6,1.9,0.1,3.9-1.5,5.3v0.3c1.4-0.2,4.4-0.3,4.8-0.3h6.2v4.2h-19.4V379
				c6.1-0.4,5.5-3.1,4.9-5.3h-4.2v-2.5h3.2c-0.8-2.1-1.4-3.8-1.4-5.4c0-4.2,3.6-7,8.3-7c5.6,0,7.9,4,7.9,7.2h-4.8
				c0-1.5-1-2.7-3.1-2.7c-2,0-3.3,1-3.3,2.8c0,1.2,0.6,3.2,1.4,5.2h6.1v2.5H-123.2z"/>
		</g>
	</g>
</g>
</svg>
