<?xml version="1.0" encoding="utf-8"?>
<!-- Generator: Adobe Illustrator 23.0.3, SVG Export Plug-In . SVG Version: 6.00 Build 0)  -->
<svg version="1.1" id="Layer_1" xmlns="http://www.w3.org/2000/svg" xmlns:xlink="http://www.w3.org/1999/xlink" x="0px" y="0px"
	 viewBox="0 0 175 175" style="enable-background:new 0 0 175 175;" xml:space="preserve">
<style type="text/css">
	.st0{fill:#F3F8FE;}
	.st1{clip-path:url(#SVGID_2_);fill:#D2F0FF;}
	.st2{fill:none;stroke:#B0B0FF;stroke-miterlimit:10;}
	.st3{fill:none;stroke:#B0B0FF;stroke-miterlimit:10;stroke-dasharray:4.0171,4.0171;}
	.st4{fill:#41378C;}
	.st5{fill:#FF524F;}
	.st6{fill:none;}
	.st7{fill:#B0B0FF;}
	.st8{fill:none;stroke:#FFFFFF;stroke-width:2;stroke-linecap:round;stroke-linejoin:round;stroke-miterlimit:10;}
	.st9{fill:none;stroke:#5046AF;stroke-width:4.5;stroke-linecap:round;stroke-miterlimit:10;}
	.st10{fill:#5046AF;}
	.st11{fill:none;stroke:#E4EAEF;stroke-linecap:round;stroke-linejoin:round;stroke-miterlimit:10;}
	.st12{fill:#FFFFFF;}
	.st13{fill:#DCE0F4;}
</style>
<g>
	<circle class="st0" cx="87.5" cy="87.5" r="87.5"/>
	<g>
		<defs>
			<circle id="SVGID_1_" cx="87.5" cy="87.5" r="87.5"/>
		</defs>
		<clipPath id="SVGID_2_">
			<use xlink:href="#SVGID_1_"  style="overflow:visible;"/>
		</clipPath>
		<rect x="29.1" y="154" class="st1" width="116.8" height="21.8"/>
	</g>
	<g>
		<g>
			<path class="st2" d="M25.6,96c0.7,0,1.3,0,2-0.1"/>
			<path class="st3" d="M31.6,95.6c62.2-5.1,47.1-56.8,74.7-56.8c19.6,0,16.8,44.6,50.2,24.1l9.4-4.5"/>
			<line class="st2" x1="167.6" y1="57.6" x2="169.4" y2="56.7"/>
		</g>
	</g>
	<path class="st4" d="M106.5,38.8c0-1.6-1.3-2.9-2.9-2.9c-1.6,0-2.9,1.3-2.9,2.9c0,1.6,1.3,2.9,2.9,2.9
		C105.2,41.7,106.5,40.4,106.5,38.8z"/>
	<path class="st5" d="M109.1,17.9c-3-3-7.9-3-11,0c-2.4,2.4-2.9,6.1-1.4,9l0,0l0,0.1c0.1,0.2,0.3,0.5,0.4,0.7l6.5,11.2l6.5-11.2
		c0.1-0.2,0.3-0.5,0.4-0.7l0-0.1l0,0C112,23.9,111.5,20.3,109.1,17.9z M103.6,27c-2,0-3.7-1.6-3.7-3.7c0-2,1.6-3.7,3.7-3.7
		c2,0,3.7,1.6,3.7,3.7C107.3,25.4,105.6,27,103.6,27z"/>
	<path class="st4" d="M28.4,96c0-1.6-1.3-2.9-2.9-2.9c-1.6,0-2.9,1.3-2.9,2.9c0,1.6,1.3,2.9,2.9,2.9C27.2,98.9,28.4,97.6,28.4,96z"
		/>
	<path class="st5" d="M31,75c-3-3-7.9-3-11,0c-2.4,2.4-2.9,6.1-1.4,9l0,0l0,0.1c0.1,0.2,0.3,0.5,0.4,0.7L25.6,96l6.5-11.2
		c0.1-0.2,0.3-0.5,0.4-0.7l0-0.1l0,0C34,81.1,33.5,77.5,31,75z M25.6,84.2c-2,0-3.7-1.6-3.7-3.7c0-2,1.6-3.7,3.7-3.7
		c2,0,3.7,1.6,3.7,3.7C29.2,82.5,27.6,84.2,25.6,84.2z"/>
	<rect x="89.2" y="102.9" class="st6" width="24.1" height="6.1"/>
	<path class="st7" d="M63.2,71.1v78.8H111V71.1C111,71.1,88.1,46.3,63.2,71.1z"/>
	<path class="st8" d="M67.9,75.6v68.2h38.6V75.6C106.5,75.6,88,58.7,67.9,75.6z"/>
	<path class="st9" d="M61.6,70.3c0,0,22.6-20.8,50.5,0"/>
	<path class="st10" d="M113,153.7H61.5c-1.2,0-2.3-1-2.3-2.3v0c0-1.2,1-2.3,2.3-2.3H113c1.2,0,2.3,1,2.3,2.3v0
		C115.2,152.7,114.2,153.7,113,153.7z"/>
	<rect x="105.3" y="83.4" class="st10" width="2.5" height="6.6"/>
	<path class="st10" d="M95.7,130.7H78.2c-0.3,0-0.5-0.2-0.5-0.5l0,0c0-0.3,0.2-0.5,0.5-0.5h17.6c0.3,0,0.5,0.2,0.5,0.5l0,0
		C96.2,130.5,96,130.7,95.7,130.7z"/>
	<path class="st10" d="M95.7,133.5H78.2c-0.3,0-0.5-0.2-0.5-0.5l0,0c0-0.3,0.2-0.5,0.5-0.5h17.6c0.3,0,0.5,0.2,0.5,0.5l0,0
		C96.2,133.3,96,133.5,95.7,133.5z"/>
	<path class="st10" d="M95.7,136.3H78.2c-0.3,0-0.5-0.2-0.5-0.5l0,0c0-0.3,0.2-0.5,0.5-0.5h17.6c0.3,0,0.5,0.2,0.5,0.5l0,0
		C96.2,136.1,96,136.3,95.7,136.3z"/>
	<rect x="105.3" y="130.9" class="st10" width="2.5" height="6.6"/>
	<polyline class="st11" points="72.4,102.9 73.3,103.8 73.3,108 72.5,108.8 	"/>
	<g>
		<path class="st12" d="M83.8,88.9h6.6c1.2,0,2.2-1,2.2-2.2v-6.6c0-1.2-1-2.2-2.2-2.2h-6.6c-1.2,0-2.2,1-2.2,2.2v6.6
			C81.6,87.9,82.6,88.9,83.8,88.9L83.8,88.9z M89.2,79.9c0.1-0.1,0.2-0.2,0.4-0.2c0.2,0,0.3,0.1,0.4,0.2c0.1,0.1,0.2,0.2,0.2,0.4
			c0,0.2-0.1,0.3-0.2,0.4c-0.1,0.1-0.3,0.2-0.4,0.2c-0.2,0-0.3-0.1-0.4-0.2c-0.1-0.1-0.2-0.2-0.2-0.4C89.1,80.1,89.1,80,89.2,79.9
			L89.2,79.9z M88.2,81.7c0-0.2,0.1-0.4,0.2-0.5c0.1-0.1,0.3-0.2,0.5-0.2h1.3c0.2,0,0.4,0.1,0.5,0.2c0.1,0.2,0.2,0.3,0.2,0.5v1.8
			c0,0.1,0,0.1-0.1,0.2c0,0-0.1,0.1-0.2,0.1c-0.1,0-0.1,0-0.2-0.1c0,0-0.1-0.1-0.1-0.2v-1.6h-0.1v4.5c0,0.1,0,0.2-0.1,0.2
			c-0.1,0.1-0.1,0.1-0.2,0.1c-0.1,0-0.2,0-0.2-0.1c-0.1-0.1-0.1-0.1-0.1-0.2v-2.6h-0.1v2.6c0,0.1,0,0.2-0.1,0.2
			c-0.1,0.1-0.1,0.1-0.2,0.1c-0.1,0-0.2,0-0.2-0.1c-0.1-0.1-0.1-0.1-0.1-0.2v-4.5h-0.1v1.6c0,0.1,0,0.1-0.1,0.2c0,0-0.1,0.1-0.2,0.1
			c-0.1,0-0.1,0-0.2-0.1c-0.1,0-0.1-0.1-0.1-0.2V81.7z M87.1,79.2h0.6v8.3h-0.6V79.2z M84.4,79.9c0.1-0.1,0.3-0.2,0.4-0.2
			c0.2,0,0.3,0.1,0.4,0.2c0.1,0.1,0.2,0.2,0.2,0.4c0,0.2-0.1,0.3-0.2,0.4c-0.1,0.1-0.2,0.2-0.4,0.2c-0.2,0-0.3-0.1-0.4-0.2
			c-0.1-0.1-0.2-0.2-0.2-0.4C84.3,80.1,84.3,80,84.4,79.9L84.4,79.9z M83.2,83.2c0,0,0-0.1,0.1-0.2c0-0.1,0.1-0.3,0.1-0.4
			c0-0.2,0.1-0.3,0.2-0.5c0.1-0.2,0.1-0.4,0.2-0.6c0-0.1,0.1-0.3,0.2-0.4c0.1-0.1,0.3-0.2,0.4-0.2h0.9c0.1,0,0.3,0.1,0.4,0.2
			c0.1,0.1,0.2,0.2,0.3,0.4c0.1,0.2,0.1,0.4,0.2,0.6c0.1,0.2,0.1,0.4,0.2,0.5c0,0.2,0.1,0.3,0.1,0.4c0,0.1,0.1,0.2,0.1,0.2l0,0.1
			c0,0.1-0.1,0.2-0.2,0.2l-0.1,0c-0.1,0-0.2-0.1-0.2-0.2c0,0,0-0.1-0.1-0.3c-0.1-0.2-0.1-0.3-0.2-0.5c-0.1-0.2-0.1-0.4-0.2-0.7h-0.1
			l0.8,2.6h-0.7v2c0,0.1,0,0.1-0.1,0.2c-0.1,0.1-0.1,0.1-0.2,0.1c-0.1,0-0.1,0-0.2-0.1c0,0-0.1-0.1-0.1-0.2v-2h-0.1v2
			c0,0.1,0,0.1-0.1,0.2c-0.1,0.1-0.1,0.1-0.2,0.1c-0.1,0-0.1,0-0.2-0.1c-0.1,0-0.1-0.1-0.1-0.2v-2h-0.8l0.8-2.6h-0.1
			c-0.1,0.3-0.2,0.5-0.2,0.7c-0.1,0.2-0.1,0.4-0.2,0.5c-0.1,0.2-0.1,0.3-0.1,0.3c0,0.1-0.1,0.2-0.2,0.2l-0.1,0
			C83.3,83.5,83.2,83.4,83.2,83.2C83.2,83.3,83.2,83.3,83.2,83.2L83.2,83.2z M83.2,83.2"/>
	</g>
	<path class="st13" d="M66.5,50.8c0,0-1.5-1.9-2.4-2.8c-1.6-1.6-3.5-4.4-9.5-2.3c-0.5,0.2-0.9,0.4-1.4,0.6c-0.5,0.3-2.2,0.3-3.8-1.3
		c-2.7-2.4-3.7-4.2-7.3-4.3c-4.2-0.1-4.9,6-8.2,7.5c-2.1,1-7.6,2-8.8,2.4L66.5,50.8z"/>
	<path class="st13" d="M153.3,34.7c0,0-0.9-1.1-1.4-1.7c-1-0.9-2-2.6-5.5-1.4c-0.3,0.1-0.5,0.2-0.8,0.3c-0.3,0.1-1.3,0.2-2.2-0.7
		c-1.6-1.4-2.2-2.5-4.3-2.5c-2.5,0-2.9,3.5-4.8,4.4c-1.2,0.6-4.5,1.1-5.1,1.4L153.3,34.7z"/>
</g>
</svg>
