<?xml version="1.0" encoding="utf-8"?>
<!-- Generator: Adobe Illustrator 19.0.0, SVG Export Plug-In . SVG Version: 6.00 Build 0)  -->
<svg version="1.1" id="Layer_1" xmlns="http://www.w3.org/2000/svg" xmlns:xlink="http://www.w3.org/1999/xlink" x="0px" y="0px"
	 viewBox="0 0 572.514 441.586" style="enable-background:new 0 0 572.514 441.586;" xml:space="preserve">
<style type="text/css">
	.st0{opacity:0.2;clip-path:url(#XMLID_2_);}
	.st1{opacity:0.2;}
	.st2{clip-path:url(#XMLID_3_);}
	.st3{fill:#E9EBFB;}
	.st4{clip-path:url(#XMLID_4_);fill:#E0E2F5;}
	.st5{fill:none;}
	.st6{fill:#09ACF2;}
	.st7{fill:none;stroke:#FFFFFF;stroke-width:5;stroke-linecap:round;stroke-linejoin:round;stroke-miterlimit:10;}
	.st8{fill:none;stroke:#E4EAEF;stroke-width:16;stroke-linecap:round;stroke-miterlimit:10;}
	.st9{fill:#E4EAEF;}
	.st10{fill:#306FB4;}
	.st11{fill:#F2BE9B;}
	.st12{fill:#B0B0FF;}
	.st13{fill:#5046AF;}
	.st14{opacity:0.44;fill:#CACACA;}
	.st15{fill:#1F2E3B;}
	.st16{fill:#C8CDEB;}
	.st17{fill:#EDB48D;}
	.st18{fill:#21283A;}
	.st19{fill:#FFFFFF;}
	.st20{fill:none;stroke:#F2BE9B;stroke-width:1.522;stroke-linecap:round;stroke-linejoin:round;stroke-miterlimit:10;}
	.st21{fill:none;stroke:#E4EAEF;stroke-width:3;stroke-linecap:round;stroke-linejoin:round;stroke-miterlimit:10;}
	.st22{fill:#81B7FB;}
	.st23{fill:#4D8BD7;}
	.st24{fill:#DCE0F4;}
</style>
<g id="XMLID_92_">
	<g id="XMLID_91_">
		<defs>
			<path id="XMLID_178_" d="M540.341,0H115.234v441.586h425.107c5.523,0,10-4.477,10-10V10C550.341,4.477,545.864,0,540.341,0z"/>
		</defs>
		<clipPath id="XMLID_2_">
			<use xlink:href="#XMLID_178_"  style="overflow:visible;"/>
		</clipPath>
		<g id="XMLID_171_" class="st0">
			<defs>
				<rect id="XMLID_172_" x="105.412" y="164.287" class="st1" width="560.342" height="313.431"/>
			</defs>
			<clipPath id="XMLID_3_">
				<use xlink:href="#XMLID_172_"  style="overflow:visible;"/>
			</clipPath>
			<g id="XMLID_173_" class="st2">
				<path id="XMLID_177_" class="st3" d="M307.425,237.609c-7.933,9.294-14.512,18.07-7.245,27.447
					c3.568,4.604,10.12,8.782,17.94,15.87c34.296,31.082-3.465,47.118-47.882,47.785c-44.417,0.667-135.789-2.654-147.239,71.873
					c-6.471,42.12,10.6,143.567,236.124,166.302c203.161,20.481,320.866-64.801,290.685-111.892
					c-30.181-47.09-64.302-67.021-46.786-88.649c26.3-32.473,45.194-36.263,49.727-83.077
					C664.543,161.449,396.124,133.68,307.425,237.609z"/>
				<g id="XMLID_174_">
					<defs>
						<path id="XMLID_175_" d="M307.425,237.609c-7.933,9.294-14.512,18.07-7.245,27.447c3.568,4.604,10.12,8.782,17.94,15.87
							c34.296,31.082-3.465,47.118-47.882,47.785c-44.417,0.667-135.789-2.654-147.239,71.873
							c-6.471,42.12,10.6,143.567,236.124,166.302c203.161,20.481,320.866-64.801,290.685-111.892
							c-30.181-47.09-64.302-67.021-46.786-88.649c26.3-32.473,45.194-36.263,49.727-83.077
							C664.543,161.449,396.124,133.68,307.425,237.609z"/>
					</defs>
					<clipPath id="XMLID_4_">
						<use xlink:href="#XMLID_175_"  style="overflow:visible;"/>
					</clipPath>
					<path id="XMLID_176_" class="st4" d="M291.242,200.562c0,0,26.877,80.365,87.801,148.664
						c30.803,34.532,183.099,109.342,108.531,158.684c-353.464,233.888-379.91-123.377-379.91-123.377l97.213-158.198
						L291.242,200.562z"/>
				</g>
			</g>
		</g>
	</g>
	<rect id="XMLID_168_" x="273.073" y="206.18" class="st5" width="80.448" height="20.395"/>
	<path id="XMLID_167_" class="st6" d="M186.702,100.134v262.671h159.105V100.134C345.807,100.134,269.5,17.537,186.702,100.134z"/>
	<path id="XMLID_166_" class="st7" d="M202.228,115.198v227.357H330.89V115.198C330.89,115.198,269.183,58.92,202.228,115.198z"/>
	<path id="XMLID_165_" class="st8" d="M181.148,94.245c0,0,75.311-69.348,168.217,0"/>
	<path id="XMLID_164_" class="st9" d="M353.52,375.55H179.891c-3.554,0-6.436-2.881-6.436-6.436v-2.14
		c0-3.554,2.881-6.436,6.436-6.436H353.52c3.554,0,6.436,2.881,6.436,6.436v2.14C359.956,372.669,357.075,375.55,353.52,375.55z"/>
	<rect id="XMLID_163_" x="326.773" y="141.091" class="st10" width="8.32" height="22.106"/>
	<path id="XMLID_162_" class="st10" d="M295.477,298.919h-59.582c-0.682,0-1.235-0.553-1.235-1.235v-1.028
		c0-0.682,0.553-1.235,1.235-1.235h59.582c0.682,0,1.235,0.553,1.235,1.235v1.028C296.712,298.366,296.159,298.919,295.477,298.919z
		"/>
	<path id="XMLID_161_" class="st10" d="M295.477,308.249h-59.582c-0.682,0-1.235-0.553-1.235-1.235v-1.028
		c0-0.682,0.553-1.235,1.235-1.235h59.582c0.682,0,1.235,0.553,1.235,1.235v1.028C296.712,307.696,296.159,308.249,295.477,308.249z
		"/>
	<path id="XMLID_160_" class="st10" d="M295.477,317.579h-59.582c-0.682,0-1.235-0.553-1.235-1.235v-1.028
		c0-0.682,0.553-1.235,1.235-1.235h59.582c0.682,0,1.235,0.553,1.235,1.235v1.028C296.712,317.026,296.159,317.579,295.477,317.579z
		"/>
	<rect id="XMLID_159_" x="223.25" y="206.159" class="st5" width="82.805" height="20.993"/>
	<rect id="XMLID_158_" x="326.773" y="299.603" class="st10" width="8.32" height="22.106"/>
	<path id="XMLID_157_" class="st11" d="M407.125,215.327l8.917,7.035l-14.663,29.858l4.233,4.136l21.561-34.78
		c0.871-1.745,0.468-3.858-0.984-5.16l-11.817-10.737L407.125,215.327z"/>
	<path id="XMLID_156_" class="st11" d="M353.005,207.752l-14.755,13.206l-25.302-18.073l-6.099,5.586l30.13,25.54
		c1.28,1.366,3.436,1.404,4.765,0.085l17.588-15.812L353.005,207.752z"/>
	<path id="XMLID_155_" class="st12" d="M364.087,191.916c0,0-1.184-0.819-15.879,15.632l11.42,15.316l6.651-7.353L364.087,191.916z"
		/>
	<path id="XMLID_154_" class="st12" d="M376.013,188.97l-10.172,2.279c-2.713,0.608-4.755,2.849-5.107,5.607l-6.785,57.323
		l42.235-2.773l2.883-54.025c0.212-3.576-2.466-6.669-6.036-6.971L376.013,188.97z"/>
	<polygon id="XMLID_153_" class="st11" points="410.782,387.991 407.64,370.573 397.599,371.962 401.329,389.591 	"/>
	<polygon id="XMLID_152_" class="st11" points="356.107,387.501 356.728,369.264 346.576,368.941 346.835,387.118 	"/>
	<polygon id="XMLID_151_" class="st13" points="353.948,254.179 350.494,271.12 398.402,268.798 396.183,251.407 	"/>
	<polygon id="XMLID_150_" class="st13" points="373.974,264.512 363.21,310.938 360.287,381.737 344.181,381.085 343.133,310.495 
		351.43,266.606 	"/>
	<polygon id="XMLID_149_" class="st14" points="372.301,270.063 359.942,270.488 369.793,279.371 	"/>
	<polygon id="XMLID_148_" class="st13" points="398.107,266.486 402.986,311.553 417.203,379.783 400.77,383.355 383.416,314.314 
		376.082,264.532 	"/>
	<g id="XMLID_145_">
		<path id="XMLID_147_" class="st15" d="M346.835,387.118l9.272,0.382l-0.278,13.898l-28.749,1.581l0,0
			c0.269-2.172,1.737-3.823,3.791-4.245l15.564-5.377L346.835,387.118z"/>
		<polygon id="XMLID_146_" class="st16" points="355.828,401.398 327.079,402.98 327.013,405.126 355.762,403.544 		"/>
	</g>
	<g id="XMLID_142_">
		<path id="XMLID_144_" class="st15" d="M405.329,389.591l9.454-1.6l2.368,13.691l-27.375,2.133l0,0
			c-0.149-2.187,0.973-4.118,2.902-4.967l13.754-3.063L405.329,389.591z"/>
		<polygon id="XMLID_143_" class="st16" points="417.15,401.682 389.775,403.816 390.118,405.935 417.493,403.801 		"/>
	</g>
	<g id="XMLID_135_">
		<path id="XMLID_141_" class="st17" d="M377.926,195.914l-1.064-0.049c-2.851-0.132-5.065-2.532-4.966-5.384l0.683-19.733
			l11.474,0.53l-0.679,19.612C383.272,193.789,380.823,196.048,377.926,195.914z"/>
		<g id="XMLID_136_">
			<path id="XMLID_140_" class="st11" d="M377.192,187.532l-12.735-0.295c-4.277-0.099-7.663-3.647-7.563-7.924l0.537-22.886
				l28.22,0.662l-0.537,22.882C385.013,184.247,381.467,187.631,377.192,187.532z"/>
			<path id="XMLID_139_" class="st18" d="M385.194,169.967l-4.025-0.015c-1.096-0.004-1.908-1.006-1.697-2.081
				c0.571-2.899,1.255-7.881-0.628-8.509c-2.675-0.892-17.105,2.665-21.958-1.137c-6.832-5.352-1.738-13.691,4.491-13.959
				c6.229-0.269,5.215,6.928,12.475,6.891c7.26-0.037,18.314-2.681,13.302,16.489L385.194,169.967z"/>
			<circle id="XMLID_138_" class="st11" cx="385.717" cy="170.736" r="4.435"/>
			<path id="XMLID_137_" class="st19" d="M360.124,176.252l9.441,0.621c0,0-0.684,4.158-5.756,3.464
				C359.805,179.789,360.124,176.252,360.124,176.252z"/>
		</g>
	</g>
	<path id="XMLID_134_" class="st12" d="M394.895,190.851c0,0,2.289,0.229,21.196,11.59l-8.428,16.955l-11.139-5.895L394.895,190.851
		z"/>
	<circle id="XMLID_133_" class="st11" cx="307.572" cy="206.921" r="6.87"/>
	<line id="XMLID_132_" class="st20" x1="312.024" y1="204.278" x2="301.931" y2="196.456"/>
	<circle id="XMLID_131_" class="st11" cx="401.498" cy="257.264" r="7.32"/>
	<polyline id="XMLID_130_" class="st21" points="207.275,206.184 210.25,209.159 210.25,223.305 207.677,225.878 	"/>
	<g id="XMLID_121_">
		<path id="XMLID_122_" class="st19" d="M255.255,159.421h22.001c4.028,0,7.33-3.302,7.33-7.33v-22.001
			c0-4.028-3.302-7.33-7.33-7.33h-22.001c-4.028,0-7.33,3.302-7.33,7.33v22.001C247.925,156.12,251.226,159.421,255.255,159.421
			L255.255,159.421z M273.298,129.456c0.351-0.385,0.816-0.573,1.361-0.573c0.527,0,0.994,0.188,1.361,0.573
			c0.376,0.376,0.564,0.823,0.564,1.352c0,0.554-0.188,1.01-0.564,1.377c-0.367,0.36-0.834,0.529-1.361,0.529
			c-0.545,0-1.01-0.17-1.361-0.529c-0.376-0.367-0.545-0.823-0.545-1.377C272.753,130.278,272.923,129.832,273.298,129.456
			L273.298,129.456z M270.04,135.686c0-0.655,0.252-1.235,0.736-1.737c0.493-0.483,1.065-0.736,1.735-0.736h4.28
			c0.697,0,1.269,0.252,1.744,0.736c0.483,0.502,0.726,1.081,0.726,1.737v6.015c0,0.222-0.089,0.428-0.225,0.589
			c-0.151,0.163-0.348,0.234-0.616,0.234c-0.225,0-0.431-0.071-0.609-0.234c-0.151-0.16-0.225-0.367-0.225-0.589v-5.38h-0.456
			v14.884c0,0.286-0.098,0.554-0.305,0.761c-0.231,0.225-0.474,0.323-0.761,0.323c-0.339,0-0.616-0.099-0.832-0.323
			c-0.206-0.206-0.323-0.474-0.323-0.761v-8.629h-0.483v8.629c0,0.286-0.105,0.554-0.33,0.761c-0.206,0.225-0.474,0.323-0.797,0.323
			c-0.305,0-0.564-0.099-0.788-0.323c-0.241-0.206-0.367-0.474-0.367-0.761v-14.884h-0.428v5.38c0,0.222-0.08,0.428-0.215,0.589
			c-0.16,0.163-0.357,0.234-0.626,0.234c-0.225,0-0.422-0.071-0.582-0.234c-0.179-0.16-0.252-0.367-0.252-0.589V135.686z
			 M266.104,127.343h1.897v27.495h-1.897V127.343z M257.314,129.456c0.385-0.385,0.85-0.573,1.405-0.573
			c0.527,0,0.976,0.188,1.334,0.573c0.357,0.376,0.545,0.823,0.545,1.352c0,0.554-0.188,1.01-0.545,1.377
			c-0.357,0.36-0.807,0.538-1.334,0.538c-0.554,0-1.02-0.179-1.405-0.538c-0.376-0.367-0.564-0.823-0.564-1.377
			C256.751,130.278,256.939,129.832,257.314,129.456L257.314,129.456z M253.305,140.706c0.025-0.062,0.099-0.286,0.188-0.662
			c0.099-0.376,0.231-0.841,0.394-1.379c0.16-0.545,0.339-1.146,0.527-1.78c0.188-0.635,0.357-1.253,0.573-1.845
			c0.126-0.456,0.403-0.868,0.823-1.226c0.431-0.376,0.868-0.545,1.327-0.545h3.077c0.474,0,0.933,0.17,1.343,0.545
			c0.403,0.357,0.69,0.77,0.85,1.226c0.172,0.591,0.351,1.21,0.52,1.845c0.179,0.635,0.367,1.235,0.518,1.78
			c0.163,0.538,0.296,1.004,0.394,1.379c0.108,0.376,0.172,0.6,0.206,0.662l0.046,0.197c0,0.403-0.188,0.635-0.548,0.742
			l-0.188,0.055c-0.394,0-0.644-0.188-0.752-0.557c-0.025-0.124-0.133-0.483-0.286-1.056c-0.169-0.573-0.348-1.162-0.545-1.799
			c-0.197-0.625-0.438-1.423-0.724-2.415h-0.449l2.605,8.824h-2.47v6.704c0,0.259-0.071,0.483-0.277,0.635
			c-0.17,0.172-0.385,0.252-0.644,0.252c-0.28,0-0.477-0.08-0.655-0.252c-0.16-0.151-0.231-0.376-0.231-0.635v-6.704h-0.456v6.704
			c0,0.259-0.083,0.483-0.243,0.635c-0.169,0.172-0.376,0.252-0.644,0.252c-0.259,0-0.483-0.08-0.662-0.252
			c-0.188-0.151-0.268-0.376-0.268-0.635v-6.704h-2.516l2.614-8.815h-0.449c-0.286,0.983-0.527,1.78-0.715,2.406
			c-0.17,0.637-0.357,1.226-0.529,1.799c-0.188,0.573-0.305,0.933-0.321,1.056c-0.117,0.369-0.36,0.557-0.751,0.557l-0.197-0.055
			c-0.36-0.124-0.538-0.367-0.538-0.697C253.25,140.857,253.259,140.777,253.305,140.706L253.305,140.706z M253.305,140.706"/>
	</g>
	<path id="XMLID_120_" class="st19" d="M572.514,424.59"/>
	<g id="XMLID_113_">
		<path id="XMLID_119_" class="st22" d="M490.874,295.391c-1.425,0.025-37.441-6.589-39.216-43.717
			c-1.775-37.128,21.132-45.136,14.939-86.684c-6.193-41.548-22.075-54.202,13.308-82.499c0,0,15.782-11.316,16.456-28.28
			c0.806-20.305,32.463-42.311,53.807-27.654c21.344,14.657,16.419,35.379-1.686,68.392c-18.106,33.013-0.513,39.832,3.032,50.982
			c3.545,11.15,11.714,23.076-6.797,48.355c-18.511,25.279,3.779,58.426-11.967,82.734
			C532.747,277.021,518.914,294.902,490.874,295.391z"/>
		<g id="XMLID_114_">
			<path id="XMLID_118_" class="st23" d="M496.709,352.458c0.771-0.178,1.265-1.001,1.111-1.886
				c-19.761-114.055,19.079-266.253,19.473-267.777c0.229-0.881-0.241-1.837-1.05-2.133c-0.807-0.3-1.648,0.174-1.875,1.057
				c-0.397,1.532-39.429,154.489-19.533,269.327c0.159,0.922,0.957,1.561,1.782,1.43
				C496.648,352.471,496.679,352.465,496.709,352.458z"/>
			<path id="XMLID_117_" class="st23" d="M503.993,142.634c0.083-0.019,0.167-0.046,0.247-0.083
				c0.765-0.341,1.104-1.318,0.759-2.183c-0.081-0.204-8.192-20.595-11.551-37.825c-0.18-0.918-0.989-1.537-1.809-1.385
				c-0.827,0.148-1.34,1.02-1.161,1.937c3.429,17.586,11.67,38.298,11.753,38.505C502.539,142.374,503.291,142.796,503.993,142.634z
				"/>
			<path id="XMLID_116_" class="st23" d="M498.923,176.578c0.211-0.049,0.414-0.149,0.592-0.304
				c7.615-6.604,26.787-18.795,26.98-18.917c0.712-0.452,0.93-1.477,0.485-2.29c-0.443-0.813-1.376-1.114-2.094-0.652
				c-0.794,0.503-19.541,12.425-27.317,19.169c-0.645,0.558-0.731,1.614-0.193,2.358
				C497.763,176.479,498.372,176.705,498.923,176.578z"/>
			<path id="XMLID_115_" class="st23" d="M494.732,209.665c0.105-0.025,0.211-0.062,0.313-0.114
				c0.747-0.382,1.043-1.379,0.661-2.227l-10.801-23.962c-0.382-0.847-1.294-1.23-2.046-0.844c-0.747,0.382-1.043,1.379-0.661,2.227
				L493,208.707C493.33,209.439,494.058,209.821,494.732,209.665z"/>
		</g>
	</g>
	<path id="XMLID_112_" class="st24" d="M128.825,61.969c0,0-4.601-6.045-7.421-8.815c-5.078-4.989-10.903-13.807-29.529-7.308
		c-1.448,0.505-2.85,1.175-4.244,1.85c-1.642,0.795-6.729,0.815-11.938-3.91c-8.278-7.507-11.515-13.172-22.856-13.348
		C39.64,30.234,37.564,49.023,27.309,53.832C20.782,56.893,3.562,59.935,0,61.291L128.825,61.969z"/>
	<path id="XMLID_93_" class="st24" d="M371.169,83.469c0,0,2.618-3.011,4.222-4.391c2.89-2.485,6.204-6.878,16.802-3.64
		c0.824,0.252,1.622,0.585,2.415,0.921c0.934,0.396,3.829,0.406,6.793-1.948c4.71-3.74,6.552-6.562,13.005-6.649
		c7.509-0.102,8.689,9.258,14.525,11.654c3.714,1.525,13.511,3.04,15.538,3.716L371.169,83.469z"/>
</g>
</svg>
