<?xml version="1.0" encoding="utf-8"?>
<!-- Generator: Adobe Illustrator 23.0.3, SVG Export Plug-In . SVG Version: 6.00 Build 0)  -->
<svg version="1.1" id="Layer_1" xmlns="http://www.w3.org/2000/svg" xmlns:xlink="http://www.w3.org/1999/xlink" x="0px" y="0px"
	 viewBox="0 0 175 175" style="enable-background:new 0 0 175 175;" xml:space="preserve">
<style type="text/css">
	.st0{fill:#F3F8FE;}
	.st1{clip-path:url(#SVGID_2_);fill:#D2F0FF;}
	.st2{fill:#AF835B;}
	.st3{fill:#D38C4C;}
	.st4{fill:#EA8237;}
	.st5{fill:#827CDC;}
	.st6{fill:#3D38A0;}
	.st7{fill:#4444AD;}
	.st8{fill:#B9C9EF;}
	.st9{fill:#262691;}
	.st10{opacity:0.5;fill:#8EB9BF;}
	.st11{fill:#A4A4F7;}
	.st12{fill:#FEFEFE;}
	.st13{fill:none;stroke:#FEFEFE;stroke-width:0.2537;stroke-miterlimit:10;}
	.st14{fill:none;stroke:#FEFEFE;stroke-width:0.1268;stroke-miterlimit:10;}
	.st15{opacity:0.2;}
	.st16{fill:#989898;}
	.st17{opacity:0.5;}
	.st18{opacity:0.3;fill:#020202;}
	.st19{opacity:0.3;}
	.st20{fill:#020202;}
	.st21{opacity:0.5;fill:#020202;}
	.st22{fill:#5858C4;}
	.st23{fill:#DCE0F4;}
	.st24{fill:none;stroke:#3D38A0;stroke-width:3;stroke-linecap:round;stroke-miterlimit:10;}
</style>
<g>
	<circle class="st0" cx="87.5" cy="87.5" r="87.5"/>
	<g>
		<defs>
			<circle id="SVGID_1_" cx="87.5" cy="87.5" r="87.5"/>
		</defs>
		<clipPath id="SVGID_2_">
			<use xlink:href="#SVGID_1_"  style="overflow:visible;"/>
		</clipPath>
		<rect x="29.1" y="154" class="st1" width="116.8" height="21.8"/>
	</g>
	<g>
		<g>
			<g>
				
					<rect x="128" y="113.2" transform="matrix(1 -1.134737e-03 1.134737e-03 1 -0.1357 0.1529)" class="st2" width="13.3" height="13"/>
				
					<rect x="128" y="113.2" transform="matrix(1 -1.143527e-03 1.143527e-03 1 -0.1307 0.154)" class="st2" width="13.3" height="2.4"/>
				
					<rect x="127.7" y="112.9" transform="matrix(1 -1.134688e-03 1.134688e-03 1 -0.1294 0.1527)" class="st2" width="13.8" height="2.4"/>
				<polygon class="st2" points="135.7,112.9 135.7,116.8 135.5,116.5 135.2,116.8 135,116.5 134.7,116.8 134.5,116.5 134.2,116.8 
					134,116.5 133.7,116.8 133.7,112.9 				"/>
			</g>
			<g>
				
					<rect x="128.8" y="113.2" transform="matrix(1 -1.135240e-03 1.135240e-03 1 -0.1358 0.1539)" class="st3" width="13.3" height="13"/>
				
					<rect x="128.8" y="113.2" transform="matrix(1 -1.143527e-03 1.143527e-03 1 -0.1307 0.155)" class="st2" width="13.3" height="2.4"/>
				
					<rect x="128.5" y="112.9" transform="matrix(1 -1.139984e-03 1.139984e-03 1 -0.13 0.1544)" class="st3" width="13.8" height="2.4"/>
				<polygon class="st4" points="136.5,112.9 136.5,116.8 136.3,116.5 136,116.8 135.8,116.5 135.5,116.8 135.3,116.5 135,116.8 
					134.8,116.5 134.5,116.8 134.5,112.9 				"/>
			</g>
		</g>
		<rect x="82.7" y="87.7" class="st5" width="60.4" height="52.3"/>
		<g>
			<path class="st6" d="M35.7,127.7c1,2,0.2,4.5-1.8,5.5c-2,1-4.5,0.2-5.5-1.8c-1-2-0.2-4.5,1.8-5.5
				C32.2,124.8,34.7,125.6,35.7,127.7z"/>
		</g>
		<path class="st5" d="M79.2,95.1l0,0.6l0,0.8L79,115.6v0.1l-22.6,0.1l-13.9,0.1l0-0.1l0.1-0.1l0.1-0.1l13.7-19.2
			c0.3-0.5,0.9-0.8,1.5-0.9l19-2.2C78,93.2,79.1,94,79.2,95.1z"/>
		<g>
			<path class="st7" d="M79.2,95.7l0,0.8c0-0.5-0.3-1.1-0.7-1.4c-0.4-0.3-0.8-0.5-1.3-0.4L58.7,97c-0.7,0.1-1.2,0.4-1.6,1
				l-12.6,17.7l-0.3,0l12.7-17.8c0.4-0.6,1.1-1,1.8-1.1l18.5-2.2c0.6-0.1,1.1,0.1,1.5,0.5C78.9,95.2,79.1,95.5,79.2,95.7z"/>
		</g>
		<path class="st8" d="M76.5,98.1v17.5l-7.2,0l-2.7,0l-3.9,0l-4.3,0l-7.8,0l-1.3,0v-2.1c0-0.6,0.2-1.2,0.5-1.7l8.3-12.3
			c0.5-0.7,1.2-1.2,2.1-1.3l2.8-0.3l8.5-1l3.2-0.4c0.4-0.1,0.9,0.1,1.2,0.3C76.2,97,76.5,97.5,76.5,98.1z"/>
		<path class="st5" d="M79.2,115.6v28.2H44.7c-3.4,0-13.2-0.2-13.2-0.2v-14.3c0-6.7,4.5-12.3,10.4-13.5h0c0.2,0,0.4-0.1,0.6-0.1
			c0,0,0,0,0,0c0.6-0.1,1.2-0.1,1.8-0.1H79.2z"/>
		<path class="st6" d="M74.5,119.5h-4.2c-0.6,0-1.1-0.5-1.1-1.1l0,0c0-0.6,0.5-1.1,1.1-1.1h4.2c0.6,0,1.1,0.5,1.1,1.1l0,0
			C75.6,119,75.1,119.5,74.5,119.5z"/>
		<path class="st9" d="M75.6,118.4c0,0.3-0.1,0.6-0.3,0.8c-0.2,0.2-0.5,0.3-0.8,0.3h-4.2c-0.6,0-1.1-0.5-1.1-1.1
			c0-0.1,0-0.3,0.1-0.4c0.1,0.4,0.5,0.7,1,0.7h4.2c0.3,0,0.6-0.1,0.8-0.3c0.1-0.1,0.2-0.2,0.2-0.4C75.5,118.1,75.6,118.3,75.6,118.4
			z"/>
		<polygon class="st10" points="71.4,96.8 58.3,115.6 50.6,115.5 62.9,97.8 		"/>
		<path class="st10" d="M76.5,98.1v3.2l-9.9,14.2l-3.9,0l13.2-18.8C76.2,97,76.5,97.5,76.5,98.1z"/>
		<polygon class="st10" points="76.5,105.2 76.5,115.6 69.3,115.6 		"/>
		<path class="st11" d="M32.6,142.7h-2.1c-1.8,0-3.2-1.4-3.2-3.2l0,0c0-1.8,1.4-3.2,3.2-3.2h2.1c1.8,0,3.2,1.4,3.2,3.2l0,0
			C35.8,141.3,34.3,142.7,32.6,142.7z"/>
		<path class="st6" d="M113.7,139.5l1.8-2.5c1.9-2.6,5-4.2,8.2-4.2l0,0c3.2,0,6.2,1.5,8.1,4.1l1.9,2.6"/>
		<path class="st6" d="M143.4,143.9h-111c-1.2,0-2.2-1-2.2-2.2l0,0c0-1.2,1-2.2,2.2-2.2h111c1.2,0,2.2,1,2.2,2.2l0,0
			C145.6,142.9,144.6,143.9,143.4,143.9z"/>
		<path class="st6" d="M49,139.5l1.8-2.5c1.9-2.6,5-4.2,8.2-4.2l0,0c3.2,0,6.2,1.5,8.1,4.1l1.9,2.6"/>
		<circle class="st5" cx="59" cy="144.4" r="9.3"/>
		<ellipse transform="matrix(0.7071 -0.7071 0.7071 0.7071 -84.7789 84.0327)" class="st12" cx="59" cy="144.4" rx="7.1" ry="7.1"/>
		<circle class="st5" cx="59" cy="144.4" r="5.1"/>
		<circle class="st13" cx="59" cy="144.4" r="4.7"/>
		<path class="st11" d="M62,144.4c0,1.6-1.3,2.9-2.9,2.9c-1.6,0-2.9-1.3-2.9-2.9c0-1.6,1.3-2.9,2.9-2.9
			C60.7,141.4,62,142.7,62,144.4z"/>
		<circle class="st5" cx="59" cy="144.4" r="1"/>
		<circle class="st14" cx="59" cy="144.4" r="1.2"/>
		<circle class="st13" cx="123.7" cy="144.4" r="4.7"/>
		<circle class="st14" cx="123.7" cy="144.4" r="1.2"/>
		<g class="st15">
			<path class="st16" d="M94.4,133H93c-1,0-1.8-0.8-1.8-1.8V96.5c0-1,0.8-1.8,1.8-1.8h1.4c1,0,1.8,0.8,1.8,1.8v34.6
				C96.2,132.2,95.4,133,94.4,133z"/>
			<path class="st16" d="M104,133h-1.4c-1,0-1.8-0.8-1.8-1.8V96.5c0-1,0.8-1.8,1.8-1.8h1.4c1,0,1.8,0.8,1.8,1.8v34.6
				C105.8,132.2,105,133,104,133z"/>
			<path class="st16" d="M113.6,133h-1.4c-1,0-1.8-0.8-1.8-1.8V96.5c0-1,0.8-1.8,1.8-1.8h1.4c1,0,1.8,0.8,1.8,1.8v34.6
				C115.4,132.2,114.6,133,113.6,133z"/>
			<path class="st16" d="M123.2,133h-1.4c-1,0-1.8-0.8-1.8-1.8V96.5c0-1,0.8-1.8,1.8-1.8h1.4c1,0,1.8,0.8,1.8,1.8v34.6
				C125,132.2,124.2,133,123.2,133z"/>
			<path class="st16" d="M132.8,133h-1.4c-1,0-1.8-0.8-1.8-1.8V96.5c0-1,0.8-1.8,1.8-1.8h1.4c1,0,1.8,0.8,1.8,1.8v34.6
				C134.6,132.2,133.8,133,132.8,133z"/>
		</g>
		<g>
			<path class="st7" d="M79.2,115.6v0.2H42c0.2,0,0.4-0.1,0.6-0.1c0,0,0,0,0,0l0.1-0.1H79.2z"/>
		</g>
		<g class="st17">
			<path class="st18" d="M52.5,112.3v4.4c0,0.5-0.7,0.8-1,0.3l-0.8-1.2c-0.6-0.9-0.6-2.2,0.1-3.1l0.6-0.8
				C51.8,111.5,52.5,111.7,52.5,112.3z"/>
			<g class="st19">
				<path class="st20" d="M48.6,117.8h-1.8c-0.6,0-1.1-0.5-1.1-1.1l0,0c0-0.6,0.5-1.1,1.1-1.1h1.8c0.6,0,1.1,0.5,1.1,1.1l0,0
					C49.8,117.3,49.3,117.8,48.6,117.8z"/>
				<g>
					<g>
						
							<rect x="48.5" y="114.5" transform="matrix(0.8388 -0.5444 0.5444 0.8388 -54.5203 45.9575)" class="st20" width="3.8" height="1.1"/>
					</g>
					<path class="st21" d="M49.7,117.1c-0.1,0.2-0.1,0.3-0.3,0.5c-0.2,0.2-0.5,0.3-0.8,0.3h-1.8c-0.6,0-1.1-0.5-1.1-1.1
						c0-0.3,0.1-0.6,0.3-0.8c0.1-0.1,0.1-0.1,0.2-0.2c0,0.1-0.1,0.2-0.1,0.3c0,0.6,0.5,1.1,1.1,1.1h1.8
						C49.3,117.2,49.5,117.2,49.7,117.1z"/>
				</g>
			</g>
		</g>
		<g>
			<g>
				
					<rect x="48.8" y="114.5" transform="matrix(0.8388 -0.5444 0.5444 0.8388 -54.4655 46.1423)" class="st22" width="3.8" height="1.1"/>
			</g>
			<path class="st22" d="M52.8,112.3v4.4c0,0.5-0.7,0.8-1,0.3l-0.8-1.2c-0.6-0.9-0.6-2.2,0.1-3.1l0.6-0.8
				C52.1,111.5,52.8,111.7,52.8,112.3z"/>
			<path class="st7" d="M52.8,116.8c-0.1,0.5-0.7,0.6-1,0.2l-0.8-1.2c-0.6-0.9-0.6-2.2,0.1-3.1l0.6-0.8c0.1-0.1,0.2-0.2,0.4-0.2
				l-0.5,0.6c-0.7,0.9-0.7,2.1-0.1,3.1l0.8,1.2C52.5,116.8,52.6,116.8,52.8,116.8z"/>
			<path class="st22" d="M49,117.8h-1.8c-0.6,0-1.1-0.5-1.1-1.1l0,0c0-0.6,0.5-1.1,1.1-1.1H49c0.6,0,1.1,0.5,1.1,1.1l0,0
				C50.1,117.3,49.6,117.8,49,117.8z"/>
			<path class="st7" d="M50,117.1c-0.1,0.2-0.1,0.3-0.3,0.5c-0.2,0.2-0.5,0.3-0.8,0.3h-1.8c-0.6,0-1.1-0.5-1.1-1.1
				c0-0.3,0.1-0.6,0.3-0.8c0.1-0.1,0.1-0.1,0.2-0.2c0,0.1-0.1,0.2-0.1,0.3c0,0.6,0.5,1.1,1.1,1.1h1.8
				C49.7,117.2,49.9,117.2,50,117.1z"/>
		</g>
		<g>
			<circle class="st5" cx="124" cy="144.4" r="9.3"/>
			
				<ellipse transform="matrix(0.7071 -0.7071 0.7071 0.7071 -65.7684 129.9282)" class="st12" cx="124" cy="144.4" rx="7.1" ry="7.1"/>
			<circle class="st5" cx="124" cy="144.4" r="5.1"/>
			<circle class="st13" cx="124" cy="144.4" r="4.7"/>
			<path class="st11" d="M126.9,144.4c0,1.6-1.3,2.9-2.9,2.9c-1.6,0-2.9-1.3-2.9-2.9c0-1.6,1.3-2.9,2.9-2.9
				C125.6,141.4,126.9,142.7,126.9,144.4z"/>
			<circle class="st5" cx="124" cy="144.4" r="1"/>
			<circle class="st14" cx="124" cy="144.4" r="1.2"/>
		</g>
	</g>
	<path class="st23" d="M76.6,70.1c0,0-1.8-2.4-2.9-3.4c-2-2-4.3-5.4-11.5-2.9c-0.6,0.2-1.1,0.5-1.7,0.7c-0.6,0.3-2.6,0.3-4.7-1.5
		c-3.2-2.9-4.5-5.2-8.9-5.2c-5.2-0.1-6,7.3-10,9.1c-2.6,1.2-9.3,2.4-10.7,2.9L76.6,70.1z"/>
	<path class="st23" d="M91.4,46.1c0,0,1.7-1.9,2.7-2.8c1.9-1.6,4-4.4,10.8-2.3c0.5,0.2,1,0.4,1.6,0.6c0.6,0.3,2.5,0.3,4.4-1.3
		c3-2.4,4.2-4.2,8.4-4.3c4.8-0.1,5.6,6,9.4,7.5c2.4,1,8.7,2,10,2.4L91.4,46.1z"/>
</g>
<line class="st24" x1="148.6" y1="104.8" x2="161.6" y2="104.8"/>
<line class="st24" x1="148.6" y1="111.8" x2="157.6" y2="111.8"/>
</svg>
