<?xml version="1.0" encoding="utf-8"?>
<!-- Generator: Adobe Illustrator 23.0.3, SVG Export Plug-In . SVG Version: 6.00 Build 0)  -->
<svg version="1.1" id="Layer_1" xmlns="http://www.w3.org/2000/svg" xmlns:xlink="http://www.w3.org/1999/xlink" x="0px" y="0px"
	 viewBox="0 0 175 175" style="enable-background:new 0 0 175 175;" xml:space="preserve">
<style type="text/css">
	.st0{fill:#F3F8FE;}
	.st1{clip-path:url(#SVGID_2_);fill:#D2F0FF;}
	.st2{fill:#6E64C3;}
	.st3{fill:#FFFFFF;}
	.st4{fill:#41378C;}
	.st5{fill:#5955A3;}
	.st6{fill:#B8D0D7;}
	.st7{fill:#F17187;}
	.st8{fill:#291A6D;}
	.st9{fill:#383838;}
	.st10{fill:#F7D3C8;}
	.st11{fill:#003591;}
	.st12{fill:#B0B0FF;}
</style>
<g>
	<g>
		<circle class="st0" cx="87.5" cy="87.5" r="87.5"/>
		<g>
			<defs>
				<circle id="SVGID_1_" cx="87.5" cy="87.5" r="87.5"/>
			</defs>
			<clipPath id="SVGID_2_">
				<use xlink:href="#SVGID_1_"  style="overflow:visible;"/>
			</clipPath>
			<rect x="29.1" y="154" class="st1" width="116.8" height="21.8"/>
		</g>
	</g>
	<path class="st2" d="M137.1,108.4H39c-3.2,0-5.9-2.6-5.9-5.9V37.7c0-3.2,2.6-5.9,5.9-5.9h98c3.2,0,5.9,2.6,5.9,5.9v64.8
		C143,105.7,140.3,108.4,137.1,108.4z"/>
	<path class="st3" d="M138.9,37.7v64.8c0,1-0.8,1.8-1.8,1.8H39c-1,0-1.8-0.8-1.8-1.8V37.7c0-1,0.8-1.8,1.8-1.8h98
		C138.1,35.9,138.9,36.7,138.9,37.7z"/>
	<path class="st4" d="M55.9,40.2L55.9,40.2c-2.4,0-4.4-2-4.4-4.4v-7.9c0-2.4,2-4.4,4.4-4.4l0,0c2.4,0,4.4,2,4.4,4.4v7.9
		C60.3,38.3,58.4,40.2,55.9,40.2z"/>
	<path class="st5" d="M60.3,27.9v7.9c0,2.4-1.9,4.4-4.4,4.4V23.6c1.2,0,2.3,0.5,3.1,1.3C59.8,25.6,60.3,26.7,60.3,27.9z"/>
	<path class="st4" d="M122.4,40.2L122.4,40.2c-2.4,0-4.4-2-4.4-4.4v-7.9c0-2.4,2-4.4,4.4-4.4l0,0c2.4,0,4.4,2,4.4,4.4v7.9
		C126.8,38.3,124.8,40.2,122.4,40.2z"/>
	<path class="st6" d="M55.3,58.9h-8.6c-2,0-3.5-1.6-3.5-3.5v-8.6c0-2,1.6-3.5,3.5-3.5h8.6c2,0,3.5,1.6,3.5,3.5v8.6
		C58.8,57.3,57.3,58.9,55.3,58.9z M46.7,44.3c-1.4,0-2.5,1.1-2.5,2.5v8.6c0,1.4,1.1,2.5,2.5,2.5h8.6c1.4,0,2.5-1.1,2.5-2.5v-8.6
		c0-1.4-1.1-2.5-2.5-2.5H46.7z"/>
	<path class="st6" d="M73.8,58.9h-8.6c-2,0-3.5-1.6-3.5-3.5v-8.6c0-2,1.6-3.5,3.5-3.5h8.6c2,0,3.5,1.6,3.5,3.5v8.6
		C77.4,57.3,75.8,58.9,73.8,58.9z M65.3,44.3c-1.4,0-2.5,1.1-2.5,2.5v8.6c0,1.4,1.1,2.5,2.5,2.5h8.6c1.4,0,2.5-1.1,2.5-2.5v-8.6
		c0-1.4-1.1-2.5-2.5-2.5H65.3z"/>
	<path class="st6" d="M92.3,58.9h-8.6c-2,0-3.5-1.6-3.5-3.5v-8.6c0-2,1.6-3.5,3.5-3.5h8.6c2,0,3.5,1.6,3.5,3.5v8.6
		C95.9,57.3,94.3,58.9,92.3,58.9z M83.8,44.3c-1.4,0-2.5,1.1-2.5,2.5v8.6c0,1.4,1.1,2.5,2.5,2.5h8.6c1.4,0,2.5-1.1,2.5-2.5v-8.6
		c0-1.4-1.1-2.5-2.5-2.5H83.8z"/>
	<path class="st6" d="M110.8,58.9h-8.6c-2,0-3.5-1.6-3.5-3.5v-8.6c0-2,1.6-3.5,3.5-3.5h8.6c2,0,3.5,1.6,3.5,3.5v8.6
		C114.4,57.3,112.8,58.9,110.8,58.9z M102.3,44.3c-1.4,0-2.5,1.1-2.5,2.5v8.6c0,1.4,1.1,2.5,2.5,2.5h8.6c1.4,0,2.5-1.1,2.5-2.5v-8.6
		c0-1.4-1.1-2.5-2.5-2.5H102.3z"/>
	<path class="st6" d="M129.4,58.9h-8.6c-2,0-3.5-1.6-3.5-3.5v-8.6c0-2,1.6-3.5,3.5-3.5h8.6c2,0,3.5,1.6,3.5,3.5v8.6
		C132.9,57.3,131.3,58.9,129.4,58.9z M120.8,44.3c-1.4,0-2.5,1.1-2.5,2.5v8.6c0,1.4,1.1,2.5,2.5,2.5h8.6c1.4,0,2.5-1.1,2.5-2.5v-8.6
		c0-1.4-1.1-2.5-2.5-2.5H120.8z"/>
	<path class="st6" d="M55.3,79h-8.6c-2,0-3.5-1.6-3.5-3.5v-8.6c0-2,1.6-3.5,3.5-3.5h8.6c2,0,3.5,1.6,3.5,3.5v8.6
		C58.8,77.4,57.3,79,55.3,79z M46.7,64.4c-1.4,0-2.5,1.1-2.5,2.5v8.6c0,1.4,1.1,2.5,2.5,2.5h8.6c1.4,0,2.5-1.1,2.5-2.5v-8.6
		c0-1.4-1.1-2.5-2.5-2.5H46.7z"/>
	<path class="st6" d="M73.8,79h-8.6c-2,0-3.5-1.6-3.5-3.5v-8.6c0-2,1.6-3.5,3.5-3.5h8.6c2,0,3.5,1.6,3.5,3.5v8.6
		C77.4,77.4,75.8,79,73.8,79z M65.3,64.4c-1.4,0-2.5,1.1-2.5,2.5v8.6c0,1.4,1.1,2.5,2.5,2.5h8.6c1.4,0,2.5-1.1,2.5-2.5v-8.6
		c0-1.4-1.1-2.5-2.5-2.5H65.3z"/>
	<path class="st6" d="M92.3,79h-8.6c-2,0-3.5-1.6-3.5-3.5v-8.6c0-2,1.6-3.5,3.5-3.5h8.6c2,0,3.5,1.6,3.5,3.5v8.6
		C95.9,77.4,94.3,79,92.3,79z M83.8,64.4c-1.4,0-2.5,1.1-2.5,2.5v8.6c0,1.4,1.1,2.5,2.5,2.5h8.6c1.4,0,2.5-1.1,2.5-2.5v-8.6
		c0-1.4-1.1-2.5-2.5-2.5H83.8z"/>
	<path class="st6" d="M110.8,79h-8.6c-2,0-3.5-1.6-3.5-3.5v-8.6c0-2,1.6-3.5,3.5-3.5h8.6c2,0,3.5,1.6,3.5,3.5v8.6
		C114.4,77.4,112.8,79,110.8,79z M102.3,64.4c-1.4,0-2.5,1.1-2.5,2.5v8.6c0,1.4,1.1,2.5,2.5,2.5h8.6c1.4,0,2.5-1.1,2.5-2.5v-8.6
		c0-1.4-1.1-2.5-2.5-2.5H102.3z"/>
	<path class="st6" d="M129.4,79h-8.6c-2,0-3.5-1.6-3.5-3.5v-8.6c0-2,1.6-3.5,3.5-3.5h8.6c2,0,3.5,1.6,3.5,3.5v8.6
		C132.9,77.4,131.3,79,129.4,79z M120.8,64.4c-1.4,0-2.5,1.1-2.5,2.5v8.6c0,1.4,1.1,2.5,2.5,2.5h8.6c1.4,0,2.5-1.1,2.5-2.5v-8.6
		c0-1.4-1.1-2.5-2.5-2.5H120.8z"/>
	<path class="st6" d="M55.3,99.1h-8.6c-2,0-3.5-1.6-3.5-3.5V87c0-2,1.6-3.5,3.5-3.5h8.6c2,0,3.5,1.6,3.5,3.5v8.6
		C58.8,97.5,57.3,99.1,55.3,99.1z M46.7,84.6c-1.4,0-2.5,1.1-2.5,2.5v8.6c0,1.4,1.1,2.5,2.5,2.5h8.6c1.4,0,2.5-1.1,2.5-2.5V87
		c0-1.4-1.1-2.5-2.5-2.5H46.7z"/>
	<path class="st6" d="M73.8,99.1h-8.6c-2,0-3.5-1.6-3.5-3.5V87c0-2,1.6-3.5,3.5-3.5h8.6c2,0,3.5,1.6,3.5,3.5v8.6
		C77.4,97.5,75.8,99.1,73.8,99.1z M65.3,84.6c-1.4,0-2.5,1.1-2.5,2.5v8.6c0,1.4,1.1,2.5,2.5,2.5h8.6c1.4,0,2.5-1.1,2.5-2.5V87
		c0-1.4-1.1-2.5-2.5-2.5H65.3z"/>
	<path class="st6" d="M92.3,99.1h-8.6c-2,0-3.5-1.6-3.5-3.5V87c0-2,1.6-3.5,3.5-3.5h8.6c2,0,3.5,1.6,3.5,3.5v8.6
		C95.9,97.5,94.3,99.1,92.3,99.1z M83.8,84.6c-1.4,0-2.5,1.1-2.5,2.5v8.6c0,1.4,1.1,2.5,2.5,2.5h8.6c1.4,0,2.5-1.1,2.5-2.5V87
		c0-1.4-1.1-2.5-2.5-2.5H83.8z"/>
	<path class="st7" d="M110.8,99.1h-8.6c-2,0-3.5-1.6-3.5-3.5V87c0-2,1.6-3.5,3.5-3.5h8.6c2,0,3.5,1.6,3.5,3.5v8.6
		C114.4,97.5,112.8,99.1,110.8,99.1z M102.3,84.6c-1.4,0-2.5,1.1-2.5,2.5v8.6c0,1.4,1.1,2.5,2.5,2.5h8.6c1.4,0,2.5-1.1,2.5-2.5V87
		c0-1.4-1.1-2.5-2.5-2.5H102.3z"/>
	<path class="st6" d="M129.4,99.1h-8.6c-2,0-3.5-1.6-3.5-3.5V87c0-2,1.6-3.5,3.5-3.5h8.6c2,0,3.5,1.6,3.5,3.5v8.6
		C132.9,97.5,131.3,99.1,129.4,99.1z M120.8,84.6c-1.4,0-2.5,1.1-2.5,2.5v8.6c0,1.4,1.1,2.5,2.5,2.5h8.6c1.4,0,2.5-1.1,2.5-2.5V87
		c0-1.4-1.1-2.5-2.5-2.5H120.8z"/>
	<g>
		<path class="st8" d="M86.9,54.5h-1.4v-5.2c-0.5,0.5-1.1,0.8-1.8,1v-1.2c0.4-0.1,0.7-0.3,1.2-0.7c0.4-0.3,0.7-0.7,0.9-1.1h1.1V54.5
			z"/>
		<path class="st8" d="M91.8,54.5h-1.4v-5.2c-0.5,0.5-1.1,0.8-1.8,1v-1.2c0.4-0.1,0.7-0.3,1.2-0.7c0.4-0.3,0.7-0.7,0.9-1.1h1.1V54.5
			z"/>
	</g>
	<g>
		<path class="st8" d="M105.1,74.5h-1.4v-5.2c-0.5,0.5-1.1,0.8-1.8,1v-1.2c0.4-0.1,0.7-0.3,1.2-0.7c0.4-0.3,0.7-0.7,0.9-1.1h1.1
			V74.5z"/>
		<path class="st8" d="M107.1,68.7v-1.3h4.7v1c-0.4,0.4-0.8,0.9-1.2,1.6c-0.4,0.7-0.7,1.5-0.9,2.3c-0.2,0.8-0.3,1.5-0.3,2.1h-1.3
			c0-1,0.2-2,0.6-3c0.4-1,0.9-1.9,1.5-2.8H107.1z"/>
	</g>
	<path class="st5" d="M126.7,27.9v7.9c0,2.4-1.9,4.4-4.4,4.4V23.6c1.2,0,2.3,0.5,3.1,1.3C126.2,25.6,126.7,26.7,126.7,27.9z"/>
	<g>
		<path class="st8" d="M49.2,74.5h-1.4v-5.2c-0.5,0.5-1.1,0.8-1.8,1v-1.2c0.4-0.1,0.7-0.3,1.2-0.7c0.4-0.3,0.7-0.7,0.9-1.1h1.1V74.5
			z"/>
		<path class="st8" d="M53.9,74.5v-1.4H51v-1.2l3.1-4.5h1.1v4.5h0.9v1.2h-0.9v1.4H53.9z M53.9,71.9v-2.4l-1.6,2.4H53.9z"/>
	</g>
	<g>
		<path class="st8" d="M49,94.9h-1.4v-5.4c-0.5,0.5-1.1,0.9-1.9,1.1v-1.3c0.4-0.1,0.8-0.4,1.2-0.7c0.4-0.3,0.7-0.7,0.9-1.2H49V94.9z
			"/>
		<path class="st8" d="M51.2,93.2l1.4-0.2c0,0.3,0.1,0.5,0.3,0.6c0.1,0.1,0.3,0.2,0.6,0.2c0.3,0,0.6-0.1,0.8-0.4
			c0.2-0.3,0.3-0.8,0.4-1.7c-0.4,0.4-0.8,0.6-1.4,0.6c-0.6,0-1.1-0.2-1.5-0.7c-0.4-0.5-0.6-1.1-0.6-1.8c0-0.8,0.2-1.4,0.7-1.8
			c0.5-0.5,1-0.7,1.7-0.7c0.8,0,1.4,0.3,1.9,0.9c0.5,0.6,0.7,1.6,0.7,2.9c0,1.4-0.3,2.4-0.8,3c-0.5,0.6-1.2,0.9-2,0.9
			c-0.6,0-1.1-0.2-1.4-0.5C51.6,94.3,51.3,93.8,51.2,93.2z M54.5,90c0-0.5-0.1-0.8-0.3-1.1c-0.2-0.3-0.5-0.4-0.7-0.4
			c-0.3,0-0.5,0.1-0.7,0.3c-0.2,0.2-0.3,0.6-0.3,1c0,0.5,0.1,0.8,0.3,1.1c0.2,0.2,0.4,0.3,0.7,0.3c0.3,0,0.5-0.1,0.7-0.3
			C54.4,90.8,54.5,90.5,54.5,90z"/>
	</g>
	<g>
		<path class="st7" d="M106,93.8v1.3h-4.7c0.1-0.5,0.2-0.9,0.5-1.3c0.3-0.4,0.8-1,1.5-1.7c0.6-0.6,1-0.9,1.1-1.2
			c0.2-0.3,0.3-0.6,0.3-0.8c0-0.3-0.1-0.5-0.2-0.7c-0.2-0.2-0.4-0.2-0.7-0.2c-0.3,0-0.5,0.1-0.7,0.3c-0.2,0.2-0.3,0.5-0.3,0.8
			l-1.3-0.1c0.1-0.7,0.3-1.3,0.8-1.6c0.4-0.3,0.9-0.5,1.6-0.5c0.7,0,1.2,0.2,1.6,0.6c0.4,0.4,0.6,0.8,0.6,1.4c0,0.3-0.1,0.6-0.2,0.9
			c-0.1,0.3-0.3,0.6-0.5,0.9c-0.2,0.2-0.5,0.5-0.9,0.9c-0.4,0.4-0.7,0.6-0.8,0.8c-0.1,0.1-0.2,0.3-0.3,0.4H106z"/>
		<path class="st7" d="M111.4,93.8v1.3h-4.7c0.1-0.5,0.2-0.9,0.5-1.3c0.3-0.4,0.8-1,1.5-1.7c0.6-0.6,1-0.9,1.1-1.2
			c0.2-0.3,0.3-0.6,0.3-0.8c0-0.3-0.1-0.5-0.2-0.7c-0.2-0.2-0.4-0.2-0.7-0.2c-0.3,0-0.5,0.1-0.7,0.3c-0.2,0.2-0.3,0.5-0.3,0.8
			l-1.3-0.1c0.1-0.7,0.3-1.3,0.8-1.6c0.4-0.3,0.9-0.5,1.6-0.5c0.7,0,1.2,0.2,1.6,0.6c0.4,0.4,0.6,0.8,0.6,1.4c0,0.3-0.1,0.6-0.2,0.9
			c-0.1,0.3-0.3,0.6-0.5,0.9c-0.2,0.2-0.5,0.5-0.9,0.9c-0.4,0.4-0.7,0.6-0.8,0.8c-0.1,0.1-0.2,0.3-0.3,0.4H111.4z"/>
	</g>
	<g>
		<path class="st8" d="M123.8,74.5h-1.3v-5.1c-0.5,0.5-1.1,0.8-1.7,1v-1.2c0.4-0.1,0.7-0.3,1.1-0.7c0.4-0.3,0.7-0.7,0.8-1.1h1.1
			V74.5z"/>
		<path class="st8" d="M127,70.7c-0.3-0.1-0.6-0.3-0.8-0.6c-0.2-0.3-0.2-0.5-0.2-0.8c0-0.5,0.2-1,0.5-1.3c0.4-0.3,0.9-0.5,1.6-0.5
			c0.7,0,1.2,0.2,1.6,0.5c0.4,0.3,0.6,0.8,0.6,1.3c0,0.3-0.1,0.6-0.3,0.9c-0.2,0.3-0.4,0.4-0.7,0.6c0.4,0.2,0.7,0.4,0.9,0.7
			c0.2,0.3,0.3,0.6,0.3,1c0,0.6-0.2,1.2-0.6,1.6c-0.4,0.4-1,0.6-1.7,0.6c-0.6,0-1.2-0.2-1.6-0.5c-0.5-0.4-0.8-0.9-0.8-1.6
			c0-0.4,0.1-0.7,0.3-1C126.3,71.1,126.6,70.9,127,70.7z M127.1,72.4c0,0.4,0.1,0.7,0.3,0.9c0.2,0.2,0.4,0.3,0.7,0.3
			c0.3,0,0.5-0.1,0.7-0.3c0.2-0.2,0.3-0.5,0.3-0.9c0-0.3-0.1-0.6-0.3-0.8c-0.2-0.2-0.4-0.3-0.7-0.3c-0.3,0-0.6,0.1-0.7,0.3
			C127.2,71.9,127.1,72.1,127.1,72.4z M127.3,69.4c0,0.3,0.1,0.5,0.2,0.6c0.2,0.2,0.4,0.2,0.6,0.2c0.3,0,0.5-0.1,0.6-0.2
			c0.2-0.2,0.2-0.4,0.2-0.6c0-0.3-0.1-0.5-0.2-0.6c-0.2-0.2-0.4-0.2-0.6-0.2c-0.3,0-0.5,0.1-0.6,0.2
			C127.4,68.9,127.3,69.1,127.3,69.4z"/>
	</g>
	<path d="M75.6,163.4c0,0,0.1,0.6,0,1c-0.1,0.3-4.1,1.5-8.1,1.1c-0.3,0-0.6-0.3-0.6-0.7l0-0.4L75.6,163.4z"/>
	<path class="st9" d="M75.5,163.3c-0.3-0.7-4.3-0.9-5.7-0.9c-1.5,0.1-0.2-1-1.5-0.8c-1.2,0.3-1.2,0.3-1.2,0.3s-0.4,0.9-0.4,2.2
		c0,0.1,0,0.2,0,0.3c0.1,0.9,2.7,0.6,5.1,0.3c1.6-0.2,2.9-0.4,3.5-1.1C75.6,163.5,75.6,163.4,75.5,163.3z"/>
	<path d="M62.4,163.6c0,0,0.1,0.6,0,1c-0.1,0.3-4.1,1.5-8.1,1.1c-0.3,0-0.6-0.3-0.6-0.7l0-0.4L62.4,163.6z"/>
	<path class="st9" d="M62.4,163.5c-0.3-0.7-4.3-0.9-5.7-0.9c-1.5,0.1-0.2-1-1.5-0.8c-1.2,0.3-1.2,0.3-1.2,0.3s-0.4,0.9-0.4,2.2
		c0,0.1,0,0.2,0,0.3c0.1,0.9,2.7,0.6,5.1,0.3c1.6-0.2,2.9-0.4,3.5-1.1C62.4,163.7,62.5,163.6,62.4,163.5z"/>
	<g>
		<path class="st10" d="M66.8,158.5l0.2,4.3c0,0,1.6,0.7,3.1,0.2l0.3-4.2L66.8,158.5z"/>
	</g>
	<g>
		<path class="st10" d="M53.3,159.5l0.4,3.9c0,0,1.7,0.6,3.1,0l0-3.9L53.3,159.5z"/>
	</g>
	<path class="st11" d="M70.2,113.6c0,0-11.1,3.4-19.6,1.5c0,0-0.5,26.7,2.6,46.4l4.2,0.3c0,0,1.4-5.9,2.5-36.2l0.9-0.1
		c0,0,2.8,22.4,5,34.7l5.1-0.1C70.9,160.2,72,151.7,70.2,113.6z"/>
	<path class="st10" d="M55.4,92.9c0,0-5.9,6.5-7.1,8.5c-1.1,2,5.1,7.5,5.1,7.5l1.9-1.8l-2.8-4.6l6.9-6.6L55.4,92.9z"/>
	<path class="st12" d="M74.7,90c0,0-8.8-4.2-12.2-3.7c-3.4,0.4-7.9,5.3-8.9,6.7c0,0,2.6,1.7,4.6,2.4C60.2,96.2,74.7,90,74.7,90z"/>
	<path class="st10" d="M78.6,94.8c0,0,3.2,4.7,4.9,4.2c1.7-0.4,10-3.2,10-3.2s0.2-1.9,0.7-2.3c0.4-0.4,2.2-0.9,2.6-1
		c0.4-0.1,0,0.7-0.5,0.8C96,93.5,95,94,95,94.2c0,0.3,1.6-0.7,2.6-1.1c1-0.4,2.6-0.8,2.7-0.7c0.2,0.4-1.5,0.9-1.7,1
		c-0.3,0.1-1,0.6-1,0.6s0.8,0.3,0.6,0.7c0,0,0.5,0.6,0.2,0.9c0,0,0.2,0.6-0.3,1c-0.5,0.4-1.7,1.3-3.4,1c0,0-10.8,7.1-12.4,6.7
		c-2.9-0.6-6.2-5.2-6.2-5.2L78.6,94.8z"/>
	<path class="st12" d="M75.2,90.2c2.5,1.4,4.3,3.1,7.2,6.8c0,0-3.3,3.3-4.2,6.1c0,0-1-1.9-3-4c-1.7,0.3-4.8,18.9-4.6,21.7
		c0,0-12.1-0.9-20.5-4.9c0,0,7-22.6,9-25c2-2.4,1.7-5.5,6.9-4.2C69.2,87.6,73,89,75.2,90.2z"/>
	<path class="st10" d="M78.6,79.1c0,0-0.1,1.8-0.2,2.6c-0.1,0.8,0.6,1.2,0.6,1.5c0,0.2-0.6,0.6-0.6,0.6S78,86.5,77.2,87
		c-0.9,0.5-2.4-0.5-2.4-0.5l-1.3,3.6c0,0-3.2,0.5-5.2-2.3l1.3-3.5c0,0-0.4-5,2.3-6.9C74.4,75.6,78.6,79.1,78.6,79.1z"/>
	<path class="st4" d="M74.4,83.1c0,0-0.3-1.8,0.4-2.9c0,0,3.9,0.7,5.4-0.8c0,0-0.7,0.2-0.9,0.1c0,0,2.7-0.4,2.5-5.1
		c0,0-1.6,1.9-2.6,1.5c-1-0.4-2.2-2.6-6.2-2.2c-4,0.4-7.9,4.3-5.9,10.3c0.3,1,2.4,2.1,3.1,2.3c0,0-0.8-1.1-0.8-1.5
		c0,0,1.2,0.8,2.5,1.1c0,0-0.9-1.1-1.1-1.9c0,0,1.6,1.2,2.8,0.1c0,0-1.7-0.7-1.8-1.3c-0.1-0.6,0.7-1.9,1.3-1
		C73.8,82.7,74.1,83,74.4,83.1z"/>
</g>
</svg>
