<?xml version="1.0" encoding="utf-8"?>
<!-- Generator: Adobe Illustrator 23.0.3, SVG Export Plug-In . SVG Version: 6.00 Build 0)  -->
<svg version="1.1" id="Layer_1" xmlns="http://www.w3.org/2000/svg" xmlns:xlink="http://www.w3.org/1999/xlink" x="0px" y="0px"
	 viewBox="0 0 175 175" style="enable-background:new 0 0 175 175;" xml:space="preserve">
<style type="text/css">
	.st0{fill:#F3F8FE;}
	.st1{clip-path:url(#SVGID_2_);fill:#D2F0FF;}
	.st2{fill:#FFB59C;}
	.st3{fill:#FF9F7C;}
	.st4{fill:#FFB899;}
	.st5{fill:#FFCDA9;}
	.st6{fill:#FF907D;}
	.st7{fill:#41378C;}
	.st8{fill:#FFFFFF;}
	.st9{fill:url(#SVGID_3_);}
	.st10{fill:url(#SVGID_4_);}
	.st11{fill:#002A88;}
	.st12{fill:#001F5F;}
	.st13{fill:#003591;}
	.st14{fill:#000F1F;}
	.st15{fill:#F59D83;}
	.st16{fill:#B0B0FF;}
	.st17{fill:#E1E4E5;}
	.st18{fill:#CCCDCE;}
	.st19{fill:#6E64C3;}
	.st20{fill:#827DDC;}
	.st21{fill:none;stroke:#FFFFFF;stroke-width:4;stroke-linecap:round;stroke-linejoin:round;stroke-miterlimit:10;}
</style>
<g>
	<circle class="st0" cx="87.5" cy="87.5" r="87.5"/>
	<g>
		<defs>
			<circle id="SVGID_1_" cx="87.5" cy="87.5" r="87.5"/>
		</defs>
		<clipPath id="SVGID_2_">
			<use xlink:href="#SVGID_1_"  style="overflow:visible;"/>
		</clipPath>
		<rect x="29.1" y="154" class="st1" width="116.8" height="21.8"/>
	</g>
	<g>
		<g>
			<path class="st2" d="M91.6,85.7c0,1.6,1.3,2.8,2.8,2.8c1.6,0,2.8-1.3,2.8-2.8c0-1.6-1.3-2.8-2.8-2.8
				C92.9,82.9,91.6,84.1,91.6,85.7z"/>
			<path class="st3" d="M92.5,85.7c0,1,0.8,1.9,1.9,1.9c1,0,1.9-0.8,1.9-1.9c0-1-0.8-1.9-1.9-1.9C93.4,83.8,92.5,84.7,92.5,85.7z"/>
		</g>
		<g>
			<path class="st2" d="M77.7,85.7c0,1.6,1.3,2.8,2.8,2.8c1.6,0,2.8-1.3,2.8-2.8c0-1.6-1.3-2.8-2.8-2.8C79,82.9,77.7,84.1,77.7,85.7
				z"/>
			<path class="st3" d="M78.6,85.7c0,1,0.8,1.9,1.9,1.9c1,0,1.9-0.8,1.9-1.9c0-1-0.8-1.9-1.9-1.9C79.5,83.8,78.6,84.7,78.6,85.7z"/>
		</g>
		<rect x="84.4" y="90.6" class="st4" width="6.2" height="9.1"/>
		<path class="st5" d="M88.4,73.7l-1.2,0.5l-0.3-0.5L80,78.9v9.4c1.4,6,7.6,8.5,7.6,8.5s6.2-2.5,7.6-8.5v-9.4L88.4,73.7z"/>
		<polygon class="st6" points="88.6,88.8 87.6,84.4 86.5,88.8 		"/>
		<path class="st7" d="M95.2,85.2l-1-4c0,0,0.1,1.5-2.1,2v-1.6c0,0-1.7,2.3-5.6,1.6l1.6-1.4l-6.5,1.8l1.7-2.5h-1.7L80,84.4l-0.8-6.3
			c0,0-3-0.9-2.3-4.4l3,1.4c0,0-2.6-1.8-0.8-5.5l2.9,2.9c0,0-0.6-2.1,1.3-3.6l2.1,2.7c0,0,7-1.4,10.8,5L95.2,85.2z"/>
		<path class="st8" d="M87.6,93.4c1.8,0,3.2-1.4,3.2-3.2h-6.3C84.4,92,85.8,93.4,87.6,93.4z"/>
		<linearGradient id="SVGID_3_" gradientUnits="userSpaceOnUse" x1="73.011" y1="133.4091" x2="88.3916" y2="148.7897">
			<stop  offset="0" style="stop-color:#E2F3F8"/>
			<stop  offset="1" style="stop-color:#D7E4FF"/>
		</linearGradient>
		<path class="st9" d="M87.5,143.1c0,0-6.2-6.4-15.9-9.2v3L87.5,143.1z"/>
		
			<linearGradient id="SVGID_4_" gradientUnits="userSpaceOnUse" x1="387.3359" y1="133.4092" x2="402.7164" y2="148.7896" gradientTransform="matrix(-1 0 0 1 489.482 0)">
			<stop  offset="0" style="stop-color:#E2F3F8"/>
			<stop  offset="1" style="stop-color:#D7E4FF"/>
		</linearGradient>
		<path class="st10" d="M87.6,143.1c0,0,6.2-6.4,15.9-9.2v3L87.6,143.1z"/>
		<g>
			<g>
				<path class="st11" d="M65.6,151.1v4.1c0,0,22.8-2.5,39.2-6.1c0,0,9.3-2.8,17.9-7.1c2.4-1.2,3-4.4,1.2-6.4c-1.5-1.7-4-3.2-8-3.1
					c-9.2,0.2-27.9,10.4-27.9,10.4L65.6,151.1z"/>
				<polyline class="st12" points="87.6,152.2 87.1,152.1 70.3,149.1 65.6,151.1 65.6,155.2 				"/>
			</g>
			<g>
				<path class="st13" d="M109.5,151.1v4.1c0,0-22.8-2.5-39.2-6.1c0,0-9.3-2.8-17.9-7.1c-2.3-1.1-3.1-4.2-1.4-6.2
					c1.5-1.8,4-3.4,8.2-3.3c9.2,0.2,27.9,10.4,27.9,10.4L109.5,151.1z"/>
			</g>
		</g>
		<path class="st14" d="M65.6,155.2c0,0-4.1,0.7-14,1.3v-3.4l10.7-3.4l3.3,1.4V155.2z"/>
		<path class="st14" d="M109.5,155.2c0,0,4.1,0.7,14,1.3v-3.4l-10.7-3.4l-3.3,1.4V155.2z"/>
		<path class="st15" d="M72.5,118.1c-0.5,0.9,0.9,8.4,1.9,9.8c1,1.4,4-1.3,4.3-3.6c0.3-2.3-0.7-5.7-1-6.9
			C77.4,116.3,72.5,118.1,72.5,118.1z"/>
		<path class="st15" d="M99.1,116.4c-0.7,0.8-1.3,9.6-0.7,11.2c0.5,1.6,3.9-1.4,4.4-3.7c0.5-2.2,1.5-5.6,1.5-6.8
			C104.3,116,99.1,116.4,99.1,116.4z"/>
		<path class="st16" d="M87.5,99.4c-1.7,0-3.7-1.1-3.1-3.1c-2.5,0.8-9.4,4.9-11.2,6.5c-1.7,1.5-2.8,8.4-1.9,16
			c3.1,0.8,5.8,0.1,7.3-0.3c0-1.4-0.2-4.8-0.2-4.8s1.8,16.6,2.9,17.1c5,2.4,14.3,3.1,15.5-1.3c1.2-4.2,0.2-14.7,0.4-15.9
			c0.6,1.2,0.4,2.6,1.6,3.4c1,0.7,4.8,1.5,5.6,0.5c0.8-1.1,1.4-11.8-2.6-14.8c-4.1-3-9.1-5.8-11.2-6.4
			C90.9,97.9,89.6,99.4,87.5,99.4z"/>
		<path class="st17" d="M104.3,140.3c0,1.6-1.3,3-3,3H74.8c-1.6,0-3-1.3-3-3v-13.7c0-1.6,1.3-3,3-3h26.5c1.6,0,3,1.3,3,3V140.3z"/>
		<circle class="st18" cx="88" cy="133.9" r="2.6"/>
	</g>
	<path class="st19" d="M107.6,40c0-11.1-9-20.1-20.1-20.1c-11.1,0-20.1,9-20.1,20.1c0,9.5,6.6,17.4,15.4,19.5l4.7,7.1l4.7-7.1
		C101.1,57.4,107.6,49.5,107.6,40z"/>
	<circle class="st20" cx="87.5" cy="40" r="16.7"/>
	<polyline class="st21" points="80.9,39.6 85.7,45.8 94.1,35 	"/>
</g>
</svg>
