<?xml version="1.0" encoding="utf-8"?>
<!-- Generator: Adobe Illustrator 23.0.3, SVG Export Plug-In . SVG Version: 6.00 Build 0)  -->
<svg version="1.1" id="Layer_1" xmlns="http://www.w3.org/2000/svg" xmlns:xlink="http://www.w3.org/1999/xlink" x="0px" y="0px"
	 viewBox="0 0 175 175" style="enable-background:new 0 0 175 175;" xml:space="preserve">
<style type="text/css">
	.st0{fill:#F3F8FE;}
	.st1{fill:#FFCC99;}
	.st2{fill:#232323;}
	.st3{fill:#201D93;}
	.st4{fill:#41378C;}
	.st5{fill:#2D24A3;}
	.st6{fill:#B0B0FF;}
	.st7{fill:#5046AF;}
	.st8{fill:#827DDC;}
	.st9{fill:none;stroke:#FFFFFF;stroke-width:4;stroke-linecap:round;stroke-linejoin:round;stroke-miterlimit:10;}
	.st10{clip-path:url(#SVGID_2_);fill:#D2F0FF;}
</style>
<g>
	<circle class="st0" cx="87.5" cy="87.5" r="87.5"/>
	<path class="st1" d="M64.9,147.8c0,0,0.4,1.7,0.3,3c-0.2,0.9,0,1.2,0,1.2l3.5-0.3c0,0-1.6-0.8-1.5-4.4
		C67.4,143.7,64.9,147.8,64.9,147.8z"/>
	<path class="st2" d="M65.2,151.1c0,0,1.5,0.6,3.1,0.1c1.8,0.8,3,1.2,4.7,1.4c1.6,0.2,1.3,1.5-1.4,1.4c-2.8-0.2-4.7-0.1-5.3,0
		c-0.6,0.1-1.6,0.1-1.6-0.3C64.4,153.2,64.7,151,65.2,151.1z"/>
	<path class="st1" d="M54,147.8c0,0,0.4,1.7,0.3,3c-0.2,0.9,0,1.2,0,1.2l3.5-0.3c0,0-1.6-0.8-1.5-4.4C56.5,143.7,54,147.8,54,147.8z
		"/>
	<path class="st2" d="M54.3,151.1c0,0,1.5,0.6,3.1,0.1c1.8,0.8,3,1.2,4.7,1.4c1.6,0.2,1.3,1.5-1.4,1.4c-2.8-0.2-4.7-0.1-5.3,0
		c-0.6,0.1-1.6,0.1-1.6-0.3C53.6,153.2,53.8,151,54.3,151.1z"/>
	<path class="st3" d="M66.2,96.8c0,0,2.3,23.9,2.4,27c0.1,3.1,0.1,4.2,0,6.1c-0.1,1.9,1,17.8,1,17.8s-5.3,1.4-6.7,0.2
		c0,0,0.2-17.4-0.5-20.3c-0.7-3-3.3-18-3.3-18l3-15.4L66.2,96.8z"/>
	<path class="st4" d="M53.9,63.6c0,0,0.2-4.2,1.9-5.3c1.7-1.1,6.3-1.5,7.7,0.4c1.4,1.9,2.9,10.3-4,11.4L56,86.6c0,0-9.3-0.9-10-5.9
		c-0.7-5,3.5-7.3,3.5-7.3s-2-4.2,0.1-7.1C51.8,63.3,53.9,63.6,53.9,63.6z"/>
	<path class="st1" d="M67.3,77.9c0,0,8.4,1.2,10.7,1.1c1.8,0.1,4.3-10.4,4.6-11.1c1.4-1,2-1.7,2-2.4c0-0.7-1.8-1.3-2-1
		c0.3-1,0.4-1.3,0.4-1.6c0.2-0.7-0.3-1.2-1,1.4c-0.7,2.6-0.6,2.1-0.8,3c-1.1,2.3-4,7.8-4.2,8.6c-3.7-0.1-10.1-1.7-10.1-1.7
		L67.3,77.9z"/>
	<path class="st5" d="M54.7,125.6c0.5-4.5-0.4-22.5-0.4-26.4c0-3.8,10.8-1.9,10.8-1.9s-3.4,22.4-3.8,25.7c-0.4,3.2-0.9,4.2-1.1,7.3
		c-0.2,3.1-1.7,17.7-1.7,17.7s-5.9,1-6.4-0.1C51.2,142.1,54.7,125.6,54.7,125.6z"/>
	<path class="st6" d="M63,72.1l4.9,1.3c0,0-0.5,4.1,0,5.3h-3.4c0,0-0.6,1.8-0.9,2.6c-0.3,0.8,2.5,14.4,2.9,17c0,0-7.2-1.3-12.8,1.2
		c0,0,0.5-5.4,2.4-9.2c1.9-3.8-5.7-12.6-5.7-12.6s2.3-7.1,6.4-7.5C60,69.8,60,71.3,63,72.1z"/>
	<path class="st1" d="M62.7,60.2c0,0,1.5,4,0.5,5.9C62.3,68,60,67.8,60,67.8v4.3c0,0-0.2,0.2-0.6,0.2c-0.7,0-2.6-1.2-2.6-1.2v-10
		L62.7,60.2z"/>
	<path class="st1" d="M49.1,77.5c0,0-7.2,8.2-6.8,9.2c0.4,1,8.4,5.5,9.1,6.1c0.7,0.6,2.9,3,3,2.7c0.1-0.3,1.4-1.1,1.5-1.9
		c0.1-0.8-0.6-1.5-0.6-1.5l-3-0.4c0,0-5.5-4.6-5.7-5.2c-0.2-0.6,6.2-6.9,6.2-6.9L49.1,77.5z"/>
	<path class="st6" d="M48.4,77.1c0,0,4.2-5.9,6.8-5.7c2.6,0.2,2.4,4,0,6.6c-2.4,2.6-3.2,3.6-3.2,3.6S48.9,80.2,48.4,77.1z"/>
	<path class="st4" d="M62.9,59.6c0,0-1,4.6-3.2,5.8c-2.2,1.2-0.5,4.2-2.7,6.4c-1.1,1.2-3.3-0.1-3.3-0.1l2.1-11.5L62.9,59.6z"/>
	<path class="st7" d="M134.2,32.5c0-1,0.1-1.9,0.4-2.8c-6.8-1.2-15.8-2.2-20.8-2.2c-4.8,0-13.4,0.9-20.1,2.1
		c0.3,0.9,0.4,1.9,0.4,2.9c0,5.9-4.6,10.7-10.4,11c0.7,9.7,3.2,22.9,6.2,30c4.9,11.8,21.8,22.2,24,24c2.2-1.8,19.1-12.2,24-24
		c3-7.1,5.5-20.4,6.2-30.1C138.5,42.9,134.2,38.2,134.2,32.5z"/>
	<path class="st6" d="M113.9,31.6c-3.4,0-9.3,0.5-15.1,1.3C98.1,39.2,94,44.6,88.3,47c0.5,4.6,1.4,9.5,2.3,13.8
		c1,4.5,2.1,8.5,3.3,11.2c3.4,8.3,14.5,16.5,20,20.4c0,0,0,0,0,0V60.9L113.9,31.6C113.9,31.6,113.9,31.6,113.9,31.6z"/>
	<path class="st8" d="M129.7,33c-6.1-0.8-12.3-1.4-15.8-1.4v29.3v31.6c5.5-3.9,16.5-12.1,20-20.4c1.1-2.7,2.3-6.7,3.3-11.2
		c1-4.5,1.8-9.4,2.4-14.2C134.2,44.2,130.4,39,129.7,33z"/>
	<polyline class="st9" points="105.9,58 112.2,66.2 123.3,51.9 	"/>
	<g>
		<defs>
			<circle id="SVGID_1_" cx="87.5" cy="87.5" r="87.5"/>
		</defs>
		<clipPath id="SVGID_2_">
			<use xlink:href="#SVGID_1_"  style="overflow:visible;"/>
		</clipPath>
		<rect x="29.1" y="154" class="st10" width="116.8" height="21.8"/>
	</g>
</g>
</svg>
