<svg xmlns="http://www.w3.org/2000/svg" xmlns:xlink="http://www.w3.org/1999/xlink" viewBox="0 0 175 175.76"><defs><style>.cls-1{fill:none;}.cls-2{isolation:isolate;}.cls-3{fill:#f3f8fe;}.cls-4{clip-path:url(#clip-path);}.cls-5{fill:#d2f0ff;}.cls-6{fill:#ffb59c;}.cls-7{fill:#ff9f7c;}.cls-8{fill:#ffb899;}.cls-9{fill:#ffcda9;}.cls-10{fill:#ff907d;}.cls-11{fill:#41378c;}.cls-12{fill:#fff;}.cls-13{clip-path:url(#clip-path-2);}.cls-14{fill:#e2f3f8;}.cls-15{fill:#e1f2f8;}.cls-16{fill:#e1f1f9;}.cls-17{fill:#e0f0f9;}.cls-18{fill:#dfeffa;}.cls-19{fill:#deeefa;}.cls-20{fill:#deedfb;}.cls-21{fill:#ddecfb;}.cls-22{fill:#dcebfc;}.cls-23{fill:#dbeafc;}.cls-24{fill:#dae8fd;}.cls-25{fill:#d9e7fd;}.cls-26{clip-path:url(#clip-path-3);}.cls-27{fill:#002a88;}.cls-28{fill:#001f5f;}.cls-29{fill:#003591;}.cls-30{fill:#000f1f;}.cls-31{fill:#e6e9f8;}.cls-32{opacity:0.1;}.cls-33{fill:#a8cfef;}.cls-34{fill:#393768;}.cls-35{mix-blend-mode:soft-light;}.cls-36{clip-path:url(#clip-path-4);}.cls-37{fill:#ececec;}.cls-38{fill:#ebebeb;}.cls-39{fill:#eaeaea;}.cls-40{fill:#e9e9e9;}.cls-41{fill:#e8e8e8;}.cls-42{fill:#e7e7e7;}.cls-43{fill:#e6e6e6;}.cls-44{fill:#e5e5e5;}.cls-45{fill:#e4e4e4;}.cls-46{fill:#e3e3e3;}.cls-47{fill:#e2e2e2;}.cls-48{fill:#e1e1e1;}.cls-49{fill:#e0e0e0;}.cls-50{fill:#dfdfdf;}.cls-51{fill:#dedede;}.cls-52{fill:#ddd;}.cls-53{fill:#dcdcdc;}.cls-54{fill:#dbdbdb;}.cls-55{fill:#dadada;}.cls-56{fill:#d9d9d9;}.cls-57{fill:#d8d8d8;}.cls-58{fill:#d7d7d7;}.cls-59{fill:#d6d6d6;}.cls-60{fill:#d5d5d5;}.cls-61{fill:#d4d4d4;}.cls-62{fill:#d3d3d3;}.cls-63{fill:#d2d2d2;}.cls-64{fill:#d1d1d1;}.cls-65{fill:#d0d0d0;}.cls-66{fill:#cfcfcf;}.cls-67{fill:#cecece;}.cls-68{fill:#cdcdcd;}.cls-69{fill:#ccc;}.cls-70{fill:#cbcbcb;}.cls-71{fill:#cacaca;}.cls-72{fill:#c9c9c9;}.cls-73{fill:#c8c8c8;}.cls-74{fill:#c7c7c7;}.cls-75{fill:#c6c6c6;}.cls-76{fill:#c5c5c5;}.cls-77{fill:#c4c4c4;}.cls-78{fill:#c3c3c3;}.cls-79{fill:#c2c2c2;}.cls-80{fill:#c1c1c1;}.cls-81{fill:silver;}.cls-82{fill:#bfbfbf;}.cls-83{fill:#bebebe;}.cls-84{fill:#bdbdbd;}.cls-85{fill:#bcbcbc;}.cls-86{fill:#bbb;}.cls-87{fill:#bababa;}.cls-88{fill:#b9b9b9;}.cls-89{fill:#b8b8b8;}.cls-90{fill:#b7b7b7;}.cls-91{fill:#b6b6b6;}.cls-92{fill:#b5b5b5;}.cls-93{fill:#b4b4b4;}.cls-94{fill:#b3b3b3;}.cls-95{fill:#b2b2b2;}.cls-96{fill:#b1b1b1;}.cls-97{fill:#b0b0b0;}.cls-98{fill:#afafaf;}.cls-99{fill:#aeaeae;}.cls-100{fill:#adadad;}.cls-101{fill:#acacac;}.cls-102{fill:#ababab;}.cls-103{fill:#aaa;}.cls-104{fill:#a9a9a9;}.cls-105{fill:#a8a8a8;}.cls-106{fill:#a7a7a7;}.cls-107{fill:#a6a6a6;}.cls-108{fill:#a5a5a5;}.cls-109{fill:#a4a4a4;}.cls-110{fill:#a3a3a3;}.cls-111{fill:#a2a2a2;}.cls-112{fill:#a1a1a1;}.cls-113{fill:#a0a0a0;}.cls-114{fill:#9f9f9f;}.cls-115{fill:#9e9e9e;}.cls-116{fill:#9d9d9d;}.cls-117{fill:#9c9c9c;}.cls-118{fill:#9b9b9b;}.cls-119{fill:#9a9a9a;}.cls-120{fill:#999;}.cls-121{fill:#989898;}.cls-122{fill:#979797;}.cls-123{fill:#969696;}.cls-124{fill:#959595;}.cls-125{fill:#949494;}.cls-126{fill:#939393;}.cls-127{fill:#929292;}.cls-128{fill:#919191;}.cls-129{fill:#909090;}.cls-130{fill:#8f8f8f;}.cls-131{fill:#8e8e8e;}.cls-132{fill:#8e8e8c;}.cls-133{fill:#8d8d8b;}.cls-134{fill:#8c8c8a;}.cls-135{fill:#8b8b89;}.cls-136{fill:#8a8a88;}.cls-137{fill:#898987;}.cls-138{fill:#888886;}.cls-139{fill:#878785;}.cls-140{fill:#868684;}.cls-141{fill:#858583;}.cls-142{fill:#848482;}.cls-143{fill:#838381;}.cls-144{fill:#828280;}.cls-145{fill:#81817f;}.cls-146{fill:#80807e;}.cls-147{fill:#7f7f7d;}.cls-148{fill:#7e7e7c;}.cls-149{fill:#7d7d7b;}.cls-150{fill:#7c7c7a;}.cls-151{fill:#7b7b79;}.cls-152{fill:#7a7a78;}.cls-153{fill:#797977;}.cls-154{fill:#787876;}.cls-155{fill:#777775;}.cls-156{fill:#767674;}.cls-157{fill:#757573;}.cls-158{fill:#747472;}.cls-159{fill:#737371;}.cls-160{fill:#727270;}.cls-161{fill:#71716f;}.cls-162{fill:#70706e;}.cls-163{fill:#6f6f6d;}.cls-164{fill:#6e6e6c;}.cls-165{fill:#6d6d6b;}.cls-166{fill:#6c6c6a;}.cls-167{fill:#6b6b69;}.cls-168{fill:#6a6a68;}.cls-169{fill:#696967;}.cls-170{fill:#686866;}.cls-171{fill:#676765;}.cls-172{fill:#666664;}.cls-173{fill:#656563;}.cls-174{fill:#646462;}.cls-175{fill:#636361;}.cls-176{fill:#626260;}.cls-177{fill:#61615f;}.cls-178{fill:#60605e;}.cls-179{fill:#5f5f5d;}.cls-180{fill:#5e5e5c;}.cls-181{fill:#5d5d5b;}.cls-182{fill:#5c5c5a;}.cls-183{fill:#5b5b59;}.cls-184{fill:#5a5a58;}.cls-185{fill:#595957;}.cls-186{fill:#585856;}.cls-187{fill:#575755;}.cls-188{fill:#565654;}.cls-189{fill:#555553;}.cls-190{fill:#545452;}.cls-191{fill:#535351;}.cls-192{fill:#525250;}.cls-193{fill:#51514f;}.cls-194{fill:#50504e;}.cls-195{fill:#4f4f4d;}.cls-196{fill:#4e4e4c;}.cls-197{fill:#4d4d4b;}.cls-198{fill:#4c4c4a;}.cls-199{fill:#4b4b49;}.cls-200{fill:#4a4a48;}.cls-201{fill:#494947;}.cls-202{fill:#484846;}.cls-203{fill:#474745;}.cls-204{fill:#464644;}.cls-205{fill:#454543;}.cls-206{fill:#444442;}.cls-207{fill:#434341;}.cls-208{fill:#424240;}.cls-209{fill:#41413f;}.cls-210{fill:#40403e;}.cls-211{fill:#3f3f3d;}.cls-212{fill:#3e3e3c;}.cls-213{fill:#3d3d3b;}.cls-214{fill:#3c3c3a;}.cls-215{fill:#3b3b39;}.cls-216{fill:#3a3a38;}.cls-217{fill:#393937;}.cls-218{fill:#383836;}.cls-219{fill:#373735;}.cls-220{fill:#363634;}.cls-221{fill:#353533;}.cls-222{fill:#343432;}.cls-223{fill:#333331;}.cls-224{fill:#323230;}.cls-225{fill:#adadea;}.cls-226{fill:#f59d83;}.cls-227{fill:#b0b0ff;}.cls-228{fill:#e1e4e5;}.cls-229{fill:#cccdce;}</style><clipPath id="clip-path" transform="translate(-0.25)"><circle class="cls-1" cx="87.25" cy="87.5" r="87.5"/></clipPath><clipPath id="clip-path-2" transform="translate(-0.25)"><path class="cls-1" d="M87.25,149.48a38.77,38.77,0,0,0-15.45-9v2.88Z"/></clipPath><clipPath id="clip-path-3" transform="translate(-0.25)"><path class="cls-1" d="M87.37,149.48a38.77,38.77,0,0,1,15.45-9v2.88Z"/></clipPath><clipPath id="clip-path-4" transform="translate(-0.25)"><path class="cls-1" d="M35.25,33.08h85.37a6.82,6.82,0,0,1,6.82,6.82v16a6.82,6.82,0,0,1-6.82,6.82H35.25a0,0,0,0,1,0,0V33.08A0,0,0,0,1,35.25,33.08Z" transform="translate(162.69 95.75) rotate(180)"/></clipPath></defs><title>satisfaction-guaranted</title><g class="cls-2"><g id="Layer_1" data-name="Layer 1"><circle class="cls-3" cx="87.5" cy="87.5" r="87.5"/><g class="cls-4"><rect class="cls-5" x="28.59" y="153.95" width="116.82" height="21.8"/></g><path class="cls-6" d="M91.22,93.65A2.75,2.75,0,1,0,94,90.9,2.75,2.75,0,0,0,91.22,93.65Z" transform="translate(-0.25)"/><path class="cls-7" d="M92.13,93.65A1.84,1.84,0,1,0,94,91.81,1.84,1.84,0,0,0,92.13,93.65Z" transform="translate(-0.25)"/><path class="cls-6" d="M77.71,93.65a2.75,2.75,0,1,0,2.75-2.75A2.75,2.75,0,0,0,77.71,93.65Z" transform="translate(-0.25)"/><path class="cls-7" d="M78.62,93.65a1.85,1.85,0,1,0,1.84-1.84A1.84,1.84,0,0,0,78.62,93.65Z" transform="translate(-0.25)"/><rect class="cls-8" x="84" y="98.43" width="6" height="8.88"/><path class="cls-9" d="M88.06,82l-1.18.51L86.55,82l-6.66,5v9.13c1.36,5.84,7.42,8.24,7.42,8.24s6-2.4,7.41-8.24V87Z" transform="translate(-0.25)"/><polygon class="cls-10" points="88.07 96.64 87.06 92.42 86.05 96.64 88.07 96.64"/><path class="cls-11" d="M94.72,93.2l-1-3.85s.1,1.46-2,1.93V89.75S90,92,86.22,91.28L87.82,90l-6.29,1.8,1.68-2.4H81.53l-1.64,3-.76-6.1A3.47,3.47,0,0,1,76.93,82l3,1.35s-2.56-1.73-.76-5.31L82,80.9a3.58,3.58,0,0,1,1.23-3.54L85.28,80s6.84-1.35,10.53,4.85Z" transform="translate(-0.25)"/><path class="cls-12" d="M87.31,101.18a3.08,3.08,0,0,0,3.08-3.08H84.23A3.08,3.08,0,0,0,87.31,101.18Z" transform="translate(-0.25)"/><g class="cls-13"><polygon class="cls-14" points="72.43 140.52 71.55 141.4 71.55 140.52 72.43 140.52"/><polygon class="cls-14" points="74.43 140.52 71.55 143.4 71.55 141.4 72.43 140.52 74.43 140.52"/><polygon class="cls-15" points="76.42 140.52 71.55 145.39 71.55 143.4 74.43 140.52 76.42 140.52"/><polygon class="cls-16" points="78.42 140.52 72.12 146.81 71.55 146.23 71.55 145.39 76.42 140.52 78.42 140.52"/><polygon class="cls-17" points="80.41 140.52 73.12 147.81 72.12 146.81 78.42 140.52 80.41 140.52"/><polygon class="cls-18" points="81.04 140.52 81.72 141.2 74.12 148.8 73.12 147.81 80.41 140.52 81.04 140.52"/><polygon class="cls-19" points="81.72 141.2 82.72 142.2 75.44 149.48 74.79 149.48 74.12 148.8 81.72 141.2"/><polygon class="cls-20" points="82.72 142.2 83.72 143.19 77.43 149.48 75.44 149.48 82.72 142.2"/><polygon class="cls-21" points="83.72 143.19 84.71 144.19 79.42 149.48 77.43 149.48 83.72 143.19"/><polygon class="cls-22" points="84.71 144.19 85.71 145.19 81.42 149.48 79.42 149.48 84.71 144.19"/><polygon class="cls-23" points="85.71 145.19 86.71 146.19 83.41 149.48 81.42 149.48 85.71 145.19"/><polygon class="cls-24" points="86.71 146.19 87 146.48 87 147.89 85.41 149.48 83.41 149.48 86.71 146.19"/><polygon class="cls-25" points="85.41 149.48 87 147.89 87 149.48 85.41 149.48"/></g><g class="cls-26"><polygon class="cls-14" points="102.57 141.4 101.68 140.52 102.57 140.52 102.57 141.4"/><polygon class="cls-14" points="102.57 143.4 99.69 140.52 101.68 140.52 102.57 141.4 102.57 143.4"/><polygon class="cls-15" points="102.57 145.39 97.69 140.52 99.69 140.52 102.57 143.4 102.57 145.39"/><polygon class="cls-16" points="102.57 146.23 101.99 146.81 95.7 140.52 97.69 140.52 102.57 145.39 102.57 146.23"/><polygon class="cls-17" points="101.99 146.81 101 147.81 93.71 140.52 95.7 140.52 101.99 146.81"/><polygon class="cls-18" points="101 147.81 100 148.8 92.39 141.2 93.08 140.52 93.71 140.52 101 147.81"/><polygon class="cls-19" points="100 148.8 99.32 149.48 98.68 149.48 91.4 142.2 92.39 141.2 100 148.8"/><polygon class="cls-20" points="96.69 149.48 90.4 143.19 91.4 142.2 98.68 149.48 96.69 149.48"/><polygon class="cls-21" points="94.69 149.48 89.4 144.19 90.4 143.19 96.69 149.48 94.69 149.48"/><polygon class="cls-22" points="92.7 149.48 88.41 145.19 89.4 144.19 94.69 149.48 92.7 149.48"/><polygon class="cls-23" points="90.7 149.48 87.41 146.19 88.41 145.19 92.7 149.48 90.7 149.48"/><polygon class="cls-24" points="88.71 149.48 87.11 147.89 87.11 146.48 87.41 146.19 90.7 149.48 88.71 149.48"/><polygon class="cls-25" points="87.11 147.89 88.71 149.48 87.11 149.48 87.11 147.89"/></g><path class="cls-27" d="M65.91,157.23v4s22.13-2.38,38.12-6a134.74,134.74,0,0,0,17.39-6.88,4,4,0,0,0,1.2-6.22c-1.46-1.63-3.87-3.07-7.81-3-8.94.15-27.13,10.13-27.13,10.13Z" transform="translate(-0.25)"/><polyline class="cls-28" points="87.11 158.37 86.55 158.27 70.22 155.29 65.66 157.23 65.66 161.25"/><path class="cls-29" d="M108.59,157.23v4s-22.13-2.38-38.12-6a134.39,134.39,0,0,1-17.4-6.89,3.93,3.93,0,0,1-1.37-6c1.44-1.72,3.88-3.28,8-3.21,8.94.15,27.13,10.13,27.13,10.13Z" transform="translate(-0.25)"/><path class="cls-30" d="M65.91,161.25a131.08,131.08,0,0,1-13.65,1.25v-3.31l10.42-3.3,3.23,1.34Z" transform="translate(-0.25)"/><path class="cls-30" d="M108.59,161.25a131.08,131.08,0,0,0,13.65,1.25v-3.31l-10.42-3.3-3.23,1.34Z" transform="translate(-0.25)"/><path class="cls-31" d="M35.25,33.08h85.37a6.82,6.82,0,0,1,6.82,6.82v16a6.82,6.82,0,0,1-6.82,6.82H35.25a0,0,0,0,1,0,0V33.08A0,0,0,0,1,35.25,33.08Z" transform="translate(162.44 95.75) rotate(180)"/><g class="cls-32"><path d="M125.59,33.08a14.8,14.8,0,1,1-14.8,14.8A14.79,14.79,0,0,1,125.59,33.08Z" transform="translate(-0.25)"/></g><path class="cls-33" d="M86.12,44.35h16.62a3.2,3.2,0,0,0,3.2-3.2h0a3.21,3.21,0,0,0-3.2-3.21H86.12a3.21,3.21,0,0,0-3.2,3.21h0A3.2,3.2,0,0,0,86.12,44.35Z" transform="translate(-0.25)"/><path class="cls-34" d="M94,48.1l-.88,2.71a.33.33,0,0,1-.31.23H90a.33.33,0,0,0-.2.59l2.31,1.68a.34.34,0,0,1,.12.37l-.88,2.7a.33.33,0,0,0,.51.37l2.3-1.67a.35.35,0,0,1,.39,0l2.3,1.67a.33.33,0,0,0,.51-.37l-.88-2.7a.33.33,0,0,1,.12-.37l2.3-1.68a.32.32,0,0,0-.19-.59H95.82a.33.33,0,0,1-.31-.23l-.88-2.71A.33.33,0,0,0,94,48.1Z" transform="translate(-0.25)"/><path class="cls-34" d="M82.49,48.1l-.88,2.71a.35.35,0,0,1-.32.23H78.45a.33.33,0,0,0-.2.59l2.31,1.68a.34.34,0,0,1,.12.37l-.88,2.7a.33.33,0,0,0,.5.37l2.31-1.67a.35.35,0,0,1,.39,0l2.3,1.67a.33.33,0,0,0,.51-.37l-.88-2.7a.31.31,0,0,1,.12-.37l2.3-1.68a.32.32,0,0,0-.19-.59H84.31a.36.36,0,0,1-.32-.23l-.87-2.71A.33.33,0,0,0,82.49,48.1Z" transform="translate(-0.25)"/><path class="cls-34" d="M71,48.1l-.88,2.71a.33.33,0,0,1-.31.23H66.93a.32.32,0,0,0-.19.59L69,53.31a.31.31,0,0,1,.12.37l-.88,2.7a.33.33,0,0,0,.51.37l2.3-1.67a.35.35,0,0,1,.39,0l2.31,1.67a.33.33,0,0,0,.5-.37l-.88-2.7a.34.34,0,0,1,.12-.37l2.31-1.68a.33.33,0,0,0-.2-.59H72.8a.35.35,0,0,1-.32-.23L71.6,48.1A.33.33,0,0,0,71,48.1Z" transform="translate(-0.25)"/><path class="cls-34" d="M59.46,48.1l-.88,2.71a.33.33,0,0,1-.31.23H55.42a.32.32,0,0,0-.19.59l2.3,1.68a.33.33,0,0,1,.12.37l-.88,2.7a.33.33,0,0,0,.51.37l2.3-1.67a.35.35,0,0,1,.39,0l2.3,1.67a.33.33,0,0,0,.51-.37l-.88-2.7a.34.34,0,0,1,.12-.37l2.31-1.68a.33.33,0,0,0-.2-.59H61.28a.33.33,0,0,1-.31-.23l-.88-2.71A.33.33,0,0,0,59.46,48.1Z" transform="translate(-0.25)"/><path class="cls-34" d="M48,48.1l-.88,2.71a.33.33,0,0,1-.31.23H43.91a.32.32,0,0,0-.19.59L46,53.31a.34.34,0,0,1,.12.37l-.88,2.7a.33.33,0,0,0,.51.37l2.3-1.67a.35.35,0,0,1,.39,0l2.3,1.67a.33.33,0,0,0,.51-.37l-.88-2.7a.33.33,0,0,1,.12-.37l2.3-1.68a.32.32,0,0,0-.19-.59H49.77a.33.33,0,0,1-.31-.23l-.88-2.71A.33.33,0,0,0,48,48.1Z" transform="translate(-0.25)"/><g class="cls-35"><g class="cls-36"><polygon class="cls-37" points="127.19 34.32 126.7 33.08 127.19 33.08 127.19 34.32"/><polygon class="cls-38" points="127.19 35.72 126.14 33.08 126.7 33.08 127.19 34.32 127.19 35.72"/><polygon class="cls-39" points="127.19 37.11 125.58 33.08 126.14 33.08 127.19 35.72 127.19 37.11"/><polygon class="cls-40" points="127.19 38.51 125.03 33.08 125.58 33.08 127.19 37.11 127.19 38.51"/><polygon class="cls-41" points="127.19 39.91 124.47 33.08 125.03 33.08 127.19 38.51 127.19 39.91"/><polygon class="cls-42" points="127.19 41.31 123.92 33.08 124.47 33.08 127.19 39.91 127.19 41.31"/><polygon class="cls-43" points="127.19 42.7 123.36 33.08 123.92 33.08 127.19 41.31 127.19 42.7"/><polygon class="cls-44" points="127.19 44.1 122.81 33.08 123.36 33.08 127.19 42.7 127.19 44.1"/><polygon class="cls-45" points="127.19 45.5 122.25 33.08 122.81 33.08 127.19 44.1 127.19 45.5"/><polygon class="cls-46" points="127.19 46.9 121.69 33.08 122.25 33.08 127.19 45.5 127.19 46.9"/><polygon class="cls-47" points="127.19 48.3 121.14 33.08 121.69 33.08 127.19 46.9 127.19 48.3"/><polygon class="cls-48" points="127.19 49.69 120.58 33.08 121.14 33.08 127.19 48.3 127.19 49.69"/><polygon class="cls-49" points="127.19 51.09 120.03 33.08 120.58 33.08 127.19 49.69 127.19 51.09"/><polygon class="cls-50" points="127.19 52.49 119.47 33.08 120.03 33.08 127.19 51.09 127.19 52.49"/><polygon class="cls-51" points="127.19 53.88 118.92 33.08 119.47 33.08 127.19 52.49 127.19 53.88"/><polygon class="cls-52" points="127.19 55.28 118.36 33.08 118.92 33.08 127.19 53.88 127.19 55.28"/><polygon class="cls-53" points="127.19 56.68 117.81 33.08 118.36 33.08 127.19 55.28 127.19 56.68"/><polygon class="cls-54" points="127.19 58.08 117.25 33.08 117.81 33.08 127.19 56.68 127.19 58.08"/><polygon class="cls-55" points="127.19 59.48 116.69 33.08 117.25 33.08 127.19 58.08 127.19 59.48"/><polygon class="cls-56" points="127.19 60.87 116.14 33.08 116.69 33.08 127.19 59.48 127.19 60.87"/><polygon class="cls-57" points="127.19 62.27 115.58 33.08 116.14 33.08 127.19 60.87 127.19 62.27"/><polygon class="cls-58" points="126.8 62.68 115.03 33.08 115.58 33.08 127.19 62.27 127.19 62.68 126.8 62.68"/><polygon class="cls-59" points="126.24 62.68 114.47 33.08 115.03 33.08 126.8 62.68 126.24 62.68"/><polygon class="cls-60" points="125.69 62.68 113.92 33.08 114.47 33.08 126.24 62.68 125.69 62.68"/><polygon class="cls-61" points="125.13 62.68 113.36 33.08 113.92 33.08 125.69 62.68 125.13 62.68"/><polygon class="cls-62" points="124.57 62.68 112.8 33.08 113.36 33.08 125.13 62.68 124.57 62.68"/><polygon class="cls-63" points="124.02 62.68 112.25 33.08 112.8 33.08 124.57 62.68 124.02 62.68"/><polygon class="cls-64" points="123.46 62.68 111.69 33.08 112.25 33.08 124.02 62.68 123.46 62.68"/><polygon class="cls-65" points="122.91 62.68 111.14 33.08 111.69 33.08 123.46 62.68 122.91 62.68"/><polygon class="cls-66" points="122.35 62.68 110.58 33.08 111.14 33.08 122.91 62.68 122.35 62.68"/><polygon class="cls-67" points="121.8 62.68 110.03 33.08 110.58 33.08 122.35 62.68 121.8 62.68"/><polygon class="cls-68" points="121.24 62.68 109.47 33.08 110.03 33.08 121.8 62.68 121.24 62.68"/><polygon class="cls-69" points="120.68 62.68 108.91 33.08 109.47 33.08 121.24 62.68 120.68 62.68"/><polygon class="cls-70" points="120.13 62.68 108.36 33.08 108.91 33.08 120.68 62.68 120.13 62.68"/><polygon class="cls-71" points="119.57 62.68 107.8 33.08 108.36 33.08 120.13 62.68 119.57 62.68"/><polygon class="cls-72" points="119.02 62.68 107.25 33.08 107.8 33.08 119.57 62.68 119.02 62.68"/><polygon class="cls-73" points="118.46 62.68 106.69 33.08 107.25 33.08 119.02 62.68 118.46 62.68"/><polygon class="cls-74" points="117.91 62.68 106.14 33.08 106.69 33.08 118.46 62.68 117.91 62.68"/><polygon class="cls-75" points="117.35 62.68 105.58 33.08 106.14 33.08 117.91 62.68 117.35 62.68"/><polygon class="cls-76" points="116.79 62.68 105.02 33.08 105.58 33.08 117.35 62.68 116.79 62.68"/><polygon class="cls-77" points="116.24 62.68 104.47 33.08 105.02 33.08 116.79 62.68 116.24 62.68"/><polygon class="cls-78" points="115.68 62.68 103.91 33.08 104.47 33.08 116.24 62.68 115.68 62.68"/><polygon class="cls-79" points="115.13 62.68 103.36 33.08 103.91 33.08 115.68 62.68 115.13 62.68"/><polygon class="cls-80" points="114.57 62.68 102.8 33.08 103.36 33.08 115.13 62.68 114.57 62.68"/><polygon class="cls-81" points="114.02 62.68 102.25 33.08 102.8 33.08 114.57 62.68 114.02 62.68"/><polygon class="cls-82" points="113.46 62.68 101.69 33.08 102.25 33.08 114.02 62.68 113.46 62.68"/><polygon class="cls-83" points="112.9 62.68 101.13 33.08 101.69 33.08 113.46 62.68 112.9 62.68"/><polygon class="cls-84" points="112.35 62.68 100.58 33.08 101.13 33.08 112.9 62.68 112.35 62.68"/><polygon class="cls-85" points="111.79 62.68 100.02 33.08 100.58 33.08 112.35 62.68 111.79 62.68"/><polygon class="cls-86" points="111.24 62.68 99.47 33.08 100.02 33.08 111.79 62.68 111.24 62.68"/><polygon class="cls-87" points="110.68 62.68 98.91 33.08 99.47 33.08 111.24 62.68 110.68 62.68"/><polygon class="cls-88" points="110.13 62.68 98.36 33.08 98.91 33.08 110.68 62.68 110.13 62.68"/><polygon class="cls-89" points="109.57 62.68 97.8 33.08 98.36 33.08 110.13 62.68 109.57 62.68"/><polygon class="cls-90" points="109.01 62.68 97.24 33.08 97.8 33.08 109.57 62.68 109.01 62.68"/><polygon class="cls-91" points="108.46 62.68 96.69 33.08 97.24 33.08 109.01 62.68 108.46 62.68"/><polygon class="cls-92" points="107.9 62.68 96.13 33.08 96.69 33.08 108.46 62.68 107.9 62.68"/><polygon class="cls-93" points="107.35 62.68 95.58 33.08 96.13 33.08 107.9 62.68 107.35 62.68"/><polygon class="cls-94" points="106.79 62.68 95.02 33.08 95.58 33.08 107.35 62.68 106.79 62.68"/><polygon class="cls-95" points="106.24 62.68 94.47 33.08 95.02 33.08 106.79 62.68 106.24 62.68"/><polygon class="cls-96" points="105.68 62.68 93.91 33.08 94.47 33.08 106.24 62.68 105.68 62.68"/><polygon class="cls-97" points="105.12 62.68 93.35 33.08 93.91 33.08 105.68 62.68 105.12 62.68"/><polygon class="cls-98" points="104.57 62.68 92.8 33.08 93.35 33.08 105.12 62.68 104.57 62.68"/><polygon class="cls-99" points="104.01 62.68 92.24 33.08 92.8 33.08 104.57 62.68 104.01 62.68"/><polygon class="cls-100" points="103.46 62.68 91.69 33.08 92.24 33.08 104.01 62.68 103.46 62.68"/><polygon class="cls-101" points="102.9 62.68 91.13 33.08 91.69 33.08 103.46 62.68 102.9 62.68"/><polygon class="cls-102" points="102.35 62.68 90.58 33.08 91.13 33.08 102.9 62.68 102.35 62.68"/><polygon class="cls-103" points="101.79 62.68 90.02 33.08 90.58 33.08 102.35 62.68 101.79 62.68"/><polygon class="cls-104" points="101.23 62.68 89.46 33.08 90.02 33.08 101.79 62.68 101.23 62.68"/><polygon class="cls-105" points="100.68 62.68 88.91 33.08 89.46 33.08 101.23 62.68 100.68 62.68"/><polygon class="cls-106" points="100.12 62.68 88.35 33.08 88.91 33.08 100.68 62.68 100.12 62.68"/><polygon class="cls-107" points="99.57 62.68 87.8 33.08 88.35 33.08 100.12 62.68 99.57 62.68"/><polygon class="cls-108" points="99.01 62.68 87.24 33.08 87.8 33.08 99.57 62.68 99.01 62.68"/><polygon class="cls-109" points="98.46 62.68 86.69 33.08 87.24 33.08 99.01 62.68 98.46 62.68"/><polygon class="cls-110" points="97.9 62.68 86.13 33.08 86.69 33.08 98.46 62.68 97.9 62.68"/><polygon class="cls-111" points="97.34 62.68 85.57 33.08 86.13 33.08 97.9 62.68 97.34 62.68"/><polygon class="cls-112" points="96.79 62.68 85.02 33.08 85.57 33.08 97.34 62.68 96.79 62.68"/><polygon class="cls-113" points="96.23 62.68 84.46 33.08 85.02 33.08 96.79 62.68 96.23 62.68"/><polygon class="cls-114" points="95.68 62.68 83.91 33.08 84.46 33.08 96.23 62.68 95.68 62.68"/><polygon class="cls-115" points="95.12 62.68 83.35 33.08 83.91 33.08 95.68 62.68 95.12 62.68"/><polygon class="cls-116" points="94.57 62.68 82.8 33.08 83.35 33.08 95.12 62.68 94.57 62.68"/><polygon class="cls-117" points="94.01 62.68 82.24 33.08 82.8 33.08 94.57 62.68 94.01 62.68"/><polygon class="cls-118" points="93.45 62.68 81.68 33.08 82.24 33.08 94.01 62.68 93.45 62.68"/><polygon class="cls-119" points="92.9 62.68 81.13 33.08 81.68 33.08 93.45 62.68 92.9 62.68"/><polygon class="cls-120" points="92.34 62.68 80.57 33.08 81.13 33.08 92.9 62.68 92.34 62.68"/><polygon class="cls-121" points="91.79 62.68 80.02 33.08 80.57 33.08 92.34 62.68 91.79 62.68"/><polygon class="cls-122" points="91.23 62.68 79.46 33.08 80.02 33.08 91.79 62.68 91.23 62.68"/><polygon class="cls-123" points="90.68 62.68 78.91 33.08 79.46 33.08 91.23 62.68 90.68 62.68"/><polygon class="cls-124" points="90.12 62.68 78.35 33.08 78.91 33.08 90.68 62.68 90.12 62.68"/><polygon class="cls-125" points="89.56 62.68 77.79 33.08 78.35 33.08 90.12 62.68 89.56 62.68"/><polygon class="cls-126" points="89.01 62.68 77.24 33.08 77.79 33.08 89.56 62.68 89.01 62.68"/><polygon class="cls-127" points="88.45 62.68 76.68 33.08 77.24 33.08 89.01 62.68 88.45 62.68"/><polygon class="cls-128" points="87.9 62.68 76.13 33.08 76.68 33.08 88.45 62.68 87.9 62.68"/><polygon class="cls-129" points="87.34 62.68 75.57 33.08 76.13 33.08 87.9 62.68 87.34 62.68"/><polygon class="cls-130" points="86.79 62.68 75.02 33.08 75.57 33.08 87.34 62.68 86.79 62.68"/><polygon class="cls-131" points="86.23 62.68 74.46 33.08 75.02 33.08 86.79 62.68 86.23 62.68"/><polygon class="cls-132" points="85.67 62.68 73.9 33.08 74.46 33.08 86.23 62.68 85.67 62.68"/><polygon class="cls-133" points="85.12 62.68 73.35 33.08 73.9 33.08 85.67 62.68 85.12 62.68"/><polygon class="cls-134" points="84.56 62.68 72.79 33.08 73.35 33.08 85.12 62.68 84.56 62.68"/><polygon class="cls-135" points="84.01 62.68 72.24 33.08 72.79 33.08 84.56 62.68 84.01 62.68"/><polygon class="cls-136" points="83.45 62.68 71.68 33.08 72.24 33.08 84.01 62.68 83.45 62.68"/><polygon class="cls-137" points="82.9 62.68 71.13 33.08 71.68 33.08 83.45 62.68 82.9 62.68"/><polygon class="cls-138" points="82.34 62.68 70.57 33.08 71.13 33.08 82.9 62.68 82.34 62.68"/><polygon class="cls-139" points="81.78 62.68 70.01 33.08 70.57 33.08 82.34 62.68 81.78 62.68"/><polygon class="cls-140" points="81.23 62.68 69.46 33.08 70.01 33.08 81.78 62.68 81.23 62.68"/><polygon class="cls-141" points="80.67 62.68 68.9 33.08 69.46 33.08 81.23 62.68 80.67 62.68"/><polygon class="cls-142" points="80.12 62.68 68.35 33.08 68.9 33.08 80.67 62.68 80.12 62.68"/><polygon class="cls-143" points="79.56 62.68 67.79 33.08 68.35 33.08 80.12 62.68 79.56 62.68"/><polygon class="cls-144" points="79.01 62.68 67.24 33.08 67.79 33.08 79.56 62.68 79.01 62.68"/><polygon class="cls-145" points="78.45 62.68 66.68 33.08 67.24 33.08 79.01 62.68 78.45 62.68"/><polygon class="cls-146" points="77.89 62.68 66.12 33.08 66.68 33.08 78.45 62.68 77.89 62.68"/><polygon class="cls-147" points="77.34 62.68 65.57 33.08 66.12 33.08 77.89 62.68 77.34 62.68"/><polygon class="cls-148" points="76.78 62.68 65.01 33.08 65.57 33.08 77.34 62.68 76.78 62.68"/><polygon class="cls-149" points="76.23 62.68 64.46 33.08 65.01 33.08 76.78 62.68 76.23 62.68"/><polygon class="cls-150" points="75.67 62.68 63.9 33.08 64.46 33.08 76.23 62.68 75.67 62.68"/><polygon class="cls-151" points="75.12 62.68 63.35 33.08 63.9 33.08 75.67 62.68 75.12 62.68"/><polygon class="cls-152" points="74.56 62.68 62.79 33.08 63.35 33.08 75.12 62.68 74.56 62.68"/><polygon class="cls-153" points="74 62.68 62.23 33.08 62.79 33.08 74.56 62.68 74 62.68"/><polygon class="cls-154" points="73.45 62.68 61.68 33.08 62.23 33.08 74 62.68 73.45 62.68"/><polygon class="cls-155" points="72.89 62.68 61.12 33.08 61.68 33.08 73.45 62.68 72.89 62.68"/><polygon class="cls-156" points="72.34 62.68 60.57 33.08 61.12 33.08 72.89 62.68 72.34 62.68"/><polygon class="cls-157" points="71.78 62.68 60.01 33.08 60.57 33.08 72.34 62.68 71.78 62.68"/><polygon class="cls-158" points="71.23 62.68 59.46 33.08 60.01 33.08 71.78 62.68 71.23 62.68"/><polygon class="cls-159" points="70.67 62.68 58.9 33.08 59.46 33.08 71.23 62.68 70.67 62.68"/><polygon class="cls-160" points="70.11 62.68 58.34 33.08 58.9 33.08 70.67 62.68 70.11 62.68"/><polygon class="cls-161" points="69.56 62.68 57.79 33.08 58.34 33.08 70.11 62.68 69.56 62.68"/><polygon class="cls-162" points="69 62.68 57.23 33.08 57.79 33.08 69.56 62.68 69 62.68"/><polygon class="cls-163" points="68.45 62.68 56.68 33.08 57.23 33.08 69 62.68 68.45 62.68"/><polygon class="cls-164" points="67.89 62.68 56.12 33.08 56.68 33.08 68.45 62.68 67.89 62.68"/><polygon class="cls-165" points="67.34 62.68 55.57 33.08 56.12 33.08 67.89 62.68 67.34 62.68"/><polygon class="cls-166" points="66.78 62.68 55.01 33.08 55.57 33.08 67.34 62.68 66.78 62.68"/><polygon class="cls-167" points="66.22 62.68 54.45 33.08 55.01 33.08 66.78 62.68 66.22 62.68"/><polygon class="cls-168" points="65.67 62.68 53.9 33.08 54.45 33.08 66.22 62.68 65.67 62.68"/><polygon class="cls-169" points="65.11 62.68 53.34 33.08 53.9 33.08 65.67 62.68 65.11 62.68"/><polygon class="cls-170" points="64.56 62.68 52.79 33.08 53.34 33.08 65.11 62.68 64.56 62.68"/><polygon class="cls-171" points="64 62.68 52.23 33.08 52.79 33.08 64.56 62.68 64 62.68"/><polygon class="cls-172" points="63.45 62.68 51.68 33.08 52.23 33.08 64 62.68 63.45 62.68"/><polygon class="cls-173" points="62.89 62.68 51.12 33.08 51.68 33.08 63.45 62.68 62.89 62.68"/><polygon class="cls-174" points="62.33 62.68 50.56 33.08 51.12 33.08 62.89 62.68 62.33 62.68"/><polygon class="cls-175" points="61.78 62.68 50.01 33.08 50.56 33.08 62.33 62.68 61.78 62.68"/><polygon class="cls-176" points="61.22 62.68 49.45 33.08 50.01 33.08 61.78 62.68 61.22 62.68"/><polygon class="cls-177" points="60.67 62.68 48.9 33.08 49.45 33.08 61.22 62.68 60.67 62.68"/><polygon class="cls-178" points="60.11 62.68 48.34 33.08 48.9 33.08 60.67 62.68 60.11 62.68"/><polygon class="cls-179" points="59.56 62.68 47.79 33.08 48.34 33.08 60.11 62.68 59.56 62.68"/><polygon class="cls-180" points="59 62.68 47.23 33.08 47.79 33.08 59.56 62.68 59 62.68"/><polygon class="cls-181" points="58.45 62.68 46.67 33.08 47.23 33.08 59 62.68 58.45 62.68"/><polygon class="cls-182" points="57.89 62.68 46.12 33.08 46.67 33.08 58.45 62.68 57.89 62.68"/><polygon class="cls-183" points="57.33 62.68 45.56 33.08 46.12 33.08 57.89 62.68 57.33 62.68"/><polygon class="cls-184" points="56.78 62.68 45.01 33.08 45.56 33.08 57.33 62.68 56.78 62.68"/><polygon class="cls-185" points="56.22 62.68 44.45 33.08 45.01 33.08 56.78 62.68 56.22 62.68"/><polygon class="cls-186" points="55.67 62.68 43.9 33.08 44.45 33.08 56.22 62.68 55.67 62.68"/><polygon class="cls-187" points="55.11 62.68 43.34 33.08 43.9 33.08 55.67 62.68 55.11 62.68"/><polygon class="cls-188" points="54.55 62.68 42.78 33.08 43.34 33.08 55.11 62.68 54.55 62.68"/><polygon class="cls-189" points="54 62.68 42.23 33.08 42.78 33.08 54.55 62.68 54 62.68"/><polygon class="cls-190" points="53.44 62.68 41.67 33.08 42.23 33.08 54 62.68 53.44 62.68"/><polygon class="cls-191" points="52.89 62.68 41.12 33.08 41.67 33.08 53.44 62.68 52.89 62.68"/><polygon class="cls-192" points="52.33 62.68 40.56 33.08 41.12 33.08 52.89 62.68 52.33 62.68"/><polygon class="cls-193" points="51.78 62.68 40.01 33.08 40.56 33.08 52.33 62.68 51.78 62.68"/><polygon class="cls-194" points="51.22 62.68 39.45 33.08 40.01 33.08 51.78 62.68 51.22 62.68"/><polygon class="cls-195" points="50.66 62.68 38.9 33.08 39.45 33.08 51.22 62.68 50.66 62.68"/><polygon class="cls-196" points="50.11 62.68 38.34 33.08 38.9 33.08 50.66 62.68 50.11 62.68"/><polygon class="cls-197" points="49.55 62.68 37.78 33.08 38.34 33.08 50.11 62.68 49.55 62.68"/><polygon class="cls-198" points="49 62.68 37.23 33.08 37.78 33.08 49.55 62.68 49 62.68"/><polygon class="cls-199" points="48.44 62.68 36.67 33.08 37.23 33.08 49 62.68 48.44 62.68"/><polygon class="cls-200" points="47.89 62.68 36.12 33.08 36.67 33.08 48.44 62.68 47.89 62.68"/><polygon class="cls-201" points="47.33 62.68 35.56 33.08 36.12 33.08 47.89 62.68 47.33 62.68"/><polygon class="cls-202" points="46.77 62.68 35.01 33.08 35.56 33.08 47.33 62.68 46.77 62.68"/><polygon class="cls-203" points="46.22 62.68 35 34.46 35 33.08 35.01 33.08 46.77 62.68 46.22 62.68"/><polygon class="cls-204" points="45.66 62.68 35 35.86 35 34.46 46.22 62.68 45.66 62.68"/><polygon class="cls-205" points="45.11 62.68 35 37.26 35 35.86 45.66 62.68 45.11 62.68"/><polygon class="cls-206" points="44.55 62.68 35 38.65 35 37.26 45.11 62.68 44.55 62.68"/><polygon class="cls-207" points="44 62.68 35 40.05 35 38.65 44.55 62.68 44 62.68"/><polygon class="cls-208" points="43.44 62.68 35 41.45 35 40.05 44 62.68 43.44 62.68"/><polygon class="cls-209" points="42.88 62.68 35 42.85 35 41.45 43.44 62.68 42.88 62.68"/><polygon class="cls-210" points="42.33 62.68 35 44.24 35 42.85 42.88 62.68 42.33 62.68"/><polygon class="cls-211" points="41.77 62.68 35 45.64 35 44.24 42.33 62.68 41.77 62.68"/><polygon class="cls-212" points="41.22 62.68 35 47.04 35 45.64 41.77 62.68 41.22 62.68"/><polygon class="cls-213" points="40.66 62.68 35 48.44 35 47.04 41.22 62.68 40.66 62.68"/><polygon class="cls-214" points="40.11 62.68 35 49.84 35 48.44 40.66 62.68 40.11 62.68"/><polygon class="cls-215" points="39.55 62.68 35 51.23 35 49.84 40.11 62.68 39.55 62.68"/><polygon class="cls-216" points="38.99 62.68 35 52.63 35 51.23 39.55 62.68 38.99 62.68"/><polygon class="cls-217" points="38.44 62.68 35 54.03 35 52.63 38.99 62.68 38.44 62.68"/><polygon class="cls-218" points="37.88 62.68 35 55.43 35 54.03 38.44 62.68 37.88 62.68"/><polygon class="cls-219" points="37.33 62.68 35 56.82 35 55.43 37.88 62.68 37.33 62.68"/><polygon class="cls-220" points="36.77 62.68 35 58.22 35 56.82 37.33 62.68 36.77 62.68"/><polygon class="cls-221" points="36.22 62.68 35 59.62 35 58.22 36.77 62.68 36.22 62.68"/><polygon class="cls-222" points="35.66 62.68 35 61.02 35 59.62 36.22 62.68 35.66 62.68"/><polygon class="cls-223" points="35.1 62.68 35 62.41 35 61.02 35.66 62.68 35.1 62.68"/><polygon class="cls-224" points="35 62.41 35.1 62.68 35 62.68 35 62.41"/></g></g><path class="cls-225" d="M112.64,47.88a14.8,14.8,0,1,0,14.8-14.8A14.79,14.79,0,0,0,112.64,47.88Z" transform="translate(-0.25)"/><path class="cls-12" d="M117.6,57.53a14.81,14.81,0,0,0,19.68,0,9.85,9.85,0,0,0-6.06-8.48,7.05,7.05,0,1,0-7.56,0A9.87,9.87,0,0,0,117.6,57.53Z" transform="translate(-0.25)"/><path class="cls-226" d="M72.66,125.19c-.44.9.88,8.2,1.82,9.57s3.91-1.3,4.2-3.55-.66-5.55-.94-6.68S72.66,125.19,72.66,125.19Z" transform="translate(-0.25)"/><path class="cls-226" d="M98.49,123.49c-.66.75-1.24,9.34-.71,10.91s3.79-1.35,4.28-3.57,1.46-5.42,1.5-6.58S98.49,123.49,98.49,123.49Z" transform="translate(-0.25)"/><path class="cls-227" d="M87.25,107c-1.63,0-3.57-1.09-3-3a55.88,55.88,0,0,0-10.9,6.34c-1.65,1.43-2.75,8.2-1.82,15.6a12.8,12.8,0,0,0,7.09-.33c0-1.32-.16-4.65-.16-4.65s1.76,16.14,2.79,16.62c4.82,2.29,13.86,3,15-1.26,1.14-4.09.24-14.32.42-15.45.55,1.15.4,2.56,1.52,3.29s4.69,1.5,5.44.47,1.41-11.47-2.54-14.38-8.82-5.67-10.89-6.25C90.53,105.55,89.25,107,87.25,107Z" transform="translate(-0.25)"/><rect class="cls-228" x="71.73" y="130.48" width="31.64" height="19.18" rx="2.91"/><circle class="cls-229" cx="87.5" cy="140.5" r="2.5"/></g></g></svg>