<?xml version="1.0" encoding="utf-8"?>
<!-- Generator: Adobe Illustrator 23.0.3, SVG Export Plug-In . SVG Version: 6.00 Build 0)  -->
<svg version="1.1" id="Layer_1" xmlns="http://www.w3.org/2000/svg" xmlns:xlink="http://www.w3.org/1999/xlink" x="0px" y="0px"
	 viewBox="0 0 175 175" style="enable-background:new 0 0 175 175;" xml:space="preserve">
<style type="text/css">
	.st0{fill:#F3F8FE;}
	.st1{clip-path:url(#SVGID_2_);fill:#D2F0FF;}
	.st2{fill:#6E64C3;}
</style>
<g>
	<circle class="st0" cx="87.5" cy="87.5" r="87.5"/>
	<g>
		<defs>
			<circle id="SVGID_1_" cx="87.5" cy="87.5" r="87.5"/>
		</defs>
		<clipPath id="SVGID_2_">
			<use xlink:href="#SVGID_1_"  style="overflow:visible;"/>
		</clipPath>
		<rect x="29.1" y="154" class="st1" width="116.8" height="21.8"/>
	</g>
	<g>
		<path class="st2" d="M115,129.7l0,0.4l-0.3,0c0,0-0.2,0.3-0.3,0.3c0,0,0-0.3,0-0.3l-0.4,0.5l-0.1-0.4l-0.9-0.2c0,0,0,0.2-0.1,0.2
			c0,0-0.4,0.1-0.4,0.1l0.1,0.1l0.4,0l0.1-0.1l0.6,0.2l0.1,0.2l-0.2,0.1l0.2,0.3l0,0.2l-0.3,0l0,0.1l-0.1,0l-0.1,0.1l0,0.6l-0.2-0.2
			l0,0.6l-0.2,0.1l-0.1,0l-0.3,0.7l-0.4,0c0,0-0.4-0.5-0.4-0.5c0,0,0-0.2,0-0.2l-0.3-0.2l-0.1,0.3l-0.3,0l-0.1,0.3l-0.3,0.1
			l-0.3-0.1l0-0.4l-0.1-0.1l0-0.2l-0.2,0l-0.3,0.2l0-0.2l0.1-0.2L110,132l-0.2,0l0-0.2l-0.3,0l0,0.2l-0.2,0.2l0,0.2l-0.2,0.2
			l-0.2-0.1l0.1-0.1l0-0.1l0.2-0.2l0-0.2l0.1-0.1l-0.1-0.1l-0.2,0l0-0.2l-0.1-0.1l-0.3,0l0-0.3c0,0-0.1,0-0.2,0c0,0-0.1-0.2-0.1-0.2
			l-0.2,0l-0.1-0.1l0-0.3l-0.2,0l-0.3-0.1l0.1-0.4l0.2-0.2l0-0.5l0.1,0l0-0.4l-0.2-0.4l0.2-0.2l0-0.2l0.3,0.3l0.5,0l0,0.2l0.3,0
			l0.1-0.2l0.2,0l0.1-0.2l0.7,0l0-0.2l0.3,0l0.2-0.1l0.2,0l0.1-0.1l0-0.2l0.6,0l0.2,0.2l0.3,0l0.1,0.1l0.1,0l0,0.3l-0.1,0.1l0.4,0.3
			l-0.2,0.2l0.1,0.1l0.2,0l0.1,0.2l0.3,0l0.3-0.2l0.9,0l0.4,0.6L115,129.7z"/>
		<path class="st2" d="M128.7,119.7l-0.2,0.2l0,0.4l-0.5,1.1l-0.4,0.3l-0.5,1.5l0,0.3l-0.4,0.9l-0.2,0.3l-0.7,0.2l-0.5,0.5l-0.1,0.2
			l-0.3,0l-0.3-1.6l-0.3,0.1l-0.2,0.3l0.3,0.2l0.3,1.1l-0.2,0.4l-0.5,0.3l-0.2-0.9l-0.8-0.3l-0.1,0l0.1,0.1l0,0.1l0.6,0.4l0.1,0.4
			l-0.6,0l-0.4-0.3l-0.4,0.1l-0.4,0l0.2,0.3l1.6,0.1l0.2,0.2l-0.3,0.4l-0.4,0.2l0.1,0.5l0.5-0.2l0,0.2l-0.4,0.4l-0.5,0.3l-0.1,0.1
			l-0.9,0.2l-0.4-0.5l0.1-0.4l-0.3,0.1l-0.2-0.3l-0.3-0.2l-0.3,0.6l0.4,0.3l-0.4,0.2l-0.1-0.3l-0.4,0l-0.3,0.2l0.4,0.2l-0.8,0.3
			l-1.1,0l0.1,0.3l0.3,0.4l0.4,0l1.3-0.7l0.1,1.1l-0.2,0.4l-0.9,0.1l0.2,0.4l0.9-0.1l-0.9,0.8l0-0.3l0.1-0.2l-1,0l0.1,0.2l0.5,0.1
			l0.1,0.3l-0.4,0.2l-0.6-0.2l-0.6-0.1l-0.5-0.2l0.3,0.4l0,0.3c0,0-0.3-0.1-0.3-0.1c0,0-0.1-0.4-0.1-0.4l-0.3,0l0.2,0.3l-0.7,0
			l-0.7,0.6c0,0-0.6-0.1-0.6-0.1c0,0-0.2-0.3-0.2-0.3l-0.7-0.1l0-0.2l0.4-0.5c0,0,0,0.3,0,0.3c0,0,0.3-0.3,0.3-0.3l0.3,0l0-0.4
			l-0.3-0.3l-0.4-0.6l-0.9,0l-0.3,0.2l-0.3,0l-0.1-0.2l-0.2,0l-0.1-0.1l0.2-0.2l-0.4-0.3l0.1-0.1l0-0.3l-0.1,0l-0.1-0.1l-0.3,0
			l-0.2-0.2l-0.6,0l0,0.2l-0.1,0.1l-0.2,0l-0.2,0.1l-0.3,0l0,0.2l-0.7,0l-0.1,0.2l-0.2,0l-0.1,0.2l-0.3,0l0-0.2l-0.5,0l-0.3-0.3
			l0,0.2l-0.2,0.2l-0.1,0l0-0.5l-0.2,0l0.4-0.4l-0.1-0.1l-0.4,0l-0.1-0.1l0-0.3l0.2-0.1l-0.3-0.1l0-0.4l-0.1,0l-0.3-0.3l0-0.2
			l-0.6-0.9l0.5-0.2l0.2,0.5l0.2,0.2l0.1-0.1l0.4,0.3l0.3-0.3l-0.1-0.4l-0.8-0.8l-0.2,0.2l0-0.3l0.1-0.1l0-0.2l0.3-0.4l0-0.5
			l0.3-0.5l-0.1-0.2c0.2-0.2,0.5-0.8,0.5-0.8c0,0,0.1,0,0.1,0l-0.1-1l-0.3-0.3l0.3-0.5l-0.2-0.4l0.4-0.1l0.4,0.4l0-0.2l0.6-0.6
			l-0.2,0l0.6-0.1c0,0,0-0.2,0-0.1c0,0-0.2-0.2-0.2-0.2l-0.1-0.2l0.8-0.5l0.2,0l0.4-0.7l0.2,0l0-0.5l-0.3-0.6l-0.1-0.5l-0.4,0
			l-0.3-0.3l0.3-0.4l-0.1-0.3l0.1,0l0.2-0.1l0.9,0l0.4-0.1l0.4,0.4l0.3-0.3l0.2,0l0.5,0.4l0.4-0.3l0.5,0l0,0.2l0.8-0.1l0.4-0.6
			l0.6-0.1l0.8-0.3l0.2-0.5l0.8,0.2l0.9-0.8l0.2-1l0.5-0.4l2.3,0l0.8,0.5l1,0c0,0,1.1,0.5,1.1,0.5c0,0,0.7-0.1,0.7-0.1l0.7,0.4
			l1.4,1.3l0.6,0.9l0.2-0.1l0.5,0.7l0.2,0.7l0.2,0.2l-0.1,0.6l0.2,0.1l0,0.4l-0.2,0.1l0,0.6l-0.1,0.2l0.1,0.2l0,0.4l0.2,0.3
			l-0.4,0.2L128.7,119.7z"/>
		<path class="st2" d="M115.3,111.3c0,0-0.5-0.4-0.6-0.4c0,0,0.2,0.6,0.2,0.6s-0.7,0.4-0.7,0.4c0,0,0,0.2,0,0.2l0.4-0.1l1,0.2
			l0.5,0.6l0,0.3l0.4,0.3l-0.2,0.5l-0.8,0.3l-0.6,0.1l-0.4,0.6l-0.8,0.1l0-0.2l-0.5,0l-0.4,0.3l-0.5-0.4l-0.2,0L112,115l-0.4-0.4
			l-0.4,0.1l-0.9,0l-0.2,0.1l-0.1,0l0.1,0.3l-0.3,0.4l0.3,0.3l0.4,0l0.1,0.5l0.3,0.6l0,0.5l-0.2,0l-0.4,0.7l-0.2,0l-0.8,0.5l0.1,0.2
			c0,0,0.2,0.2,0.2,0.2c0,0,0,0.1,0,0.1l-0.6,0.1l0.2,0l-0.6,0.6l0,0.2l-0.4-0.4l-0.4,0.1l0.2,0.4l-0.3,0.5l-0.4,0l-0.5,0.1
			l-0.3,0.3l-0.2,0c0,0,0,0.2,0,0.2c0,0-0.5,0.1-0.5,0.1l0,0.4l0.3,0.4l-0.4,0.3l0,0.1l-0.3,0.1l-0.3-0.7l-0.7-0.1l0,0.1l-1.1,0.3
			l0,0.3l0.1,0l-0.7,0.6l0-0.2l-0.7-0.1l0-0.8l-0.2,0l0-0.2l0.1-0.4l-0.2-0.2l0.5-0.1l-0.5-1l0.1-0.3l0.4,0l0.4-0.8l0.3-0.1l0.2-0.7
			l-0.4-0.3l0-0.2l0.6,0l0.1-0.1l0.2,0l0-0.1l-0.3-0.4c0,0,0-0.2-0.1-0.3c0-0.1-0.1-0.4-0.1-0.4c-0.1-0.1-0.4-0.5-0.5-0.7
			c-0.1-0.2-0.6-0.6-0.7-0.7c-0.1-0.1-0.5-0.5-0.5-0.5l-0.2-0.1l-0.3-0.3l-0.3-0.7l0.2-0.5c-0.2-0.1-0.3-0.6-0.3-0.6l-0.6-0.4
			l-0.4-0.1l0.4-0.6l0.2-0.1l0.2,0l0.1,0.1l0-0.1l0.1-0.2l-0.2-0.3l0.3-0.1l-0.5-0.5l-0.3,0l-0.4-0.2l0-0.1l-0.7-0.3l-0.1-0.2l0-0.5
			l0.3-0.1l0.1-0.4c0.2-0.1,0.5-0.4,0.5-0.4l0-0.4l-0.1-0.1l0-1.3l-0.1-0.5l-0.4-0.4l-0.8-0.3l0-0.8l0.1-0.8l0-0.5l-0.2-0.3l0.4-0.6
			l-0.1,0c0,0,0-0.3,0-0.3c0,0-0.1,0-0.1,0l0.4-0.2l0-0.2l0.1-0.1l0.1-0.5l0.6-0.5l0.7,0.4c0,0,0.1,0.3,0.2,0.6l1,1.5l-0.2,0.3
			l0.6,0.8l0.2-0.2l0.4,0.3l0.4-0.2l0,0.2l0.3-0.3l0.5,0l0,0.3l0.4,0.2l0.1-0.2l0.2,0l0.4,0.4l0.6-0.1l0.1-0.1l0.2,0l0.1-0.2
			l-0.1-0.1l0.3-0.3c0,0,0.3-0.5,0.4-0.7l0.7,0l0.8-1l0.2,0.7l1,0.1c0,0,0.5-0.7,0.5-0.8l1,0.6l-0.2,0.4l0.8,0.1l0.7-0.2l-0.2-0.4
			l0.7-0.3l-0.7-0.4l0.7-0.3l0.5,0.3l0.6-0.7l0.8,0.7l-0.3,0.5l0.1,0.7l0.4,0.7l0.4-0.1l0.3-1l0.1,0.2l0.6-0.1l0.1,0.1l0.5,0.6
			l0.5,1l0.5,0.6l0.6,2.5l-0.3,1.1l0,0.5l-1.8,0.9L115.3,111.3z"/>
		<path class="st2" d="M117.2,101.1l-0.2,0.3c0,0-0.3,0-0.3,0c0,0,0.2-0.5,0.2-0.5l-0.9-0.6l-0.2,0.3l-0.2,0l-0.6-0.4l-0.8-1.3
			l-0.5-0.3c0,0-0.4,0.2-0.8,0.2c-0.4,0-1.1,0.1-1.1,0.1l-0.5-0.3l-0.5,0l-0.5,0.2l0,0.3l0.6-0.2l0.6,0.7l0.8-0.3l0.4,0.2l0.6-0.2
			l0.5,0.3l0.4,0.8c0,0,0.6,0.7,0.6,0.7c0,0,0.8,0.5,0.8,0.5l-0.1,0.3l0.3,0.3l-0.6,0.1l-0.1-0.2l-0.3,1l-0.4,0.1l-0.4-0.7l-0.1-0.7
			l0.3-0.5l-0.8-0.7l-0.6,0.7l-0.5-0.3l-0.7,0.3l0.7,0.4l-0.7,0.3l0.2,0.4l-0.7,0.2l-0.8-0.1l0.2-0.4l-1-0.6c0,0.1-0.5,0.8-0.5,0.8
			l-1-0.1l-0.2-0.7l-0.8,1l-0.7,0c-0.1,0.2-0.4,0.7-0.4,0.7l-0.3,0.3l0.1,0.1l-0.1,0.2l-0.2,0l-0.1,0.1l-0.6,0.1l-0.4-0.4l-0.2,0
			l-0.1,0.2l-0.4-0.2l0-0.3l-0.5,0l-0.3,0.3l0-0.2l-0.4,0.2l-0.4-0.3l-0.2,0.2l-0.6-0.8l0.2-0.3l-1-1.5c0-0.3-0.2-0.6-0.2-0.6
			l-0.7-0.4l-0.2-0.3l-0.2-0.5c0,0-0.3-0.4-0.4-0.5l0-0.9l-0.6,0l-0.2-0.1c0,0,0.1-0.4-0.2-0.7l0.5-0.3c0,0,0.1-0.6,0.2-0.7
			c0.2-0.1,0.6-0.3,0.6-0.3l0.2-0.3L99,94.6l0-0.3l-0.5-0.4l0-0.3l-0.3-0.4l-0.4,0l-0.5-1.1l-0.8-0.1l0-0.4l-0.6-1l1-1.1l1.2-0.3
			l-0.1-1.4l0.7-0.3c0,0,0.1-0.8,0.1-0.8c0,0,1-0.1,1-0.1l0.5,0l0.6-0.1l0.6,0.6l0.1,0l2-0.8l0.1-0.2l0.1,0.2c0,0,0.8,0.2,0.9,0.5
			c0.1,0.3,0.8,0.7,0.8,0.7l0.1-0.2l0.3,0l0,0.1L106,87l0.1,0l0,0.2l0.1-0.2l0,0.4l1-0.2l0.2-0.3l0.1,0l0.1,0.2l0.5,0l0.4,0.1l0.3,0
			l0.1,0.1c0,0,1,0,1.5,0.3l0.5-0.8l0.7,0.4l-0.1,0.2l0.4,0.1l0.9,0.9l0.3,0.9l0.2,0.6l0.3,0.6l0.2,0.8l0.7,0.6l0.1,0.7L115,93
			l0.3,0l0.2,0.3l0.3,0l0,0.3l-1,0.7l0.1,1.6l0.2,0.2l-0.1,0.6l1.3,2.3l0,0.3l0.3,0.2L117.2,101.1z"/>
		<path class="st2" d="M111.2,86.7l-0.1,0.1l-0.5,0.8c-0.5-0.2-1.5-0.3-1.5-0.3l-0.1-0.1l-0.3,0l-0.4-0.1l-0.5,0l-0.1-0.2l-0.1,0
			l-0.2,0.3l-1,0.2l0-0.4l-0.1,0.2l0-0.2l-0.1,0l-0.2,0.3l0-0.1l-0.3,0l-0.1,0.2c0,0-0.6-0.4-0.8-0.7c-0.1-0.3-0.9-0.5-0.9-0.5
			l-0.1-0.2l-0.1,0.2l-2,0.8l-0.1,0l-0.6-0.6l-0.6,0.1l-0.5,0l0.2-0.1l0-0.7l-0.2-0.3l-0.8-0.9l0-0.6l0.3-0.1l-0.5-0.7l0.3-0.4
			l0.3-0.9L98.8,81c0,0-1.2,0.2-1.2,0.2c0,0-0.3-0.5-0.3-0.5l0-0.6l0.4-0.9l0.1-0.9l0.7-0.1l0.1-0.7c0,0-0.8-0.3-0.8-0.3
			c0,0-0.6-1.4-0.6-1.4l1.3-1.4l0.3-0.2l0.5-0.5l1.2,0l0-0.4l1.5-0.9l-1-2.5l0.4-0.2l0.4,0.2l0.3-0.4l0.7-0.6l0.6-0.5l0.4-0.5l0,0
			l0.3,0.5l0,0.4l1.2,2.1l0.8,0.3l0.3,0.3l0.1,0.6l0.1,0.2l-0.2,0.2l0.2,0.6l-0.2,1l-0.2,0.4l0.4,0.9l-0.2,0l0,0.8l0.1,0.4l0.3,0.1
			l0,0.5l-0.5,0.4l0.3,0.2l0,0.4l0.2,0.3l-0.1,0.5l0.3,0.3l0,0.3l0.2,0.3l0.1,0.5l-0.1,0.4l-0.2,0.1l0.2,0.2l0,0.7l0.1,0.2l0,1
			l0.4,0.7l0.6,0.5l-0.3,0.1l0.1,0.2l-0.3,0.7l0.3,0.2l0.2-0.4l0.7,0.4l0.2,0.4l0.5,0.3l0.3-0.1l0.3,0.3L111.2,86.7z"/>
		<path class="st2" d="M73.4,81.4l-0.3-1.4l0-0.6l0.1-0.1l-0.3-0.4l-0.5-0.1l-0.3,0l-0.6-0.3l-0.8,0.2L70.6,79l-0.2-0.2l-0.3-0.1
			l0.1-0.4l0.3,0l0.7-0.4l0.4-0.1l0.4-0.2l0.2-0.3l0-1.1l-0.5-0.1l-0.1-0.3l0-0.2l-0.2-0.2L70.7,74l0.2-1.1l-0.6-0.4l0-0.2l0.3-0.7
			L70,70.2l-0.8,0.2l-0.2-0.2l-0.8-0.5l-1.2-0.2l-0.7,0.3l-0.9,0L65.4,70l-1,0l-1-0.1l-0.6,0.9l-0.3,0.3l-0.9,0l-0.5-0.2l-0.3,0
			l0-0.2l-0.6,0.1c0,0-0.1-0.2-0.1-0.2c0,0-0.2,0.1-0.2,0.1l-0.5,0.5L59.3,72l-0.4,0l-0.1,0.5l0,0.3l-0.2,0.5l-0.2,0
			c0,0-0.1,0.2-0.1,0.2c0,0-0.4,0.3-0.4,0.3l-0.3,0.3l-0.4,0.4l0-0.1l-0.8,0l-0.9,0.1l-0.3-0.4c0,0-0.7,0.3-0.7,0.3
			c0,0-0.1,0.6-0.1,0.6s0.2,0.1,0.2,0.1c0,0,0.2,0.4,0.2,0.4l0.3,0l0.8,0.3l0,0.4L55,76.3l-0.5,0.6l-1.2-0.4l-0.4,0.4l-0.6,0.3
			l-0.1,0.2l-0.6-0.1l0,0.1l0.3,0.7l0.3,1l0.4,0.5l0.1,0.4l0.4,0.1l0.2,0.2l-0.1,1.1l0.4,0.3l0.9,0.4l0.5,0.3l0,0.3l0.5,0.4l0.2,0.2
			l0.3,0.1c0,0,0.3-0.1,0.4-0.2c0.1,0,0.3-0.1,0.3-0.1l-0.1,0.2l0.3,0.3l0.2,0.1l0.2,0.2l0.2-0.1l0-0.3l0.1-0.2l0,0.5l0.4-0.2
			l0.3-0.7l0.5-0.1l0.3,0l0-0.7l-0.3-0.4l0.3-0.6l0.3,0.1l0.5-0.4l0.3-0.3l0.4-0.3l0.6,0.5l0.2,0.4l0,0.3l0.2,0.1l0.1,0.3l-0.3,0.5
			l0,0.3l0.3,0.1l0,0.6l0.6,0.8l0.1-0.2l0.3-0.1l0.3,0.4l0,0.4L62.5,85l0,0.5l0.1,0.5l0.3-0.1l0.1-0.2l0.7,0.2l0.3-0.3l0.4,0.4
			l0.3-0.1l0.3-0.6l0.3,0.4l0.3-0.3l0.3,0.3l0.4,0l1.2,1.3l0.3-0.3l0.3,0l0.5-0.4l0.5-1.1l0-0.5l0.4-0.3l0.3-0.5
			c0,0-0.1,0.4-0.1,0.4c0,0,1.2,0.6,1.2,0.6l0.4-0.4l0.8-0.6l0.2,0l-0.1-0.8L72,82.8L71.3,83l-0.1-0.1l0.4-0.4l0.3-0.6l-0.2-0.2
			l0-0.2l0.2-0.5l-0.3-0.2l0-0.4l0.2-0.2l0.2,0l0.7,0.7l0.2,0.8l0,0.4l-0.2,0.3l-0.2,0l0,1.1l0.1,0.3l0.6-0.8l0-0.6L73.4,81.4z
			 M67,78.3c0,0,0.2,0.6,0.2,0.6l-0.7,0.7l-0.4,0.6l-0.3-0.4l-0.5-0.2l-0.5,0.1l-0.4-0.2l0.2-0.7l0.8-0.7l0.6-1.1l0.1-0.5l0.3,0.3
			l0.1,0.5l0.6-0.2l0.6,0.1C67.7,77,67,78.3,67,78.3z"/>
		<g>
			<path class="st2" d="M100.1,122.3l-0.1,0.4l-0.8,0.4c0,0-0.4-0.4-0.4-0.4c0,0,0,1.3,0,1.3l-0.4,0.5l-0.4,1.8l0.3,0.6l-0.3-0.1
				l0.1,0.9l-0.4,0.7l0.5,0.1l0.2,0.8l0.2,0l0,0.6l0.3,0.4l-0.4,0.5l0.6,1.3l-0.6,1.1l-0.3,0l0-0.2l-1.1,0.4l-0.1,0.3l0.3,0.2l0,0.7
				l-0.1,0l0.2,0.6l0,0.8l0.3,0.3l-0.3,0.8l-0.6,0l-0.5-0.4l-0.2,0l-0.5-0.6c0,0-0.4,0.3-1.1,0.3c0,0,0.1,0.4,0.4,0.5
				c0.3,0.2,0.5,0.6,0.6,0.7l-0.3,0.1l-0.1,0.4c0,0,0.4,0.3,0.5,0.4l-0.3,0.3l0,0.1l0.1,0c0,0-0.1,0.1-0.1,0.1c0,0,0.1,0.4,0.1,0.4
				l0.2,0l0.2,0.3l0.6,0l-0.2,0.1l0,0.1l-0.7,0l0.1,0.2l-0.4-0.1l-0.2-0.2l-0.7,0l-0.2,0.2l-0.4,0l-0.2-0.3l-0.3-0.3l-0.3,0l0,0.3
				l-0.6,0.1l-0.1,0.2l1.4,0.3l0.1,0.5l-0.3,0.3l0,0.3l-0.2,0.2l-0.7,0l-0.1-0.2l-0.4,0l-0.3-0.3l-0.9-0.1l-0.9-0.3l-0.3-0.3l-0.4,0
				l-0.2,0.4l0,0.3l0.1,0.2l0.1,0.4L89,142l-0.3,0l0.3-0.4l-0.1-0.3l-0.2,0l-0.2-0.4l-0.7-0.8l-0.5-0.4l-0.4-0.3l-0.4-0.4l-0.4-0.1
				l-0.6-0.3l-0.6,0.1l-1.2-0.1l-0.1,0.2l-1.4,0l-0.3,0.1l0,0.2l-0.2,0.2l-0.4,0l-0.1,0.3l-0.5-0.1l0-0.4l-0.2-0.2l0-0.5l-0.2-0.2
				l0,0.4l0.1,0.7l0.1,0.1l-0.3,0.2l0,0.3l-0.3,0.3l-0.8,0.1l0,0.2l0.4,0l0.1,0.8c0,0-0.3,0.1-0.3,0.2c-0.1,0.1-0.4,0.4-0.4,0.4
				l0,0.4l0.4,0.1l0.2,0.3l-0.3,0.1l0,0.4l-0.3,0.1l-0.3-0.2l0.1,0.4l-0.3,0.1l-0.2,0l-0.3,0.5l-0.1,0.8l-0.3-0.1l-0.4,0.3l-0.4-0.6
				l0,0.3l-0.3,0l-0.2-0.3l-0.3-0.2c0,0,0.3-0.7,0.3-0.7c0,0-0.7-0.1-0.7-0.1l-0.4-0.3l-0.4,0.1l-0.4-0.2l0-0.2l-0.3,0
				c0,0-0.1-0.4-0.1-0.4c0,0,0.1-0.2,0.1-0.2l-0.4-0.2l-0.1-0.3l-0.2-0.2l-0.3,0.1l-0.5-0.2l-0.1-0.2l-0.2,0.2l0.8,0.4l-0.1,0.2
				l0.3,0.2l0.3,0l0,0.2l-0.2,0l0,0.4l-0.4-0.1l0-0.4l-0.5-0.4l-1.3-0.1l-0.4-0.4l-0.1,0.2l0.2,0.2l-0.1,0.3l-0.9-0.2l-0.5,0
				l-0.4,0.1l0-0.6l-0.7,0.3l0,0.3c0,0-0.2,0.1-0.2,0.2c0,0-0.1,0.4-0.1,0.4l0.1,0.2l-0.3,0.3l-0.7-0.2l-0.6,0.4l-0.5,0l-0.2,0.5
				l-0.4,0.1l0.1-0.9l-0.4-0.1l-0.2,0.1l0.2,0.2l-0.1,0.4l0.1,0.2l-0.2,0l-0.3,0.5l-0.4-0.2l0,0.2l0.5,0.2l0.2,0.5l-0.6,0.6
				l-0.6-0.1l-0.4,0.6l-0.4-0.2l-0.2-0.5l0.1-0.4l-0.2-0.7l-0.3-0.3l-0.4,0l-0.1-0.2l-0.4-0.1c0,0-0.1-0.3-0.1-0.3
				c0,0-0.5-0.2-0.5-0.2l-0.3,0.2l0.1,0.3l-0.3,0.4l-1.1,0.2l-0.2-0.3l-0.2-0.1l0-0.3c0,0,0.2-0.2,0.2-0.2l0.1-0.3l-0.2-0.1l0.5-0.4
				l0.6,0l0.4-0.4l0.5-0.2l0.3,0l0.1,0.4l0.4,0.1c0,0,0.5-0.7,0.5-0.7c0,0,0.5,0.2,0.5,0.2s0.4-0.3,0.4-0.3c0,0,0.3-0.1,0.3-0.1
				l0.3-0.4l0.5-0.1l0.5-0.7l-0.1-0.3l0.3-0.1l0.3,0.1l0.5-0.6l0.1-0.6l0.2-0.1l0-0.5l0.2-0.1l0.1,0.2l0.5-0.2l0.2,0.2l0-0.5
				c0,0,0.5,0.1,0.5,0.1c0,0,0.3-0.3,0.3-0.3s0.2,0.4,0.2,0.4c0,0,0.5-0.4,0.5-0.4c0,0,0.1-0.6,0.1-0.6c0,0,0.5-0.2,0.5-0.2l0.3,0
				L70,136l0-0.3l0.9-0.6l0.3-0.8c0,0,0-1,0-1c0,0,0.3-0.2,0.3-0.2s0.2-1,0.2-1c0,0,0.2-0.2,0.2-0.2l0.6,0.3l0.3,0l0.4,0.4l0.5,0
				l0.6-0.5c0,0,0.3-0.1,0.4-0.1c0,0,0.1,0.1,0.1,0.1l-0.2,0.5l0.2-0.1l0.4-0.7l0.9,0l-0.2-0.2l-0.9,0l-0.3-0.7l0-0.3l0.3,0.1
				l0.2-0.7l0.8,0l0.5,0.2l0.2-0.2l1.1,0.1l0.3,0.2l0.1-0.2l0.9,0l0.3,0.2l1.3,0.3l0-0.2l0.8,0.2l0,0.3l0.3,0.1l0.1,0.4l1.1,0.2
				l0.2,0.2l0.4-0.2c0,0,1.5,0,1.5,0c0,0,0.2-0.1,0.2-0.1l-0.2,0.8l0.2,0.3l0.2-0.2l-0.1-0.6l0.3-0.2c0,0-0.2-0.3-0.2-0.4
				c0,0,0.2-0.1,0.2-0.1l-0.2-0.3l0.1-0.6l0.2,0.1l0.1-0.6l0.4-0.3l-0.1-0.3l0.9,0.2l0.1-0.5l1.1-0.9l0.3,0l0.2,0.4l0.3,0l-0.2-0.6
				l0.6-1l1.6-1.4l1-0.5l-0.5-0.7l0,0.3l0.2,0.1l-0.6,0.3l-0.5,0.5l-0.7,0.3l-0.5,0.8l-0.1-0.1l0-0.1l0-0.1l-0.2,0l0-0.2l0.1-0.1
				l-0.1,0l0-0.2l0.1-0.1l0-0.3l0.1,0l-0.2-0.1l0-0.3l0.3-0.3l0-0.6l0.3-0.4l0.4-0.4l0.3,0.2l0-0.2c0,0,0.5,0,0.5,0
				c0,0,0.4-0.3,0.4-0.3l0.4,0c0,0-0.2-0.5-0.2-0.9l-0.1-0.2L92,121l0.1,0.3l0.3,0.3l0.1-0.1l0-0.2l0.4,0c0,0,0.2,0.7,0.2,0.8l0.3,0
				l0.7-0.3l0.2,0l-0.2-0.4l0.1-0.3l0.4,0.2l-0.3,0.4l0.1,0.2l0.3-0.1l0.4,0.2l0.2,0l0.2-0.1l0.8-0.3l0.6,0.7l0.1-0.3l-0.3-0.7
				l0.3,0l0.5-0.3l0.2-0.1l0.1,0.3l0.2,0.2l0.2,0.5l0.2,0.3l0.5,0L100.1,122.3z"/>
			<polygon class="st2" points="70.9,129.3 70.9,129.9 70.7,130 70.7,129.4 			"/>
		</g>
		<g>
			<path class="st2" d="M71.2,123.2c0,0-0.1,0.2-0.1,0.2l-0.2,0l0-0.2L71.2,123.2z"/>
			<g>
				<path class="st2" d="M90.9,107.7l-0.1,0.2l0,0.3c0,0-0.5,0.1-0.7,0.3l-0.4-0.7l-0.8-0.4l0-0.2l-0.4,0.2l0,0.1l-0.4,0.1l-0.3,0
					l-0.3,0.3l-0.2,0.1c0,0-0.1,1-0.3,1.3l0.3,0.3l0.3-0.2l0.6,0.9l0.2,0.2l-0.4,0l-0.3,0.9l-0.4,0.3l0.1,0.1l-0.8,0.5l0.2,0.5
					l-0.2,0.3l1.1-0.4l0.1,0.3l-0.1,0.3l-1.4,0.4l-0.7,0.4l1.2,1.7l0.9,0.1l-0.6,0.3l-0.1,0.6l0.3,0.4l-0.5-0.1l-0.4,0.4l-0.8,1.3
					l0.3,0.3l-0.3,0.5l0,0.2l0.3,0.3l0,0.8c0,0,1,1.1,1,1.1c0,0,0.9,0.3,0.9,0.3l0.7,1.1l0.3-0.1l0.1,0.3l0.3,0.1l-0.3,0.4l0,0.6
					l-0.3,0.3l0,0.3l0.2,0.1l-0.1,0l0,0.3l-0.1,0.1l0,0.2l0.1,0l-0.1,0.1l0,0.2l0.2,0l0,0.1l-0.6,0.7l-0.7,0l-0.2,0.2l-1.5-0.1
					l-1.1,0.6l-0.3-0.2l-0.1,0.3l-0.6,0.1l0,0.2l0.1,0l0.1,0.7l-0.8,0l0,0.2l-1-0.2l-0.3-0.3l-0.3,0.3l-0.7-0.4l-0.6-0.6l-0.1-0.6
					l-0.3-0.2l-0.3,0.1l-0.2-0.4l-0.3-0.1l0.1-0.4l-0.5-0.6l0.2-0.2l-0.3-0.2l0-0.7l-0.3,0.3l-0.4,0.2l0-0.4c0,0,0,0.3-0.2,0.3
					c-0.2,0-0.5,0.1-0.5,0.3c0,0.2,0,0.2,0,0.2s-0.3,0.1-0.3,0.1c0,0-0.6,0-0.6,0l-0.1-0.3l-0.4,0.4l-0.8-0.1l-0.4-0.3l0.1-0.3
					l-0.1-0.4l0.6-0.2c0,0,1.4-0.1,1.4-0.1c0,0,0.2,0.1,0.2,0.1l-0.1-0.3l0.3-0.3l-0.4-0.1l0,0.3l-0.2,0.1c0,0-0.3-0.1-0.5-0.2
					c-0.2-0.1-0.3-0.2-0.3-0.2s-0.2,0.1-0.4,0.1l-0.7-0.7l0.3-0.1l-0.3-0.4l-0.1-0.4c0,0-0.6,0.1-0.6,0.1c0,0,0.1,0.4,0.1,0.4
					l-1.2-0.1l-0.9,0l-0.3,0.2l0.2,0.2c0,0-0.3,0.3-0.4,0.6c0,0-0.5-0.2-0.5-0.2c0,0,0,0.2,0,0.2l-0.5,0l-0.1-0.2l-0.5,0l-0.5,0.6
					l-0.3-0.3l-0.4,0l-0.4-0.4l0.2-0.4l-0.3-0.4l0.2-0.2L68,122c0,0,0.2-0.2,0.2-0.2c0,0,0.8,0.6,0.8,0.6l0.1-0.3l-0.2-0.2l0.3,0
					l0-0.2l-0.2-0.3l-0.2,0.2l-0.4,0.1l0-0.2l-0.4,0l-0.1-0.1l0.1-0.3l-0.2,0l-0.1,0.2l-0.5,0.1l0,0.4l-0.3,0l0-0.4l-0.4-0.4
					l0.1-0.2c0,0,0.2,0.2,0.2,0.1c0,0,0.2-0.3,0.2-0.3s0.7-0.1,0.7-0.1c0,0,0.2-0.3,0.2-0.3l0-0.9l-0.6-0.2l0-0.2l-0.7,0l-0.2,0.1
					l0-0.6l0.4-0.2l0.6,0c0,0,0.2-0.3,0.2-0.3c0,0,0.4,0,0.4,0l0.1,0.1l0.2-0.3l0.3-0.1l0.1-0.6l0.2-0.2l0.5,0.3l0.2,0l-0.2,0.2
					c0,0,0.4,0,0.4,0c0,0,0.3-0.1,0.3-0.1l0.2-0.3l0.1,0.3l0.5,0.1l-0.1-0.4l0.4-0.2l0.3-0.1l0.3-0.5l0.4,0l0.2,0.1l0-0.3l0.4-0.1
					l0.4,0.2l0.3-0.1l0,0.2l0.6-0.1l0.2-0.3l0.7-0.5l0.6,0.1l1.3-0.5l0.4-0.5l0.5-0.4l0.4-0.9l0.2-0.7l0.4-0.6l1-0.4l-0.5,0
					l-0.7-0.2l0.1-0.4l0.2-0.3l-0.5-0.2l0.9-1l0.8-0.5l-0.8,0.1l-0.2-0.7l-0.4-0.6l0.3-0.5l0-0.7l1.2-0.5l-1,0l-0.1,0.2l-1-0.1
					l-0.6-0.2l0,0.3l-0.8-0.2l-0.3,0.4l-0.4,0.1l-0.2,0.5l0,0.3l-0.4,0.1l0-0.4l-0.3-0.4l-0.4,0.4l-0.7-0.1l-0.2,0.2l-0.2-0.3
					l0.2-0.4l0.2,0l0.1-0.4c0,0,1.5-0.9,1.5-0.9c0,0,0.7,0.1,0.7,0.1l0.3-0.5c0,0,0.5-0.2,0.6-0.2c0,0,0.6-0.4,0.6-0.4l0.4-0.8
					l0-0.5l0.4-0.1l0.5-0.5l0.1-0.2l0.9-0.4c0,0,0.2,0.2,0.2,0.2c0,0,0.7-0.1,0.7-0.1l0.7-0.3l0.4,0c0,0,0.4,0.1,0.4,0.2
					c0,0,0,0.3,0,0.3l0.3-0.1l0-0.4l-0.3-0.3l-0.1-0.5c0,0,0.2-0.1,0.2-0.1c0,0,0.1,0.4,0.1,0.4c0,0,0.4-0.1,0.4-0.1l0.3,0.4
					l-0.1,0.2l2.1,0.1l0.1-0.3l0.4,0.1l0.5-0.2l1.3,0.9l0,0.4l0.9,0.7l0.1-0.2l0.3,0l0.7,0.8l0-0.1l0.1,0.1l-0.1,0.1l0.1,0.1
					l-0.3,0.3l-0.4,0l0.2,0.4c0,0,0.5,0.4,0.5,0.4c0,0-0.1,0.2-0.1,0.2l0.3,0.6l0.1,0.7l0.8,0.5L90.9,107.7z"/>
				<path class="st2" d="M76,101.1c0,0,0.1-0.7,0.1-0.7c0,0,0.1-0.1,0.1-0.1l-0.2-0.2l-0.2,0.2l-0.1-0.3l-0.3,0l-0.1,0.6l0.3,0
					C75.6,100.5,75.8,101,76,101.1z"/>
				<path class="st2" d="M76.7,99.2l-0.2,0l0.1-0.3l0.9,0l0.4-0.2l0.5,0.3l0.6,0.1l-0.3,0.7l0.4,0.1l0.2,0.3l0,0.5l0.4,0l0.3-0.2
					l0.6,0.1l0.2,0.2l-0.7,0.7c0,0-0.4,0-0.4,0c0,0-0.2,0.2-0.2,0.2l-0.2,0l-0.3,0.3l-0.8,0.6l-0.4,0.2l-0.5-0.3l-0.2-0.5l-0.2,0
					l-0.3-0.3l0.2-0.1l0.1-0.6l-0.5-0.4l0-0.4l0.4-0.2l-0.3-0.5L76.7,99.2z"/>
			</g>
		</g>
		<g>
			<path class="st2" d="M98.6,87.5l-0.7,0.3l0.1,1.4l-1.2,0.3l-1,1.1l0.6,1l0,0.4l0.8,0.1l0.5,1.1l0.4,0l0.3,0.4l0,0.3l0.5,0.4
				l0,0.3l0.4,0.7l-0.2,0.3c0,0-0.4,0.2-0.6,0.3c-0.2,0.1-0.2,0.7-0.2,0.7L98,96.8c0.2,0.3,0.2,0.7,0.2,0.7l0.2,0.1l0.6,0l0,0.9
				c0.1,0.1,0.4,0.5,0.4,0.5l0.2,0.5l0.2,0.3l-0.6,0.5l-0.1,0.5l-0.1,0.1l0,0.2l-0.4,0.2c0,0,0.1,0,0.1,0c0,0,0,0.3,0,0.3l0.1,0
				l-0.4,0.6l0.2,0.3l0,0.5l-0.1,0.8l0,0.8c0,0-0.2,0.3-0.3,0.3c0,0-0.3,0.1-0.3,0.1l-0.4,0l-0.3-0.3l-0.1,0.4l-0.3,0.1l-0.5,0.5
				l-0.3,0.2l-0.6,0l-0.3,0.3l-0.4,0.8c-0.3,0-0.8,0.4-0.8,0.4l-0.4-0.3l-0.5,0.1l-0.3-0.3l0-0.2l-0.2,0l-0.4-0.2l-0.3,0.2l-0.8-0.5
				l-0.1-0.7l-0.3-0.6c0,0,0.1-0.2,0.1-0.2c0,0-0.5-0.4-0.5-0.4l-0.2-0.4l0.4,0l0.3-0.3l-0.1-0.1l0.1-0.1l-0.1-0.1l0,0.1l-0.7-0.8
				l-0.3,0l0-0.1l-0.3-0.2l0-0.4l0.1-0.2l-0.6-0.9l0.4-0.6l0.5-0.1l0.3-0.2l0.2,0.2l0.1,0.4l0,0.4l0.4,0.9l0.5,0.4l0.7,0l1.1-0.6
				l-0.2-0.2l-0.5,0l-0.1,0.3l-0.5,0l-1.1-1.1l-0.1-0.8l-0.3-0.2l0-0.7l-0.2-0.3l0.2-1l0.7-0.7l0.4-0.5l0.2,0.3l0.3-0.7l0.3,0.3
				l0.3-0.3l-0.5-0.3l-0.2,0.2l-0.5,0l-0.1-0.3l-0.3-0.1l0-0.4l0.1-0.1l0-0.6l0.2-0.1l0-0.5l0.1-0.5l0.2-0.1l0.2,0.2l-0.1,0.4
				l0.2,0.2l-0.2,0.2l0.4,0.1L92,93.2l0.5-0.4l0.3,0l0.4-0.7l-0.5-0.5l0.3-0.5l0.7-0.1c0,0,0.1-0.3,0.1-0.3c0,0,0.3-0.3,0.3-0.3
				L93.6,90l-0.2-0.4l0.8-0.5l0-0.4L94,88.5l-0.7,0.8l-0.8,0.4l-0.3-0.4l0.1-0.6l0.2-0.5l-0.2-0.1l-0.2,0.5L92,89.3l-1,1.1l-0.7-0.4
				l0.6-1.1l0-0.6l-0.4,0.2l0,0.4l-0.2,0.1l-0.4,0l-0.4-0.4L89.4,88l-0.2-0.7l0.4-0.7l-0.6-0.5c0,0-0.1-0.6-0.2-0.9
				c-0.1-0.3-0.3-0.5-0.4-0.6c-0.1-0.1-0.4-0.3-0.4-0.5c0-0.2,0-0.3,0-0.3l0.3-0.1l0.1-0.4l0.2,0.1l0.3-0.8l-0.1-0.6l0.3-0.1l0-0.3
				l1.1-1l0.4-1.1l0.5-0.5l1.2,0.1l0.2-0.2l-0.9-0.2l0.2-0.4l1.4,0.6l0.8,0l0-0.2l-0.9-0.1l0.4-0.2l0.5,0l-0.2-0.4l-0.1,0l0.3-1
				l1.1-0.1l0.7-0.5l1.3-0.7c0,0,0.6,1.4,0.6,1.4c0,0,0.8,0.3,0.8,0.3l-0.1,0.7l-0.7,0.1l-0.1,0.9L97.3,80l0,0.6
				c0,0,0.2,0.5,0.3,0.5c0,0,1.2-0.2,1.2-0.2l0.6,0.7l-0.3,0.9l-0.3,0.4l0.5,0.7l-0.3,0.1l0,0.6l0.8,0.9l0.2,0.3l0,0.7l-0.2,0.1
				c0,0-0.9,0.1-1,0.1C98.7,86.7,98.6,87.5,98.6,87.5z"/>
			<polygon class="st2" points="90.4,90.7 90,89.9 90.2,89.5 90,89.5 89.9,89.9 90.2,90.6 			"/>
			<path class="st2" d="M79,89l0.1-0.5l1.3-0.4c0,0,0.2-0.4,0.2-0.4c0,0,0.8-0.3,0.8-0.3s0-0.5,0-0.5c0,0,0.9-0.9,0.9-0.9l-0.4-0.3
				l-0.1-0.5l0.4-1l-1.3,0.2l-1.4,1.6l-0.7,0.3l-0.5,0.8l-0.1,0.5l-0.7,0.8l0.8-0.2l0.4,0.2L79,89z"/>
		</g>
		<g>
			<path class="st2" d="M123.8,135.3l-0.4-0.2l0,0.5l0.4,0l0.2-0.1c0,0,0,0.8,0,1c0,0.2,0,0.6-0.2,0.8c-0.2,0.1-0.7,0.5-0.7,0.5
				l-0.2,0.2l-0.8,0.1l-0.2,0.3l-1,0l-0.1,0.2L120,139l0,0.3l-0.4,0.4l0,0.8l-1-0.2l-0.8-0.4l-0.3,0.5l-0.6,0.5l-0.7,0.2l-0.4-0.1
				l-0.2,0.2l-0.8,0l-0.7,0.2l-0.4,0.2l-0.2,0.3l-1,0.3l-0.8-0.4l-0.2-0.3l-1.1-0.5l-1-0.3c0,0-0.3-0.1-0.3-0.1c0,0-0.2-0.1-0.2-0.1
				l-0.9,0.1l-0.3,0.2l-1,0l-0.3-0.2l-1.2,0.2l-0.8-0.1l0,0.2l-0.3-0.2l-0.2,0.3l0,0.5l-0.5-0.3l-0.4-0.5l0-0.4l0.4-0.1l-0.1-0.6
				l-0.3,0.1l0,0.2l-0.2,0l0-0.4l-0.5,0l-0.4-0.1l-0.3,0.3l0,0.4l-0.3,0.2l-0.2-0.2l-0.2,0l-0.1,0.2l-1.1-1l-0.2-0.6l-0.3,0
				c0,0-0.2-0.8-0.2-0.8c0,0-0.2,0.4-0.2,0.4l-0.6-0.4l0,0.3l1.2,1.4l-0.2,0.4l-1.5,0.3l-0.4-0.1l0,0.3l-0.4,0.4l-0.7-0.6l-0.3,0
				l0-0.1l0.2-0.1l-0.6,0l-0.2-0.3l-0.2,0c0,0-0.1-0.4-0.1-0.4c0,0,0.1-0.1,0.1-0.1l-0.1,0l0-0.1l0.3-0.3c-0.1-0.1-0.5-0.4-0.5-0.4
				l0.1-0.4l0.3-0.1c0-0.2-0.2-0.6-0.6-0.7c-0.3-0.2-0.4-0.5-0.4-0.5c0.6,0,1.1-0.3,1.1-0.3l0.5,0.6l0.2,0l0.5,0.4l0.6,0l0.3-0.8
				l-0.3-0.3l0-0.8l-0.2-0.6l0.1,0l0-0.7l-0.3-0.2l0.1-0.3l1.1-0.4l0,0.2l0.3,0l0.6-1.1l-0.6-1.3l0.4-0.5l-0.3-0.4l0-0.6l-0.2,0
				l-0.2-0.8l-0.5-0.1l0.4-0.7l-0.1-0.9l0.3,0.1l-0.3-0.6l0.4-1.8l0.4-0.5c0,0,0-1.3,0-1.3c0,0,0.4,0.4,0.4,0.4l0.8-0.4l0.1-0.4
				l0.1-0.5c0.2-0.1,0.3-0.4,0.3-0.4l1,0l0.3-0.7l0.2-0.1l0.5,1l-0.5,0.1l0.2,0.2l-0.1,0.4l0,0.2l0.2,0l0,0.8l0.7,0.1l0,0.2l0.7-0.6
				l-0.1,0l0-0.3l1.1-0.3l0-0.1l0.7,0.1l0.3,0.7l0.3-0.1l0-0.1l0.4-0.3l-0.3-0.4l0-0.4c0,0,0.5-0.1,0.5-0.1c0,0,0-0.2,0-0.2l0.2,0
				l0.3-0.3l0.5-0.1l0.4,0l0.3,0.3l0.1,1c0,0-0.1,0-0.1,0c0,0-0.3,0.6-0.5,0.8l0.1,0.2l-0.3,0.5l0,0.5l-0.3,0.4l0,0.2l-0.1,0.1
				l0,0.3l0.2-0.2l0.8,0.8l0.1,0.4l-0.3,0.3l-0.4-0.3l-0.1,0.1l-0.2-0.2l-0.2-0.5l-0.5,0.2l0.6,0.9l0,0.2l0.3,0.3l0.1,0l0,0.4
				l0.3,0.1l-0.2,0.1l0,0.3l0.1,0.1l0.4,0l0.1,0.1l-0.4,0.4l0.2,0l0,0.5l0.1,0l0.2,0.4l0,0.4l-0.1,0l0,0.5l-0.2,0.2l-0.1,0.4
				l0.3,0.1l0.2,0l0,0.3l0.1,0.1l0.2,0c0,0,0.1,0.1,0.1,0.2c0,0,0.2,0,0.2,0l0,0.3l0.3,0l0.1,0.1l0,0.2l0.2,0l0.1,0.1l-0.1,0.1
				l0,0.2l-0.2,0.2l0,0.1l-0.1,0.1l0.2,0.1l0.2-0.2l0-0.2l0.2-0.2l0-0.2l0.3,0l0,0.2l0.2,0l0.1,0.1l-0.1,0.2l0,0.2l0.3-0.2l0.2,0
				l0,0.2l0.1,0.1l0,0.4l0.3,0.1l0.3-0.1l0.1-0.3l0.3,0l0.1-0.3l0.3,0.2c0,0,0,0.2,0,0.2c0,0,0.4,0.5,0.4,0.5l0.4,0l0.3-0.7l0.1,0
				l0.2-0.1l0-0.6l0.2,0.2l0-0.6l0.1-0.1l0.1,0l0-0.1l0.3,0l0-0.2l0.2-0.1l0.3,0.3l0.3-0.1l0.4,0.4l0.9,0l0.1-0.3l1.2-0.1l0.9,0.5
				l-0.7,0.1l-1,0.3l-0.2,0.4l0.5-0.2l0.4,0.4l0.5,0l0.2-0.5l0.3,0l0.2,0.5l-0.1,0.3l0.4-0.1l0.3,0.4c0,0,0.5,0.2,0.5,0.2
				c0,0,0,0.1,0,0.1l0.8-0.2c0,0,0.5-0.1,0.5-0.1c0,0,0.4-0.2,0.4-0.2l1.5-0.1l0.1,0.3c0,0,0.6-0.1,0.6-0.1c0,0,0.5-0.1,0.5-0.1
				l0.4,0.2l0,0.7L123.8,135.3z"/>
			<path class="st2" d="M96.9,141.3l0.4-0.1c0,0,0.3,0.1,0.3,0.1l1.2,1.2l0.1-0.1l0.1,0.4l0.2,0l1.1-0.2l0.1-0.5l-0.1-0.2l0-0.1
				l0.7,0l-0.3-0.7l0-0.3c0,0-0.8,0.1-0.8,0.1c0,0-0.2-0.2-0.2-0.2l0.1-0.3l-0.2-0.2l-0.1,0.2l0,0.4l-0.2,0.2l-0.1-0.1l0.1-0.3
				l0-0.5l-0.2,0l-0.2,0.3l-0.3,0.1l-0.2,0.3l-0.5-0.2l-0.6,0.2l-0.2-0.1L96.9,141.3z"/>
			<polygon class="st2" points="102.7,140.2 102.3,140.2 102,140.1 102.5,139.6 			"/>
			<polygon class="st2" points="119.4,134 118.7,133.6 118.5,133.1 118.7,132.8 119.1,132.9 119.1,133.2 120.3,134 			"/>
		</g>
		<path class="st2" d="M108.7,44.5l0,0.3l-0.3,0.4l-0.7,0.6l-0.3,0.1l-0.2,0.4l-1.3,1.6l-0.2,1.5l-0.5,0.8c0,0-0.4,0.3-0.4,0.3
			c0,0-0.7,1.9-0.7,1.9l-0.4,0.6l-1.4,0.9c0,0-0.3,0.6-0.4,1l-0.5,0.2l-0.1,0.8l-0.6,0.5l-0.1,0.2l-1.6,1l-0.4-0.3l-0.7,0.2
			l-0.3-0.2l-0.4,0.2l-0.7-0.2c0,0-0.5,0.2-0.8,0.4c-0.2,0.1-1.1,0.7-1.1,0.7s0,0.3,0,0.3c0,0,0.5,0,0.5,0s0.5-0.3,0.8-0.5
			c0.3-0.1,0.9-0.3,1.4-0.3l0.2-0.2l0.8,0.3l0.4,1.6l0.4,0.2l0.4,0.4l0.1,0.5l-0.5,0.5c0,0-0.5,0-1,0.3l-0.8,0l-0.6-0.4l-0.5,0.3
			l-0.5,0.5l-0.3,0l-0.4,0.4L95,62.5l-0.5,0.1l-0.3-0.3l-0.3,0.3l-0.6,0l-0.1,0.3l-0.5-0.1l-1.9-1.2l-0.4,0l0.4,1l1.2,0.3l0.6,0.4
			l0.5,0l0.9,0.4l0.7,0l0.2,0.3l0.4,0.3l0.7,0l1.5-1.3l1,0.2l1.1,0.9l1.2,1.2l0.2,0l0.2,0.4l0.5,0l0.2-0.1l0.5,0.3l0,0.4l0.3,0.3
			l0,0.4l0.2,0.1l0,0.3l-0.4,0.5l-0.6,0.5l-0.7,0.6l-0.3,0.4l-0.4-0.2l-0.4,0.2l1,2.5l-1.5,0.8l0,0.4l-1.2,0l-0.5,0.5L98,73.9
			l-1.3,1.4L95.4,76l-0.7,0.5l-1.1,0.1l-0.3,1l-1.8-0.1L89.1,77l-0.2,1.3l-0.8-0.2l-0.8,0.4L87,78l-0.2,0.9l-0.3,0l-0.2,0.2
			l-0.7,0.4l-0.7-0.3l-0.5,0l-0.4-0.3c0,0-0.1-0.3-0.2-0.4c-0.2-0.1-0.7-0.7-0.7-0.7l-0.9-0.5l0.5,1.2l0.1,0.1l-0.4,0.7l0,0.8
			l-0.4,0.2l-0.3-0.2l-2.1-2.4l-0.3-0.8L78,77.2l-0.1,1.2l0.1,1.4l-0.3,0L77.2,79l0.2-0.4l-0.3-0.9l-0.5-0.8l-0.4-1.2l0.3-1.1
			l0.6-0.2l0.3,0.1l-0.1,1l0.1,0.4l0.2-0.1l0.2-0.8c0,0-0.2-0.6-0.2-0.7c0,0,0-0.3,0-0.3l1.3-1.8l0.8-0.5L80,71l0.9-1.5l1.3-0.8
			l-0.1-1l-0.2-0.1l0.3-0.3l-0.7-1L81,66.2l-0.4-1l0.5-0.7l0.1-0.7l-0.1-1.4l0.3,0l0.6-0.8l0.9,0.6l1.6,0.6l0.4,0.5l0.1,0l-0.4-0.7
			l-0.4-0.1L83,61.8l-0.1-0.5l-0.4-0.4l-0.2-0.7l-0.2,0l0,0.7l0.3,0.4l-0.5,0.1l-0.2-0.4l0.1-0.5l-0.2-0.2l-0.1,0.4l-0.1,0.6
			l-0.3,0.1l0.1,0.3l-0.4,0.4l-0.3,0.7l-0.6-0.2l0.2-0.4l-0.1-1l-0.2,0l0.1,0.8l-0.1,0.1l-0.2-0.4l-0.3-0.3L79,61.1l-0.2,0l-0.1,0.6
			l-0.2,0.2l-0.1,0.9l-0.4-0.1l-0.3-0.2l0-1.3l0.1-0.6l1.7-1.8l0.6-0.1l0.6-0.7l0.8-0.4l0.1-0.2L81,57.5l-0.1-0.2l-1.2,1l-0.2,0.3
			l-0.3,0.1L78.1,60l-0.4,0.3L77.4,60l-0.3,0.1l0,1.8l0.6,1.2l-0.2,0.6l-0.5,0L76.7,64l-0.8,1.8l0,0.4l-0.3,0.1l-0.2,0.7l-0.8,1
			l0.2,0.8l-0.7,0.7l-1,0l-0.7-0.4l0.2-1.1l0.5-0.3l0.4,0l0.2-1.9l0.6-0.7l0.2-0.9c0,0,0.9-0.7,0.9-0.7c0,0,0.8-0.4,0.8-0.4l0.5-0.7
			l-0.1-0.2L76,62.8l-0.7,0.4L75.2,63l0.2-0.3L75,62.5l0.1-0.5l0.5-0.6l0.3-0.4l-0.2-0.1l-0.4,0.4l-0.3,0l0-0.2l0.7-0.7l0.2-0.5
			l0.3-0.1l0-0.3l-0.3,0.2l-0.4,0.6l-0.4,0.3L75,60.3l0.4-0.5l0.3-0.3l0.8-0.8l0.3-0.1l0.1-0.4c0,0,0.4-0.4,0.4-0.4
			c0,0-0.2-0.1-0.2-0.1c0,0-0.4,0.3-0.4,0.3l-0.2,0.3l-0.2,0l0.3-0.5l0.8-0.6l-0.1-0.3l0.5-0.3l-0.1-0.2l-0.3,0.1L77,56.4l-0.4,0.2
			l-0.1,0.3l-0.1,0.4l-0.2-0.2l0-0.6l0.4-0.4l0-0.4l0.3-0.3l0.1,0.4l0.3-0.5l0.3-0.1l0-0.4l-0.1-0.3l0.5-0.3l0.1,0.1l0.5-0.3
			l0.4,0.1l-0.2-0.5l-0.3,0l0-0.2l0.8-0.3l-0.2-0.3l0.2-0.5l0.8-0.7l-0.1-0.2c0,0,0.2-0.1,0.2-0.1c0,0,1-0.1,1-0.1l-0.1-0.4
			l-0.3,0.1l0-0.2l0.8-0.8l0.3-0.5l-0.2-0.1l-0.4,0.5l-0.3,0.1l-0.2,0.4l-0.7,0.6l-0.8,0.5l-0.2-0.2l-0.4,0.4l-0.3,0l-0.2,0.5
			l-0.5,0.5l-0.6,0.2L77.1,53L76.7,53l-0.1-0.3L76,52.2l-0.4,0l-0.6-0.5L75,51.2c0,0-0.2-0.4-0.2-0.5c0,0,0-0.3,0-0.3l1.3,0l0.3-0.1
			l0.2,0l0.2-0.2l0.2,0l0.4,0.3l0.5,0.2l0.6,0l-0.3-0.2l-0.6,0c0,0-0.2-0.4-0.2-0.4l-0.2,0l-0.1-0.1l-0.3,0l0,0.1l-0.2,0l-0.1,0.1
			l-0.2,0c0,0-0.1,0.2-0.1,0.2c0,0-0.1-0.2-0.1-0.2l-0.6,0L75.3,50l-0.6-0.1l-0.1-0.3L74,49.8l-0.4-0.2L73.5,49l0.5-0.4l1.6,0.2
			l0-0.2l0.7,0.7l0.1-0.1l-0.2-0.4l0.1-0.4l0.4-0.2l0.8-0.1l-0.3-0.3l0.5-0.3l0-0.2l-1.2,0.1c0,0-0.4-0.2-0.4-0.2
			c0,0,0.2-0.2,0.2-0.2l0.4,0l0-0.3l0.4-0.5l0.1-0.5l0.9,0l0.5,0.7c0,0,0.8,0,0.8,0c0,0,0-0.2,0-0.2l-0.6,0L78.5,46l-0.1-0.5
			L78,45.5l-0.3-0.4l0.6-0.7l1.1,0.5c0,0,0.3,0,0.3,0c0,0-0.1-0.5-0.1-0.5s-0.4-0.3-0.5-0.3c0,0-0.4-0.1-0.4-0.1l0-0.4l0.5-0.2
			l0-0.5l0.9-0.2l0.5,0.7c0,0,0.3,0,0.3,0c0,0-0.2-0.5-0.2-0.5l-0.4-0.5l-0.6,0l-0.3-0.2l-0.7,0l0-0.3l0.7-0.5l0.7,0L80.1,41l0-0.7
			l-0.6,0.6L79,41.1l-0.5,0l-0.1-0.6l0.2-0.8l-0.2-0.5l0.5-1.3l0.5,0.2l0.1,0.3l0.4,0L80,39l0.4-0.3l0.5,0.1l0.3-0.2l-0.4-0.2
			l-0.5,0L80,38.2l-0.3-0.5l0.1-0.1l-0.2-0.5l-0.3,0l0-0.2l0.8-0.6c0,0,0.1,0.2,0.2,0.2c0,0,0.2-0.2,0.2-0.2l-0.1-0.5l-0.4,0
			l-0.3-0.5l0.3-0.3l-0.1-0.6l0.1-0.4l0.8,0l0.1,0.9l0.3,0.5l0.4-0.2l0.1-0.6l-0.4-0.2l0-0.3l-0.1-0.3c0,0,0.3-0.2,0.3-0.2
			c0,0,0.1-0.2,0.1-0.2l0.3,0l0.3,0.3l0,0.5l0.4,0.2l0.4-0.4l0.7,0.4l0.3,0.4l0.3,0.1l0-0.2l-0.4-0.4l0-0.3c0,0-0.5-0.2-0.5-0.2
			c0,0,0.1-0.3,0.1-0.3l0.3,0L84,34l0.3,0l0.5,0.5l0.2,0l-0.2-0.4l-0.3-0.3l0.3-0.2l-0.5-0.5L84,33.1l0-0.5l-0.4-0.5l-0.3-0.1
			l-0.1-0.7l0.3-0.2l0.4,0.5l0.4,0.2l0.2-0.5l0-0.4l0.3-0.2l-0.4-0.3l-0.1-0.8l-0.2-0.2l0.2-0.4l0.3,0.3l0,0.2l0.9-0.1l0.4,0.1
			l0.3-0.2l0.7,0.5l0.3,0c0,0-0.7-0.6-1-0.8L86,28.4l0.3-0.6l0.4-0.4l0.2,0.3l0.1-0.2l0-0.4l0.3,0l0.2,0.2l0.1-0.3l-0.8-0.6L87,26
			l0.7-0.7l0.3-0.6l0.3,0l0.2,0.2l0.4,0l0.4,0.6l-0.2,0.4l0,0.4l0.3,0l0.2-1.1l0.3-0.1l0.1,0.6c0,0,0.4,0.2,0.4,0.2c0,0,0,0.4,0,0.4
			l-0.8,0.7l0.1,0.2l0.6-0.3l0.9-1.1l0.6,0.1l0.4,0.5l-0.2,0.8l-0.5,0.4l0,0.2c0,0,0.6-0.5,0.7-0.5c0,0,0.4-0.6,0.4-0.6l0.7,0
			l0.2,0.5l0.2-0.4l0.4,0l0.1-0.4l0.5,0.1l0.1,0.2l0.3-0.1l0-0.3l0.3-0.1l0.1,0.3l1.6,0.5l1-0.5l0.4-0.2l0.5,0.1l-0.1,0.2l1.2,0.5
			l0.3-0.5l-0.2-0.2l-0.1-0.4l1.6,0.1l0,0.3l1,0.5c0,0-0.3,0.9-0.5,1.1c-0.2,0.2-0.4,0.3-0.4,0.3l0.2,0.8l0.2,0.1l0,0.5l-0.4,0.3
			l-0.1,0.6c0,0-0.2,0.1-0.3,0.2c-0.1,0.1-0.4,0.4-0.4,0.4l-0.6,0.3c0,0-0.4-0.1-0.4,0c0,0,0,0.3,0,0.3L99,31.5l-1.1,1.1l-0.8,0.6
			l-0.5,0l-0.3,0.5l-1.9,1.1L93,35.1l0.4,0.7l-0.9,0.7L92,36.2L91.2,36l-0.6-0.9l-0.2,0.1l0.6,1.1l0.9,0.2l0.9,0.7
			c0,0,0.8-0.3,0.8-0.3c0,0,0.1,0.4,0.1,0.4l0.5-0.4l0.3,0.1l-0.6,1l-0.9,0.9l-0.4,0l-0.2-0.2l0.3-0.4l-0.8,0.3l-0.4,0.3l-0.3-0.3
			L90.4,39l-0.6,0.4L89.5,40l1.6-1.1l1.2,0l0.4,0.2l-0.3,0.3L91.8,40l0,0.3l-0.5,0l-0.2,0.3l-0.5-0.1l0.1,0.4l-0.3,0.3L90.2,41
			l-0.8,0l1,0.4l0.7,0.1l1.1-0.8l0-0.4l0.5-0.2l0.2,0.2c0,0,1.6-0.2,1.6-0.2c0,0,0.7-0.5,0.7-0.5l0.6,0.6l0.9-0.8l0.6,0l0.7-0.1
			l1.5,1l0.7,0.3l0.2-0.2l0.4,0.1l0.3-0.4l0.4,0l0.2,0.4l0.3-0.1c0,0,0.6,0.2,0.6,0.3c0,0,0.1,0.1,0.1,0.1l0.3-0.1l0.7,0.2l0.2,0.3
			l1.5,0.1l0.3-0.2l0.4,0.3l0.5,0l0.3-0.3l0.9,0.3l1.1,1.8l0.2,1.2L108.7,44.5z"/>
		<polygon class="st2" points="70.1,69.1 69.8,69.8 69.2,69 		"/>
		<polygon class="st2" points="84.3,33.3 84.4,33.5 84.1,33.6 84.1,33.3 		"/>
		<path class="st2" d="M83.9,33.1l0-0.3c0,0-0.4,0-0.4,0c0,0,0.1,0.2,0.1,0.2L83.9,33.1z"/>
		<polygon class="st2" points="85.7,29.9 85.7,29.8 85.4,29.6 85.5,29.5 85.5,29.5 85.9,29.7 		"/>
		<g>
			<polygon class="st2" points="80.9,65.4 80.7,65.4 80.7,65.1 81,65.1 			"/>
			<polygon class="st2" points="81.1,65 80.9,65 80.9,64.8 81.1,64.4 81.4,64.7 			"/>
			<polygon class="st2" points="78.9,66.9 79,65.6 78.6,65.2 78.6,65 78.1,64.8 78,65 77.4,65.2 77.4,65.5 77.1,65.7 77.1,66.6 
				77.3,66.8 77.1,67.1 77.1,67.6 77.3,67.7 77.3,67.9 77.5,68.6 78.1,68.9 79,68.9 79,68.4 79.2,68.1 79.1,67.7 79.4,67.4 
				79.2,67.1 			"/>
		</g>
		<g>
			<polygon class="st2" points="79.3,63.8 79.5,64.2 79.2,64.2 			"/>
			<path class="st2" d="M79.7,63.2l-0.1,1l0.1,0.1l0.2,0l-0.1,0.3l0.2,0.4l0.3,0.2l0.1-0.3l-0.2-0.1c0,0,0.3-0.8,0.3-0.8
				c0,0,0-0.6,0-0.6l-0.3,0l-0.1-0.3l0.1-0.3l-0.3-0.3l-0.1-0.3l-0.2-0.1l-0.3,0.2l0,0.2l0.1,0.1l0.1,0.5L79.7,63.2z"/>
			<polygon class="st2" points="74.3,65.4 74.3,65.3 74.1,65.4 			"/>
			<polygon class="st2" points="74.2,65.1 74.6,64.9 74.8,64.6 74.6,64.5 74.9,64 74.6,64 74.5,64.2 74.3,64.4 74.3,64.7 74.2,64.9 
							"/>
			<path class="st2" d="M70.2,62.1l-0.4,0.3l-0.1,0.3l-0.3,0.4l-0.6,0.3l-0.3,0l0-0.2l0.3-0.6l0.1-0.2l0.2-0.1l0-0.2l-0.1-0.2
				l0.4-0.8l0.6,0l0.4-0.2l0,0.8l1.3-1.2l0.6,0.2L72.1,61l0.1,0.8l-0.1,0.1l0,0.7l0.2,0.8l0.1,0.2l-0.1,0.2l0.1,0.2l0,0.2L72,64.4
				l-0.2-0.2l0,0.3l-0.4,0.2l-0.5,0l0-0.2l-0.3,0L70.4,65L70,65.2L69.9,65l-0.2,0l0-0.2l0.4-0.4l0-0.3l0.2,0l0.1-0.8
				c0,0-0.4-0.1-0.4-0.1c0,0,0.2-0.2,0.2-0.2l0.5-0.3L70.2,62.1z"/>
			<path class="st2" d="M73.4,62.4L73,62.8l0-0.2l-0.4-0.1l-0.3-0.3l0-0.3l0.1-0.2l-0.1-0.3l0.1-0.1l0-0.3l0.3-0.3
				c0,0,0.7-0.3,0.7-0.3c0,0,0.2,0.1,0.2,0.1l0.2-0.1l0.3,0l0.1-0.2l-0.2-0.1l-0.3,0.2l-0.4-0.3l0.5-0.5l0.1-0.2l0.3,0l0.2-0.3
				l1-0.4l0.3-0.4l0.1,0.1l0.2-0.2l0.3,0l0,0.4l-0.2,0.1l-0.2,0.3l-0.3,0.1l0,0.3L75.2,60L75,60l-0.2,0.3c0,0,0,0.2,0,0.2
				c0,0-0.2,0-0.2,0l-0.4,1c0,0-0.2-0.1-0.2-0.1c0,0,0,0.2,0,0.2l-0.2,0l-0.4,0.5L73.4,62.4z"/>
			<polygon class="st2" points="71.9,59.2 71.6,59.5 71.7,59.2 			"/>
			<polygon class="st2" points="72.1,59.1 71.9,59 71.5,58.9 71.5,58.7 72.7,57.8 72.7,58.1 72.1,58.7 			"/>
			<polygon class="st2" points="76.2,57.7 76.4,57.5 76.6,57.6 76.6,58 76.4,58 76.2,58.1 75.9,57.9 76,57.7 			"/>
			<polygon class="st2" points="76.1,56.9 75.8,56.9 76,56.7 76.2,56.7 			"/>
			<polygon class="st2" points="78.6,53.8 79.2,53.2 79.4,53.2 79.4,52.9 79.2,53 79.1,53.1 78.4,53.7 78.1,53.7 78,54 78.1,54.2 
				78.4,53.8 			"/>
		</g>
		<g>
			<path class="st2" d="M71.2,54.9c0,0-0.1-0.3-0.1-0.3l-0.2,0.2L71.2,54.9z"/>
			<path class="st2" d="M71.3,55.3l0.1-0.2l0.2,0l0-0.4c0,0,0.1-0.2,0.1-0.2c0,0,0.4,0,0.4,0l0.1,0.3l0.4,0.2l0-0.3l0.8,0.2l0.4,0
				l0.1-0.2l0.5,0l0.3-0.3l0-0.2l-0.3,0.2l-0.2-0.1l-0.6,0.2L73,54.4l1.1-0.7l0.5-0.3l0.3,0l0-0.3l-0.4-0.1c0,0-0.2,0.2-0.2,0.2
				c0,0-0.5-0.3-0.5-0.3l0-0.4l-0.2,0l-0.1-0.3l-0.9-0.1l0-0.3l0.4-0.3c0,0,0-0.1,0-0.2c0,0-0.2-0.1-0.2-0.1l0-0.3l0.3,0.1l0.2-0.2
				l0.1,0.3l0.2,0l0-0.4l0.1-0.2l0.7,0l0.4,0.4l-0.2,0.1l0.1,0.2l0.2,0l0.3,0.7l0,0.7l1.9,1.2l0.1,0.6l-0.2,0.1l0,0.3l-0.4,0
				l0.1-0.3c0,0-0.2-0.2-0.2-0.2c0,0,0,0.4,0,0.4s-0.2,0-0.2,0c0,0-0.1,0.3-0.1,0.3l0.3,0l0.2,0.2l-1.2,0.4l-0.2-0.1l0.1-0.6
				l-0.5,0.5l-0.4-0.1L74,55.7l-0.2,0l0-0.2l-0.5,0.1l-0.2,0.2l-0.3-0.3l-0.2,0.1l-0.1-0.1c0,0-0.3,0.3-0.3,0.4c0,0-0.5-0.1-0.5-0.1
				l0.1-0.1l-0.1-0.2l-0.2,0.1L71.3,55.3z"/>
			<path class="st2" d="M73.2,53l0,0.2l0.5-0.1L73,52.6c0,0-0.4,0.2-0.4,0.2c0,0,0.3,0.1,0.3,0.1s0,0.2,0.1,0.2
				C72.9,53,73.2,53,73.2,53z"/>
			<polygon class="st2" points="68.1,51.8 68,52.3 67.7,52.3 67.7,52.1 67.3,52 67.5,51.2 67.6,51.1 68.3,51.1 69.5,51.3 69.4,51.5 
				69.2,51.4 68.8,51.7 			"/>
			<polygon class="st2" points="70.3,50.8 70.6,50.9 70.9,50.8 71.5,50.6 72,49.5 71.7,49.5 70.9,50.1 70.6,50 70.5,50.4 70.2,50.5 
				69.8,50.6 69.8,50.8 69.9,50.9 			"/>
			<polygon class="st2" points="74.3,47.9 74.3,48.1 74.1,48.1 73.9,47.9 			"/>
			<polygon class="st2" points="75.1,47.6 74.6,47.1 75,46.8 75.2,47.4 			"/>
			<polygon class="st2" points="72.2,44.4 72.8,44.5 72.9,44.5 72.7,44.2 			"/>
			<polygon class="st2" points="73.4,45.7 73.2,45.6 73.1,45.2 73.6,45 73.8,44.8 74.2,44.7 74.6,45.3 74.4,45.4 74.6,45.7 
				74.5,46.1 74.2,46.3 74.1,46.4 73.7,46.4 73.5,46.1 			"/>
			<path class="st2" d="M73.4,39.8l0,0.4l-0.1,0.4l-0.3,0l-0.9-0.9l0-0.3l-0.3-0.2l0-0.2l0.2-0.2l0.1-0.3l0.2,0.2
				c0,0,0.3-0.8,0.3-0.8c0,0,0.2,0.6,0.3,1l0.5,0.1l-0.2-0.3l0.2-0.5l0.2-0.1l0-0.3l-0.4-0.1l0-0.2l0.2-0.1l-0.1-0.3l0.2-0.3
				l0.2,0.1l0.3,0.6l0,0.5l0.3,0.2l0,0.3l0.2,0l0.2-0.2l0,0.3l0.2-0.2l0.3,0.7l0.1-0.1l0-0.2l-0.2-0.2l0.1-0.2l-0.2-0.2l0-0.3
				l0.3-0.3l-0.2,0l0.2-0.4l-0.2-0.1l0.1-0.6l0.5-0.2l0-0.3l0.1,0.1l0.2-0.1l0.4,0.4l0.6,1.4l0,0.8L76.9,39L76.6,40L76.4,40
				l-0.1,0.2l0.2,0l0.3,0.5l-0.1,0.4l0.1,0.4l-0.3,0.1l0.5,0.3l-0.1,0.3l0.3,0l0.2,0.2l0-0.2l-0.1-0.2l0.3-0.1l0.2,0.1l0.1,0.4
				l-0.2,0.1l-0.2,0.1l0.6,0.5l1.3-0.1l0.5,0.3L79.1,44l-0.6-0.1l0.1,0.3l-0.4,0.6l-0.3,0l0,0.3l-0.6,0.3L77,45.7l-0.6-0.1l0-0.5
				l0.3-0.1l-0.1-0.3l0.2,0l0-0.3l0.2-0.1l0.3,0l0-0.2l0.3,0l0-0.3l-0.5,0l0-0.5c0,0-0.2-0.1-0.2-0.1c0,0-0.6,1-0.6,1l-0.2,0L76,44
				l0.2-0.3c0,0-0.2-0.2-0.1-0.2c0,0,0.1-0.2,0.1-0.2l-0.2-0.2l-0.3,0.3l-0.2-0.1L75,43.4l-0.6,0l0.3-0.6l-0.3,0l-0.2-0.3l0.2-0.3
				l-0.2,0l0-0.3l-0.3-0.2l0-0.5l0.5-0.4l0.5,0.4l0.1-0.1l-0.4-0.3l-0.1-0.2l-0.3,0l-0.2-0.2l0.2-0.1l0.1-0.3L74,39.8
				c0,0-0.3,0.3-0.3,0.2c0,0,0-0.4,0-0.4L73.4,39.8z"/>
			<polygon class="st2" points="75.1,43.9 75.3,43.8 75.4,43.7 75.3,43.4 75.1,43.6 			"/>
			<polygon class="st2" points="77.3,41.4 77.6,39.9 77.8,39.8 78,39.3 77.7,39.4 77.6,39.7 77.4,39.6 77.2,40 77.1,40 77.1,40.6 
				76.9,40.9 77,41.4 			"/>
			<polygon class="st2" points="78.3,38.9 78.3,38.6 78.5,38.4 78.5,38.2 78.2,38.4 78.1,38.6 78.1,38.9 			"/>
			<polygon class="st2" points="65,44.6 64.6,44.2 64.8,44.9 			"/>
			<path class="st2" d="M65.3,44.4l-0.6-0.3c0,0,0.6-0.6,1.4-1L65.3,44.4z"/>
			<polygon class="st2" points="66.2,36.1 66.1,36.5 65.7,36.1 			"/>
			<polygon class="st2" points="70,34.5 70.3,33.9 69.6,34.3 69.8,34.4 			"/>
			<polygon class="st2" points="67.4,42.7 66.4,42.3 66.5,41.4 66.9,39.8 67,38.3 67.7,38.2 67.4,37.4 68.1,37.1 67.7,35.9 
				66.9,35.3 67.5,34.7 68.9,34.8 69.7,34.6 70.6,35.5 70.3,35.8 69.8,35.4 69.5,35.5 70.1,36.2 69.3,37.5 68.5,37.3 68.7,37.7 
				68.7,38.4 68.2,38.4 68.4,39.4 67.4,40.8 67.7,41.7 			"/>
			<path class="st2" d="M71.7,32.3l0.2-0.4c0,0-0.2-0.1-0.2-0.1c0,0-0.6,0.3-0.6,0.3L71.7,32.3z"/>
			<path class="st2" d="M70.7,32.7l0.7,1.7l1.2-0.7l0.2-0.2l0.7,0.1l-0.1-1.1l0.7,0.4L74,31.6l0.1-0.5c0,0,0.2,1.1,0.2,1.3l1.4,0
				c0,0,0.9-0.8,1.2-1l0-1.1l-0.7,0.1l-0.9-0.2l0.4-0.1l1-0.1l0.5-0.2l0-1l0.4,0.3l0.3-0.1l0.6,0.3l0.7-0.9l-0.9,0.4l-0.6,0l0-0.4
				l0.4-0.3L79,27l0.2-0.8l0.4-0.4l0-0.4l-0.4-0.7L79,25l-1.6,0.7l-0.9,0.6c0,0-1.7,0.4-2.1,0.7l0.4,1.2l-0.3,0.1l-0.5-1.2l0.1,1
				l-0.6,0.1L73.3,28l0.3-0.2l-0.9-0.4l-0.6,1.2l-0.3,0.4L72,30l0.8-0.1l0.1,0.2l-1.4,0.4l0,0.5l0.7,0.6l0.9,0.4l0,0.3l-1-0.1
				l-0.9,0.6L71,32.7L70.7,32.7z"/>
		</g>
		<path class="st2" d="M103.7,117.9l0,0.1l-0.2,0l-0.1,0.1l-0.6,0l0,0.2l0.4,0.3l-0.2,0.7l-0.3,0.1l-0.4,0.8l-0.4,0l-0.1,0.3
			l-0.2,0.1l-0.3,0.7l-1,0c0,0-0.1,0.3-0.3,0.4l-0.1,0.5l-0.9-0.3l-0.5,0l-0.2-0.3l-0.2-0.5l-0.2-0.2l-0.1-0.3l-0.2,0.1l-0.5,0.3
			l-0.3,0l0.3,0.7l-0.1,0.3l-0.6-0.7l-0.8,0.3l-0.2,0.1l-0.2,0l-0.4-0.2l-0.3,0.1l-0.1-0.2l0.3-0.4l-0.4-0.2l-0.1,0.3l0.2,0.4
			l-0.2,0l-0.7,0.3l-0.3,0c-0.1-0.1-0.2-0.8-0.2-0.8l-0.4,0l0,0.2l-0.1,0.1l-0.3-0.3L92,121l-0.4,0.9l0.1,0.2c0,0.4,0.2,0.9,0.2,0.9
			l-0.4,0c0,0-0.4,0.3-0.4,0.3c0,0-0.5,0-0.5,0l0,0.2l-0.3-0.2l-0.4,0.4l-0.3-0.1l-0.1-0.3l-0.3,0.1l-0.7-1.1c0,0-0.8-0.3-0.9-0.3
			c0,0-1-1.1-1-1.1l0-0.8l-0.3-0.3l0-0.2l0.3-0.5l-0.3-0.3l0.8-1.3l0.4-0.4l0.5,0.1l-0.3-0.4l0.1-0.6l0.6-0.3l-0.9-0.1l-1.2-1.7
			l0.7-0.4l1.4-0.4l0.1-0.3l-0.1-0.3l-1.1,0.4l0.2-0.3l-0.2-0.5l0.8-0.5l-0.1-0.1l0.4-0.3l0.3-0.9l0.4,0l-0.2-0.2l-0.6-0.9l-0.3,0.2
			l-0.3-0.3c0.2-0.3,0.3-1.3,0.3-1.3l0.2-0.1l0.3-0.3l0.3,0l0.4-0.1l0-0.1l0.4-0.2l0,0.2l0.8,0.4l0.4,0.7c0.2-0.2,0.7-0.3,0.7-0.3
			l0-0.3l0.1-0.2l0-0.4l0.3-0.2l0.4,0.2l0.2,0l0,0.2l0.3,0.3l0.5-0.1l0.4,0.3c0,0,0.5-0.4,0.8-0.4l0.4-0.8l0.3-0.3l0.6,0l0.3-0.2
			l0.5-0.5l0.3-0.1l0.1-0.4l0.3,0.3l0.4,0c0,0,0.3-0.1,0.3-0.1c0,0,0.3-0.3,0.3-0.3l0.8,0.3l0.4,0.4l0.1,0.5l0,1.3l0.1,0.1l0,0.4
			c0,0-0.4,0.3-0.5,0.4l-0.1,0.4l-0.3,0.1l0,0.5l0.1,0.2l0.7,0.3l0,0.1l0.4,0.2l0.3,0l0.5,0.5l-0.3,0.1l0.2,0.3l-0.1,0.2l0,0.1
			l-0.1-0.1l-0.2,0l-0.2,0.1l-0.4,0.6l0.4,0.1l0.6,0.4c0,0,0.1,0.4,0.3,0.6l-0.2,0.5l0.3,0.7l0.3,0.3l0.2,0.1c0,0,0.4,0.4,0.5,0.5
			c0.1,0.1,0.7,0.5,0.7,0.7c0.1,0.2,0.4,0.6,0.5,0.7c0,0,0,0.3,0.1,0.4c0,0.1,0.1,0.3,0.1,0.3L103.7,117.9z"/>
		<path class="st2" d="M82,46.1c0,0.3-0.3,0.6-0.6,0.6c-0.3,0-0.6-0.3-0.6-0.6c0-0.3,0.3-0.6,0.6-0.6C81.7,45.5,82,45.7,82,46.1z"/>
	</g>
	<path class="st0" d="M92.9,46.4c-1-1-2.5-1-3.5,0c-0.8,0.8-0.9,1.9-0.5,2.9l0,0l0,0c0,0.1,0.1,0.2,0.1,0.2l2.1,3.6l2.1-3.6
		c0-0.1,0.1-0.1,0.1-0.2l0,0l0,0C93.8,48.3,93.6,47.2,92.9,46.4z M91.1,49.3c-0.6,0-1.2-0.5-1.2-1.2c0-0.6,0.5-1.2,1.2-1.2
		c0.6,0,1.2,0.5,1.2,1.2C92.3,48.8,91.7,49.3,91.1,49.3z"/>
	<path class="st0" d="M99.2,128.5c-1-1-2.5-1-3.5,0c-0.8,0.8-0.9,1.9-0.5,2.9l0,0l0,0c0,0.1,0.1,0.2,0.1,0.2l2.1,3.6l2.1-3.6
		c0-0.1,0.1-0.1,0.1-0.2l0,0l0,0C100.1,130.5,99.9,129.3,99.2,128.5z M97.4,131.5c-0.6,0-1.2-0.5-1.2-1.2c0-0.6,0.5-1.2,1.2-1.2
		c0.6,0,1.2,0.5,1.2,1.2C98.6,130.9,98,131.5,97.4,131.5z"/>
	<path class="st0" d="M83.1,115.4c-1-1-2.5-1-3.5,0c-0.8,0.8-0.9,1.9-0.5,2.9l0,0l0,0c0,0.1,0.1,0.2,0.1,0.2l2.1,3.6l2.1-3.6
		c0-0.1,0.1-0.1,0.1-0.2l0,0l0,0C84,117.3,83.9,116.2,83.1,115.4z M81.4,118.3c-0.6,0-1.2-0.5-1.2-1.2c0-0.6,0.5-1.2,1.2-1.2
		c0.6,0,1.2,0.5,1.2,1.2C82.5,117.8,82,118.3,81.4,118.3z"/>
	<path class="st0" d="M103.5,86.7c-1-1-2.5-1-3.5,0c-0.8,0.8-0.9,1.9-0.5,2.9l0,0l0,0c0,0.1,0.1,0.2,0.1,0.2l2.1,3.6l2.1-3.6
		c0-0.1,0.1-0.1,0.1-0.2l0,0l0,0C104.5,88.7,104.3,87.5,103.5,86.7z M101.8,89.6c-0.6,0-1.2-0.5-1.2-1.2c0-0.6,0.5-1.2,1.2-1.2
		c0.6,0,1.2,0.5,1.2,1.2C103,89.1,102.4,89.7,101.8,89.6z"/>
	<path class="st0" d="M109.4,111.5c-1-1-2.5-1-3.5,0c-0.8,0.8-0.9,1.9-0.5,2.9l0,0l0,0c0,0.1,0.1,0.2,0.1,0.2l2.1,3.6l2.1-3.6
		c0-0.1,0.1-0.1,0.1-0.2l0,0l0,0C110.3,113.5,110.1,112.3,109.4,111.5z M107.6,114.4c-0.6,0-1.2-0.5-1.2-1.2c0-0.6,0.5-1.2,1.2-1.2
		c0.6,0,1.2,0.5,1.2,1.2C108.8,113.9,108.3,114.4,107.6,114.4z"/>
	<path class="st0" d="M62.7,72.6c-1-1-2.5-1-3.5,0c-0.8,0.8-0.9,1.9-0.5,2.9l0,0l0,0c0,0.1,0.1,0.2,0.1,0.2l2.1,3.6l2.1-3.6
		c0-0.1,0.1-0.1,0.1-0.2l0,0l0,0C63.6,74.6,63.5,73.4,62.7,72.6z M61,75.5c-0.6,0-1.2-0.5-1.2-1.2c0-0.6,0.5-1.2,1.2-1.2
		c0.6,0,1.2,0.5,1.2,1.2C62.1,75,61.6,75.5,61,75.5z"/>
</g>
</svg>
