<?xml version="1.0" encoding="utf-8"?>
<!-- Generator: Adobe Illustrator 19.0.0, SVG Export Plug-In . SVG Version: 6.00 Build 0)  -->
<svg version="1.1" id="Layer_1" xmlns="http://www.w3.org/2000/svg" xmlns:xlink="http://www.w3.org/1999/xlink" x="0px" y="0px"
	 viewBox="0 0 451.782 697.736" style="enable-background:new 0 0 451.782 697.736;" xml:space="preserve">
<style type="text/css">
	.st0{fill:#9FBCD1;}
	.st1{fill:#C1DEF4;}
	.st2{fill:#BED9EA;}
	.st3{fill:#A4DFFF;}
	.st4{fill:#BDE5F4;}
	.st5{fill:#CBE9F7;}
	.st6{fill:#B2F9F7;}
	.st7{fill:#1995D3;}
</style>
<g>
	<path id="XMLID_53_" class="st0" d="M370.051,609.794v2.485l-1.72-0.028c0,0-1.422,1.631-1.471,1.631
		c0-0.049,0.034-1.756,0.034-1.756l-2.441,3.093l-0.541-2.053l-5.418-1.255c0,0-0.277,1.081-0.411,1.081
		c-0.13,0-2.134,0.409-2.134,0.409l0.492,0.542l2.377-0.194l0.328-0.825l3.344,1.151l0.825,1.36l-0.936,0.686l1.388,1.582
		l-0.196,1.11l-1.588-0.064v0.868l-0.714-0.13l-0.846,0.844l0.049,3.31l-0.953-1.019l0.1,3.511l-0.978,0.637h-0.765l-1.499,4.05
		h-2.447c0,0-2.379-3.059-2.379-3.093c0-0.028,0-0.944,0-0.944l-1.511-0.887l-0.819,1.692l-1.707-0.062l-0.721,1.603l-1.805,0.874
		l-1.513-0.868v-2.558l-0.75-0.452l0.072-1.164l-1.096,0.104l-1.477,0.908l0.236-1.428l0.706-0.985l-0.769-0.855l-0.993,0.126
		v-0.972l-1.575,0.098l0.089,0.951l-1.185,0.934l-0.181,1.064l-1.025,0.97l-0.931-0.778l0.471-0.778l0.119-0.593l1.117-0.931
		l0.049-0.998l0.838-0.71l-0.866-0.804l-1.012,0.083l0.096-0.893l-0.716-0.784l-1.788,0.07l0.13-1.79c0,0-0.866,0.124-0.908,0.104
		c-0.047-0.015-0.633-0.882-0.633-0.882l-0.983,0.124l-0.748-0.804l0.096-1.645h-1.006l-1.575-0.784l0.853-2.343l1.027-0.931
		l-0.057-3.178h0.866l0.028-2.468l-1.115-2.213l0.921-1.353l0.07-1.305l1.469,1.665l2.65-0.013l-0.119,0.993l1.597-0.043
		l0.791-0.963l0.88,0.111l0.722-0.936l4.148,0.145v-0.959h1.678l1.264-0.699h0.942l0.827-0.757v-0.889h3.481l1.415,1.021
		l1.639-0.166l0.769,0.838l0.701-0.04v1.65l-0.816,0.818l2.413,1.471l-0.915,0.923l0.859,0.859l1.089-0.158l0.674,1.045l1.531-0.109
		l1.554-0.972l4.981,0.096l2.1,3.628L370.051,609.794z"/>
	<path id="XMLID_52_" class="st1" d="M449.756,545.379l-1.123,1.43l0.275,2.392l-2.78,6.263l-2.144,1.686l-2.782,8.616l-0.194,1.901
		l-2.074,5.374l-0.998,1.535l-4.357,1.4l-2.718,2.94l-0.307,1.251l-1.831,0.151l-1.901-9.289l-1.554,0.765l-1.192,1.677l1.727,1.168
		l1.818,6.39l-0.993,2.377l-2.92,1.533l-1.27-5.271l-4.406-1.955l-0.518-0.03l0.492,0.349l-0.207,0.624l3.406,2.136l0.735,2.505
		l-3.323-0.188l-2.462-1.624l-2.596,0.563l-2.524-0.049l0.951,1.837l9.198,0.309l1.104,1.121l-1.471,2.138l-2.394,1.228l0.688,2.703
		l3.044-1.234l0.021,1.386l-2.221,2.136l-2.675,1.616l-0.716,0.716l-5.009,1.401l-2.164-2.912l0.848-2.185l-1.665,0.477
		l-1.277-1.774l-1.79-1.311l-1.552,3.496l2.524,1.663l-2.372,1.272l-0.799-1.556l-2.379-0.124l-1.942,1.166l2.095,1.094
		l-4.468,1.818h-6.243l0.429,1.965l1.665,2.227l2.568,0.062l7.755-4.08l0.52,6.459l-1.275,2.074l-5.446,0.786l0.957,2.193
		l5.03-0.348l-5.335,4.474l-0.041-1.839l0.45-1.143l-6.02-0.237l0.388,1.123l2.956,0.799l0.305,1.707l-2.471,1.055l-3.509-1.096
		l-3.587-0.458l-3.155-1.339l1.748,2.379l-0.194,1.484c0,0-1.707-0.554-1.707-0.624c0-0.06-0.45-2.609-0.45-2.609l-1.707,0.194
		l1.143,1.963l-4.127,0.023l-4.231,3.496c0,0-3.415-0.716-3.477-0.716c-0.06,0-1.017-1.748-1.017-1.748l-3.816-0.471l-0.264-1.013
		l2.441-3.093c0,0-0.034,1.707-0.034,1.756c0.049,0,1.471-1.631,1.471-1.631l1.72,0.028v-2.485l-1.854-1.942l-2.1-3.628
		l-4.981-0.096l-1.554,0.972l-1.531,0.109l-0.674-1.045l-1.089,0.158l-0.859-0.859l0.915-0.923l-2.413-1.471l0.816-0.818v-1.65
		l-0.701,0.04l-0.769-0.838l-1.639,0.166l-1.415-1.021h-3.481v0.889l-0.827,0.757h-0.942l-1.264,0.699h-1.678v0.959l-4.148-0.145
		l-0.722,0.936l-0.88-0.111l-0.791,0.963l-1.597,0.043l0.119-0.993l-2.65,0.013l-1.469-1.665l-0.07,1.305l-0.921,1.353l-0.639-0.173
		l0.068-3.176h-1.032l2.519-2.43l-0.721-0.874h-2.554l-0.691-0.77l-0.113-1.581l0.957-0.791l-1.684-0.735l-0.049-2.449h-0.714
		l-1.624-1.526l-0.062-1.145l-3.747-5.167l3.088-1.159l1.027,2.728l1.221,1.42l0.804-0.799l2.366,1.596l1.65-1.552l-0.665-2.596
		l-4.911-4.764l-0.876,0.878l0.051-1.767l0.776-0.535l-0.028-0.991l1.631-2.159l-0.015-2.773l1.671-3.005l-0.735-0.957
		c1.221-1.187,3.052-4.643,3.074-4.643c0,0.03,0.874-0.087,0.874-0.087l-0.75-5.634l-1.735-1.693l1.79-3.148l-0.893-2.475
		l2.351-0.861l2.413,2.607v-1.13l3.24-3.6l-0.9-0.271l3.363-0.631c0,0-0.034-0.895,0-0.846c-0.013,0-0.944-1.055-0.944-1.055
		l-0.706-1.409l4.676-3.191h1.04l2.191-4.091h1.013v-3.178l-1.893-3.76l-0.473-2.767l-2.553,0.181l-1.622-1.673l1.769-2.462
		l-0.848-1.52h0.827l1.394-0.872h5.048l2.366-0.876l2.332,2.575l1.526-1.737h1.081l3.046,2.575l2.4-1.797h2.643l-0.181,0.959
		l4.856-0.874l2.317-3.287l3.69-0.729l4.378-1.588l1.388-2.91l4.911,1.402l5.09-4.792l1.422-6.026l3.137-2.504l13.561-0.219
		l4.834,3.18l6.03-0.155c0,0,6.604,2.679,6.667,2.679c0.07,0,3.809-0.693,3.809-0.693l4.058,2.594l8.053,7.492l3.302,5.167
		l1.339-0.526l2.829,3.89l0.951,4.039l1.381,1.104l-0.431,3.515l1.104,0.439l-0.236,2.046l-0.978,0.672l-0.217,3.494l-0.388,1.034
		l0.735,1.381v2.575l1.381,1.707l-2.483,1.234L449.756,545.379z"/>
	<path id="XMLID_51_" class="st2" d="M282.993,560.696l-0.644,2.415l-4.815,2.441c0,0-2.436-2.317-2.436-2.379
		c0.064,0,0.041,7.409,0.041,7.409l-2.552,3.003l-2.198,10.251l1.532,3.395l-1.532-0.825l0.652,5.097l-2.575,3.824l2.673,0.795
		l1.456,4.809l0.908,0.081l-0.013,3.323l1.728,2.394l-2.56,3.046l3.295,7.305l-3.24,6.465h-1.741v-0.923l-6.376,2.475l-0.763,1.797
		l1.673,1.375l-0.147,4.133h-0.844l0.934,3.253l0.021,4.862l1.639,1.567l-1.735,4.892h-3.225l-3.129-2.588h-1.061l-3.129-3.357
		c0,0-2.609,1.479-6.333,1.746c0,0,0.665,2.049,2.511,2.95c1.844,0.91,3.155,3.261,3.217,4.267l-1.795,0.868l-0.646,2.545
		c0,0,2.594,1.603,3.204,2.351l-1.567,1.532l-0.034,0.834h0.755c0,0-0.541,0.872-0.597,0.872c-0.047,0,0.543,2.394,0.543,2.394
		h1.081l1.411,1.603l3.368-0.077l-1.04,0.744l0.104,0.838l-4.063,0.277l0.818,1.451l-2.332-0.654l-1.187-0.989l-3.82-0.286
		l-1.019,1.296l-2.198,0.196l-0.972-2.004l-1.942-1.513l-1.97-0.062l0.173,1.575l-3.219,0.735l-0.646,1.319l8.422,1.94l0.347,2.79
		l-1.616,1.464l0.021,1.471l-1.192,1.226l-3.907-0.109l-0.52-1.362l-2.46-0.275l-1.812-2.006l-5.077-0.629l-5.183-1.771l-1.81-1.533
		l-2.462-0.062l-1.346,2.434l0.132,1.972l0.755,1.076l0.368,2.441l-1.319,0.868l-1.746-0.134l1.663-2.291l-0.604-1.961l-1.318-0.154
		l-0.95-2.157l-4.036-4.621l-2.984-2.377l-2.351-1.603l-2.526-2.547l-2.337-0.541l-3.58-1.699l-3.267,0.838l-7.124-0.347
		l-0.776,0.993l-8.352,0.09l-1.819,0.624v1.401l-1.27,1.153l-2.553-0.028l-0.348,1.665l-2.78-0.818l0.255-2.381l-1.144-1.208
		l-0.152-2.656l-1.165-1.034l-0.195,2.262l0.388,4.299l0.861,0.431l-1.484,1.021l-0.173,1.482l-1.492,1.535l-4.661,0.324
		l-0.048,0.993l2.052,0.041l0.798,4.412c0,0-1.464,0.688-1.942,1.311c-0.472,0.631-2.29,2.485-2.29,2.485l0.112,2.144l2.046,0.448
		l1.214,1.707l-1.603,0.452l-0.144,2.053l-1.797,0.674l-1.616-1.451l0.512,2.074l-1.893,0.43l-1.45-0.215l-1.902,3.005l-0.644,4.854
		l-1.707-0.672l-2.309,1.95l-2.332-3.504l-0.152,1.878l-1.817-0.06l-1.034-1.771l-1.597-1.364c0,0,1.464-4.08,1.527-4.122
		c0-0.049-4.211-0.644-4.211-0.644l-2.413-1.603l-2.504,0.39l-2.123-0.912l0.181-1.402l-1.928-0.128c0,0-0.646-2.068-0.646-2.14
		c0-0.06,0.43-1.42,0.43-1.42l-2.504-1.194l-0.367-1.963l-0.888-1.27l-1.506,0.708l-2.706-0.944l-0.859-1.083l-1.041,1.187
		l4.932,2.291l-0.653,1.03l1.515,1.166l1.574-0.019v1.102h-1.208v2.136l-2.393-0.512v-2.441l-2.705-2.358l-7.381-0.646l-2.421-2.046
		l-0.582,1.228l1.018,1.42l-0.464,1.688l-5.071-1.402l-2.975-0.09l-2.227,0.848l-0.195-3.394l-4.037,1.492l-0.132,1.903
		c0,0-1.401,0.727-1.401,0.882c0,0.151-0.757,2.204-0.757,2.204l0.86,1.012l-1.511,1.624l-3.864-1.255l-3.282,2.588l-2.913-0.064
		l-1.338,2.707l-2.123,0.748l0.763-5.503l-2.074-0.588l-1.124,0.755l1.206,0.936l-0.687,2.302l0.556,1.349l-1.291,0.254
		l-1.491,3.046l-2.421-0.887l0.131,1.296l2.679,1.317l1.124,3.04l-3.262,3.432l-3.218-0.776l-2.483,3.248l-2.185-1.298l-0.922-2.767
		l0.625-2.291l-0.909-4.182l-1.839-1.991l-2.24-0.07l-0.868-1.247l-2.615-0.541c0,0-0.727-1.667-0.727-1.727
		c0-0.064-2.72-1.209-2.72-1.209l-1.553,1.257l0.644,1.81l-1.491,2.247l-6.265,1.249l-1.075-1.984l-0.901-0.409v-1.618
		c0.048,0,1.374-0.887,1.374-0.887l0.424-1.978l-1.153-0.81l3.047-2.56h3.259l2.213-2.304l2.864-1.206l1.672,0.271l0.597,2.183
		l2.496,0.801c0,0,2.929-4.212,3.046-4.212c0.096,0.026,2.914,0.908,2.914,0.908s2.233-1.95,2.329-1.95
		c0.099,0,1.916-0.644,1.916-0.644l1.811-2.304l3.142-0.584l2.85-4.043l-0.776-1.56l1.845-0.842l1.809,0.68l3.117-3.37l0.389-3.332
		l1.42-0.482v-2.922l1.165-0.778l0.327,1.04l2.921-1.234l1.165,1.006l0.193-3.044c0,0,2.719,0.804,2.817,0.804
		c0.097,0,1.81-1.484,1.81-1.484s1.076,2.172,1.166,2.172c0.105,0,2.823-2.11,2.913-2.172c0.105-0.068,0.555-3.726,0.652-3.76
		c0.097-0.026,2.789-1.264,2.789-1.264h1.678l2.664-2.266v-1.484l5.279-3.372l1.747-4.474c0,0-0.227-5.766,0-5.826
		c0.224-0.062,1.556-0.972,1.556-0.972s0.9-5.542,0.998-5.604c0.104-0.062,1.429-1.104,1.429-1.104l3.6,1.59l1.749-0.134l2.1,2.304
		l2.656-0.194l3.304-3.08c0,0,1.949-0.714,2.143-0.486c0.193,0.228,0.805,0.812,0.805,0.812l-1.236,2.754l1.236-0.52l2.109-4.052
		l5.437,0.168l-1.324-1.166h-5.384l-1.838-3.856l-0.105-1.976l1.464,0.456l1.36-3.99l4.562-0.254l3.207,1.166l1.076-1.166
		l6.506,0.582l1.784,1.138l0.554-1.234l5.438,0.254l1.811,1.174l7.581,1.58l0.168-1.034l4.432,1.422v1.492l1.942,0.652l0.679,2.296
		l6.611,0.936l1.2,0.972l2.553-0.972c0,0,8.65-0.158,8.879-0.158c0.222,0,1.325-0.68,1.325-0.68l-1.033,4.952l1.456,1.88l0.972-1.36
		l-0.513-3.494l1.554-0.972c0,0-1.299-2.012-1.14-2.11c0.168-0.098,0.972-0.872,0.972-0.872l-1.034-1.978l0.812-3.434l1.034,0.812
		l0.415-3.662l2.276-1.944l-0.75-1.808l5.092,1.164l0.805-3.108l6.319-4.986l1.944,0.22l1.165,2.11l1.588,0.026l-1.297-3.238
		l3.566-5.96l9.551-7.97l6.118-2.816l-3.108-3.884l-0.254,1.908l0.942,0.776l-3.634,1.656l-2.652,2.652l-4.084,1.686l-3.108,4.572
		l-0.485-0.778l0.027-0.776l0.146-0.693h-0.896l0.021-0.915l0.861-0.812l-0.861,0.098l-0.012-0.925l0.741-0.755l0.07-1.569h0.859
		l-0.894-0.691l0.069-1.79l1.673-1.569l-0.09-3.266l1.734-2.358l2.282-2.464l1.616,0.936v-0.936c0,0,3.135,0.085,3.197,0.085
		c0.072,0,2.179-1.688,2.179-1.688l2.165,0.141c0,0-1.187-3.012-1.034-5.12l-0.846-1.388l2.36-5.03l0.663,1.616l1.727,1.776
		l0.825-0.804v-0.972l2.588,0.09c0,0,1.125,4.189,1.443,4.862l1.776,0.064l4.321-1.56h1.311l-0.882-2.18l0.714-1.985l2.304,0.882
		l-1.484,2.332l0.861,0.908l1.686-0.859l2.358,0.949l0.97-0.047l1.228-0.861l4.885-1.624l3.3,3.933l0.866-1.513l-1.643-4.101
		l1.901-0.026l2.831-1.513l0.88-0.818l0.631,1.552l1.27,1.083l1.034,3.157l0.998,1.464h2.698L282.993,560.696z"/>
	<g>
		<path id="XMLID_50_" class="st3" d="M120.001,566.253c-0.053,0-0.571,1.066-0.571,1.066h-1.093l-0.203-1.174L120.001,566.253z"/>
		<g>
			<path id="XMLID_49_" class="st3" d="M234.844,475.901l-0.874,1.002l0.173,1.763c0,0-3.157,0.701-4.191,1.701l-2.254-4.093
				l-4.938-2.366l-0.049-1.032l-2.4,0.949l-0.076,0.84l-2.282,0.859l-1.624-0.143l-1.956,1.904l-1.164,0.348
				c0,0-0.848,5.847-1.791,7.497l1.685,1.68l1.492-0.902l3.661,5.098l1.313,1.415l-2.462-0.081l-1.638,5.064l-2.441,1.49
				l0.853,0.716l-4.836,3.191l0.887,3.204l-0.887,1.624l6.618-2.398l0.784,1.505l-0.847,1.718l-8.115,2.451l-4.03,2.426l7.11,9.732
				l5.022,0.695l-3.287,1.573l-0.667,3.315l1.589,2.368l-2.642-0.791l-2.249,2.413l-4.876,7.331l1.713,1.639l-1.713,2.884v1.362
				l1.748,2.025l-0.209,4.792c0,0,5.689,6.555,5.73,6.576c0.049,0.015,4.96,1.601,4.96,1.601l3.837,6.301l1.76-0.846l0.534,1.671
				l1.867,0.84l-1.734,2.358l0.09,3.266l-1.673,1.569l-0.069,1.79l0.894,0.691h-0.859l-0.07,1.569l-0.741,0.755l0.012,0.925
				l0.861-0.098l-0.861,0.812l-0.021,0.915h0.896l-0.146,0.693l-3.752,4.21l-3.864-0.222l-1.318,1.019l-8.636-0.388l-6.487,3.238
				l-1.553-1.273l-0.561,1.816l-3.394,0.3l-0.076,1.337l0.749,0.256l0.756,3.977l-4.509-0.124l-0.264,1.164l-5.806-1.125
				l-1.776-1.857l-1.81,1.492l-4.085-2.048l-3.538-3.656l-0.513-3.434l-1.673-0.929l-1.81,0.695l-1.104-2.441l-1.567-0.495
				l0.853-2.289l-2.691-3.613l1.054-1.27l-1.636-1.296l0.041-4.276l-2.011,1.942l-2.484,1.042l-0.062-2.377
				c0,0-0.174,1.53-1.056,1.594c-0.887,0.07-2.941,0.603-3.004,1.562c-0.068,0.944-0.11,1.094-0.11,1.094s-1.727,0.778-1.79,0.778
				c-0.07,0-3.281-0.215-3.281-0.215l-0.458-1.921l-2.416,2.051l-4.778-0.367l-2.331-2.002l0.694-1.688l-0.652-2.142l3.482-1.311
				c0,0,8.026-0.848,8.095-0.848c0.062,0,1.41,0.778,1.41,0.778l-0.377-1.513l1.542-1.791l-2.139-0.58l-0.283,1.727l-1.207,0.624
				c0,0-1.902-0.348-2.941-0.951c-1.033-0.601-1.963-1.164-1.963-1.164s-1.145,0.672-2.116,0.479l-4.016-4.321l1.88-0.543
				l-1.539-2.607l-0.75-2.615c0,0-3.67,0.588-3.67,0.603c0.061,0,0.776,2.115,0.776,2.115l-7.026-0.818l-5.348,0.192l-1.943,0.972
				l1.207,1.27c0,0-1.707,1.774-2.526,3.3c0,0-2.656-1.012-2.656-0.942c0,0.064,0,1.401,0,1.401l-2.961-0.041l-0.369-1.236h-2.739
				l-2.936,3.289l-2.032-1.575l-2.484,0.126l-2.421-2.27l0.93-2.415l-1.964-2.357l0.951-1.036l1.941,0.972
				c0,0,1.117-0.908,1.207-0.908c0.071,0.021,4.691,3.781,4.691,3.781l0.366-1.645l-0.95-1.185l1.576,0.192l0.021-0.885
				l-1.249-1.985l-1.165,1.337l-2.124,0.584l-0.255-1.298l-2.504,0.132l-0.778-0.755l0.451-1.965l-0.991,0.134l-0.493,1.268
				l-2.665,0.607v2.266l-1.658-0.153l-0.021-2.114l-2.096-2.394l0.737-1.277c0,0,1.013,0.889,1.075,0.848
				c0.07-0.049,0.93-1.665,0.93-1.665s3.955-0.411,3.976-0.48c0.019-0.06,1.122-1.746,1.122-1.746l0.174-5.378l-3.628-1.081
				l-0.201-1.136h-4.315l-1.207,0.644l0.172-3.413l2.463-0.949h3.282c0,0,1.013-1.688,1.081-1.688c0.062,0,2.227,0.132,2.227,0.132
				l0.493,0.778l1.444-1.577l1.921-0.386l0.652-3.543l1.36-1.083l2.781,1.539l1.255-0.151l-1.338,1.42c0,0,2.248,0.111,2.311,0.068
				c0.062-0.04,1.644-0.499,1.644-0.499l0.971-1.492l0.839,1.771l2.678,0.693l-0.304-2.136l2.49-1.019l1.851-0.362l1.492-3.025
				l2.247-0.215l1.186,0.799l0.041-1.748l2.186-0.52l2.483,1.081l1.984-0.561l0.021,1.311l3.497-0.667l1.15-1.79l4.316-3.155
				l3.393,0.409l7.317-3.172l2.207-3.155l3.128-2.266l2.165-5.376l1.186-4.212l2.241-3.566l5.702-2.586h-3.087l-4.038-1.451
				l0.542-2.392l1.097-1.582l-2.629-0.993l5.07-5.632l4.821-2.933l-4.843,0.686l-1.441-3.822l-2.136-3.434l1.984-2.892l-0.062-4.086
				l6.846-2.914l-5.722,0.22l-0.736,1.251l-5.598-0.799l-3.538-1.226l-0.285,1.746l-4.426-0.998l-1.92,2.381l-2.227,0.844
				l-1.013,2.741v1.464l-2.414,0.695l-0.221-2.334l-1.575-2.162l-2.594,2.185l-4.183-0.757l-1.124,1.23l-1.276-1.769l1.297-2.097
				h1.227l0.561-2.421c0,0,8.907-5.395,9.003-5.395c0.072,0.019,3.871,0.714,3.871,0.714l1.485-3.074c0,0,3.156-1.138,3.226-1.138
				c0.056,0,3.538-2.33,3.538-2.33l2.615-4.474l0.147-2.679l2.573-0.409l2.781-2.907l0.617-1.081l5.023-2.089
				c0,0,1.289,0.97,1.394,0.97c0.09,0,4.079-0.812,4.079-0.812l4.307-1.94l2.489-0.158c0,0,2.374,0.872,2.374,1.093
				c0,0.224-0.104,1.654-0.104,1.654l1.477-0.584l-0.014-2.072l-1.803-1.556l-0.466-2.901c0,0,1.166-0.727,1.166-0.678
				c0,0.049,0.534,2.221,0.584,2.221c0.049,0,2.317-0.294,2.317-0.294l1.733,2.611l-0.506,1.164l12.535,0.659l0.811-2.004
				l2.61,0.326l2.718-1.187l7.665,5.263l0.173,2.532l5.12,4.295l0.637-1.273h1.479l3.794,4.638l0.16-0.678l0.831,0.812l-0.831,0.722
				l0.831,0.818l-1.656,1.81h-2.394l0.915,2.351c0,0,3.135,2.324,3.135,2.381c-0.04,0.034-0.797,0.921-0.797,0.921l1.554,3.253
				l0.797,3.856l4.892,3.206V475.901z"/>
			<path id="XMLID_48_" class="st3" d="M147.981,437.22c0,0,0.647-4.012,0.712-4.048c0.064-0.026,0.763-0.793,0.763-0.793
				l-0.91-1.032l-1.213,1.341l-0.629-1.993l-1.684-0.226l-0.831,3.223l1.702,0.066C145.891,433.757,146.981,436.573,147.981,437.22z
				"/>
			<path id="XMLID_47_" class="st3" d="M151.996,426.288h-1.438l0.809-1.586l5.263,0.162l2.462-0.955l3.191,1.927l3.221,0.616
				l-1.49,3.95l2.284,0.697l1.101,1.62l-0.241,3.08l2.138,0.194l1.702-0.972l3.561,0.714l1.26,1.311l-4.175,3.948
				c0,0-2.526,0.226-2.578,0.226c-0.047,0-0.984,1.445-0.984,1.445l-1.395,0.192l-1.846,1.524l-4.406,3.336l-2.526,0.989
				l-2.801-1.637l-1.245-3.027l-1.298,0.094l-1.781-1.718l1.053-0.853l0.372-3.453l-2.753-2.347v-2.091l2.234-1.083l-1.974-2.675
				L151.996,426.288z"/>
		</g>
	</g>
	<g>
		<path id="XMLID_45_" class="st1" d="M421.378,636.572l-2.462-1.166l0.019,2.984l2.138,0.194l1.102-0.625
			c0,0,0.286,4.683,0.153,6.064c-0.124,1.386-0.194,3.677-1.166,4.495c-0.97,0.825-4.058,3.005-4.058,3.005l-1.172,1.445
			l-4.572,0.343l-1.228,1.923l-5.943-0.235l-0.584,1.102l-4.495,1.984l0.153,1.778l-2.115,2.33l0.111,4.402l-6.111-1.337
			l-4.642-2.573l-1.645,2.809l-3.217,3.151l-3.866,1.226l-2.392-0.597l-1.36,0.923l-4.647,0.202l-3.843,0.949l-2.547,1.381
			l-1.04,2.004l-5.702,1.797l-4.898-2.074l-1.083-1.707l-6.61-3.065l-5.542-1.993c0,0-1.492-0.358-1.513-0.429
			c-0.026-0.06-1.236-0.753-1.236-0.753l-5.506,0.316l-1.923,0.957l-5.674,0.043l-2.012-0.951l-7.021,0.993l-4.578-0.43
			l-0.104,1.061l-1.58-1.061l-1.209,1.469l0.023,2.956l-2.79-1.644l-2.087-2.884v-2.255l2.221-0.791l-0.411-3.238l-1.795,0.818
			l-0.279,1.228l-1.185,0.173l0.019-2.615l-2.76,0.262l-2.374-0.665l-1.582,1.81l-0.192,2.526l-2.006,1.079l-1.213-1.275
			l-1.443,0.068l-0.735,1.138l-6.245-6.02l-0.929-3.329l-1.921-0.085c0,0-1.43-4.6-1.451-4.6c0,0.064-1.247,2.247-1.247,2.247
			l-3.351-2.613l0.192,1.49l6.917,7.882l-1.317,2.289l-8.601,1.492l-2.244-0.501l-0.062,1.797l-2.289,2.242l-3.952-3.496
			l-1.66,0.111l-0.104-0.838l1.04-0.744l-3.368,0.077l-1.411-1.603h-1.081c0,0-0.59-2.394-0.543-2.394
			c0.056,0,0.597-0.872,0.597-0.872h-0.755l0.034-0.834l1.567-1.532c-0.61-0.748-3.204-2.351-3.204-2.351l0.646-2.545l1.795-0.868
			c-0.062-1.006-1.373-3.357-3.217-4.267c-1.846-0.9-2.511-2.95-2.511-2.95c3.724-0.268,6.333-1.746,6.333-1.746l3.129,3.357h1.061
			l3.129,2.588h3.225l1.735-4.892l-1.639-1.567l-0.021-4.862l-0.934-3.253h0.844l0.147-4.133l-1.673-1.375l0.763-1.797l6.376-2.475
			v0.923h1.741l3.24-6.465l-3.295-7.305l2.56-3.046l-1.728-2.394l0.013-3.323l-0.908-0.081l-1.456-4.809l-2.673-0.795l2.575-3.824
			l-0.652-5.097l1.532,0.825l-1.532-3.395l2.198-10.251l2.552-3.003c0,0,0.023-7.409-0.041-7.409c0,0.062,2.436,2.379,2.436,2.379
			l4.815-2.441l0.644-2.415l0.825-3.116c1.019-0.735,1.663-2.464,1.663-2.464h5.593l1.554-3.95l1.012-0.812l3.095,5.666
			l-3.199,0.631l0.923,1.013l-0.861,2.089l0.036,1.079l0.887-0.055l-0.111,4.89l4.058,0.633l-0.075,0.908l4.016-3.24l-0.846,0.075
			l0.062-1.703l6.486-1.564l-0.07-0.861l4.12,0.765l1.575,4.205l1.505-0.861v-0.84l2.581-1.471l-1.637-2.428l0.057-2.594
			c0,0,2.914-0.701,2.948-0.721c0.034-0.021,0.09-0.949,0.09-0.949l0.97,0.055l1.631-1.663l3.01-0.778l2.421,0.006l1.735,1.693
			l0.75,5.634c0,0-0.874,0.117-0.874,0.087c-0.023,0-1.854,3.457-3.074,4.643l0.735,0.957l-1.671,3.005l0.015,2.773l-1.631,2.159
			l0.028,0.991l-0.776,0.535l-0.051,1.767l0.876-0.878l4.911,4.764l0.665,2.596l-1.65,1.552l-2.366-1.596l-0.804,0.799l-1.221-1.42
			l-1.027-2.728l-3.088,1.159l3.747,5.167l0.062,1.145l1.624,1.526h0.714l0.049,2.449l1.684,0.735l-0.957,0.791l0.113,1.581
			l0.691,0.77h2.554l0.721,0.874l-2.519,2.43h1.032l-0.068,3.176l0.639,0.173l1.115,2.213l-0.028,2.468h-0.866l0.057,3.178
			l-1.027,0.931l-0.853,2.343l1.575,0.784h1.006l-0.096,1.645l0.748,0.804l0.983-0.124c0,0,0.586,0.867,0.633,0.882
			c0.041,0.021,0.908-0.104,0.908-0.104l-0.13,1.79l1.788-0.07l0.716,0.784l-0.096,0.893l1.012-0.083l0.866,0.804l-0.838,0.71
			l-0.049,0.998l-1.117,0.931l-0.119,0.593l-0.471,0.778l0.931,0.778l1.025-0.97l0.181-1.064l1.185-0.934l-0.089-0.951l1.575-0.098
			v0.972l0.993-0.126l0.769,0.855l-0.706,0.985l-0.236,1.428l1.477-0.908l1.096-0.104l-0.072,1.164l0.75,0.452v2.558l1.513,0.868
			l1.805-0.874l0.721-1.603l1.707,0.062l0.819-1.692l1.511,0.887c0,0,0,0.915,0,0.944c0,0.034,2.379,3.093,2.379,3.093h2.447
			l1.499-4.05h0.765l0.978-0.637l-0.1-3.511l0.953,1.019l-0.049-3.31l0.846-0.844l0.714,0.13v-0.868l1.588,0.064l0.196-1.11
			l1.143-0.61l1.79,1.622l1.665-0.65l2.609,2.509l5.118,0.277l0.605-1.635l7.143-0.695l5.231,3.088l-3.946,0.411l-6.03,1.684
			l-1.03,2.159l2.739-0.993l2.568,2.575l2.933,0.019l1.368-2.726h1.748l0.949,2.961l-0.367,1.831l2.289-0.388l1.748,2.055
			c0,0,2.982,0.968,2.982,1.04c0,0.062-0.241,0.797-0.241,0.797l4.883-1.407c0,0,2.976-0.429,2.976-0.36
			c0,0.06,2.206-1.147,2.206-1.147l9.025-0.65l0.45,1.663c0,0,3.656-0.541,3.719-0.541c0.062,0,2.984-0.78,2.984-0.78l2.309,0.951
			l-0.021,3.914L421.378,636.572z"/>
		<path id="XMLID_44_" class="st1" d="M264.044,671.774l2.396-0.614c0,0,1.831,0.437,1.878,0.471l7.062,7.011l0.503-0.667
			l0.793,2.191l0.957,0.224l6.299-1.326l0.825-3.063l-0.501-1.247l0.064-0.454l4.323,0.036l-1.584-4.229l0.224-1.765
			c0,0-4.905,0.55-4.905,0.505c0-0.053-0.893-0.91-0.893-0.91l0.439-1.765l-1.247-1.247l-0.81,1.441l0.079,2.622l-1.083,1.019
			l-0.358-0.821l0.516-1.914v-2.686h-1.036l-1.326,2.025l-1.746,0.501l-0.972,1.861l-2.756-1.119l-3.338,0.959l-0.987-0.842
			L264.044,671.774z"/>
		<polygon id="XMLID_43_" class="st1" points="298.217,665.186 295.804,665.326 293.732,664.438 296.729,661.765 		"/>
		<polygon id="XMLID_42_" class="st1" points="395.314,629.133 391.505,626.801 390.211,623.868 391.087,622.02 393.581,622.57 
			393.89,624.286 400.773,628.918 		"/>
	</g>
	<path id="XMLID_41_" class="st4" d="M336.053,115.36l0.264,1.88l-1.727,2.504l-3.933,3.261L329,123.505l-1.015,2.462l-7.324,9.608
		l-1.339,8.553l-2.679,4.51c0,0-2.551,1.566-2.551,1.643c0,0.229-3.969,10.995-3.969,10.995l-2.596,3.233l-8.134,5.446
		c0,0-1.737,3.371-2.125,5.875l-2.656,0.972l-0.401,4.405l-3.248,2.828l-0.667,0.925l-9.072,6.069l-2.547-1.687l-3.946,1.04
		l-1.686-1.123l-2.228,1.45l-4.188-1.212c0,0-3.15,1.379-4.6,2.227c-1.449,0.838-6.263,4.077-6.263,4.077s-0.277,1.554-0.215,1.554
		c0.07,0,3.199-0.277,3.199-0.277s2.788-1.964,4.598-2.698c1.818-0.735,5.314-1.575,8.032-1.797l1.019-1.297l4.724,1.838
		l2.095,9.067l2.421,1.132l2.332,2.586l0.388,2.769l-3.087,2.718c0,0-2.635,0.172-5.57,1.727l-4.947-0.041l-3.717-2.595
		l-2.935,1.901l-2.809,2.914l-2.012-0.042l-2.2,2.116l-0.859,3.302l-2.637,0.651l-2.031-1.492l-1.79,1.811l-3.587-0.145
		l-0.667,1.553l-2.726-0.409l-11.009-7.153l-2.053,0.028l2.462,5.55l7.194,1.464l3.69,2.075l3.199,0.215l5.09,2.227l3.871-0.132
		l1.228,1.857l2.4,1.963l4.182,0.154l9.034-7.646l6.062,0.951l6.181,5.048l6.972,7.021l1.125,0.134l1.381,2.31l2.786,0.041
		l1.445-0.326l2.726,1.878l0.258,2.311l2.01,1.686l0.041,2.592l1.013,0.738l0.077,1.712l-2.089,2.816l-3.476,3.116l-4.252,3.688
		l-1.626,2.428l-2.385-0.921l-2.374,0.921l5.67,14.416l-8.825,4.958v2.513h-6.742l-2.754,2.796l-1.797,0.993l-7.422,8.012
		l-7.838,4.334l-4.267,2.978l-6.397,0.712l-1.658,5.619l-10.753-0.701l-13.325-2.63l-1.45,7.492l-4.405-1.104l-4.71,2.21
		l-1.81-3.178l-1.234,5.404l-1.749,0.235l-1.297,1.317l-4.19,2.053l-4.059-2.033l-3.086,0.104l-2.525-1.852
		c0,0-0.389-1.511-1.361-2.379c-0.969-0.859-3.994-4.058-3.994-4.058l-5.357-3.199l2.81,6.716l0.707,0.652l-2.433,3.801l-0.03,4.487
		l-2.392,1.256l-1.922-0.993l-12.396-13.846l-1.838-4.529l-6.409,2.568l-0.757,6.991l0.306,7.908l-2.034,0.021l-1.9-4.668
		l1.165-2.617l-1.879-5.418l-3.135-4.487l-2.498-7.042l1.853-6.263l3.218-1.034l1.748,0.584l-0.319,5.661l0.706,2.545l1.146-0.693
		l0.909-4.427c0,0-0.909-3.779-0.909-3.843c0-0.064-0.09-1.552-0.09-1.552l7.804-10.496l4.557-2.635l1.921-4.926l5.154-8.895
		l7.305-4.709l-0.776-5.591l-0.952-0.776l1.818-1.626l-4.044-5.631l-2.545-0.755l-2.484-5.723l2.935-4.058l0.673-4.15l-0.375-7.928
		h1.602l3.345-4.766l5.34,3.6l9.088,3.239l2.442,2.769h0.776l-2.157-4.281l-2.443-0.36l-7.492-4.044l-0.687-2.934l-2.275-2.38
		l-0.923-4.232h-1.125l0.258,3.893l1.685,2.414l-3.094,0.735l-1.032-2.464l0.797-2.629l-1.124-1.407l-0.861,2.205l-0.41,3.56
		l-1.775,0.61l0.568,1.871l-2.267,2.485l-1.859,4.232l-3.671-1.333l1.034-2.248l-0.818-5.792l-1.368,0.132l0.479,4.815l-0.839,0.777
		l-1.388-2.199l-1.94-1.881l-0.3-1.962l-1.144,0.173l-0.368,3.281l-0.929,0.949l-0.5,5.12l-2.115-0.568l-1.513-1.402l-0.194-7.402
		l0.819-3.759l10.116-10.455l3.709-0.735l3.296-3.801l4.515-2.573l0.424-1.347l-4.503,1.528l-0.456-1.09l-7.159,5.674l-1.38,1.894
		l-1.839,0.436l-6.257,7.284l-2.553,1.831l-1.721-1.54l-1.469,0.362l0.221,10.461l3.324,6.832l-1.193,3.677l-2.776-0.062
		l-1.748,1.927l-4.744,10.219l-0.216,2.475l-1.602,0.52l-1.214,3.933l-4.94,5.919l1.229,4.819l-3.801,4.148l-5.556-0.094l-4.101-2.4
		l1.382-6.301l3.121-1.65l2.233-0.062l1.089-11.001l3.531-4.176l0.896-5.024c0,0,5.16-4.304,5.21-4.319
		c0.049-0.013,4.799-2.22,4.799-2.22l2.942-3.837l-0.798-1.164l-3.475,3.461l-4.232,2.401l-0.937-1.603l0.971-1.623l-2.123-1.442
		l0.799-2.88l3.135-3.323l1.477-2.261l-0.908-0.861l-2.052,2.331l-1.638-0.082l-0.013-1.41l4.286-3.856l0.937-2.671l1.768-0.742
		l-0.049-1.602l-2.039,0.957l-2.448,3.753l-2.379,1.831l-0.68-1.88l2.435-2.9l1.776-1.616l4.522-4.681l1.638-0.632l0.352-2.269
		c0,0,2.076-2.441,2.076-2.511c-0.049-0.013-0.938-0.859-0.993-0.859c-0.049,0-2.428,1.878-2.428,1.878l-1.069,1.638l-1.234-0.229
		l1.477-2.851l4.476-3.607l-0.445-1.54l2.983-1.54L154.319,185l-1.985,0.533l-1.358-0.741l-2.359,1.033l-0.798,1.881l-0.402,2.392
		l-1.117-0.937l-0.069-3.321l2.158-2.088l0.049-2.538l1.928-1.492l0.721,2.136l1.492-2.865l1.852-0.485l0.111-2.56l-0.777-1.7
		l2.691-1.769l0.591,0.646l2.761-1.908l2.49,0.354l-1.276-3.122l-1.616,0.208l0.042-1.36l4.89-2.01l-1.069-1.519l1.367-2.657
		l4.952-4.308l-0.741-1.006c0,0,1.338-0.839,1.386-0.839c0.057,0,5.835-0.424,5.835-0.424l-0.569-2.22l-1.88,0.52l-0.097-1.345
		l4.876-4.579l1.866-2.705l-1.103-0.653l-2.441,2.935l-1.831,0.666l-1.174,2.199l-4.273,3.565l-4.549,3.06l-1.187-0.91l-2.04,2.532
		l-1.776-0.035l-1.137,2.643l-2.9,2.893l-3.288,0.895l-0.909,1.395l-2.211-0.389l-0.382-2.012l-3.641-2.268l-2.276-0.195
		l-3.345-3.204l-0.318-2.679c0,0-1.249-2.607-1.249-2.648c0-0.056,0.013-1.637,0.013-1.637l7.499-0.05l1.866-0.582h1.048
		l1.041-1.116l0.922,0.11l2.262,1.568l2.871,0.944l3.359-0.036l-1.492-0.908l-3.406-0.062c0-0.083-1.332-2.366-1.332-2.366
		l-1.082,0.07l-0.368-0.736l-1.989,0.035l0.026,0.618l-0.922,0.131l-0.57,0.804l-1.019-0.047c0,0-0.61,0.881-0.679,0.881
		c-0.049-0.036-0.763-0.881-0.763-0.881l-3.288,0.068l-1.111-1.164l-3.745-0.555l-0.618-1.665l-3.315,1.227l-2.351-1.103
		l-0.633-3.578l2.623-2.199l9.184,1.442l-0.022-1.442l4.232,3.8l0.776-0.632l-1.053-2.046l0.756-2.483l2.484-1.103l4.752-0.736
		l-1.859-1.686l2.851-1.464l-0.279-1.144l-7.047,0.514c0,0-2.26-1.096-2.178-1.146c0.084-0.04,1.012-1.143,1.012-1.143h2.617
		l-0.125-1.811l2.158-2.719l0.534-2.961h5.035l3.046,4.232c0,0,4.883-0.174,4.883-0.236c0-0.062-0.047-1.187-0.047-1.187
		l-3.301-0.041l-1.75-1.124l-0.429-2.656l-2.421-0.479l-1.603-2.047l3.635-4.148l6.514,2.781c0,0,1.901,0.028,1.901-0.041
		c0-0.063-0.799-3.088-0.799-3.088s-2.565-1.851-2.697-1.901c-0.133-0.041-2.291-0.52-2.291-0.52l0.106-2.247l2.809-1.443
		l0.062-2.635l5.211-1.422l2.872,3.995c0,0,1.727,0.021,1.727-0.041c0-0.07-1.249-2.727-1.249-2.727l-2.532-2.678h-3.219
		l-1.81-1.297h-3.995v-1.616l4.294-3.087l3.844-0.133l-0.75-1.901l0.083-3.905l-3.65,3.559l-2.504,0.825l-2.85-0.027l-0.868-3.213
		l0.972-4.579l-1.207-2.872l2.873-7.686l3.087,0.902l0.451,1.901l2.379,0.215l0.623,3.393l2.268-1.818l2.658,0.693l1.769-1.207
		l-2.22-0.95l-2.941-0.215l-1.401-1.236l-1.79-2.892l0.603-0.666l-1.053-3.024l-1.929,0.216l0.063-1.381l4.515-3.504
		c0,0,0.867,0.972,0.95,0.993c0.09,0.026,1.296-0.993,1.296-0.993l-0.602-2.65l-2.441,0.145l-1.943-3.066l1.532-1.79l-0.409-3.711
		l0.776-2.185h4.927l0.492,5.335l1.538,3.004l2.139-1.408l0.859-3.65l-2.399-1.054l-0.195-1.512l-0.492-1.513
		c0,0,1.532-0.951,1.595-0.992c0.062-0.049,0.694-1.429,0.694-1.429h1.532l1.748,1.969l-0.263,3.087l2.532,0.972l2.442-2.485
		l3.821,2.179l1.575,2.614l1.747,0.625l-0.276-1.339l-2.103-2.422l-0.103-1.483c0,0-3.129-1.193-3.129-1.257
		c0-0.06,0.318-1.747,0.318-1.747l1.818,0.257l3.129,2.309l1.512,0.194l2.81,2.9h1.297l-1.214-2.164l-1.853-1.706l1.617-1.076
		l-2.636-2.727l-1.831-0.755l0.104-2.721l-2.227-2.828l-1.679-0.299l-0.672-3.954l1.575-1.339l2.402,2.872l2.377,1.083l1.375-3.067
		l-0.236-2.158l1.949-0.95l-2.116-1.817l-0.762-4.836l-1.117-1.019l1.228-2.505l1.859,1.707l0.193,1.277l5.161-0.368l2.422,0.778
		l1.465-1.083l3.822,2.9l1.858-0.201c0,0-4.059-3.407-5.786-4.6l-1.601-4.64l1.553-3.241l2.137-2.545l1.429,1.638l0.839-0.902
		l-0.104-2.421l1.747-0.133l1.236,1.167l0.583-1.638l-4.406-3.219l1.207-2.698l4.341-4.037L215.489,0l1.514,0.152l1.165,1.361
		l2.484,0.02l2.184,3.371l-1.337,2.464l0.041,2.267l1.512,0.041l1.207-6.151l1.471-0.584l0.409,3.385c0,0,2.095,1.02,2.095,1.125
		c0,0.111-0.041,2.483-0.041,2.483l-4.641,4.211l0.368,1.256l3.6-2.012l5.077-6.326l3.455,0.783l2.046,2.629l-1.206,4.62
		l-2.63,2.206l0.064,1.145c0,0,3.771-2.83,3.843-2.83c0.062,0,2.594-3.69,2.594-3.69l4.037,0.021l1.275,2.873l1.228-2.526
		l2.311,0.062l0.84-2.052l2.677,0.776l0.437,1.276l1.831-0.714V9.933l1.665-0.347l0.347,1.748l9.219,3.115l5.958-2.699l2.247-1.143
		l2.762,0.451l-0.861,1.103l6.972,2.761l1.56-2.699l-1.364-1.013l-0.84-2.422l9.114,0.541l0.194,1.533l6.092,2.789
		c0,0-1.471,5.112-2.893,6.133c-1.43,1.013-2.289,1.491-2.289,1.491l0.882,4.467l1.164,0.867l-0.104,3.018l-2.332,1.601
		l-0.844,3.219c0,0-1.422,0.409-2.034,1.096c-0.603,0.693-2.095,2.227-2.095,2.227l-3.212,1.616c0,0-2.504-0.361-2.504-0.277
		c0,0.083-0.132,1.595-0.132,1.595l-2.892-0.707l-6.265,6.582l-4.862,3.546l-2.671-0.028l-2.033,2.726l-10.864,6.695l-8.483,1.319
		l2.566,4.334l-5.438,4.066l-2.899-2.096l-4.53-0.818l-3.607-5.529l-1.081,0.43l3.455,6.133l5.487,1.276l5.335,3.793
		c0,0,4.596-1.483,4.681-1.483c0,0.02,0.763,2.608,0.763,2.608l3.108-2.421l1.79,0.54l-3.413,5.62l-5.244,5.417l-2.053-0.062
		l-0.908-1.318l1.554-2.595l-4.877,1.562l-2.423,1.81l-1.767-1.491l-5.357,2.719l-3.718,2.421l-1.698,3.904l9.26-6.43l6.928,0.133
		l2.505,1.227l-1.963,1.88l-3.329,2.761l0.068,2.033l-2.803,0.216l-0.908,1.622l-3.003-0.52l0.582,2.31l-1.492,1.532l-1.81-1.296
		l-4.475,0.111l5.639,2.178l3.997,0.603l6.326-4.751l-0.132-2.331l2.635-1.076l1.256,1.271c0,0,9.434-0.951,9.496-0.972
		c0.07-0.021,3.822-2.656,3.822-2.656l3.719,3.454l4.967-4.855l3.621-0.285l3.892-0.776l8.88,5.812l4.099,1.492l1.381-1.144
		l2.198,0.756l1.541-2.268l2.545,0.172l1.143,2.22l1.665-0.708c0,0,3.621,1.416,3.768,1.466c0,0.047,0.463,0.754,0.463,0.754
		l1.603-0.838l3.928,1.318l0.97,1.658l8.532,0.693l2.027-1.227l2.464,1.831l3.197-0.215l1.901-1.797l5.201,1.471l6.265,10.412
		l1.081,6.971L336.053,115.36z"/>
	<polygon id="XMLID_40_" class="st4" points="107.753,256.441 106.005,260.523 102.7,255.706 	"/>
	<polygon id="XMLID_39_" class="st4" points="190.517,47.748 190.958,48.85 189.688,49.216 189.264,47.64 	"/>
	<path id="XMLID_38_" class="st4" d="M188.575,46.549l-0.09-1.771c0,0-2.48-0.121-2.474-0.087c0.013,0.032,0.458,1.416,0.458,1.416
		L188.575,46.549z"/>
	<polygon id="XMLID_37_" class="st4" points="199.06,27.612 198.521,26.898 197.181,26.098 197.73,25.579 197.872,25.148 
		199.726,26.455 	"/>
	<path id="XMLID_36_" class="st5" d="M382.482,442.803l-1.332,1.597c0,0-1.644-0.124-1.644-0.196
		c0.023-0.062,1.256-2.886,1.256-2.886l-5.425-3.44l-1.422,1.498l-0.887,0.104l-3.692-2.095l-4.854-7.707l-3.046-1.665
		c0,0-2.289,0.921-4.585,1.083c-2.289,0.143-6.305,0.339-6.305,0.339l-2.76-1.665l-2.937,0.049l-2.85,1.187v1.471l3.732-1.409
		l3.696,3.911l4.579-1.942l2.5,1.208l3.225-1.012l3.127,1.699l2.402,4.905c0,0,3.466,3.946,3.538,3.994
		c0.062,0.041,4.487,2.956,4.487,2.956l-0.318,1.645l1.976,1.616l-3.253,0.853l-0.846-0.97l-1.492,5.777l-2.573,0.799l-2.366-4.003
		l-0.84-4.099l1.665-3.01l-4.854-4.101l-3.385,3.933l-3.033-1.652l-4.125,1.673l4.125,2.351l-4.099,1.631l0.957,2.449l-3.822,0.921
		l-4.391-0.825l0.957-2.462l-5.702-3.289c-0.194,0.799-3.204,4.792-3.204,4.792l-5.668-0.678l-0.887-4.093l-4.73,5.681l-4.246-0.047
		c-0.701,0.991-2.172,3.905-2.172,3.905l-1.686,1.714l0.763,0.825l-0.631,0.893h-1.068l-0.569,0.723l-3.315,0.872l-2.302-2.502
		l-1.055-0.021l-0.742,0.97l-2.232-1.013l0.143-1.562l-2.656-0.034l-1.575,1.854l0.083-1.187l-2.56,1.053l-2.33-1.699l-0.887,0.923
		l-3.242-4.877l0.938-1.65l-5.619-8.699c-0.192-1.729-0.895-3.413-0.895-3.413l-3.967-2.351l-1.292-1.554l-1.17-2.643
		c0,0-1.618-2.458-2.394-2.978l0.034-4.973h-3.466l-1.43-0.776c0,0,0.305-2.475-1-3.967l2.658-1.554c0,0,0.478-3.538,1.388-4.016
		c0.908-0.494,3.357-1.637,3.357-1.637l0.887-1.665l-2.387-3.894l-0.026-1.808l-3.191-2.17l0.062-1.82l-1.714-2.294h-2.464
		l-3.12-6.548l-4.877-0.661l0.096-2.607l-3.434-5.591l5.802-6.444l7.254-1.603l-0.861-8.13l4.114-1.603c0,0,0.605-4.743,0.646-4.743
		c0.049,0,5.57-0.763,5.57-0.763h3.093l3.37-0.806l3.545,3.27h0.514l11.474-4.886l0.512-0.908l0.861,1.061
		c0,0,4.536,0.972,5.229,2.809c0.688,1.835,4.448,4.148,4.448,4.148l0.755-1.405l1.727-0.023v0.688l0.91-1.573l0.797-0.023v0.931
		l0.757-0.931v2.554l5.832-0.912l1.362-1.552l0.859-0.132l0.652,0.949l2.976-0.041l2.185,0.819l1.511,0.04l0.688,0.829
		c0,0,5.808,0.192,8.686,1.596l3.148-4.815l4.24,2.247l-0.633,1.123l2.159,0.512l5.273,5.182l1.511,5.016l1.166,3.775l1.726,3.606
		l0.91,4.425l3.864,3.698l0.84,4.101l2.317,2.379l1.985-0.175l1.079,1.833l1.729-0.196l0.277,1.737l-5.653,4.029l0.318,9.46
		l0.972,1.062l-0.863,3.364l7.667,13.674l-0.215,1.707l1.533,1.136L382.482,442.803z"/>
	<path id="XMLID_35_" class="st5" d="M371.626,496.517c0,0-3.142-2.187-3.24-2.187c0,0.064,1.339,3.607,1.339,3.607
		s-4.321,2.136-4.321,2.23c0.049,0.06,0.215,1.204,0.215,1.204l2.553-0.345l6,1.079l3.069,3.436l0.13,1.637l2.068,1.62l-1.388,2.91
		l-4.378,1.588l-3.69,0.729l-2.317,3.287l-4.856,0.874l0.181-0.959h-2.643l-2.4,1.797l-3.046-2.575h-1.081l-1.526,1.737
		l-2.332-2.575l-2.366,0.876h-5.048l-1.394,0.872h-0.827l0.848,1.52l-1.769,2.462l1.622,1.673l2.553-0.181l0.473,2.767l1.893,3.76
		v3.178h-1.013l-2.191,4.091h-1.04l-4.676,3.191l0.706,1.409c0,0,0.931,1.055,0.944,1.055c-0.034-0.049,0,0.846,0,0.846
		l-3.363,0.631l0.9,0.271l-3.24,3.6v1.13l-2.413-2.607l-2.351,0.861l0.893,2.475l-1.79,3.148l-2.421-0.006l-3.01,0.778l-1.631,1.663
		l-0.97-0.055c0,0-0.057,0.929-0.09,0.949c-0.034,0.021-2.948,0.721-2.948,0.721l-0.057,2.594l1.637,2.428l-2.581,1.471v0.84
		l-1.505,0.861l-1.575-4.205l-4.12-0.765l0.07,0.861l-6.486,1.564l-0.062,1.703l0.846-0.075l-4.016,3.24l0.075-0.908l-4.058-0.633
		l0.111-4.89l-0.887,0.055l-0.036-1.079l0.861-2.089l-0.923-1.013l3.199-0.631l-3.095-5.666l0.716-1.756h2.573l2.115-4.725
		l1.797-0.701l0.882-4.099l-2.526-1.575l-0.028-0.889h3.31l0.667-0.795h0.998v-0.819l-1.644-2.402c0,0-0.09-1.185-0.326-1.684
		c-0.236-0.494-0.45-2.436-0.45-2.436c-0.695-0.388-2.379-2.984-2.748-3.892c-0.36-0.902-3.427-3.344-4.21-3.8
		c-0.778-0.452-2.935-2.852-2.935-2.852l-1.032-0.431l-2.012-1.921l-1.554-4.12l1.449-3.067c-1.213-0.776-1.644-3.218-1.644-3.218
		l-3.474-2.547l-2.076-0.522l2.374-3.327l1.256-0.708l1.143-0.09l0.838,0.799l-0.019-0.752l0.866-0.916l-0.929-1.639l1.769-0.712
		l-3.108-3.157h-1.942l-2.317-0.9l0.09-0.693l-3.975-1.729l-0.84-1.4l-0.09-2.679l1.727-0.624l0.848-2.552
		c1.123-0.411,3.197-2.283,3.197-2.283v-2.532l-0.846-0.672l0.117-7.595l-0.874-2.831l-2.481-2.504l-4.824-1.645v-4.489l0.861-4.466
		v-3.059l-0.921-1.622l2.462-3.317h-0.797c0,0-0.015-1.539-0.064-1.539c-0.049,0-0.825,0-0.825,0l2.366-0.897v-0.887l0.874-0.778
		l0.714-2.878l3.413-2.628l3.967,2.351c0,0,0.703,1.684,0.895,3.413l5.619,8.699l-0.938,1.65l3.242,4.877l0.887-0.923l2.33,1.699
		l2.56-1.053l-0.083,1.187l1.575-1.854l2.656,0.034l-0.143,1.562l2.232,1.013l0.742-0.97l1.055,0.021l2.302,2.502l3.315-0.872
		l0.569-0.723h1.068l0.631-0.893l-0.763-0.825l1.686-1.714c0,0,1.471-2.914,2.172-3.905l4.246,0.047l4.73-5.681l0.887,4.093
		l5.668,0.678c0,0,3.01-3.994,3.204-4.792l5.702,3.289l-0.957,2.462l4.391,0.825l3.822-0.921l-0.957-2.449l4.099-1.631l-4.125-2.351
		l4.125-1.673l3.033,1.652l3.385-3.933l4.854,4.101l-1.665,3.01l0.84,4.099l2.366,4.003l2.573-0.799l1.492-5.777l0.846,0.97
		l3.253-0.853l0.639,0.52l3.191,3.656l2.984,6.085l2.912,3.523l3.24,14.401l-1.686,6.139l0.111,2.974l-10.558,5.288L371.626,496.517
		z"/>
	<path id="XMLID_34_" class="st5" d="M347.333,358.797l-0.848,0.848l-3.148,4.815c-2.878-1.403-8.686-1.596-8.686-1.596
		l-0.688-0.829l-1.511-0.04l-2.185-0.819l-2.976,0.041l-0.652-0.949l-0.859,0.132l-1.362,1.552l-5.832,0.912v-2.554l-0.757,0.931
		v-0.931l-0.797,0.023l-0.91,1.573v-0.688l-1.727,0.023l-0.755,1.405c0,0-3.76-2.313-4.448-4.148
		c-0.693-1.837-5.229-2.809-5.229-2.809l-0.861-1.061l-0.512,0.908l-11.474,4.886h-0.514l-3.545-3.27l-3.37,0.806h-3.093
		l0.957-0.716l0.096-4.272l-0.887-1.658l-4.807-5.273l-0.083-3.434l1.748-0.714l-2.63-4.135l1.748-2.588l1.609-5.374l-3.336-4.101
		c0,0-7.109,1.019-7.158,0.998c-0.049-0.013-1.492-3.195-1.492-3.195l-0.013-3.555l2.268-5.278l0.789-5.05l4.065-0.667l0.848-4.097
		c0,0-4.813-1.59-4.813-1.629c0-0.051-3.421-8.138-3.421-8.138l7.422-8.012l1.797-0.993l2.754-2.796h6.742v-2.513l8.825-4.958
		l-5.67-14.416l2.374-0.921l2.385,0.921l1.626-2.428l4.252-3.688l3.476-3.116l2.089-2.816l0.006,0.098l1.686,2.914l-0.285,2.592
		l6.993,12.211l4.766,1.88l1.873,1.978l0.39,3.628l0.74,1.066l-1.034,1.358l0.974,3.436l-0.912,5.57l-1.094,2.496l2.198,5.246
		l-1.104,0.094l-0.158,4.858l0.548,2.566l1.464,0.318l-0.034,2.948l-2.88,2.33l1.944,1.396l0.158,2.33l1.396,1.978l-0.3,3.078
		l1.594,1.535l-0.09,1.852l1.341,1.471l0.409,3.137l-0.45,2.323l-1.443,0.477l1.358,1.341l0.015,3.933l0.693,0.908l0.264,6.021
		l2.27,3.977l3.3,2.893l-1.471,0.755l0.584,1.337l-1.464,3.801l1.725,0.993l1.14-2.609l3.913,2.2l0.908,2.462l2.809,1.471
		l1.507-0.46l1.665,2.033L347.333,358.797z"/>
	<path id="XMLID_33_" class="st5" d="M274.377,363.465l-4.114,1.603l0.861,8.13l-7.254,1.603l-5.802,6.444l3.434,5.591l-0.096,2.607
		l4.877,0.661l3.12,6.548h2.464l1.714,2.294l-0.062,1.82l3.191,2.17l0.026,1.808l2.387,3.894l-0.887,1.665
		c0,0-2.449,1.143-3.357,1.637c-0.91,0.478-1.388,4.016-1.388,4.016l-2.658,1.554c1.305,1.492,1,3.967,1,3.967l1.43,0.776h3.466
		l-0.034,4.973c0.776,0.52,2.394,2.978,2.394,2.978l1.17,2.643l1.292,1.554l-3.413,2.628l-0.714,2.878l-0.874,0.778v0.887
		l-2.366,0.897c0,0,0.776,0,0.825,0c0.049,0,0.064,1.539,0.064,1.539h0.797l-2.462,3.317l0.921,1.622v3.059l-0.861,4.466v4.489
		c0,0-1.42,1.539-1.469,1.554c-0.055,0.019-1.818,0.582-1.818,0.582l-2.343,0.292l-1.616-1.603l-0.799,2.402l-1.505,0.546
		l-2.871,3.031l-1.972,1.23h-3.295l-1.872,1.942l-2.123,4.487c-1.927,0.207-4.939,2.485-4.939,2.485l-2.4-1.694l-3.155,0.701
		l-1.554-2.04v-1.019l-1.089,0.111l-2.247-1.021l-1.554,0.874l-4.892-3.206l-0.797-3.856l-1.554-3.253c0,0,0.757-0.887,0.797-0.921
		c0-0.057-3.135-2.381-3.135-2.381l-0.915-2.351h2.394l1.656-1.81l-0.831-0.818l0.831-0.722l-0.831-0.812l-0.16,0.678l-3.794-4.638
		h-1.479l0.27-0.543l-1.949-0.923l0.173-2.27l0.561-1.185l-3.218-5.271l2.097-3.345l2.921-0.527l2.003-1.288l1.005,1.319l0.778,2.17
		l-0.049,2.428l2.462,4.986l2.733,2.123l4.114,0.147l6.222-3.387l-1.068-0.942h-3.191l-0.838,1.707l-2.658-0.134l-6.625-6.456
		l-0.437-4.463l-1.588-1.311l0.014-3.946l-1.034-1.637l1.118-5.619l4.127-4.314l2.302-2.651l1.019,1.533l1.818-3.865l1.554,1.639
		l1.603-1.867l-3.114-1.72l-1,1.076l-2.718-0.057l-0.411-1.699l-1.746-0.416l-0.147-2.304l0.729-0.791l-0.049-3.649l1.36-0.774
		l-0.034-2.707l0.582-2.963l1.345-0.859l1.166,0.895l-0.499,2.17l0.972,1.062l-1.008,1.249l2.234,0.812l-0.416-4.696l2.754-2.219
		l1.714,0.277l2.17-4.246l-2.705-2.831l1.469-3.142l4.137-0.859c0,0,0.774-1.957,0.825-1.957c0.049,0,1.72-1.801,1.72-1.801
		l-2.839-1.631l-1.081-2.353l4.773-2.837v-2.283l-1.132-1.117l-3.794,4.892l-4.611,2.609l-1.626-2.319l0.313-3.558l1.008-3.093
		l-1.347-0.582l-1.151,2.877l-0.791,3.824l-6.077,6.166l-4.244-2.537l3.517-6.48l-0.015-3.543l-2.365,1.275l0.09,2.074l-1.126,0.605
		l-2.254-0.098l-2.198-2.562l-0.444-2.545l-0.909-4.182l2.567-4.01l-3.435-3.112c0,0-0.748-3.534-1.427-5.052
		c-0.68-1.526-1.485-2.669-2.317-3.434c-0.827-0.761-2.22-2.012-2.296-2.899c-0.083-0.887,0-1.567,0-1.567l1.907-0.409l0.568-2.247
		l1.07,0.693l1.684-4.696l-0.304-3.336l1.984-0.584l-0.077-1.797l6.347-6.062l2.221-6.667l3.189-2.85l7.16,0.546l0.874-1.032
		l-5.216-1.262l0.991-2.219l7.963,3.494l4.941,0.083l0.021-1.187l-5.244-0.616l2.332-1.36l2.752,0.145l-1.04-2.085l-0.695-0.043
		l1.658-5.619l6.397-0.712l4.267-2.978l7.838-4.334c0,0,3.421,8.087,3.421,8.138c0,0.04,4.813,1.629,4.813,1.629l-0.848,4.097
		l-4.065,0.667l-0.789,5.05l-2.268,5.278l0.013,3.555c0,0,1.443,3.182,1.492,3.195c0.049,0.021,7.158-0.998,7.158-0.998l3.336,4.101
		l-1.609,5.374l-1.748,2.588l2.63,4.135l-1.748,0.714l0.083,3.434l4.807,5.273l0.887,1.658l-0.096,4.272l-0.957,0.716
		c0,0-5.521,0.763-5.57,0.763C274.981,358.721,274.377,363.465,274.377,363.465z"/>
	<polygon id="XMLID_32_" class="st5" points="226.4,381.928 224.24,377.734 224.907,375.278 223.677,375.278 223.309,377.8 
		225.252,381.822 	"/>
	<path id="XMLID_31_" class="st5" d="M304.144,534.996v0.819h-0.998l-0.667,0.795h-3.31l0.028,0.889l2.526,1.575l-0.882,4.099
		l-1.797,0.701l-2.115,4.725h-2.573l-0.716,1.756l-1.012,0.812l-1.554,3.95h-5.593c0,0-0.644,1.729-1.663,2.464l-0.825,3.116
		l-5.329-1.539h-2.698l-0.998-1.464l-1.034-3.157l-1.27-1.083l-0.631-1.552l-0.88,0.818l-2.831,1.513l-1.901,0.026l1.643,4.101
		l-0.866,1.513l-3.3-3.933l-4.885,1.624l-1.228,0.861l-0.97,0.047l-2.358-0.949l-1.686,0.859l-0.861-0.908l1.484-2.332l-2.304-0.882
		l-0.714,1.985l0.882,2.18h-1.311l-4.321,1.56l-1.776-0.064c-0.318-0.673-1.443-4.862-1.443-4.862l-2.588-0.09v0.972l-0.825,0.804
		l-1.727-1.776l-0.663-1.616l-2.36,5.03l0.846,1.388c-0.153,2.108,1.034,5.12,1.034,5.12l-2.165-0.141c0,0-2.108,1.688-2.179,1.688
		c-0.062,0-3.197-0.085-3.197-0.085v0.936l-1.616-0.936l-2.282,2.464l-1.867-0.84l-0.534-1.671l-1.76,0.846l-3.837-6.301
		c0,0-4.911-1.586-4.96-1.601c-0.041-0.021-5.73-6.576-5.73-6.576l0.209-4.792l-1.748-2.025v-1.362l1.713-2.884l-1.713-1.639
		l4.876-7.331l2.249-2.413l2.642,0.791l-1.589-2.368l0.667-3.315l3.287-1.573l-5.022-0.695l-7.11-9.732l4.03-2.426l8.115-2.451
		l0.847-1.718l-0.784-1.505l-6.618,2.398l0.887-1.624l-0.887-3.204l4.836-3.191l-0.853-0.716l2.441-1.49l1.638-5.064l2.462,0.081
		l-1.313-1.415l-3.661-5.098l-1.492,0.902l-1.685-1.68c0.943-1.65,1.791-7.497,1.791-7.497l1.164-0.348l1.956-1.904l1.624,0.143
		l2.282-0.859l0.076-0.84l2.4-0.949l0.049,1.032l4.938,2.366l2.254,4.093c1.034-1,4.191-1.701,4.191-1.701l-0.173-1.763l0.874-1.002
		v-2.076l1.554-0.874l2.247,1.021l1.089-0.111v1.019l1.554,2.04l3.155-0.701l2.4,1.694c0,0,3.012-2.277,4.939-2.485l2.123-4.487
		l1.872-1.942h3.295l1.972-1.23l2.871-3.031l1.505-0.546l0.799-2.402l1.616,1.603l2.343-0.292c0,0,1.763-0.563,1.818-0.582
		c0.049-0.015,1.469-1.554,1.469-1.554l4.824,1.645l2.481,2.504l0.874,2.831l-0.117,7.595l0.846,0.672v2.532
		c0,0-2.074,1.872-3.197,2.283l-0.848,2.552l-1.727,0.624l0.09,2.679l0.84,1.4l3.975,1.729l-0.09,0.693l2.317,0.9h1.942l3.108,3.157
		l-1.769,0.712l0.929,1.639l-0.866,0.916l0.019,0.752l-0.838-0.799l-1.143,0.09l-1.256,0.708l-2.374,3.327l2.076,0.522l3.474,2.547
		c0,0,0.431,2.441,1.644,3.218l-1.449,3.067l1.554,4.12l2.012,1.921l1.032,0.431c0,0,2.157,2.4,2.935,2.852
		c0.784,0.456,3.85,2.897,4.21,3.8c0.369,0.908,2.053,3.504,2.748,3.892c0,0,0.215,1.942,0.45,2.436
		c0.235,0.499,0.326,1.684,0.326,1.684L304.144,534.996z"/>
	<g>
		<path class="st6" d="M127.102,328.271l-1.596-8.104l-0.106-3.411l0.712-0.648l-1.643-2.505l-2.719-0.689l-2.031,0.17l-3.216-1.812
			l-4.776,1.36l-0.689,1.079l-1.018-1.038l-1.532-0.537l0.778-2.443h1.793l3.821-2.485l2.16-0.32l2.612-1.145l1.02-1.705
			l-0.113-6.482l-3.11-0.58l-0.842-1.515v-1.119l-1.035-1.341l-3.951-8.008l0.886-6.699l-3.266-2.394l0.047-1.013l1.661-3.954
			l-3.368-8.078l-4.642,1.149l-0.951-1.194l-4.687-2.888l-6.777-0.976l-4.192,1.816l-5.053-0.26l-0.883,0.908l-5.875,0.043
			l-5.549-0.865l-3.608,5.269l-1.879,1.921l-4.986,0.175l-2.849-0.974h-1.839v-1.339l-3.347,0.797c0,0-0.644-0.972-0.733-0.972
			c-0.089,0-1.23,0.52-1.23,0.52l-2.811,2.633l-0.623,4.777l-2.485,0.192l-0.624,3.131l-0.26,1.795l-1.295,3.15h-1.277
			c0,0-0.648,0.887-0.712,0.887c-0.065,0-2.311,1.49-2.311,1.49l-2.007,1.921l-2.095,2.095l0.045-0.866l-4.537,0.087l-5.142,0.844
			l-1.529-2.507c0,0-3.999,1.554-4.064,1.577c-0.065,0.023-0.666,3.329-0.666,3.329s0.926,0.669,0.926,0.735
			c0,0.062,1.229,2.33,1.229,2.33l1.947-0.196l4.772,1.731l0.042,2.568l-5.03,0.754l-3.134,3.329l-7.236-2.526l-2.308,2.419
			l-3.415,1.509l-0.666,0.887L0,303.301v0.84l1.983,3.979l1.967,5.589l2.526,3.025l0.649,2.502l2.247,0.627l1.079,1.104
			l-0.865,6.392l2.481,1.771l5.403,2.072l2.656,1.62l-0.112,1.797l2.917,2.153l0.972,1.149l1.622,0.646c0,0,1.985-0.844,2.567-1.1
			c0.583-0.258,1.514-0.497,1.514-0.497l-0.646,1.032l1.699,1.558l1.102,0.475l1.02,0.948l0.927-0.778l0.279-1.942l0.608-1.337
			v3.176l2.267-1.447l1.489-4.193l3.156-0.752l1.79,0.04l-0.042-3.973l-1.748-2.375l1.919-3.281l1.579,0.776l3.174-2.289
			l1.466-1.791l2.615-1.579l3.41,2.809l1.408,2.053l-0.049,1.705l0.996,0.865l0.712,1.577l-1.53,2.935l-0.129,1.837l1.659,0.759
			l-0.126,3.302l3.259,4.642l0.801-0.883l1.62-0.712l1.596,2.502v2.443l-2.349,3.886v2.739l0.73,2.942l1.471-0.757l0.755-0.887
			l4.08,0.906l1.725-1.793l2.335,2.532l1.598-0.608l1.661-3.543l1.684,2.571l1.554-1.748l1.667,1.84h2.567l6.953,7.382l1.579-1.684
			h1.855l3.155-2.549l2.98-6.305l0.105-2.639l2.526-2.008l1.49-2.779c-0.033,0.139-0.542,2.396-0.625,2.566
			c-0.088,0.171,7.19,3.216,7.19,3.216l2.14-2.355l4.902-3.325h0.995l-0.758-4.685l-0.818-1.837l-4.17,0.908l-0.793-0.818
			l2.456-2.227l1.622-3.457l-1.165-1.207l-0.024-1.428l1.125-3.065l-1.601-1.341l-0.106-2.502l0.907-0.972l1.06,0.128l3.822,3.864
			l0.924,4.773l0.089,2.594l-0.907,1.575h-0.995l0.129,6.52l0.736,1.622l3.326-4.817l-0.238-3.541L127.102,328.271z M89.919,309.738
			c0,0.066,0.882,3.304,0.882,3.304l-4.296,3.862l-2.065,3.351l-1.63-2.097l-2.697-1.123l-2.632,0.712l-2.551-1.315l1.188-4.34
			l4.47-4.28l3.41-6.303l0.442-3.046l1.591,1.812l0.756,3.025l3.563-1.187l3.759,0.411
			C94.111,302.525,89.919,309.674,89.919,309.738z"/>
		<ellipse id="XMLID_28_" class="st6" cx="86.863" cy="313.189" rx="11.931" ry="18.107"/>
	</g>
	<g>
		<g id="XMLID_161_">
			<path id="XMLID_162_" class="st7" d="M85.242,297.301c0,5.601-8.401,19.603-8.401,19.603s-8.401-14.002-8.401-19.603
				c0-4.64,3.761-8.401,8.401-8.401C81.481,288.9,85.242,292.661,85.242,297.301z M76.841,295.434c-1.031,0-1.867,0.836-1.867,1.867
				s0.836,1.867,1.867,1.867c1.031,0,1.867-0.836,1.867-1.867S77.872,295.434,76.841,295.434z"/>
		</g>
	</g>
	<g>
		<g id="XMLID_157_">
			<path id="XMLID_158_" class="st7" d="M356.151,587.776c0,5.251-7.876,18.378-7.876,18.378s-7.876-13.127-7.876-18.378
				c0-4.35,3.526-7.876,7.876-7.876S356.151,583.426,356.151,587.776z M348.274,586.026c-0.967,0-1.75,0.784-1.75,1.75
				s0.784,1.75,1.75,1.75s1.75-0.784,1.75-1.75S349.241,586.026,348.274,586.026z"/>
		</g>
	</g>
	<g>
		<g id="XMLID_153_">
			<path id="XMLID_154_" class="st7" d="M231.71,156.369c0,5.601-8.401,19.603-8.401,19.603s-8.401-14.002-8.401-19.603
				c0-4.64,3.761-8.401,8.401-8.401S231.71,151.729,231.71,156.369z M223.309,154.502c-1.031,0-1.867,0.836-1.867,1.867
				s0.836,1.867,1.867,1.867s1.867-0.836,1.867-1.867S224.34,154.502,223.309,154.502z"/>
		</g>
	</g>
	<g>
		<g id="XMLID_148_">
			<path id="XMLID_149_" class="st7" d="M302.134,420.504c0,5.601-8.401,19.603-8.401,19.603s-8.401-14.002-8.401-19.603
				c0-4.64,3.761-8.401,8.401-8.401S302.134,415.864,302.134,420.504z M293.732,418.637c-1.031,0-1.867,0.836-1.867,1.867
				c0,1.031,0.836,1.867,1.867,1.867s1.867-0.836,1.867-1.867C295.599,419.473,294.763,418.637,293.732,418.637z"/>
		</g>
	</g>
	<g>
		<g id="XMLID_144_">
			<path id="XMLID_145_" class="st7" d="M412.295,535.257c0,5.601-8.401,19.603-8.401,19.603s-8.401-14.002-8.401-19.603
				c0-4.64,3.761-8.401,8.401-8.401S412.295,530.617,412.295,535.257z M403.893,533.39c-1.031,0-1.867,0.836-1.867,1.867
				c0,1.031,0.836,1.867,1.867,1.867s1.867-0.836,1.867-1.867C405.76,534.226,404.924,533.39,403.893,533.39z"/>
		</g>
	</g>
	<g>
		<g id="XMLID_139_">
			<path id="XMLID_140_" class="st7" d="M151.866,639.222c0,5.601-8.401,19.603-8.401,19.603s-8.401-14.002-8.401-19.603
				c0-4.64,3.761-8.401,8.401-8.401C148.105,630.821,151.866,634.582,151.866,639.222z M143.465,637.355
				c-1.031,0-1.867,0.836-1.867,1.867c0,1.031,0.836,1.867,1.867,1.867s1.867-0.836,1.867-1.867
				C145.332,638.191,144.496,637.355,143.465,637.355z"/>
		</g>
	</g>
	<g>
		<g id="XMLID_137_">
			<path id="XMLID_138_" class="st7" d="M189.083,527.605c0,5.601-8.401,19.603-8.401,19.603s-8.401-14.002-8.401-19.603
				c0-4.64,3.761-8.401,8.401-8.401C185.322,519.204,189.083,522.965,189.083,527.605z M180.682,525.738
				c-1.031,0-1.867,0.836-1.867,1.867c0,1.031,0.836,1.867,1.867,1.867c1.031,0,1.867-0.836,1.867-1.867
				C182.549,526.574,181.713,525.738,180.682,525.738z"/>
		</g>
	</g>
</g>
</svg>
